<svg xmlns="http://www.w3.org/2000/svg" width="1280" height="720" viewBox="0 0 1280 720" role="img" aria-labelledby="title desc">
  <title id="title">Месячная гистограмма напряженности разработки Termin</title>
  <desc id="desc">Столбцы показывают месячный churn строк по объединенной истории текущего и архивного репозиториев.</desc>
  <style>
    .bg { fill: #f6f7f2; }
    .ink { fill: #202124; font-family: Segoe UI, Arial, sans-serif; }
    .muted { fill: #62665f; font-family: Segoe UI, Arial, sans-serif; }
    .small { fill: #202124; font: 600 14px Segoe UI, Arial, sans-serif; }
    .month { fill: #202124; font: 600 12px Segoe UI, Arial, sans-serif; text-anchor: end; }
    .bar-bg { fill: #d7d9d0; }
    .add { fill: #2e765e; }
    .del { fill: #b24a43; }
    .axis { stroke: #85887f; stroke-width: 1; }
  </style>
  <rect width="100%" height="100%" class="bg"/>
  <text x="32" y="46" class="ink" font-size="30" font-weight="800">Termin: месячная гистограмма напряженности</text>
  <text x="32" y="76" class="muted" font-size="16">Объединены текущий репозиторий и termin-archieve; init-коммит монорепы исключен. Шкала корневая.</text>
  <line x1="76" y1="592" x2="1246" y2="592" class="axis"/>
  <line x1="76" y1="88" x2="76" y2="592" class="axis"/>
  <g><title>2023-05: 927 строк churn, 10 коммитов</title><rect x="76.00" y="586.73" width="92.92" height="5.27" rx="3" class="bar-bg"/><rect x="76.00" y="587.46" width="92.92" height="4.54" rx="3" class="add"/><rect x="76.00" y="586.73" width="92.92" height="0.73" rx="3" class="del"/><text x="122.46" y="648" class="month" transform="rotate(-55 122.46 648)">2023-05</text></g><g><title>2023-06: 2 054 строк churn, 15 коммитов</title><rect x="173.92" y="584.15" width="92.92" height="7.85" rx="3" class="bar-bg"/><rect x="173.92" y="585.29" width="92.92" height="6.71" rx="3" class="add"/><rect x="173.92" y="584.15" width="92.92" height="1.14" rx="3" class="del"/><text x="220.38" y="648" class="month" transform="rotate(-55 220.38 648)">2023-06</text></g><g><title>2023-07: 12 308 строк churn, 56 коммитов</title><rect x="271.83" y="572.78" width="92.92" height="19.22" rx="3" class="bar-bg"/><rect x="271.83" y="579.26" width="92.92" height="12.74" rx="3" class="add"/><rect x="271.83" y="572.78" width="92.92" height="6.48" rx="3" class="del"/><text x="318.29" y="648" class="month" transform="rotate(-55 318.29 648)">2023-07</text></g><g><title>2023-08: 945 строк churn, 4 коммитов</title><rect x="369.75" y="586.67" width="92.92" height="5.33" rx="3" class="bar-bg"/><rect x="369.75" y="587.90" width="92.92" height="4.10" rx="3" class="add"/><rect x="369.75" y="586.67" width="92.92" height="1.23" rx="3" class="del"/><text x="416.21" y="648" class="month" transform="rotate(-55 416.21 648)">2023-08</text></g><g><title>2025-10: 3 294 строк churn, 13 коммитов</title><rect x="467.67" y="582.06" width="92.92" height="9.94" rx="3" class="bar-bg"/><rect x="467.67" y="585.48" width="92.92" height="6.52" rx="3" class="add"/><rect x="467.67" y="582.06" width="92.92" height="3.42" rx="3" class="del"/><text x="514.12" y="648" class="month" transform="rotate(-55 514.12 648)">2025-10</text></g><g><title>2025-11: 293 365 строк churn, 160 коммитов</title><rect x="565.58" y="498.16" width="92.92" height="93.84" rx="3" class="bar-bg"/><rect x="565.58" y="535.10" width="92.92" height="56.90" rx="3" class="add"/><rect x="565.58" y="498.16" width="92.92" height="36.94" rx="3" class="del"/><text x="612.04" y="648" class="month" transform="rotate(-55 612.04 648)">2025-11</text></g><g><title>2025-12: 7 322 354 строк churn, 1054 коммитов</title><rect x="663.50" y="123.18" width="92.92" height="468.82" rx="3" class="bar-bg"/><rect x="663.50" y="178.90" width="92.92" height="413.10" rx="3" class="add"/><rect x="663.50" y="123.18" width="92.92" height="55.72" rx="3" class="del"/><text x="709.96" y="648" class="month" transform="rotate(-55 709.96 648)">2025-12</text></g><g><title>2026-01: 6 341 914 строк churn, 400 коммитов</title><rect x="761.42" y="155.70" width="92.92" height="436.30" rx="3" class="bar-bg"/><rect x="761.42" y="492.23" width="92.92" height="99.77" rx="3" class="add"/><rect x="761.42" y="155.70" width="92.92" height="336.53" rx="3" class="del"/><text x="807.88" y="648" class="month" transform="rotate(-55 807.88 648)">2026-01</text></g><g><title>2026-02: 8 462 609 строк churn, 193 коммитов</title><rect x="859.33" y="88.00" width="92.92" height="504.00" rx="3" class="bar-bg"/><rect x="859.33" y="340.05" width="92.92" height="251.95" rx="3" class="add"/><rect x="859.33" y="88.00" width="92.92" height="252.05" rx="3" class="del"/><text x="905.79" y="648" class="month" transform="rotate(-55 905.79 648)">2026-02</text></g><g><title>2026-03: 165 521 строк churn, 269 коммитов</title><rect x="957.25" y="521.51" width="92.92" height="70.49" rx="3" class="bar-bg"/><rect x="957.25" y="556.97" width="92.92" height="35.03" rx="3" class="add"/><rect x="957.25" y="521.51" width="92.92" height="35.46" rx="3" class="del"/><text x="1003.71" y="648" class="month" transform="rotate(-55 1003.71 648)">2026-03</text></g><g><title>2026-04: 109 076 строк churn, 340 коммитов</title><rect x="1055.17" y="534.78" width="92.92" height="57.22" rx="3" class="bar-bg"/><rect x="1055.17" y="558.37" width="92.92" height="33.63" rx="3" class="add"/><rect x="1055.17" y="534.78" width="92.92" height="23.59" rx="3" class="del"/><text x="1101.62" y="648" class="month" transform="rotate(-55 1101.62 648)">2026-04</text></g><g><title>2026-05: 113 551 строк churn, 335 коммитов</title><rect x="1153.08" y="533.62" width="92.92" height="58.38" rx="3" class="bar-bg"/><rect x="1153.08" y="552.75" width="92.92" height="39.25" rx="3" class="add"/><rect x="1153.08" y="533.62" width="92.92" height="19.13" rx="3" class="del"/><text x="1199.54" y="648" class="month" transform="rotate(-55 1199.54 648)">2026-05</text></g>
  <text x="76" y="700" class="muted" font-size="13">Топ месяцев: 12 месяцев в истории, 2 849 коммитов</text>
  <text x="94" y="668" class="small">1. 2026-02: 8 462 609 строк, 193 коммитов</text><text x="94" y="686" class="small">2. 2025-12: 7 322 354 строк, 1 054 коммитов</text><text x="94" y="704" class="small">3. 2026-01: 6 341 914 строк, 400 коммитов</text>
</svg>
