<svg xmlns="http://www.w3.org/2000/svg" width="1120" height="660" viewBox="0 0 1120 660" role="img" aria-labelledby="title desc">
  <title id="title">Семь дней максимальной напряженности разработки Termin</title>
  <desc id="desc">Горизонтальные составные столбцы показывают добавления и удаления по дням.</desc>
  <style>
    .bg { fill: #f7f4ee; }
    .ink { fill: #202124; font-family: Segoe UI, Arial, sans-serif; }
    .muted { fill: #67645f; font-family: Segoe UI, Arial, sans-serif; }
    .day { fill: #202124; font: 700 21px Segoe UI, Arial, sans-serif; }
    .value { fill: #202124; font: 600 15px Segoe UI, Arial, sans-serif; }
    .bar-bg { fill: #ddd7cb; }
    .add { fill: #287a5b; }
    .del { fill: #b84a45; }
    .card { fill: #fffdf8; stroke: #ded8cb; }
  </style>
  <rect width="100%" height="100%" class="bg"/>
  <text x="32" y="48" class="ink" font-size="30" font-weight="800">Termin: семь дней максимальной напряженности</text>
  <text x="32" y="78" class="muted" font-size="17">Метрика: additions + deletions по git numstat. Шкала столбцов корневая, чтобы первичный импорт не съел график.</text>
  <rect x="30" y="560" width="326" height="64" rx="8" class="card"/>
  <text x="50" y="586" class="muted" font-size="15">Всего коммитов</text>
  <text x="50" y="613" class="ink" font-size="24" font-weight="800">2 849</text>
  <rect x="385" y="560" width="326" height="64" rx="8" class="card"/>
  <text x="405" y="586" class="muted" font-size="15">Учтено строковых изменений</text>
  <text x="405" y="613" class="ink" font-size="24" font-weight="800">22 827 918</text>
  <rect x="740" y="560" width="326" height="64" rx="8" class="card"/>
  <text x="760" y="586" class="muted" font-size="15">Дней с коммитами</text>
  <text x="760" y="613" class="ink" font-size="24" font-weight="800">185</text>
  <text x="32" y="138" class="day">2026-02-02</text><rect x="210" y="110" width="620.0" height="42" rx="6" class="bar-bg"/><rect x="210" y="110" width="413.29" height="42" rx="6" class="add"/><rect x="623.29" y="110" width="206.71" height="42" class="del"/><text x="850" y="137" class="value">6 291 071 lines, 23 commits, 2358 files</text><text x="32" y="204" class="day">2025-12-18</text><rect x="210" y="176" width="542.55" height="42" rx="6" class="bar-bg"/><rect x="210" y="176" width="508.42" height="42" rx="6" class="add"/><rect x="718.4200000000001" y="176" width="34.13" height="42" class="del"/><text x="850" y="203" class="value">4 817 521 lines, 51 commits, 196 files</text><text x="32" y="270" class="day">2026-01-04</text><rect x="210" y="242" width="500.87" height="42" rx="6" class="bar-bg"/><rect x="210" y="242" width="1.95" height="42" rx="6" class="add"/><rect x="211.95" y="242" width="498.92" height="42" class="del"/><text x="850" y="269" class="value">4 105 735 lines, 12 commits, 168 files</text><text x="32" y="336" class="day">2026-02-05</text><rect x="210" y="308" width="358.11" height="42" rx="6" class="bar-bg"/><rect x="210" y="308" width="0.62" height="42" rx="6" class="add"/><rect x="210.62" y="308" width="357.49" height="42" class="del"/><text x="850" y="335" class="value">2 098 870 lines, 21 commits, 813 files</text><text x="32" y="402" class="day">2025-12-15</text><rect x="210" y="374" width="291.37" height="42" rx="6" class="bar-bg"/><rect x="210" y="374" width="275.99" height="42" rx="6" class="add"/><rect x="485.99" y="374" width="15.38" height="42" class="del"/><text x="850" y="401" class="value">1 389 410 lines, 79 commits, 177 files</text><text x="32" y="468" class="day">2026-01-03</text><rect x="210" y="440" width="277.95" height="42" rx="6" class="bar-bg"/><rect x="210" y="440" width="163.68" height="42" rx="6" class="add"/><rect x="373.68" y="440" width="114.27" height="42" class="del"/><text x="850" y="467" class="value">1 264 341 lines, 20 commits, 120 files</text><text x="32" y="534" class="day">2025-12-16</text><rect x="210" y="506" width="162.62" height="42" rx="6" class="bar-bg"/><rect x="210" y="506" width="82.42" height="42" rx="6" class="add"/><rect x="292.42" y="506" width="80.2" height="42" class="del"/><text x="850" y="533" class="value">432 828 lines, 61 commits, 231 files</text>
</svg>
