<?xml version="1.0" encoding="UTF-8" standalone="no"?>
<!DOCTYPE svg PUBLIC "-//W3C//DTD SVG 1.1//EN"
 "http://www.w3.org/Graphics/SVG/1.1/DTD/svg11.dtd">
<!-- Generated by graphviz version 2.43.0 (0)
 -->
<!-- Title: termin_dependencies Pages: 1 -->
<svg width="1713pt" height="1277pt"
 viewBox="0.00 0.00 1712.80 1276.80" xmlns="http://www.w3.org/2000/svg" xmlns:xlink="http://www.w3.org/1999/xlink">
<g id="graph0" class="graph" transform="scale(1 1) rotate(0) translate(14.4 1262.4)">
<title>termin_dependencies</title>
<polygon fill="white" stroke="transparent" points="-14.4,14.4 -14.4,-1262.4 1698.4,-1262.4 1698.4,14.4 -14.4,14.4"/>
<g id="clust1" class="cluster">
<title>cluster_application</title>
<polygon fill="white" stroke="#999999" stroke-dasharray="5,2" points="1372,-399 1372,-540 1485,-540 1485,-399 1372,-399"/>
<text text-anchor="middle" x="1428.5" y="-526.4" font-family="DejaVu Sans" font-size="12.00">Application</text>
</g>
<g id="clust2" class="cluster">
<title>cluster_foundation</title>
<polygon fill="white" stroke="#999999" stroke-dasharray="5,2" points="197,-607 197,-884 1008,-884 1008,-607 197,-607"/>
<text text-anchor="middle" x="602.5" y="-870.4" font-family="DejaVu Sans" font-size="12.00">Foundation</text>
</g>
<g id="clust3" class="cluster">
<title>cluster_namespace</title>
<polygon fill="white" stroke="#999999" stroke-dasharray="5,2" points="201.5,-1095 201.5,-1168 289.5,-1168 289.5,-1095 201.5,-1095"/>
<text text-anchor="middle" x="245.5" y="-1154.4" font-family="DejaVu Sans" font-size="12.00">Namespace</text>
</g>
<g id="clust4" class="cluster">
<title>cluster_native_interop</title>
<polygon fill="white" stroke="#999999" stroke-dasharray="5,2" points="1569,-208 1569,-281 1676,-281 1676,-208 1569,-208"/>
<text text-anchor="middle" x="1622.5" y="-267.4" font-family="DejaVu Sans" font-size="12.00">Native Interop</text>
</g>
<g id="clust5" class="cluster">
<title>cluster_other_components</title>
<polygon fill="white" stroke="#999999" stroke-dasharray="5,2" points="848,-892 848,-1101 1520,-1101 1520,-892 848,-892"/>
<text text-anchor="middle" x="1184" y="-1087.4" font-family="DejaVu Sans" font-size="12.00">Other Components</text>
</g>
<g id="clust6" class="cluster">
<title>cluster_python_support</title>
<polygon fill="white" stroke="#999999" stroke-dasharray="5,2" points="8,-607 8,-748 151,-748 151,-607 8,-607"/>
<text text-anchor="middle" x="79.5" y="-734.4" font-family="DejaVu Sans" font-size="12.00">Python Support</text>
</g>
<g id="clust7" class="cluster">
<title>cluster_render_stack</title>
<polygon fill="white" stroke="#999999" stroke-dasharray="5,2" points="516,-458 516,-599 1279,-599 1279,-458 516,-458"/>
<text text-anchor="middle" x="897.5" y="-585.4" font-family="DejaVu Sans" font-size="12.00">Render Stack</text>
</g>
<g id="clust8" class="cluster">
<title>cluster_runtime</title>
<polygon fill="white" stroke="#999999" stroke-dasharray="5,2" points="1136.5,-607 1136.5,-680 1243.5,-680 1243.5,-607 1136.5,-607"/>
<text text-anchor="middle" x="1190" y="-666.4" font-family="DejaVu Sans" font-size="12.00">Runtime</text>
</g>
<g id="clust9" class="cluster">
<title>cluster_thin_facades</title>
<polygon fill="white" stroke="#999999" stroke-dasharray="5,2" points="355,-1167 355,-1240 458,-1240 458,-1167 355,-1167"/>
<text text-anchor="middle" x="406.5" y="-1226.4" font-family="DejaVu Sans" font-size="12.00">Thin Facades</text>
</g>
<g id="clust10" class="cluster">
<title>cluster_ui</title>
<polygon fill="white" stroke="#999999" stroke-dasharray="5,2" points="902,-8 902,-149 1254.5,-149 1254.5,-8 902,-8"/>
<text text-anchor="middle" x="1078.25" y="-135.4" font-family="DejaVu Sans" font-size="12.00">UI</text>
</g>
<!-- diffusion&#45;editor -->
<g id="node1" class="node">
<title>diffusion&#45;editor</title>
<path fill="#f7f7f7" stroke="#444444" d="M1465,-443C1465,-443 1392,-443 1392,-443 1386,-443 1380,-437 1380,-431 1380,-431 1380,-419 1380,-419 1380,-413 1386,-407 1392,-407 1392,-407 1465,-407 1465,-407 1471,-407 1477,-413 1477,-419 1477,-419 1477,-431 1477,-431 1477,-437 1471,-443 1465,-443"/>
<text text-anchor="middle" x="1428.5" y="-422.2" font-family="DejaVu Sans" font-size="11.00">diffusion&#45;editor</text>
</g>
<!-- termin&#45;app -->
<g id="node2" class="node">
<title>termin&#45;app</title>
<path fill="#f7f7f7" stroke="#444444" d="M1454,-511C1454,-511 1403,-511 1403,-511 1397,-511 1391,-505 1391,-499 1391,-499 1391,-487 1391,-487 1391,-481 1397,-475 1403,-475 1403,-475 1454,-475 1454,-475 1460,-475 1466,-481 1466,-487 1466,-487 1466,-499 1466,-499 1466,-505 1460,-511 1454,-511"/>
<text text-anchor="middle" x="1428.5" y="-490.2" font-family="DejaVu Sans" font-size="11.00">termin&#45;app</text>
</g>
<!-- termin&#45;csharp -->
<g id="node16" class="node">
<title>termin&#45;csharp</title>
<path fill="#f7f7f7" stroke="#444444" d="M1656,-252C1656,-252 1589,-252 1589,-252 1583,-252 1577,-246 1577,-240 1577,-240 1577,-228 1577,-228 1577,-222 1583,-216 1589,-216 1589,-216 1656,-216 1656,-216 1662,-216 1668,-222 1668,-228 1668,-228 1668,-240 1668,-240 1668,-246 1662,-252 1656,-252"/>
<text text-anchor="middle" x="1622.5" y="-231.2" font-family="DejaVu Sans" font-size="11.00">termin&#45;csharp</text>
</g>
<!-- termin&#45;app&#45;&gt;termin&#45;csharp -->
<g id="edge6" class="edge">
<title>termin&#45;app&#45;&gt;termin&#45;csharp</title>
<path fill="none" stroke="#666666" stroke-width="1.1" d="M1466.1,-486.2C1484.16,-481.25 1505.18,-472.89 1520,-459 1579.79,-402.94 1606.9,-305.05 1616.78,-259.13"/>
<polygon fill="#666666" stroke="#666666" stroke-width="1.1" points="1619.19,-259.57 1618.22,-252.22 1614.4,-258.57 1619.19,-259.57"/>
</g>
<!-- termin&#45;animation -->
<g id="node3" class="node">
<title>termin&#45;animation</title>
<path fill="#f7f7f7" stroke="#444444" d="M988,-802C988,-802 903,-802 903,-802 897,-802 891,-796 891,-790 891,-790 891,-778 891,-778 891,-772 897,-766 903,-766 903,-766 988,-766 988,-766 994,-766 1000,-772 1000,-778 1000,-778 1000,-790 1000,-790 1000,-796 994,-802 988,-802"/>
<text text-anchor="middle" x="945.5" y="-781.2" font-family="DejaVu Sans" font-size="11.00">termin&#45;animation</text>
</g>
<!-- termin&#45;components&#45;animation -->
<g id="node17" class="node">
<title>termin&#45;components&#45;animation</title>
<path fill="#f7f7f7" stroke="#444444" d="M1268,-936C1268,-936 1112,-936 1112,-936 1106,-936 1100,-930 1100,-924 1100,-924 1100,-912 1100,-912 1100,-906 1106,-900 1112,-900 1112,-900 1268,-900 1268,-900 1274,-900 1280,-906 1280,-912 1280,-912 1280,-924 1280,-924 1280,-930 1274,-936 1268,-936"/>
<text text-anchor="middle" x="1190" y="-915.2" font-family="DejaVu Sans" font-size="11.00">termin&#45;components&#45;animation</text>
</g>
<!-- termin&#45;animation&#45;&gt;termin&#45;components&#45;animation -->
<g id="edge5" class="edge">
<title>termin&#45;animation&#45;&gt;termin&#45;components&#45;animation</title>
<path fill="none" stroke="#666666" stroke-width="1.1" d="M986.55,-802.02C1001.87,-809.17 1019.4,-817.66 1035,-826 1076.97,-848.43 1123.71,-876.86 1154.57,-896.14"/>
<polygon fill="#666666" stroke="#666666" stroke-width="1.1" points="1153.29,-898.23 1160.52,-899.87 1155.89,-894.08 1153.29,-898.23"/>
</g>
<!-- termin&#45;base -->
<g id="node4" class="node">
<title>termin&#45;base</title>
<path fill="#f7f7f7" stroke="#444444" d="M274,-719C274,-719 217,-719 217,-719 211,-719 205,-713 205,-707 205,-707 205,-695 205,-695 205,-689 211,-683 217,-683 217,-683 274,-683 274,-683 280,-683 286,-689 286,-695 286,-695 286,-707 286,-707 286,-713 280,-719 274,-719"/>
<text text-anchor="middle" x="245.5" y="-698.2" font-family="DejaVu Sans" font-size="11.00">termin&#45;base</text>
</g>
<!-- termin&#45;inspect -->
<g id="node8" class="node">
<title>termin&#45;inspect</title>
<path fill="#f7f7f7" stroke="#444444" d="M441.5,-855C441.5,-855 371.5,-855 371.5,-855 365.5,-855 359.5,-849 359.5,-843 359.5,-843 359.5,-831 359.5,-831 359.5,-825 365.5,-819 371.5,-819 371.5,-819 441.5,-819 441.5,-819 447.5,-819 453.5,-825 453.5,-831 453.5,-831 453.5,-843 453.5,-843 453.5,-849 447.5,-855 441.5,-855"/>
<text text-anchor="middle" x="406.5" y="-834.2" font-family="DejaVu Sans" font-size="11.00">termin&#45;inspect</text>
</g>
<!-- termin&#45;base&#45;&gt;termin&#45;inspect -->
<g id="edge8" class="edge">
<title>termin&#45;base&#45;&gt;termin&#45;inspect</title>
<path fill="none" stroke="#666666" stroke-width="1.1" d="M263.88,-719.34C284.44,-740.59 320.16,-776.11 354,-803 359.11,-807.06 364.71,-811.12 370.27,-814.94"/>
<polygon fill="#666666" stroke="#666666" stroke-width="1.1" points="369.1,-817.1 376.27,-818.98 371.84,-813.04 369.1,-817.1"/>
</g>
<!-- termin&#45;mesh -->
<g id="node9" class="node">
<title>termin&#45;mesh</title>
<path fill="#f7f7f7" stroke="#444444" d="M436.5,-787C436.5,-787 376.5,-787 376.5,-787 370.5,-787 364.5,-781 364.5,-775 364.5,-775 364.5,-763 364.5,-763 364.5,-757 370.5,-751 376.5,-751 376.5,-751 436.5,-751 436.5,-751 442.5,-751 448.5,-757 448.5,-763 448.5,-763 448.5,-775 448.5,-775 448.5,-781 442.5,-787 436.5,-787"/>
<text text-anchor="middle" x="406.5" y="-766.2" font-family="DejaVu Sans" font-size="11.00">termin&#45;mesh</text>
</g>
<!-- termin&#45;base&#45;&gt;termin&#45;mesh -->
<g id="edge10" class="edge">
<title>termin&#45;base&#45;&gt;termin&#45;mesh</title>
<path fill="none" stroke="#666666" stroke-width="1.1" d="M286.21,-717.98C307.9,-727.26 334.9,-738.81 357.73,-748.57"/>
<polygon fill="#666666" stroke="#666666" stroke-width="1.1" points="356.96,-750.9 364.36,-751.4 358.88,-746.4 356.96,-750.9"/>
</g>
<!-- termin&#45;modules -->
<g id="node10" class="node">
<title>termin&#45;modules</title>
<path fill="#f7f7f7" stroke="#444444" d="M445,-651C445,-651 368,-651 368,-651 362,-651 356,-645 356,-639 356,-639 356,-627 356,-627 356,-621 362,-615 368,-615 368,-615 445,-615 445,-615 451,-615 457,-621 457,-627 457,-627 457,-639 457,-639 457,-645 451,-651 445,-651"/>
<text text-anchor="middle" x="406.5" y="-630.2" font-family="DejaVu Sans" font-size="11.00">termin&#45;modules</text>
</g>
<!-- termin&#45;base&#45;&gt;termin&#45;modules -->
<g id="edge11" class="edge">
<title>termin&#45;base&#45;&gt;termin&#45;modules</title>
<path fill="none" stroke="#666666" stroke-width="1.1" d="M286.21,-684.02C307.56,-674.89 334.07,-663.55 356.67,-653.89"/>
<polygon fill="#666666" stroke="#666666" stroke-width="1.1" points="357.76,-656.08 363.24,-651.08 355.84,-651.58 357.76,-656.08"/>
</g>
<!-- termin&#45;navmesh -->
<g id="node11" class="node">
<title>termin&#45;navmesh</title>
<path fill="#f7f7f7" stroke="#444444" d="M447,-719C447,-719 366,-719 366,-719 360,-719 354,-713 354,-707 354,-707 354,-695 354,-695 354,-689 360,-683 366,-683 366,-683 447,-683 447,-683 453,-683 459,-689 459,-695 459,-695 459,-707 459,-707 459,-713 453,-719 447,-719"/>
<text text-anchor="middle" x="406.5" y="-698.2" font-family="DejaVu Sans" font-size="11.00">termin&#45;navmesh</text>
</g>
<!-- termin&#45;base&#45;&gt;termin&#45;navmesh -->
<g id="edge12" class="edge">
<title>termin&#45;base&#45;&gt;termin&#45;navmesh</title>
<path fill="none" stroke="#666666" stroke-width="1.1" d="M286.21,-701C304.56,-701 326.72,-701 346.93,-701"/>
<polygon fill="#666666" stroke="#666666" stroke-width="1.1" points="346.99,-703.45 353.99,-701 346.99,-698.55 346.99,-703.45"/>
</g>
<!-- termin&#45;lighting -->
<g id="node28" class="node">
<title>termin&#45;lighting</title>
<path fill="#f7f7f7" stroke="#444444" d="M610,-570C610,-570 539,-570 539,-570 533,-570 527,-564 527,-558 527,-558 527,-546 527,-546 527,-540 533,-534 539,-534 539,-534 610,-534 610,-534 616,-534 622,-540 622,-546 622,-546 622,-558 622,-558 622,-564 616,-570 610,-570"/>
<text text-anchor="middle" x="574.5" y="-549.2" font-family="DejaVu Sans" font-size="11.00">termin&#45;lighting</text>
</g>
<!-- termin&#45;base&#45;&gt;termin&#45;lighting -->
<g id="edge9" class="edge">
<title>termin&#45;base&#45;&gt;termin&#45;lighting</title>
<path fill="none" stroke="#666666" stroke-width="1.1" d="M260.33,-682.73C278.97,-659.49 314.4,-619.87 354,-599 406.2,-571.49 473.43,-560.08 519.65,-555.35"/>
<polygon fill="#666666" stroke="#666666" stroke-width="1.1" points="520.16,-557.76 526.89,-554.65 519.68,-552.89 520.16,-557.76"/>
</g>
<!-- termin&#45;collision -->
<g id="node5" class="node">
<title>termin&#45;collision</title>
<path fill="#f7f7f7" stroke="#444444" d="M778,-770C778,-770 703,-770 703,-770 697,-770 691,-764 691,-758 691,-758 691,-746 691,-746 691,-740 697,-734 703,-734 703,-734 778,-734 778,-734 784,-734 790,-740 790,-746 790,-746 790,-758 790,-758 790,-764 784,-770 778,-770"/>
<text text-anchor="middle" x="740.5" y="-749.2" font-family="DejaVu Sans" font-size="11.00">termin&#45;collision</text>
</g>
<!-- termin&#45;physics -->
<g id="node12" class="node">
<title>termin&#45;physics</title>
<path fill="#f7f7f7" stroke="#444444" d="M981.5,-734C981.5,-734 909.5,-734 909.5,-734 903.5,-734 897.5,-728 897.5,-722 897.5,-722 897.5,-710 897.5,-710 897.5,-704 903.5,-698 909.5,-698 909.5,-698 981.5,-698 981.5,-698 987.5,-698 993.5,-704 993.5,-710 993.5,-710 993.5,-722 993.5,-722 993.5,-728 987.5,-734 981.5,-734"/>
<text text-anchor="middle" x="945.5" y="-713.2" font-family="DejaVu Sans" font-size="11.00">termin&#45;physics</text>
</g>
<!-- termin&#45;collision&#45;&gt;termin&#45;physics -->
<g id="edge15" class="edge">
<title>termin&#45;collision&#45;&gt;termin&#45;physics</title>
<path fill="none" stroke="#666666" stroke-width="1.1" d="M790.12,-743.38C820.33,-738.02 859.21,-731.13 890.39,-725.6"/>
<polygon fill="#666666" stroke="#666666" stroke-width="1.1" points="890.86,-728 897.32,-724.37 890,-723.18 890.86,-728"/>
</g>
<!-- termin&#45;components&#45;collision -->
<g id="node18" class="node">
<title>termin&#45;components&#45;collision</title>
<path fill="#f7f7f7" stroke="#444444" d="M1263,-1004C1263,-1004 1117,-1004 1117,-1004 1111,-1004 1105,-998 1105,-992 1105,-992 1105,-980 1105,-980 1105,-974 1111,-968 1117,-968 1117,-968 1263,-968 1263,-968 1269,-968 1275,-974 1275,-980 1275,-980 1275,-992 1275,-992 1275,-998 1269,-1004 1263,-1004"/>
<text text-anchor="middle" x="1190" y="-983.2" font-family="DejaVu Sans" font-size="11.00">termin&#45;components&#45;collision</text>
</g>
<!-- termin&#45;collision&#45;&gt;termin&#45;components&#45;collision -->
<g id="edge13" class="edge">
<title>termin&#45;collision&#45;&gt;termin&#45;components&#45;collision</title>
<path fill="none" stroke="#666666" stroke-width="1.1" d="M767.3,-770.19C788.33,-784.47 819.17,-804.18 848,-818 927.47,-856.1 960.97,-836.17 1035,-884 1070.12,-906.69 1065.18,-928.86 1100,-952 1107.47,-956.96 1115.76,-961.34 1124.19,-965.17"/>
<polygon fill="#666666" stroke="#666666" stroke-width="1.1" points="1123.26,-967.44 1130.66,-967.99 1125.22,-962.95 1123.26,-967.44"/>
</g>
<!-- termin&#45;engine -->
<g id="node30" class="node">
<title>termin&#45;engine</title>
<path fill="#f7f7f7" stroke="#444444" d="M1223.5,-651C1223.5,-651 1156.5,-651 1156.5,-651 1150.5,-651 1144.5,-645 1144.5,-639 1144.5,-639 1144.5,-627 1144.5,-627 1144.5,-621 1150.5,-615 1156.5,-615 1156.5,-615 1223.5,-615 1223.5,-615 1229.5,-615 1235.5,-621 1235.5,-627 1235.5,-627 1235.5,-639 1235.5,-639 1235.5,-645 1229.5,-651 1223.5,-651"/>
<text text-anchor="middle" x="1190" y="-630.2" font-family="DejaVu Sans" font-size="11.00">termin&#45;engine</text>
</g>
<!-- termin&#45;collision&#45;&gt;termin&#45;engine -->
<g id="edge14" class="edge">
<title>termin&#45;collision&#45;&gt;termin&#45;engine</title>
<path fill="none" stroke="#666666" stroke-width="1.1" d="M762.78,-733.9C783.24,-717.55 815.72,-694.23 848,-682 945.68,-645 1068.78,-635.68 1137.16,-633.49"/>
<polygon fill="#666666" stroke="#666666" stroke-width="1.1" points="1137.49,-635.93 1144.41,-633.28 1137.34,-631.03 1137.49,-635.93"/>
</g>
<!-- termin&#45;csg -->
<g id="node6" class="node">
<title>termin&#45;csg</title>
<path fill="#f7f7f7" stroke="#444444" d="M599,-787C599,-787 550,-787 550,-787 544,-787 538,-781 538,-775 538,-775 538,-763 538,-763 538,-757 544,-751 550,-751 550,-751 599,-751 599,-751 605,-751 611,-757 611,-763 611,-763 611,-775 611,-775 611,-781 605,-787 599,-787"/>
<text text-anchor="middle" x="574.5" y="-766.2" font-family="DejaVu Sans" font-size="11.00">termin&#45;csg</text>
</g>
<!-- termin&#45;input -->
<g id="node7" class="node">
<title>termin&#45;input</title>
<path fill="#f7f7f7" stroke="#444444" d="M769.5,-668C769.5,-668 711.5,-668 711.5,-668 705.5,-668 699.5,-662 699.5,-656 699.5,-656 699.5,-644 699.5,-644 699.5,-638 705.5,-632 711.5,-632 711.5,-632 769.5,-632 769.5,-632 775.5,-632 781.5,-638 781.5,-644 781.5,-644 781.5,-656 781.5,-656 781.5,-662 775.5,-668 769.5,-668"/>
<text text-anchor="middle" x="740.5" y="-647.2" font-family="DejaVu Sans" font-size="11.00">termin&#45;input</text>
</g>
<!-- termin&#45;display -->
<g id="node26" class="node">
<title>termin&#45;display</title>
<path fill="#f7f7f7" stroke="#444444" d="M980,-570C980,-570 911,-570 911,-570 905,-570 899,-564 899,-558 899,-558 899,-546 899,-546 899,-540 905,-534 911,-534 911,-534 980,-534 980,-534 986,-534 992,-540 992,-546 992,-546 992,-558 992,-558 992,-564 986,-570 980,-570"/>
<text text-anchor="middle" x="945.5" y="-549.2" font-family="DejaVu Sans" font-size="11.00">termin&#45;display</text>
</g>
<!-- termin&#45;input&#45;&gt;termin&#45;display -->
<g id="edge34" class="edge">
<title>termin&#45;input&#45;&gt;termin&#45;display</title>
<path fill="none" stroke="#666666" stroke-width="1.1" d="M779.21,-631.8C813.53,-615.23 864.23,-590.75 900.41,-573.28"/>
<polygon fill="#666666" stroke="#666666" stroke-width="1.1" points="901.76,-575.36 906.99,-570.11 899.63,-570.94 901.76,-575.36"/>
</g>
<!-- termin&#45;scene -->
<g id="node13" class="node">
<title>termin&#45;scene</title>
<path fill="#f7f7f7" stroke="#444444" d="M606,-855C606,-855 543,-855 543,-855 537,-855 531,-849 531,-843 531,-843 531,-831 531,-831 531,-825 537,-819 543,-819 543,-819 606,-819 606,-819 612,-819 618,-825 618,-831 618,-831 618,-843 618,-843 618,-849 612,-855 606,-855"/>
<text text-anchor="middle" x="574.5" y="-834.2" font-family="DejaVu Sans" font-size="11.00">termin&#45;scene</text>
</g>
<!-- termin&#45;inspect&#45;&gt;termin&#45;scene -->
<g id="edge35" class="edge">
<title>termin&#45;inspect&#45;&gt;termin&#45;scene</title>
<path fill="none" stroke="#666666" stroke-width="1.1" d="M453.74,-837C475.55,-837 501.61,-837 523.85,-837"/>
<polygon fill="#666666" stroke="#666666" stroke-width="1.1" points="523.92,-839.45 530.92,-837 523.92,-834.55 523.92,-839.45"/>
</g>
<!-- termin&#45;mesh&#45;&gt;termin&#45;csg -->
<g id="edge38" class="edge">
<title>termin&#45;mesh&#45;&gt;termin&#45;csg</title>
<path fill="none" stroke="#666666" stroke-width="1.1" d="M448.53,-769C473.44,-769 505.18,-769 530.45,-769"/>
<polygon fill="#666666" stroke="#666666" stroke-width="1.1" points="530.72,-771.45 537.72,-769 530.72,-766.55 530.72,-771.45"/>
</g>
<!-- termin&#45;components&#45;mesh -->
<g id="node20" class="node">
<title>termin&#45;components&#45;mesh</title>
<path fill="#f7f7f7" stroke="#444444" d="M1011.5,-1072C1011.5,-1072 879.5,-1072 879.5,-1072 873.5,-1072 867.5,-1066 867.5,-1060 867.5,-1060 867.5,-1048 867.5,-1048 867.5,-1042 873.5,-1036 879.5,-1036 879.5,-1036 1011.5,-1036 1011.5,-1036 1017.5,-1036 1023.5,-1042 1023.5,-1048 1023.5,-1048 1023.5,-1060 1023.5,-1060 1023.5,-1066 1017.5,-1072 1011.5,-1072"/>
<text text-anchor="middle" x="945.5" y="-1051.2" font-family="DejaVu Sans" font-size="11.00">termin&#45;components&#45;mesh</text>
</g>
<!-- termin&#45;mesh&#45;&gt;termin&#45;components&#45;mesh -->
<g id="edge37" class="edge">
<title>termin&#45;mesh&#45;&gt;termin&#45;components&#45;mesh</title>
<path fill="none" stroke="#666666" stroke-width="1.1" d="M437.99,-787.02C445.18,-791.84 452.6,-797.29 459,-803 488.43,-829.25 486.63,-844.68 516,-871 585.22,-933.02 605.24,-948.87 690,-987 744.42,-1011.48 809.56,-1028.42 860.31,-1039.14"/>
<polygon fill="#666666" stroke="#666666" stroke-width="1.1" points="860.02,-1041.59 867.37,-1040.62 861.02,-1036.79 860.02,-1041.59"/>
</g>
<!-- termin&#45;graphics -->
<g id="node27" class="node">
<title>termin&#45;graphics</title>
<path fill="#f7f7f7" stroke="#444444" d="M613,-502C613,-502 536,-502 536,-502 530,-502 524,-496 524,-490 524,-490 524,-478 524,-478 524,-472 530,-466 536,-466 536,-466 613,-466 613,-466 619,-466 625,-472 625,-478 625,-478 625,-490 625,-490 625,-496 619,-502 613,-502"/>
<text text-anchor="middle" x="574.5" y="-481.2" font-family="DejaVu Sans" font-size="11.00">termin&#45;graphics</text>
</g>
<!-- termin&#45;mesh&#45;&gt;termin&#45;graphics -->
<g id="edge39" class="edge">
<title>termin&#45;mesh&#45;&gt;termin&#45;graphics</title>
<path fill="none" stroke="#666666" stroke-width="1.1" d="M442.63,-750.89C448.8,-746.4 454.63,-741.09 459,-735 517.11,-653.96 455.9,-597.57 516,-518 519.29,-513.64 523.32,-509.73 527.7,-506.26"/>
<polygon fill="#666666" stroke="#666666" stroke-width="1.1" points="529.2,-508.2 533.41,-502.09 526.31,-504.24 529.2,-508.2"/>
</g>
<!-- termin&#45;modules&#45;&gt;termin&#45;app -->
<g id="edge40" class="edge">
<title>termin&#45;modules&#45;&gt;termin&#45;app</title>
<path fill="none" stroke="#666666" stroke-width="1.1" d="M410.84,-614.93C419.87,-570.87 448.78,-456.82 516,-392 593.2,-317.55 632.25,-301 739.5,-301 739.5,-301 739.5,-301 946.5,-301 1102.16,-301 1142.5,-335.03 1280,-408 1312.44,-425.21 1313.28,-440.5 1345,-459 1357.19,-466.11 1371.16,-472.47 1384.09,-477.71"/>
<polygon fill="#666666" stroke="#666666" stroke-width="1.1" points="1383.33,-480.04 1390.74,-480.34 1385.13,-475.49 1383.33,-480.04"/>
</g>
<!-- termin&#45;navmesh&#45;&gt;termin&#45;app -->
<g id="edge43" class="edge">
<title>termin&#45;navmesh&#45;&gt;termin&#45;app</title>
<path fill="none" stroke="#666666" stroke-width="1.1" d="M442.63,-682.89C448.8,-678.4 454.63,-673.09 459,-667 517.11,-585.96 437.04,-510.9 516,-450 537.34,-433.54 557.78,-357.89 1280,-454 1315.61,-458.74 1354.89,-469.4 1383.95,-478.38"/>
<polygon fill="#666666" stroke="#666666" stroke-width="1.1" points="1383.33,-480.76 1390.74,-480.51 1384.79,-476.08 1383.33,-480.76"/>
</g>
<!-- termin&#45;components&#45;physics -->
<g id="node21" class="node">
<title>termin&#45;components&#45;physics</title>
<path fill="#f7f7f7" stroke="#444444" d="M1500,-936C1500,-936 1357,-936 1357,-936 1351,-936 1345,-930 1345,-924 1345,-924 1345,-912 1345,-912 1345,-906 1351,-900 1357,-900 1357,-900 1500,-900 1500,-900 1506,-900 1512,-906 1512,-912 1512,-912 1512,-924 1512,-924 1512,-930 1506,-936 1500,-936"/>
<text text-anchor="middle" x="1428.5" y="-915.2" font-family="DejaVu Sans" font-size="11.00">termin&#45;components&#45;physics</text>
</g>
<!-- termin&#45;physics&#45;&gt;termin&#45;components&#45;physics -->
<g id="edge45" class="edge">
<title>termin&#45;physics&#45;&gt;termin&#45;components&#45;physics</title>
<path fill="none" stroke="#666666" stroke-width="1.1" d="M993.94,-733.85C1007.26,-738.96 1021.73,-744.61 1035,-750 1160.5,-800.95 1306.82,-864.76 1380.29,-897.11"/>
<polygon fill="#666666" stroke="#666666" stroke-width="1.1" points="1379.35,-899.38 1386.75,-899.96 1381.33,-894.89 1379.35,-899.38"/>
</g>
<!-- termin&#45;scene&#45;&gt;termin&#45;collision -->
<g id="edge47" class="edge">
<title>termin&#45;scene&#45;&gt;termin&#45;collision</title>
<path fill="none" stroke="#666666" stroke-width="1.1" d="M610.28,-818.97C636.05,-805.62 671.25,-787.37 698.4,-773.3"/>
<polygon fill="#666666" stroke="#666666" stroke-width="1.1" points="699.68,-775.4 704.77,-770 697.43,-771.05 699.68,-775.4"/>
</g>
<!-- termin&#45;scene&#45;&gt;termin&#45;input -->
<g id="edge50" class="edge">
<title>termin&#45;scene&#45;&gt;termin&#45;input</title>
<path fill="none" stroke="#666666" stroke-width="1.1" d="M605.25,-818.9C612.07,-814.13 619.06,-808.7 625,-803 630.69,-797.54 691.1,-715.78 721.8,-674.08"/>
<polygon fill="#666666" stroke="#666666" stroke-width="1.1" points="723.93,-675.32 726.1,-668.23 719.98,-672.42 723.93,-675.32"/>
</g>
<!-- termin&#45;skeleton -->
<g id="node14" class="node">
<title>termin&#45;skeleton</title>
<path fill="#f7f7f7" stroke="#444444" d="M779,-855C779,-855 702,-855 702,-855 696,-855 690,-849 690,-843 690,-843 690,-831 690,-831 690,-825 696,-819 702,-819 702,-819 779,-819 779,-819 785,-819 791,-825 791,-831 791,-831 791,-843 791,-843 791,-849 785,-855 779,-855"/>
<text text-anchor="middle" x="740.5" y="-834.2" font-family="DejaVu Sans" font-size="11.00">termin&#45;skeleton</text>
</g>
<!-- termin&#45;scene&#45;&gt;termin&#45;skeleton -->
<g id="edge52" class="edge">
<title>termin&#45;scene&#45;&gt;termin&#45;skeleton</title>
<path fill="none" stroke="#666666" stroke-width="1.1" d="M618.16,-837C637.86,-837 661.52,-837 682.7,-837"/>
<polygon fill="#666666" stroke="#666666" stroke-width="1.1" points="682.78,-839.45 689.78,-837 682.78,-834.55 682.78,-839.45"/>
</g>
<!-- termin&#45;components&#45;kinematic -->
<g id="node19" class="node">
<title>termin&#45;components&#45;kinematic</title>
<path fill="#f7f7f7" stroke="#444444" d="M1023,-1004C1023,-1004 868,-1004 868,-1004 862,-1004 856,-998 856,-992 856,-992 856,-980 856,-980 856,-974 862,-968 868,-968 868,-968 1023,-968 1023,-968 1029,-968 1035,-974 1035,-980 1035,-980 1035,-992 1035,-992 1035,-998 1029,-1004 1023,-1004"/>
<text text-anchor="middle" x="945.5" y="-983.2" font-family="DejaVu Sans" font-size="11.00">termin&#45;components&#45;kinematic</text>
</g>
<!-- termin&#45;scene&#45;&gt;termin&#45;components&#45;kinematic -->
<g id="edge48" class="edge">
<title>termin&#45;scene&#45;&gt;termin&#45;components&#45;kinematic</title>
<path fill="none" stroke="#666666" stroke-width="1.1" d="M616.27,-855.12C669.28,-878.46 764.91,-919.86 848,-952 859.81,-956.57 872.53,-961.23 884.73,-965.58"/>
<polygon fill="#666666" stroke="#666666" stroke-width="1.1" points="884.03,-967.93 891.45,-967.96 885.67,-963.31 884.03,-967.93"/>
</g>
<!-- termin&#45;scene&#45;&gt;termin&#45;components&#45;mesh -->
<g id="edge49" class="edge">
<title>termin&#45;scene&#45;&gt;termin&#45;components&#45;mesh</title>
<path fill="none" stroke="#666666" stroke-width="1.1" d="M594.83,-855.23C616.88,-875.53 654.47,-908.67 690,-933 756.14,-978.3 774.84,-987.24 848,-1020 858.71,-1024.79 870.31,-1029.38 881.64,-1033.54"/>
<polygon fill="#666666" stroke="#666666" stroke-width="1.1" points="880.85,-1035.86 888.26,-1035.94 882.52,-1031.25 880.85,-1035.86"/>
</g>
<!-- termin&#45;render -->
<g id="node29" class="node">
<title>termin&#45;render</title>
<path fill="#f7f7f7" stroke="#444444" d="M773.5,-570C773.5,-570 707.5,-570 707.5,-570 701.5,-570 695.5,-564 695.5,-558 695.5,-558 695.5,-546 695.5,-546 695.5,-540 701.5,-534 707.5,-534 707.5,-534 773.5,-534 773.5,-534 779.5,-534 785.5,-540 785.5,-546 785.5,-546 785.5,-558 785.5,-558 785.5,-564 779.5,-570 773.5,-570"/>
<text text-anchor="middle" x="740.5" y="-549.2" font-family="DejaVu Sans" font-size="11.00">termin&#45;render</text>
</g>
<!-- termin&#45;scene&#45;&gt;termin&#45;render -->
<g id="edge51" class="edge">
<title>termin&#45;scene&#45;&gt;termin&#45;render</title>
<path fill="none" stroke="#666666" stroke-width="1.1" d="M608.52,-818.9C614.65,-814.35 620.52,-809.03 625,-803 681.73,-726.6 639.46,-679.63 690,-599 695.52,-590.19 703.08,-581.9 710.62,-574.8"/>
<polygon fill="#666666" stroke="#666666" stroke-width="1.1" points="712.27,-576.61 715.81,-570.09 708.98,-572.98 712.27,-576.61"/>
</g>
<!-- termin&#45;skeleton&#45;&gt;termin&#45;animation -->
<g id="edge53" class="edge">
<title>termin&#45;skeleton&#45;&gt;termin&#45;animation</title>
<path fill="none" stroke="#666666" stroke-width="1.1" d="M791.16,-824.03C819.09,-816.74 854.17,-807.58 883.73,-799.87"/>
<polygon fill="#666666" stroke="#666666" stroke-width="1.1" points="884.57,-802.18 890.73,-798.04 883.34,-797.44 884.57,-802.18"/>
</g>
<!-- termin&#45;components&#45;skeleton -->
<g id="node22" class="node">
<title>termin&#45;components&#45;skeleton</title>
<path fill="#f7f7f7" stroke="#444444" d="M1019.5,-936C1019.5,-936 871.5,-936 871.5,-936 865.5,-936 859.5,-930 859.5,-924 859.5,-924 859.5,-912 859.5,-912 859.5,-906 865.5,-900 871.5,-900 871.5,-900 1019.5,-900 1019.5,-900 1025.5,-900 1031.5,-906 1031.5,-912 1031.5,-912 1031.5,-924 1031.5,-924 1031.5,-930 1025.5,-936 1019.5,-936"/>
<text text-anchor="middle" x="945.5" y="-915.2" font-family="DejaVu Sans" font-size="11.00">termin&#45;components&#45;skeleton</text>
</g>
<!-- termin&#45;skeleton&#45;&gt;termin&#45;components&#45;skeleton -->
<g id="edge54" class="edge">
<title>termin&#45;skeleton&#45;&gt;termin&#45;components&#45;skeleton</title>
<path fill="none" stroke="#666666" stroke-width="1.1" d="M772.37,-855.18C793.21,-866.88 821.61,-881.77 848,-892 853.18,-894.01 858.56,-895.92 864.03,-897.73"/>
<polygon fill="#666666" stroke="#666666" stroke-width="1.1" points="863.58,-900.15 870.99,-899.96 865.08,-895.49 863.58,-900.15"/>
</g>
<!-- termin -->
<g id="node15" class="node">
<title>termin</title>
<path fill="#f7f7f7" stroke="#444444" d="M260.5,-1139C260.5,-1139 230.5,-1139 230.5,-1139 224.5,-1139 218.5,-1133 218.5,-1127 218.5,-1127 218.5,-1115 218.5,-1115 218.5,-1109 224.5,-1103 230.5,-1103 230.5,-1103 260.5,-1103 260.5,-1103 266.5,-1103 272.5,-1109 272.5,-1115 272.5,-1115 272.5,-1127 272.5,-1127 272.5,-1133 266.5,-1139 260.5,-1139"/>
<text text-anchor="middle" x="245.5" y="-1118.2" font-family="DejaVu Sans" font-size="11.00">termin</text>
</g>
<!-- termin&#45;&gt;termin&#45;app -->
<g id="edge2" class="edge">
<title>termin&#45;&gt;termin&#45;app</title>
<path fill="none" stroke="#666666" stroke-width="1.1" d="M272.78,-1121.67C328.3,-1123.04 461.65,-1126 573.5,-1126 573.5,-1126 573.5,-1126 946.5,-1126 1020.76,-1126 1223.14,-1152.76 1280,-1105 1303.44,-1085.31 1398.86,-631.19 1422.29,-518.25"/>
<polygon fill="#666666" stroke="#666666" stroke-width="1.1" points="1424.7,-518.67 1423.72,-511.32 1419.9,-517.67 1424.7,-518.67"/>
</g>
<!-- termin&#45;&gt;termin&#45;navmesh -->
<g id="edge4" class="edge">
<title>termin&#45;&gt;termin&#45;navmesh</title>
<path fill="none" stroke="#666666" stroke-width="1.1" d="M249.78,-1103C262.37,-1035.28 309.16,-796.57 354,-735 357.04,-730.83 360.75,-727.03 364.78,-723.6"/>
<polygon fill="#666666" stroke="#666666" stroke-width="1.1" points="366.44,-725.41 370.44,-719.16 363.42,-721.56 366.44,-725.41"/>
</g>
<!-- termin&#45;entity -->
<g id="node31" class="node">
<title>termin&#45;entity</title>
<path fill="#f7f7f7" stroke="#444444" d="M438,-1211C438,-1211 375,-1211 375,-1211 369,-1211 363,-1205 363,-1199 363,-1199 363,-1187 363,-1187 363,-1181 369,-1175 375,-1175 375,-1175 438,-1175 438,-1175 444,-1175 450,-1181 450,-1187 450,-1187 450,-1199 450,-1199 450,-1205 444,-1211 438,-1211"/>
<text text-anchor="middle" x="406.5" y="-1190.2" font-family="DejaVu Sans" font-size="11.00">termin&#45;entity</text>
</g>
<!-- termin&#45;&gt;termin&#45;entity -->
<g id="edge3" class="edge">
<title>termin&#45;&gt;termin&#45;entity</title>
<path fill="none" stroke="#666666" stroke-width="1.1" d="M272.76,-1132.89C296.11,-1143.46 330.81,-1159.18 358.87,-1171.89"/>
<polygon fill="#666666" stroke="#666666" stroke-width="1.1" points="358.1,-1174.22 365.49,-1174.88 360.12,-1169.76 358.1,-1174.22"/>
</g>
<!-- termin&#45;components&#45;animation&#45;&gt;termin&#45;app -->
<g id="edge16" class="edge">
<title>termin&#45;components&#45;animation&#45;&gt;termin&#45;app</title>
<path fill="none" stroke="#666666" stroke-width="1.1" d="M1202.27,-899.95C1219.47,-872.25 1253.11,-817.48 1280,-770 1332.06,-678.09 1389.87,-566.51 1414.86,-517.78"/>
<polygon fill="#666666" stroke="#666666" stroke-width="1.1" points="1417.15,-518.67 1418.16,-511.33 1412.79,-516.44 1417.15,-518.67"/>
</g>
<!-- termin&#45;components&#45;collision&#45;&gt;termin&#45;components&#45;physics -->
<g id="edge17" class="edge">
<title>termin&#45;components&#45;collision&#45;&gt;termin&#45;components&#45;physics</title>
<path fill="none" stroke="#666666" stroke-width="1.1" d="M1253.76,-967.96C1285.82,-958.74 1324.93,-947.49 1357.92,-938.01"/>
<polygon fill="#666666" stroke="#666666" stroke-width="1.1" points="1358.81,-940.3 1364.86,-936.01 1357.46,-935.59 1358.81,-940.3"/>
</g>
<!-- termin&#45;components&#45;kinematic&#45;&gt;termin&#45;app -->
<g id="edge18" class="edge">
<title>termin&#45;components&#45;kinematic&#45;&gt;termin&#45;app</title>
<path fill="none" stroke="#666666" stroke-width="1.1" d="M1005.05,-967.87C1015.45,-963.45 1025.87,-958.18 1035,-952 1043.29,-946.39 1273.57,-695.67 1280,-688 1329.76,-628.66 1383.51,-554.86 1410.29,-517.35"/>
<polygon fill="#666666" stroke="#666666" stroke-width="1.1" points="1412.6,-518.33 1414.66,-511.21 1408.61,-515.49 1412.6,-518.33"/>
</g>
<!-- termin&#45;components&#45;mesh&#45;&gt;termin&#45;components&#45;collision -->
<g id="edge19" class="edge">
<title>termin&#45;components&#45;mesh&#45;&gt;termin&#45;components&#45;collision</title>
<path fill="none" stroke="#666666" stroke-width="1.1" d="M1010.85,-1035.96C1043.73,-1026.74 1083.83,-1015.49 1117.65,-1006.01"/>
<polygon fill="#666666" stroke="#666666" stroke-width="1.1" points="1118.69,-1008.26 1124.77,-1004.01 1117.37,-1003.54 1118.69,-1008.26"/>
</g>
<!-- termin&#45;components&#45;render -->
<g id="node25" class="node">
<title>termin&#45;components&#45;render</title>
<path fill="#f7f7f7" stroke="#444444" d="M1259,-570C1259,-570 1121,-570 1121,-570 1115,-570 1109,-564 1109,-558 1109,-558 1109,-546 1109,-546 1109,-540 1115,-534 1121,-534 1121,-534 1259,-534 1259,-534 1265,-534 1271,-540 1271,-546 1271,-546 1271,-558 1271,-558 1271,-564 1265,-570 1259,-570"/>
<text text-anchor="middle" x="1190" y="-549.2" font-family="DejaVu Sans" font-size="11.00">termin&#45;components&#45;render</text>
</g>
<!-- termin&#45;components&#45;mesh&#45;&gt;termin&#45;components&#45;render -->
<g id="edge20" class="edge">
<title>termin&#45;components&#45;mesh&#45;&gt;termin&#45;components&#45;render</title>
<path fill="none" stroke="#666666" stroke-width="1.1" d="M1016.16,-1035.83C1023.31,-1031.61 1029.83,-1026.41 1035,-1020 1153.84,-872.62 990.14,-753.19 1100,-599 1107.44,-588.55 1117.94,-580.23 1129.12,-573.68"/>
<polygon fill="#666666" stroke="#666666" stroke-width="1.1" points="1130.44,-575.75 1135.38,-570.22 1128.07,-571.46 1130.44,-575.75"/>
</g>
<!-- termin&#45;components&#45;physics&#45;&gt;termin&#45;app -->
<g id="edge21" class="edge">
<title>termin&#45;components&#45;physics&#45;&gt;termin&#45;app</title>
<path fill="none" stroke="#666666" stroke-width="1.1" d="M1428.5,-899.73C1428.5,-772.64 1428.5,-645.56 1428.5,-518.47"/>
<polygon fill="#666666" stroke="#666666" stroke-width="1.1" points="1430.95,-518.26 1428.5,-511.26 1426.05,-518.26 1430.95,-518.26"/>
</g>
<!-- termin&#45;components&#45;skeleton&#45;&gt;termin&#45;components&#45;animation -->
<g id="edge23" class="edge">
<title>termin&#45;components&#45;skeleton&#45;&gt;termin&#45;components&#45;animation</title>
<path fill="none" stroke="#666666" stroke-width="1.1" d="M1031.66,-918C1051.43,-918 1072.62,-918 1092.83,-918"/>
<polygon fill="#666666" stroke="#666666" stroke-width="1.1" points="1092.94,-920.45 1099.94,-918 1092.94,-915.55 1092.94,-920.45"/>
</g>
<!-- termin&#45;assets -->
<g id="node23" class="node">
<title>termin&#45;assets</title>
<path fill="#f7f7f7" stroke="#444444" d="M112.5,-651C112.5,-651 46.5,-651 46.5,-651 40.5,-651 34.5,-645 34.5,-639 34.5,-639 34.5,-627 34.5,-627 34.5,-621 40.5,-615 46.5,-615 46.5,-615 112.5,-615 112.5,-615 118.5,-615 124.5,-621 124.5,-627 124.5,-627 124.5,-639 124.5,-639 124.5,-645 118.5,-651 112.5,-651"/>
<text text-anchor="middle" x="79.5" y="-630.2" font-family="DejaVu Sans" font-size="11.00">termin&#45;assets</text>
</g>
<!-- termin&#45;assets&#45;&gt;termin&#45;app -->
<g id="edge7" class="edge">
<title>termin&#45;assets&#45;&gt;termin&#45;app</title>
<path fill="none" stroke="#666666" stroke-width="1.1" d="M85.39,-614.86C107.6,-537 206.57,-235 405.5,-235 405.5,-235 405.5,-235 946.5,-235 1098.72,-235 1162.68,-216.01 1280,-313 1334.74,-358.26 1294.08,-409.48 1345,-459 1355.79,-469.49 1370.26,-476.91 1384.07,-482.09"/>
<polygon fill="#666666" stroke="#666666" stroke-width="1.1" points="1383.36,-484.43 1390.78,-484.45 1384.99,-479.81 1383.36,-484.43"/>
</g>
<!-- termin&#45;nanobind&#45;sdk -->
<g id="node24" class="node">
<title>termin&#45;nanobind&#45;sdk</title>
<path fill="#f7f7f7" stroke="#444444" d="M131,-719C131,-719 28,-719 28,-719 22,-719 16,-713 16,-707 16,-707 16,-695 16,-695 16,-689 22,-683 28,-683 28,-683 131,-683 131,-683 137,-683 143,-689 143,-695 143,-695 143,-707 143,-707 143,-713 137,-719 131,-719"/>
<text text-anchor="middle" x="79.5" y="-698.2" font-family="DejaVu Sans" font-size="11.00">termin&#45;nanobind&#45;sdk</text>
</g>
<!-- termin&#45;nanobind&#45;sdk&#45;&gt;termin&#45;base -->
<g id="edge41" class="edge">
<title>termin&#45;nanobind&#45;sdk&#45;&gt;termin&#45;base</title>
<path fill="none" stroke="#666666" stroke-width="1.1" d="M143.44,-701C161.46,-701 180.78,-701 197.65,-701"/>
<polygon fill="#666666" stroke="#666666" stroke-width="1.1" points="197.72,-703.45 204.72,-701 197.72,-698.55 197.72,-703.45"/>
</g>
<!-- termin&#45;nanobind&#45;sdk&#45;&gt;termin&#45;entity -->
<g id="edge42" class="edge">
<title>termin&#45;nanobind&#45;sdk&#45;&gt;termin&#45;entity</title>
<path fill="none" stroke="#666666" stroke-width="1.1" d="M82.24,-719.13C90.22,-798.04 125.96,-1110.4 197,-1172 240.27,-1209.52 309.16,-1208.84 355.81,-1202.75"/>
<polygon fill="#666666" stroke="#666666" stroke-width="1.1" points="356.21,-1205.16 362.81,-1201.77 355.54,-1200.31 356.21,-1205.16"/>
</g>
<!-- termin&#45;components&#45;render&#45;&gt;termin&#45;app -->
<g id="edge22" class="edge">
<title>termin&#45;components&#45;render&#45;&gt;termin&#45;app</title>
<path fill="none" stroke="#666666" stroke-width="1.1" d="M1263.24,-533.98C1302.68,-524.14 1350.21,-512.28 1383.98,-503.86"/>
<polygon fill="#666666" stroke="#666666" stroke-width="1.1" points="1384.77,-506.19 1390.96,-502.11 1383.58,-501.43 1384.77,-506.19"/>
</g>
<!-- termin&#45;display&#45;&gt;diffusion&#45;editor -->
<g id="edge24" class="edge">
<title>termin&#45;display&#45;&gt;diffusion&#45;editor</title>
<path fill="none" stroke="#666666" stroke-width="1.1" d="M992.18,-539.94C1081.18,-516.44 1277.41,-464.63 1373.01,-439.39"/>
<polygon fill="#666666" stroke="#666666" stroke-width="1.1" points="1373.85,-441.7 1380,-437.54 1372.6,-436.96 1373.85,-441.7"/>
</g>
<!-- termin&#45;display&#45;&gt;termin&#45;components&#45;render -->
<g id="edge25" class="edge">
<title>termin&#45;display&#45;&gt;termin&#45;components&#45;render</title>
<path fill="none" stroke="#666666" stroke-width="1.1" d="M992.11,-552C1022.85,-552 1064.4,-552 1101.4,-552"/>
<polygon fill="#666666" stroke="#666666" stroke-width="1.1" points="1101.73,-554.45 1108.73,-552 1101.73,-549.55 1101.73,-554.45"/>
</g>
<!-- termin&#45;display&#45;&gt;termin&#45;engine -->
<g id="edge26" class="edge">
<title>termin&#45;display&#45;&gt;termin&#45;engine</title>
<path fill="none" stroke="#666666" stroke-width="1.1" d="M992.26,-569.21C1022.65,-580.43 1063.52,-595.15 1100,-607 1112.14,-610.95 1125.3,-614.94 1137.69,-618.58"/>
<polygon fill="#666666" stroke="#666666" stroke-width="1.1" points="1137.07,-620.95 1144.48,-620.56 1138.44,-616.25 1137.07,-620.95"/>
</g>
<!-- termin&#45;graphics&#45;&gt;termin&#45;render -->
<g id="edge30" class="edge">
<title>termin&#45;graphics&#45;&gt;termin&#45;render</title>
<path fill="none" stroke="#666666" stroke-width="1.1" d="M619.02,-502.04C640.7,-511.03 667.02,-521.95 689.52,-531.28"/>
<polygon fill="#666666" stroke="#666666" stroke-width="1.1" points="688.66,-533.57 696.06,-533.99 690.54,-529.05 688.66,-533.57"/>
</g>
<!-- termin&#45;gui -->
<g id="node33" class="node">
<title>termin&#45;gui</title>
<path fill="#f7f7f7" stroke="#444444" d="M969,-120C969,-120 922,-120 922,-120 916,-120 910,-114 910,-108 910,-108 910,-96 910,-96 910,-90 916,-84 922,-84 922,-84 969,-84 969,-84 975,-84 981,-90 981,-96 981,-96 981,-108 981,-108 981,-114 975,-120 969,-120"/>
<text text-anchor="middle" x="945.5" y="-99.2" font-family="DejaVu Sans" font-size="11.00">termin&#45;gui</text>
</g>
<!-- termin&#45;graphics&#45;&gt;termin&#45;gui -->
<g id="edge29" class="edge">
<title>termin&#45;graphics&#45;&gt;termin&#45;gui</title>
<path fill="none" stroke="#666666" stroke-width="1.1" d="M593.05,-465.83C653.63,-403.12 853.98,-195.71 921.82,-125.48"/>
<polygon fill="#666666" stroke="#666666" stroke-width="1.1" points="923.74,-127.02 926.84,-120.28 920.22,-123.61 923.74,-127.02"/>
</g>
<!-- termin&#45;lighting&#45;&gt;termin&#45;render -->
<g id="edge36" class="edge">
<title>termin&#45;lighting&#45;&gt;termin&#45;render</title>
<path fill="none" stroke="#666666" stroke-width="1.1" d="M622.06,-552C642.73,-552 667.13,-552 688.31,-552"/>
<polygon fill="#666666" stroke="#666666" stroke-width="1.1" points="688.37,-554.45 695.37,-552 688.37,-549.55 688.37,-554.45"/>
</g>
<!-- termin&#45;render&#45;&gt;termin&#45;display -->
<g id="edge46" class="edge">
<title>termin&#45;render&#45;&gt;termin&#45;display</title>
<path fill="none" stroke="#666666" stroke-width="1.1" d="M785.55,-552C816.66,-552 858.51,-552 891.46,-552"/>
<polygon fill="#666666" stroke="#666666" stroke-width="1.1" points="891.78,-554.45 898.78,-552 891.78,-549.55 891.78,-554.45"/>
</g>
<!-- termin&#45;engine&#45;&gt;termin&#45;app -->
<g id="edge27" class="edge">
<title>termin&#45;engine&#45;&gt;termin&#45;app</title>
<path fill="none" stroke="#666666" stroke-width="1.1" d="M1235.7,-623.45C1250.27,-619.42 1266.23,-614.01 1280,-607 1328.12,-582.49 1376.18,-541.49 1403.81,-515.92"/>
<polygon fill="#666666" stroke="#666666" stroke-width="1.1" points="1405.62,-517.59 1409.06,-511.02 1402.27,-514 1405.62,-517.59"/>
</g>
<!-- termin&#45;entity&#45;&gt;termin&#45;app -->
<g id="edge28" class="edge">
<title>termin&#45;entity&#45;&gt;termin&#45;app</title>
<path fill="none" stroke="#666666" stroke-width="1.1" d="M450.21,-1192.79C513.42,-1192.5 635.61,-1192 739.5,-1192 739.5,-1192 739.5,-1192 946.5,-1192 1095.84,-1192 1169.35,-1251.29 1280,-1151 1292.23,-1139.92 1397.39,-637.68 1422.25,-518.28"/>
<polygon fill="#666666" stroke="#666666" stroke-width="1.1" points="1424.67,-518.64 1423.7,-511.29 1419.88,-517.64 1424.67,-518.64"/>
</g>
<!-- tcplot -->
<g id="node32" class="node">
<title>tcplot</title>
<path fill="#f7f7f7" stroke="#444444" d="M1205,-52C1205,-52 1175,-52 1175,-52 1169,-52 1163,-46 1163,-40 1163,-40 1163,-28 1163,-28 1163,-22 1169,-16 1175,-16 1175,-16 1205,-16 1205,-16 1211,-16 1217,-22 1217,-28 1217,-28 1217,-40 1217,-40 1217,-46 1211,-52 1205,-52"/>
<text text-anchor="middle" x="1190" y="-31.2" font-family="DejaVu Sans" font-size="11.00">tcplot</text>
</g>
<!-- tcplot&#45;&gt;termin&#45;csharp -->
<g id="edge1" class="edge">
<title>tcplot&#45;&gt;termin&#45;csharp</title>
<path fill="none" stroke="#666666" stroke-width="1.1" d="M1217.33,-43.37C1235.18,-49.89 1259.21,-58.99 1280,-68 1390.24,-115.74 1516.59,-179.64 1580.24,-212.49"/>
<polygon fill="#666666" stroke="#666666" stroke-width="1.1" points="1579.23,-214.73 1586.58,-215.76 1581.48,-210.37 1579.23,-214.73"/>
</g>
<!-- termin&#45;gui&#45;&gt;diffusion&#45;editor -->
<g id="edge31" class="edge">
<title>termin&#45;gui&#45;&gt;diffusion&#45;editor</title>
<path fill="none" stroke="#666666" stroke-width="1.1" d="M981.24,-110.22C1056.43,-128.49 1231.42,-173.73 1280,-210 1349.17,-261.65 1397.14,-355.66 1417.11,-400.26"/>
<polygon fill="#666666" stroke="#666666" stroke-width="1.1" points="1414.89,-401.31 1419.96,-406.72 1419.38,-399.33 1414.89,-401.31"/>
</g>
<!-- termin&#45;gui&#45;&gt;tcplot -->
<g id="edge32" class="edge">
<title>termin&#45;gui&#45;&gt;tcplot</title>
<path fill="none" stroke="#666666" stroke-width="1.1" d="M981.24,-92.26C1027.96,-79.16 1110.42,-56.04 1156.14,-43.21"/>
<polygon fill="#666666" stroke="#666666" stroke-width="1.1" points="1156.81,-45.57 1162.88,-41.32 1155.48,-40.85 1156.81,-45.57"/>
</g>
<!-- termin&#45;nodegraph -->
<g id="node34" class="node">
<title>termin&#45;nodegraph</title>
<path fill="#f7f7f7" stroke="#444444" d="M1234.5,-120C1234.5,-120 1145.5,-120 1145.5,-120 1139.5,-120 1133.5,-114 1133.5,-108 1133.5,-108 1133.5,-96 1133.5,-96 1133.5,-90 1139.5,-84 1145.5,-84 1145.5,-84 1234.5,-84 1234.5,-84 1240.5,-84 1246.5,-90 1246.5,-96 1246.5,-96 1246.5,-108 1246.5,-108 1246.5,-114 1240.5,-120 1234.5,-120"/>
<text text-anchor="middle" x="1190" y="-99.2" font-family="DejaVu Sans" font-size="11.00">termin&#45;nodegraph</text>
</g>
<!-- termin&#45;gui&#45;&gt;termin&#45;nodegraph -->
<g id="edge33" class="edge">
<title>termin&#45;gui&#45;&gt;termin&#45;nodegraph</title>
<path fill="none" stroke="#666666" stroke-width="1.1" d="M981.24,-102C1018.91,-102 1079.82,-102 1125.97,-102"/>
<polygon fill="#666666" stroke="#666666" stroke-width="1.1" points="1126.24,-104.45 1133.24,-102 1126.24,-99.55 1126.24,-104.45"/>
</g>
<!-- termin&#45;nodegraph&#45;&gt;termin&#45;app -->
<g id="edge44" class="edge">
<title>termin&#45;nodegraph&#45;&gt;termin&#45;app</title>
<path fill="none" stroke="#666666" stroke-width="1.1" d="M1210.2,-120.07C1230.45,-140.17 1261.87,-174.52 1280,-210 1332.03,-311.85 1269.79,-372.83 1345,-459 1355.07,-470.53 1369.66,-478.23 1383.78,-483.33"/>
<polygon fill="#666666" stroke="#666666" stroke-width="1.1" points="1383.23,-485.73 1390.65,-485.63 1384.79,-481.09 1383.23,-485.73"/>
</g>
</g>
</svg>
