<?xml version="1.0" encoding="UTF-8" standalone="no"?>
<!DOCTYPE svg PUBLIC "-//W3C//DTD SVG 1.1//EN"
 "http://www.w3.org/Graphics/SVG/1.1/DTD/svg11.dtd">
<!-- Generated by graphviz version 2.42.4 (0)
 -->
<!-- Title: termin_dependencies Pages: 1 -->
<svg width="1748pt" height="2861pt"
 viewBox="0.00 0.00 1747.80 2861.20" xmlns="http://www.w3.org/2000/svg" xmlns:xlink="http://www.w3.org/1999/xlink">
<g id="graph0" class="graph" transform="scale(1 1) rotate(0) translate(14.4 2846.8)">
<title>termin_dependencies</title>
<polygon fill="white" stroke="transparent" points="-14.4,14.4 -14.4,-2846.8 1733.4,-2846.8 1733.4,14.4 -14.4,14.4"/>
<g id="clust1" class="cluster">
<title>cluster_application</title>
<polygon fill="white" stroke="#999999" stroke-dasharray="5,2" points="1620,-1877 1620,-1950 1711,-1950 1711,-1877 1620,-1877"/>
<text text-anchor="middle" x="1665.5" y="-1936.4" font-family="DejaVu Sans" font-size="12.00">Application</text>
</g>
<g id="clust2" class="cluster">
<title>cluster_foundation</title>
<polygon fill="white" stroke="#999999" stroke-dasharray="5,2" points="137,-623 137,-968 1106.5,-968 1106.5,-623 137,-623"/>
<text text-anchor="middle" x="621.75" y="-954.4" font-family="DejaVu Sans" font-size="12.00">Foundation</text>
</g>
<g id="clust3" class="cluster">
<title>cluster_namespace</title>
<polygon fill="white" stroke="#999999" stroke-dasharray="5,2" points="0,-372 0,-445 88,-445 88,-372 0,-372"/>
<text text-anchor="middle" x="44" y="-431.4" font-family="DejaVu Sans" font-size="12.00">Namespace</text>
</g>
<g id="clust4" class="cluster">
<title>cluster_native_interop</title>
<polygon fill="white" stroke="#999999" stroke-dasharray="5,2" points="1443.5,-2119 1443.5,-2192 1550.5,-2192 1550.5,-2119 1443.5,-2119"/>
<text text-anchor="middle" x="1497" y="-2178.4" font-family="DejaVu Sans" font-size="12.00">Native Interop</text>
</g>
<g id="clust5" class="cluster">
<title>cluster_other_components</title>
<polygon fill="white" stroke="#999999" stroke-dasharray="5,2" points="702,-976 702,-1457 1374,-1457 1374,-976 702,-976"/>
<text text-anchor="middle" x="1038" y="-1443.4" font-family="DejaVu Sans" font-size="12.00">Other Components</text>
</g>
<g id="clust6" class="cluster">
<title>cluster_python_support</title>
<polygon fill="white" stroke="#999999" stroke-dasharray="5,2" points="307,-440 307,-581 450,-581 450,-440 307,-440"/>
<text text-anchor="middle" x="378.5" y="-567.4" font-family="DejaVu Sans" font-size="12.00">Python Support</text>
</g>
<g id="clust7" class="cluster">
<title>cluster_render_stack</title>
<polygon fill="white" stroke="#999999" stroke-dasharray="5,2" points="320,-2433 320,-2574 1133,-2574 1133,-2433 320,-2433"/>
<text text-anchor="middle" x="726.5" y="-2560.4" font-family="DejaVu Sans" font-size="12.00">Render Stack</text>
</g>
<g id="clust8" class="cluster">
<title>cluster_runtime</title>
<polygon fill="white" stroke="#999999" stroke-dasharray="5,2" points="990.5,-1518 990.5,-1591 1097.5,-1591 1097.5,-1518 990.5,-1518"/>
<text text-anchor="middle" x="1044" y="-1577.4" font-family="DejaVu Sans" font-size="12.00">Runtime</text>
</g>
<g id="clust10" class="cluster">
<title>cluster_ui</title>
<polygon fill="white" stroke="#999999" stroke-dasharray="5,2" points="532.5,-2236 532.5,-2377 864,-2377 864,-2236 532.5,-2236"/>
<text text-anchor="middle" x="698.25" y="-2363.4" font-family="DejaVu Sans" font-size="12.00">UI</text>
</g>
<!-- termin&#45;app -->
<g id="node1" class="node">
<title>termin&#45;app</title>
<path fill="#f7f7f7" stroke="#444444" d="M1691,-1921C1691,-1921 1640,-1921 1640,-1921 1634,-1921 1628,-1915 1628,-1909 1628,-1909 1628,-1897 1628,-1897 1628,-1891 1634,-1885 1640,-1885 1640,-1885 1691,-1885 1691,-1885 1697,-1885 1703,-1891 1703,-1897 1703,-1897 1703,-1909 1703,-1909 1703,-1915 1697,-1921 1691,-1921"/>
<text text-anchor="middle" x="1665.5" y="-1900.2" font-family="DejaVu Sans" font-size="11.00">termin&#45;app</text>
</g>
<!-- termin&#45;animation -->
<g id="node2" class="node">
<title>termin&#45;animation</title>
<path fill="#f7f7f7" stroke="#444444" d="M1086.5,-820C1086.5,-820 1001.5,-820 1001.5,-820 995.5,-820 989.5,-814 989.5,-808 989.5,-808 989.5,-796 989.5,-796 989.5,-790 995.5,-784 1001.5,-784 1001.5,-784 1086.5,-784 1086.5,-784 1092.5,-784 1098.5,-790 1098.5,-796 1098.5,-796 1098.5,-808 1098.5,-808 1098.5,-814 1092.5,-820 1086.5,-820"/>
<text text-anchor="middle" x="1044" y="-799.2" font-family="DejaVu Sans" font-size="11.00">termin&#45;animation</text>
</g>
<!-- termin&#45;animation&#45;&gt;termin&#45;app -->
<g id="edge10" class="edge">
<title>termin&#45;animation&#45;&gt;termin&#45;app</title>
<path fill="none" stroke="#666666" stroke-width="1.1" d="M1098.72,-790.53C1170.31,-778.6 1296.9,-769.71 1374,-835 1543.09,-978.17 1643.27,-1730.04 1661.48,-1877.79"/>
<polygon fill="#666666" stroke="#666666" stroke-width="1.1" points="1659.05,-1878.1 1662.34,-1884.75 1663.92,-1877.5 1659.05,-1878.1"/>
</g>
<!-- termin&#45;csharp -->
<g id="node18" class="node">
<title>termin&#45;csharp</title>
<path fill="#f7f7f7" stroke="#444444" d="M1530.5,-2163C1530.5,-2163 1463.5,-2163 1463.5,-2163 1457.5,-2163 1451.5,-2157 1451.5,-2151 1451.5,-2151 1451.5,-2139 1451.5,-2139 1451.5,-2133 1457.5,-2127 1463.5,-2127 1463.5,-2127 1530.5,-2127 1530.5,-2127 1536.5,-2127 1542.5,-2133 1542.5,-2139 1542.5,-2139 1542.5,-2151 1542.5,-2151 1542.5,-2157 1536.5,-2163 1530.5,-2163"/>
<text text-anchor="middle" x="1497" y="-2142.2" font-family="DejaVu Sans" font-size="11.00">termin&#45;csharp</text>
</g>
<!-- termin&#45;animation&#45;&gt;termin&#45;csharp -->
<g id="edge12" class="edge">
<title>termin&#45;animation&#45;&gt;termin&#45;csharp</title>
<path fill="none" stroke="#666666" stroke-width="1.1" d="M1098.73,-811.87C1174.67,-828.96 1311.12,-871.91 1374,-968 1436.64,-1063.72 1404.54,-1884.7 1431,-1996 1441.98,-2042.2 1466.61,-2092.04 1482.2,-2120.78"/>
<polygon fill="#666666" stroke="#666666" stroke-width="1.1" points="1480.06,-2121.97 1485.57,-2126.92 1484.35,-2119.61 1480.06,-2121.97"/>
</g>
<!-- termin&#45;components&#45;animation -->
<g id="node19" class="node">
<title>termin&#45;components&#45;animation</title>
<path fill="#f7f7f7" stroke="#444444" d="M1122,-1428C1122,-1428 966,-1428 966,-1428 960,-1428 954,-1422 954,-1416 954,-1416 954,-1404 954,-1404 954,-1398 960,-1392 966,-1392 966,-1392 1122,-1392 1122,-1392 1128,-1392 1134,-1398 1134,-1404 1134,-1404 1134,-1416 1134,-1416 1134,-1422 1128,-1428 1122,-1428"/>
<text text-anchor="middle" x="1044" y="-1407.2" font-family="DejaVu Sans" font-size="11.00">termin&#45;components&#45;animation</text>
</g>
<!-- termin&#45;animation&#45;&gt;termin&#45;components&#45;animation -->
<g id="edge11" class="edge">
<title>termin&#45;animation&#45;&gt;termin&#45;components&#45;animation</title>
<path fill="none" stroke="#666666" stroke-width="1.1" d="M998.34,-820.07C970.66,-833.69 937.67,-855.31 921.5,-886 896.95,-932.6 893.67,-1315.28 921.5,-1360 929.17,-1372.32 940.51,-1381.6 953.24,-1388.6"/>
<polygon fill="#666666" stroke="#666666" stroke-width="1.1" points="952.25,-1390.84 959.6,-1391.85 954.48,-1386.48 952.25,-1390.84"/>
</g>
<!-- termin&#45;base -->
<g id="node3" class="node">
<title>termin&#45;base</title>
<path fill="#f7f7f7" stroke="#444444" d="M226,-667C226,-667 169,-667 169,-667 163,-667 157,-661 157,-655 157,-655 157,-643 157,-643 157,-637 163,-631 169,-631 169,-631 226,-631 226,-631 232,-631 238,-637 238,-643 238,-643 238,-655 238,-655 238,-661 232,-667 226,-667"/>
<text text-anchor="middle" x="197.5" y="-646.2" font-family="DejaVu Sans" font-size="11.00">termin&#45;base</text>
</g>
<!-- termin&#45;inspect -->
<g id="node7" class="node">
<title>termin&#45;inspect</title>
<path fill="#f7f7f7" stroke="#444444" d="M413.5,-939C413.5,-939 343.5,-939 343.5,-939 337.5,-939 331.5,-933 331.5,-927 331.5,-927 331.5,-915 331.5,-915 331.5,-909 337.5,-903 343.5,-903 343.5,-903 413.5,-903 413.5,-903 419.5,-903 425.5,-909 425.5,-915 425.5,-915 425.5,-927 425.5,-927 425.5,-933 419.5,-939 413.5,-939"/>
<text text-anchor="middle" x="378.5" y="-918.2" font-family="DejaVu Sans" font-size="11.00">termin&#45;inspect</text>
</g>
<!-- termin&#45;base&#45;&gt;termin&#45;inspect -->
<g id="edge22" class="edge">
<title>termin&#45;base&#45;&gt;termin&#45;inspect</title>
<path fill="none" stroke="#666666" stroke-width="1.1" d="M233.24,-667.01C239.52,-671.53 245.49,-676.88 250,-683 303.82,-756.03 251.5,-807.24 307,-879 312.97,-886.72 320.8,-893.32 329.06,-898.84"/>
<polygon fill="#666666" stroke="#666666" stroke-width="1.1" points="328.21,-901.2 335.44,-902.86 330.82,-897.06 328.21,-901.2"/>
</g>
<!-- termin&#45;mesh -->
<g id="node8" class="node">
<title>termin&#45;mesh</title>
<path fill="#f7f7f7" stroke="#444444" d="M408.5,-778C408.5,-778 348.5,-778 348.5,-778 342.5,-778 336.5,-772 336.5,-766 336.5,-766 336.5,-754 336.5,-754 336.5,-748 342.5,-742 348.5,-742 348.5,-742 408.5,-742 408.5,-742 414.5,-742 420.5,-748 420.5,-754 420.5,-754 420.5,-766 420.5,-766 420.5,-772 414.5,-778 408.5,-778"/>
<text text-anchor="middle" x="378.5" y="-757.2" font-family="DejaVu Sans" font-size="11.00">termin&#45;mesh</text>
</g>
<!-- termin&#45;base&#45;&gt;termin&#45;mesh -->
<g id="edge24" class="edge">
<title>termin&#45;base&#45;&gt;termin&#45;mesh</title>
<path fill="none" stroke="#666666" stroke-width="1.1" d="M227.66,-667.08C258.99,-686.51 308.8,-717.4 342.3,-738.17"/>
<polygon fill="#666666" stroke="#666666" stroke-width="1.1" points="341.11,-740.32 348.35,-741.93 343.7,-736.16 341.11,-740.32"/>
</g>
<!-- termin&#45;modules -->
<g id="node9" class="node">
<title>termin&#45;modules</title>
<path fill="#f7f7f7" stroke="#444444" d="M417,-676C417,-676 340,-676 340,-676 334,-676 328,-670 328,-664 328,-664 328,-652 328,-652 328,-646 334,-640 340,-640 340,-640 417,-640 417,-640 423,-640 429,-646 429,-652 429,-652 429,-664 429,-664 429,-670 423,-676 417,-676"/>
<text text-anchor="middle" x="378.5" y="-655.2" font-family="DejaVu Sans" font-size="11.00">termin&#45;modules</text>
</g>
<!-- termin&#45;base&#45;&gt;termin&#45;modules -->
<g id="edge25" class="edge">
<title>termin&#45;base&#45;&gt;termin&#45;modules</title>
<path fill="none" stroke="#666666" stroke-width="1.1" d="M238.23,-651C262.52,-652.22 294,-653.8 320.88,-655.15"/>
<polygon fill="#666666" stroke="#666666" stroke-width="1.1" points="320.85,-657.6 327.97,-655.51 321.1,-652.71 320.85,-657.6"/>
</g>
<!-- termin&#45;qopt -->
<g id="node12" class="node">
<title>termin&#45;qopt</title>
<path fill="#f7f7f7" stroke="#444444" d="M406,-863C406,-863 351,-863 351,-863 345,-863 339,-857 339,-851 339,-851 339,-839 339,-839 339,-833 345,-827 351,-827 351,-827 406,-827 406,-827 412,-827 418,-833 418,-839 418,-839 418,-851 418,-851 418,-857 412,-863 406,-863"/>
<text text-anchor="middle" x="378.5" y="-842.2" font-family="DejaVu Sans" font-size="11.00">termin&#45;qopt</text>
</g>
<!-- termin&#45;base&#45;&gt;termin&#45;qopt -->
<g id="edge28" class="edge">
<title>termin&#45;base&#45;&gt;termin&#45;qopt</title>
<path fill="none" stroke="#666666" stroke-width="1.1" d="M231.55,-667.17C238.17,-671.77 244.71,-677.1 250,-683 287.02,-724.29 270.87,-751.92 307,-794 316.39,-804.93 328.56,-814.8 340.15,-822.87"/>
<polygon fill="#666666" stroke="#666666" stroke-width="1.1" points="338.97,-825.03 346.14,-826.93 341.72,-820.97 338.97,-825.03"/>
</g>
<!-- termin&#45;assets -->
<g id="node29" class="node">
<title>termin&#45;assets</title>
<path fill="#f7f7f7" stroke="#444444" d="M411.5,-552C411.5,-552 345.5,-552 345.5,-552 339.5,-552 333.5,-546 333.5,-540 333.5,-540 333.5,-528 333.5,-528 333.5,-522 339.5,-516 345.5,-516 345.5,-516 411.5,-516 411.5,-516 417.5,-516 423.5,-522 423.5,-528 423.5,-528 423.5,-540 423.5,-540 423.5,-546 417.5,-552 411.5,-552"/>
<text text-anchor="middle" x="378.5" y="-531.2" font-family="DejaVu Sans" font-size="11.00">termin&#45;assets</text>
</g>
<!-- termin&#45;base&#45;&gt;termin&#45;assets -->
<g id="edge20" class="edge">
<title>termin&#45;base&#45;&gt;termin&#45;assets</title>
<path fill="none" stroke="#666666" stroke-width="1.1" d="M226.86,-630.78C258.42,-610.51 309.39,-577.76 343.17,-556.06"/>
<polygon fill="#666666" stroke="#666666" stroke-width="1.1" points="344.7,-557.98 349.27,-552.14 342.06,-553.86 344.7,-557.98"/>
</g>
<!-- termin&#45;lighting -->
<g id="node34" class="node">
<title>termin&#45;lighting</title>
<path fill="#f7f7f7" stroke="#444444" d="M414,-2545C414,-2545 343,-2545 343,-2545 337,-2545 331,-2539 331,-2533 331,-2533 331,-2521 331,-2521 331,-2515 337,-2509 343,-2509 343,-2509 414,-2509 414,-2509 420,-2509 426,-2515 426,-2521 426,-2521 426,-2533 426,-2533 426,-2539 420,-2545 414,-2545"/>
<text text-anchor="middle" x="378.5" y="-2524.2" font-family="DejaVu Sans" font-size="11.00">termin&#45;lighting</text>
</g>
<!-- termin&#45;base&#45;&gt;termin&#45;lighting -->
<g id="edge23" class="edge">
<title>termin&#45;base&#45;&gt;termin&#45;lighting</title>
<path fill="none" stroke="#666666" stroke-width="1.1" d="M235.8,-667.18C241.46,-671.58 246.55,-676.83 250,-683 348.12,-858.67 197.33,-2324.31 307,-2493 311.37,-2499.72 317.46,-2505.14 324.25,-2509.52"/>
<polygon fill="#666666" stroke="#666666" stroke-width="1.1" points="323.38,-2511.84 330.66,-2513.24 325.84,-2507.61 323.38,-2511.84"/>
</g>
<!-- termin&#45;audio -->
<g id="node41" class="node">
<title>termin&#45;audio</title>
<path fill="#f7f7f7" stroke="#444444" d="M408.5,-416C408.5,-416 348.5,-416 348.5,-416 342.5,-416 336.5,-410 336.5,-404 336.5,-404 336.5,-392 336.5,-392 336.5,-386 342.5,-380 348.5,-380 348.5,-380 408.5,-380 408.5,-380 414.5,-380 420.5,-386 420.5,-392 420.5,-392 420.5,-404 420.5,-404 420.5,-410 414.5,-416 408.5,-416"/>
<text text-anchor="middle" x="378.5" y="-395.2" font-family="DejaVu Sans" font-size="11.00">termin&#45;audio</text>
</g>
<!-- termin&#45;base&#45;&gt;termin&#45;audio -->
<g id="edge21" class="edge">
<title>termin&#45;base&#45;&gt;termin&#45;audio</title>
<path fill="none" stroke="#666666" stroke-width="1.1" d="M203.19,-630.88C214.53,-590.32 247.01,-491.14 307,-432 313.55,-425.54 321.58,-420.12 329.83,-415.63"/>
<polygon fill="#666666" stroke="#666666" stroke-width="1.1" points="331.05,-417.76 336.17,-412.39 328.82,-413.4 331.05,-417.76"/>
</g>
<!-- termin&#45;pga -->
<g id="node49" class="node">
<title>termin&#45;pga</title>
<path fill="#f7f7f7" stroke="#444444" d="M404,-2618C404,-2618 353,-2618 353,-2618 347,-2618 341,-2612 341,-2606 341,-2606 341,-2594 341,-2594 341,-2588 347,-2582 353,-2582 353,-2582 404,-2582 404,-2582 410,-2582 416,-2588 416,-2594 416,-2594 416,-2606 416,-2606 416,-2612 410,-2618 404,-2618"/>
<text text-anchor="middle" x="378.5" y="-2597.2" font-family="DejaVu Sans" font-size="11.00">termin&#45;pga</text>
</g>
<!-- termin&#45;base&#45;&gt;termin&#45;pga -->
<g id="edge26" class="edge">
<title>termin&#45;base&#45;&gt;termin&#45;pga</title>
<path fill="none" stroke="#666666" stroke-width="1.1" d="M235.8,-667.18C241.47,-671.57 246.56,-676.82 250,-683 352.59,-866.98 179.65,-2410.2 307,-2578 313.61,-2586.71 323.65,-2592.06 334.09,-2595.32"/>
<polygon fill="#666666" stroke="#666666" stroke-width="1.1" points="333.58,-2597.72 340.98,-2597.18 334.86,-2592.99 333.58,-2597.72"/>
</g>
<!-- termin&#45;project -->
<g id="node52" class="node">
<title>termin&#45;project</title>
<path fill="#f7f7f7" stroke="#444444" d="M610.5,-1765C610.5,-1765 541.5,-1765 541.5,-1765 535.5,-1765 529.5,-1759 529.5,-1753 529.5,-1753 529.5,-1741 529.5,-1741 529.5,-1735 535.5,-1729 541.5,-1729 541.5,-1729 610.5,-1729 610.5,-1729 616.5,-1729 622.5,-1735 622.5,-1741 622.5,-1741 622.5,-1753 622.5,-1753 622.5,-1759 616.5,-1765 610.5,-1765"/>
<text text-anchor="middle" x="576" y="-1744.2" font-family="DejaVu Sans" font-size="11.00">termin&#45;project</text>
</g>
<!-- termin&#45;base&#45;&gt;termin&#45;project -->
<g id="edge27" class="edge">
<title>termin&#45;base&#45;&gt;termin&#45;project</title>
<path fill="none" stroke="#666666" stroke-width="1.1" d="M234.14,-667.13C240.19,-671.6 245.84,-676.89 250,-683 319.43,-785.15 274.48,-835.84 307,-955 390.89,-1262.39 527.96,-1624.93 565.33,-1722.05"/>
<polygon fill="#666666" stroke="#666666" stroke-width="1.1" points="563.14,-1723.18 567.95,-1728.83 567.71,-1721.42 563.14,-1723.18"/>
</g>
<!-- termin&#45;collision -->
<g id="node4" class="node">
<title>termin&#45;collision</title>
<path fill="#f7f7f7" stroke="#444444" d="M837,-871C837,-871 762,-871 762,-871 756,-871 750,-865 750,-859 750,-859 750,-847 750,-847 750,-841 756,-835 762,-835 762,-835 837,-835 837,-835 843,-835 849,-841 849,-847 849,-847 849,-859 849,-859 849,-865 843,-871 837,-871"/>
<text text-anchor="middle" x="799.5" y="-850.2" font-family="DejaVu Sans" font-size="11.00">termin&#45;collision</text>
</g>
<!-- termin&#45;physics -->
<g id="node11" class="node">
<title>termin&#45;physics</title>
<path fill="#f7f7f7" stroke="#444444" d="M1080,-922C1080,-922 1008,-922 1008,-922 1002,-922 996,-916 996,-910 996,-910 996,-898 996,-898 996,-892 1002,-886 1008,-886 1008,-886 1080,-886 1080,-886 1086,-886 1092,-892 1092,-898 1092,-898 1092,-910 1092,-910 1092,-916 1086,-922 1080,-922"/>
<text text-anchor="middle" x="1044" y="-901.2" font-family="DejaVu Sans" font-size="11.00">termin&#45;physics</text>
</g>
<!-- termin&#45;collision&#45;&gt;termin&#45;physics -->
<g id="edge31" class="edge">
<title>termin&#45;collision&#45;&gt;termin&#45;physics</title>
<path fill="none" stroke="#666666" stroke-width="1.1" d="M849.28,-863.26C889.68,-871.76 947.04,-883.82 988.85,-892.61"/>
<polygon fill="#666666" stroke="#666666" stroke-width="1.1" points="988.59,-895.06 995.95,-894.1 989.6,-890.27 988.59,-895.06"/>
</g>
<!-- termin&#45;components&#45;collision -->
<g id="node20" class="node">
<title>termin&#45;components&#45;collision</title>
<path fill="#f7f7f7" stroke="#444444" d="M1117,-1360C1117,-1360 971,-1360 971,-1360 965,-1360 959,-1354 959,-1348 959,-1348 959,-1336 959,-1336 959,-1330 965,-1324 971,-1324 971,-1324 1117,-1324 1117,-1324 1123,-1324 1129,-1330 1129,-1336 1129,-1336 1129,-1348 1129,-1348 1129,-1354 1123,-1360 1117,-1360"/>
<text text-anchor="middle" x="1044" y="-1339.2" font-family="DejaVu Sans" font-size="11.00">termin&#45;components&#45;collision</text>
</g>
<!-- termin&#45;collision&#45;&gt;termin&#45;components&#45;collision -->
<g id="edge29" class="edge">
<title>termin&#45;collision&#45;&gt;termin&#45;components&#45;collision</title>
<path fill="none" stroke="#666666" stroke-width="1.1" d="M849.09,-863.21C863.5,-868.29 878.28,-875.84 889,-887 1010.75,-1013.77 1036.41,-1240.2 1041.68,-1316.27"/>
<polygon fill="#666666" stroke="#666666" stroke-width="1.1" points="1039.25,-1316.74 1042.15,-1323.57 1044.14,-1316.42 1039.25,-1316.74"/>
</g>
<!-- termin&#45;engine -->
<g id="node36" class="node">
<title>termin&#45;engine</title>
<path fill="#f7f7f7" stroke="#444444" d="M1077.5,-1562C1077.5,-1562 1010.5,-1562 1010.5,-1562 1004.5,-1562 998.5,-1556 998.5,-1550 998.5,-1550 998.5,-1538 998.5,-1538 998.5,-1532 1004.5,-1526 1010.5,-1526 1010.5,-1526 1077.5,-1526 1077.5,-1526 1083.5,-1526 1089.5,-1532 1089.5,-1538 1089.5,-1538 1089.5,-1550 1089.5,-1550 1089.5,-1556 1083.5,-1562 1077.5,-1562"/>
<text text-anchor="middle" x="1044" y="-1541.2" font-family="DejaVu Sans" font-size="11.00">termin&#45;engine</text>
</g>
<!-- termin&#45;collision&#45;&gt;termin&#45;engine -->
<g id="edge30" class="edge">
<title>termin&#45;collision&#45;&gt;termin&#45;engine</title>
<path fill="none" stroke="#666666" stroke-width="1.1" d="M849.21,-861.44C864.17,-866.43 879.24,-874.37 889,-887 1047.09,-1091.54 834.99,-1235.52 954,-1465 966.07,-1488.27 988.03,-1507.88 1007.12,-1521.74"/>
<polygon fill="#666666" stroke="#666666" stroke-width="1.1" points="1005.81,-1523.81 1012.94,-1525.85 1008.64,-1519.81 1005.81,-1523.81"/>
</g>
<!-- termin&#45;csg -->
<g id="node5" class="node">
<title>termin&#45;csg</title>
<path fill="#f7f7f7" stroke="#444444" d="M222,-803C222,-803 173,-803 173,-803 167,-803 161,-797 161,-791 161,-791 161,-779 161,-779 161,-773 167,-767 173,-767 173,-767 222,-767 222,-767 228,-767 234,-773 234,-779 234,-779 234,-791 234,-791 234,-797 228,-803 222,-803"/>
<text text-anchor="middle" x="197.5" y="-782.2" font-family="DejaVu Sans" font-size="11.00">termin&#45;csg</text>
</g>
<!-- termin&#45;components&#45;mesh -->
<g id="node22" class="node">
<title>termin&#45;components&#45;mesh</title>
<path fill="#f7f7f7" stroke="#444444" d="M865.5,-1224C865.5,-1224 733.5,-1224 733.5,-1224 727.5,-1224 721.5,-1218 721.5,-1212 721.5,-1212 721.5,-1200 721.5,-1200 721.5,-1194 727.5,-1188 733.5,-1188 733.5,-1188 865.5,-1188 865.5,-1188 871.5,-1188 877.5,-1194 877.5,-1200 877.5,-1200 877.5,-1212 877.5,-1212 877.5,-1218 871.5,-1224 865.5,-1224"/>
<text text-anchor="middle" x="799.5" y="-1203.2" font-family="DejaVu Sans" font-size="11.00">termin&#45;components&#45;mesh</text>
</g>
<!-- termin&#45;csg&#45;&gt;termin&#45;components&#45;mesh -->
<g id="edge52" class="edge">
<title>termin&#45;csg&#45;&gt;termin&#45;components&#45;mesh</title>
<path fill="none" stroke="#666666" stroke-width="1.1" d="M234.1,-803.17C240.15,-807.63 245.82,-812.91 250,-819 316.95,-916.53 224.91,-993.81 307,-1079 413.96,-1190 604.21,-1208.61 713.99,-1209.26"/>
<polygon fill="#666666" stroke="#666666" stroke-width="1.1" points="714.1,-1211.71 721.11,-1209.27 714.11,-1206.81 714.1,-1211.71"/>
</g>
<!-- termin&#45;input -->
<g id="node6" class="node">
<title>termin&#45;input</title>
<path fill="#f7f7f7" stroke="#444444" d="M828.5,-939C828.5,-939 770.5,-939 770.5,-939 764.5,-939 758.5,-933 758.5,-927 758.5,-927 758.5,-915 758.5,-915 758.5,-909 764.5,-903 770.5,-903 770.5,-903 828.5,-903 828.5,-903 834.5,-903 840.5,-909 840.5,-915 840.5,-915 840.5,-927 840.5,-927 840.5,-933 834.5,-939 828.5,-939"/>
<text text-anchor="middle" x="799.5" y="-918.2" font-family="DejaVu Sans" font-size="11.00">termin&#45;input</text>
</g>
<!-- termin&#45;display -->
<g id="node32" class="node">
<title>termin&#45;display</title>
<path fill="#f7f7f7" stroke="#444444" d="M834,-2485C834,-2485 765,-2485 765,-2485 759,-2485 753,-2479 753,-2473 753,-2473 753,-2461 753,-2461 753,-2455 759,-2449 765,-2449 765,-2449 834,-2449 834,-2449 840,-2449 846,-2455 846,-2461 846,-2461 846,-2473 846,-2473 846,-2479 840,-2485 834,-2485"/>
<text text-anchor="middle" x="799.5" y="-2464.2" font-family="DejaVu Sans" font-size="11.00">termin&#45;display</text>
</g>
<!-- termin&#45;input&#45;&gt;termin&#45;display -->
<g id="edge72" class="edge">
<title>termin&#45;input&#45;&gt;termin&#45;display</title>
<path fill="none" stroke="#666666" stroke-width="1.1" d="M758.47,-929.17C728.94,-937.47 691.29,-953.61 673.5,-984 634.63,-1050.4 639.69,-2299.88 673.5,-2369 690.2,-2403.14 725.16,-2428.82 754.03,-2445.31"/>
<polygon fill="#666666" stroke="#666666" stroke-width="1.1" points="753.16,-2447.63 760.46,-2448.9 755.54,-2443.35 753.16,-2447.63"/>
</g>
<!-- termin&#45;scene -->
<g id="node13" class="node">
<title>termin&#45;scene</title>
<path fill="#f7f7f7" stroke="#444444" d="M607.5,-939C607.5,-939 544.5,-939 544.5,-939 538.5,-939 532.5,-933 532.5,-927 532.5,-927 532.5,-915 532.5,-915 532.5,-909 538.5,-903 544.5,-903 544.5,-903 607.5,-903 607.5,-903 613.5,-903 619.5,-909 619.5,-915 619.5,-915 619.5,-927 619.5,-927 619.5,-933 613.5,-939 607.5,-939"/>
<text text-anchor="middle" x="576" y="-918.2" font-family="DejaVu Sans" font-size="11.00">termin&#45;scene</text>
</g>
<!-- termin&#45;inspect&#45;&gt;termin&#45;scene -->
<g id="edge74" class="edge">
<title>termin&#45;inspect&#45;&gt;termin&#45;scene</title>
<path fill="none" stroke="#666666" stroke-width="1.1" d="M425.83,-921C455.73,-921 494.6,-921 525.16,-921"/>
<polygon fill="#666666" stroke="#666666" stroke-width="1.1" points="525.34,-923.45 532.34,-921 525.34,-918.55 525.34,-923.45"/>
</g>
<!-- termin&#45;components&#45;ui -->
<g id="node26" class="node">
<title>termin&#45;components&#45;ui</title>
<path fill="#f7f7f7" stroke="#444444" d="M855,-1360C855,-1360 744,-1360 744,-1360 738,-1360 732,-1354 732,-1348 732,-1348 732,-1336 732,-1336 732,-1330 738,-1324 744,-1324 744,-1324 855,-1324 855,-1324 861,-1324 867,-1330 867,-1336 867,-1336 867,-1348 867,-1348 867,-1354 861,-1360 855,-1360"/>
<text text-anchor="middle" x="799.5" y="-1339.2" font-family="DejaVu Sans" font-size="11.00">termin&#45;components&#45;ui</text>
</g>
<!-- termin&#45;inspect&#45;&gt;termin&#45;components&#45;ui -->
<g id="edge73" class="edge">
<title>termin&#45;inspect&#45;&gt;termin&#45;components&#45;ui</title>
<path fill="none" stroke="#666666" stroke-width="1.1" d="M389.79,-939.34C425.07,-1000.66 547.6,-1200.68 702,-1308 709.12,-1312.95 717.04,-1317.25 725.19,-1320.96"/>
<polygon fill="#666666" stroke="#666666" stroke-width="1.1" points="724.67,-1323.41 732.07,-1323.95 726.62,-1318.92 724.67,-1323.41"/>
</g>
<!-- termin&#45;graphics -->
<g id="node33" class="node">
<title>termin&#45;graphics</title>
<path fill="#f7f7f7" stroke="#444444" d="M417,-2477C417,-2477 340,-2477 340,-2477 334,-2477 328,-2471 328,-2465 328,-2465 328,-2453 328,-2453 328,-2447 334,-2441 340,-2441 340,-2441 417,-2441 417,-2441 423,-2441 429,-2447 429,-2453 429,-2453 429,-2465 429,-2465 429,-2471 423,-2477 417,-2477"/>
<text text-anchor="middle" x="378.5" y="-2456.2" font-family="DejaVu Sans" font-size="11.00">termin&#45;graphics</text>
</g>
<!-- termin&#45;mesh&#45;&gt;termin&#45;graphics -->
<g id="edge77" class="edge">
<title>termin&#45;mesh&#45;&gt;termin&#45;graphics</title>
<path fill="none" stroke="#666666" stroke-width="1.1" d="M336.4,-776.57C314.93,-787.44 290.8,-803.95 278.5,-827 244.31,-891.06 267.7,-2062.2 278.5,-2134 295.85,-2249.37 346.01,-2380.3 367.98,-2434.01"/>
<polygon fill="#666666" stroke="#666666" stroke-width="1.1" points="365.83,-2435.23 370.76,-2440.77 370.36,-2433.36 365.83,-2435.23"/>
</g>
<!-- termin&#45;modules&#45;&gt;termin&#45;engine -->
<g id="edge78" class="edge">
<title>termin&#45;modules&#45;&gt;termin&#45;engine</title>
<path fill="none" stroke="#666666" stroke-width="1.1" d="M404.51,-676.17C419.82,-688.56 438.6,-706.27 450,-726 502.45,-816.83 475.41,-854.99 507,-955 579.58,-1184.82 520.94,-1301.93 702,-1461 783.87,-1532.93 917.79,-1544.86 991.07,-1545.53"/>
<polygon fill="#666666" stroke="#666666" stroke-width="1.1" points="991.39,-1547.98 998.4,-1545.56 991.41,-1543.08 991.39,-1547.98"/>
</g>
<!-- termin&#45;navmesh -->
<g id="node10" class="node">
<title>termin&#45;navmesh</title>
<path fill="#f7f7f7" stroke="#444444" d="M238,-871C238,-871 157,-871 157,-871 151,-871 145,-865 145,-859 145,-859 145,-847 145,-847 145,-841 151,-835 157,-835 157,-835 238,-835 238,-835 244,-835 250,-841 250,-847 250,-847 250,-859 250,-859 250,-865 244,-871 238,-871"/>
<text text-anchor="middle" x="197.5" y="-850.2" font-family="DejaVu Sans" font-size="11.00">termin&#45;navmesh</text>
</g>
<!-- termin&#45;bootstrap -->
<g id="node42" class="node">
<title>termin&#45;bootstrap</title>
<path fill="#f7f7f7" stroke="#444444" d="M1324.5,-1897C1324.5,-1897 1240.5,-1897 1240.5,-1897 1234.5,-1897 1228.5,-1891 1228.5,-1885 1228.5,-1885 1228.5,-1873 1228.5,-1873 1228.5,-1867 1234.5,-1861 1240.5,-1861 1240.5,-1861 1324.5,-1861 1324.5,-1861 1330.5,-1861 1336.5,-1867 1336.5,-1873 1336.5,-1873 1336.5,-1885 1336.5,-1885 1336.5,-1891 1330.5,-1897 1324.5,-1897"/>
<text text-anchor="middle" x="1282.5" y="-1876.2" font-family="DejaVu Sans" font-size="11.00">termin&#45;bootstrap</text>
</g>
<!-- termin&#45;navmesh&#45;&gt;termin&#45;bootstrap -->
<g id="edge80" class="edge">
<title>termin&#45;navmesh&#45;&gt;termin&#45;bootstrap</title>
<path fill="none" stroke="#666666" stroke-width="1.1" d="M234.76,-871.1C240.67,-875.54 246.12,-880.83 250,-887 350.24,-1046.5 257.28,-1125.3 307,-1307 374.27,-1552.84 320.12,-1814 575,-1814 575,-1814 575,-1814 800.5,-1814 953.26,-1814 1130.86,-1846.59 1221.53,-1865.62"/>
<polygon fill="#666666" stroke="#666666" stroke-width="1.1" points="1221.08,-1868.03 1228.43,-1867.08 1222.09,-1863.23 1221.08,-1868.03"/>
</g>
<!-- termin&#45;default&#45;assets -->
<g id="node44" class="node">
<title>termin&#45;default&#45;assets</title>
<path fill="#f7f7f7" stroke="#444444" d="M1551,-2236C1551,-2236 1443,-2236 1443,-2236 1437,-2236 1431,-2230 1431,-2224 1431,-2224 1431,-2212 1431,-2212 1431,-2206 1437,-2200 1443,-2200 1443,-2200 1551,-2200 1551,-2200 1557,-2200 1563,-2206 1563,-2212 1563,-2212 1563,-2224 1563,-2224 1563,-2230 1557,-2236 1551,-2236"/>
<text text-anchor="middle" x="1497" y="-2215.2" font-family="DejaVu Sans" font-size="11.00">termin&#45;default&#45;assets</text>
</g>
<!-- termin&#45;navmesh&#45;&gt;termin&#45;default&#45;assets -->
<g id="edge81" class="edge">
<title>termin&#45;navmesh&#45;&gt;termin&#45;default&#45;assets</title>
<path fill="none" stroke="#666666" stroke-width="1.1" d="M235.35,-871.1C241.13,-875.52 246.38,-880.8 250,-887 341.77,-1044.17 237.7,-1535.72 307,-1704 409.36,-1952.55 476.72,-2015.36 702,-2162 726.18,-2177.74 1170.46,-2308.76 1199,-2313 1275.93,-2324.43 1300.44,-2338.26 1374,-2313 1414.9,-2298.95 1452.63,-2264.97 1474.99,-2241.7"/>
<polygon fill="#666666" stroke="#666666" stroke-width="1.1" points="1477.04,-2243.1 1480.06,-2236.33 1473.48,-2239.73 1477.04,-2243.1"/>
</g>
<!-- termin&#45;player -->
<g id="node50" class="node">
<title>termin&#45;player</title>
<path fill="#f7f7f7" stroke="#444444" d="M1529.5,-1722C1529.5,-1722 1464.5,-1722 1464.5,-1722 1458.5,-1722 1452.5,-1716 1452.5,-1710 1452.5,-1710 1452.5,-1698 1452.5,-1698 1452.5,-1692 1458.5,-1686 1464.5,-1686 1464.5,-1686 1529.5,-1686 1529.5,-1686 1535.5,-1686 1541.5,-1692 1541.5,-1698 1541.5,-1698 1541.5,-1710 1541.5,-1710 1541.5,-1716 1535.5,-1722 1529.5,-1722"/>
<text text-anchor="middle" x="1497" y="-1701.2" font-family="DejaVu Sans" font-size="11.00">termin&#45;player</text>
</g>
<!-- termin&#45;navmesh&#45;&gt;termin&#45;player -->
<g id="edge82" class="edge">
<title>termin&#45;navmesh&#45;&gt;termin&#45;player</title>
<path fill="none" stroke="#666666" stroke-width="1.1" d="M235.28,-871.14C241.06,-875.56 246.34,-880.83 250,-887 327.48,-1017.61 253.05,-1426.04 307,-1568 359.67,-1706.59 386.22,-1749 507,-1835 667.59,-1949.35 1220.4,-2146.58 1374,-2023 1466.17,-1948.84 1371.73,-1865.38 1431,-1763 1439.07,-1749.06 1451.56,-1736.57 1463.44,-1726.71"/>
<polygon fill="#666666" stroke="#666666" stroke-width="1.1" points="1465.27,-1728.38 1469.2,-1722.09 1462.21,-1724.56 1465.27,-1728.38"/>
</g>
<!-- termin&#45;components&#45;physics -->
<g id="node23" class="node">
<title>termin&#45;components&#45;physics</title>
<path fill="#f7f7f7" stroke="#444444" d="M1354,-1394C1354,-1394 1211,-1394 1211,-1394 1205,-1394 1199,-1388 1199,-1382 1199,-1382 1199,-1370 1199,-1370 1199,-1364 1205,-1358 1211,-1358 1211,-1358 1354,-1358 1354,-1358 1360,-1358 1366,-1364 1366,-1370 1366,-1370 1366,-1382 1366,-1382 1366,-1388 1360,-1394 1354,-1394"/>
<text text-anchor="middle" x="1282.5" y="-1373.2" font-family="DejaVu Sans" font-size="11.00">termin&#45;components&#45;physics</text>
</g>
<!-- termin&#45;physics&#45;&gt;termin&#45;components&#45;physics -->
<g id="edge84" class="edge">
<title>termin&#45;physics&#45;&gt;termin&#45;components&#45;physics</title>
<path fill="none" stroke="#666666" stroke-width="1.1" d="M1079.8,-922.21C1098.1,-933.32 1119.66,-949.02 1134,-968 1228.2,-1092.65 1266.59,-1283.19 1277.76,-1350.99"/>
<polygon fill="#666666" stroke="#666666" stroke-width="1.1" points="1275.34,-1351.38 1278.87,-1357.9 1280.18,-1350.6 1275.34,-1351.38"/>
</g>
<!-- termin&#45;physics&#45;fem -->
<g id="node28" class="node">
<title>termin&#45;physics&#45;fem</title>
<path fill="#f7f7f7" stroke="#444444" d="M847.5,-1088C847.5,-1088 751.5,-1088 751.5,-1088 745.5,-1088 739.5,-1082 739.5,-1076 739.5,-1076 739.5,-1064 739.5,-1064 739.5,-1058 745.5,-1052 751.5,-1052 751.5,-1052 847.5,-1052 847.5,-1052 853.5,-1052 859.5,-1058 859.5,-1064 859.5,-1064 859.5,-1076 859.5,-1076 859.5,-1082 853.5,-1088 847.5,-1088"/>
<text text-anchor="middle" x="799.5" y="-1067.2" font-family="DejaVu Sans" font-size="11.00">termin&#45;physics&#45;fem</text>
</g>
<!-- termin&#45;qopt&#45;&gt;termin&#45;physics&#45;fem -->
<g id="edge90" class="edge">
<title>termin&#45;qopt&#45;&gt;termin&#45;physics&#45;fem</title>
<path fill="none" stroke="#666666" stroke-width="1.1" d="M415.13,-863.11C426.81,-869.84 439.48,-878.04 450,-887 480.03,-912.56 475.22,-931.66 507,-955 582.64,-1010.55 614.38,-1002.39 702,-1036 713.89,-1040.56 726.7,-1045.24 738.97,-1049.6"/>
<polygon fill="#666666" stroke="#666666" stroke-width="1.1" points="738.3,-1051.97 745.72,-1051.99 739.94,-1047.35 738.3,-1051.97"/>
</g>
<!-- termin&#45;scene&#45;&gt;termin&#45;collision -->
<g id="edge99" class="edge">
<title>termin&#45;scene&#45;&gt;termin&#45;collision</title>
<path fill="none" stroke="#666666" stroke-width="1.1" d="M619.71,-907.89C654.74,-897.13 704.6,-881.83 742.77,-870.11"/>
<polygon fill="#666666" stroke="#666666" stroke-width="1.1" points="743.78,-872.36 749.75,-867.96 742.34,-867.68 743.78,-872.36"/>
</g>
<!-- termin&#45;scene&#45;&gt;termin&#45;input -->
<g id="edge105" class="edge">
<title>termin&#45;scene&#45;&gt;termin&#45;input</title>
<path fill="none" stroke="#666666" stroke-width="1.1" d="M619.71,-921C657.34,-921 712.09,-921 751.08,-921"/>
<polygon fill="#666666" stroke="#666666" stroke-width="1.1" points="751.16,-923.45 758.16,-921 751.16,-918.55 751.16,-923.45"/>
</g>
<!-- termin&#45;skeleton -->
<g id="node14" class="node">
<title>termin&#45;skeleton</title>
<path fill="#f7f7f7" stroke="#444444" d="M838,-803C838,-803 761,-803 761,-803 755,-803 749,-797 749,-791 749,-791 749,-779 749,-779 749,-773 755,-767 761,-767 761,-767 838,-767 838,-767 844,-767 850,-773 850,-779 850,-779 850,-791 850,-791 850,-797 844,-803 838,-803"/>
<text text-anchor="middle" x="799.5" y="-782.2" font-family="DejaVu Sans" font-size="11.00">termin&#45;skeleton</text>
</g>
<!-- termin&#45;scene&#45;&gt;termin&#45;skeleton -->
<g id="edge111" class="edge">
<title>termin&#45;scene&#45;&gt;termin&#45;skeleton</title>
<path fill="none" stroke="#666666" stroke-width="1.1" d="M594.97,-902.88C618.01,-880.52 659.99,-842.59 702,-819 714.51,-811.98 728.74,-806 742.35,-801.11"/>
<polygon fill="#666666" stroke="#666666" stroke-width="1.1" points="743.17,-803.42 748.97,-798.79 741.55,-798.79 743.17,-803.42"/>
</g>
<!-- termin&#45;components&#45;kinematic -->
<g id="node21" class="node">
<title>termin&#45;components&#45;kinematic</title>
<path fill="#f7f7f7" stroke="#444444" d="M877,-1020C877,-1020 722,-1020 722,-1020 716,-1020 710,-1014 710,-1008 710,-1008 710,-996 710,-996 710,-990 716,-984 722,-984 722,-984 877,-984 877,-984 883,-984 889,-990 889,-996 889,-996 889,-1008 889,-1008 889,-1014 883,-1020 877,-1020"/>
<text text-anchor="middle" x="799.5" y="-999.2" font-family="DejaVu Sans" font-size="11.00">termin&#45;components&#45;kinematic</text>
</g>
<!-- termin&#45;scene&#45;&gt;termin&#45;components&#45;kinematic -->
<g id="edge100" class="edge">
<title>termin&#45;scene&#45;&gt;termin&#45;components&#45;kinematic</title>
<path fill="none" stroke="#666666" stroke-width="1.1" d="M614.15,-939.12C638.7,-950.65 671.81,-965.36 702,-976 707.7,-978.01 713.64,-979.96 719.65,-981.82"/>
<polygon fill="#666666" stroke="#666666" stroke-width="1.1" points="719.31,-984.27 726.72,-983.96 720.73,-979.58 719.31,-984.27"/>
</g>
<!-- termin&#45;scene&#45;&gt;termin&#45;components&#45;mesh -->
<g id="edge101" class="edge">
<title>termin&#45;scene&#45;&gt;termin&#45;components&#45;mesh</title>
<path fill="none" stroke="#666666" stroke-width="1.1" d="M581,-939.05C592.05,-984.72 627.22,-1105.92 702,-1172 707.6,-1176.95 713.98,-1181.2 720.71,-1184.83"/>
<polygon fill="#666666" stroke="#666666" stroke-width="1.1" points="719.63,-1187.03 726.99,-1188 721.84,-1182.66 719.63,-1187.03"/>
</g>
<!-- termin&#45;components&#45;tween -->
<g id="node25" class="node">
<title>termin&#45;components&#45;tween</title>
<path fill="#f7f7f7" stroke="#444444" d="M867,-1156C867,-1156 732,-1156 732,-1156 726,-1156 720,-1150 720,-1144 720,-1144 720,-1132 720,-1132 720,-1126 726,-1120 732,-1120 732,-1120 867,-1120 867,-1120 873,-1120 879,-1126 879,-1132 879,-1132 879,-1144 879,-1144 879,-1150 873,-1156 867,-1156"/>
<text text-anchor="middle" x="799.5" y="-1135.2" font-family="DejaVu Sans" font-size="11.00">termin&#45;components&#45;tween</text>
</g>
<!-- termin&#45;scene&#45;&gt;termin&#45;components&#45;tween -->
<g id="edge102" class="edge">
<title>termin&#45;scene&#45;&gt;termin&#45;components&#45;tween</title>
<path fill="none" stroke="#666666" stroke-width="1.1" d="M588.45,-939.1C616.3,-982.94 686.44,-1092.04 702,-1104 708.49,-1108.99 715.78,-1113.28 723.35,-1116.97"/>
<polygon fill="#666666" stroke="#666666" stroke-width="1.1" points="722.39,-1119.23 729.78,-1119.93 724.44,-1114.78 722.39,-1119.23"/>
</g>
<!-- termin&#45;components&#45;voxels -->
<g id="node27" class="node">
<title>termin&#45;components&#45;voxels</title>
<path fill="#f7f7f7" stroke="#444444" d="M868,-1292C868,-1292 731,-1292 731,-1292 725,-1292 719,-1286 719,-1280 719,-1280 719,-1268 719,-1268 719,-1262 725,-1256 731,-1256 731,-1256 868,-1256 868,-1256 874,-1256 880,-1262 880,-1268 880,-1268 880,-1280 880,-1280 880,-1286 874,-1292 868,-1292"/>
<text text-anchor="middle" x="799.5" y="-1271.2" font-family="DejaVu Sans" font-size="11.00">termin&#45;components&#45;voxels</text>
</g>
<!-- termin&#45;scene&#45;&gt;termin&#45;components&#45;voxels -->
<g id="edge103" class="edge">
<title>termin&#45;scene&#45;&gt;termin&#45;components&#45;voxels</title>
<path fill="none" stroke="#666666" stroke-width="1.1" d="M578.86,-939.02C585.35,-992.64 611.73,-1152.81 702,-1240 706.98,-1244.81 712.69,-1248.95 718.78,-1252.5"/>
<polygon fill="#666666" stroke="#666666" stroke-width="1.1" points="717.66,-1254.68 724.98,-1255.86 720,-1250.37 717.66,-1254.68"/>
</g>
<!-- termin&#45;scene&#45;&gt;termin&#45;physics&#45;fem -->
<g id="edge107" class="edge">
<title>termin&#45;scene&#45;&gt;termin&#45;physics&#45;fem</title>
<path fill="none" stroke="#666666" stroke-width="1.1" d="M611.51,-939.09C622.78,-945.81 634.98,-954.02 645,-963 675.66,-990.47 668.58,-1011.97 702,-1036 711.26,-1042.65 721.94,-1048.11 732.75,-1052.55"/>
<polygon fill="#666666" stroke="#666666" stroke-width="1.1" points="732.07,-1054.91 739.48,-1055.18 733.85,-1050.35 732.07,-1054.91"/>
</g>
<!-- termin&#45;render -->
<g id="node35" class="node">
<title>termin&#45;render</title>
<path fill="#f7f7f7" stroke="#444444" d="M609,-2489C609,-2489 543,-2489 543,-2489 537,-2489 531,-2483 531,-2477 531,-2477 531,-2465 531,-2465 531,-2459 537,-2453 543,-2453 543,-2453 609,-2453 609,-2453 615,-2453 621,-2459 621,-2465 621,-2465 621,-2477 621,-2477 621,-2483 615,-2489 609,-2489"/>
<text text-anchor="middle" x="576" y="-2468.2" font-family="DejaVu Sans" font-size="11.00">termin&#45;render</text>
</g>
<!-- termin&#45;scene&#45;&gt;termin&#45;render -->
<g id="edge110" class="edge">
<title>termin&#45;scene&#45;&gt;termin&#45;render</title>
<path fill="none" stroke="#666666" stroke-width="1.1" d="M572.99,-939.13C558.71,-1026.28 497.62,-1410.95 478.5,-1729 473.89,-1805.75 439.66,-2354.64 478.5,-2421 488.51,-2438.11 506.53,-2449.57 524.37,-2457.15"/>
<polygon fill="#666666" stroke="#666666" stroke-width="1.1" points="523.52,-2459.45 530.93,-2459.77 525.34,-2454.9 523.52,-2459.45"/>
</g>
<!-- termin&#45;glb -->
<g id="node45" class="node">
<title>termin&#45;glb</title>
<path fill="#f7f7f7" stroke="#444444" d="M823,-2078C823,-2078 776,-2078 776,-2078 770,-2078 764,-2072 764,-2066 764,-2066 764,-2054 764,-2054 764,-2048 770,-2042 776,-2042 776,-2042 823,-2042 823,-2042 829,-2042 835,-2048 835,-2054 835,-2054 835,-2066 835,-2066 835,-2072 829,-2078 823,-2078"/>
<text text-anchor="middle" x="799.5" y="-2057.2" font-family="DejaVu Sans" font-size="11.00">termin&#45;glb</text>
</g>
<!-- termin&#45;scene&#45;&gt;termin&#45;glb -->
<g id="edge104" class="edge">
<title>termin&#45;scene&#45;&gt;termin&#45;glb</title>
<path fill="none" stroke="#666666" stroke-width="1.1" d="M578.36,-939.1C585.45,-1030.34 621.12,-1448.59 702,-1781 725.39,-1877.12 768.36,-1986.89 788.09,-2035.09"/>
<polygon fill="#666666" stroke="#666666" stroke-width="1.1" points="785.9,-2036.21 790.83,-2041.75 790.44,-2034.34 785.9,-2036.21"/>
</g>
<!-- termin&#45;mcp -->
<g id="node47" class="node">
<title>termin&#45;mcp</title>
<path fill="#f7f7f7" stroke="#444444" d="M826.5,-284C826.5,-284 772.5,-284 772.5,-284 766.5,-284 760.5,-278 760.5,-272 760.5,-272 760.5,-260 760.5,-260 760.5,-254 766.5,-248 772.5,-248 772.5,-248 826.5,-248 826.5,-248 832.5,-248 838.5,-254 838.5,-260 838.5,-260 838.5,-272 838.5,-272 838.5,-278 832.5,-284 826.5,-284"/>
<text text-anchor="middle" x="799.5" y="-263.2" font-family="DejaVu Sans" font-size="11.00">termin&#45;mcp</text>
</g>
<!-- termin&#45;scene&#45;&gt;termin&#45;mcp -->
<g id="edge106" class="edge">
<title>termin&#45;scene&#45;&gt;termin&#45;mcp</title>
<path fill="none" stroke="#666666" stroke-width="1.1" d="M579.78,-902.62C590.14,-836.77 629.66,-607.24 702,-431 723.74,-378.04 760,-321.54 781.34,-290.31"/>
<polygon fill="#666666" stroke="#666666" stroke-width="1.1" points="783.45,-291.56 785.4,-284.41 779.41,-288.79 783.45,-291.56"/>
</g>
<!-- termin&#45;prefab -->
<g id="node51" class="node">
<title>termin&#45;prefab</title>
<path fill="#f7f7f7" stroke="#444444" d="M832.5,-483C832.5,-483 766.5,-483 766.5,-483 760.5,-483 754.5,-477 754.5,-471 754.5,-471 754.5,-459 754.5,-459 754.5,-453 760.5,-447 766.5,-447 766.5,-447 832.5,-447 832.5,-447 838.5,-447 844.5,-453 844.5,-459 844.5,-459 844.5,-471 844.5,-471 844.5,-477 838.5,-483 832.5,-483"/>
<text text-anchor="middle" x="799.5" y="-462.2" font-family="DejaVu Sans" font-size="11.00">termin&#45;prefab</text>
</g>
<!-- termin&#45;scene&#45;&gt;termin&#45;prefab -->
<g id="edge108" class="edge">
<title>termin&#45;scene&#45;&gt;termin&#45;prefab</title>
<path fill="none" stroke="#666666" stroke-width="1.1" d="M583.08,-902.89C599.51,-854.76 647.3,-720.13 702,-615 726.15,-568.58 760.46,-518.09 781,-489.12"/>
<polygon fill="#666666" stroke="#666666" stroke-width="1.1" points="783.1,-490.4 785.17,-483.28 779.11,-487.56 783.1,-490.4"/>
</g>
<!-- termin&#45;project&#45;modules -->
<g id="node54" class="node">
<title>termin&#45;project&#45;modules</title>
<path fill="#f7f7f7" stroke="#444444" d="M859,-1765C859,-1765 740,-1765 740,-1765 734,-1765 728,-1759 728,-1753 728,-1753 728,-1741 728,-1741 728,-1735 734,-1729 740,-1729 740,-1729 859,-1729 859,-1729 865,-1729 871,-1735 871,-1741 871,-1741 871,-1753 871,-1753 871,-1759 865,-1765 859,-1765"/>
<text text-anchor="middle" x="799.5" y="-1744.2" font-family="DejaVu Sans" font-size="11.00">termin&#45;project&#45;modules</text>
</g>
<!-- termin&#45;scene&#45;&gt;termin&#45;project&#45;modules -->
<g id="edge109" class="edge">
<title>termin&#45;scene&#45;&gt;termin&#45;project&#45;modules</title>
<path fill="none" stroke="#666666" stroke-width="1.1" d="M577.42,-939.34C580.21,-1046.36 599.35,-1589.71 702,-1713 707.42,-1719.51 714.16,-1724.77 721.55,-1729.02"/>
<polygon fill="#666666" stroke="#666666" stroke-width="1.1" points="720.56,-1731.27 727.89,-1732.37 722.84,-1726.93 720.56,-1731.27"/>
</g>
<!-- termin&#45;skeleton&#45;&gt;termin&#45;animation -->
<g id="edge114" class="edge">
<title>termin&#45;skeleton&#45;&gt;termin&#45;animation</title>
<path fill="none" stroke="#666666" stroke-width="1.1" d="M850.16,-788.48C888.33,-791.16 941.25,-794.87 981.99,-797.72"/>
<polygon fill="#666666" stroke="#666666" stroke-width="1.1" points="982.04,-800.18 989.2,-798.23 982.38,-795.29 982.04,-800.18"/>
</g>
<!-- termin&#45;components&#45;skeleton -->
<g id="node24" class="node">
<title>termin&#45;components&#45;skeleton</title>
<path fill="#f7f7f7" stroke="#444444" d="M873.5,-1428C873.5,-1428 725.5,-1428 725.5,-1428 719.5,-1428 713.5,-1422 713.5,-1416 713.5,-1416 713.5,-1404 713.5,-1404 713.5,-1398 719.5,-1392 725.5,-1392 725.5,-1392 873.5,-1392 873.5,-1392 879.5,-1392 885.5,-1398 885.5,-1404 885.5,-1404 885.5,-1416 885.5,-1416 885.5,-1422 879.5,-1428 873.5,-1428"/>
<text text-anchor="middle" x="799.5" y="-1407.2" font-family="DejaVu Sans" font-size="11.00">termin&#45;components&#45;skeleton</text>
</g>
<!-- termin&#45;skeleton&#45;&gt;termin&#45;components&#45;skeleton -->
<g id="edge115" class="edge">
<title>termin&#45;skeleton&#45;&gt;termin&#45;components&#45;skeleton</title>
<path fill="none" stroke="#666666" stroke-width="1.1" d="M748.89,-790.29C720.96,-796.21 688.9,-808.7 673.5,-835 644.03,-885.34 644.03,-1309.66 673.5,-1360 681.28,-1373.3 693.33,-1383.06 706.94,-1390.24"/>
<polygon fill="#666666" stroke="#666666" stroke-width="1.1" points="705.94,-1392.47 713.3,-1393.35 708.09,-1388.07 705.94,-1392.47"/>
</g>
<!-- termin&#45;tween -->
<g id="node15" class="node">
<title>termin&#45;tween</title>
<path fill="#f7f7f7" stroke="#444444" d="M229.5,-735C229.5,-735 165.5,-735 165.5,-735 159.5,-735 153.5,-729 153.5,-723 153.5,-723 153.5,-711 153.5,-711 153.5,-705 159.5,-699 165.5,-699 165.5,-699 229.5,-699 229.5,-699 235.5,-699 241.5,-705 241.5,-711 241.5,-711 241.5,-723 241.5,-723 241.5,-729 235.5,-735 229.5,-735"/>
<text text-anchor="middle" x="197.5" y="-714.2" font-family="DejaVu Sans" font-size="11.00">termin&#45;tween</text>
</g>
<!-- termin&#45;tween&#45;&gt;termin&#45;components&#45;tween -->
<g id="edge118" class="edge">
<title>termin&#45;tween&#45;&gt;termin&#45;components&#45;tween</title>
<path fill="none" stroke="#666666" stroke-width="1.1" d="M233.56,-735.17C239.73,-739.65 245.58,-744.94 250,-751 305.45,-827.07 243.43,-885.56 307,-955 414.09,-1071.98 602.97,-1114.49 712.78,-1129.72"/>
<polygon fill="#666666" stroke="#666666" stroke-width="1.1" points="712.63,-1132.17 719.9,-1130.68 713.29,-1127.31 712.63,-1132.17"/>
</g>
<!-- termin&#45;voxels -->
<g id="node16" class="node">
<title>termin&#45;voxels</title>
<path fill="#f7f7f7" stroke="#444444" d="M230.5,-939C230.5,-939 164.5,-939 164.5,-939 158.5,-939 152.5,-933 152.5,-927 152.5,-927 152.5,-915 152.5,-915 152.5,-909 158.5,-903 164.5,-903 164.5,-903 230.5,-903 230.5,-903 236.5,-903 242.5,-909 242.5,-915 242.5,-915 242.5,-927 242.5,-927 242.5,-933 236.5,-939 230.5,-939"/>
<text text-anchor="middle" x="197.5" y="-918.2" font-family="DejaVu Sans" font-size="11.00">termin&#45;voxels</text>
</g>
<!-- termin&#45;voxels&#45;&gt;termin&#45;components&#45;voxels -->
<g id="edge119" class="edge">
<title>termin&#45;voxels&#45;&gt;termin&#45;components&#45;voxels</title>
<path fill="none" stroke="#666666" stroke-width="1.1" d="M198.52,-939.02C199.07,-1035.35 206.98,-1488.25 307,-1573 421.61,-1670.11 528.14,-1667.4 645,-1573 738.72,-1497.3 622.39,-1398.42 702,-1308 706.05,-1303.4 710.76,-1299.42 715.88,-1295.98"/>
<polygon fill="#666666" stroke="#666666" stroke-width="1.1" points="717.38,-1297.94 722.06,-1292.19 714.82,-1293.76 717.38,-1297.94"/>
</g>
<!-- termin -->
<g id="node17" class="node">
<title>termin</title>
<path fill="#f7f7f7" stroke="#444444" d="M59,-416C59,-416 29,-416 29,-416 23,-416 17,-410 17,-404 17,-404 17,-392 17,-392 17,-386 23,-380 29,-380 29,-380 59,-380 59,-380 65,-380 71,-386 71,-392 71,-392 71,-404 71,-404 71,-410 65,-416 59,-416"/>
<text text-anchor="middle" x="44" y="-395.2" font-family="DejaVu Sans" font-size="11.00">termin</text>
</g>
<!-- termin&#45;&gt;termin&#45;app -->
<g id="edge2" class="edge">
<title>termin&#45;&gt;termin&#45;app</title>
<path fill="none" stroke="#666666" stroke-width="1.1" d="M50.14,-379.86C73.43,-302 176.72,0 377.5,0 377.5,0 377.5,0 1283.5,0 1402.09,0 1337.48,-138.18 1374,-251 1467.58,-540.07 1505.35,-609.68 1563,-908 1636.67,-1289.23 1659.08,-1763.62 1663.57,-1877.56"/>
<polygon fill="#666666" stroke="#666666" stroke-width="1.1" points="1661.14,-1877.93 1663.86,-1884.83 1666.03,-1877.75 1661.14,-1877.93"/>
</g>
<!-- termin&#45;&gt;termin&#45;navmesh -->
<g id="edge4" class="edge">
<title>termin&#45;&gt;termin&#45;navmesh</title>
<path fill="none" stroke="#666666" stroke-width="1.1" d="M47,-416.21C55.21,-488.23 88.18,-752.52 137,-819 140.22,-823.38 144.18,-827.28 148.53,-830.74"/>
<polygon fill="#666666" stroke="#666666" stroke-width="1.1" points="147.1,-832.73 154.2,-834.87 149.99,-828.77 147.1,-832.73"/>
</g>
<!-- termin&#45;&gt;termin&#45;tween -->
<g id="edge8" class="edge">
<title>termin&#45;&gt;termin&#45;tween</title>
<path fill="none" stroke="#666666" stroke-width="1.1" d="M46.37,-416.14C50.88,-464.67 69.16,-599.44 137,-683 140.53,-687.35 144.78,-691.25 149.36,-694.72"/>
<polygon fill="#666666" stroke="#666666" stroke-width="1.1" points="148.17,-696.88 155.31,-698.89 150.98,-692.87 148.17,-696.88"/>
</g>
<!-- termin&#45;&gt;termin&#45;voxels -->
<g id="edge9" class="edge">
<title>termin&#45;&gt;termin&#45;voxels</title>
<path fill="none" stroke="#666666" stroke-width="1.1" d="M46.39,-416.1C52.72,-495.02 81.07,-808.45 137,-887 140.15,-891.43 144.08,-895.36 148.4,-898.83"/>
<polygon fill="#666666" stroke="#666666" stroke-width="1.1" points="146.96,-900.81 154.05,-902.98 149.86,-896.86 146.96,-900.81"/>
</g>
<!-- termin&#45;&gt;termin&#45;mcp -->
<g id="edge3" class="edge">
<title>termin&#45;&gt;termin&#45;mcp</title>
<path fill="none" stroke="#666666" stroke-width="1.1" d="M57.75,-379.7C74.21,-356.99 104.61,-317.95 137,-291 279.41,-172.5 326.1,-139 507,-99 566.89,-85.76 588.84,-74.34 645,-99 711.81,-128.33 762.32,-202.69 785.12,-241.52"/>
<polygon fill="#666666" stroke="#666666" stroke-width="1.1" points="783.18,-243.06 788.8,-247.89 787.42,-240.61 783.18,-243.06"/>
</g>
<!-- termin&#45;&gt;termin&#45;player -->
<g id="edge5" class="edge">
<title>termin&#45;&gt;termin&#45;player</title>
<path fill="none" stroke="#666666" stroke-width="1.1" d="M45.65,-416.22C53.24,-622.42 127.53,-2512.02 307,-2672 435.66,-2786.69 330.58,-3007 1134,-2582 1275.63,-2507.08 1309.27,-2459.57 1374,-2313 1473.28,-2088.19 1320.03,-1982.27 1431,-1763 1438.16,-1748.86 1450.22,-1736.47 1462.03,-1726.75"/>
<polygon fill="#666666" stroke="#666666" stroke-width="1.1" points="1463.82,-1728.46 1467.78,-1722.19 1460.78,-1724.62 1463.82,-1728.46"/>
</g>
<!-- termin&#45;shader&#45;runtime -->
<g id="node57" class="node">
<title>termin&#45;shader&#45;runtime</title>
<path fill="#f7f7f7" stroke="#444444" d="M633,-351C633,-351 519,-351 519,-351 513,-351 507,-345 507,-339 507,-339 507,-327 507,-327 507,-321 513,-315 519,-315 519,-315 633,-315 633,-315 639,-315 645,-321 645,-327 645,-327 645,-339 645,-339 645,-345 639,-351 633,-351"/>
<text text-anchor="middle" x="576" y="-330.2" font-family="DejaVu Sans" font-size="11.00">termin&#45;shader&#45;runtime</text>
</g>
<!-- termin&#45;&gt;termin&#45;shader&#45;runtime -->
<g id="edge6" class="edge">
<title>termin&#45;&gt;termin&#45;shader&#45;runtime</title>
<path fill="none" stroke="#666666" stroke-width="1.1" d="M71.02,-394.5C118.08,-388.2 220.5,-374.61 307,-364 372.07,-356.02 446.1,-347.49 499.84,-341.41"/>
<polygon fill="#666666" stroke="#666666" stroke-width="1.1" points="500.27,-343.83 506.95,-340.61 499.72,-338.96 500.27,-343.83"/>
</g>
<!-- termin&#45;stdlib -->
<g id="node58" class="node">
<title>termin&#45;stdlib</title>
<path fill="#f7f7f7" stroke="#444444" d="M606,-151C606,-151 546,-151 546,-151 540,-151 534,-145 534,-139 534,-139 534,-127 534,-127 534,-121 540,-115 546,-115 546,-115 606,-115 606,-115 612,-115 618,-121 618,-127 618,-127 618,-139 618,-139 618,-145 612,-151 606,-151"/>
<text text-anchor="middle" x="576" y="-130.2" font-family="DejaVu Sans" font-size="11.00">termin&#45;stdlib</text>
</g>
<!-- termin&#45;&gt;termin&#45;stdlib -->
<g id="edge7" class="edge">
<title>termin&#45;&gt;termin&#45;stdlib</title>
<path fill="none" stroke="#666666" stroke-width="1.1" d="M71.28,-384.86C156.7,-342.15 427.01,-207 532.37,-154.32"/>
<polygon fill="#666666" stroke="#666666" stroke-width="1.1" points="533.6,-156.44 538.77,-151.12 531.41,-152.06 533.6,-156.44"/>
</g>
<!-- termin&#45;components&#45;animation&#45;&gt;termin&#45;bootstrap -->
<g id="edge32" class="edge">
<title>termin&#45;components&#45;animation&#45;&gt;termin&#45;bootstrap</title>
<path fill="none" stroke="#666666" stroke-width="1.1" d="M1064.91,-1428.3C1084.57,-1447.22 1114.44,-1478.37 1134,-1510 1207.74,-1629.26 1257.36,-1791.73 1274.68,-1853.64"/>
<polygon fill="#666666" stroke="#666666" stroke-width="1.1" points="1272.4,-1854.59 1276.63,-1860.68 1277.13,-1853.28 1272.4,-1854.59"/>
</g>
<!-- termin&#45;components&#45;collision&#45;&gt;termin&#45;components&#45;physics -->
<g id="edge34" class="edge">
<title>termin&#45;components&#45;collision&#45;&gt;termin&#45;components&#45;physics</title>
<path fill="none" stroke="#666666" stroke-width="1.1" d="M1129.05,-1354.08C1149.44,-1357.02 1171.33,-1360.16 1191.97,-1363.13"/>
<polygon fill="#666666" stroke="#666666" stroke-width="1.1" points="1191.64,-1365.56 1198.92,-1364.13 1192.34,-1360.71 1191.64,-1365.56"/>
</g>
<!-- termin&#45;components&#45;collision&#45;&gt;termin&#45;bootstrap -->
<g id="edge33" class="edge">
<title>termin&#45;components&#45;collision&#45;&gt;termin&#45;bootstrap</title>
<path fill="none" stroke="#666666" stroke-width="1.1" d="M1112.92,-1360.08C1120.75,-1364.33 1128.05,-1369.56 1134,-1376 1265.57,-1518.5 1280.3,-1772.35 1281.55,-1853.39"/>
<polygon fill="#666666" stroke="#666666" stroke-width="1.1" points="1279.1,-1853.71 1281.63,-1860.68 1284,-1853.66 1279.1,-1853.71"/>
</g>
<!-- termin&#45;render&#45;passes -->
<g id="node55" class="node">
<title>termin&#45;render&#45;passes</title>
<path fill="#f7f7f7" stroke="#444444" d="M1336.5,-2163C1336.5,-2163 1228.5,-2163 1228.5,-2163 1222.5,-2163 1216.5,-2157 1216.5,-2151 1216.5,-2151 1216.5,-2139 1216.5,-2139 1216.5,-2133 1222.5,-2127 1228.5,-2127 1228.5,-2127 1336.5,-2127 1336.5,-2127 1342.5,-2127 1348.5,-2133 1348.5,-2139 1348.5,-2139 1348.5,-2151 1348.5,-2151 1348.5,-2157 1342.5,-2163 1336.5,-2163"/>
<text text-anchor="middle" x="1282.5" y="-2142.2" font-family="DejaVu Sans" font-size="11.00">termin&#45;render&#45;passes</text>
</g>
<!-- termin&#45;components&#45;collision&#45;&gt;termin&#45;render&#45;passes -->
<g id="edge35" class="edge">
<title>termin&#45;components&#45;collision&#45;&gt;termin&#45;render&#45;passes</title>
<path fill="none" stroke="#666666" stroke-width="1.1" d="M1115.68,-1360.21C1122.67,-1364.43 1129.01,-1369.61 1134,-1376 1208,-1470.73 1171.47,-1795.99 1199,-1913 1217.27,-1990.65 1252.74,-2078.37 1270.63,-2120.22"/>
<polygon fill="#666666" stroke="#666666" stroke-width="1.1" points="1268.43,-2121.31 1273.45,-2126.77 1272.93,-2119.38 1268.43,-2121.31"/>
</g>
<!-- termin&#45;components&#45;kinematic&#45;&gt;termin&#45;csharp -->
<g id="edge37" class="edge">
<title>termin&#45;components&#45;kinematic&#45;&gt;termin&#45;csharp</title>
<path fill="none" stroke="#666666" stroke-width="1.1" d="M870.88,-1020.2C877.81,-1024.41 884.09,-1029.6 889,-1036 1054.85,-1251.84 782.27,-1433.81 954,-1645 1007.03,-1710.21 1061.24,-1660.92 1134,-1703 1167.77,-1722.53 1166.58,-1740.29 1199,-1762 1270.53,-1809.89 1315.67,-1781.69 1374,-1845 1422.6,-1897.76 1403.98,-1929.55 1431,-1996 1448.91,-2040.05 1471.4,-2090.66 1484.69,-2120.11"/>
<polygon fill="#666666" stroke="#666666" stroke-width="1.1" points="1482.58,-2121.41 1487.7,-2126.78 1487.05,-2119.39 1482.58,-2121.41"/>
</g>
<!-- termin&#45;components&#45;kinematic&#45;&gt;termin&#45;bootstrap -->
<g id="edge36" class="edge">
<title>termin&#45;components&#45;kinematic&#45;&gt;termin&#45;bootstrap</title>
<path fill="none" stroke="#666666" stroke-width="1.1" d="M870.94,-1020.15C877.86,-1024.37 884.12,-1029.58 889,-1036 1070.39,-1274.47 779.92,-1463.14 954,-1707 1005.08,-1778.55 1058.23,-1744.42 1134,-1789 1164.95,-1807.21 1168.45,-1818.12 1199,-1837 1210.76,-1844.27 1223.93,-1851.39 1236.23,-1857.65"/>
<polygon fill="#666666" stroke="#666666" stroke-width="1.1" points="1235.22,-1859.88 1242.58,-1860.84 1237.43,-1855.5 1235.22,-1859.88"/>
</g>
<!-- termin&#45;components&#45;kinematic&#45;&gt;termin&#45;player -->
<g id="edge38" class="edge">
<title>termin&#45;components&#45;kinematic&#45;&gt;termin&#45;player</title>
<path fill="none" stroke="#666666" stroke-width="1.1" d="M870.82,-1020.24C877.76,-1024.45 884.06,-1029.63 889,-1036 1042.33,-1233.61 784.6,-1410.98 954,-1595 987.41,-1631.3 1316.79,-1679.6 1445.16,-1697.21"/>
<polygon fill="#666666" stroke="#666666" stroke-width="1.1" points="1444.95,-1699.66 1452.22,-1698.18 1445.62,-1694.8 1444.95,-1699.66"/>
</g>
<!-- termin&#45;components&#45;mesh&#45;&gt;termin&#45;navmesh -->
<g id="edge41" class="edge">
<title>termin&#45;components&#45;mesh&#45;&gt;termin&#45;navmesh</title>
<path fill="none" stroke="#666666" stroke-width="1.1" d="M721.49,-1218.43C599.08,-1236.33 367.7,-1261.96 307,-1211 195.01,-1117 330.21,-1009.24 250,-887 247.21,-882.75 243.69,-878.91 239.8,-875.47"/>
<polygon fill="#666666" stroke="#666666" stroke-width="1.1" points="241.29,-873.52 234.3,-871.03 238.21,-877.33 241.29,-873.52"/>
</g>
<!-- termin&#45;components&#45;mesh&#45;&gt;termin&#45;components&#45;collision -->
<g id="edge39" class="edge">
<title>termin&#45;components&#45;mesh&#45;&gt;termin&#45;components&#45;collision</title>
<path fill="none" stroke="#666666" stroke-width="1.1" d="M853.27,-1224.11C865.24,-1228.8 877.73,-1234.19 889,-1240 934.56,-1263.48 983.27,-1297.41 1013.43,-1319.58"/>
<polygon fill="#666666" stroke="#666666" stroke-width="1.1" points="1012.12,-1321.66 1019.2,-1323.85 1015.03,-1317.72 1012.12,-1321.66"/>
</g>
<!-- termin&#45;components&#45;render -->
<g id="node31" class="node">
<title>termin&#45;components&#45;render</title>
<path fill="#f7f7f7" stroke="#444444" d="M1113,-2493C1113,-2493 975,-2493 975,-2493 969,-2493 963,-2487 963,-2481 963,-2481 963,-2469 963,-2469 963,-2463 969,-2457 975,-2457 975,-2457 1113,-2457 1113,-2457 1119,-2457 1125,-2463 1125,-2469 1125,-2469 1125,-2481 1125,-2481 1125,-2487 1119,-2493 1113,-2493"/>
<text text-anchor="middle" x="1044" y="-2472.2" font-family="DejaVu Sans" font-size="11.00">termin&#45;components&#45;render</text>
</g>
<!-- termin&#45;components&#45;mesh&#45;&gt;termin&#45;components&#45;render -->
<g id="edge40" class="edge">
<title>termin&#45;components&#45;mesh&#45;&gt;termin&#45;components&#45;render</title>
<path fill="none" stroke="#666666" stroke-width="1.1" d="M870.93,-1224.15C877.86,-1228.38 884.11,-1233.58 889,-1240 978.94,-1358.14 935.32,-1757.7 954,-1905 980.8,-2116.28 1024.48,-2369.84 1038.51,-2449.67"/>
<polygon fill="#666666" stroke="#666666" stroke-width="1.1" points="1036.15,-2450.37 1039.78,-2456.84 1040.97,-2449.52 1036.15,-2450.37"/>
</g>
<!-- termin&#45;components&#45;physics&#45;&gt;termin&#45;default&#45;assets -->
<g id="edge42" class="edge">
<title>termin&#45;components&#45;physics&#45;&gt;termin&#45;default&#45;assets</title>
<path fill="none" stroke="#666666" stroke-width="1.1" d="M1287.23,-1394.29C1299.98,-1456.98 1342.74,-1669.05 1374,-1845 1401.24,-1998.33 1330.97,-2073.19 1430.18,-2194.41"/>
<polygon fill="#666666" stroke="#666666" stroke-width="1.1" points="1428.35,-2196.04 1434.71,-2199.84 1432.11,-2192.9 1428.35,-2196.04"/>
</g>
<!-- termin&#45;components&#45;physics&#45;&gt;termin&#45;player -->
<g id="edge43" class="edge">
<title>termin&#45;components&#45;physics&#45;&gt;termin&#45;player</title>
<path fill="none" stroke="#666666" stroke-width="1.1" d="M1308.55,-1394.13C1328.19,-1409.28 1355.25,-1432.32 1374,-1457 1429.6,-1530.17 1470.46,-1632.64 1487.39,-1679.22"/>
<polygon fill="#666666" stroke="#666666" stroke-width="1.1" points="1485.13,-1680.18 1489.81,-1685.93 1489.74,-1678.52 1485.13,-1680.18"/>
</g>
<!-- termin&#45;components&#45;skeleton&#45;&gt;termin&#45;components&#45;animation -->
<g id="edge47" class="edge">
<title>termin&#45;components&#45;skeleton&#45;&gt;termin&#45;components&#45;animation</title>
<path fill="none" stroke="#666666" stroke-width="1.1" d="M885.66,-1410C905.43,-1410 926.62,-1410 946.83,-1410"/>
<polygon fill="#666666" stroke="#666666" stroke-width="1.1" points="946.94,-1412.45 953.94,-1410 946.94,-1407.55 946.94,-1412.45"/>
</g>
<!-- termin&#45;components&#45;skeleton&#45;&gt;termin&#45;components&#45;render -->
<g id="edge48" class="edge">
<title>termin&#45;components&#45;skeleton&#45;&gt;termin&#45;components&#45;render</title>
<path fill="none" stroke="#666666" stroke-width="1.1" d="M808.63,-1428.21C825.76,-1467.22 865.88,-1562.06 889,-1645 911.38,-1725.28 1015.57,-2318.2 1038.52,-2449.36"/>
<polygon fill="#666666" stroke="#666666" stroke-width="1.1" points="1036.18,-2450.17 1039.79,-2456.64 1041,-2449.32 1036.18,-2450.17"/>
</g>
<!-- termin&#45;components&#45;tween&#45;&gt;termin&#45;player -->
<g id="edge49" class="edge">
<title>termin&#45;components&#45;tween&#45;&gt;termin&#45;player</title>
<path fill="none" stroke="#666666" stroke-width="1.1" d="M870.87,-1156.2C877.8,-1160.42 884.08,-1165.61 889,-1172 1052.85,-1384.93 806.83,-1548.22 954,-1773 1022.7,-1877.92 1077.79,-1880.81 1199,-1913 1274.17,-1932.96 1309.98,-1957.16 1374,-1913 1432.71,-1872.51 1390.82,-1821.92 1431,-1763 1440.31,-1749.35 1453.39,-1736.68 1465.37,-1726.61"/>
<polygon fill="#666666" stroke="#666666" stroke-width="1.1" points="1466.93,-1728.51 1470.79,-1722.17 1463.82,-1724.72 1466.93,-1728.51"/>
</g>
<!-- termin&#45;components&#45;ui&#45;&gt;termin&#45;render&#45;passes -->
<g id="edge50" class="edge">
<title>termin&#45;components&#45;ui&#45;&gt;termin&#45;render&#45;passes</title>
<path fill="none" stroke="#666666" stroke-width="1.1" d="M867.32,-1358.29C875.63,-1362.82 883.22,-1368.61 889,-1376 1034.82,-1562.68 834.18,-1700.66 954,-1905 1018.72,-2015.38 1156.32,-2089.89 1230.9,-2123.91"/>
<polygon fill="#666666" stroke="#666666" stroke-width="1.1" points="1230.09,-2126.23 1237.48,-2126.88 1232.11,-2121.76 1230.09,-2126.23"/>
</g>
<!-- termin&#45;components&#45;voxels&#45;&gt;termin&#45;navmesh -->
<g id="edge51" class="edge">
<title>termin&#45;components&#45;voxels&#45;&gt;termin&#45;navmesh</title>
<path fill="none" stroke="#666666" stroke-width="1.1" d="M739.81,-1292.1C637.77,-1319.56 427.11,-1357.91 307,-1250 185.51,-1140.86 338.34,-1024.36 250,-887 247.35,-882.88 244.01,-879.15 240.3,-875.8"/>
<polygon fill="#666666" stroke="#666666" stroke-width="1.1" points="241.62,-873.71 234.65,-871.16 238.51,-877.5 241.62,-873.71"/>
</g>
<!-- termin&#45;assets&#45;&gt;termin&#45;skeleton -->
<g id="edge19" class="edge">
<title>termin&#45;assets&#45;&gt;termin&#45;skeleton</title>
<path fill="none" stroke="#666666" stroke-width="1.1" d="M423.01,-516C432.27,-511.36 441.74,-505.97 450,-500 479.55,-478.64 473.44,-455.24 507,-441 563.46,-417.04 595.57,-404.69 645,-441 713.31,-491.19 667.41,-545.62 702,-623 725.05,-674.55 760.85,-730.19 781.75,-760.99"/>
<polygon fill="#666666" stroke="#666666" stroke-width="1.1" points="779.76,-762.41 785.73,-766.81 783.8,-759.65 779.76,-762.41"/>
</g>
<!-- termin&#45;assets&#45;&gt;termin&#45;components&#45;voxels -->
<g id="edge14" class="edge">
<title>termin&#45;assets&#45;&gt;termin&#45;components&#45;voxels</title>
<path fill="none" stroke="#666666" stroke-width="1.1" d="M414.01,-515.92C470.25,-489.25 581.75,-448.47 645,-507 764.92,-617.96 602.5,-1110.41 702,-1240 705.5,-1244.56 709.65,-1248.5 714.24,-1251.93"/>
<polygon fill="#666666" stroke="#666666" stroke-width="1.1" points="713.1,-1254.11 720.27,-1255.98 715.83,-1250.04 713.1,-1254.11"/>
</g>
<!-- termin&#45;components&#45;foliage -->
<g id="node43" class="node">
<title>termin&#45;components&#45;foliage</title>
<path fill="#f7f7f7" stroke="#444444" d="M868.5,-2146C868.5,-2146 730.5,-2146 730.5,-2146 724.5,-2146 718.5,-2140 718.5,-2134 718.5,-2134 718.5,-2122 718.5,-2122 718.5,-2116 724.5,-2110 730.5,-2110 730.5,-2110 868.5,-2110 868.5,-2110 874.5,-2110 880.5,-2116 880.5,-2122 880.5,-2122 880.5,-2134 880.5,-2134 880.5,-2140 874.5,-2146 868.5,-2146"/>
<text text-anchor="middle" x="799.5" y="-2125.2" font-family="DejaVu Sans" font-size="11.00">termin&#45;components&#45;foliage</text>
</g>
<!-- termin&#45;assets&#45;&gt;termin&#45;components&#45;foliage -->
<g id="edge13" class="edge">
<title>termin&#45;assets&#45;&gt;termin&#45;components&#45;foliage</title>
<path fill="none" stroke="#666666" stroke-width="1.1" d="M423.7,-546.72C497.41,-568.13 638.1,-609.92 645,-619 744.23,-749.59 604.67,-1961.99 702,-2094 705.34,-2098.52 709.32,-2102.45 713.74,-2105.85"/>
<polygon fill="#666666" stroke="#666666" stroke-width="1.1" points="712.42,-2107.91 719.56,-2109.89 715.21,-2103.89 712.42,-2107.91"/>
</g>
<!-- termin&#45;assets&#45;&gt;termin&#45;glb -->
<g id="edge15" class="edge">
<title>termin&#45;assets&#45;&gt;termin&#45;glb</title>
<path fill="none" stroke="#666666" stroke-width="1.1" d="M423.68,-525.43C483.61,-516.65 589.56,-511.8 645,-573 735.21,-672.59 676.61,-1649.05 702,-1781 720.69,-1878.14 766.05,-1987.39 787.24,-2035.28"/>
<polygon fill="#666666" stroke="#666666" stroke-width="1.1" points="785.1,-2036.49 790.19,-2041.89 789.58,-2034.5 785.1,-2036.49"/>
</g>
<!-- termin&#45;assets&#45;&gt;termin&#45;mcp -->
<g id="edge16" class="edge">
<title>termin&#45;assets&#45;&gt;termin&#45;mcp</title>
<path fill="none" stroke="#666666" stroke-width="1.1" d="M423.58,-520.05C433.47,-515.1 443.07,-508.55 450,-500 517.09,-417.15 423.25,-332.96 507,-267 577.63,-211.37 690.61,-232.47 753.15,-250.59"/>
<polygon fill="#666666" stroke="#666666" stroke-width="1.1" points="752.74,-253.03 760.15,-252.67 754.14,-248.33 752.74,-253.03"/>
</g>
<!-- termin&#45;assets&#45;&gt;termin&#45;prefab -->
<g id="edge17" class="edge">
<title>termin&#45;assets&#45;&gt;termin&#45;prefab</title>
<path fill="none" stroke="#666666" stroke-width="1.1" d="M423.73,-519.69C433.5,-514.76 443.01,-508.32 450,-500 509.74,-428.91 432.92,-354.99 507,-299 555.93,-262.02 588.81,-274.43 645,-299 711.63,-328.14 762.22,-402.05 785.09,-440.67"/>
<polygon fill="#666666" stroke="#666666" stroke-width="1.1" points="783.13,-442.18 788.77,-447 787.37,-439.72 783.13,-442.18"/>
</g>
<!-- termin&#45;assets&#45;&gt;termin&#45;shader&#45;runtime -->
<g id="edge18" class="edge">
<title>termin&#45;assets&#45;&gt;termin&#45;shader&#45;runtime</title>
<path fill="none" stroke="#666666" stroke-width="1.1" d="M423.6,-518.53C433.15,-513.69 442.59,-507.57 450,-500 492.71,-456.36 466.62,-420.8 507,-375 513.79,-367.3 522.32,-360.55 531.04,-354.84"/>
<polygon fill="#666666" stroke="#666666" stroke-width="1.1" points="532.45,-356.84 537.08,-351.05 529.84,-352.69 532.45,-356.84"/>
</g>
<!-- termin&#45;nanobind&#45;sdk -->
<g id="node30" class="node">
<title>termin&#45;nanobind&#45;sdk</title>
<path fill="#f7f7f7" stroke="#444444" d="M430,-484C430,-484 327,-484 327,-484 321,-484 315,-478 315,-472 315,-472 315,-460 315,-460 315,-454 321,-448 327,-448 327,-448 430,-448 430,-448 436,-448 442,-454 442,-460 442,-460 442,-472 442,-472 442,-478 436,-484 430,-484"/>
<text text-anchor="middle" x="378.5" y="-463.2" font-family="DejaVu Sans" font-size="11.00">termin&#45;nanobind&#45;sdk</text>
</g>
<!-- termin&#45;nanobind&#45;sdk&#45;&gt;termin&#45;base -->
<g id="edge79" class="edge">
<title>termin&#45;nanobind&#45;sdk&#45;&gt;termin&#45;base</title>
<path fill="none" stroke="#666666" stroke-width="1.1" d="M331.5,-484.11C322.88,-488.6 314.3,-493.91 307,-500 264.11,-535.79 229.26,-592.06 211.43,-624.23"/>
<polygon fill="#666666" stroke="#666666" stroke-width="1.1" points="209.09,-623.4 207.88,-630.72 213.39,-625.75 209.09,-623.4"/>
</g>
<!-- termin&#45;components&#45;render&#45;&gt;termin&#45;bootstrap -->
<g id="edge44" class="edge">
<title>termin&#45;components&#45;render&#45;&gt;termin&#45;bootstrap</title>
<path fill="none" stroke="#666666" stroke-width="1.1" d="M1052.21,-2456.84C1086.42,-2370.63 1232.38,-2002.8 1271.7,-1903.69"/>
<polygon fill="#666666" stroke="#666666" stroke-width="1.1" points="1274.04,-1904.43 1274.35,-1897.02 1269.49,-1902.62 1274.04,-1904.43"/>
</g>
<!-- termin&#45;components&#45;render&#45;&gt;termin&#45;render&#45;passes -->
<g id="edge45" class="edge">
<title>termin&#45;components&#45;render&#45;&gt;termin&#45;render&#45;passes</title>
<path fill="none" stroke="#666666" stroke-width="1.1" d="M1056.2,-2456.98C1080.82,-2417.66 1142.04,-2321.52 1199,-2245 1219.02,-2218.1 1243.68,-2188.64 1260.8,-2168.71"/>
<polygon fill="#666666" stroke="#666666" stroke-width="1.1" points="1262.71,-2170.25 1265.42,-2163.35 1258.99,-2167.06 1262.71,-2170.25"/>
</g>
<!-- termin&#45;runtime -->
<g id="node56" class="node">
<title>termin&#45;runtime</title>
<path fill="#f7f7f7" stroke="#444444" d="M1319,-2297C1319,-2297 1246,-2297 1246,-2297 1240,-2297 1234,-2291 1234,-2285 1234,-2285 1234,-2273 1234,-2273 1234,-2267 1240,-2261 1246,-2261 1246,-2261 1319,-2261 1319,-2261 1325,-2261 1331,-2267 1331,-2273 1331,-2273 1331,-2285 1331,-2285 1331,-2291 1325,-2297 1319,-2297"/>
<text text-anchor="middle" x="1282.5" y="-2276.2" font-family="DejaVu Sans" font-size="11.00">termin&#45;runtime</text>
</g>
<!-- termin&#45;components&#45;render&#45;&gt;termin&#45;runtime -->
<g id="edge46" class="edge">
<title>termin&#45;components&#45;render&#45;&gt;termin&#45;runtime</title>
<path fill="none" stroke="#666666" stroke-width="1.1" d="M1066.83,-2456.91C1110.12,-2421.03 1206.77,-2340.93 1254.19,-2301.63"/>
<polygon fill="#666666" stroke="#666666" stroke-width="1.1" points="1255.9,-2303.4 1259.73,-2297.04 1252.77,-2299.62 1255.9,-2303.4"/>
</g>
<!-- termin&#45;display&#45;&gt;termin&#45;components&#45;render -->
<g id="edge53" class="edge">
<title>termin&#45;display&#45;&gt;termin&#45;components&#45;render</title>
<path fill="none" stroke="#666666" stroke-width="1.1" d="M846.11,-2468.5C876.85,-2469.52 918.4,-2470.89 955.4,-2472.11"/>
<polygon fill="#666666" stroke="#666666" stroke-width="1.1" points="955.66,-2474.57 962.73,-2472.35 955.82,-2469.67 955.66,-2474.57"/>
</g>
<!-- termin&#45;display&#45;&gt;termin&#45;engine -->
<g id="edge54" class="edge">
<title>termin&#45;display&#45;&gt;termin&#45;engine</title>
<path fill="none" stroke="#666666" stroke-width="1.1" d="M828.16,-2448.83C848.29,-2434.08 874.48,-2411.44 889,-2385 969.85,-2237.82 1028.08,-1693.84 1040.52,-1569.45"/>
<polygon fill="#666666" stroke="#666666" stroke-width="1.1" points="1042.99,-1569.4 1041.24,-1562.2 1038.11,-1568.92 1042.99,-1569.4"/>
</g>
<!-- termin&#45;graphics&#45;&gt;termin&#45;voxels -->
<g id="edge66" class="edge">
<title>termin&#45;graphics&#45;&gt;termin&#45;voxels</title>
<path fill="none" stroke="#666666" stroke-width="1.1" d="M372.41,-2440.71C359.37,-2393.18 324.59,-2261.7 307,-2150 231.37,-1669.73 204.56,-1074.97 199.45,-946.29"/>
<polygon fill="#666666" stroke="#666666" stroke-width="1.1" points="201.89,-946.05 199.17,-939.16 197,-946.25 201.89,-946.05"/>
</g>
<!-- termin&#45;graphics&#45;&gt;termin&#45;render -->
<g id="edge64" class="edge">
<title>termin&#45;graphics&#45;&gt;termin&#45;render</title>
<path fill="none" stroke="#666666" stroke-width="1.1" d="M429.09,-2462.04C457.97,-2463.82 494.34,-2466.05 523.54,-2467.84"/>
<polygon fill="#666666" stroke="#666666" stroke-width="1.1" points="523.67,-2470.3 530.8,-2468.29 523.97,-2465.41 523.67,-2470.3"/>
</g>
<!-- termin&#45;gui -->
<g id="node38" class="node">
<title>termin&#45;gui</title>
<path fill="#f7f7f7" stroke="#444444" d="M599.5,-2280C599.5,-2280 552.5,-2280 552.5,-2280 546.5,-2280 540.5,-2274 540.5,-2268 540.5,-2268 540.5,-2256 540.5,-2256 540.5,-2250 546.5,-2244 552.5,-2244 552.5,-2244 599.5,-2244 599.5,-2244 605.5,-2244 611.5,-2250 611.5,-2256 611.5,-2256 611.5,-2268 611.5,-2268 611.5,-2274 605.5,-2280 599.5,-2280"/>
<text text-anchor="middle" x="576" y="-2259.2" font-family="DejaVu Sans" font-size="11.00">termin&#45;gui</text>
</g>
<!-- termin&#45;graphics&#45;&gt;termin&#45;gui -->
<g id="edge62" class="edge">
<title>termin&#45;graphics&#45;&gt;termin&#45;gui</title>
<path fill="none" stroke="#666666" stroke-width="1.1" d="M397.54,-2440.82C433.18,-2404.9 512.58,-2324.9 551.95,-2285.23"/>
<polygon fill="#666666" stroke="#666666" stroke-width="1.1" points="553.81,-2286.83 557,-2280.14 550.33,-2283.38 553.81,-2286.83"/>
</g>
<!-- termin&#45;graphics&#45;&gt;termin&#45;glb -->
<g id="edge61" class="edge">
<title>termin&#45;graphics&#45;&gt;termin&#45;glb</title>
<path fill="none" stroke="#666666" stroke-width="1.1" d="M386.18,-2440.73C402.04,-2399.2 445.31,-2296.04 507,-2228 577.64,-2150.1 608.26,-2141.66 702,-2094 719.33,-2085.19 739.49,-2077.69 756.88,-2072"/>
<polygon fill="#666666" stroke="#666666" stroke-width="1.1" points="757.73,-2074.3 763.65,-2069.83 756.24,-2069.64 757.73,-2074.3"/>
</g>
<!-- termin&#45;materials -->
<g id="node46" class="node">
<title>termin&#45;materials</title>
<path fill="#f7f7f7" stroke="#444444" d="M617,-2421C617,-2421 535,-2421 535,-2421 529,-2421 523,-2415 523,-2409 523,-2409 523,-2397 523,-2397 523,-2391 529,-2385 535,-2385 535,-2385 617,-2385 617,-2385 623,-2385 629,-2391 629,-2397 629,-2397 629,-2409 629,-2409 629,-2415 623,-2421 617,-2421"/>
<text text-anchor="middle" x="576" y="-2400.2" font-family="DejaVu Sans" font-size="11.00">termin&#45;materials</text>
</g>
<!-- termin&#45;graphics&#45;&gt;termin&#45;materials -->
<g id="edge63" class="edge">
<title>termin&#45;graphics&#45;&gt;termin&#45;materials</title>
<path fill="none" stroke="#666666" stroke-width="1.1" d="M429.09,-2444.8C455.47,-2437.24 488.1,-2427.89 515.8,-2419.96"/>
<polygon fill="#666666" stroke="#666666" stroke-width="1.1" points="516.68,-2422.25 522.73,-2417.97 515.33,-2417.54 516.68,-2422.25"/>
</g>
<!-- termin&#45;graphics&#45;&gt;termin&#45;shader&#45;runtime -->
<g id="edge65" class="edge">
<title>termin&#45;graphics&#45;&gt;termin&#45;shader&#45;runtime</title>
<path fill="none" stroke="#666666" stroke-width="1.1" d="M379.6,-2440.7C380.63,-2299.08 391.71,-1363.5 507,-615 521.83,-518.69 553.09,-406.88 567.47,-358.01"/>
<polygon fill="#666666" stroke="#666666" stroke-width="1.1" points="569.83,-358.67 569.46,-351.26 565.13,-357.28 569.83,-358.67"/>
</g>
<!-- termin&#45;lighting&#45;&gt;termin&#45;render -->
<g id="edge75" class="edge">
<title>termin&#45;lighting&#45;&gt;termin&#45;render</title>
<path fill="none" stroke="#666666" stroke-width="1.1" d="M426.33,-2513.59C455.71,-2505.17 493.62,-2494.31 523.8,-2485.67"/>
<polygon fill="#666666" stroke="#666666" stroke-width="1.1" points="524.85,-2487.91 530.9,-2483.63 523.5,-2483.2 524.85,-2487.91"/>
</g>
<!-- termin&#45;render&#45;&gt;termin&#45;navmesh -->
<g id="edge93" class="edge">
<title>termin&#45;render&#45;&gt;termin&#45;navmesh</title>
<path fill="none" stroke="#666666" stroke-width="1.1" d="M567.71,-2489.11C552.25,-2524.76 512.36,-2603.23 450,-2634 393,-2662.12 352.67,-2678.2 307,-2634 167.45,-2498.93 344.8,-1056.5 250,-887 247.73,-882.95 244.76,-879.3 241.39,-876.02"/>
<polygon fill="#666666" stroke="#666666" stroke-width="1.1" points="242.69,-873.91 235.79,-871.19 239.49,-877.62 242.69,-873.91"/>
</g>
<!-- termin&#45;render&#45;&gt;termin&#45;display -->
<g id="edge92" class="edge">
<title>termin&#45;render&#45;&gt;termin&#45;display</title>
<path fill="none" stroke="#666666" stroke-width="1.1" d="M621.03,-2470.2C656.75,-2469.56 707.23,-2468.65 745.23,-2467.96"/>
<polygon fill="#666666" stroke="#666666" stroke-width="1.1" points="745.7,-2470.4 752.65,-2467.83 745.61,-2465.5 745.7,-2470.4"/>
</g>
<!-- termin&#45;render&#45;&gt;termin&#45;components&#45;foliage -->
<g id="edge91" class="edge">
<title>termin&#45;render&#45;&gt;termin&#45;components&#45;foliage</title>
<path fill="none" stroke="#666666" stroke-width="1.1" d="M621.15,-2455.72C630.06,-2450.91 638.64,-2444.76 645,-2437 706.04,-2362.54 654.42,-2311.7 702,-2228 719.29,-2197.58 747.97,-2169.53 769.57,-2150.93"/>
<polygon fill="#666666" stroke="#666666" stroke-width="1.1" points="771.43,-2152.57 775.18,-2146.17 768.26,-2148.83 771.43,-2152.57"/>
</g>
<!-- termin&#45;engine&#45;&gt;termin&#45;csharp -->
<g id="edge56" class="edge">
<title>termin&#45;engine&#45;&gt;termin&#45;csharp</title>
<path fill="none" stroke="#666666" stroke-width="1.1" d="M1061.86,-1562.14C1089.01,-1590.76 1144.9,-1647.25 1199,-1687 1271.18,-1740.05 1319.15,-1716.17 1374,-1787 1432.95,-1863.12 1399,-1905.19 1431,-1996 1446.8,-2040.85 1469.96,-2091.21 1483.95,-2120.39"/>
<polygon fill="#666666" stroke="#666666" stroke-width="1.1" points="1481.88,-2121.75 1487.13,-2126.99 1486.29,-2119.62 1481.88,-2121.75"/>
</g>
<!-- termin&#45;android -->
<g id="node40" class="node">
<title>termin&#45;android</title>
<path fill="#f7f7f7" stroke="#444444" d="M1533,-1980C1533,-1980 1461,-1980 1461,-1980 1455,-1980 1449,-1974 1449,-1968 1449,-1968 1449,-1956 1449,-1956 1449,-1950 1455,-1944 1461,-1944 1461,-1944 1533,-1944 1533,-1944 1539,-1944 1545,-1950 1545,-1956 1545,-1956 1545,-1968 1545,-1968 1545,-1974 1539,-1980 1533,-1980"/>
<text text-anchor="middle" x="1497" y="-1959.2" font-family="DejaVu Sans" font-size="11.00">termin&#45;android</text>
</g>
<!-- termin&#45;engine&#45;&gt;termin&#45;android -->
<g id="edge55" class="edge">
<title>termin&#45;engine&#45;&gt;termin&#45;android</title>
<path fill="none" stroke="#666666" stroke-width="1.1" d="M1089.5,-1558.14C1158.25,-1581.95 1291.01,-1635.91 1374,-1721 1378.19,-1725.29 1453.62,-1876.68 1483.73,-1937.29"/>
<polygon fill="#666666" stroke="#666666" stroke-width="1.1" points="1481.7,-1938.7 1487.01,-1943.88 1486.09,-1936.52 1481.7,-1938.7"/>
</g>
<!-- termin&#45;openxr -->
<g id="node48" class="node">
<title>termin&#45;openxr</title>
<path fill="#f7f7f7" stroke="#444444" d="M1531.5,-1815C1531.5,-1815 1462.5,-1815 1462.5,-1815 1456.5,-1815 1450.5,-1809 1450.5,-1803 1450.5,-1803 1450.5,-1791 1450.5,-1791 1450.5,-1785 1456.5,-1779 1462.5,-1779 1462.5,-1779 1531.5,-1779 1531.5,-1779 1537.5,-1779 1543.5,-1785 1543.5,-1791 1543.5,-1791 1543.5,-1803 1543.5,-1803 1543.5,-1809 1537.5,-1815 1531.5,-1815"/>
<text text-anchor="middle" x="1497" y="-1794.2" font-family="DejaVu Sans" font-size="11.00">termin&#45;openxr</text>
</g>
<!-- termin&#45;engine&#45;&gt;termin&#45;openxr -->
<g id="edge57" class="edge">
<title>termin&#45;engine&#45;&gt;termin&#45;openxr</title>
<path fill="none" stroke="#666666" stroke-width="1.1" d="M1089.56,-1536.93C1158.38,-1528.62 1291.24,-1523.34 1374,-1589 1429.55,-1633.07 1390.99,-1679.46 1431,-1738 1440.32,-1751.64 1453.4,-1764.31 1465.39,-1774.38"/>
<polygon fill="#666666" stroke="#666666" stroke-width="1.1" points="1463.84,-1776.27 1470.8,-1778.82 1466.94,-1772.48 1463.84,-1776.27"/>
</g>
<!-- termin&#45;engine&#45;&gt;termin&#45;player -->
<g id="edge58" class="edge">
<title>termin&#45;engine&#45;&gt;termin&#45;player</title>
<path fill="none" stroke="#666666" stroke-width="1.1" d="M1089.62,-1527.12C1155.95,-1504.99 1282.54,-1474.35 1374,-1523 1436.62,-1556.31 1472.89,-1637.67 1487.87,-1679.01"/>
<polygon fill="#666666" stroke="#666666" stroke-width="1.1" points="1485.61,-1679.98 1490.25,-1685.76 1490.23,-1678.35 1485.61,-1679.98"/>
</g>
<!-- termin&#45;engine&#45;&gt;termin&#45;runtime -->
<g id="edge59" class="edge">
<title>termin&#45;engine&#45;&gt;termin&#45;runtime</title>
<path fill="none" stroke="#666666" stroke-width="1.1" d="M1046.42,-1562.18C1053.11,-1640.24 1086.07,-1953.27 1199,-2179 1213.73,-2208.44 1238.55,-2236.88 1257.13,-2255.85"/>
<polygon fill="#666666" stroke="#666666" stroke-width="1.1" points="1255.52,-2257.71 1262.19,-2260.95 1259,-2254.25 1255.52,-2257.71"/>
</g>
<!-- tcplot -->
<g id="node37" class="node">
<title>tcplot</title>
<path fill="#f7f7f7" stroke="#444444" d="M814.5,-2280C814.5,-2280 784.5,-2280 784.5,-2280 778.5,-2280 772.5,-2274 772.5,-2268 772.5,-2268 772.5,-2256 772.5,-2256 772.5,-2250 778.5,-2244 784.5,-2244 784.5,-2244 814.5,-2244 814.5,-2244 820.5,-2244 826.5,-2250 826.5,-2256 826.5,-2256 826.5,-2268 826.5,-2268 826.5,-2274 820.5,-2280 814.5,-2280"/>
<text text-anchor="middle" x="799.5" y="-2259.2" font-family="DejaVu Sans" font-size="11.00">tcplot</text>
</g>
<!-- tcplot&#45;&gt;termin&#45;csharp -->
<g id="edge1" class="edge">
<title>tcplot&#45;&gt;termin&#45;csharp</title>
<path fill="none" stroke="#666666" stroke-width="1.1" d="M826.54,-2268.47C926.17,-2292.58 1282.08,-2372.88 1374,-2313 1426.52,-2278.79 1389.52,-2230.99 1431,-2184 1436.65,-2177.6 1443.6,-2171.94 1450.84,-2167.06"/>
<polygon fill="#666666" stroke="#666666" stroke-width="1.1" points="1452.39,-2168.98 1456.97,-2163.14 1449.75,-2164.85 1452.39,-2168.98"/>
</g>
<!-- termin&#45;gui&#45;&gt;termin&#45;csg -->
<g id="edge69" class="edge">
<title>termin&#45;gui&#45;&gt;termin&#45;csg</title>
<path fill="none" stroke="#666666" stroke-width="1.1" d="M569.6,-2243.84C539.58,-2142.3 391.51,-1634.33 307,-1211 272.54,-1038.35 344.39,-967.61 250,-819 247.24,-814.65 243.69,-810.73 239.76,-807.24"/>
<polygon fill="#666666" stroke="#666666" stroke-width="1.1" points="241.17,-805.23 234.19,-802.74 238.09,-809.04 241.17,-805.23"/>
</g>
<!-- termin&#45;gui&#45;&gt;termin&#45;components&#45;ui -->
<g id="edge68" class="edge">
<title>termin&#45;gui&#45;&gt;termin&#45;components&#45;ui</title>
<path fill="none" stroke="#666666" stroke-width="1.1" d="M579.6,-2243.65C588.64,-2179.8 619.56,-1961.38 645,-1781 657.69,-1691 644.43,-1446.33 702,-1376 708.25,-1368.37 716.32,-1362.45 725.14,-1357.85"/>
<polygon fill="#666666" stroke="#666666" stroke-width="1.1" points="726.41,-1359.96 731.68,-1354.74 724.31,-1355.54 726.41,-1359.96"/>
</g>
<!-- termin&#45;gui&#45;&gt;tcplot -->
<g id="edge67" class="edge">
<title>termin&#45;gui&#45;&gt;tcplot</title>
<path fill="none" stroke="#666666" stroke-width="1.1" d="M611.61,-2262C653.62,-2262 723.96,-2262 765.32,-2262"/>
<polygon fill="#666666" stroke="#666666" stroke-width="1.1" points="765.44,-2264.45 772.44,-2262 765.44,-2259.55 765.44,-2264.45"/>
</g>
<!-- termin&#45;nodegraph -->
<g id="node39" class="node">
<title>termin&#45;nodegraph</title>
<path fill="#f7f7f7" stroke="#444444" d="M844,-2348C844,-2348 755,-2348 755,-2348 749,-2348 743,-2342 743,-2336 743,-2336 743,-2324 743,-2324 743,-2318 749,-2312 755,-2312 755,-2312 844,-2312 844,-2312 850,-2312 856,-2318 856,-2324 856,-2324 856,-2336 856,-2336 856,-2342 850,-2348 844,-2348"/>
<text text-anchor="middle" x="799.5" y="-2327.2" font-family="DejaVu Sans" font-size="11.00">termin&#45;nodegraph</text>
</g>
<!-- termin&#45;gui&#45;&gt;termin&#45;nodegraph -->
<g id="edge70" class="edge">
<title>termin&#45;gui&#45;&gt;termin&#45;nodegraph</title>
<path fill="none" stroke="#666666" stroke-width="1.1" d="M611.61,-2272.62C644.74,-2282.79 695.47,-2298.37 735.73,-2310.73"/>
<polygon fill="#666666" stroke="#666666" stroke-width="1.1" points="735.2,-2313.13 742.61,-2312.84 736.63,-2308.44 735.2,-2313.13"/>
</g>
<!-- termin&#45;project&#45;build -->
<g id="node53" class="node">
<title>termin&#45;project&#45;build</title>
<path fill="#f7f7f7" stroke="#444444" d="M849,-1697C849,-1697 750,-1697 750,-1697 744,-1697 738,-1691 738,-1685 738,-1685 738,-1673 738,-1673 738,-1667 744,-1661 750,-1661 750,-1661 849,-1661 849,-1661 855,-1661 861,-1667 861,-1673 861,-1673 861,-1685 861,-1685 861,-1691 855,-1697 849,-1697"/>
<text text-anchor="middle" x="799.5" y="-1676.2" font-family="DejaVu Sans" font-size="11.00">termin&#45;project&#45;build</text>
</g>
<!-- termin&#45;gui&#45;&gt;termin&#45;project&#45;build -->
<g id="edge71" class="edge">
<title>termin&#45;gui&#45;&gt;termin&#45;project&#45;build</title>
<path fill="none" stroke="#666666" stroke-width="1.1" d="M578.78,-2243.98C587.54,-2158.58 628.67,-1795.28 702,-1713 709.9,-1704.13 720.26,-1697.58 731.26,-1692.73"/>
<polygon fill="#666666" stroke="#666666" stroke-width="1.1" points="732.23,-1694.98 737.79,-1690.07 730.38,-1690.44 732.23,-1694.98"/>
</g>
<!-- termin&#45;nodegraph&#45;&gt;termin&#45;app -->
<g id="edge83" class="edge">
<title>termin&#45;nodegraph&#45;&gt;termin&#45;app</title>
<path fill="none" stroke="#666666" stroke-width="1.1" d="M847.41,-2348.05C979.41,-2395.45 1357.73,-2507.53 1563,-2322 1622.44,-2268.28 1653.45,-2011.36 1662.01,-1928.69"/>
<polygon fill="#666666" stroke="#666666" stroke-width="1.1" points="1664.5,-1928.46 1662.77,-1921.24 1659.62,-1927.96 1664.5,-1928.46"/>
</g>
<!-- termin&#45;glb&#45;&gt;termin&#45;app -->
<g id="edge60" class="edge">
<title>termin&#45;glb&#45;&gt;termin&#45;app</title>
<path fill="none" stroke="#666666" stroke-width="1.1" d="M835.04,-2071.72C917.88,-2099.62 1126.39,-2168.39 1199,-2179 1275.96,-2190.25 1303.52,-2211.89 1374,-2179 1409.74,-2162.32 1403.38,-2139.15 1431,-2111 1485.49,-2055.46 1504.98,-2047.84 1563,-1996 1589.34,-1972.47 1619.1,-1945.11 1639.55,-1926.19"/>
<polygon fill="#666666" stroke="#666666" stroke-width="1.1" points="1641.32,-1927.88 1644.8,-1921.32 1637.99,-1924.28 1641.32,-1927.88"/>
</g>
<!-- termin&#45;mcp&#45;&gt;termin&#45;player -->
<g id="edge76" class="edge">
<title>termin&#45;mcp&#45;&gt;termin&#45;player</title>
<path fill="none" stroke="#666666" stroke-width="1.1" d="M838.81,-273.62C944.72,-296.91 1242.33,-377.78 1374,-573 1501.47,-761.99 1498.25,-1529.84 1496.39,-1678.87"/>
<polygon fill="#666666" stroke="#666666" stroke-width="1.1" points="1493.94,-1678.86 1496.3,-1685.89 1498.84,-1678.92 1493.94,-1678.86"/>
</g>
<!-- termin&#45;player&#45;&gt;termin&#45;app -->
<g id="edge85" class="edge">
<title>termin&#45;player&#45;&gt;termin&#45;app</title>
<path fill="none" stroke="#666666" stroke-width="1.1" d="M1520.13,-1722.08C1533.22,-1733.26 1549.78,-1748.24 1563,-1763 1596.89,-1800.83 1630.32,-1849.82 1649.1,-1878.68"/>
<polygon fill="#666666" stroke="#666666" stroke-width="1.1" points="1647.24,-1880.32 1653.1,-1884.87 1651.36,-1877.66 1647.24,-1880.32"/>
</g>
<!-- termin&#45;project&#45;&gt;termin&#45;project&#45;build -->
<g id="edge86" class="edge">
<title>termin&#45;project&#45;&gt;termin&#45;project&#45;build</title>
<path fill="none" stroke="#666666" stroke-width="1.1" d="M622.63,-1732.99C654.45,-1723.22 697.39,-1710.04 732.87,-1699.15"/>
<polygon fill="#666666" stroke="#666666" stroke-width="1.1" points="733.89,-1701.4 739.87,-1697 732.46,-1696.71 733.89,-1701.4"/>
</g>
<!-- termin&#45;project&#45;&gt;termin&#45;project&#45;modules -->
<g id="edge87" class="edge">
<title>termin&#45;project&#45;&gt;termin&#45;project&#45;modules</title>
<path fill="none" stroke="#666666" stroke-width="1.1" d="M622.63,-1747C650.77,-1747 687.6,-1747 720.29,-1747"/>
<polygon fill="#666666" stroke="#666666" stroke-width="1.1" points="720.63,-1749.45 727.63,-1747 720.63,-1744.55 720.63,-1749.45"/>
</g>
<!-- termin&#45;project&#45;build&#45;&gt;termin&#45;app -->
<g id="edge88" class="edge">
<title>termin&#45;project&#45;build&#45;&gt;termin&#45;app</title>
<path fill="none" stroke="#666666" stroke-width="1.1" d="M861.34,-1693.13C871.76,-1697.94 881.6,-1704.38 889,-1713 977.3,-1815.86 895.26,-1888.83 954,-2011 1028.89,-2166.77 1042.97,-2238.66 1199,-2313 1347.09,-2383.55 1448.71,-2369.67 1563,-2252 1652.98,-2159.35 1663.96,-1991.76 1664.75,-1928.28"/>
<polygon fill="#666666" stroke="#666666" stroke-width="1.1" points="1667.2,-1928.09 1664.8,-1921.07 1662.3,-1928.05 1667.2,-1928.09"/>
</g>
<!-- termin&#45;project&#45;modules&#45;&gt;termin&#45;player -->
<g id="edge89" class="edge">
<title>termin&#45;project&#45;modules&#45;&gt;termin&#45;player</title>
<path fill="none" stroke="#666666" stroke-width="1.1" d="M812.98,-1765.23C836.58,-1798.25 891.03,-1867.98 954,-1905 1116.89,-2000.77 1223.76,-2085.6 1374,-1971 1450.21,-1912.86 1380.85,-1844.69 1431,-1763 1439.5,-1749.16 1452.18,-1736.62 1464.1,-1726.69"/>
<polygon fill="#666666" stroke="#666666" stroke-width="1.1" points="1465.96,-1728.34 1469.86,-1722.04 1462.88,-1724.53 1465.96,-1728.34"/>
</g>
<!-- termin&#45;render&#45;passes&#45;&gt;termin&#45;csharp -->
<g id="edge95" class="edge">
<title>termin&#45;render&#45;passes&#45;&gt;termin&#45;csharp</title>
<path fill="none" stroke="#666666" stroke-width="1.1" d="M1348.7,-2145C1379.41,-2145 1415.51,-2145 1444.3,-2145"/>
<polygon fill="#666666" stroke="#666666" stroke-width="1.1" points="1444.45,-2147.45 1451.45,-2145 1444.45,-2142.55 1444.45,-2147.45"/>
</g>
<!-- termin&#45;render&#45;passes&#45;&gt;termin&#45;android -->
<g id="edge94" class="edge">
<title>termin&#45;render&#45;passes&#45;&gt;termin&#45;android</title>
<path fill="none" stroke="#666666" stroke-width="1.1" d="M1332.14,-2126.97C1346.34,-2120.54 1361.41,-2112.49 1374,-2103 1418.83,-2069.2 1458.91,-2016.48 1480.1,-1985.99"/>
<polygon fill="#666666" stroke="#666666" stroke-width="1.1" points="1482.14,-1987.36 1484.09,-1980.2 1478.1,-1984.58 1482.14,-1987.36"/>
</g>
<!-- termin&#45;render&#45;passes&#45;&gt;termin&#45;default&#45;assets -->
<g id="edge96" class="edge">
<title>termin&#45;render&#45;passes&#45;&gt;termin&#45;default&#45;assets</title>
<path fill="none" stroke="#666666" stroke-width="1.1" d="M1335.35,-2163.02C1363.61,-2172.82 1399.21,-2185.12 1431,-2196 1432.51,-2196.52 1434.04,-2197.04 1435.59,-2197.57"/>
<polygon fill="#666666" stroke="#666666" stroke-width="1.1" points="1435.01,-2199.96 1442.43,-2199.9 1436.59,-2195.32 1435.01,-2199.96"/>
</g>
<!-- termin&#45;render&#45;passes&#45;&gt;termin&#45;openxr -->
<g id="edge97" class="edge">
<title>termin&#45;render&#45;passes&#45;&gt;termin&#45;openxr</title>
<path fill="none" stroke="#666666" stroke-width="1.1" d="M1340.91,-2126.98C1353.13,-2120.95 1365.03,-2113.11 1374,-2103 1428.28,-2041.8 1400.07,-2003.73 1431,-1928 1446.57,-1889.86 1468.52,-1847.45 1482.5,-1821.49"/>
<polygon fill="#666666" stroke="#666666" stroke-width="1.1" points="1484.69,-1822.59 1485.87,-1815.26 1480.39,-1820.25 1484.69,-1822.59"/>
</g>
<!-- termin&#45;render&#45;passes&#45;&gt;termin&#45;player -->
<g id="edge98" class="edge">
<title>termin&#45;render&#45;passes&#45;&gt;termin&#45;player</title>
<path fill="none" stroke="#666666" stroke-width="1.1" d="M1343.91,-2126.96C1355.39,-2121.01 1366.23,-2113.19 1374,-2103 1466.87,-1981.14 1357.55,-1897.47 1431,-1763 1438.66,-1748.98 1450.95,-1736.54 1462.79,-1726.75"/>
<polygon fill="#666666" stroke="#666666" stroke-width="1.1" points="1464.6,-1728.44 1468.54,-1722.16 1461.54,-1724.61 1464.6,-1728.44"/>
</g>
<!-- termin&#45;shader&#45;runtime&#45;&gt;termin&#45;player -->
<g id="edge112" class="edge">
<title>termin&#45;shader&#45;runtime&#45;&gt;termin&#45;player</title>
<path fill="none" stroke="#666666" stroke-width="1.1" d="M594.61,-351.3C608.86,-366.49 629.1,-388.93 645,-410 673.3,-447.49 664.21,-471.1 702,-499 862.3,-617.37 959.3,-523.14 1134,-619 1259.81,-688.04 1306.62,-708.29 1374,-835 1455.18,-987.66 1488.31,-1552.75 1494.78,-1678.91"/>
<polygon fill="#666666" stroke="#666666" stroke-width="1.1" points="1492.34,-1679.06 1495.14,-1685.92 1497.23,-1678.81 1492.34,-1679.06"/>
</g>
<!-- termin&#45;shader&#45;runtime&#45;&gt;termin&#45;project&#45;build -->
<g id="edge113" class="edge">
<title>termin&#45;shader&#45;runtime&#45;&gt;termin&#45;project&#45;build</title>
<path fill="none" stroke="#666666" stroke-width="1.1" d="M586.32,-351.2C601.71,-382.22 632,-447.76 645,-507 736.41,-923.62 599.98,-1050.85 702,-1465 719.88,-1537.57 761.66,-1615.99 783.93,-1654.63"/>
<polygon fill="#666666" stroke="#666666" stroke-width="1.1" points="781.95,-1656.11 787.59,-1660.93 786.19,-1653.65 781.95,-1656.11"/>
</g>
<!-- termin&#45;stdlib&#45;&gt;termin&#45;player -->
<g id="edge116" class="edge">
<title>termin&#45;stdlib&#45;&gt;termin&#45;player</title>
<path fill="none" stroke="#666666" stroke-width="1.1" d="M618.19,-132.02C754.3,-131.29 1191.37,-149.61 1374,-405 1451,-512.68 1489.11,-1506.94 1495.14,-1678.76"/>
<polygon fill="#666666" stroke="#666666" stroke-width="1.1" points="1492.7,-1678.96 1495.39,-1685.87 1497.59,-1678.79 1492.7,-1678.96"/>
</g>
<!-- termin&#45;stdlib&#45;&gt;termin&#45;project&#45;build -->
<g id="edge117" class="edge">
<title>termin&#45;stdlib&#45;&gt;termin&#45;project&#45;build</title>
<path fill="none" stroke="#666666" stroke-width="1.1" d="M586.9,-151.24C602.55,-181.11 632.49,-242.76 645,-299 757.63,-805.47 580.57,-960.57 702,-1465 719.49,-1537.67 761.45,-1616.04 783.84,-1654.66"/>
<polygon fill="#666666" stroke="#666666" stroke-width="1.1" points="781.87,-1656.14 787.52,-1660.95 786.1,-1653.67 781.87,-1656.14"/>
</g>
</g>
</svg>
