<?xml version="1.0" encoding="UTF-8" standalone="no"?>
<!DOCTYPE svg PUBLIC "-//W3C//DTD SVG 1.1//EN"
 "http://www.w3.org/Graphics/SVG/1.1/DTD/svg11.dtd">
<!-- Generated by graphviz version 2.42.4 (0)
 -->
<!-- Title: termin_dependencies Pages: 1 -->
<svg width="1894pt" height="1413pt"
 viewBox="0.00 0.00 1893.80 1412.73" xmlns="http://www.w3.org/2000/svg" xmlns:xlink="http://www.w3.org/1999/xlink">
<g id="graph0" class="graph" transform="scale(1 1) rotate(0) translate(14.4 1398.33)">
<title>termin_dependencies</title>
<polygon fill="white" stroke="transparent" points="-14.4,14.4 -14.4,-1398.33 1879.4,-1398.33 1879.4,14.4 -14.4,14.4"/>
<g id="clust1" class="cluster">
<title>cluster_application</title>
<polygon fill="white" stroke="#999999" stroke-dasharray="5,2" points="1599,-586.2 1599,-659.2 1690,-659.2 1690,-586.2 1599,-586.2"/>
<text text-anchor="middle" x="1644.5" y="-645.6" font-family="DejaVu Sans" font-size="12.00">Application</text>
</g>
<g id="clust2" class="cluster">
<title>cluster_foundation</title>
<polygon fill="white" stroke="#999999" stroke-dasharray="5,2" points="137,-636.2 137,-913.2 1027,-913.2 1027,-636.2 137,-636.2"/>
<text text-anchor="middle" x="582" y="-899.6" font-family="DejaVu Sans" font-size="12.00">Foundation</text>
</g>
<g id="clust3" class="cluster">
<title>cluster_namespace</title>
<polygon fill="white" stroke="#999999" stroke-dasharray="5,2" points="0,-135.2 0,-208.2 88,-208.2 88,-135.2 0,-135.2"/>
<text text-anchor="middle" x="44" y="-194.6" font-family="DejaVu Sans" font-size="12.00">Namespace</text>
</g>
<g id="clust4" class="cluster">
<title>cluster_native_interop</title>
<polygon fill="white" stroke="#999999" stroke-dasharray="5,2" points="1750,-350.2 1750,-423.2 1857,-423.2 1857,-350.2 1750,-350.2"/>
<text text-anchor="middle" x="1803.5" y="-409.6" font-family="DejaVu Sans" font-size="12.00">Native Interop</text>
</g>
<g id="clust5" class="cluster">
<title>cluster_other_components</title>
<polygon fill="white" stroke="#999999" stroke-dasharray="5,2" points="867,-921.2 867,-1266.2 1539,-1266.2 1539,-921.2 867,-921.2"/>
<text text-anchor="middle" x="1203" y="-1252.6" font-family="DejaVu Sans" font-size="12.00">Other Components</text>
</g>
<g id="clust6" class="cluster">
<title>cluster_python_support</title>
<polygon fill="white" stroke="#999999" stroke-dasharray="5,2" points="307,-487.2 307,-628.2 450,-628.2 450,-487.2 307,-487.2"/>
<text text-anchor="middle" x="378.5" y="-614.6" font-family="DejaVu Sans" font-size="12.00">Python Support</text>
</g>
<g id="clust7" class="cluster">
<title>cluster_render_stack</title>
<polygon fill="white" stroke="#999999" stroke-dasharray="5,2" points="514.5,-446.2 514.5,-587.2 1298,-587.2 1298,-446.2 514.5,-446.2"/>
<text text-anchor="middle" x="906.25" y="-573.6" font-family="DejaVu Sans" font-size="12.00">Render Stack</text>
</g>
<g id="clust8" class="cluster">
<title>cluster_runtime</title>
<polygon fill="white" stroke="#999999" stroke-dasharray="5,2" points="1394,-248.2 1394,-321.2 1501,-321.2 1501,-248.2 1394,-248.2"/>
<text text-anchor="middle" x="1447.5" y="-307.6" font-family="DejaVu Sans" font-size="12.00">Runtime</text>
</g>
<g id="clust10" class="cluster">
<title>cluster_ui</title>
<polygon fill="white" stroke="#999999" stroke-dasharray="5,2" points="713.5,-187.2 713.5,-328.2 1029,-328.2 1029,-187.2 713.5,-187.2"/>
<text text-anchor="middle" x="871.25" y="-314.6" font-family="DejaVu Sans" font-size="12.00">UI</text>
</g>
<!-- termin&#45;app -->
<g id="node1" class="node">
<title>termin&#45;app</title>
<path fill="#f7f7f7" stroke="#444444" d="M1670,-630.2C1670,-630.2 1619,-630.2 1619,-630.2 1613,-630.2 1607,-624.2 1607,-618.2 1607,-618.2 1607,-606.2 1607,-606.2 1607,-600.2 1613,-594.2 1619,-594.2 1619,-594.2 1670,-594.2 1670,-594.2 1676,-594.2 1682,-600.2 1682,-606.2 1682,-606.2 1682,-618.2 1682,-618.2 1682,-624.2 1676,-630.2 1670,-630.2"/>
<text text-anchor="middle" x="1644.5" y="-609.4" font-family="DejaVu Sans" font-size="11.00">termin&#45;app</text>
</g>
<!-- termin&#45;csharp -->
<g id="node17" class="node">
<title>termin&#45;csharp</title>
<path fill="#f7f7f7" stroke="#444444" d="M1837,-394.2C1837,-394.2 1770,-394.2 1770,-394.2 1764,-394.2 1758,-388.2 1758,-382.2 1758,-382.2 1758,-370.2 1758,-370.2 1758,-364.2 1764,-358.2 1770,-358.2 1770,-358.2 1837,-358.2 1837,-358.2 1843,-358.2 1849,-364.2 1849,-370.2 1849,-370.2 1849,-382.2 1849,-382.2 1849,-388.2 1843,-394.2 1837,-394.2"/>
<text text-anchor="middle" x="1803.5" y="-373.4" font-family="DejaVu Sans" font-size="11.00">termin&#45;csharp</text>
</g>
<!-- termin&#45;app&#45;&gt;termin&#45;csharp -->
<g id="edge7" class="edge">
<title>termin&#45;app&#45;&gt;termin&#45;csharp</title>
<path fill="none" stroke="#666666" stroke-width="1.1" d="M1657.56,-594.07C1685.53,-552.03 1754.83,-447.86 1786.38,-400.42"/>
<polygon fill="#666666" stroke="#666666" stroke-width="1.1" points="1788.56,-401.57 1790.4,-394.39 1784.48,-398.86 1788.56,-401.57"/>
</g>
<!-- termin&#45;animation -->
<g id="node2" class="node">
<title>termin&#45;animation</title>
<path fill="#f7f7f7" stroke="#444444" d="M1007,-831.2C1007,-831.2 922,-831.2 922,-831.2 916,-831.2 910,-825.2 910,-819.2 910,-819.2 910,-807.2 910,-807.2 910,-801.2 916,-795.2 922,-795.2 922,-795.2 1007,-795.2 1007,-795.2 1013,-795.2 1019,-801.2 1019,-807.2 1019,-807.2 1019,-819.2 1019,-819.2 1019,-825.2 1013,-831.2 1007,-831.2"/>
<text text-anchor="middle" x="964.5" y="-810.4" font-family="DejaVu Sans" font-size="11.00">termin&#45;animation</text>
</g>
<!-- termin&#45;components&#45;animation -->
<g id="node18" class="node">
<title>termin&#45;components&#45;animation</title>
<path fill="#f7f7f7" stroke="#444444" d="M1287,-965.2C1287,-965.2 1131,-965.2 1131,-965.2 1125,-965.2 1119,-959.2 1119,-953.2 1119,-953.2 1119,-941.2 1119,-941.2 1119,-935.2 1125,-929.2 1131,-929.2 1131,-929.2 1287,-929.2 1287,-929.2 1293,-929.2 1299,-935.2 1299,-941.2 1299,-941.2 1299,-953.2 1299,-953.2 1299,-959.2 1293,-965.2 1287,-965.2"/>
<text text-anchor="middle" x="1209" y="-944.4" font-family="DejaVu Sans" font-size="11.00">termin&#45;components&#45;animation</text>
</g>
<!-- termin&#45;animation&#45;&gt;termin&#45;components&#45;animation -->
<g id="edge6" class="edge">
<title>termin&#45;animation&#45;&gt;termin&#45;components&#45;animation</title>
<path fill="none" stroke="#666666" stroke-width="1.1" d="M1005.55,-831.22C1020.87,-838.37 1038.4,-846.86 1054,-855.2 1095.97,-877.63 1142.71,-906.06 1173.57,-925.34"/>
<polygon fill="#666666" stroke="#666666" stroke-width="1.1" points="1172.29,-927.43 1179.52,-929.07 1174.89,-923.28 1172.29,-927.43"/>
</g>
<!-- termin&#45;base -->
<g id="node3" class="node">
<title>termin&#45;base</title>
<path fill="#f7f7f7" stroke="#444444" d="M226,-748.2C226,-748.2 169,-748.2 169,-748.2 163,-748.2 157,-742.2 157,-736.2 157,-736.2 157,-724.2 157,-724.2 157,-718.2 163,-712.2 169,-712.2 169,-712.2 226,-712.2 226,-712.2 232,-712.2 238,-718.2 238,-724.2 238,-724.2 238,-736.2 238,-736.2 238,-742.2 232,-748.2 226,-748.2"/>
<text text-anchor="middle" x="197.5" y="-727.4" font-family="DejaVu Sans" font-size="11.00">termin&#45;base</text>
</g>
<!-- termin&#45;inspect -->
<g id="node7" class="node">
<title>termin&#45;inspect</title>
<path fill="#f7f7f7" stroke="#444444" d="M413.5,-806.2C413.5,-806.2 343.5,-806.2 343.5,-806.2 337.5,-806.2 331.5,-800.2 331.5,-794.2 331.5,-794.2 331.5,-782.2 331.5,-782.2 331.5,-776.2 337.5,-770.2 343.5,-770.2 343.5,-770.2 413.5,-770.2 413.5,-770.2 419.5,-770.2 425.5,-776.2 425.5,-782.2 425.5,-782.2 425.5,-794.2 425.5,-794.2 425.5,-800.2 419.5,-806.2 413.5,-806.2"/>
<text text-anchor="middle" x="378.5" y="-785.4" font-family="DejaVu Sans" font-size="11.00">termin&#45;inspect</text>
</g>
<!-- termin&#45;base&#45;&gt;termin&#45;inspect -->
<g id="edge13" class="edge">
<title>termin&#45;base&#45;&gt;termin&#45;inspect</title>
<path fill="none" stroke="#666666" stroke-width="1.1" d="M238.23,-743.07C263.58,-751.28 296.74,-762.03 324.35,-770.97"/>
<polygon fill="#666666" stroke="#666666" stroke-width="1.1" points="323.83,-773.38 331.24,-773.21 325.34,-768.72 323.83,-773.38"/>
</g>
<!-- termin&#45;mesh -->
<g id="node8" class="node">
<title>termin&#45;mesh</title>
<path fill="#f7f7f7" stroke="#444444" d="M408.5,-738.2C408.5,-738.2 348.5,-738.2 348.5,-738.2 342.5,-738.2 336.5,-732.2 336.5,-726.2 336.5,-726.2 336.5,-714.2 336.5,-714.2 336.5,-708.2 342.5,-702.2 348.5,-702.2 348.5,-702.2 408.5,-702.2 408.5,-702.2 414.5,-702.2 420.5,-708.2 420.5,-714.2 420.5,-714.2 420.5,-726.2 420.5,-726.2 420.5,-732.2 414.5,-738.2 408.5,-738.2"/>
<text text-anchor="middle" x="378.5" y="-717.4" font-family="DejaVu Sans" font-size="11.00">termin&#45;mesh</text>
</g>
<!-- termin&#45;base&#45;&gt;termin&#45;mesh -->
<g id="edge15" class="edge">
<title>termin&#45;base&#45;&gt;termin&#45;mesh</title>
<path fill="none" stroke="#666666" stroke-width="1.1" d="M238.23,-727.98C265.1,-726.48 300.75,-724.49 329.25,-722.89"/>
<polygon fill="#666666" stroke="#666666" stroke-width="1.1" points="329.48,-725.33 336.33,-722.5 329.21,-720.44 329.48,-725.33"/>
</g>
<!-- termin&#45;modules -->
<g id="node9" class="node">
<title>termin&#45;modules</title>
<path fill="#f7f7f7" stroke="#444444" d="M417,-879.2C417,-879.2 340,-879.2 340,-879.2 334,-879.2 328,-873.2 328,-867.2 328,-867.2 328,-855.2 328,-855.2 328,-849.2 334,-843.2 340,-843.2 340,-843.2 417,-843.2 417,-843.2 423,-843.2 429,-849.2 429,-855.2 429,-855.2 429,-867.2 429,-867.2 429,-873.2 423,-879.2 417,-879.2"/>
<text text-anchor="middle" x="378.5" y="-858.4" font-family="DejaVu Sans" font-size="11.00">termin&#45;modules</text>
</g>
<!-- termin&#45;base&#45;&gt;termin&#45;modules -->
<g id="edge16" class="edge">
<title>termin&#45;base&#45;&gt;termin&#45;modules</title>
<path fill="none" stroke="#666666" stroke-width="1.1" d="M228.13,-748.23C235.5,-753.12 243.22,-758.61 250,-764.2 277.9,-787.17 278.22,-800.33 307,-822.2 315.24,-828.45 324.59,-834.35 333.74,-839.57"/>
<polygon fill="#666666" stroke="#666666" stroke-width="1.1" points="332.72,-841.8 340.02,-843.07 335.1,-837.52 332.72,-841.8"/>
</g>
<!-- termin&#45;assets -->
<g id="node26" class="node">
<title>termin&#45;assets</title>
<path fill="#f7f7f7" stroke="#444444" d="M411.5,-531.2C411.5,-531.2 345.5,-531.2 345.5,-531.2 339.5,-531.2 333.5,-525.2 333.5,-519.2 333.5,-519.2 333.5,-507.2 333.5,-507.2 333.5,-501.2 339.5,-495.2 345.5,-495.2 345.5,-495.2 411.5,-495.2 411.5,-495.2 417.5,-495.2 423.5,-501.2 423.5,-507.2 423.5,-507.2 423.5,-519.2 423.5,-519.2 423.5,-525.2 417.5,-531.2 411.5,-531.2"/>
<text text-anchor="middle" x="378.5" y="-510.4" font-family="DejaVu Sans" font-size="11.00">termin&#45;assets</text>
</g>
<!-- termin&#45;base&#45;&gt;termin&#45;assets -->
<g id="edge11" class="edge">
<title>termin&#45;base&#45;&gt;termin&#45;assets</title>
<path fill="none" stroke="#666666" stroke-width="1.1" d="M232.59,-712.08C238.99,-707.53 245.17,-702.21 250,-696.2 294.38,-640.9 259.01,-599.39 307,-547.2 312.68,-541.02 319.71,-535.85 327.12,-531.55"/>
<polygon fill="#666666" stroke="#666666" stroke-width="1.1" points="328.43,-533.63 333.42,-528.15 326.09,-529.33 328.43,-533.63"/>
</g>
<!-- termin&#45;lighting -->
<g id="node31" class="node">
<title>termin&#45;lighting</title>
<path fill="#f7f7f7" stroke="#444444" d="M608.5,-490.2C608.5,-490.2 537.5,-490.2 537.5,-490.2 531.5,-490.2 525.5,-484.2 525.5,-478.2 525.5,-478.2 525.5,-466.2 525.5,-466.2 525.5,-460.2 531.5,-454.2 537.5,-454.2 537.5,-454.2 608.5,-454.2 608.5,-454.2 614.5,-454.2 620.5,-460.2 620.5,-466.2 620.5,-466.2 620.5,-478.2 620.5,-478.2 620.5,-484.2 614.5,-490.2 608.5,-490.2"/>
<text text-anchor="middle" x="573" y="-469.4" font-family="DejaVu Sans" font-size="11.00">termin&#45;lighting</text>
</g>
<!-- termin&#45;base&#45;&gt;termin&#45;lighting -->
<g id="edge14" class="edge">
<title>termin&#45;base&#45;&gt;termin&#45;lighting</title>
<path fill="none" stroke="#666666" stroke-width="1.1" d="M238.09,-713.87C258.61,-705.48 284.1,-695.16 307,-686.2 370.26,-661.43 400.46,-678.68 450,-632.2 494.82,-590.14 464.8,-550.88 507,-506.2 511.21,-501.74 516.14,-497.75 521.36,-494.22"/>
<polygon fill="#666666" stroke="#666666" stroke-width="1.1" points="522.99,-496.09 527.61,-490.29 520.38,-491.95 522.99,-496.09"/>
</g>
<!-- termin&#45;audio -->
<g id="node38" class="node">
<title>termin&#45;audio</title>
<path fill="#f7f7f7" stroke="#444444" d="M408.5,-397.2C408.5,-397.2 348.5,-397.2 348.5,-397.2 342.5,-397.2 336.5,-391.2 336.5,-385.2 336.5,-385.2 336.5,-373.2 336.5,-373.2 336.5,-367.2 342.5,-361.2 348.5,-361.2 348.5,-361.2 408.5,-361.2 408.5,-361.2 414.5,-361.2 420.5,-367.2 420.5,-373.2 420.5,-373.2 420.5,-385.2 420.5,-385.2 420.5,-391.2 414.5,-397.2 408.5,-397.2"/>
<text text-anchor="middle" x="378.5" y="-376.4" font-family="DejaVu Sans" font-size="11.00">termin&#45;audio</text>
</g>
<!-- termin&#45;base&#45;&gt;termin&#45;audio -->
<g id="edge12" class="edge">
<title>termin&#45;base&#45;&gt;termin&#45;audio</title>
<path fill="none" stroke="#666666" stroke-width="1.1" d="M234.15,-712.07C240.2,-707.61 245.85,-702.32 250,-696.2 320.05,-592.89 234.58,-522.86 307,-421.2 313.04,-412.71 321.39,-405.65 330.22,-399.88"/>
<polygon fill="#666666" stroke="#666666" stroke-width="1.1" points="331.71,-401.85 336.4,-396.1 329.15,-397.67 331.71,-401.85"/>
</g>
<!-- termin&#45;pga -->
<g id="node43" class="node">
<title>termin&#45;pga</title>
<path fill="#f7f7f7" stroke="#444444" d="M404,-329.2C404,-329.2 353,-329.2 353,-329.2 347,-329.2 341,-323.2 341,-317.2 341,-317.2 341,-305.2 341,-305.2 341,-299.2 347,-293.2 353,-293.2 353,-293.2 404,-293.2 404,-293.2 410,-293.2 416,-299.2 416,-305.2 416,-305.2 416,-317.2 416,-317.2 416,-323.2 410,-329.2 404,-329.2"/>
<text text-anchor="middle" x="378.5" y="-308.4" font-family="DejaVu Sans" font-size="11.00">termin&#45;pga</text>
</g>
<!-- termin&#45;base&#45;&gt;termin&#45;pga -->
<g id="edge17" class="edge">
<title>termin&#45;base&#45;&gt;termin&#45;pga</title>
<path fill="none" stroke="#666666" stroke-width="1.1" d="M234.63,-712.02C240.55,-707.58 246.04,-702.31 250,-696.2 335.84,-563.49 212.46,-471.85 307,-345.2 313.87,-336 323.88,-329.17 334.21,-324.15"/>
<polygon fill="#666666" stroke="#666666" stroke-width="1.1" points="335.28,-326.35 340.66,-321.25 333.27,-321.88 335.28,-326.35"/>
</g>
<!-- termin&#45;qopt -->
<g id="node44" class="node">
<title>termin&#45;qopt</title>
<path fill="#f7f7f7" stroke="#444444" d="M406,-261.2C406,-261.2 351,-261.2 351,-261.2 345,-261.2 339,-255.2 339,-249.2 339,-249.2 339,-237.2 339,-237.2 339,-231.2 345,-225.2 351,-225.2 351,-225.2 406,-225.2 406,-225.2 412,-225.2 418,-231.2 418,-237.2 418,-237.2 418,-249.2 418,-249.2 418,-255.2 412,-261.2 406,-261.2"/>
<text text-anchor="middle" x="378.5" y="-240.4" font-family="DejaVu Sans" font-size="11.00">termin&#45;qopt</text>
</g>
<!-- termin&#45;base&#45;&gt;termin&#45;qopt -->
<g id="edge18" class="edge">
<title>termin&#45;base&#45;&gt;termin&#45;qopt</title>
<path fill="none" stroke="#666666" stroke-width="1.1" d="M234.76,-712.1C240.67,-707.65 246.12,-702.36 250,-696.2 350.03,-537.09 196.53,-429.24 307,-277.2 313.36,-268.45 322.57,-261.86 332.25,-256.92"/>
<polygon fill="#666666" stroke="#666666" stroke-width="1.1" points="333.37,-259.11 338.66,-253.91 331.28,-254.67 333.37,-259.11"/>
</g>
<!-- termin&#45;collision -->
<g id="node4" class="node">
<title>termin&#45;collision</title>
<path fill="#f7f7f7" stroke="#444444" d="M794.5,-748.2C794.5,-748.2 719.5,-748.2 719.5,-748.2 713.5,-748.2 707.5,-742.2 707.5,-736.2 707.5,-736.2 707.5,-724.2 707.5,-724.2 707.5,-718.2 713.5,-712.2 719.5,-712.2 719.5,-712.2 794.5,-712.2 794.5,-712.2 800.5,-712.2 806.5,-718.2 806.5,-724.2 806.5,-724.2 806.5,-736.2 806.5,-736.2 806.5,-742.2 800.5,-748.2 794.5,-748.2"/>
<text text-anchor="middle" x="757" y="-727.4" font-family="DejaVu Sans" font-size="11.00">termin&#45;collision</text>
</g>
<!-- termin&#45;physics -->
<g id="node11" class="node">
<title>termin&#45;physics</title>
<path fill="#f7f7f7" stroke="#444444" d="M1000.5,-763.2C1000.5,-763.2 928.5,-763.2 928.5,-763.2 922.5,-763.2 916.5,-757.2 916.5,-751.2 916.5,-751.2 916.5,-739.2 916.5,-739.2 916.5,-733.2 922.5,-727.2 928.5,-727.2 928.5,-727.2 1000.5,-727.2 1000.5,-727.2 1006.5,-727.2 1012.5,-733.2 1012.5,-739.2 1012.5,-739.2 1012.5,-751.2 1012.5,-751.2 1012.5,-757.2 1006.5,-763.2 1000.5,-763.2"/>
<text text-anchor="middle" x="964.5" y="-742.4" font-family="DejaVu Sans" font-size="11.00">termin&#45;physics</text>
</g>
<!-- termin&#45;collision&#45;&gt;termin&#45;physics -->
<g id="edge22" class="edge">
<title>termin&#45;collision&#45;&gt;termin&#45;physics</title>
<path fill="none" stroke="#666666" stroke-width="1.1" d="M806.7,-733.75C837.49,-736 877.32,-738.91 909.14,-741.23"/>
<polygon fill="#666666" stroke="#666666" stroke-width="1.1" points="909.05,-743.68 916.21,-741.75 909.41,-738.79 909.05,-743.68"/>
</g>
<!-- termin&#45;components&#45;collision -->
<g id="node19" class="node">
<title>termin&#45;components&#45;collision</title>
<path fill="#f7f7f7" stroke="#444444" d="M1282,-1033.2C1282,-1033.2 1136,-1033.2 1136,-1033.2 1130,-1033.2 1124,-1027.2 1124,-1021.2 1124,-1021.2 1124,-1009.2 1124,-1009.2 1124,-1003.2 1130,-997.2 1136,-997.2 1136,-997.2 1282,-997.2 1282,-997.2 1288,-997.2 1294,-1003.2 1294,-1009.2 1294,-1009.2 1294,-1021.2 1294,-1021.2 1294,-1027.2 1288,-1033.2 1282,-1033.2"/>
<text text-anchor="middle" x="1209" y="-1012.4" font-family="DejaVu Sans" font-size="11.00">termin&#45;components&#45;collision</text>
</g>
<!-- termin&#45;collision&#45;&gt;termin&#45;components&#45;collision -->
<g id="edge20" class="edge">
<title>termin&#45;collision&#45;&gt;termin&#45;components&#45;collision</title>
<path fill="none" stroke="#666666" stroke-width="1.1" d="M790.01,-748.3C796.99,-753 804.06,-758.39 810,-764.2 842,-795.48 831.49,-819.97 867,-847.2 936.94,-900.83 979.97,-865.37 1054,-913.2 1089.12,-935.89 1084.18,-958.06 1119,-981.2 1126.47,-986.16 1134.76,-990.54 1143.19,-994.37"/>
<polygon fill="#666666" stroke="#666666" stroke-width="1.1" points="1142.26,-996.64 1149.66,-997.19 1144.22,-992.15 1142.26,-996.64"/>
</g>
<!-- termin&#45;android -->
<g id="node37" class="node">
<title>termin&#45;android</title>
<path fill="#f7f7f7" stroke="#444444" d="M1680.5,-292.2C1680.5,-292.2 1608.5,-292.2 1608.5,-292.2 1602.5,-292.2 1596.5,-286.2 1596.5,-280.2 1596.5,-280.2 1596.5,-268.2 1596.5,-268.2 1596.5,-262.2 1602.5,-256.2 1608.5,-256.2 1608.5,-256.2 1680.5,-256.2 1680.5,-256.2 1686.5,-256.2 1692.5,-262.2 1692.5,-268.2 1692.5,-268.2 1692.5,-280.2 1692.5,-280.2 1692.5,-286.2 1686.5,-292.2 1680.5,-292.2"/>
<text text-anchor="middle" x="1644.5" y="-271.4" font-family="DejaVu Sans" font-size="11.00">termin&#45;android</text>
</g>
<!-- termin&#45;collision&#45;&gt;termin&#45;android -->
<g id="edge19" class="edge">
<title>termin&#45;collision&#45;&gt;termin&#45;android</title>
<path fill="none" stroke="#666666" stroke-width="1.1" d="M794.1,-712.04C814.98,-702.11 842,-690.24 867,-682.2 878.67,-678.44 1290.44,-599.97 1299,-591.2 1409.8,-477.65 1242.03,-341.65 1364,-240.2 1432.21,-183.46 1544.2,-224.27 1603.6,-252.82"/>
<polygon fill="#666666" stroke="#666666" stroke-width="1.1" points="1602.86,-255.19 1610.23,-256.06 1605.01,-250.79 1602.86,-255.19"/>
</g>
<!-- termin&#45;openxr -->
<g id="node42" class="node">
<title>termin&#45;openxr</title>
<path fill="#f7f7f7" stroke="#444444" d="M1679,-431.2C1679,-431.2 1610,-431.2 1610,-431.2 1604,-431.2 1598,-425.2 1598,-419.2 1598,-419.2 1598,-407.2 1598,-407.2 1598,-401.2 1604,-395.2 1610,-395.2 1610,-395.2 1679,-395.2 1679,-395.2 1685,-395.2 1691,-401.2 1691,-407.2 1691,-407.2 1691,-419.2 1691,-419.2 1691,-425.2 1685,-431.2 1679,-431.2"/>
<text text-anchor="middle" x="1644.5" y="-410.4" font-family="DejaVu Sans" font-size="11.00">termin&#45;openxr</text>
</g>
<!-- termin&#45;collision&#45;&gt;termin&#45;openxr -->
<g id="edge21" class="edge">
<title>termin&#45;collision&#45;&gt;termin&#45;openxr</title>
<path fill="none" stroke="#666666" stroke-width="1.1" d="M806.56,-721.7C825.43,-718.41 847.22,-714.62 867,-711.2 1058.95,-678.03 1117.6,-708.2 1299,-637.2 1429.38,-586.16 1562.33,-481.73 1617.27,-435.76"/>
<polygon fill="#666666" stroke="#666666" stroke-width="1.1" points="1618.88,-437.62 1622.66,-431.24 1615.72,-433.87 1618.88,-437.62"/>
</g>
<!-- termin&#45;csg -->
<g id="node5" class="node">
<title>termin&#45;csg</title>
<path fill="#f7f7f7" stroke="#444444" d="M222,-816.2C222,-816.2 173,-816.2 173,-816.2 167,-816.2 161,-810.2 161,-804.2 161,-804.2 161,-792.2 161,-792.2 161,-786.2 167,-780.2 173,-780.2 173,-780.2 222,-780.2 222,-780.2 228,-780.2 234,-786.2 234,-792.2 234,-792.2 234,-804.2 234,-804.2 234,-810.2 228,-816.2 222,-816.2"/>
<text text-anchor="middle" x="197.5" y="-795.4" font-family="DejaVu Sans" font-size="11.00">termin&#45;csg</text>
</g>
<!-- termin&#45;components&#45;mesh -->
<g id="node21" class="node">
<title>termin&#45;components&#45;mesh</title>
<path fill="#f7f7f7" stroke="#444444" d="M1030.5,-1101.2C1030.5,-1101.2 898.5,-1101.2 898.5,-1101.2 892.5,-1101.2 886.5,-1095.2 886.5,-1089.2 886.5,-1089.2 886.5,-1077.2 886.5,-1077.2 886.5,-1071.2 892.5,-1065.2 898.5,-1065.2 898.5,-1065.2 1030.5,-1065.2 1030.5,-1065.2 1036.5,-1065.2 1042.5,-1071.2 1042.5,-1077.2 1042.5,-1077.2 1042.5,-1089.2 1042.5,-1089.2 1042.5,-1095.2 1036.5,-1101.2 1030.5,-1101.2"/>
<text text-anchor="middle" x="964.5" y="-1080.4" font-family="DejaVu Sans" font-size="11.00">termin&#45;components&#45;mesh</text>
</g>
<!-- termin&#45;csg&#45;&gt;termin&#45;components&#45;mesh -->
<g id="edge35" class="edge">
<title>termin&#45;csg&#45;&gt;termin&#45;components&#45;mesh</title>
<path fill="none" stroke="#666666" stroke-width="1.1" d="M234.09,-816.37C240.14,-820.83 245.81,-826.11 250,-832.2 316.54,-928.96 215.44,-1016.66 307,-1090.2 392.67,-1159.01 721.71,-1120.19 878.92,-1096.84"/>
<polygon fill="#666666" stroke="#666666" stroke-width="1.1" points="879.71,-1099.2 886.27,-1095.74 878.99,-1094.35 879.71,-1099.2"/>
</g>
<!-- termin&#45;input -->
<g id="node6" class="node">
<title>termin&#45;input</title>
<path fill="#f7f7f7" stroke="#444444" d="M786,-680.2C786,-680.2 728,-680.2 728,-680.2 722,-680.2 716,-674.2 716,-668.2 716,-668.2 716,-656.2 716,-656.2 716,-650.2 722,-644.2 728,-644.2 728,-644.2 786,-644.2 786,-644.2 792,-644.2 798,-650.2 798,-656.2 798,-656.2 798,-668.2 798,-668.2 798,-674.2 792,-680.2 786,-680.2"/>
<text text-anchor="middle" x="757" y="-659.4" font-family="DejaVu Sans" font-size="11.00">termin&#45;input</text>
</g>
<!-- termin&#45;display -->
<g id="node29" class="node">
<title>termin&#45;display</title>
<path fill="#f7f7f7" stroke="#444444" d="M999,-532.2C999,-532.2 930,-532.2 930,-532.2 924,-532.2 918,-526.2 918,-520.2 918,-520.2 918,-508.2 918,-508.2 918,-502.2 924,-496.2 930,-496.2 930,-496.2 999,-496.2 999,-496.2 1005,-496.2 1011,-502.2 1011,-508.2 1011,-508.2 1011,-520.2 1011,-520.2 1011,-526.2 1005,-532.2 999,-532.2"/>
<text text-anchor="middle" x="964.5" y="-511.4" font-family="DejaVu Sans" font-size="11.00">termin&#45;display</text>
</g>
<!-- termin&#45;input&#45;&gt;termin&#45;display -->
<g id="edge49" class="edge">
<title>termin&#45;input&#45;&gt;termin&#45;display</title>
<path fill="none" stroke="#666666" stroke-width="1.1" d="M783.2,-644.05C820.89,-616.9 891.88,-565.78 932.63,-536.43"/>
<polygon fill="#666666" stroke="#666666" stroke-width="1.1" points="934.17,-538.34 938.42,-532.26 931.31,-534.36 934.17,-538.34"/>
</g>
<!-- termin&#45;scene -->
<g id="node12" class="node">
<title>termin&#45;scene</title>
<path fill="#f7f7f7" stroke="#444444" d="M604.5,-806.2C604.5,-806.2 541.5,-806.2 541.5,-806.2 535.5,-806.2 529.5,-800.2 529.5,-794.2 529.5,-794.2 529.5,-782.2 529.5,-782.2 529.5,-776.2 535.5,-770.2 541.5,-770.2 541.5,-770.2 604.5,-770.2 604.5,-770.2 610.5,-770.2 616.5,-776.2 616.5,-782.2 616.5,-782.2 616.5,-794.2 616.5,-794.2 616.5,-800.2 610.5,-806.2 604.5,-806.2"/>
<text text-anchor="middle" x="573" y="-785.4" font-family="DejaVu Sans" font-size="11.00">termin&#45;scene</text>
</g>
<!-- termin&#45;inspect&#45;&gt;termin&#45;scene -->
<g id="edge50" class="edge">
<title>termin&#45;inspect&#45;&gt;termin&#45;scene</title>
<path fill="none" stroke="#666666" stroke-width="1.1" d="M425.61,-788.2C454.75,-788.2 492.4,-788.2 522.22,-788.2"/>
<polygon fill="#666666" stroke="#666666" stroke-width="1.1" points="522.23,-790.65 529.23,-788.2 522.23,-785.75 522.23,-790.65"/>
</g>
<!-- termin&#45;graphics -->
<g id="node30" class="node">
<title>termin&#45;graphics</title>
<path fill="#f7f7f7" stroke="#444444" d="M611.5,-558.2C611.5,-558.2 534.5,-558.2 534.5,-558.2 528.5,-558.2 522.5,-552.2 522.5,-546.2 522.5,-546.2 522.5,-534.2 522.5,-534.2 522.5,-528.2 528.5,-522.2 534.5,-522.2 534.5,-522.2 611.5,-522.2 611.5,-522.2 617.5,-522.2 623.5,-528.2 623.5,-534.2 623.5,-534.2 623.5,-546.2 623.5,-546.2 623.5,-552.2 617.5,-558.2 611.5,-558.2"/>
<text text-anchor="middle" x="573" y="-537.4" font-family="DejaVu Sans" font-size="11.00">termin&#45;graphics</text>
</g>
<!-- termin&#45;mesh&#45;&gt;termin&#45;graphics -->
<g id="edge52" class="edge">
<title>termin&#45;mesh&#45;&gt;termin&#45;graphics</title>
<path fill="none" stroke="#666666" stroke-width="1.1" d="M414.63,-702.13C426.4,-695.35 439.25,-687.11 450,-678.2 492.06,-643.33 532.32,-593.54 554.45,-564.27"/>
<polygon fill="#666666" stroke="#666666" stroke-width="1.1" points="556.65,-565.42 558.89,-558.35 552.73,-562.48 556.65,-565.42"/>
</g>
<!-- termin&#45;modules&#45;&gt;termin&#45;app -->
<g id="edge53" class="edge">
<title>termin&#45;modules&#45;&gt;termin&#45;app</title>
<path fill="none" stroke="#666666" stroke-width="1.1" d="M393.22,-879.64C445.41,-948.06 640.16,-1187.64 867,-1270.2 1147.66,-1372.34 1311.85,-1464.12 1539,-1270.2 1637.25,-1186.32 1643.6,-747.87 1643.63,-637.46"/>
<polygon fill="#666666" stroke="#666666" stroke-width="1.1" points="1646.08,-637.37 1643.62,-630.37 1641.18,-637.38 1646.08,-637.37"/>
</g>
<!-- termin&#45;navmesh -->
<g id="node10" class="node">
<title>termin&#45;navmesh</title>
<path fill="#f7f7f7" stroke="#444444" d="M238,-680.2C238,-680.2 157,-680.2 157,-680.2 151,-680.2 145,-674.2 145,-668.2 145,-668.2 145,-656.2 145,-656.2 145,-650.2 151,-644.2 157,-644.2 157,-644.2 238,-644.2 238,-644.2 244,-644.2 250,-650.2 250,-656.2 250,-656.2 250,-668.2 250,-668.2 250,-674.2 244,-680.2 238,-680.2"/>
<text text-anchor="middle" x="197.5" y="-659.4" font-family="DejaVu Sans" font-size="11.00">termin&#45;navmesh</text>
</g>
<!-- termin&#45;navmesh&#45;&gt;termin&#45;app -->
<g id="edge55" class="edge">
<title>termin&#45;navmesh&#45;&gt;termin&#45;app</title>
<path fill="none" stroke="#666666" stroke-width="1.1" d="M199.62,-644.15C205.04,-563.43 231.44,-236.75 307,-176.2 387.79,-111.46 324.89,89.94 1054,-179.2 1089.5,-192.3 1087.41,-213.36 1119,-234.2 1193.67,-283.43 1239.62,-257.31 1299,-324.2 1355.74,-388.12 1303.43,-444.89 1364,-505.2 1422.47,-563.42 1462.18,-537.09 1539,-567.2 1559.31,-575.16 1581.54,-584.62 1600.26,-592.82"/>
<polygon fill="#666666" stroke="#666666" stroke-width="1.1" points="1599.6,-595.2 1606.99,-595.77 1601.57,-590.71 1599.6,-595.2"/>
</g>
<!-- termin&#45;default&#45;assets -->
<g id="node40" class="node">
<title>termin&#45;default&#45;assets</title>
<path fill="#f7f7f7" stroke="#444444" d="M627,-356.2C627,-356.2 519,-356.2 519,-356.2 513,-356.2 507,-350.2 507,-344.2 507,-344.2 507,-332.2 507,-332.2 507,-326.2 513,-320.2 519,-320.2 519,-320.2 627,-320.2 627,-320.2 633,-320.2 639,-326.2 639,-332.2 639,-332.2 639,-344.2 639,-344.2 639,-350.2 633,-356.2 627,-356.2"/>
<text text-anchor="middle" x="573" y="-335.4" font-family="DejaVu Sans" font-size="11.00">termin&#45;default&#45;assets</text>
</g>
<!-- termin&#45;navmesh&#45;&gt;termin&#45;default&#45;assets -->
<g id="edge56" class="edge">
<title>termin&#45;navmesh&#45;&gt;termin&#45;default&#45;assets</title>
<path fill="none" stroke="#666666" stroke-width="1.1" d="M199.94,-644.08C206.48,-566.65 236.28,-264.98 307,-209.2 356.9,-169.84 391.63,-184.06 450,-209.2 499.43,-230.48 538.18,-282.73 557.83,-313.81"/>
<polygon fill="#666666" stroke="#666666" stroke-width="1.1" points="555.96,-315.44 561.73,-320.1 560.12,-312.86 555.96,-315.44"/>
</g>
<!-- termin&#45;components&#45;physics -->
<g id="node22" class="node">
<title>termin&#45;components&#45;physics</title>
<path fill="#f7f7f7" stroke="#444444" d="M1519,-965.2C1519,-965.2 1376,-965.2 1376,-965.2 1370,-965.2 1364,-959.2 1364,-953.2 1364,-953.2 1364,-941.2 1364,-941.2 1364,-935.2 1370,-929.2 1376,-929.2 1376,-929.2 1519,-929.2 1519,-929.2 1525,-929.2 1531,-935.2 1531,-941.2 1531,-941.2 1531,-953.2 1531,-953.2 1531,-959.2 1525,-965.2 1519,-965.2"/>
<text text-anchor="middle" x="1447.5" y="-944.4" font-family="DejaVu Sans" font-size="11.00">termin&#45;components&#45;physics</text>
</g>
<!-- termin&#45;physics&#45;&gt;termin&#45;components&#45;physics -->
<g id="edge58" class="edge">
<title>termin&#45;physics&#45;&gt;termin&#45;components&#45;physics</title>
<path fill="none" stroke="#666666" stroke-width="1.1" d="M1012.94,-763.04C1026.26,-768.16 1040.73,-773.81 1054,-779.2 1179.5,-830.14 1325.82,-893.96 1399.29,-926.31"/>
<polygon fill="#666666" stroke="#666666" stroke-width="1.1" points="1398.35,-928.57 1405.75,-929.15 1400.33,-924.09 1398.35,-928.57"/>
</g>
<!-- termin&#45;scene&#45;&gt;termin&#45;collision -->
<g id="edge64" class="edge">
<title>termin&#45;scene&#45;&gt;termin&#45;collision</title>
<path fill="none" stroke="#666666" stroke-width="1.1" d="M616.67,-774.6C641.76,-766.6 673.75,-756.41 700.74,-747.81"/>
<polygon fill="#666666" stroke="#666666" stroke-width="1.1" points="701.57,-750.12 707.49,-745.66 700.08,-745.45 701.57,-750.12"/>
</g>
<!-- termin&#45;scene&#45;&gt;termin&#45;input -->
<g id="edge67" class="edge">
<title>termin&#45;scene&#45;&gt;termin&#45;input</title>
<path fill="none" stroke="#666666" stroke-width="1.1" d="M599.22,-769.94C625.27,-751.17 667.2,-721.24 704,-696.2 709.75,-692.28 715.91,-688.18 721.9,-684.24"/>
<polygon fill="#666666" stroke="#666666" stroke-width="1.1" points="723.3,-686.25 727.81,-680.36 720.61,-682.15 723.3,-686.25"/>
</g>
<!-- termin&#45;skeleton -->
<g id="node13" class="node">
<title>termin&#45;skeleton</title>
<path fill="#f7f7f7" stroke="#444444" d="M795.5,-884.2C795.5,-884.2 718.5,-884.2 718.5,-884.2 712.5,-884.2 706.5,-878.2 706.5,-872.2 706.5,-872.2 706.5,-860.2 706.5,-860.2 706.5,-854.2 712.5,-848.2 718.5,-848.2 718.5,-848.2 795.5,-848.2 795.5,-848.2 801.5,-848.2 807.5,-854.2 807.5,-860.2 807.5,-860.2 807.5,-872.2 807.5,-872.2 807.5,-878.2 801.5,-884.2 795.5,-884.2"/>
<text text-anchor="middle" x="757" y="-863.4" font-family="DejaVu Sans" font-size="11.00">termin&#45;skeleton</text>
</g>
<!-- termin&#45;scene&#45;&gt;termin&#45;skeleton -->
<g id="edge69" class="edge">
<title>termin&#45;scene&#45;&gt;termin&#45;skeleton</title>
<path fill="none" stroke="#666666" stroke-width="1.1" d="M616.21,-806.29C643.34,-817.91 678.67,-833.05 707.02,-845.21"/>
<polygon fill="#666666" stroke="#666666" stroke-width="1.1" points="706.3,-847.56 713.7,-848.07 708.23,-843.06 706.3,-847.56"/>
</g>
<!-- termin&#45;components&#45;kinematic -->
<g id="node20" class="node">
<title>termin&#45;components&#45;kinematic</title>
<path fill="#f7f7f7" stroke="#444444" d="M1042,-1169.2C1042,-1169.2 887,-1169.2 887,-1169.2 881,-1169.2 875,-1163.2 875,-1157.2 875,-1157.2 875,-1145.2 875,-1145.2 875,-1139.2 881,-1133.2 887,-1133.2 887,-1133.2 1042,-1133.2 1042,-1133.2 1048,-1133.2 1054,-1139.2 1054,-1145.2 1054,-1145.2 1054,-1157.2 1054,-1157.2 1054,-1163.2 1048,-1169.2 1042,-1169.2"/>
<text text-anchor="middle" x="964.5" y="-1148.4" font-family="DejaVu Sans" font-size="11.00">termin&#45;components&#45;kinematic</text>
</g>
<!-- termin&#45;scene&#45;&gt;termin&#45;components&#45;kinematic -->
<g id="edge65" class="edge">
<title>termin&#45;scene&#45;&gt;termin&#45;components&#45;kinematic</title>
<path fill="none" stroke="#666666" stroke-width="1.1" d="M584.74,-806.51C618.53,-862.46 728.72,-1032.51 867,-1117.2 875.17,-1122.2 884.17,-1126.6 893.31,-1130.44"/>
<polygon fill="#666666" stroke="#666666" stroke-width="1.1" points="892.56,-1132.78 899.97,-1133.13 894.39,-1128.23 892.56,-1132.78"/>
</g>
<!-- termin&#45;scene&#45;&gt;termin&#45;components&#45;mesh -->
<g id="edge66" class="edge">
<title>termin&#45;scene&#45;&gt;termin&#45;components&#45;mesh</title>
<path fill="none" stroke="#666666" stroke-width="1.1" d="M593.73,-806.31C618.76,-829.01 663.53,-868.77 704,-900.2 749.38,-935.44 768.56,-934.4 810,-974.2 840.2,-1003.2 833.17,-1024.54 867,-1049.2 873.84,-1054.18 881.48,-1058.49 889.38,-1062.2"/>
<polygon fill="#666666" stroke="#666666" stroke-width="1.1" points="888.68,-1064.57 896.07,-1065.18 890.67,-1060.09 888.68,-1064.57"/>
</g>
<!-- termin&#45;render -->
<g id="node32" class="node">
<title>termin&#45;render</title>
<path fill="#f7f7f7" stroke="#444444" d="M790,-532.2C790,-532.2 724,-532.2 724,-532.2 718,-532.2 712,-526.2 712,-520.2 712,-520.2 712,-508.2 712,-508.2 712,-502.2 718,-496.2 724,-496.2 724,-496.2 790,-496.2 790,-496.2 796,-496.2 802,-502.2 802,-508.2 802,-508.2 802,-520.2 802,-520.2 802,-526.2 796,-532.2 790,-532.2"/>
<text text-anchor="middle" x="757" y="-511.4" font-family="DejaVu Sans" font-size="11.00">termin&#45;render</text>
</g>
<!-- termin&#45;scene&#45;&gt;termin&#45;render -->
<g id="edge68" class="edge">
<title>termin&#45;scene&#45;&gt;termin&#45;render</title>
<path fill="none" stroke="#666666" stroke-width="1.1" d="M586.22,-769.79C618.15,-721.73 704.04,-592.43 739.91,-538.42"/>
<polygon fill="#666666" stroke="#666666" stroke-width="1.1" points="742,-539.71 743.83,-532.52 737.92,-537 742,-539.71"/>
</g>
<!-- termin&#45;skeleton&#45;&gt;termin&#45;animation -->
<g id="edge70" class="edge">
<title>termin&#45;skeleton&#45;&gt;termin&#45;animation</title>
<path fill="none" stroke="#666666" stroke-width="1.1" d="M807.75,-853.37C836.34,-845.99 872.47,-836.67 902.73,-828.87"/>
<polygon fill="#666666" stroke="#666666" stroke-width="1.1" points="903.73,-831.14 909.89,-827.02 902.5,-826.4 903.73,-831.14"/>
</g>
<!-- termin&#45;components&#45;skeleton -->
<g id="node23" class="node">
<title>termin&#45;components&#45;skeleton</title>
<path fill="#f7f7f7" stroke="#444444" d="M1038.5,-965.2C1038.5,-965.2 890.5,-965.2 890.5,-965.2 884.5,-965.2 878.5,-959.2 878.5,-953.2 878.5,-953.2 878.5,-941.2 878.5,-941.2 878.5,-935.2 884.5,-929.2 890.5,-929.2 890.5,-929.2 1038.5,-929.2 1038.5,-929.2 1044.5,-929.2 1050.5,-935.2 1050.5,-941.2 1050.5,-941.2 1050.5,-953.2 1050.5,-953.2 1050.5,-959.2 1044.5,-965.2 1038.5,-965.2"/>
<text text-anchor="middle" x="964.5" y="-944.4" font-family="DejaVu Sans" font-size="11.00">termin&#45;components&#45;skeleton</text>
</g>
<!-- termin&#45;skeleton&#45;&gt;termin&#45;components&#45;skeleton -->
<g id="edge71" class="edge">
<title>termin&#45;skeleton&#45;&gt;termin&#45;components&#45;skeleton</title>
<path fill="none" stroke="#666666" stroke-width="1.1" d="M789.65,-884.34C810.99,-896.02 840.07,-910.9 867,-921.2 872.36,-923.25 877.94,-925.2 883.6,-927.05"/>
<polygon fill="#666666" stroke="#666666" stroke-width="1.1" points="882.86,-929.38 890.28,-929.17 884.35,-924.71 882.86,-929.38"/>
</g>
<!-- termin&#45;tween -->
<g id="node14" class="node">
<title>termin&#45;tween</title>
<path fill="#f7f7f7" stroke="#444444" d="M229.5,-884.2C229.5,-884.2 165.5,-884.2 165.5,-884.2 159.5,-884.2 153.5,-878.2 153.5,-872.2 153.5,-872.2 153.5,-860.2 153.5,-860.2 153.5,-854.2 159.5,-848.2 165.5,-848.2 165.5,-848.2 229.5,-848.2 229.5,-848.2 235.5,-848.2 241.5,-854.2 241.5,-860.2 241.5,-860.2 241.5,-872.2 241.5,-872.2 241.5,-878.2 235.5,-884.2 229.5,-884.2"/>
<text text-anchor="middle" x="197.5" y="-863.4" font-family="DejaVu Sans" font-size="11.00">termin&#45;tween</text>
</g>
<!-- termin&#45;components&#45;tween -->
<g id="node24" class="node">
<title>termin&#45;components&#45;tween</title>
<path fill="#f7f7f7" stroke="#444444" d="M1032,-1237.2C1032,-1237.2 897,-1237.2 897,-1237.2 891,-1237.2 885,-1231.2 885,-1225.2 885,-1225.2 885,-1213.2 885,-1213.2 885,-1207.2 891,-1201.2 897,-1201.2 897,-1201.2 1032,-1201.2 1032,-1201.2 1038,-1201.2 1044,-1207.2 1044,-1213.2 1044,-1213.2 1044,-1225.2 1044,-1225.2 1044,-1231.2 1038,-1237.2 1032,-1237.2"/>
<text text-anchor="middle" x="964.5" y="-1216.4" font-family="DejaVu Sans" font-size="11.00">termin&#45;components&#45;tween</text>
</g>
<!-- termin&#45;tween&#45;&gt;termin&#45;components&#45;tween -->
<g id="edge72" class="edge">
<title>termin&#45;tween&#45;&gt;termin&#45;components&#45;tween</title>
<path fill="none" stroke="#666666" stroke-width="1.1" d="M199.86,-884.48C204.58,-933.74 224.82,-1069.74 307,-1133.2 474.82,-1262.78 741.62,-1250.28 877.64,-1233.17"/>
<polygon fill="#666666" stroke="#666666" stroke-width="1.1" points="878.19,-1235.57 884.82,-1232.24 877.56,-1230.71 878.19,-1235.57"/>
</g>
<!-- termin&#45;voxels -->
<g id="node15" class="node">
<title>termin&#45;voxels</title>
<path fill="#f7f7f7" stroke="#444444" d="M790,-816.2C790,-816.2 724,-816.2 724,-816.2 718,-816.2 712,-810.2 712,-804.2 712,-804.2 712,-792.2 712,-792.2 712,-786.2 718,-780.2 724,-780.2 724,-780.2 790,-780.2 790,-780.2 796,-780.2 802,-786.2 802,-792.2 802,-792.2 802,-804.2 802,-804.2 802,-810.2 796,-816.2 790,-816.2"/>
<text text-anchor="middle" x="757" y="-795.4" font-family="DejaVu Sans" font-size="11.00">termin&#45;voxels</text>
</g>
<!-- termin&#45;voxels&#45;&gt;termin&#45;physics -->
<g id="edge74" class="edge">
<title>termin&#45;voxels&#45;&gt;termin&#45;physics</title>
<path fill="none" stroke="#666666" stroke-width="1.1" d="M802.08,-786.83C833.46,-778.73 875.82,-767.81 909.27,-759.18"/>
<polygon fill="#666666" stroke="#666666" stroke-width="1.1" points="910.1,-761.5 916.27,-757.38 908.88,-756.75 910.1,-761.5"/>
</g>
<!-- termin&#45;components&#45;voxels -->
<g id="node25" class="node">
<title>termin&#45;components&#45;voxels</title>
<path fill="#f7f7f7" stroke="#444444" d="M1033,-1033.2C1033,-1033.2 896,-1033.2 896,-1033.2 890,-1033.2 884,-1027.2 884,-1021.2 884,-1021.2 884,-1009.2 884,-1009.2 884,-1003.2 890,-997.2 896,-997.2 896,-997.2 1033,-997.2 1033,-997.2 1039,-997.2 1045,-1003.2 1045,-1009.2 1045,-1009.2 1045,-1021.2 1045,-1021.2 1045,-1027.2 1039,-1033.2 1033,-1033.2"/>
<text text-anchor="middle" x="964.5" y="-1012.4" font-family="DejaVu Sans" font-size="11.00">termin&#45;components&#45;voxels</text>
</g>
<!-- termin&#45;voxels&#45;&gt;termin&#45;components&#45;voxels -->
<g id="edge73" class="edge">
<title>termin&#45;voxels&#45;&gt;termin&#45;components&#45;voxels</title>
<path fill="none" stroke="#666666" stroke-width="1.1" d="M792.42,-816.27C798.88,-820.82 805.13,-826.15 810,-832.2 854.5,-887.39 816.2,-931.73 867,-981.2 871.96,-986.03 877.65,-990.18 883.74,-993.74"/>
<polygon fill="#666666" stroke="#666666" stroke-width="1.1" points="882.61,-995.92 889.93,-997.11 884.95,-991.62 882.61,-995.92"/>
</g>
<!-- termin -->
<g id="node16" class="node">
<title>termin</title>
<path fill="#f7f7f7" stroke="#444444" d="M59,-179.2C59,-179.2 29,-179.2 29,-179.2 23,-179.2 17,-173.2 17,-167.2 17,-167.2 17,-155.2 17,-155.2 17,-149.2 23,-143.2 29,-143.2 29,-143.2 59,-143.2 59,-143.2 65,-143.2 71,-149.2 71,-155.2 71,-155.2 71,-167.2 71,-167.2 71,-173.2 65,-179.2 59,-179.2"/>
<text text-anchor="middle" x="44" y="-158.4" font-family="DejaVu Sans" font-size="11.00">termin</text>
</g>
<!-- termin&#45;&gt;termin&#45;app -->
<g id="edge2" class="edge">
<title>termin&#45;&gt;termin&#45;app</title>
<path fill="none" stroke="#666666" stroke-width="1.1" d="M71.26,-144.88C117.08,-117.41 215.47,-62.85 307,-41.2 631.35,35.51 738.24,-0.52 1054,-107.2 1169.43,-146.2 1220.67,-136.87 1299,-230.2 1363.73,-307.31 1293.1,-375.71 1364,-447.2 1421.32,-504.99 1469.93,-458.14 1539,-501.2 1575.8,-524.14 1608.31,-563.19 1626.94,-588.33"/>
<polygon fill="#666666" stroke="#666666" stroke-width="1.1" points="1625.04,-589.88 1631.14,-594.09 1629,-586.99 1625.04,-589.88"/>
</g>
<!-- termin&#45;&gt;termin&#45;navmesh -->
<g id="edge3" class="edge">
<title>termin&#45;&gt;termin&#45;navmesh</title>
<path fill="none" stroke="#666666" stroke-width="1.1" d="M50.48,-179.32C73.49,-255.43 162.33,-549.21 188.93,-637.17"/>
<polygon fill="#666666" stroke="#666666" stroke-width="1.1" points="186.65,-638.1 191.03,-644.09 191.34,-636.69 186.65,-638.1"/>
</g>
<!-- termin&#45;&gt;termin&#45;tween -->
<g id="edge4" class="edge">
<title>termin&#45;&gt;termin&#45;tween</title>
<path fill="none" stroke="#666666" stroke-width="1.1" d="M45.36,-179.22C47.58,-274.67 61.9,-720.99 137,-832.2 139.93,-836.54 143.61,-840.39 147.7,-843.79"/>
<polygon fill="#666666" stroke="#666666" stroke-width="1.1" points="146.42,-845.9 153.49,-848.16 149.37,-841.99 146.42,-845.9"/>
</g>
<!-- termin&#45;&gt;termin&#45;voxels -->
<g id="edge5" class="edge">
<title>termin&#45;&gt;termin&#45;voxels</title>
<path fill="none" stroke="#666666" stroke-width="1.1" d="M71.27,-156.9C169.54,-142.5 516.15,-107.35 639,-304.2 748.32,-479.36 593.27,-589.93 704,-764.2 706.7,-768.45 710.16,-772.29 713.99,-775.72"/>
<polygon fill="#666666" stroke="#666666" stroke-width="1.1" points="712.45,-777.62 719.42,-780.14 715.54,-773.82 712.45,-777.62"/>
</g>
<!-- termin&#45;components&#45;animation&#45;&gt;termin&#45;app -->
<g id="edge23" class="edge">
<title>termin&#45;components&#45;animation&#45;&gt;termin&#45;app</title>
<path fill="none" stroke="#666666" stroke-width="1.1" d="M1279.56,-965.22C1363.85,-985.25 1499.5,-1011.07 1539,-981.2 1595.22,-938.68 1629.93,-714.08 1640.25,-637.67"/>
<polygon fill="#666666" stroke="#666666" stroke-width="1.1" points="1642.73,-637.6 1641.23,-630.34 1637.87,-636.95 1642.73,-637.6"/>
</g>
<!-- termin&#45;components&#45;collision&#45;&gt;termin&#45;components&#45;physics -->
<g id="edge24" class="edge">
<title>termin&#45;components&#45;collision&#45;&gt;termin&#45;components&#45;physics</title>
<path fill="none" stroke="#666666" stroke-width="1.1" d="M1272.76,-997.15C1304.82,-987.93 1343.93,-976.69 1376.92,-967.2"/>
<polygon fill="#666666" stroke="#666666" stroke-width="1.1" points="1377.81,-969.5 1383.86,-965.21 1376.46,-964.79 1377.81,-969.5"/>
</g>
<!-- termin&#45;components&#45;kinematic&#45;&gt;termin&#45;app -->
<g id="edge25" class="edge">
<title>termin&#45;components&#45;kinematic&#45;&gt;termin&#45;app</title>
<path fill="none" stroke="#666666" stroke-width="1.1" d="M1054.17,-1155.91C1179.6,-1157.49 1408.09,-1140.8 1539,-1012.2 1593.56,-958.6 1629.7,-717.01 1640.28,-637.59"/>
<polygon fill="#666666" stroke="#666666" stroke-width="1.1" points="1642.74,-637.68 1641.22,-630.42 1637.88,-637.04 1642.74,-637.68"/>
</g>
<!-- termin&#45;components&#45;mesh&#45;&gt;termin&#45;components&#45;collision -->
<g id="edge26" class="edge">
<title>termin&#45;components&#45;mesh&#45;&gt;termin&#45;components&#45;collision</title>
<path fill="none" stroke="#666666" stroke-width="1.1" d="M1029.85,-1065.15C1062.73,-1055.93 1102.83,-1044.69 1136.65,-1035.2"/>
<polygon fill="#666666" stroke="#666666" stroke-width="1.1" points="1137.69,-1037.46 1143.77,-1033.21 1136.37,-1032.74 1137.69,-1037.46"/>
</g>
<!-- termin&#45;components&#45;render -->
<g id="node28" class="node">
<title>termin&#45;components&#45;render</title>
<path fill="#f7f7f7" stroke="#444444" d="M1278,-532.2C1278,-532.2 1140,-532.2 1140,-532.2 1134,-532.2 1128,-526.2 1128,-520.2 1128,-520.2 1128,-508.2 1128,-508.2 1128,-502.2 1134,-496.2 1140,-496.2 1140,-496.2 1278,-496.2 1278,-496.2 1284,-496.2 1290,-502.2 1290,-508.2 1290,-508.2 1290,-520.2 1290,-520.2 1290,-526.2 1284,-532.2 1278,-532.2"/>
<text text-anchor="middle" x="1209" y="-511.4" font-family="DejaVu Sans" font-size="11.00">termin&#45;components&#45;render</text>
</g>
<!-- termin&#45;components&#45;mesh&#45;&gt;termin&#45;components&#45;render -->
<g id="edge27" class="edge">
<title>termin&#45;components&#45;mesh&#45;&gt;termin&#45;components&#45;render</title>
<path fill="none" stroke="#666666" stroke-width="1.1" d="M1033.07,-1065.09C1040.86,-1060.85 1048.1,-1055.63 1054,-1049.2 1125.62,-971.09 1187.54,-634.24 1203.83,-539.23"/>
<polygon fill="#666666" stroke="#666666" stroke-width="1.1" points="1206.25,-539.62 1205.01,-532.31 1201.41,-538.8 1206.25,-539.62"/>
</g>
<!-- termin&#45;components&#45;physics&#45;&gt;termin&#45;app -->
<g id="edge28" class="edge">
<title>termin&#45;components&#45;physics&#45;&gt;termin&#45;app</title>
<path fill="none" stroke="#666666" stroke-width="1.1" d="M1458.98,-929.19C1491.72,-872.95 1592.06,-700.57 1629.35,-636.51"/>
<polygon fill="#666666" stroke="#666666" stroke-width="1.1" points="1631.56,-637.58 1632.96,-630.3 1627.33,-635.11 1631.56,-637.58"/>
</g>
<!-- termin&#45;components&#45;skeleton&#45;&gt;termin&#45;components&#45;animation -->
<g id="edge31" class="edge">
<title>termin&#45;components&#45;skeleton&#45;&gt;termin&#45;components&#45;animation</title>
<path fill="none" stroke="#666666" stroke-width="1.1" d="M1050.66,-947.2C1070.43,-947.2 1091.62,-947.2 1111.83,-947.2"/>
<polygon fill="#666666" stroke="#666666" stroke-width="1.1" points="1111.94,-949.65 1118.94,-947.2 1111.94,-944.75 1111.94,-949.65"/>
</g>
<!-- termin&#45;components&#45;skeleton&#45;&gt;termin&#45;components&#45;render -->
<g id="edge32" class="edge">
<title>termin&#45;components&#45;skeleton&#45;&gt;termin&#45;components&#45;render</title>
<path fill="none" stroke="#666666" stroke-width="1.1" d="M1043.64,-929.06C1047.34,-926.74 1050.83,-924.14 1054,-921.2 1169.75,-813.93 1199.14,-610.73 1206.03,-539.58"/>
<polygon fill="#666666" stroke="#666666" stroke-width="1.1" points="1208.5,-539.53 1206.7,-532.34 1203.62,-539.08 1208.5,-539.53"/>
</g>
<!-- termin&#45;components&#45;tween&#45;&gt;termin&#45;app -->
<g id="edge33" class="edge">
<title>termin&#45;components&#45;tween&#45;&gt;termin&#45;app</title>
<path fill="none" stroke="#666666" stroke-width="1.1" d="M1044.06,-1226.88C1169.33,-1234.33 1413,-1228.26 1539,-1087.2 1599.94,-1018.97 1632.59,-725.93 1641.18,-637.54"/>
<polygon fill="#666666" stroke="#666666" stroke-width="1.1" points="1643.64,-637.54 1641.86,-630.34 1638.76,-637.08 1643.64,-637.54"/>
</g>
<!-- termin&#45;components&#45;voxels&#45;&gt;termin&#45;navmesh -->
<g id="edge34" class="edge">
<title>termin&#45;components&#45;voxels&#45;&gt;termin&#45;navmesh</title>
<path fill="none" stroke="#666666" stroke-width="1.1" d="M883.85,-1025.21C747.54,-1037.62 468.61,-1041.67 307,-895.2 238.83,-833.41 304.43,-770.37 250,-696.2 246.95,-692.04 243.23,-688.25 239.19,-684.82"/>
<polygon fill="#666666" stroke="#666666" stroke-width="1.1" points="240.55,-682.77 233.53,-680.39 237.53,-686.63 240.55,-682.77"/>
</g>
<!-- termin&#45;assets&#45;&gt;termin&#45;skeleton -->
<g id="edge10" class="edge">
<title>termin&#45;assets&#45;&gt;termin&#45;skeleton</title>
<path fill="none" stroke="#666666" stroke-width="1.1" d="M423.5,-531.21C432.64,-535.82 441.94,-541.19 450,-547.2 499.96,-584.4 598.05,-707.26 639,-754.2 668.67,-788.2 670.3,-802.19 704,-832.2 708.57,-836.27 713.68,-840.21 718.85,-843.87"/>
<polygon fill="#666666" stroke="#666666" stroke-width="1.1" points="717.77,-846.1 724.93,-848.04 720.54,-842.06 717.77,-846.1"/>
</g>
<!-- termin&#45;components&#45;foliage -->
<g id="node39" class="node">
<title>termin&#45;components&#45;foliage</title>
<path fill="#f7f7f7" stroke="#444444" d="M1033.5,-405.2C1033.5,-405.2 895.5,-405.2 895.5,-405.2 889.5,-405.2 883.5,-399.2 883.5,-393.2 883.5,-393.2 883.5,-381.2 883.5,-381.2 883.5,-375.2 889.5,-369.2 895.5,-369.2 895.5,-369.2 1033.5,-369.2 1033.5,-369.2 1039.5,-369.2 1045.5,-375.2 1045.5,-381.2 1045.5,-381.2 1045.5,-393.2 1045.5,-393.2 1045.5,-399.2 1039.5,-405.2 1033.5,-405.2"/>
<text text-anchor="middle" x="964.5" y="-384.4" font-family="DejaVu Sans" font-size="11.00">termin&#45;components&#45;foliage</text>
</g>
<!-- termin&#45;assets&#45;&gt;termin&#45;components&#45;foliage -->
<g id="edge8" class="edge">
<title>termin&#45;assets&#45;&gt;termin&#45;components&#45;foliage</title>
<path fill="none" stroke="#666666" stroke-width="1.1" d="M409.71,-495.14C445.78,-473.64 501.89,-440.33 507,-438.2 590.58,-403.36 614.2,-397.85 704,-386.2 750.72,-380.13 762.89,-386.04 810,-386.2 831.43,-386.27 854.54,-386.39 876.16,-386.53"/>
<polygon fill="#666666" stroke="#666666" stroke-width="1.1" points="876.42,-388.98 883.43,-386.58 876.45,-384.08 876.42,-388.98"/>
</g>
<!-- termin&#45;assets&#45;&gt;termin&#45;default&#45;assets -->
<g id="edge9" class="edge">
<title>termin&#45;assets&#45;&gt;termin&#45;default&#45;assets</title>
<path fill="none" stroke="#666666" stroke-width="1.1" d="M417.33,-495.07C428.63,-488.54 440.53,-480.46 450,-471.2 484.12,-437.83 473.49,-414.18 507,-380.2 514.28,-372.81 523.08,-366.06 531.82,-360.24"/>
<polygon fill="#666666" stroke="#666666" stroke-width="1.1" points="533.29,-362.21 537.84,-356.35 530.63,-358.09 533.29,-362.21"/>
</g>
<!-- termin&#45;nanobind&#45;sdk -->
<g id="node27" class="node">
<title>termin&#45;nanobind&#45;sdk</title>
<path fill="#f7f7f7" stroke="#444444" d="M430,-599.2C430,-599.2 327,-599.2 327,-599.2 321,-599.2 315,-593.2 315,-587.2 315,-587.2 315,-575.2 315,-575.2 315,-569.2 321,-563.2 327,-563.2 327,-563.2 430,-563.2 430,-563.2 436,-563.2 442,-569.2 442,-575.2 442,-575.2 442,-587.2 442,-587.2 442,-593.2 436,-599.2 430,-599.2"/>
<text text-anchor="middle" x="378.5" y="-578.4" font-family="DejaVu Sans" font-size="11.00">termin&#45;nanobind&#45;sdk</text>
</g>
<!-- termin&#45;nanobind&#45;sdk&#45;&gt;termin&#45;base -->
<g id="edge54" class="edge">
<title>termin&#45;nanobind&#45;sdk&#45;&gt;termin&#45;base</title>
<path fill="none" stroke="#666666" stroke-width="1.1" d="M346.27,-599.31C333.5,-607.39 318.94,-617.5 307,-628.2 277.63,-654.51 279.43,-669.95 250,-696.2 245.4,-700.3 240.27,-704.27 235.08,-707.97"/>
<polygon fill="#666666" stroke="#666666" stroke-width="1.1" points="233.36,-706.18 228.99,-712.17 236.14,-710.21 233.36,-706.18"/>
</g>
<!-- termin&#45;render&#45;passes -->
<g id="node45" class="node">
<title>termin&#45;render&#45;passes</title>
<path fill="#f7f7f7" stroke="#444444" d="M1501.5,-431.2C1501.5,-431.2 1393.5,-431.2 1393.5,-431.2 1387.5,-431.2 1381.5,-425.2 1381.5,-419.2 1381.5,-419.2 1381.5,-407.2 1381.5,-407.2 1381.5,-401.2 1387.5,-395.2 1393.5,-395.2 1393.5,-395.2 1501.5,-395.2 1501.5,-395.2 1507.5,-395.2 1513.5,-401.2 1513.5,-407.2 1513.5,-407.2 1513.5,-419.2 1513.5,-419.2 1513.5,-425.2 1507.5,-431.2 1501.5,-431.2"/>
<text text-anchor="middle" x="1447.5" y="-410.4" font-family="DejaVu Sans" font-size="11.00">termin&#45;render&#45;passes</text>
</g>
<!-- termin&#45;components&#45;render&#45;&gt;termin&#45;render&#45;passes -->
<g id="edge29" class="edge">
<title>termin&#45;components&#45;render&#45;&gt;termin&#45;render&#45;passes</title>
<path fill="none" stroke="#666666" stroke-width="1.1" d="M1252.28,-496.14C1293.1,-478.71 1354.86,-452.33 1397.74,-434.02"/>
<polygon fill="#666666" stroke="#666666" stroke-width="1.1" points="1398.71,-436.27 1404.19,-431.27 1396.79,-431.76 1398.71,-436.27"/>
</g>
<!-- termin&#45;runtime -->
<g id="node46" class="node">
<title>termin&#45;runtime</title>
<path fill="#f7f7f7" stroke="#444444" d="M1681,-362.2C1681,-362.2 1608,-362.2 1608,-362.2 1602,-362.2 1596,-356.2 1596,-350.2 1596,-350.2 1596,-338.2 1596,-338.2 1596,-332.2 1602,-326.2 1608,-326.2 1608,-326.2 1681,-326.2 1681,-326.2 1687,-326.2 1693,-332.2 1693,-338.2 1693,-338.2 1693,-350.2 1693,-350.2 1693,-356.2 1687,-362.2 1681,-362.2"/>
<text text-anchor="middle" x="1644.5" y="-341.4" font-family="DejaVu Sans" font-size="11.00">termin&#45;runtime</text>
</g>
<!-- termin&#45;components&#45;render&#45;&gt;termin&#45;runtime -->
<g id="edge30" class="edge">
<title>termin&#45;components&#45;render&#45;&gt;termin&#45;runtime</title>
<path fill="none" stroke="#666666" stroke-width="1.1" d="M1224.31,-496C1249.13,-465.92 1303.35,-406.44 1364,-379.2 1436.83,-346.48 1530.45,-341.26 1588.72,-341.77"/>
<polygon fill="#666666" stroke="#666666" stroke-width="1.1" points="1588.96,-344.22 1595.99,-341.86 1589.03,-339.32 1588.96,-344.22"/>
</g>
<!-- termin&#45;display&#45;&gt;termin&#45;components&#45;render -->
<g id="edge36" class="edge">
<title>termin&#45;display&#45;&gt;termin&#45;components&#45;render</title>
<path fill="none" stroke="#666666" stroke-width="1.1" d="M1011.11,-514.2C1041.85,-514.2 1083.4,-514.2 1120.4,-514.2"/>
<polygon fill="#666666" stroke="#666666" stroke-width="1.1" points="1120.73,-516.65 1127.73,-514.2 1120.73,-511.75 1120.73,-516.65"/>
</g>
<!-- termin&#45;engine -->
<g id="node33" class="node">
<title>termin&#45;engine</title>
<path fill="#f7f7f7" stroke="#444444" d="M1481,-292.2C1481,-292.2 1414,-292.2 1414,-292.2 1408,-292.2 1402,-286.2 1402,-280.2 1402,-280.2 1402,-268.2 1402,-268.2 1402,-262.2 1408,-256.2 1414,-256.2 1414,-256.2 1481,-256.2 1481,-256.2 1487,-256.2 1493,-262.2 1493,-268.2 1493,-268.2 1493,-280.2 1493,-280.2 1493,-286.2 1487,-292.2 1481,-292.2"/>
<text text-anchor="middle" x="1447.5" y="-271.4" font-family="DejaVu Sans" font-size="11.00">termin&#45;engine</text>
</g>
<!-- termin&#45;display&#45;&gt;termin&#45;engine -->
<g id="edge37" class="edge">
<title>termin&#45;display&#45;&gt;termin&#45;engine</title>
<path fill="none" stroke="#666666" stroke-width="1.1" d="M1001.65,-496.16C1088.81,-452.67 1310.21,-342.2 1403.75,-295.53"/>
<polygon fill="#666666" stroke="#666666" stroke-width="1.1" points="1405.09,-297.6 1410.26,-292.28 1402.9,-293.21 1405.09,-297.6"/>
</g>
<!-- termin&#45;graphics&#45;&gt;termin&#45;voxels -->
<g id="edge45" class="edge">
<title>termin&#45;graphics&#45;&gt;termin&#45;voxels</title>
<path fill="none" stroke="#666666" stroke-width="1.1" d="M589.02,-558.36C602.94,-575.68 623.74,-602.8 639,-628.2 673.5,-685.62 659.89,-713.78 704,-764.2 707.7,-768.42 712.04,-772.33 716.61,-775.88"/>
<polygon fill="#666666" stroke="#666666" stroke-width="1.1" points="715.4,-778.03 722.49,-780.19 718.29,-774.08 715.4,-778.03"/>
</g>
<!-- termin&#45;graphics&#45;&gt;termin&#45;render -->
<g id="edge44" class="edge">
<title>termin&#45;graphics&#45;&gt;termin&#45;render</title>
<path fill="none" stroke="#666666" stroke-width="1.1" d="M623.73,-533.09C648.94,-529.49 679.5,-525.13 704.9,-521.5"/>
<polygon fill="#666666" stroke="#666666" stroke-width="1.1" points="705.33,-523.91 711.91,-520.5 704.64,-519.06 705.33,-523.91"/>
</g>
<!-- termin&#45;gui -->
<g id="node35" class="node">
<title>termin&#45;gui</title>
<path fill="#f7f7f7" stroke="#444444" d="M780.5,-294.2C780.5,-294.2 733.5,-294.2 733.5,-294.2 727.5,-294.2 721.5,-288.2 721.5,-282.2 721.5,-282.2 721.5,-270.2 721.5,-270.2 721.5,-264.2 727.5,-258.2 733.5,-258.2 733.5,-258.2 780.5,-258.2 780.5,-258.2 786.5,-258.2 792.5,-264.2 792.5,-270.2 792.5,-270.2 792.5,-282.2 792.5,-282.2 792.5,-288.2 786.5,-294.2 780.5,-294.2"/>
<text text-anchor="middle" x="757" y="-273.4" font-family="DejaVu Sans" font-size="11.00">termin&#45;gui</text>
</g>
<!-- termin&#45;graphics&#45;&gt;termin&#45;gui -->
<g id="edge42" class="edge">
<title>termin&#45;graphics&#45;&gt;termin&#45;gui</title>
<path fill="none" stroke="#666666" stroke-width="1.1" d="M617.83,-522.08C625.47,-517.64 632.91,-512.36 639,-506.2 654.85,-490.16 718.13,-357.11 744.44,-301"/>
<polygon fill="#666666" stroke="#666666" stroke-width="1.1" points="746.7,-301.93 747.45,-294.55 742.27,-299.85 746.7,-301.93"/>
</g>
<!-- termin&#45;materials -->
<g id="node41" class="node">
<title>termin&#45;materials</title>
<path fill="#f7f7f7" stroke="#444444" d="M798,-438.2C798,-438.2 716,-438.2 716,-438.2 710,-438.2 704,-432.2 704,-426.2 704,-426.2 704,-414.2 704,-414.2 704,-408.2 710,-402.2 716,-402.2 716,-402.2 798,-402.2 798,-402.2 804,-402.2 810,-408.2 810,-414.2 810,-414.2 810,-426.2 810,-426.2 810,-432.2 804,-438.2 798,-438.2"/>
<text text-anchor="middle" x="757" y="-417.4" font-family="DejaVu Sans" font-size="11.00">termin&#45;materials</text>
</g>
<!-- termin&#45;graphics&#45;&gt;termin&#45;materials -->
<g id="edge43" class="edge">
<title>termin&#45;graphics&#45;&gt;termin&#45;materials</title>
<path fill="none" stroke="#666666" stroke-width="1.1" d="M613.27,-522.05C622.04,-517.35 631.08,-511.97 639,-506.2 671.76,-482.32 670.29,-464.72 704,-442.2 704.13,-442.11 704.26,-442.03 704.38,-441.94"/>
<polygon fill="#666666" stroke="#666666" stroke-width="1.1" points="705.67,-444.02 710.37,-438.28 703.12,-439.84 705.67,-444.02"/>
</g>
<!-- termin&#45;lighting&#45;&gt;termin&#45;render -->
<g id="edge51" class="edge">
<title>termin&#45;lighting&#45;&gt;termin&#45;render</title>
<path fill="none" stroke="#666666" stroke-width="1.1" d="M620.87,-483.01C646.59,-488.95 678.51,-496.31 704.87,-502.4"/>
<polygon fill="#666666" stroke="#666666" stroke-width="1.1" points="704.42,-504.81 711.79,-504 705.52,-500.03 704.42,-504.81"/>
</g>
<!-- termin&#45;render&#45;&gt;termin&#45;display -->
<g id="edge60" class="edge">
<title>termin&#45;render&#45;&gt;termin&#45;display</title>
<path fill="none" stroke="#666666" stroke-width="1.1" d="M802.08,-514.2C833.9,-514.2 877.01,-514.2 910.68,-514.2"/>
<polygon fill="#666666" stroke="#666666" stroke-width="1.1" points="910.71,-516.65 917.71,-514.2 910.71,-511.75 910.71,-516.65"/>
</g>
<!-- termin&#45;render&#45;&gt;termin&#45;components&#45;foliage -->
<g id="edge59" class="edge">
<title>termin&#45;render&#45;&gt;termin&#45;components&#45;foliage</title>
<path fill="none" stroke="#666666" stroke-width="1.1" d="M782.1,-496.11C803.82,-480.13 836.86,-456.57 867,-438.2 884,-427.83 903.29,-417.39 920.14,-408.67"/>
<polygon fill="#666666" stroke="#666666" stroke-width="1.1" points="921.6,-410.67 926.71,-405.3 919.37,-406.32 921.6,-410.67"/>
</g>
<!-- termin&#45;engine&#45;&gt;termin&#45;app -->
<g id="edge39" class="edge">
<title>termin&#45;engine&#45;&gt;termin&#45;app</title>
<path fill="none" stroke="#666666" stroke-width="1.1" d="M1466.96,-292.23C1486.63,-312.17 1517.82,-345.89 1539,-379.2 1583.96,-449.89 1619.49,-543.18 1635.01,-587.19"/>
<polygon fill="#666666" stroke="#666666" stroke-width="1.1" points="1632.79,-588.26 1637.41,-594.06 1637.42,-586.65 1632.79,-588.26"/>
</g>
<!-- termin&#45;engine&#45;&gt;termin&#45;android -->
<g id="edge38" class="edge">
<title>termin&#45;engine&#45;&gt;termin&#45;android</title>
<path fill="none" stroke="#666666" stroke-width="1.1" d="M1493.24,-274.2C1521.76,-274.2 1558.9,-274.2 1589.12,-274.2"/>
<polygon fill="#666666" stroke="#666666" stroke-width="1.1" points="1589.25,-276.65 1596.25,-274.2 1589.25,-271.75 1589.25,-276.65"/>
</g>
<!-- termin&#45;engine&#45;&gt;termin&#45;openxr -->
<g id="edge40" class="edge">
<title>termin&#45;engine&#45;&gt;termin&#45;openxr</title>
<path fill="none" stroke="#666666" stroke-width="1.1" d="M1473.99,-292.37C1509.47,-317.66 1573.67,-363.42 1612.07,-390.79"/>
<polygon fill="#666666" stroke="#666666" stroke-width="1.1" points="1610.88,-392.95 1618,-395.02 1613.72,-388.96 1610.88,-392.95"/>
</g>
<!-- termin&#45;engine&#45;&gt;termin&#45;runtime -->
<g id="edge41" class="edge">
<title>termin&#45;engine&#45;&gt;termin&#45;runtime</title>
<path fill="none" stroke="#666666" stroke-width="1.1" d="M1493.24,-290.26C1521.78,-300.5 1558.94,-313.84 1589.17,-324.7"/>
<polygon fill="#666666" stroke="#666666" stroke-width="1.1" points="1588.49,-327.05 1595.91,-327.11 1590.15,-322.44 1588.49,-327.05"/>
</g>
<!-- tcplot -->
<g id="node34" class="node">
<title>tcplot</title>
<path fill="#f7f7f7" stroke="#444444" d="M979.5,-231.2C979.5,-231.2 949.5,-231.2 949.5,-231.2 943.5,-231.2 937.5,-225.2 937.5,-219.2 937.5,-219.2 937.5,-207.2 937.5,-207.2 937.5,-201.2 943.5,-195.2 949.5,-195.2 949.5,-195.2 979.5,-195.2 979.5,-195.2 985.5,-195.2 991.5,-201.2 991.5,-207.2 991.5,-207.2 991.5,-219.2 991.5,-219.2 991.5,-225.2 985.5,-231.2 979.5,-231.2"/>
<text text-anchor="middle" x="964.5" y="-210.4" font-family="DejaVu Sans" font-size="11.00">tcplot</text>
</g>
<!-- tcplot&#45;&gt;termin&#45;csharp -->
<g id="edge1" class="edge">
<title>tcplot&#45;&gt;termin&#45;csharp</title>
<path fill="none" stroke="#666666" stroke-width="1.1" d="M991.78,-207.47C1073.6,-190.55 1330.79,-144.29 1539,-182.2 1610.95,-195.3 1633.75,-197.31 1693,-240.2 1735.18,-270.73 1770.06,-321.52 1788.44,-351.64"/>
<polygon fill="#666666" stroke="#666666" stroke-width="1.1" points="1786.4,-353 1792.11,-357.74 1790.6,-350.47 1786.4,-353"/>
</g>
<!-- termin&#45;gui&#45;&gt;termin&#45;csg -->
<g id="edge47" class="edge">
<title>termin&#45;gui&#45;&gt;termin&#45;csg</title>
<path fill="none" stroke="#666666" stroke-width="1.1" d="M721.13,-270.54C669.54,-264.13 571.96,-259.71 507,-304.2 461.89,-335.09 489.6,-375.51 450,-413.2 399.3,-461.46 350.35,-424.24 307,-479.2 227,-580.62 322.12,-657.03 250,-764.2 247.16,-768.41 243.61,-772.23 239.7,-775.66"/>
<polygon fill="#666666" stroke="#666666" stroke-width="1.1" points="238.11,-773.8 234.19,-780.09 241.18,-777.62 238.11,-773.8"/>
</g>
<!-- termin&#45;gui&#45;&gt;tcplot -->
<g id="edge46" class="edge">
<title>termin&#45;gui&#45;&gt;tcplot</title>
<path fill="none" stroke="#666666" stroke-width="1.1" d="M792.86,-265.51C831.35,-253.71 892.83,-234.86 930.54,-223.3"/>
<polygon fill="#666666" stroke="#666666" stroke-width="1.1" points="931.32,-225.63 937.29,-221.23 929.88,-220.94 931.32,-225.63"/>
</g>
<!-- termin&#45;nodegraph -->
<g id="node36" class="node">
<title>termin&#45;nodegraph</title>
<path fill="#f7f7f7" stroke="#444444" d="M1009,-299.2C1009,-299.2 920,-299.2 920,-299.2 914,-299.2 908,-293.2 908,-287.2 908,-287.2 908,-275.2 908,-275.2 908,-269.2 914,-263.2 920,-263.2 920,-263.2 1009,-263.2 1009,-263.2 1015,-263.2 1021,-269.2 1021,-275.2 1021,-275.2 1021,-287.2 1021,-287.2 1021,-293.2 1015,-299.2 1009,-299.2"/>
<text text-anchor="middle" x="964.5" y="-278.4" font-family="DejaVu Sans" font-size="11.00">termin&#45;nodegraph</text>
</g>
<!-- termin&#45;gui&#45;&gt;termin&#45;nodegraph -->
<g id="edge48" class="edge">
<title>termin&#45;gui&#45;&gt;termin&#45;nodegraph</title>
<path fill="none" stroke="#666666" stroke-width="1.1" d="M792.86,-277.05C822.26,-277.76 865.08,-278.8 900.47,-279.66"/>
<polygon fill="#666666" stroke="#666666" stroke-width="1.1" points="900.85,-282.12 907.9,-279.84 900.97,-277.22 900.85,-282.12"/>
</g>
<!-- termin&#45;nodegraph&#45;&gt;termin&#45;app -->
<g id="edge57" class="edge">
<title>termin&#45;nodegraph&#45;&gt;termin&#45;app</title>
<path fill="none" stroke="#666666" stroke-width="1.1" d="M1021.06,-295.84C1093.11,-317.31 1219,-363.54 1299,-442.2 1344.78,-487.21 1311.93,-533.64 1364,-571.2 1434.33,-621.92 1540.84,-622.14 1600,-617.42"/>
<polygon fill="#666666" stroke="#666666" stroke-width="1.1" points="1600.21,-619.86 1606.98,-616.82 1599.79,-614.97 1600.21,-619.86"/>
</g>
<!-- termin&#45;render&#45;passes&#45;&gt;termin&#45;app -->
<g id="edge62" class="edge">
<title>termin&#45;render&#45;passes&#45;&gt;termin&#45;app</title>
<path fill="none" stroke="#666666" stroke-width="1.1" d="M1500.26,-431.33C1513.77,-437.58 1527.69,-445.5 1539,-455.2 1583.15,-493.07 1616.35,-553.99 1632.53,-587.73"/>
<polygon fill="#666666" stroke="#666666" stroke-width="1.1" points="1630.34,-588.81 1635.54,-594.1 1634.77,-586.72 1630.34,-588.81"/>
</g>
<!-- termin&#45;render&#45;passes&#45;&gt;termin&#45;android -->
<g id="edge61" class="edge">
<title>termin&#45;render&#45;passes&#45;&gt;termin&#45;android</title>
<path fill="none" stroke="#666666" stroke-width="1.1" d="M1473.99,-395.03C1509.47,-369.74 1573.67,-323.97 1612.07,-296.6"/>
<polygon fill="#666666" stroke="#666666" stroke-width="1.1" points="1613.72,-298.43 1618,-292.37 1610.88,-294.44 1613.72,-298.43"/>
</g>
<!-- termin&#45;render&#45;passes&#45;&gt;termin&#45;openxr -->
<g id="edge63" class="edge">
<title>termin&#45;render&#45;passes&#45;&gt;termin&#45;openxr</title>
<path fill="none" stroke="#666666" stroke-width="1.1" d="M1513.7,-413.2C1538.69,-413.2 1566.86,-413.2 1590.56,-413.2"/>
<polygon fill="#666666" stroke="#666666" stroke-width="1.1" points="1590.76,-415.65 1597.76,-413.2 1590.76,-410.75 1590.76,-415.65"/>
</g>
</g>
</svg>
