<?xml version="1.0" encoding="UTF-8" standalone="no"?>
<!DOCTYPE svg PUBLIC "-//W3C//DTD SVG 1.1//EN"
 "http://www.w3.org/Graphics/SVG/1.1/DTD/svg11.dtd">
<!-- Generated by graphviz version 2.43.0 (0)
 -->
<!-- Title: termin_dependencies Pages: 1 -->
<svg width="1577pt" height="728pt"
 viewBox="0.00 0.00 1576.80 727.50" xmlns="http://www.w3.org/2000/svg" xmlns:xlink="http://www.w3.org/1999/xlink">
<g id="graph0" class="graph" transform="scale(1 1) rotate(0) translate(14.4 713.1)">
<title>termin_dependencies</title>
<polygon fill="white" stroke="transparent" points="-14.4,14.4 -14.4,-713.1 1562.4,-713.1 1562.4,14.4 -14.4,14.4"/>
<g id="clust1" class="cluster">
<title>cluster_foundation</title>
<path fill="white" stroke="#d9d9d9" d="M20,-283.23C20,-283.23 750,-283.23 750,-283.23 756,-283.23 762,-289.23 762,-295.23 762,-295.23 762,-516.23 762,-516.23 762,-522.23 756,-528.23 750,-528.23 750,-528.23 20,-528.23 20,-528.23 14,-528.23 8,-522.23 8,-516.23 8,-516.23 8,-295.23 8,-295.23 8,-289.23 14,-283.23 20,-283.23"/>
<text text-anchor="middle" x="385" y="-513.03" font-family="Times,serif" font-size="14.00">Foundation</text>
</g>
<g id="clust2" class="cluster">
<title>cluster_render</title>
<path fill="white" stroke="#d9d9d9" d="M332,-197.23C332,-197.23 985.5,-197.23 985.5,-197.23 991.5,-197.23 997.5,-203.23 997.5,-209.23 997.5,-209.23 997.5,-260.23 997.5,-260.23 997.5,-266.23 991.5,-272.23 985.5,-272.23 985.5,-272.23 332,-272.23 332,-272.23 326,-272.23 320,-266.23 320,-260.23 320,-260.23 320,-209.23 320,-209.23 320,-203.23 326,-197.23 332,-197.23"/>
<text text-anchor="middle" x="658.75" y="-257.03" font-family="Times,serif" font-size="14.00">Render Stack</text>
</g>
<g id="clust3" class="cluster">
<title>cluster_components</title>
<path fill="white" stroke="#d9d9d9" d="M823,-404.23C823,-404.23 1226,-404.23 1226,-404.23 1232,-404.23 1238,-410.23 1238,-416.23 1238,-416.23 1238,-603.23 1238,-603.23 1238,-609.23 1232,-615.23 1226,-615.23 1226,-615.23 823,-615.23 823,-615.23 817,-615.23 811,-609.23 811,-603.23 811,-603.23 811,-416.23 811,-416.23 811,-410.23 817,-404.23 823,-404.23"/>
<text text-anchor="middle" x="1024.5" y="-600.03" font-family="Times,serif" font-size="14.00">Other Components</text>
</g>
<g id="clust4" class="cluster">
<title>cluster_runtime</title>
<path fill="white" stroke="#d9d9d9" d="M1105,-234.23C1105,-234.23 1188,-234.23 1188,-234.23 1194,-234.23 1200,-240.23 1200,-246.23 1200,-246.23 1200,-297.23 1200,-297.23 1200,-303.23 1194,-309.23 1188,-309.23 1188,-309.23 1105,-309.23 1105,-309.23 1099,-309.23 1093,-303.23 1093,-297.23 1093,-297.23 1093,-246.23 1093,-246.23 1093,-240.23 1099,-234.23 1105,-234.23"/>
<text text-anchor="middle" x="1146.5" y="-294.03" font-family="Times,serif" font-size="14.00">Runtime</text>
</g>
<g id="clust5" class="cluster">
<title>cluster_ui</title>
<path fill="white" stroke="#d9d9d9" d="M877,-114.23C877,-114.23 1199,-114.23 1199,-114.23 1205,-114.23 1211,-120.23 1211,-126.23 1211,-126.23 1211,-177.23 1211,-177.23 1211,-183.23 1205,-189.23 1199,-189.23 1199,-189.23 877,-189.23 877,-189.23 871,-189.23 865,-183.23 865,-177.23 865,-177.23 865,-126.23 865,-126.23 865,-120.23 871,-114.23 877,-114.23"/>
<text text-anchor="middle" x="1038" y="-174.03" font-family="Times,serif" font-size="14.00">UI</text>
</g>
<g id="clust6" class="cluster">
<title>cluster_application</title>
<path fill="white" stroke="#d9d9d9" d="M1299,-166.23C1299,-166.23 1388,-166.23 1388,-166.23 1394,-166.23 1400,-172.23 1400,-178.23 1400,-178.23 1400,-297.23 1400,-297.23 1400,-303.23 1394,-309.23 1388,-309.23 1388,-309.23 1299,-309.23 1299,-309.23 1293,-309.23 1287,-303.23 1287,-297.23 1287,-297.23 1287,-178.23 1287,-178.23 1287,-172.23 1293,-166.23 1299,-166.23"/>
<text text-anchor="middle" x="1343.5" y="-294.03" font-family="Times,serif" font-size="14.00">Application</text>
</g>
<!-- termin&#45;base -->
<g id="node1" class="node">
<title>termin&#45;base</title>
<path fill="#f7f7f7" stroke="#444444" d="M85,-420.23C85,-420.23 28,-420.23 28,-420.23 22,-420.23 16,-414.23 16,-408.23 16,-408.23 16,-396.23 16,-396.23 16,-390.23 22,-384.23 28,-384.23 28,-384.23 85,-384.23 85,-384.23 91,-384.23 97,-390.23 97,-396.23 97,-396.23 97,-408.23 97,-408.23 97,-414.23 91,-420.23 85,-420.23"/>
<text text-anchor="middle" x="56.5" y="-399.43" font-family="DejaVu Sans" font-size="11.00">termin&#45;base</text>
</g>
<!-- termin&#45;mesh -->
<g id="node2" class="node">
<title>termin&#45;mesh</title>
<path fill="#f7f7f7" stroke="#444444" d="M242.5,-497.23C242.5,-497.23 182.5,-497.23 182.5,-497.23 176.5,-497.23 170.5,-491.23 170.5,-485.23 170.5,-485.23 170.5,-473.23 170.5,-473.23 170.5,-467.23 176.5,-461.23 182.5,-461.23 182.5,-461.23 242.5,-461.23 242.5,-461.23 248.5,-461.23 254.5,-467.23 254.5,-473.23 254.5,-473.23 254.5,-485.23 254.5,-485.23 254.5,-491.23 248.5,-497.23 242.5,-497.23"/>
<text text-anchor="middle" x="212.5" y="-476.43" font-family="DejaVu Sans" font-size="11.00">termin&#45;mesh</text>
</g>
<!-- termin&#45;base&#45;&gt;termin&#45;mesh -->
<g id="edge1" class="edge">
<title>termin&#45;base&#45;&gt;termin&#45;mesh</title>
<path fill="none" stroke="#666666" stroke-width="1.1" d="M93.61,-420.29C116.12,-431.54 145.19,-446.08 168.84,-457.9"/>
<polygon fill="#666666" stroke="#666666" stroke-width="1.1" points="168,-460.22 175.35,-461.16 170.19,-455.84 168,-460.22"/>
</g>
<!-- termin&#45;inspect -->
<g id="node3" class="node">
<title>termin&#45;inspect</title>
<path fill="#f7f7f7" stroke="#444444" d="M247.5,-395.23C247.5,-395.23 177.5,-395.23 177.5,-395.23 171.5,-395.23 165.5,-389.23 165.5,-383.23 165.5,-383.23 165.5,-371.23 165.5,-371.23 165.5,-365.23 171.5,-359.23 177.5,-359.23 177.5,-359.23 247.5,-359.23 247.5,-359.23 253.5,-359.23 259.5,-365.23 259.5,-371.23 259.5,-371.23 259.5,-383.23 259.5,-383.23 259.5,-389.23 253.5,-395.23 247.5,-395.23"/>
<text text-anchor="middle" x="212.5" y="-374.43" font-family="DejaVu Sans" font-size="11.00">termin&#45;inspect</text>
</g>
<!-- termin&#45;base&#45;&gt;termin&#45;inspect -->
<g id="edge2" class="edge">
<title>termin&#45;base&#45;&gt;termin&#45;inspect</title>
<path fill="none" stroke="#666666" stroke-width="1.1" d="M97.16,-395.79C115.81,-392.77 138.33,-389.11 158.42,-385.85"/>
<polygon fill="#666666" stroke="#666666" stroke-width="1.1" points="158.91,-388.25 165.42,-384.71 158.12,-383.42 158.91,-388.25"/>
</g>
<!-- termin&#45;modules -->
<g id="node6" class="node">
<title>termin&#45;modules</title>
<path fill="#f7f7f7" stroke="#444444" d="M251,-327.23C251,-327.23 174,-327.23 174,-327.23 168,-327.23 162,-321.23 162,-315.23 162,-315.23 162,-303.23 162,-303.23 162,-297.23 168,-291.23 174,-291.23 174,-291.23 251,-291.23 251,-291.23 257,-291.23 263,-297.23 263,-303.23 263,-303.23 263,-315.23 263,-315.23 263,-321.23 257,-327.23 251,-327.23"/>
<text text-anchor="middle" x="212.5" y="-306.43" font-family="DejaVu Sans" font-size="11.00">termin&#45;modules</text>
</g>
<!-- termin&#45;base&#45;&gt;termin&#45;modules -->
<g id="edge3" class="edge">
<title>termin&#45;base&#45;&gt;termin&#45;modules</title>
<path fill="none" stroke="#666666" stroke-width="1.1" d="M87.56,-384.08C112.68,-368.91 148.58,-347.23 175.28,-331.1"/>
<polygon fill="#666666" stroke="#666666" stroke-width="1.1" points="176.79,-333.05 181.52,-327.34 174.26,-328.86 176.79,-333.05"/>
</g>
<!-- termin&#45;physics -->
<g id="node8" class="node">
<title>termin&#45;physics</title>
<path fill="#f7f7f7" stroke="#444444" d="M742,-448.23C742,-448.23 670,-448.23 670,-448.23 664,-448.23 658,-442.23 658,-436.23 658,-436.23 658,-424.23 658,-424.23 658,-418.23 664,-412.23 670,-412.23 670,-412.23 742,-412.23 742,-412.23 748,-412.23 754,-418.23 754,-424.23 754,-424.23 754,-436.23 754,-436.23 754,-442.23 748,-448.23 742,-448.23"/>
<text text-anchor="middle" x="706" y="-427.43" font-family="DejaVu Sans" font-size="11.00">termin&#45;physics</text>
</g>
<!-- termin&#45;base&#45;&gt;termin&#45;physics -->
<g id="edge4" class="edge">
<title>termin&#45;base&#45;&gt;termin&#45;physics</title>
<path fill="none" stroke="#666666" stroke-width="1.1" d="M97.16,-406.13C116.67,-407.92 140.55,-409.93 162,-411.23 340.66,-422.05 552.8,-427.27 650.62,-429.25"/>
<polygon fill="#666666" stroke="#666666" stroke-width="1.1" points="650.7,-431.7 657.75,-429.39 650.8,-426.8 650.7,-431.7"/>
</g>
<!-- termin&#45;graphics -->
<g id="node9" class="node">
<title>termin&#45;graphics</title>
<path fill="#f7f7f7" stroke="#444444" d="M417,-241.23C417,-241.23 340,-241.23 340,-241.23 334,-241.23 328,-235.23 328,-229.23 328,-229.23 328,-217.23 328,-217.23 328,-211.23 334,-205.23 340,-205.23 340,-205.23 417,-205.23 417,-205.23 423,-205.23 429,-211.23 429,-217.23 429,-217.23 429,-229.23 429,-229.23 429,-235.23 423,-241.23 417,-241.23"/>
<text text-anchor="middle" x="378.5" y="-220.43" font-family="DejaVu Sans" font-size="11.00">termin&#45;graphics</text>
</g>
<!-- termin&#45;mesh&#45;&gt;termin&#45;graphics -->
<g id="edge5" class="edge">
<title>termin&#45;mesh&#45;&gt;termin&#45;graphics</title>
<path fill="none" stroke="#666666" stroke-width="1.1" d="M228.6,-460.97C239.1,-447.71 252.97,-429.04 263,-411.23 295.17,-354.13 282.12,-328.72 320,-275.23 327.54,-264.58 337.62,-254.54 347.23,-246.17"/>
<polygon fill="#666666" stroke="#666666" stroke-width="1.1" points="349.05,-247.84 352.82,-241.45 345.89,-244.1 349.05,-247.84"/>
</g>
<!-- termin&#45;components&#45;collision -->
<g id="node13" class="node">
<title>termin&#45;components&#45;collision</title>
<path fill="#f7f7f7" stroke="#444444" d="M981.5,-448.23C981.5,-448.23 835.5,-448.23 835.5,-448.23 829.5,-448.23 823.5,-442.23 823.5,-436.23 823.5,-436.23 823.5,-424.23 823.5,-424.23 823.5,-418.23 829.5,-412.23 835.5,-412.23 835.5,-412.23 981.5,-412.23 981.5,-412.23 987.5,-412.23 993.5,-418.23 993.5,-424.23 993.5,-424.23 993.5,-436.23 993.5,-436.23 993.5,-442.23 987.5,-448.23 981.5,-448.23"/>
<text text-anchor="middle" x="908.5" y="-427.43" font-family="DejaVu Sans" font-size="11.00">termin&#45;components&#45;collision</text>
</g>
<!-- termin&#45;mesh&#45;&gt;termin&#45;components&#45;collision -->
<g id="edge6" class="edge">
<title>termin&#45;mesh&#45;&gt;termin&#45;components&#45;collision</title>
<path fill="none" stroke="#666666" stroke-width="1.1" d="M254.66,-480.93C346.27,-484.1 573.76,-488.55 762,-464.23 786.35,-461.09 812.59,-455.62 835.99,-449.98"/>
<polygon fill="#666666" stroke="#666666" stroke-width="1.1" points="836.61,-452.35 842.83,-448.3 835.45,-447.59 836.61,-452.35"/>
</g>
<!-- termin&#45;components&#45;mesh -->
<g id="node15" class="node">
<title>termin&#45;components&#45;mesh</title>
<path fill="#f7f7f7" stroke="#444444" d="M974.5,-584.23C974.5,-584.23 842.5,-584.23 842.5,-584.23 836.5,-584.23 830.5,-578.23 830.5,-572.23 830.5,-572.23 830.5,-560.23 830.5,-560.23 830.5,-554.23 836.5,-548.23 842.5,-548.23 842.5,-548.23 974.5,-548.23 974.5,-548.23 980.5,-548.23 986.5,-554.23 986.5,-560.23 986.5,-560.23 986.5,-572.23 986.5,-572.23 986.5,-578.23 980.5,-584.23 974.5,-584.23"/>
<text text-anchor="middle" x="908.5" y="-563.43" font-family="DejaVu Sans" font-size="11.00">termin&#45;components&#45;mesh</text>
</g>
<!-- termin&#45;mesh&#45;&gt;termin&#45;components&#45;mesh -->
<g id="edge7" class="edge">
<title>termin&#45;mesh&#45;&gt;termin&#45;components&#45;mesh</title>
<path fill="none" stroke="#666666" stroke-width="1.1" d="M254.69,-491.35C274.34,-496.79 298.24,-502.94 320,-507.23 468.68,-536.56 507.12,-537.98 658,-552.23 712.96,-557.43 774.92,-560.91 823.35,-563.11"/>
<polygon fill="#666666" stroke="#666666" stroke-width="1.1" points="823.29,-565.56 830.39,-563.43 823.51,-560.67 823.29,-565.56"/>
</g>
<!-- termin&#45;scene -->
<g id="node4" class="node">
<title>termin&#45;scene</title>
<path fill="#f7f7f7" stroke="#444444" d="M410,-395.23C410,-395.23 347,-395.23 347,-395.23 341,-395.23 335,-389.23 335,-383.23 335,-383.23 335,-371.23 335,-371.23 335,-365.23 341,-359.23 347,-359.23 347,-359.23 410,-359.23 410,-359.23 416,-359.23 422,-365.23 422,-371.23 422,-371.23 422,-383.23 422,-383.23 422,-389.23 416,-395.23 410,-395.23"/>
<text text-anchor="middle" x="378.5" y="-374.43" font-family="DejaVu Sans" font-size="11.00">termin&#45;scene</text>
</g>
<!-- termin&#45;inspect&#45;&gt;termin&#45;scene -->
<g id="edge8" class="edge">
<title>termin&#45;inspect&#45;&gt;termin&#45;scene</title>
<path fill="none" stroke="#666666" stroke-width="1.1" d="M259.62,-377.23C280.81,-377.23 305.99,-377.23 327.63,-377.23"/>
<polygon fill="#666666" stroke="#666666" stroke-width="1.1" points="327.82,-379.68 334.82,-377.23 327.82,-374.78 327.82,-379.68"/>
</g>
<!-- termin&#45;input -->
<g id="node5" class="node">
<title>termin&#45;input</title>
<path fill="#f7f7f7" stroke="#444444" d="M572.5,-327.23C572.5,-327.23 514.5,-327.23 514.5,-327.23 508.5,-327.23 502.5,-321.23 502.5,-315.23 502.5,-315.23 502.5,-303.23 502.5,-303.23 502.5,-297.23 508.5,-291.23 514.5,-291.23 514.5,-291.23 572.5,-291.23 572.5,-291.23 578.5,-291.23 584.5,-297.23 584.5,-303.23 584.5,-303.23 584.5,-315.23 584.5,-315.23 584.5,-321.23 578.5,-327.23 572.5,-327.23"/>
<text text-anchor="middle" x="543.5" y="-306.43" font-family="DejaVu Sans" font-size="11.00">termin&#45;input</text>
</g>
<!-- termin&#45;scene&#45;&gt;termin&#45;input -->
<g id="edge9" class="edge">
<title>termin&#45;scene&#45;&gt;termin&#45;input</title>
<path fill="none" stroke="#666666" stroke-width="1.1" d="M422.33,-359.37C444.9,-349.95 472.64,-338.38 495.77,-328.73"/>
<polygon fill="#666666" stroke="#666666" stroke-width="1.1" points="496.96,-330.88 502.48,-325.93 495.08,-326.36 496.96,-330.88"/>
</g>
<!-- termin&#45;collision -->
<g id="node7" class="node">
<title>termin&#45;collision</title>
<path fill="#f7f7f7" stroke="#444444" d="M581,-395.23C581,-395.23 506,-395.23 506,-395.23 500,-395.23 494,-389.23 494,-383.23 494,-383.23 494,-371.23 494,-371.23 494,-365.23 500,-359.23 506,-359.23 506,-359.23 581,-359.23 581,-359.23 587,-359.23 593,-365.23 593,-371.23 593,-371.23 593,-383.23 593,-383.23 593,-389.23 587,-395.23 581,-395.23"/>
<text text-anchor="middle" x="543.5" y="-374.43" font-family="DejaVu Sans" font-size="11.00">termin&#45;collision</text>
</g>
<!-- termin&#45;scene&#45;&gt;termin&#45;collision -->
<g id="edge10" class="edge">
<title>termin&#45;scene&#45;&gt;termin&#45;collision</title>
<path fill="none" stroke="#666666" stroke-width="1.1" d="M422.33,-377.23C442.07,-377.23 465.76,-377.23 486.87,-377.23"/>
<polygon fill="#666666" stroke="#666666" stroke-width="1.1" points="486.92,-379.68 493.92,-377.23 486.92,-374.78 486.92,-379.68"/>
</g>
<!-- termin&#45;render -->
<g id="node10" class="node">
<title>termin&#45;render</title>
<path fill="#f7f7f7" stroke="#444444" d="M576.5,-241.23C576.5,-241.23 510.5,-241.23 510.5,-241.23 504.5,-241.23 498.5,-235.23 498.5,-229.23 498.5,-229.23 498.5,-217.23 498.5,-217.23 498.5,-211.23 504.5,-205.23 510.5,-205.23 510.5,-205.23 576.5,-205.23 576.5,-205.23 582.5,-205.23 588.5,-211.23 588.5,-217.23 588.5,-217.23 588.5,-229.23 588.5,-229.23 588.5,-235.23 582.5,-241.23 576.5,-241.23"/>
<text text-anchor="middle" x="543.5" y="-220.43" font-family="DejaVu Sans" font-size="11.00">termin&#45;render</text>
</g>
<!-- termin&#45;scene&#45;&gt;termin&#45;render -->
<g id="edge11" class="edge">
<title>termin&#45;scene&#45;&gt;termin&#45;render</title>
<path fill="none" stroke="#666666" stroke-width="1.1" d="M398.84,-358.96C428.57,-330.87 485.49,-277.1 518.04,-246.34"/>
<polygon fill="#666666" stroke="#666666" stroke-width="1.1" points="520.03,-247.83 523.44,-241.24 516.67,-244.27 520.03,-247.83"/>
</g>
<!-- termin&#45;scene&#45;&gt;termin&#45;components&#45;mesh -->
<g id="edge12" class="edge">
<title>termin&#45;scene&#45;&gt;termin&#45;components&#45;mesh</title>
<path fill="none" stroke="#666666" stroke-width="1.1" d="M400.47,-395.33C422.42,-413.41 458.57,-440.82 494,-457.23 602.28,-507.39 737.59,-537.53 823.31,-553.02"/>
<polygon fill="#666666" stroke="#666666" stroke-width="1.1" points="823.1,-555.47 830.42,-554.29 823.96,-550.65 823.1,-555.47"/>
</g>
<!-- termin&#45;components&#45;kinematic -->
<g id="node16" class="node">
<title>termin&#45;components&#45;kinematic</title>
<path fill="#f7f7f7" stroke="#444444" d="M986,-516.23C986,-516.23 831,-516.23 831,-516.23 825,-516.23 819,-510.23 819,-504.23 819,-504.23 819,-492.23 819,-492.23 819,-486.23 825,-480.23 831,-480.23 831,-480.23 986,-480.23 986,-480.23 992,-480.23 998,-486.23 998,-492.23 998,-492.23 998,-504.23 998,-504.23 998,-510.23 992,-516.23 986,-516.23"/>
<text text-anchor="middle" x="908.5" y="-495.43" font-family="DejaVu Sans" font-size="11.00">termin&#45;components&#45;kinematic</text>
</g>
<!-- termin&#45;scene&#45;&gt;termin&#45;components&#45;kinematic -->
<g id="edge13" class="edge">
<title>termin&#45;scene&#45;&gt;termin&#45;components&#45;kinematic</title>
<path fill="none" stroke="#666666" stroke-width="1.1" d="M422.31,-393.07C476.47,-412.53 572.96,-445.29 658,-464.23 708.23,-475.42 765.01,-483.5 811.71,-488.98"/>
<polygon fill="#666666" stroke="#666666" stroke-width="1.1" points="811.58,-491.43 818.82,-489.8 812.14,-486.56 811.58,-491.43"/>
</g>
<!-- termin&#45;display -->
<g id="node11" class="node">
<title>termin&#45;display</title>
<path fill="#f7f7f7" stroke="#444444" d="M740.5,-241.23C740.5,-241.23 671.5,-241.23 671.5,-241.23 665.5,-241.23 659.5,-235.23 659.5,-229.23 659.5,-229.23 659.5,-217.23 659.5,-217.23 659.5,-211.23 665.5,-205.23 671.5,-205.23 671.5,-205.23 740.5,-205.23 740.5,-205.23 746.5,-205.23 752.5,-211.23 752.5,-217.23 752.5,-217.23 752.5,-229.23 752.5,-229.23 752.5,-235.23 746.5,-241.23 740.5,-241.23"/>
<text text-anchor="middle" x="706" y="-220.43" font-family="DejaVu Sans" font-size="11.00">termin&#45;display</text>
</g>
<!-- termin&#45;input&#45;&gt;termin&#45;display -->
<g id="edge14" class="edge">
<title>termin&#45;input&#45;&gt;termin&#45;display</title>
<path fill="none" stroke="#666666" stroke-width="1.1" d="M578.15,-291.2C603.51,-277.62 638.37,-258.94 665.13,-244.6"/>
<polygon fill="#666666" stroke="#666666" stroke-width="1.1" points="666.39,-246.7 671.4,-241.24 664.07,-242.38 666.39,-246.7"/>
</g>
<!-- termin -->
<g id="node20" class="node">
<title>termin</title>
<path fill="#f7f7f7" stroke="#444444" d="M1358.5,-278.23C1358.5,-278.23 1328.5,-278.23 1328.5,-278.23 1322.5,-278.23 1316.5,-272.23 1316.5,-266.23 1316.5,-266.23 1316.5,-254.23 1316.5,-254.23 1316.5,-248.23 1322.5,-242.23 1328.5,-242.23 1328.5,-242.23 1358.5,-242.23 1358.5,-242.23 1364.5,-242.23 1370.5,-248.23 1370.5,-254.23 1370.5,-254.23 1370.5,-266.23 1370.5,-266.23 1370.5,-272.23 1364.5,-278.23 1358.5,-278.23"/>
<text text-anchor="middle" x="1343.5" y="-257.43" font-family="DejaVu Sans" font-size="11.00">termin</text>
</g>
<!-- termin&#45;modules&#45;&gt;termin -->
<g id="edge30" class="edge">
<title>termin&#45;modules&#45;&gt;termin</title>
<path fill="none" stroke="#666666" stroke-width="1.1" d="M222.14,-290.8C254.29,-225.23 373.86,-7.23 542.5,-7.23 542.5,-7.23 542.5,-7.23 909.5,-7.23 1058,-7.23 1127.03,30.44 1238,-68.23 1292.94,-117.09 1241.87,-168.19 1287,-226.23 1293.08,-234.05 1301.5,-240.5 1309.95,-245.61"/>
<polygon fill="#666666" stroke="#666666" stroke-width="1.1" points="1309.08,-247.93 1316.38,-249.24 1311.5,-243.66 1309.08,-247.93"/>
</g>
<!-- termin&#45;collision&#45;&gt;termin&#45;physics -->
<g id="edge17" class="edge">
<title>termin&#45;collision&#45;&gt;termin&#45;physics</title>
<path fill="none" stroke="#666666" stroke-width="1.1" d="M593.09,-393.28C611.42,-399.33 632.36,-406.25 651.14,-412.45"/>
<polygon fill="#666666" stroke="#666666" stroke-width="1.1" points="650.54,-414.83 657.95,-414.7 652.07,-410.18 650.54,-414.83"/>
</g>
<!-- termin&#45;collision&#45;&gt;termin&#45;components&#45;collision -->
<g id="edge16" class="edge">
<title>termin&#45;collision&#45;&gt;termin&#45;components&#45;collision</title>
<path fill="none" stroke="#666666" stroke-width="1.1" d="M593.12,-379.49C637.36,-382.02 704.36,-387.03 762,-396.23 785.1,-399.92 809.98,-405.23 832.52,-410.56"/>
<polygon fill="#666666" stroke="#666666" stroke-width="1.1" points="832.05,-412.97 839.43,-412.21 833.19,-408.2 832.05,-412.97"/>
</g>
<!-- termin&#45;engine -->
<g id="node17" class="node">
<title>termin&#45;engine</title>
<path fill="#f7f7f7" stroke="#444444" d="M1180,-278.23C1180,-278.23 1113,-278.23 1113,-278.23 1107,-278.23 1101,-272.23 1101,-266.23 1101,-266.23 1101,-254.23 1101,-254.23 1101,-248.23 1107,-242.23 1113,-242.23 1113,-242.23 1180,-242.23 1180,-242.23 1186,-242.23 1192,-248.23 1192,-254.23 1192,-254.23 1192,-266.23 1192,-266.23 1192,-272.23 1186,-278.23 1180,-278.23"/>
<text text-anchor="middle" x="1146.5" y="-257.43" font-family="DejaVu Sans" font-size="11.00">termin&#45;engine</text>
</g>
<!-- termin&#45;collision&#45;&gt;termin&#45;engine -->
<g id="edge15" class="edge">
<title>termin&#45;collision&#45;&gt;termin&#45;engine</title>
<path fill="none" stroke="#666666" stroke-width="1.1" d="M593.17,-367.76C704.99,-345.99 979.36,-292.58 1093.93,-270.27"/>
<polygon fill="#666666" stroke="#666666" stroke-width="1.1" points="1094.51,-272.66 1100.91,-268.91 1093.57,-267.85 1094.51,-272.66"/>
</g>
<!-- termin&#45;components&#45;physics -->
<g id="node14" class="node">
<title>termin&#45;components&#45;physics</title>
<path fill="#f7f7f7" stroke="#444444" d="M1218,-448.23C1218,-448.23 1075,-448.23 1075,-448.23 1069,-448.23 1063,-442.23 1063,-436.23 1063,-436.23 1063,-424.23 1063,-424.23 1063,-418.23 1069,-412.23 1075,-412.23 1075,-412.23 1218,-412.23 1218,-412.23 1224,-412.23 1230,-418.23 1230,-424.23 1230,-424.23 1230,-436.23 1230,-436.23 1230,-442.23 1224,-448.23 1218,-448.23"/>
<text text-anchor="middle" x="1146.5" y="-427.43" font-family="DejaVu Sans" font-size="11.00">termin&#45;components&#45;physics</text>
</g>
<!-- termin&#45;physics&#45;&gt;termin&#45;components&#45;physics -->
<g id="edge22" class="edge">
<title>termin&#45;physics&#45;&gt;termin&#45;components&#45;physics</title>
<path fill="none" stroke="#666666" stroke-width="1.1" d="M751.79,-412.16C769.87,-405.77 791.12,-399.4 811,-396.23 893.08,-383.16 915.42,-386.84 998,-396.23 1023.31,-399.11 1050.6,-404.69 1074.74,-410.5"/>
<polygon fill="#666666" stroke="#666666" stroke-width="1.1" points="1074.41,-412.94 1081.79,-412.23 1075.58,-408.18 1074.41,-412.94"/>
</g>
<!-- termin&#45;physics&#45;&gt;termin -->
<g id="edge29" class="edge">
<title>termin&#45;physics&#45;&gt;termin</title>
<path fill="none" stroke="#666666" stroke-width="1.1" d="M710.63,-448.53C719.59,-488.14 746.84,-581.31 811,-619.23 974.37,-715.81 1086.21,-733.14 1238,-619.23 1292.84,-578.08 1328.33,-360.4 1339.06,-285.54"/>
<polygon fill="#666666" stroke="#666666" stroke-width="1.1" points="1341.53,-285.62 1340.08,-278.35 1336.67,-284.93 1341.53,-285.62"/>
</g>
<!-- termin&#45;graphics&#45;&gt;termin&#45;render -->
<g id="edge18" class="edge">
<title>termin&#45;graphics&#45;&gt;termin&#45;render</title>
<path fill="none" stroke="#666666" stroke-width="1.1" d="M429.29,-223.23C448.89,-223.23 471.38,-223.23 491.13,-223.23"/>
<polygon fill="#666666" stroke="#666666" stroke-width="1.1" points="491.27,-225.68 498.27,-223.23 491.27,-220.78 491.27,-225.68"/>
</g>
<!-- termin&#45;gui -->
<g id="node18" class="node">
<title>termin&#45;gui</title>
<path fill="#f7f7f7" stroke="#444444" d="M932,-158.23C932,-158.23 885,-158.23 885,-158.23 879,-158.23 873,-152.23 873,-146.23 873,-146.23 873,-134.23 873,-134.23 873,-128.23 879,-122.23 885,-122.23 885,-122.23 932,-122.23 932,-122.23 938,-122.23 944,-128.23 944,-134.23 944,-134.23 944,-146.23 944,-146.23 944,-152.23 938,-158.23 932,-158.23"/>
<text text-anchor="middle" x="908.5" y="-137.43" font-family="DejaVu Sans" font-size="11.00">termin&#45;gui</text>
</g>
<!-- termin&#45;graphics&#45;&gt;termin&#45;gui -->
<g id="edge19" class="edge">
<title>termin&#45;graphics&#45;&gt;termin&#45;gui</title>
<path fill="none" stroke="#666666" stroke-width="1.1" d="M429.19,-206.46C449.14,-200.26 472.47,-193.67 494,-189.23 628.16,-161.58 790.27,-148.01 865.44,-142.84"/>
<polygon fill="#666666" stroke="#666666" stroke-width="1.1" points="866.06,-145.25 872.87,-142.33 865.72,-140.36 866.06,-145.25"/>
</g>
<!-- termin&#45;render&#45;&gt;termin&#45;display -->
<g id="edge20" class="edge">
<title>termin&#45;render&#45;&gt;termin&#45;display</title>
<path fill="none" stroke="#666666" stroke-width="1.1" d="M588.78,-223.23C608.45,-223.23 631.76,-223.23 652.32,-223.23"/>
<polygon fill="#666666" stroke="#666666" stroke-width="1.1" points="652.47,-225.68 659.47,-223.23 652.47,-220.78 652.47,-225.68"/>
</g>
<!-- termin&#45;components&#45;render -->
<g id="node12" class="node">
<title>termin&#45;components&#45;render</title>
<path fill="#f7f7f7" stroke="#444444" d="M977.5,-241.23C977.5,-241.23 839.5,-241.23 839.5,-241.23 833.5,-241.23 827.5,-235.23 827.5,-229.23 827.5,-229.23 827.5,-217.23 827.5,-217.23 827.5,-211.23 833.5,-205.23 839.5,-205.23 839.5,-205.23 977.5,-205.23 977.5,-205.23 983.5,-205.23 989.5,-211.23 989.5,-217.23 989.5,-217.23 989.5,-229.23 989.5,-229.23 989.5,-235.23 983.5,-241.23 977.5,-241.23"/>
<text text-anchor="middle" x="908.5" y="-220.43" font-family="DejaVu Sans" font-size="11.00">termin&#45;components&#45;render</text>
</g>
<!-- termin&#45;display&#45;&gt;termin&#45;components&#45;render -->
<g id="edge21" class="edge">
<title>termin&#45;display&#45;&gt;termin&#45;components&#45;render</title>
<path fill="none" stroke="#666666" stroke-width="1.1" d="M752.75,-223.23C772.75,-223.23 796.92,-223.23 820.15,-223.23"/>
<polygon fill="#666666" stroke="#666666" stroke-width="1.1" points="820.32,-225.68 827.32,-223.23 820.32,-220.78 820.32,-225.68"/>
</g>
<!-- termin&#45;components&#45;render&#45;&gt;termin&#45;components&#45;physics -->
<g id="edge24" class="edge">
<title>termin&#45;components&#45;render&#45;&gt;termin&#45;components&#45;physics</title>
<path fill="none" stroke="#666666" stroke-width="1.1" d="M930.03,-241.24C972.92,-278.86 1071.96,-365.73 1119.33,-407.28"/>
<polygon fill="#666666" stroke="#666666" stroke-width="1.1" points="1117.97,-409.35 1124.85,-412.12 1121.2,-405.66 1117.97,-409.35"/>
</g>
<!-- termin&#45;components&#45;render&#45;&gt;termin&#45;engine -->
<g id="edge25" class="edge">
<title>termin&#45;components&#45;render&#45;&gt;termin&#45;engine</title>
<path fill="none" stroke="#666666" stroke-width="1.1" d="M989.73,-235.81C1024.12,-241.2 1063.3,-247.34 1093.76,-252.12"/>
<polygon fill="#666666" stroke="#666666" stroke-width="1.1" points="1093.61,-254.58 1100.91,-253.24 1094.37,-249.74 1093.61,-254.58"/>
</g>
<!-- termin&#45;components&#45;collision&#45;&gt;termin&#45;components&#45;physics -->
<g id="edge23" class="edge">
<title>termin&#45;components&#45;collision&#45;&gt;termin&#45;components&#45;physics</title>
<path fill="none" stroke="#666666" stroke-width="1.1" d="M993.7,-430.23C1013.83,-430.23 1035.4,-430.23 1055.77,-430.23"/>
<polygon fill="#666666" stroke="#666666" stroke-width="1.1" points="1055.92,-432.68 1062.92,-430.23 1055.92,-427.78 1055.92,-432.68"/>
</g>
<!-- termin&#45;components&#45;collision&#45;&gt;termin -->
<g id="edge26" class="edge">
<title>termin&#45;components&#45;collision&#45;&gt;termin</title>
<path fill="none" stroke="#666666" stroke-width="1.1" d="M975.84,-448.24C1002.68,-454.66 1034.1,-461.07 1063,-464.23 1140.32,-472.69 1171.64,-504.8 1238,-464.23 1302.8,-424.62 1329.07,-330.67 1338.23,-285.43"/>
<polygon fill="#666666" stroke="#666666" stroke-width="1.1" points="1340.68,-285.69 1339.61,-278.35 1335.87,-284.75 1340.68,-285.69"/>
</g>
<!-- termin&#45;components&#45;physics&#45;&gt;termin -->
<g id="edge28" class="edge">
<title>termin&#45;components&#45;physics&#45;&gt;termin</title>
<path fill="none" stroke="#666666" stroke-width="1.1" d="M1168.37,-412.04C1204.14,-380.85 1277.09,-317.25 1316.26,-283.11"/>
<polygon fill="#666666" stroke="#666666" stroke-width="1.1" points="1318.12,-284.74 1321.78,-278.29 1314.9,-281.05 1318.12,-284.74"/>
</g>
<!-- termin&#45;components&#45;kinematic&#45;&gt;termin -->
<g id="edge27" class="edge">
<title>termin&#45;components&#45;kinematic&#45;&gt;termin</title>
<path fill="none" stroke="#666666" stroke-width="1.1" d="M967.72,-516.31C1037.93,-534.35 1156.63,-552.47 1238,-499.23 1312.23,-450.67 1334.04,-336.51 1340.2,-285.56"/>
<polygon fill="#666666" stroke="#666666" stroke-width="1.1" points="1342.64,-285.75 1341,-278.52 1337.77,-285.2 1342.64,-285.75"/>
</g>
<!-- termin&#45;engine&#45;&gt;termin -->
<g id="edge31" class="edge">
<title>termin&#45;engine&#45;&gt;termin</title>
<path fill="none" stroke="#666666" stroke-width="1.1" d="M1192.24,-260.23C1227.88,-260.23 1277,-260.23 1309.23,-260.23"/>
<polygon fill="#666666" stroke="#666666" stroke-width="1.1" points="1309.24,-262.68 1316.24,-260.23 1309.24,-257.78 1309.24,-262.68"/>
</g>
<!-- termin&#45;nodegraph -->
<g id="node19" class="node">
<title>termin&#45;nodegraph</title>
<path fill="#f7f7f7" stroke="#444444" d="M1191,-158.23C1191,-158.23 1102,-158.23 1102,-158.23 1096,-158.23 1090,-152.23 1090,-146.23 1090,-146.23 1090,-134.23 1090,-134.23 1090,-128.23 1096,-122.23 1102,-122.23 1102,-122.23 1191,-122.23 1191,-122.23 1197,-122.23 1203,-128.23 1203,-134.23 1203,-134.23 1203,-146.23 1203,-146.23 1203,-152.23 1197,-158.23 1191,-158.23"/>
<text text-anchor="middle" x="1146.5" y="-137.43" font-family="DejaVu Sans" font-size="11.00">termin&#45;nodegraph</text>
</g>
<!-- termin&#45;gui&#45;&gt;termin&#45;nodegraph -->
<g id="edge35" class="edge">
<title>termin&#45;gui&#45;&gt;termin&#45;nodegraph</title>
<path fill="none" stroke="#666666" stroke-width="1.1" d="M944.07,-140.23C980.41,-140.23 1038.35,-140.23 1082.79,-140.23"/>
<polygon fill="#666666" stroke="#666666" stroke-width="1.1" points="1082.8,-142.68 1089.8,-140.23 1082.8,-137.78 1082.8,-142.68"/>
</g>
<!-- termin&#45;gui&#45;&gt;termin -->
<g id="edge32" class="edge">
<title>termin&#45;gui&#45;&gt;termin</title>
<path fill="none" stroke="#666666" stroke-width="1.1" d="M944.19,-123.18C1008.25,-94.4 1146.86,-45 1238,-106.23 1285.82,-138.36 1249.69,-182.34 1287,-226.23 1293.3,-233.64 1301.63,-239.91 1309.93,-244.97"/>
<polygon fill="#666666" stroke="#666666" stroke-width="1.1" points="1308.94,-247.23 1316.22,-248.6 1311.38,-242.99 1308.94,-247.23"/>
</g>
<!-- diffusion&#45;editor -->
<g id="node21" class="node">
<title>diffusion&#45;editor</title>
<path fill="#f7f7f7" stroke="#444444" d="M1380,-210.23C1380,-210.23 1307,-210.23 1307,-210.23 1301,-210.23 1295,-204.23 1295,-198.23 1295,-198.23 1295,-186.23 1295,-186.23 1295,-180.23 1301,-174.23 1307,-174.23 1307,-174.23 1380,-174.23 1380,-174.23 1386,-174.23 1392,-180.23 1392,-186.23 1392,-186.23 1392,-198.23 1392,-198.23 1392,-204.23 1386,-210.23 1380,-210.23"/>
<text text-anchor="middle" x="1343.5" y="-189.43" font-family="DejaVu Sans" font-size="11.00">diffusion&#45;editor</text>
</g>
<!-- termin&#45;gui&#45;&gt;diffusion&#45;editor -->
<g id="edge36" class="edge">
<title>termin&#45;gui&#45;&gt;diffusion&#45;editor</title>
<path fill="none" stroke="#666666" stroke-width="1.1" d="M931.11,-122.01C959.31,-99.54 1011.2,-62.57 1063,-48.23 1137.96,-27.49 1168.71,-12.9 1238,-48.23 1286.94,-73.19 1318.32,-132.97 1332.91,-167.14"/>
<polygon fill="#666666" stroke="#666666" stroke-width="1.1" points="1330.82,-168.5 1335.77,-174.03 1335.35,-166.62 1330.82,-168.5"/>
</g>
<!-- termin&#45;nodegraph&#45;&gt;termin -->
<g id="edge33" class="edge">
<title>termin&#45;nodegraph&#45;&gt;termin</title>
<path fill="none" stroke="#666666" stroke-width="1.1" d="M1176.88,-158.38C1205.1,-175.8 1248.94,-202.85 1287,-226.23 1294.45,-230.81 1302.46,-235.72 1310.02,-240.35"/>
<polygon fill="#666666" stroke="#666666" stroke-width="1.1" points="1308.99,-242.6 1316.23,-244.16 1311.55,-238.42 1308.99,-242.6"/>
</g>
<!-- termin&#45;csharp -->
<g id="node22" class="node">
<title>termin&#45;csharp</title>
<path fill="#f7f7f7" stroke="#444444" d="M1536,-278.23C1536,-278.23 1469,-278.23 1469,-278.23 1463,-278.23 1457,-272.23 1457,-266.23 1457,-266.23 1457,-254.23 1457,-254.23 1457,-248.23 1463,-242.23 1469,-242.23 1469,-242.23 1536,-242.23 1536,-242.23 1542,-242.23 1548,-248.23 1548,-254.23 1548,-254.23 1548,-266.23 1548,-266.23 1548,-272.23 1542,-278.23 1536,-278.23"/>
<text text-anchor="middle" x="1502.5" y="-257.43" font-family="DejaVu Sans" font-size="11.00">termin&#45;csharp</text>
</g>
<!-- termin&#45;&gt;termin&#45;csharp -->
<g id="edge34" class="edge">
<title>termin&#45;&gt;termin&#45;csharp</title>
<path fill="none" stroke="#666666" stroke-width="1.1" d="M1370.78,-260.23C1392.24,-260.23 1423.24,-260.23 1449.66,-260.23"/>
<polygon fill="#666666" stroke="#666666" stroke-width="1.1" points="1449.98,-262.68 1456.98,-260.23 1449.98,-257.78 1449.98,-262.68"/>
</g>
</g>
</svg>
