<?xml version="1.0" encoding="UTF-8" standalone="no"?>
<!DOCTYPE svg PUBLIC "-//W3C//DTD SVG 1.1//EN"
 "http://www.w3.org/Graphics/SVG/1.1/DTD/svg11.dtd">
<!-- Generated by graphviz version 2.42.4 (0)
 -->
<!-- Title: termin_dependencies Pages: 1 -->
<svg width="1863pt" height="1375pt"
 viewBox="0.00 0.00 1862.80 1374.90" xmlns="http://www.w3.org/2000/svg" xmlns:xlink="http://www.w3.org/1999/xlink">
<g id="graph0" class="graph" transform="scale(1 1) rotate(0) translate(14.4 1360.5)">
<title>termin_dependencies</title>
<polygon fill="white" stroke="transparent" points="-14.4,14.4 -14.4,-1360.5 1848.4,-1360.5 1848.4,14.4 -14.4,14.4"/>
<g id="clust1" class="cluster">
<title>cluster_application</title>
<polygon fill="white" stroke="#999999" stroke-dasharray="5,2" points="1568,-893.17 1568,-966.17 1659,-966.17 1659,-893.17 1568,-893.17"/>
<text text-anchor="middle" x="1613.5" y="-952.57" font-family="DejaVu Sans" font-size="12.00">Application</text>
</g>
<g id="clust2" class="cluster">
<title>cluster_foundation</title>
<polygon fill="white" stroke="#999999" stroke-dasharray="5,2" points="137,-608.17 137,-885.17 996,-885.17 996,-608.17 137,-608.17"/>
<text text-anchor="middle" x="566.5" y="-871.57" font-family="DejaVu Sans" font-size="12.00">Foundation</text>
</g>
<g id="clust3" class="cluster">
<title>cluster_namespace</title>
<polygon fill="white" stroke="#999999" stroke-dasharray="5,2" points="0,-515.17 0,-588.17 88,-588.17 88,-515.17 0,-515.17"/>
<text text-anchor="middle" x="44" y="-574.57" font-family="DejaVu Sans" font-size="12.00">Namespace</text>
</g>
<g id="clust4" class="cluster">
<title>cluster_native_interop</title>
<polygon fill="white" stroke="#999999" stroke-dasharray="5,2" points="1719,-496.17 1719,-569.17 1826,-569.17 1826,-496.17 1719,-496.17"/>
<text text-anchor="middle" x="1772.5" y="-555.57" font-family="DejaVu Sans" font-size="12.00">Native Interop</text>
</g>
<g id="clust5" class="cluster">
<title>cluster_other_components</title>
<polygon fill="white" stroke="#999999" stroke-dasharray="5,2" points="836,-893.17 836,-1238.17 1508,-1238.17 1508,-893.17 836,-893.17"/>
<text text-anchor="middle" x="1172" y="-1224.57" font-family="DejaVu Sans" font-size="12.00">Other Components</text>
</g>
<g id="clust6" class="cluster">
<title>cluster_python_support</title>
<polygon fill="white" stroke="#999999" stroke-dasharray="5,2" points="307,-147.17 307,-288.17 450,-288.17 450,-147.17 307,-147.17"/>
<text text-anchor="middle" x="378.5" y="-274.57" font-family="DejaVu Sans" font-size="12.00">Python Support</text>
</g>
<g id="clust7" class="cluster">
<title>cluster_render_stack</title>
<polygon fill="white" stroke="#999999" stroke-dasharray="5,2" points="499,-459.17 499,-600.17 1267,-600.17 1267,-459.17 499,-459.17"/>
<text text-anchor="middle" x="883" y="-586.57" font-family="DejaVu Sans" font-size="12.00">Render Stack</text>
</g>
<g id="clust8" class="cluster">
<title>cluster_runtime</title>
<polygon fill="white" stroke="#999999" stroke-dasharray="5,2" points="1363,-428.17 1363,-501.17 1470,-501.17 1470,-428.17 1363,-428.17"/>
<text text-anchor="middle" x="1416.5" y="-487.57" font-family="DejaVu Sans" font-size="12.00">Runtime</text>
</g>
<g id="clust10" class="cluster">
<title>cluster_ui</title>
<polygon fill="white" stroke="#999999" stroke-dasharray="5,2" points="682.5,-68.17 682.5,-209.17 998,-209.17 998,-68.17 682.5,-68.17"/>
<text text-anchor="middle" x="840.25" y="-195.57" font-family="DejaVu Sans" font-size="12.00">UI</text>
</g>
<!-- termin&#45;app -->
<g id="node1" class="node">
<title>termin&#45;app</title>
<path fill="#f7f7f7" stroke="#444444" d="M1639,-937.17C1639,-937.17 1588,-937.17 1588,-937.17 1582,-937.17 1576,-931.17 1576,-925.17 1576,-925.17 1576,-913.17 1576,-913.17 1576,-907.17 1582,-901.17 1588,-901.17 1588,-901.17 1639,-901.17 1639,-901.17 1645,-901.17 1651,-907.17 1651,-913.17 1651,-913.17 1651,-925.17 1651,-925.17 1651,-931.17 1645,-937.17 1639,-937.17"/>
<text text-anchor="middle" x="1613.5" y="-916.37" font-family="DejaVu Sans" font-size="11.00">termin&#45;app</text>
</g>
<!-- termin&#45;csharp -->
<g id="node17" class="node">
<title>termin&#45;csharp</title>
<path fill="#f7f7f7" stroke="#444444" d="M1806,-540.17C1806,-540.17 1739,-540.17 1739,-540.17 1733,-540.17 1727,-534.17 1727,-528.17 1727,-528.17 1727,-516.17 1727,-516.17 1727,-510.17 1733,-504.17 1739,-504.17 1739,-504.17 1806,-504.17 1806,-504.17 1812,-504.17 1818,-510.17 1818,-516.17 1818,-516.17 1818,-528.17 1818,-528.17 1818,-534.17 1812,-540.17 1806,-540.17"/>
<text text-anchor="middle" x="1772.5" y="-519.37" font-family="DejaVu Sans" font-size="11.00">termin&#45;csharp</text>
</g>
<!-- termin&#45;app&#45;&gt;termin&#45;csharp -->
<g id="edge7" class="edge">
<title>termin&#45;app&#45;&gt;termin&#45;csharp</title>
<path fill="none" stroke="#666666" stroke-width="1.1" d="M1621.65,-901.08C1646.99,-837.01 1732.5,-620.79 1761.66,-547.05"/>
<polygon fill="#666666" stroke="#666666" stroke-width="1.1" points="1764.01,-547.78 1764.3,-540.37 1759.45,-545.98 1764.01,-547.78"/>
</g>
<!-- termin&#45;animation -->
<g id="node2" class="node">
<title>termin&#45;animation</title>
<path fill="#f7f7f7" stroke="#444444" d="M976,-803.17C976,-803.17 891,-803.17 891,-803.17 885,-803.17 879,-797.17 879,-791.17 879,-791.17 879,-779.17 879,-779.17 879,-773.17 885,-767.17 891,-767.17 891,-767.17 976,-767.17 976,-767.17 982,-767.17 988,-773.17 988,-779.17 988,-779.17 988,-791.17 988,-791.17 988,-797.17 982,-803.17 976,-803.17"/>
<text text-anchor="middle" x="933.5" y="-782.37" font-family="DejaVu Sans" font-size="11.00">termin&#45;animation</text>
</g>
<!-- termin&#45;components&#45;animation -->
<g id="node18" class="node">
<title>termin&#45;components&#45;animation</title>
<path fill="#f7f7f7" stroke="#444444" d="M1256,-970.17C1256,-970.17 1100,-970.17 1100,-970.17 1094,-970.17 1088,-964.17 1088,-958.17 1088,-958.17 1088,-946.17 1088,-946.17 1088,-940.17 1094,-934.17 1100,-934.17 1100,-934.17 1256,-934.17 1256,-934.17 1262,-934.17 1268,-940.17 1268,-946.17 1268,-946.17 1268,-958.17 1268,-958.17 1268,-964.17 1262,-970.17 1256,-970.17"/>
<text text-anchor="middle" x="1178" y="-949.37" font-family="DejaVu Sans" font-size="11.00">termin&#45;components&#45;animation</text>
</g>
<!-- termin&#45;animation&#45;&gt;termin&#45;components&#45;animation -->
<g id="edge6" class="edge">
<title>termin&#45;animation&#45;&gt;termin&#45;components&#45;animation</title>
<path fill="none" stroke="#666666" stroke-width="1.1" d="M977.91,-803.27C992.63,-810.05 1008.9,-818.29 1023,-827.17 1072.09,-858.12 1123.28,-902.49 1152.53,-929.2"/>
<polygon fill="#666666" stroke="#666666" stroke-width="1.1" points="1150.92,-931.04 1157.74,-933.97 1154.24,-927.43 1150.92,-931.04"/>
</g>
<!-- termin&#45;base -->
<g id="node3" class="node">
<title>termin&#45;base</title>
<path fill="#f7f7f7" stroke="#444444" d="M226,-720.17C226,-720.17 169,-720.17 169,-720.17 163,-720.17 157,-714.17 157,-708.17 157,-708.17 157,-696.17 157,-696.17 157,-690.17 163,-684.17 169,-684.17 169,-684.17 226,-684.17 226,-684.17 232,-684.17 238,-690.17 238,-696.17 238,-696.17 238,-708.17 238,-708.17 238,-714.17 232,-720.17 226,-720.17"/>
<text text-anchor="middle" x="197.5" y="-699.37" font-family="DejaVu Sans" font-size="11.00">termin&#45;base</text>
</g>
<!-- termin&#45;inspect -->
<g id="node7" class="node">
<title>termin&#45;inspect</title>
<path fill="#f7f7f7" stroke="#444444" d="M413.5,-769.17C413.5,-769.17 343.5,-769.17 343.5,-769.17 337.5,-769.17 331.5,-763.17 331.5,-757.17 331.5,-757.17 331.5,-745.17 331.5,-745.17 331.5,-739.17 337.5,-733.17 343.5,-733.17 343.5,-733.17 413.5,-733.17 413.5,-733.17 419.5,-733.17 425.5,-739.17 425.5,-745.17 425.5,-745.17 425.5,-757.17 425.5,-757.17 425.5,-763.17 419.5,-769.17 413.5,-769.17"/>
<text text-anchor="middle" x="378.5" y="-748.37" font-family="DejaVu Sans" font-size="11.00">termin&#45;inspect</text>
</g>
<!-- termin&#45;base&#45;&gt;termin&#45;inspect -->
<g id="edge13" class="edge">
<title>termin&#45;base&#45;&gt;termin&#45;inspect</title>
<path fill="none" stroke="#666666" stroke-width="1.1" d="M238.23,-713.05C263.58,-719.99 296.74,-729.07 324.35,-736.62"/>
<polygon fill="#666666" stroke="#666666" stroke-width="1.1" points="323.84,-739.03 331.24,-738.51 325.13,-734.3 323.84,-739.03"/>
</g>
<!-- termin&#45;mesh -->
<g id="node8" class="node">
<title>termin&#45;mesh</title>
<path fill="#f7f7f7" stroke="#444444" d="M408.5,-675.17C408.5,-675.17 348.5,-675.17 348.5,-675.17 342.5,-675.17 336.5,-669.17 336.5,-663.17 336.5,-663.17 336.5,-651.17 336.5,-651.17 336.5,-645.17 342.5,-639.17 348.5,-639.17 348.5,-639.17 408.5,-639.17 408.5,-639.17 414.5,-639.17 420.5,-645.17 420.5,-651.17 420.5,-651.17 420.5,-663.17 420.5,-663.17 420.5,-669.17 414.5,-675.17 408.5,-675.17"/>
<text text-anchor="middle" x="378.5" y="-654.37" font-family="DejaVu Sans" font-size="11.00">termin&#45;mesh</text>
</g>
<!-- termin&#45;base&#45;&gt;termin&#45;mesh -->
<g id="edge15" class="edge">
<title>termin&#45;base&#45;&gt;termin&#45;mesh</title>
<path fill="none" stroke="#666666" stroke-width="1.1" d="M238.23,-692.19C265.1,-685.43 300.75,-676.47 329.25,-669.3"/>
<polygon fill="#666666" stroke="#666666" stroke-width="1.1" points="330.14,-671.61 336.33,-667.52 328.95,-666.85 330.14,-671.61"/>
</g>
<!-- termin&#45;modules -->
<g id="node9" class="node">
<title>termin&#45;modules</title>
<path fill="#f7f7f7" stroke="#444444" d="M417,-850.17C417,-850.17 340,-850.17 340,-850.17 334,-850.17 328,-844.17 328,-838.17 328,-838.17 328,-826.17 328,-826.17 328,-820.17 334,-814.17 340,-814.17 340,-814.17 417,-814.17 417,-814.17 423,-814.17 429,-820.17 429,-826.17 429,-826.17 429,-838.17 429,-838.17 429,-844.17 423,-850.17 417,-850.17"/>
<text text-anchor="middle" x="378.5" y="-829.37" font-family="DejaVu Sans" font-size="11.00">termin&#45;modules</text>
</g>
<!-- termin&#45;base&#45;&gt;termin&#45;modules -->
<g id="edge16" class="edge">
<title>termin&#45;base&#45;&gt;termin&#45;modules</title>
<path fill="none" stroke="#666666" stroke-width="1.1" d="M227.28,-720.25C234.8,-725.23 242.82,-730.75 250,-736.17 276.66,-756.31 280.39,-764.98 307,-785.17 318.28,-793.73 331.04,-802.49 342.57,-810.1"/>
<polygon fill="#666666" stroke="#666666" stroke-width="1.1" points="341.28,-812.18 348.48,-813.97 343.96,-808.08 341.28,-812.18"/>
</g>
<!-- termin&#45;assets -->
<g id="node26" class="node">
<title>termin&#45;assets</title>
<path fill="#f7f7f7" stroke="#444444" d="M411.5,-191.17C411.5,-191.17 345.5,-191.17 345.5,-191.17 339.5,-191.17 333.5,-185.17 333.5,-179.17 333.5,-179.17 333.5,-167.17 333.5,-167.17 333.5,-161.17 339.5,-155.17 345.5,-155.17 345.5,-155.17 411.5,-155.17 411.5,-155.17 417.5,-155.17 423.5,-161.17 423.5,-167.17 423.5,-167.17 423.5,-179.17 423.5,-179.17 423.5,-185.17 417.5,-191.17 411.5,-191.17"/>
<text text-anchor="middle" x="378.5" y="-170.37" font-family="DejaVu Sans" font-size="11.00">termin&#45;assets</text>
</g>
<!-- termin&#45;base&#45;&gt;termin&#45;assets -->
<g id="edge11" class="edge">
<title>termin&#45;base&#45;&gt;termin&#45;assets</title>
<path fill="none" stroke="#666666" stroke-width="1.1" d="M234.82,-684.11C240.73,-679.67 246.16,-674.37 250,-668.17 358.81,-492.73 186.67,-374.93 307,-207.17 312.14,-200.01 319.19,-194.3 326.87,-189.76"/>
<polygon fill="#666666" stroke="#666666" stroke-width="1.1" points="328.44,-191.7 333.43,-186.21 326.11,-187.38 328.44,-191.7"/>
</g>
<!-- termin&#45;lighting -->
<g id="node31" class="node">
<title>termin&#45;lighting</title>
<path fill="#f7f7f7" stroke="#444444" d="M593,-503.17C593,-503.17 522,-503.17 522,-503.17 516,-503.17 510,-497.17 510,-491.17 510,-491.17 510,-479.17 510,-479.17 510,-473.17 516,-467.17 522,-467.17 522,-467.17 593,-467.17 593,-467.17 599,-467.17 605,-473.17 605,-479.17 605,-479.17 605,-491.17 605,-491.17 605,-497.17 599,-503.17 593,-503.17"/>
<text text-anchor="middle" x="557.5" y="-482.37" font-family="DejaVu Sans" font-size="11.00">termin&#45;lighting</text>
</g>
<!-- termin&#45;base&#45;&gt;termin&#45;lighting -->
<g id="edge14" class="edge">
<title>termin&#45;base&#45;&gt;termin&#45;lighting</title>
<path fill="none" stroke="#666666" stroke-width="1.1" d="M233.19,-684.12C239.47,-679.6 245.45,-674.27 250,-668.17 302.2,-598.19 236.87,-532.19 307,-480.17 363.23,-438.47 447.88,-451.4 502.67,-466.62"/>
<polygon fill="#666666" stroke="#666666" stroke-width="1.1" points="502.13,-469.01 509.53,-468.58 503.47,-464.3 502.13,-469.01"/>
</g>
<!-- termin&#45;audio -->
<g id="node38" class="node">
<title>termin&#45;audio</title>
<path fill="#f7f7f7" stroke="#444444" d="M408.5,-398.17C408.5,-398.17 348.5,-398.17 348.5,-398.17 342.5,-398.17 336.5,-392.17 336.5,-386.17 336.5,-386.17 336.5,-374.17 336.5,-374.17 336.5,-368.17 342.5,-362.17 348.5,-362.17 348.5,-362.17 408.5,-362.17 408.5,-362.17 414.5,-362.17 420.5,-368.17 420.5,-374.17 420.5,-374.17 420.5,-386.17 420.5,-386.17 420.5,-392.17 414.5,-398.17 408.5,-398.17"/>
<text text-anchor="middle" x="378.5" y="-377.37" font-family="DejaVu Sans" font-size="11.00">termin&#45;audio</text>
</g>
<!-- termin&#45;base&#45;&gt;termin&#45;audio -->
<g id="edge12" class="edge">
<title>termin&#45;base&#45;&gt;termin&#45;audio</title>
<path fill="none" stroke="#666666" stroke-width="1.1" d="M233.77,-684.16C239.93,-679.66 245.72,-674.33 250,-668.17 314.06,-576.02 240.83,-512.82 307,-422.17 313.07,-413.85 321.34,-406.88 330.08,-401.16"/>
<polygon fill="#666666" stroke="#666666" stroke-width="1.1" points="331.51,-403.16 336.18,-397.4 328.94,-398.99 331.51,-403.16"/>
</g>
<!-- termin&#45;pga -->
<g id="node43" class="node">
<title>termin&#45;pga</title>
<path fill="#f7f7f7" stroke="#444444" d="M404,-600.17C404,-600.17 353,-600.17 353,-600.17 347,-600.17 341,-594.17 341,-588.17 341,-588.17 341,-576.17 341,-576.17 341,-570.17 347,-564.17 353,-564.17 353,-564.17 404,-564.17 404,-564.17 410,-564.17 416,-570.17 416,-576.17 416,-576.17 416,-588.17 416,-588.17 416,-594.17 410,-600.17 404,-600.17"/>
<text text-anchor="middle" x="378.5" y="-579.37" font-family="DejaVu Sans" font-size="11.00">termin&#45;pga</text>
</g>
<!-- termin&#45;base&#45;&gt;termin&#45;pga -->
<g id="edge17" class="edge">
<title>termin&#45;base&#45;&gt;termin&#45;pga</title>
<path fill="none" stroke="#666666" stroke-width="1.1" d="M228.87,-684.01C236.06,-679.21 243.52,-673.78 250,-668.17 278.8,-643.25 274.99,-624.82 307,-604.17 315.15,-598.92 324.64,-594.85 333.96,-591.72"/>
<polygon fill="#666666" stroke="#666666" stroke-width="1.1" points="334.76,-594.04 340.7,-589.61 333.29,-589.36 334.76,-594.04"/>
</g>
<!-- termin&#45;qopt -->
<g id="node44" class="node">
<title>termin&#45;qopt</title>
<path fill="#f7f7f7" stroke="#444444" d="M406,-532.17C406,-532.17 351,-532.17 351,-532.17 345,-532.17 339,-526.17 339,-520.17 339,-520.17 339,-508.17 339,-508.17 339,-502.17 345,-496.17 351,-496.17 351,-496.17 406,-496.17 406,-496.17 412,-496.17 418,-502.17 418,-508.17 418,-508.17 418,-520.17 418,-520.17 418,-526.17 412,-532.17 406,-532.17"/>
<text text-anchor="middle" x="378.5" y="-511.37" font-family="DejaVu Sans" font-size="11.00">termin&#45;qopt</text>
</g>
<!-- termin&#45;base&#45;&gt;termin&#45;qopt -->
<g id="edge18" class="edge">
<title>termin&#45;base&#45;&gt;termin&#45;qopt</title>
<path fill="none" stroke="#666666" stroke-width="1.1" d="M231.69,-684.13C238.3,-679.52 244.8,-674.16 250,-668.17 288.73,-623.6 265.37,-590.05 307,-548.17 314.24,-540.89 323.35,-534.95 332.59,-530.18"/>
<polygon fill="#666666" stroke="#666666" stroke-width="1.1" points="333.76,-532.34 338.99,-527.07 331.62,-527.93 333.76,-532.34"/>
</g>
<!-- termin&#45;collision -->
<g id="node4" class="node">
<title>termin&#45;collision</title>
<path fill="#f7f7f7" stroke="#444444" d="M763.5,-652.17C763.5,-652.17 688.5,-652.17 688.5,-652.17 682.5,-652.17 676.5,-646.17 676.5,-640.17 676.5,-640.17 676.5,-628.17 676.5,-628.17 676.5,-622.17 682.5,-616.17 688.5,-616.17 688.5,-616.17 763.5,-616.17 763.5,-616.17 769.5,-616.17 775.5,-622.17 775.5,-628.17 775.5,-628.17 775.5,-640.17 775.5,-640.17 775.5,-646.17 769.5,-652.17 763.5,-652.17"/>
<text text-anchor="middle" x="726" y="-631.37" font-family="DejaVu Sans" font-size="11.00">termin&#45;collision</text>
</g>
<!-- termin&#45;physics -->
<g id="node11" class="node">
<title>termin&#45;physics</title>
<path fill="#f7f7f7" stroke="#444444" d="M969.5,-720.17C969.5,-720.17 897.5,-720.17 897.5,-720.17 891.5,-720.17 885.5,-714.17 885.5,-708.17 885.5,-708.17 885.5,-696.17 885.5,-696.17 885.5,-690.17 891.5,-684.17 897.5,-684.17 897.5,-684.17 969.5,-684.17 969.5,-684.17 975.5,-684.17 981.5,-690.17 981.5,-696.17 981.5,-696.17 981.5,-708.17 981.5,-708.17 981.5,-714.17 975.5,-720.17 969.5,-720.17"/>
<text text-anchor="middle" x="933.5" y="-699.37" font-family="DejaVu Sans" font-size="11.00">termin&#45;physics</text>
</g>
<!-- termin&#45;collision&#45;&gt;termin&#45;physics -->
<g id="edge22" class="edge">
<title>termin&#45;collision&#45;&gt;termin&#45;physics</title>
<path fill="none" stroke="#666666" stroke-width="1.1" d="M775.7,-650.29C806.62,-660.52 846.66,-673.77 878.54,-684.32"/>
<polygon fill="#666666" stroke="#666666" stroke-width="1.1" points="877.8,-686.65 885.21,-686.53 879.34,-682 877.8,-686.65"/>
</g>
<!-- termin&#45;components&#45;collision -->
<g id="node19" class="node">
<title>termin&#45;components&#45;collision</title>
<path fill="#f7f7f7" stroke="#444444" d="M1251,-1038.17C1251,-1038.17 1105,-1038.17 1105,-1038.17 1099,-1038.17 1093,-1032.17 1093,-1026.17 1093,-1026.17 1093,-1014.17 1093,-1014.17 1093,-1008.17 1099,-1002.17 1105,-1002.17 1105,-1002.17 1251,-1002.17 1251,-1002.17 1257,-1002.17 1263,-1008.17 1263,-1014.17 1263,-1014.17 1263,-1026.17 1263,-1026.17 1263,-1032.17 1257,-1038.17 1251,-1038.17"/>
<text text-anchor="middle" x="1178" y="-1017.37" font-family="DejaVu Sans" font-size="11.00">termin&#45;components&#45;collision</text>
</g>
<!-- termin&#45;collision&#45;&gt;termin&#45;components&#45;collision -->
<g id="edge20" class="edge">
<title>termin&#45;collision&#45;&gt;termin&#45;components&#45;collision</title>
<path fill="none" stroke="#666666" stroke-width="1.1" d="M761.44,-652.23C767.9,-656.78 774.14,-662.12 779,-668.17 823.9,-724.12 784.73,-769 836,-819.17 898.99,-880.82 953.87,-830.5 1023,-885.17 1064.87,-918.29 1046.56,-952.53 1088,-986.17 1094,-991.04 1100.77,-995.27 1107.83,-998.92"/>
<polygon fill="#666666" stroke="#666666" stroke-width="1.1" points="1107.02,-1001.25 1114.39,-1002.12 1109.17,-996.85 1107.02,-1001.25"/>
</g>
<!-- termin&#45;android -->
<g id="node37" class="node">
<title>termin&#45;android</title>
<path fill="#f7f7f7" stroke="#444444" d="M1649.5,-438.17C1649.5,-438.17 1577.5,-438.17 1577.5,-438.17 1571.5,-438.17 1565.5,-432.17 1565.5,-426.17 1565.5,-426.17 1565.5,-414.17 1565.5,-414.17 1565.5,-408.17 1571.5,-402.17 1577.5,-402.17 1577.5,-402.17 1649.5,-402.17 1649.5,-402.17 1655.5,-402.17 1661.5,-408.17 1661.5,-414.17 1661.5,-414.17 1661.5,-426.17 1661.5,-426.17 1661.5,-432.17 1655.5,-438.17 1649.5,-438.17"/>
<text text-anchor="middle" x="1613.5" y="-417.37" font-family="DejaVu Sans" font-size="11.00">termin&#45;android</text>
</g>
<!-- termin&#45;collision&#45;&gt;termin&#45;android -->
<g id="edge19" class="edge">
<title>termin&#45;collision&#45;&gt;termin&#45;android</title>
<path fill="none" stroke="#666666" stroke-width="1.1" d="M770.33,-615.93C773.49,-613.61 776.44,-611.03 779,-608.17 827.49,-554.19 780.93,-502.43 836,-455.17 878.8,-418.45 1276.9,-357.93 1333,-352.17 1410.37,-344.24 1433.44,-330.05 1508,-352.17 1516.05,-354.56 1552.78,-379.07 1580.43,-397.98"/>
<polygon fill="#666666" stroke="#666666" stroke-width="1.1" points="1579.37,-400.23 1586.53,-402.16 1582.14,-396.19 1579.37,-400.23"/>
</g>
<!-- termin&#45;openxr -->
<g id="node42" class="node">
<title>termin&#45;openxr</title>
<path fill="#f7f7f7" stroke="#444444" d="M1648,-370.17C1648,-370.17 1579,-370.17 1579,-370.17 1573,-370.17 1567,-364.17 1567,-358.17 1567,-358.17 1567,-346.17 1567,-346.17 1567,-340.17 1573,-334.17 1579,-334.17 1579,-334.17 1648,-334.17 1648,-334.17 1654,-334.17 1660,-340.17 1660,-346.17 1660,-346.17 1660,-358.17 1660,-358.17 1660,-364.17 1654,-370.17 1648,-370.17"/>
<text text-anchor="middle" x="1613.5" y="-349.37" font-family="DejaVu Sans" font-size="11.00">termin&#45;openxr</text>
</g>
<!-- termin&#45;collision&#45;&gt;termin&#45;openxr -->
<g id="edge21" class="edge">
<title>termin&#45;collision&#45;&gt;termin&#45;openxr</title>
<path fill="none" stroke="#666666" stroke-width="1.1" d="M771.12,-615.81C774.02,-613.53 776.7,-610.99 779,-608.17 840.95,-532.24 763.45,-461.05 836,-395.17 918.42,-320.33 1221.77,-336.93 1333,-332.17 1410.71,-328.85 1430.57,-324.83 1508,-332.17 1525.06,-333.79 1543.47,-336.86 1560.02,-340.12"/>
<polygon fill="#666666" stroke="#666666" stroke-width="1.1" points="1559.64,-342.54 1566.99,-341.53 1560.61,-337.74 1559.64,-342.54"/>
</g>
<!-- termin&#45;csg -->
<g id="node5" class="node">
<title>termin&#45;csg</title>
<path fill="#f7f7f7" stroke="#444444" d="M222,-652.17C222,-652.17 173,-652.17 173,-652.17 167,-652.17 161,-646.17 161,-640.17 161,-640.17 161,-628.17 161,-628.17 161,-622.17 167,-616.17 173,-616.17 173,-616.17 222,-616.17 222,-616.17 228,-616.17 234,-622.17 234,-628.17 234,-628.17 234,-640.17 234,-640.17 234,-646.17 228,-652.17 222,-652.17"/>
<text text-anchor="middle" x="197.5" y="-631.37" font-family="DejaVu Sans" font-size="11.00">termin&#45;csg</text>
</g>
<!-- termin&#45;components&#45;mesh -->
<g id="node21" class="node">
<title>termin&#45;components&#45;mesh</title>
<path fill="#f7f7f7" stroke="#444444" d="M999.5,-1073.17C999.5,-1073.17 867.5,-1073.17 867.5,-1073.17 861.5,-1073.17 855.5,-1067.17 855.5,-1061.17 855.5,-1061.17 855.5,-1049.17 855.5,-1049.17 855.5,-1043.17 861.5,-1037.17 867.5,-1037.17 867.5,-1037.17 999.5,-1037.17 999.5,-1037.17 1005.5,-1037.17 1011.5,-1043.17 1011.5,-1049.17 1011.5,-1049.17 1011.5,-1061.17 1011.5,-1061.17 1011.5,-1067.17 1005.5,-1073.17 999.5,-1073.17"/>
<text text-anchor="middle" x="933.5" y="-1052.37" font-family="DejaVu Sans" font-size="11.00">termin&#45;components&#45;mesh</text>
</g>
<!-- termin&#45;csg&#45;&gt;termin&#45;components&#45;mesh -->
<g id="edge35" class="edge">
<title>termin&#45;csg&#45;&gt;termin&#45;components&#45;mesh</title>
<path fill="none" stroke="#666666" stroke-width="1.1" d="M233.26,-652.18C239.53,-656.7 245.5,-662.05 250,-668.17 304.23,-741.96 242.67,-801 307,-866.17 454.18,-1015.3 714.57,-1047.62 848.21,-1054.06"/>
<polygon fill="#666666" stroke="#666666" stroke-width="1.1" points="848.15,-1056.51 855.26,-1054.38 848.38,-1051.62 848.15,-1056.51"/>
</g>
<!-- termin&#45;input -->
<g id="node6" class="node">
<title>termin&#45;input</title>
<path fill="#f7f7f7" stroke="#444444" d="M755,-788.17C755,-788.17 697,-788.17 697,-788.17 691,-788.17 685,-782.17 685,-776.17 685,-776.17 685,-764.17 685,-764.17 685,-758.17 691,-752.17 697,-752.17 697,-752.17 755,-752.17 755,-752.17 761,-752.17 767,-758.17 767,-764.17 767,-764.17 767,-776.17 767,-776.17 767,-782.17 761,-788.17 755,-788.17"/>
<text text-anchor="middle" x="726" y="-767.37" font-family="DejaVu Sans" font-size="11.00">termin&#45;input</text>
</g>
<!-- termin&#45;display -->
<g id="node29" class="node">
<title>termin&#45;display</title>
<path fill="#f7f7f7" stroke="#444444" d="M968,-571.17C968,-571.17 899,-571.17 899,-571.17 893,-571.17 887,-565.17 887,-559.17 887,-559.17 887,-547.17 887,-547.17 887,-541.17 893,-535.17 899,-535.17 899,-535.17 968,-535.17 968,-535.17 974,-535.17 980,-541.17 980,-547.17 980,-547.17 980,-559.17 980,-559.17 980,-565.17 974,-571.17 968,-571.17"/>
<text text-anchor="middle" x="933.5" y="-550.37" font-family="DejaVu Sans" font-size="11.00">termin&#45;display</text>
</g>
<!-- termin&#45;input&#45;&gt;termin&#45;display -->
<g id="edge50" class="edge">
<title>termin&#45;input&#45;&gt;termin&#45;display</title>
<path fill="none" stroke="#666666" stroke-width="1.1" d="M761,-752.17C767.57,-747.59 773.96,-742.23 779,-736.17 820.93,-685.81 790.98,-647.8 836,-600.17 848.1,-587.38 864.41,-577.62 880.18,-570.41"/>
<polygon fill="#666666" stroke="#666666" stroke-width="1.1" points="881.46,-572.52 886.9,-567.47 879.5,-568.03 881.46,-572.52"/>
</g>
<!-- termin&#45;scene -->
<g id="node12" class="node">
<title>termin&#45;scene</title>
<path fill="#f7f7f7" stroke="#444444" d="M589,-788.17C589,-788.17 526,-788.17 526,-788.17 520,-788.17 514,-782.17 514,-776.17 514,-776.17 514,-764.17 514,-764.17 514,-758.17 520,-752.17 526,-752.17 526,-752.17 589,-752.17 589,-752.17 595,-752.17 601,-758.17 601,-764.17 601,-764.17 601,-776.17 601,-776.17 601,-782.17 595,-788.17 589,-788.17"/>
<text text-anchor="middle" x="557.5" y="-767.37" font-family="DejaVu Sans" font-size="11.00">termin&#45;scene</text>
</g>
<!-- termin&#45;inspect&#45;&gt;termin&#45;scene -->
<g id="edge51" class="edge">
<title>termin&#45;inspect&#45;&gt;termin&#45;scene</title>
<path fill="none" stroke="#666666" stroke-width="1.1" d="M425.54,-756.12C450.45,-758.79 481.23,-762.09 506.69,-764.83"/>
<polygon fill="#666666" stroke="#666666" stroke-width="1.1" points="506.5,-767.27 513.73,-765.58 507.03,-762.4 506.5,-767.27"/>
</g>
<!-- termin&#45;graphics -->
<g id="node30" class="node">
<title>termin&#45;graphics</title>
<path fill="#f7f7f7" stroke="#444444" d="M596,-571.17C596,-571.17 519,-571.17 519,-571.17 513,-571.17 507,-565.17 507,-559.17 507,-559.17 507,-547.17 507,-547.17 507,-541.17 513,-535.17 519,-535.17 519,-535.17 596,-535.17 596,-535.17 602,-535.17 608,-541.17 608,-547.17 608,-547.17 608,-559.17 608,-559.17 608,-565.17 602,-571.17 596,-571.17"/>
<text text-anchor="middle" x="557.5" y="-550.37" font-family="DejaVu Sans" font-size="11.00">termin&#45;graphics</text>
</g>
<!-- termin&#45;mesh&#45;&gt;termin&#45;graphics -->
<g id="edge53" class="edge">
<title>termin&#45;mesh&#45;&gt;termin&#45;graphics</title>
<path fill="none" stroke="#666666" stroke-width="1.1" d="M410.76,-639.06C423.01,-631.95 437.18,-623.7 450,-616.17 473.17,-602.58 499.12,-587.23 519.6,-575.09"/>
<polygon fill="#666666" stroke="#666666" stroke-width="1.1" points="521.01,-577.11 525.78,-571.43 518.51,-572.89 521.01,-577.11"/>
</g>
<!-- termin&#45;modules&#45;&gt;termin&#45;app -->
<g id="edge54" class="edge">
<title>termin&#45;modules&#45;&gt;termin&#45;app</title>
<path fill="none" stroke="#666666" stroke-width="1.1" d="M384.2,-850.42C406.54,-932.45 509.94,-1263.17 725,-1263.17 725,-1263.17 725,-1263.17 1179,-1263.17 1325.52,-1263.17 1392.32,-1332.1 1508,-1242.17 1603.02,-1168.31 1612.94,-1006.77 1613.07,-944.42"/>
<polygon fill="#666666" stroke="#666666" stroke-width="1.1" points="1615.52,-944.32 1613.04,-937.32 1610.62,-944.33 1615.52,-944.32"/>
</g>
<!-- termin&#45;navmesh -->
<g id="node10" class="node">
<title>termin&#45;navmesh</title>
<path fill="#f7f7f7" stroke="#444444" d="M238,-788.17C238,-788.17 157,-788.17 157,-788.17 151,-788.17 145,-782.17 145,-776.17 145,-776.17 145,-764.17 145,-764.17 145,-758.17 151,-752.17 157,-752.17 157,-752.17 238,-752.17 238,-752.17 244,-752.17 250,-758.17 250,-764.17 250,-764.17 250,-776.17 250,-776.17 250,-782.17 244,-788.17 238,-788.17"/>
<text text-anchor="middle" x="197.5" y="-767.37" font-family="DejaVu Sans" font-size="11.00">termin&#45;navmesh</text>
</g>
<!-- termin&#45;navmesh&#45;&gt;termin&#45;app -->
<g id="edge56" class="edge">
<title>termin&#45;navmesh&#45;&gt;termin&#45;app</title>
<path fill="none" stroke="#666666" stroke-width="1.1" d="M231.55,-788.34C238.17,-792.94 244.71,-798.27 250,-804.17 287.02,-845.47 280,-866.73 307,-915.17 411.57,-1102.84 341.67,-1329.17 556.5,-1329.17 556.5,-1329.17 556.5,-1329.17 1179,-1329.17 1326.25,-1329.17 1396.06,-1385.83 1508,-1290.17 1561.86,-1244.15 1598.11,-1020.48 1609.04,-944.49"/>
<polygon fill="#666666" stroke="#666666" stroke-width="1.1" points="1611.51,-944.48 1610.07,-937.2 1606.66,-943.79 1611.51,-944.48"/>
</g>
<!-- termin&#45;default&#45;assets -->
<g id="node40" class="node">
<title>termin&#45;default&#45;assets</title>
<path fill="#f7f7f7" stroke="#444444" d="M987.5,-44.17C987.5,-44.17 879.5,-44.17 879.5,-44.17 873.5,-44.17 867.5,-38.17 867.5,-32.17 867.5,-32.17 867.5,-20.17 867.5,-20.17 867.5,-14.17 873.5,-8.17 879.5,-8.17 879.5,-8.17 987.5,-8.17 987.5,-8.17 993.5,-8.17 999.5,-14.17 999.5,-20.17 999.5,-20.17 999.5,-32.17 999.5,-32.17 999.5,-38.17 993.5,-44.17 987.5,-44.17"/>
<text text-anchor="middle" x="933.5" y="-23.37" font-family="DejaVu Sans" font-size="11.00">termin&#45;default&#45;assets</text>
</g>
<!-- termin&#45;navmesh&#45;&gt;termin&#45;default&#45;assets -->
<g id="edge57" class="edge">
<title>termin&#45;navmesh&#45;&gt;termin&#45;default&#45;assets</title>
<path fill="none" stroke="#666666" stroke-width="1.1" d="M235.22,-752C241.01,-747.59 246.3,-742.33 250,-736.17 318.66,-621.95 223.12,-242.74 307,-139.17 440.57,25.74 726.44,6.65 860.42,-13.05"/>
<polygon fill="#666666" stroke="#666666" stroke-width="1.1" points="860.17,-15.5 867.46,-14.11 860.9,-10.65 860.17,-15.5"/>
</g>
<!-- termin&#45;components&#45;physics -->
<g id="node22" class="node">
<title>termin&#45;components&#45;physics</title>
<path fill="#f7f7f7" stroke="#444444" d="M1488,-937.17C1488,-937.17 1345,-937.17 1345,-937.17 1339,-937.17 1333,-931.17 1333,-925.17 1333,-925.17 1333,-913.17 1333,-913.17 1333,-907.17 1339,-901.17 1345,-901.17 1345,-901.17 1488,-901.17 1488,-901.17 1494,-901.17 1500,-907.17 1500,-913.17 1500,-913.17 1500,-925.17 1500,-925.17 1500,-931.17 1494,-937.17 1488,-937.17"/>
<text text-anchor="middle" x="1416.5" y="-916.37" font-family="DejaVu Sans" font-size="11.00">termin&#45;components&#45;physics</text>
</g>
<!-- termin&#45;physics&#45;&gt;termin&#45;components&#45;physics -->
<g id="edge59" class="edge">
<title>termin&#45;physics&#45;&gt;termin&#45;components&#45;physics</title>
<path fill="none" stroke="#666666" stroke-width="1.1" d="M974.68,-720.3C1063.21,-760.24 1274.67,-855.64 1368.86,-898.13"/>
<polygon fill="#666666" stroke="#666666" stroke-width="1.1" points="1368.04,-900.45 1375.43,-901.1 1370.06,-895.99 1368.04,-900.45"/>
</g>
<!-- termin&#45;scene&#45;&gt;termin&#45;collision -->
<g id="edge65" class="edge">
<title>termin&#45;scene&#45;&gt;termin&#45;collision</title>
<path fill="none" stroke="#666666" stroke-width="1.1" d="M577.2,-751.94C599.27,-730.79 637.49,-695.36 673,-668.17 678.22,-664.18 683.9,-660.16 689.53,-656.35"/>
<polygon fill="#666666" stroke="#666666" stroke-width="1.1" points="691.12,-658.23 695.59,-652.31 688.41,-654.15 691.12,-658.23"/>
</g>
<!-- termin&#45;scene&#45;&gt;termin&#45;input -->
<g id="edge68" class="edge">
<title>termin&#45;scene&#45;&gt;termin&#45;input</title>
<path fill="none" stroke="#666666" stroke-width="1.1" d="M601.38,-770.17C624.69,-770.17 653.58,-770.17 677.57,-770.17"/>
<polygon fill="#666666" stroke="#666666" stroke-width="1.1" points="677.84,-772.62 684.84,-770.17 677.84,-767.72 677.84,-772.62"/>
</g>
<!-- termin&#45;skeleton -->
<g id="node13" class="node">
<title>termin&#45;skeleton</title>
<path fill="#f7f7f7" stroke="#444444" d="M764.5,-856.17C764.5,-856.17 687.5,-856.17 687.5,-856.17 681.5,-856.17 675.5,-850.17 675.5,-844.17 675.5,-844.17 675.5,-832.17 675.5,-832.17 675.5,-826.17 681.5,-820.17 687.5,-820.17 687.5,-820.17 764.5,-820.17 764.5,-820.17 770.5,-820.17 776.5,-826.17 776.5,-832.17 776.5,-832.17 776.5,-844.17 776.5,-844.17 776.5,-850.17 770.5,-856.17 764.5,-856.17"/>
<text text-anchor="middle" x="726" y="-835.37" font-family="DejaVu Sans" font-size="11.00">termin&#45;skeleton</text>
</g>
<!-- termin&#45;scene&#45;&gt;termin&#45;skeleton -->
<g id="edge70" class="edge">
<title>termin&#45;scene&#45;&gt;termin&#45;skeleton</title>
<path fill="none" stroke="#666666" stroke-width="1.1" d="M601.38,-787.69C623.57,-796.75 650.8,-807.87 674.05,-817.37"/>
<polygon fill="#666666" stroke="#666666" stroke-width="1.1" points="673.41,-819.75 680.82,-820.13 675.26,-815.21 673.41,-819.75"/>
</g>
<!-- termin&#45;components&#45;kinematic -->
<g id="node20" class="node">
<title>termin&#45;components&#45;kinematic</title>
<path fill="#f7f7f7" stroke="#444444" d="M1011,-1141.17C1011,-1141.17 856,-1141.17 856,-1141.17 850,-1141.17 844,-1135.17 844,-1129.17 844,-1129.17 844,-1117.17 844,-1117.17 844,-1111.17 850,-1105.17 856,-1105.17 856,-1105.17 1011,-1105.17 1011,-1105.17 1017,-1105.17 1023,-1111.17 1023,-1117.17 1023,-1117.17 1023,-1129.17 1023,-1129.17 1023,-1135.17 1017,-1141.17 1011,-1141.17"/>
<text text-anchor="middle" x="933.5" y="-1120.37" font-family="DejaVu Sans" font-size="11.00">termin&#45;components&#45;kinematic</text>
</g>
<!-- termin&#45;scene&#45;&gt;termin&#45;components&#45;kinematic -->
<g id="edge66" class="edge">
<title>termin&#45;scene&#45;&gt;termin&#45;components&#45;kinematic</title>
<path fill="none" stroke="#666666" stroke-width="1.1" d="M566.46,-788.41C582.79,-824.49 622.8,-906.41 673,-963.17 733.66,-1031.77 755.57,-1045.4 836,-1089.17 845.15,-1094.15 855.17,-1098.64 865.19,-1102.59"/>
<polygon fill="#666666" stroke="#666666" stroke-width="1.1" points="864.35,-1104.89 871.76,-1105.11 866.1,-1100.32 864.35,-1104.89"/>
</g>
<!-- termin&#45;scene&#45;&gt;termin&#45;components&#45;mesh -->
<g id="edge67" class="edge">
<title>termin&#45;scene&#45;&gt;termin&#45;components&#45;mesh</title>
<path fill="none" stroke="#666666" stroke-width="1.1" d="M573.81,-788.31C612.99,-833.66 721.85,-953.21 836,-1021.17 844.35,-1026.15 853.54,-1030.55 862.83,-1034.39"/>
<polygon fill="#666666" stroke="#666666" stroke-width="1.1" points="862.19,-1036.78 869.6,-1037.09 864.01,-1032.22 862.19,-1036.78"/>
</g>
<!-- termin&#45;render -->
<g id="node32" class="node">
<title>termin&#45;render</title>
<path fill="#f7f7f7" stroke="#444444" d="M759,-571.17C759,-571.17 693,-571.17 693,-571.17 687,-571.17 681,-565.17 681,-559.17 681,-559.17 681,-547.17 681,-547.17 681,-541.17 687,-535.17 693,-535.17 693,-535.17 759,-535.17 759,-535.17 765,-535.17 771,-541.17 771,-547.17 771,-547.17 771,-559.17 771,-559.17 771,-565.17 765,-571.17 759,-571.17"/>
<text text-anchor="middle" x="726" y="-550.37" font-family="DejaVu Sans" font-size="11.00">termin&#45;render</text>
</g>
<!-- termin&#45;scene&#45;&gt;termin&#45;render -->
<g id="edge69" class="edge">
<title>termin&#45;scene&#45;&gt;termin&#45;render</title>
<path fill="none" stroke="#666666" stroke-width="1.1" d="M568.72,-752.03C587.31,-719.79 628.83,-651.12 673,-600.17 680.25,-591.81 688.92,-583.45 697.08,-576.15"/>
<polygon fill="#666666" stroke="#666666" stroke-width="1.1" points="698.98,-577.74 702.63,-571.28 695.75,-574.06 698.98,-577.74"/>
</g>
<!-- termin&#45;skeleton&#45;&gt;termin&#45;animation -->
<g id="edge71" class="edge">
<title>termin&#45;skeleton&#45;&gt;termin&#45;animation</title>
<path fill="none" stroke="#666666" stroke-width="1.1" d="M776.75,-825.34C805.34,-817.97 841.47,-808.65 871.73,-800.85"/>
<polygon fill="#666666" stroke="#666666" stroke-width="1.1" points="872.73,-803.12 878.89,-799 871.5,-798.38 872.73,-803.12"/>
</g>
<!-- termin&#45;components&#45;skeleton -->
<g id="node23" class="node">
<title>termin&#45;components&#45;skeleton</title>
<path fill="#f7f7f7" stroke="#444444" d="M1007.5,-1005.17C1007.5,-1005.17 859.5,-1005.17 859.5,-1005.17 853.5,-1005.17 847.5,-999.17 847.5,-993.17 847.5,-993.17 847.5,-981.17 847.5,-981.17 847.5,-975.17 853.5,-969.17 859.5,-969.17 859.5,-969.17 1007.5,-969.17 1007.5,-969.17 1013.5,-969.17 1019.5,-975.17 1019.5,-981.17 1019.5,-981.17 1019.5,-993.17 1019.5,-993.17 1019.5,-999.17 1013.5,-1005.17 1007.5,-1005.17"/>
<text text-anchor="middle" x="933.5" y="-984.37" font-family="DejaVu Sans" font-size="11.00">termin&#45;components&#45;skeleton</text>
</g>
<!-- termin&#45;skeleton&#45;&gt;termin&#45;components&#45;skeleton -->
<g id="edge72" class="edge">
<title>termin&#45;skeleton&#45;&gt;termin&#45;components&#45;skeleton</title>
<path fill="none" stroke="#666666" stroke-width="1.1" d="M751.8,-856.32C760.76,-863.35 770.7,-871.74 779,-880.17 807.87,-909.52 802.58,-929.15 836,-953.17 842.93,-958.16 850.66,-962.47 858.64,-966.18"/>
<polygon fill="#666666" stroke="#666666" stroke-width="1.1" points="858,-968.58 865.39,-969.16 859.98,-964.09 858,-968.58"/>
</g>
<!-- termin&#45;tween -->
<g id="node14" class="node">
<title>termin&#45;tween</title>
<path fill="#f7f7f7" stroke="#444444" d="M229.5,-856.17C229.5,-856.17 165.5,-856.17 165.5,-856.17 159.5,-856.17 153.5,-850.17 153.5,-844.17 153.5,-844.17 153.5,-832.17 153.5,-832.17 153.5,-826.17 159.5,-820.17 165.5,-820.17 165.5,-820.17 229.5,-820.17 229.5,-820.17 235.5,-820.17 241.5,-826.17 241.5,-832.17 241.5,-832.17 241.5,-844.17 241.5,-844.17 241.5,-850.17 235.5,-856.17 229.5,-856.17"/>
<text text-anchor="middle" x="197.5" y="-835.37" font-family="DejaVu Sans" font-size="11.00">termin&#45;tween</text>
</g>
<!-- termin&#45;components&#45;tween -->
<g id="node24" class="node">
<title>termin&#45;components&#45;tween</title>
<path fill="#f7f7f7" stroke="#444444" d="M1001,-1209.17C1001,-1209.17 866,-1209.17 866,-1209.17 860,-1209.17 854,-1203.17 854,-1197.17 854,-1197.17 854,-1185.17 854,-1185.17 854,-1179.17 860,-1173.17 866,-1173.17 866,-1173.17 1001,-1173.17 1001,-1173.17 1007,-1173.17 1013,-1179.17 1013,-1185.17 1013,-1185.17 1013,-1197.17 1013,-1197.17 1013,-1203.17 1007,-1209.17 1001,-1209.17"/>
<text text-anchor="middle" x="933.5" y="-1188.37" font-family="DejaVu Sans" font-size="11.00">termin&#45;components&#45;tween</text>
</g>
<!-- termin&#45;tween&#45;&gt;termin&#45;components&#45;tween -->
<g id="edge73" class="edge">
<title>termin&#45;tween&#45;&gt;termin&#45;components&#45;tween</title>
<path fill="none" stroke="#666666" stroke-width="1.1" d="M221.36,-856.32C242.75,-872.83 275.99,-897.29 307,-915.17 530.97,-1044.34 596.27,-1060.34 836,-1157.17 847.53,-1161.83 859.98,-1166.49 871.97,-1170.79"/>
<polygon fill="#666666" stroke="#666666" stroke-width="1.1" points="871.17,-1173.1 878.58,-1173.14 872.81,-1168.49 871.17,-1173.1"/>
</g>
<!-- termin&#45;voxels -->
<g id="node15" class="node">
<title>termin&#45;voxels</title>
<path fill="#f7f7f7" stroke="#444444" d="M759,-720.17C759,-720.17 693,-720.17 693,-720.17 687,-720.17 681,-714.17 681,-708.17 681,-708.17 681,-696.17 681,-696.17 681,-690.17 687,-684.17 693,-684.17 693,-684.17 759,-684.17 759,-684.17 765,-684.17 771,-690.17 771,-696.17 771,-696.17 771,-708.17 771,-708.17 771,-714.17 765,-720.17 759,-720.17"/>
<text text-anchor="middle" x="726" y="-699.37" font-family="DejaVu Sans" font-size="11.00">termin&#45;voxels</text>
</g>
<!-- termin&#45;voxels&#45;&gt;termin&#45;physics -->
<g id="edge75" class="edge">
<title>termin&#45;voxels&#45;&gt;termin&#45;physics</title>
<path fill="none" stroke="#666666" stroke-width="1.1" d="M771.08,-702.17C802.33,-702.17 844.47,-702.17 877.85,-702.17"/>
<polygon fill="#666666" stroke="#666666" stroke-width="1.1" points="878.27,-704.62 885.27,-702.17 878.27,-699.72 878.27,-704.62"/>
</g>
<!-- termin&#45;components&#45;voxels -->
<g id="node25" class="node">
<title>termin&#45;components&#45;voxels</title>
<path fill="#f7f7f7" stroke="#444444" d="M1002,-937.17C1002,-937.17 865,-937.17 865,-937.17 859,-937.17 853,-931.17 853,-925.17 853,-925.17 853,-913.17 853,-913.17 853,-907.17 859,-901.17 865,-901.17 865,-901.17 1002,-901.17 1002,-901.17 1008,-901.17 1014,-907.17 1014,-913.17 1014,-913.17 1014,-925.17 1014,-925.17 1014,-931.17 1008,-937.17 1002,-937.17"/>
<text text-anchor="middle" x="933.5" y="-916.37" font-family="DejaVu Sans" font-size="11.00">termin&#45;components&#45;voxels</text>
</g>
<!-- termin&#45;voxels&#45;&gt;termin&#45;components&#45;voxels -->
<g id="edge74" class="edge">
<title>termin&#45;voxels&#45;&gt;termin&#45;components&#45;voxels</title>
<path fill="none" stroke="#666666" stroke-width="1.1" d="M761.5,-720.18C767.95,-724.73 774.18,-730.09 779,-736.17 825.1,-794.36 781.32,-842.96 836,-893.17 839.27,-896.18 842.85,-898.84 846.65,-901.2"/>
<polygon fill="#666666" stroke="#666666" stroke-width="1.1" points="845.48,-903.36 852.78,-904.67 847.89,-899.09 845.48,-903.36"/>
</g>
<!-- termin -->
<g id="node16" class="node">
<title>termin</title>
<path fill="#f7f7f7" stroke="#444444" d="M59,-559.17C59,-559.17 29,-559.17 29,-559.17 23,-559.17 17,-553.17 17,-547.17 17,-547.17 17,-535.17 17,-535.17 17,-529.17 23,-523.17 29,-523.17 29,-523.17 59,-523.17 59,-523.17 65,-523.17 71,-529.17 71,-535.17 71,-535.17 71,-547.17 71,-547.17 71,-553.17 65,-559.17 59,-559.17"/>
<text text-anchor="middle" x="44" y="-538.37" font-family="DejaVu Sans" font-size="11.00">termin</text>
</g>
<!-- termin&#45;&gt;termin&#45;app -->
<g id="edge2" class="edge">
<title>termin&#45;&gt;termin&#45;app</title>
<path fill="none" stroke="#666666" stroke-width="1.1" d="M49.63,-522.84C67.95,-454.88 142.53,-217.17 307,-139.17 364.43,-111.94 387.26,-129.04 450,-139.17 553.09,-155.83 571.49,-188.68 673,-213.17 826.01,-250.09 877.94,-206.08 1023,-267.17 1148.5,-320.03 1182.73,-345 1268,-451.17 1311.72,-505.61 1295.42,-535.34 1333,-594.17 1412.4,-718.47 1536.38,-845.11 1588.33,-895.96"/>
<polygon fill="#666666" stroke="#666666" stroke-width="1.1" points="1586.7,-897.79 1593.42,-900.93 1590.12,-894.28 1586.7,-897.79"/>
</g>
<!-- termin&#45;&gt;termin&#45;navmesh -->
<g id="edge3" class="edge">
<title>termin&#45;&gt;termin&#45;navmesh</title>
<path fill="none" stroke="#666666" stroke-width="1.1" d="M49.58,-559.41C59.72,-596.62 87.19,-682.3 137,-736.17 141.06,-740.57 145.83,-744.55 150.86,-748.11"/>
<polygon fill="#666666" stroke="#666666" stroke-width="1.1" points="149.68,-750.27 156.87,-752.09 152.39,-746.18 149.68,-750.27"/>
</g>
<!-- termin&#45;&gt;termin&#45;tween -->
<g id="edge4" class="edge">
<title>termin&#45;&gt;termin&#45;tween</title>
<path fill="none" stroke="#666666" stroke-width="1.1" d="M46.95,-559.25C52.73,-605.16 73.57,-727.95 137,-804.17 140.64,-808.55 144.99,-812.47 149.67,-815.96"/>
<polygon fill="#666666" stroke="#666666" stroke-width="1.1" points="148.59,-818.19 155.74,-820.16 151.37,-814.16 148.59,-818.19"/>
</g>
<!-- termin&#45;&gt;termin&#45;voxels -->
<g id="edge5" class="edge">
<title>termin&#45;&gt;termin&#45;voxels</title>
<path fill="none" stroke="#666666" stroke-width="1.1" d="M60.08,-522.84C116.53,-456.32 318.81,-237.25 450,-346.17 541.14,-421.85 424.44,-516.12 499,-608.17 542.3,-661.63 621.21,-685.07 673.38,-695.08"/>
<polygon fill="#666666" stroke="#666666" stroke-width="1.1" points="673.23,-697.54 680.56,-696.4 674.12,-692.72 673.23,-697.54"/>
</g>
<!-- termin&#45;components&#45;animation&#45;&gt;termin&#45;app -->
<g id="edge23" class="edge">
<title>termin&#45;components&#45;animation&#45;&gt;termin&#45;app</title>
<path fill="none" stroke="#666666" stroke-width="1.1" d="M1268.26,-960.11C1334.78,-964.17 1427.61,-965.92 1508,-953.17 1528.64,-949.9 1550.75,-943.2 1569.3,-936.61"/>
<polygon fill="#666666" stroke="#666666" stroke-width="1.1" points="1570.21,-938.88 1575.96,-934.19 1568.54,-934.28 1570.21,-938.88"/>
</g>
<!-- termin&#45;components&#45;collision&#45;&gt;termin&#45;components&#45;physics -->
<g id="edge24" class="edge">
<title>termin&#45;components&#45;collision&#45;&gt;termin&#45;components&#45;physics</title>
<path fill="none" stroke="#666666" stroke-width="1.1" d="M1228.18,-1002.01C1241.19,-997.03 1255.18,-991.53 1268,-986.17 1302.99,-971.56 1342.03,-953.76 1371.15,-940.18"/>
<polygon fill="#666666" stroke="#666666" stroke-width="1.1" points="1372.28,-942.36 1377.58,-937.18 1370.2,-937.92 1372.28,-942.36"/>
</g>
<!-- termin&#45;components&#45;kinematic&#45;&gt;termin&#45;app -->
<g id="edge25" class="edge">
<title>termin&#45;components&#45;kinematic&#45;&gt;termin&#45;app</title>
<path fill="none" stroke="#666666" stroke-width="1.1" d="M1023.12,-1111.28C1138.56,-1093.6 1344.88,-1054.43 1508,-982.17 1533.45,-970.9 1560.31,-954.6 1580.42,-941.41"/>
<polygon fill="#666666" stroke="#666666" stroke-width="1.1" points="1581.96,-943.33 1586.44,-937.42 1579.25,-939.24 1581.96,-943.33"/>
</g>
<!-- termin&#45;components&#45;mesh&#45;&gt;termin&#45;components&#45;collision -->
<g id="edge26" class="edge">
<title>termin&#45;components&#45;mesh&#45;&gt;termin&#45;components&#45;collision</title>
<path fill="none" stroke="#666666" stroke-width="1.1" d="M1011.56,-1044.05C1035.17,-1040.65 1061.36,-1036.86 1085.81,-1033.34"/>
<polygon fill="#666666" stroke="#666666" stroke-width="1.1" points="1086.42,-1035.72 1093,-1032.3 1085.72,-1030.87 1086.42,-1035.72"/>
</g>
<!-- termin&#45;components&#45;render -->
<g id="node28" class="node">
<title>termin&#45;components&#45;render</title>
<path fill="#f7f7f7" stroke="#444444" d="M1247,-571.17C1247,-571.17 1109,-571.17 1109,-571.17 1103,-571.17 1097,-565.17 1097,-559.17 1097,-559.17 1097,-547.17 1097,-547.17 1097,-541.17 1103,-535.17 1109,-535.17 1109,-535.17 1247,-535.17 1247,-535.17 1253,-535.17 1259,-541.17 1259,-547.17 1259,-547.17 1259,-559.17 1259,-559.17 1259,-565.17 1253,-571.17 1247,-571.17"/>
<text text-anchor="middle" x="1178" y="-550.37" font-family="DejaVu Sans" font-size="11.00">termin&#45;components&#45;render</text>
</g>
<!-- termin&#45;components&#45;mesh&#45;&gt;termin&#45;components&#45;render -->
<g id="edge27" class="edge">
<title>termin&#45;components&#45;mesh&#45;&gt;termin&#45;components&#45;render</title>
<path fill="none" stroke="#666666" stroke-width="1.1" d="M1001.4,-1037.1C1009.39,-1032.85 1016.87,-1027.61 1023,-1021.17 1055.2,-987.36 1144.49,-670.8 1170.07,-578.39"/>
<polygon fill="#666666" stroke="#666666" stroke-width="1.1" points="1172.5,-578.78 1172.01,-571.38 1167.78,-577.48 1172.5,-578.78"/>
</g>
<!-- termin&#45;components&#45;physics&#45;&gt;termin&#45;app -->
<g id="edge28" class="edge">
<title>termin&#45;components&#45;physics&#45;&gt;termin&#45;app</title>
<path fill="none" stroke="#666666" stroke-width="1.1" d="M1500.2,-919.17C1523.68,-919.17 1548.33,-919.17 1568.54,-919.17"/>
<polygon fill="#666666" stroke="#666666" stroke-width="1.1" points="1568.78,-921.62 1575.78,-919.17 1568.78,-916.72 1568.78,-921.62"/>
</g>
<!-- termin&#45;components&#45;skeleton&#45;&gt;termin&#45;components&#45;animation -->
<g id="edge31" class="edge">
<title>termin&#45;components&#45;skeleton&#45;&gt;termin&#45;components&#45;animation</title>
<path fill="none" stroke="#666666" stroke-width="1.1" d="M1019.66,-974.88C1039.43,-972.03 1060.62,-968.97 1080.83,-966.05"/>
<polygon fill="#666666" stroke="#666666" stroke-width="1.1" points="1081.36,-968.45 1087.94,-965.03 1080.66,-963.6 1081.36,-968.45"/>
</g>
<!-- termin&#45;components&#45;skeleton&#45;&gt;termin&#45;components&#45;render -->
<g id="edge32" class="edge">
<title>termin&#45;components&#45;skeleton&#45;&gt;termin&#45;components&#45;render</title>
<path fill="none" stroke="#666666" stroke-width="1.1" d="M1000.66,-969.04C1008.86,-964.79 1016.6,-959.57 1023,-953.17 1132.44,-843.81 1165.7,-648.23 1174.33,-578.63"/>
<polygon fill="#666666" stroke="#666666" stroke-width="1.1" points="1176.78,-578.77 1175.17,-571.53 1171.91,-578.19 1176.78,-578.77"/>
</g>
<!-- termin&#45;components&#45;tween&#45;&gt;termin&#45;app -->
<g id="edge33" class="edge">
<title>termin&#45;components&#45;tween&#45;&gt;termin&#45;app</title>
<path fill="none" stroke="#666666" stroke-width="1.1" d="M1013.15,-1184.98C1129.4,-1172.72 1350.31,-1137.3 1508,-1038.17 1546.79,-1013.79 1579.36,-970.73 1597.37,-943.64"/>
<polygon fill="#666666" stroke="#666666" stroke-width="1.1" points="1599.64,-944.65 1601.42,-937.45 1595.54,-941.97 1599.64,-944.65"/>
</g>
<!-- termin&#45;components&#45;voxels&#45;&gt;termin&#45;navmesh -->
<g id="edge34" class="edge">
<title>termin&#45;components&#45;voxels&#45;&gt;termin&#45;navmesh</title>
<path fill="none" stroke="#666666" stroke-width="1.1" d="M852.86,-930.1C729.09,-943.33 486.19,-954.05 307,-866.17 273.39,-849.69 278.5,-828.44 250,-804.17 245.15,-800.04 239.77,-795.99 234.37,-792.22"/>
<polygon fill="#666666" stroke="#666666" stroke-width="1.1" points="235.7,-790.15 228.53,-788.23 232.93,-794.2 235.7,-790.15"/>
</g>
<!-- termin&#45;assets&#45;&gt;termin&#45;skeleton -->
<g id="edge10" class="edge">
<title>termin&#45;assets&#45;&gt;termin&#45;skeleton</title>
<path fill="none" stroke="#666666" stroke-width="1.1" d="M423.57,-186.21C433.71,-191.21 443.43,-198.01 450,-207.17 553.6,-351.65 426.6,-441.8 499,-604.17 510.99,-631.08 650.8,-784.82 673,-804.17 677.78,-808.34 683.1,-812.38 688.47,-816.14"/>
<polygon fill="#666666" stroke="#666666" stroke-width="1.1" points="687.12,-818.19 694.28,-820.1 689.88,-814.14 687.12,-818.19"/>
</g>
<!-- termin&#45;components&#45;foliage -->
<g id="node39" class="node">
<title>termin&#45;components&#45;foliage</title>
<path fill="#f7f7f7" stroke="#444444" d="M1002.5,-319.17C1002.5,-319.17 864.5,-319.17 864.5,-319.17 858.5,-319.17 852.5,-313.17 852.5,-307.17 852.5,-307.17 852.5,-295.17 852.5,-295.17 852.5,-289.17 858.5,-283.17 864.5,-283.17 864.5,-283.17 1002.5,-283.17 1002.5,-283.17 1008.5,-283.17 1014.5,-289.17 1014.5,-295.17 1014.5,-295.17 1014.5,-307.17 1014.5,-307.17 1014.5,-313.17 1008.5,-319.17 1002.5,-319.17"/>
<text text-anchor="middle" x="933.5" y="-298.37" font-family="DejaVu Sans" font-size="11.00">termin&#45;components&#45;foliage</text>
</g>
<!-- termin&#45;assets&#45;&gt;termin&#45;components&#45;foliage -->
<g id="edge8" class="edge">
<title>termin&#45;assets&#45;&gt;termin&#45;components&#45;foliage</title>
<path fill="none" stroke="#666666" stroke-width="1.1" d="M423.8,-188.03C480.87,-206.74 583.41,-238.88 673,-259.17 729.86,-272.05 794.59,-282.54 845.17,-289.81"/>
<polygon fill="#666666" stroke="#666666" stroke-width="1.1" points="844.94,-292.25 852.22,-290.81 845.63,-287.4 844.94,-292.25"/>
</g>
<!-- termin&#45;assets&#45;&gt;termin&#45;default&#45;assets -->
<g id="edge9" class="edge">
<title>termin&#45;assets&#45;&gt;termin&#45;default&#45;assets</title>
<path fill="none" stroke="#666666" stroke-width="1.1" d="M423.78,-172.91C471.83,-170.89 549.49,-162.47 608,-131.17 644.58,-111.61 636.07,-83.07 673,-64.17 731.29,-34.35 805.97,-26.04 860.23,-24.49"/>
<polygon fill="#666666" stroke="#666666" stroke-width="1.1" points="860.48,-26.93 867.42,-24.32 860.36,-22.03 860.48,-26.93"/>
</g>
<!-- termin&#45;nanobind&#45;sdk -->
<g id="node27" class="node">
<title>termin&#45;nanobind&#45;sdk</title>
<path fill="#f7f7f7" stroke="#444444" d="M430,-259.17C430,-259.17 327,-259.17 327,-259.17 321,-259.17 315,-253.17 315,-247.17 315,-247.17 315,-235.17 315,-235.17 315,-229.17 321,-223.17 327,-223.17 327,-223.17 430,-223.17 430,-223.17 436,-223.17 442,-229.17 442,-235.17 442,-235.17 442,-247.17 442,-247.17 442,-253.17 436,-259.17 430,-259.17"/>
<text text-anchor="middle" x="378.5" y="-238.37" font-family="DejaVu Sans" font-size="11.00">termin&#45;nanobind&#45;sdk</text>
</g>
<!-- termin&#45;nanobind&#45;sdk&#45;&gt;termin&#45;base -->
<g id="edge55" class="edge">
<title>termin&#45;nanobind&#45;sdk&#45;&gt;termin&#45;base</title>
<path fill="none" stroke="#666666" stroke-width="1.1" d="M361.65,-259.54C345.31,-279.49 320.38,-312.98 307,-346.17 252.65,-480.97 329.8,-546.71 250,-668.17 247.21,-672.42 243.68,-676.26 239.79,-679.7"/>
<polygon fill="#666666" stroke="#666666" stroke-width="1.1" points="238.2,-677.84 234.3,-684.14 241.28,-681.65 238.2,-677.84"/>
</g>
<!-- termin&#45;render&#45;passes -->
<g id="node45" class="node">
<title>termin&#45;render&#45;passes</title>
<path fill="#f7f7f7" stroke="#444444" d="M1470.5,-404.17C1470.5,-404.17 1362.5,-404.17 1362.5,-404.17 1356.5,-404.17 1350.5,-398.17 1350.5,-392.17 1350.5,-392.17 1350.5,-380.17 1350.5,-380.17 1350.5,-374.17 1356.5,-368.17 1362.5,-368.17 1362.5,-368.17 1470.5,-368.17 1470.5,-368.17 1476.5,-368.17 1482.5,-374.17 1482.5,-380.17 1482.5,-380.17 1482.5,-392.17 1482.5,-392.17 1482.5,-398.17 1476.5,-404.17 1470.5,-404.17"/>
<text text-anchor="middle" x="1416.5" y="-383.37" font-family="DejaVu Sans" font-size="11.00">termin&#45;render&#45;passes</text>
</g>
<!-- termin&#45;components&#45;render&#45;&gt;termin&#45;render&#45;passes -->
<g id="edge29" class="edge">
<title>termin&#45;components&#45;render&#45;&gt;termin&#45;render&#45;passes</title>
<path fill="none" stroke="#666666" stroke-width="1.1" d="M1195.99,-535.16C1222.91,-507.46 1277.94,-454.06 1333,-420.17 1340.78,-415.39 1349.35,-411 1357.94,-407.09"/>
<polygon fill="#666666" stroke="#666666" stroke-width="1.1" points="1359.09,-409.26 1364.5,-404.18 1357.11,-404.78 1359.09,-409.26"/>
</g>
<!-- termin&#45;runtime -->
<g id="node46" class="node">
<title>termin&#45;runtime</title>
<path fill="#f7f7f7" stroke="#444444" d="M1650,-558.17C1650,-558.17 1577,-558.17 1577,-558.17 1571,-558.17 1565,-552.17 1565,-546.17 1565,-546.17 1565,-534.17 1565,-534.17 1565,-528.17 1571,-522.17 1577,-522.17 1577,-522.17 1650,-522.17 1650,-522.17 1656,-522.17 1662,-528.17 1662,-534.17 1662,-534.17 1662,-546.17 1662,-546.17 1662,-552.17 1656,-558.17 1650,-558.17"/>
<text text-anchor="middle" x="1613.5" y="-537.37" font-family="DejaVu Sans" font-size="11.00">termin&#45;runtime</text>
</g>
<!-- termin&#45;components&#45;render&#45;&gt;termin&#45;runtime -->
<g id="edge30" class="edge">
<title>termin&#45;components&#45;render&#45;&gt;termin&#45;runtime</title>
<path fill="none" stroke="#666666" stroke-width="1.1" d="M1259.02,-550.77C1345.88,-548.17 1482.25,-544.08 1557.7,-541.82"/>
<polygon fill="#666666" stroke="#666666" stroke-width="1.1" points="1557.88,-544.26 1564.81,-541.6 1557.74,-539.37 1557.88,-544.26"/>
</g>
<!-- termin&#45;display&#45;&gt;termin&#45;components&#45;render -->
<g id="edge36" class="edge">
<title>termin&#45;display&#45;&gt;termin&#45;components&#45;render</title>
<path fill="none" stroke="#666666" stroke-width="1.1" d="M980.11,-553.17C1010.85,-553.17 1052.4,-553.17 1089.4,-553.17"/>
<polygon fill="#666666" stroke="#666666" stroke-width="1.1" points="1089.73,-555.62 1096.73,-553.17 1089.73,-550.72 1089.73,-555.62"/>
</g>
<!-- termin&#45;engine -->
<g id="node33" class="node">
<title>termin&#45;engine</title>
<path fill="#f7f7f7" stroke="#444444" d="M1450,-472.17C1450,-472.17 1383,-472.17 1383,-472.17 1377,-472.17 1371,-466.17 1371,-460.17 1371,-460.17 1371,-448.17 1371,-448.17 1371,-442.17 1377,-436.17 1383,-436.17 1383,-436.17 1450,-436.17 1450,-436.17 1456,-436.17 1462,-442.17 1462,-448.17 1462,-448.17 1462,-460.17 1462,-460.17 1462,-466.17 1456,-472.17 1450,-472.17"/>
<text text-anchor="middle" x="1416.5" y="-451.37" font-family="DejaVu Sans" font-size="11.00">termin&#45;engine</text>
</g>
<!-- termin&#45;display&#45;&gt;termin&#45;engine -->
<g id="edge37" class="edge">
<title>termin&#45;display&#45;&gt;termin&#45;engine</title>
<path fill="none" stroke="#666666" stroke-width="1.1" d="M980.12,-542.79C1010.62,-535.92 1051.67,-526.8 1088,-519.17 1185.23,-498.76 1299.07,-476.54 1363.69,-464.09"/>
<polygon fill="#666666" stroke="#666666" stroke-width="1.1" points="1364.53,-466.42 1370.94,-462.7 1363.6,-461.61 1364.53,-466.42"/>
</g>
<!-- termin&#45;graphics&#45;&gt;termin&#45;voxels -->
<g id="edge45" class="edge">
<title>termin&#45;graphics&#45;&gt;termin&#45;voxels</title>
<path fill="none" stroke="#666666" stroke-width="1.1" d="M577.98,-571.26C587.19,-579.91 598.26,-590.47 608,-600.17 637.61,-629.69 640.85,-641.45 673,-668.17 677.93,-672.28 683.38,-676.31 688.84,-680.08"/>
<polygon fill="#666666" stroke="#666666" stroke-width="1.1" points="687.57,-682.18 694.74,-684.06 690.31,-678.12 687.57,-682.18"/>
</g>
<!-- termin&#45;graphics&#45;&gt;termin&#45;render -->
<g id="edge44" class="edge">
<title>termin&#45;graphics&#45;&gt;termin&#45;render</title>
<path fill="none" stroke="#666666" stroke-width="1.1" d="M608,-553.17C628.67,-553.17 652.67,-553.17 673.54,-553.17"/>
<polygon fill="#666666" stroke="#666666" stroke-width="1.1" points="673.78,-555.62 680.78,-553.17 673.78,-550.72 673.78,-555.62"/>
</g>
<!-- termin&#45;gui -->
<g id="node35" class="node">
<title>termin&#45;gui</title>
<path fill="#f7f7f7" stroke="#444444" d="M749.5,-128.17C749.5,-128.17 702.5,-128.17 702.5,-128.17 696.5,-128.17 690.5,-122.17 690.5,-116.17 690.5,-116.17 690.5,-104.17 690.5,-104.17 690.5,-98.17 696.5,-92.17 702.5,-92.17 702.5,-92.17 749.5,-92.17 749.5,-92.17 755.5,-92.17 761.5,-98.17 761.5,-104.17 761.5,-104.17 761.5,-116.17 761.5,-116.17 761.5,-122.17 755.5,-128.17 749.5,-128.17"/>
<text text-anchor="middle" x="726" y="-107.37" font-family="DejaVu Sans" font-size="11.00">termin&#45;gui</text>
</g>
<!-- termin&#45;graphics&#45;&gt;termin&#45;gui -->
<g id="edge42" class="edge">
<title>termin&#45;graphics&#45;&gt;termin&#45;gui</title>
<path fill="none" stroke="#666666" stroke-width="1.1" d="M591.66,-535.17C597.78,-530.62 603.62,-525.27 608,-519.17 697.31,-395.07 718.69,-204.22 723.6,-135.73"/>
<polygon fill="#666666" stroke="#666666" stroke-width="1.1" points="726.07,-135.52 724.1,-128.37 721.18,-135.19 726.07,-135.52"/>
</g>
<!-- termin&#45;materials -->
<g id="node41" class="node">
<title>termin&#45;materials</title>
<path fill="#f7f7f7" stroke="#444444" d="M767,-451.17C767,-451.17 685,-451.17 685,-451.17 679,-451.17 673,-445.17 673,-439.17 673,-439.17 673,-427.17 673,-427.17 673,-421.17 679,-415.17 685,-415.17 685,-415.17 767,-415.17 767,-415.17 773,-415.17 779,-421.17 779,-427.17 779,-427.17 779,-439.17 779,-439.17 779,-445.17 773,-451.17 767,-451.17"/>
<text text-anchor="middle" x="726" y="-430.37" font-family="DejaVu Sans" font-size="11.00">termin&#45;materials</text>
</g>
<!-- termin&#45;graphics&#45;&gt;termin&#45;materials -->
<g id="edge43" class="edge">
<title>termin&#45;graphics&#45;&gt;termin&#45;materials</title>
<path fill="none" stroke="#666666" stroke-width="1.1" d="M586.62,-535.12C593.77,-530.19 601.32,-524.68 608,-519.17 639.27,-493.38 639.29,-477.69 673,-455.17 673.13,-455.09 673.26,-455 673.38,-454.92"/>
<polygon fill="#666666" stroke="#666666" stroke-width="1.1" points="674.67,-457 679.37,-451.26 672.12,-452.82 674.67,-457"/>
</g>
<!-- termin&#45;lighting&#45;&gt;termin&#45;render -->
<g id="edge52" class="edge">
<title>termin&#45;lighting&#45;&gt;termin&#45;render</title>
<path fill="none" stroke="#666666" stroke-width="1.1" d="M602.68,-503.22C624.69,-512.21 651.41,-523.12 674.26,-532.45"/>
<polygon fill="#666666" stroke="#666666" stroke-width="1.1" points="673.49,-534.79 680.9,-535.16 675.35,-530.25 673.49,-534.79"/>
</g>
<!-- termin&#45;render&#45;&gt;termin&#45;display -->
<g id="edge61" class="edge">
<title>termin&#45;render&#45;&gt;termin&#45;display</title>
<path fill="none" stroke="#666666" stroke-width="1.1" d="M771.08,-553.17C802.9,-553.17 846.01,-553.17 879.68,-553.17"/>
<polygon fill="#666666" stroke="#666666" stroke-width="1.1" points="879.71,-555.62 886.71,-553.17 879.71,-550.72 879.71,-555.62"/>
</g>
<!-- termin&#45;render&#45;&gt;termin&#45;components&#45;foliage -->
<g id="edge60" class="edge">
<title>termin&#45;render&#45;&gt;termin&#45;components&#45;foliage</title>
<path fill="none" stroke="#666666" stroke-width="1.1" d="M738.77,-535.07C749.73,-517.9 766.25,-491.22 779,-467.17 807.4,-413.58 792.68,-385.62 836,-343.17 844.56,-334.78 855.08,-327.93 865.98,-322.39"/>
<polygon fill="#666666" stroke="#666666" stroke-width="1.1" points="867.19,-324.52 872.43,-319.27 865.06,-320.11 867.19,-324.52"/>
</g>
<!-- termin&#45;engine&#45;&gt;termin&#45;app -->
<g id="edge39" class="edge">
<title>termin&#45;engine&#45;&gt;termin&#45;app</title>
<path fill="none" stroke="#666666" stroke-width="1.1" d="M1462.32,-468.5C1478.86,-475.86 1496.37,-486.45 1508,-501.17 1604.61,-623.52 1613.18,-823.69 1613.02,-893.89"/>
<polygon fill="#666666" stroke="#666666" stroke-width="1.1" points="1610.57,-894.02 1612.98,-901.04 1615.47,-894.05 1610.57,-894.02"/>
</g>
<!-- termin&#45;engine&#45;&gt;termin&#45;android -->
<g id="edge38" class="edge">
<title>termin&#45;engine&#45;&gt;termin&#45;android</title>
<path fill="none" stroke="#666666" stroke-width="1.1" d="M1462.24,-446.37C1490.76,-441.4 1527.9,-434.92 1558.12,-429.66"/>
<polygon fill="#666666" stroke="#666666" stroke-width="1.1" points="1558.78,-432.03 1565.25,-428.41 1557.93,-427.2 1558.78,-432.03"/>
</g>
<!-- termin&#45;engine&#45;&gt;termin&#45;openxr -->
<g id="edge40" class="edge">
<title>termin&#45;engine&#45;&gt;termin&#45;openxr</title>
<path fill="none" stroke="#666666" stroke-width="1.1" d="M1462.05,-439.62C1476.96,-434.18 1493.47,-427.52 1508,-420.17 1522.31,-412.94 1555.04,-391.31 1580.09,-374.37"/>
<polygon fill="#666666" stroke="#666666" stroke-width="1.1" points="1581.54,-376.35 1585.95,-370.39 1578.79,-372.29 1581.54,-376.35"/>
</g>
<!-- termin&#45;engine&#45;&gt;termin&#45;runtime -->
<g id="edge41" class="edge">
<title>termin&#45;engine&#45;&gt;termin&#45;runtime</title>
<path fill="none" stroke="#666666" stroke-width="1.1" d="M1458.38,-472.2C1489.45,-485.91 1532.26,-504.79 1564.88,-519.17"/>
<polygon fill="#666666" stroke="#666666" stroke-width="1.1" points="1564.28,-521.59 1571.68,-522.17 1566.26,-517.1 1564.28,-521.59"/>
</g>
<!-- tcplot -->
<g id="node34" class="node">
<title>tcplot</title>
<path fill="#f7f7f7" stroke="#444444" d="M948.5,-112.17C948.5,-112.17 918.5,-112.17 918.5,-112.17 912.5,-112.17 906.5,-106.17 906.5,-100.17 906.5,-100.17 906.5,-88.17 906.5,-88.17 906.5,-82.17 912.5,-76.17 918.5,-76.17 918.5,-76.17 948.5,-76.17 948.5,-76.17 954.5,-76.17 960.5,-82.17 960.5,-88.17 960.5,-88.17 960.5,-100.17 960.5,-100.17 960.5,-106.17 954.5,-112.17 948.5,-112.17"/>
<text text-anchor="middle" x="933.5" y="-91.37" font-family="DejaVu Sans" font-size="11.00">tcplot</text>
</g>
<!-- tcplot&#45;&gt;termin&#45;csharp -->
<g id="edge1" class="edge">
<title>tcplot&#45;&gt;termin&#45;csharp</title>
<path fill="none" stroke="#666666" stroke-width="1.1" d="M960.64,-95.28C1062.43,-100.87 1437.73,-133.67 1662,-318.17 1720.51,-366.31 1752.23,-454.17 1764.88,-497.15"/>
<polygon fill="#666666" stroke="#666666" stroke-width="1.1" points="1762.53,-497.84 1766.82,-503.9 1767.24,-496.49 1762.53,-497.84"/>
</g>
<!-- termin&#45;gui&#45;&gt;termin&#45;csg -->
<g id="edge47" class="edge">
<title>termin&#45;gui&#45;&gt;termin&#45;csg</title>
<path fill="none" stroke="#666666" stroke-width="1.1" d="M690.44,-100.31C611.76,-80.15 417.54,-43.75 307,-139.17 234.45,-201.8 206.8,-516.37 200.18,-608.68"/>
<polygon fill="#666666" stroke="#666666" stroke-width="1.1" points="197.71,-608.77 199.67,-615.92 202.6,-609.11 197.71,-608.77"/>
</g>
<!-- termin&#45;gui&#45;&gt;tcplot -->
<g id="edge46" class="edge">
<title>termin&#45;gui&#45;&gt;tcplot</title>
<path fill="none" stroke="#666666" stroke-width="1.1" d="M761.86,-107.46C800.19,-104.48 861.32,-99.72 899.07,-96.78"/>
<polygon fill="#666666" stroke="#666666" stroke-width="1.1" points="899.5,-99.2 906.29,-96.21 899.12,-94.32 899.5,-99.2"/>
</g>
<!-- termin&#45;nodegraph -->
<g id="node36" class="node">
<title>termin&#45;nodegraph</title>
<path fill="#f7f7f7" stroke="#444444" d="M978,-180.17C978,-180.17 889,-180.17 889,-180.17 883,-180.17 877,-174.17 877,-168.17 877,-168.17 877,-156.17 877,-156.17 877,-150.17 883,-144.17 889,-144.17 889,-144.17 978,-144.17 978,-144.17 984,-144.17 990,-150.17 990,-156.17 990,-156.17 990,-168.17 990,-168.17 990,-174.17 984,-180.17 978,-180.17"/>
<text text-anchor="middle" x="933.5" y="-159.37" font-family="DejaVu Sans" font-size="11.00">termin&#45;nodegraph</text>
</g>
<!-- termin&#45;gui&#45;&gt;termin&#45;nodegraph -->
<g id="edge49" class="edge">
<title>termin&#45;gui&#45;&gt;termin&#45;nodegraph</title>
<path fill="none" stroke="#666666" stroke-width="1.1" d="M761.86,-119C791.38,-126.47 834.44,-137.36 869.92,-146.34"/>
<polygon fill="#666666" stroke="#666666" stroke-width="1.1" points="869.52,-148.76 876.9,-148.11 870.72,-144.01 869.52,-148.76"/>
</g>
<!-- termin&#45;gui&#45;&gt;termin&#45;default&#45;assets -->
<g id="edge48" class="edge">
<title>termin&#45;gui&#45;&gt;termin&#45;default&#45;assets</title>
<path fill="none" stroke="#666666" stroke-width="1.1" d="M761.5,-93.37C782.77,-83.26 810.72,-70.4 836,-60.17 847.53,-55.51 859.98,-50.85 871.97,-46.55"/>
<polygon fill="#666666" stroke="#666666" stroke-width="1.1" points="872.81,-48.85 878.58,-44.2 871.16,-44.23 872.81,-48.85"/>
</g>
<!-- termin&#45;nodegraph&#45;&gt;termin&#45;app -->
<g id="edge58" class="edge">
<title>termin&#45;nodegraph&#45;&gt;termin&#45;app</title>
<path fill="none" stroke="#666666" stroke-width="1.1" d="M990.21,-176.21C1063.59,-197.44 1192.2,-244.5 1268,-329.17 1323.62,-391.3 1282.77,-438.62 1333,-505.17 1391.05,-582.09 1450.08,-556.16 1508,-633.17 1570.66,-716.5 1598.8,-841.18 1608.41,-894.05"/>
<polygon fill="#666666" stroke="#666666" stroke-width="1.1" points="1606.01,-894.55 1609.65,-901.02 1610.84,-893.7 1606.01,-894.55"/>
</g>
<!-- termin&#45;render&#45;passes&#45;&gt;termin&#45;app -->
<g id="edge63" class="edge">
<title>termin&#45;render&#45;passes&#45;&gt;termin&#45;app</title>
<path fill="none" stroke="#666666" stroke-width="1.1" d="M1482.52,-401.32C1492.14,-406.01 1501.12,-412.15 1508,-420.17 1570.7,-493.28 1602.32,-802.72 1610.39,-893.83"/>
<polygon fill="#666666" stroke="#666666" stroke-width="1.1" points="1607.96,-894.23 1611.01,-900.99 1612.84,-893.8 1607.96,-894.23"/>
</g>
<!-- termin&#45;render&#45;passes&#45;&gt;termin&#45;android -->
<g id="edge62" class="edge">
<title>termin&#45;render&#45;passes&#45;&gt;termin&#45;android</title>
<path fill="none" stroke="#666666" stroke-width="1.1" d="M1482.7,-397.54C1507.19,-401.81 1534.73,-406.61 1558.13,-410.69"/>
<polygon fill="#666666" stroke="#666666" stroke-width="1.1" points="1557.93,-413.15 1565.25,-411.94 1558.77,-408.32 1557.93,-413.15"/>
</g>
<!-- termin&#45;render&#45;passes&#45;&gt;termin&#45;openxr -->
<g id="edge64" class="edge">
<title>termin&#45;render&#45;passes&#45;&gt;termin&#45;openxr</title>
<path fill="none" stroke="#666666" stroke-width="1.1" d="M1482.7,-374.81C1507.8,-370.43 1536.1,-365.49 1559.87,-361.35"/>
<polygon fill="#666666" stroke="#666666" stroke-width="1.1" points="1560.29,-363.77 1566.76,-360.15 1559.45,-358.94 1560.29,-363.77"/>
</g>
</g>
</svg>
