<?xml version="1.0" encoding="UTF-8" standalone="no"?>
<!DOCTYPE svg PUBLIC "-//W3C//DTD SVG 1.1//EN"
 "http://www.w3.org/Graphics/SVG/1.1/DTD/svg11.dtd">
<!-- Generated by graphviz version 2.43.0 (0)
 -->
<!-- Title: termin_dependencies Pages: 1 -->
<svg width="1605pt" height="862pt"
 viewBox="0.00 0.00 1604.80 862.31" xmlns="http://www.w3.org/2000/svg" xmlns:xlink="http://www.w3.org/1999/xlink">
<g id="graph0" class="graph" transform="scale(1 1) rotate(0) translate(14.4 847.91)">
<title>termin_dependencies</title>
<polygon fill="white" stroke="transparent" points="-14.4,14.4 -14.4,-847.91 1590.4,-847.91 1590.4,14.4 -14.4,14.4"/>
<g id="clust1" class="cluster">
<title>cluster_foundation</title>
<path fill="white" stroke="#d9d9d9" d="M20,-352.51C20,-352.51 765,-352.51 765,-352.51 771,-352.51 777,-358.51 777,-364.51 777,-364.51 777,-619.51 777,-619.51 777,-625.51 771,-631.51 765,-631.51 765,-631.51 20,-631.51 20,-631.51 14,-631.51 8,-625.51 8,-619.51 8,-619.51 8,-364.51 8,-364.51 8,-358.51 14,-352.51 20,-352.51"/>
<text text-anchor="middle" x="392.5" y="-616.31" font-family="Times,serif" font-size="14.00">Foundation</text>
</g>
<g id="clust2" class="cluster">
<title>cluster_render</title>
<path fill="white" stroke="#d9d9d9" d="M332,-639.51C332,-639.51 1000.5,-639.51 1000.5,-639.51 1006.5,-639.51 1012.5,-645.51 1012.5,-651.51 1012.5,-651.51 1012.5,-702.51 1012.5,-702.51 1012.5,-708.51 1006.5,-714.51 1000.5,-714.51 1000.5,-714.51 332,-714.51 332,-714.51 326,-714.51 320,-708.51 320,-702.51 320,-702.51 320,-651.51 320,-651.51 320,-645.51 326,-639.51 332,-639.51"/>
<text text-anchor="middle" x="666.25" y="-699.31" font-family="Times,serif" font-size="14.00">Render Stack</text>
</g>
<g id="clust3" class="cluster">
<title>cluster_components</title>
<path fill="white" stroke="#d9d9d9" d="M838,-103.51C838,-103.51 1254,-103.51 1254,-103.51 1260,-103.51 1266,-109.51 1266,-115.51 1266,-115.51 1266,-370.51 1266,-370.51 1266,-376.51 1260,-382.51 1254,-382.51 1254,-382.51 838,-382.51 838,-382.51 832,-382.51 826,-376.51 826,-370.51 826,-370.51 826,-115.51 826,-115.51 826,-109.51 832,-103.51 838,-103.51"/>
<text text-anchor="middle" x="1046" y="-367.31" font-family="Times,serif" font-size="14.00">Other Components</text>
</g>
<g id="clust4" class="cluster">
<title>cluster_runtime</title>
<path fill="white" stroke="#d9d9d9" d="M1126.5,-543.51C1126.5,-543.51 1209.5,-543.51 1209.5,-543.51 1215.5,-543.51 1221.5,-549.51 1221.5,-555.51 1221.5,-555.51 1221.5,-606.51 1221.5,-606.51 1221.5,-612.51 1215.5,-618.51 1209.5,-618.51 1209.5,-618.51 1126.5,-618.51 1126.5,-618.51 1120.5,-618.51 1114.5,-612.51 1114.5,-606.51 1114.5,-606.51 1114.5,-555.51 1114.5,-555.51 1114.5,-549.51 1120.5,-543.51 1126.5,-543.51"/>
<text text-anchor="middle" x="1168" y="-603.31" font-family="Times,serif" font-size="14.00">Runtime</text>
</g>
<g id="clust5" class="cluster">
<title>cluster_ui</title>
<path fill="white" stroke="#d9d9d9" d="M892,-750.51C892,-750.51 1220.5,-750.51 1220.5,-750.51 1226.5,-750.51 1232.5,-756.51 1232.5,-762.51 1232.5,-762.51 1232.5,-813.51 1232.5,-813.51 1232.5,-819.51 1226.5,-825.51 1220.5,-825.51 1220.5,-825.51 892,-825.51 892,-825.51 886,-825.51 880,-819.51 880,-813.51 880,-813.51 880,-762.51 880,-762.51 880,-756.51 886,-750.51 892,-750.51"/>
<text text-anchor="middle" x="1056.25" y="-810.31" font-family="Times,serif" font-size="14.00">UI</text>
</g>
<g id="clust6" class="cluster">
<title>cluster_application</title>
<path fill="white" stroke="#d9d9d9" d="M1327,-307.51C1327,-307.51 1416,-307.51 1416,-307.51 1422,-307.51 1428,-313.51 1428,-319.51 1428,-319.51 1428,-438.51 1428,-438.51 1428,-444.51 1422,-450.51 1416,-450.51 1416,-450.51 1327,-450.51 1327,-450.51 1321,-450.51 1315,-444.51 1315,-438.51 1315,-438.51 1315,-319.51 1315,-319.51 1315,-313.51 1321,-307.51 1327,-307.51"/>
<text text-anchor="middle" x="1371.5" y="-435.31" font-family="Times,serif" font-size="14.00">Application</text>
</g>
<!-- termin&#45;base -->
<g id="node1" class="node">
<title>termin&#45;base</title>
<path fill="#f7f7f7" stroke="#444444" d="M85,-498.51C85,-498.51 28,-498.51 28,-498.51 22,-498.51 16,-492.51 16,-486.51 16,-486.51 16,-474.51 16,-474.51 16,-468.51 22,-462.51 28,-462.51 28,-462.51 85,-462.51 85,-462.51 91,-462.51 97,-468.51 97,-474.51 97,-474.51 97,-486.51 97,-486.51 97,-492.51 91,-498.51 85,-498.51"/>
<text text-anchor="middle" x="56.5" y="-477.71" font-family="DejaVu Sans" font-size="11.00">termin&#45;base</text>
</g>
<!-- termin&#45;mesh -->
<g id="node2" class="node">
<title>termin&#45;mesh</title>
<path fill="#f7f7f7" stroke="#444444" d="M242.5,-464.51C242.5,-464.51 182.5,-464.51 182.5,-464.51 176.5,-464.51 170.5,-458.51 170.5,-452.51 170.5,-452.51 170.5,-440.51 170.5,-440.51 170.5,-434.51 176.5,-428.51 182.5,-428.51 182.5,-428.51 242.5,-428.51 242.5,-428.51 248.5,-428.51 254.5,-434.51 254.5,-440.51 254.5,-440.51 254.5,-452.51 254.5,-452.51 254.5,-458.51 248.5,-464.51 242.5,-464.51"/>
<text text-anchor="middle" x="212.5" y="-443.71" font-family="DejaVu Sans" font-size="11.00">termin&#45;mesh</text>
</g>
<!-- termin&#45;base&#45;&gt;termin&#45;mesh -->
<g id="edge1" class="edge">
<title>termin&#45;base&#45;&gt;termin&#45;mesh</title>
<path fill="none" stroke="#666666" stroke-width="1.1" d="M97.16,-471.76C117.34,-467.3 142.03,-461.85 163.29,-457.15"/>
<polygon fill="#666666" stroke="#666666" stroke-width="1.1" points="164.06,-459.5 170.36,-455.59 163,-454.71 164.06,-459.5"/>
</g>
<!-- termin&#45;inspect -->
<g id="node3" class="node">
<title>termin&#45;inspect</title>
<path fill="#f7f7f7" stroke="#444444" d="M247.5,-532.51C247.5,-532.51 177.5,-532.51 177.5,-532.51 171.5,-532.51 165.5,-526.51 165.5,-520.51 165.5,-520.51 165.5,-508.51 165.5,-508.51 165.5,-502.51 171.5,-496.51 177.5,-496.51 177.5,-496.51 247.5,-496.51 247.5,-496.51 253.5,-496.51 259.5,-502.51 259.5,-508.51 259.5,-508.51 259.5,-520.51 259.5,-520.51 259.5,-526.51 253.5,-532.51 247.5,-532.51"/>
<text text-anchor="middle" x="212.5" y="-511.71" font-family="DejaVu Sans" font-size="11.00">termin&#45;inspect</text>
</g>
<!-- termin&#45;base&#45;&gt;termin&#45;inspect -->
<g id="edge2" class="edge">
<title>termin&#45;base&#45;&gt;termin&#45;inspect</title>
<path fill="none" stroke="#666666" stroke-width="1.1" d="M97.16,-489.27C115.81,-493.39 138.33,-498.36 158.42,-502.79"/>
<polygon fill="#666666" stroke="#666666" stroke-width="1.1" points="158.06,-505.22 165.42,-504.34 159.11,-500.44 158.06,-505.22"/>
</g>
<!-- termin&#45;modules -->
<g id="node6" class="node">
<title>termin&#45;modules</title>
<path fill="#f7f7f7" stroke="#444444" d="M251,-396.51C251,-396.51 174,-396.51 174,-396.51 168,-396.51 162,-390.51 162,-384.51 162,-384.51 162,-372.51 162,-372.51 162,-366.51 168,-360.51 174,-360.51 174,-360.51 251,-360.51 251,-360.51 257,-360.51 263,-366.51 263,-372.51 263,-372.51 263,-384.51 263,-384.51 263,-390.51 257,-396.51 251,-396.51"/>
<text text-anchor="middle" x="212.5" y="-375.71" font-family="DejaVu Sans" font-size="11.00">termin&#45;modules</text>
</g>
<!-- termin&#45;base&#45;&gt;termin&#45;modules -->
<g id="edge3" class="edge">
<title>termin&#45;base&#45;&gt;termin&#45;modules</title>
<path fill="none" stroke="#666666" stroke-width="1.1" d="M84.68,-462.51C110.69,-445.28 149.99,-419.25 177.94,-400.74"/>
<polygon fill="#666666" stroke="#666666" stroke-width="1.1" points="179.59,-402.58 184.08,-396.68 176.89,-398.5 179.59,-402.58"/>
</g>
<!-- termin&#45;physics -->
<g id="node8" class="node">
<title>termin&#45;physics</title>
<path fill="#f7f7f7" stroke="#444444" d="M750.5,-549.51C750.5,-549.51 678.5,-549.51 678.5,-549.51 672.5,-549.51 666.5,-543.51 666.5,-537.51 666.5,-537.51 666.5,-525.51 666.5,-525.51 666.5,-519.51 672.5,-513.51 678.5,-513.51 678.5,-513.51 750.5,-513.51 750.5,-513.51 756.5,-513.51 762.5,-519.51 762.5,-525.51 762.5,-525.51 762.5,-537.51 762.5,-537.51 762.5,-543.51 756.5,-549.51 750.5,-549.51"/>
<text text-anchor="middle" x="714.5" y="-528.71" font-family="DejaVu Sans" font-size="11.00">termin&#45;physics</text>
</g>
<!-- termin&#45;base&#45;&gt;termin&#45;physics -->
<g id="edge4" class="edge">
<title>termin&#45;base&#45;&gt;termin&#45;physics</title>
<path fill="none" stroke="#666666" stroke-width="1.1" d="M77.68,-498.82C97.5,-515.46 129.42,-538.85 162,-548.51 208.7,-562.37 529.36,-543.47 659.14,-535.12"/>
<polygon fill="#666666" stroke="#666666" stroke-width="1.1" points="659.47,-537.56 666.3,-534.66 659.15,-532.67 659.47,-537.56"/>
</g>
<!-- termin&#45;graphics -->
<g id="node11" class="node">
<title>termin&#45;graphics</title>
<path fill="#f7f7f7" stroke="#444444" d="M417,-683.51C417,-683.51 340,-683.51 340,-683.51 334,-683.51 328,-677.51 328,-671.51 328,-671.51 328,-659.51 328,-659.51 328,-653.51 334,-647.51 340,-647.51 340,-647.51 417,-647.51 417,-647.51 423,-647.51 429,-653.51 429,-659.51 429,-659.51 429,-671.51 429,-671.51 429,-677.51 423,-683.51 417,-683.51"/>
<text text-anchor="middle" x="378.5" y="-662.71" font-family="DejaVu Sans" font-size="11.00">termin&#45;graphics</text>
</g>
<!-- termin&#45;mesh&#45;&gt;termin&#45;graphics -->
<g id="edge5" class="edge">
<title>termin&#45;mesh&#45;&gt;termin&#45;graphics</title>
<path fill="none" stroke="#666666" stroke-width="1.1" d="M246.1,-464.55C252.33,-469.13 258.35,-474.48 263,-480.51 308.82,-539.97 269.09,-584.34 320,-639.51 321.09,-640.69 322.24,-641.82 323.44,-642.9"/>
<polygon fill="#666666" stroke="#666666" stroke-width="1.1" points="322.01,-644.89 329.02,-647.33 325.06,-641.06 322.01,-644.89"/>
</g>
<!-- termin&#45;components&#45;collision -->
<g id="node15" class="node">
<title>termin&#45;components&#45;collision</title>
<path fill="#f7f7f7" stroke="#444444" d="M996.5,-351.51C996.5,-351.51 850.5,-351.51 850.5,-351.51 844.5,-351.51 838.5,-345.51 838.5,-339.51 838.5,-339.51 838.5,-327.51 838.5,-327.51 838.5,-321.51 844.5,-315.51 850.5,-315.51 850.5,-315.51 996.5,-315.51 996.5,-315.51 1002.5,-315.51 1008.5,-321.51 1008.5,-327.51 1008.5,-327.51 1008.5,-339.51 1008.5,-339.51 1008.5,-345.51 1002.5,-351.51 996.5,-351.51"/>
<text text-anchor="middle" x="923.5" y="-330.71" font-family="DejaVu Sans" font-size="11.00">termin&#45;components&#45;collision</text>
</g>
<!-- termin&#45;mesh&#45;&gt;termin&#45;components&#45;collision -->
<g id="edge6" class="edge">
<title>termin&#45;mesh&#45;&gt;termin&#45;components&#45;collision</title>
<path fill="none" stroke="#666666" stroke-width="1.1" d="M242.77,-428.35C249.68,-423.54 256.83,-418.12 263,-412.51 292.19,-385.99 284.42,-361.51 320,-344.51 489.14,-263.7 716.67,-290.62 837.99,-314.06"/>
<polygon fill="#666666" stroke="#666666" stroke-width="1.1" points="837.78,-316.51 845.12,-315.45 838.72,-311.7 837.78,-316.51"/>
</g>
<!-- termin&#45;components&#45;mesh -->
<g id="node19" class="node">
<title>termin&#45;components&#45;mesh</title>
<path fill="#f7f7f7" stroke="#444444" d="M989.5,-147.51C989.5,-147.51 857.5,-147.51 857.5,-147.51 851.5,-147.51 845.5,-141.51 845.5,-135.51 845.5,-135.51 845.5,-123.51 845.5,-123.51 845.5,-117.51 851.5,-111.51 857.5,-111.51 857.5,-111.51 989.5,-111.51 989.5,-111.51 995.5,-111.51 1001.5,-117.51 1001.5,-123.51 1001.5,-123.51 1001.5,-135.51 1001.5,-135.51 1001.5,-141.51 995.5,-147.51 989.5,-147.51"/>
<text text-anchor="middle" x="923.5" y="-126.71" font-family="DejaVu Sans" font-size="11.00">termin&#45;components&#45;mesh</text>
</g>
<!-- termin&#45;mesh&#45;&gt;termin&#45;components&#45;mesh -->
<g id="edge7" class="edge">
<title>termin&#45;mesh&#45;&gt;termin&#45;components&#45;mesh</title>
<path fill="none" stroke="#666666" stroke-width="1.1" d="M245.01,-428.37C251.46,-423.74 257.84,-418.39 263,-412.51 299.82,-370.52 276.86,-335.99 320,-300.51 472.58,-175.02 712.07,-141.52 838.24,-132.65"/>
<polygon fill="#666666" stroke="#666666" stroke-width="1.1" points="838.46,-135.09 845.28,-132.17 838.13,-130.2 838.46,-135.09"/>
</g>
<!-- termin&#45;scene -->
<g id="node4" class="node">
<title>termin&#45;scene</title>
<path fill="#f7f7f7" stroke="#444444" d="M410,-396.51C410,-396.51 347,-396.51 347,-396.51 341,-396.51 335,-390.51 335,-384.51 335,-384.51 335,-372.51 335,-372.51 335,-366.51 341,-360.51 347,-360.51 347,-360.51 410,-360.51 410,-360.51 416,-360.51 422,-366.51 422,-372.51 422,-372.51 422,-384.51 422,-384.51 422,-390.51 416,-396.51 410,-396.51"/>
<text text-anchor="middle" x="378.5" y="-375.71" font-family="DejaVu Sans" font-size="11.00">termin&#45;scene</text>
</g>
<!-- termin&#45;inspect&#45;&gt;termin&#45;scene -->
<g id="edge8" class="edge">
<title>termin&#45;inspect&#45;&gt;termin&#45;scene</title>
<path fill="none" stroke="#666666" stroke-width="1.1" d="M242,-496.43C249.08,-491.54 256.5,-486.06 263,-480.51 290.98,-456.64 292.37,-444.79 320,-420.51 327.77,-413.68 336.61,-406.83 344.98,-400.7"/>
<polygon fill="#666666" stroke="#666666" stroke-width="1.1" points="346.44,-402.66 350.68,-396.58 343.57,-398.69 346.44,-402.66"/>
</g>
<!-- termin&#45;animation -->
<g id="node10" class="node">
<title>termin&#45;animation</title>
<path fill="#f7f7f7" stroke="#444444" d="M757,-481.51C757,-481.51 672,-481.51 672,-481.51 666,-481.51 660,-475.51 660,-469.51 660,-469.51 660,-457.51 660,-457.51 660,-451.51 666,-445.51 672,-445.51 672,-445.51 757,-445.51 757,-445.51 763,-445.51 769,-451.51 769,-457.51 769,-457.51 769,-469.51 769,-469.51 769,-475.51 763,-481.51 757,-481.51"/>
<text text-anchor="middle" x="714.5" y="-460.71" font-family="DejaVu Sans" font-size="11.00">termin&#45;animation</text>
</g>
<!-- termin&#45;inspect&#45;&gt;termin&#45;animation -->
<g id="edge19" class="edge">
<title>termin&#45;inspect&#45;&gt;termin&#45;animation</title>
<path fill="none" stroke="#666666" stroke-width="1.1" d="M259.53,-499.77C314.6,-482.98 409.91,-456.56 494,-446.51 538.57,-441.19 550.22,-443.32 595,-446.51 613.85,-447.86 634.26,-450.39 652.74,-453.1"/>
<polygon fill="#666666" stroke="#666666" stroke-width="1.1" points="652.71,-455.57 659.99,-454.19 653.43,-450.73 652.71,-455.57"/>
</g>
<!-- termin&#45;input -->
<g id="node5" class="node">
<title>termin&#45;input</title>
<path fill="#f7f7f7" stroke="#444444" d="M573.5,-600.51C573.5,-600.51 515.5,-600.51 515.5,-600.51 509.5,-600.51 503.5,-594.51 503.5,-588.51 503.5,-588.51 503.5,-576.51 503.5,-576.51 503.5,-570.51 509.5,-564.51 515.5,-564.51 515.5,-564.51 573.5,-564.51 573.5,-564.51 579.5,-564.51 585.5,-570.51 585.5,-576.51 585.5,-576.51 585.5,-588.51 585.5,-588.51 585.5,-594.51 579.5,-600.51 573.5,-600.51"/>
<text text-anchor="middle" x="544.5" y="-579.71" font-family="DejaVu Sans" font-size="11.00">termin&#45;input</text>
</g>
<!-- termin&#45;scene&#45;&gt;termin&#45;input -->
<g id="edge9" class="edge">
<title>termin&#45;scene&#45;&gt;termin&#45;input</title>
<path fill="none" stroke="#666666" stroke-width="1.1" d="M394.05,-396.62C423.78,-433.59 491.44,-517.75 524.54,-558.93"/>
<polygon fill="#666666" stroke="#666666" stroke-width="1.1" points="522.68,-560.53 528.98,-564.45 526.5,-557.46 522.68,-560.53"/>
</g>
<!-- termin&#45;collision -->
<g id="node7" class="node">
<title>termin&#45;collision</title>
<path fill="#f7f7f7" stroke="#444444" d="M582,-498.51C582,-498.51 507,-498.51 507,-498.51 501,-498.51 495,-492.51 495,-486.51 495,-486.51 495,-474.51 495,-474.51 495,-468.51 501,-462.51 507,-462.51 507,-462.51 582,-462.51 582,-462.51 588,-462.51 594,-468.51 594,-474.51 594,-474.51 594,-486.51 594,-486.51 594,-492.51 588,-498.51 582,-498.51"/>
<text text-anchor="middle" x="544.5" y="-477.71" font-family="DejaVu Sans" font-size="11.00">termin&#45;collision</text>
</g>
<!-- termin&#45;scene&#45;&gt;termin&#45;collision -->
<g id="edge10" class="edge">
<title>termin&#45;scene&#45;&gt;termin&#45;collision</title>
<path fill="none" stroke="#666666" stroke-width="1.1" d="M408.44,-396.51C436.26,-413.81 478.35,-439.99 508.13,-458.52"/>
<polygon fill="#666666" stroke="#666666" stroke-width="1.1" points="507.06,-460.73 514.3,-462.35 509.65,-456.57 507.06,-460.73"/>
</g>
<!-- termin&#45;skeleton -->
<g id="node9" class="node">
<title>termin&#45;skeleton</title>
<path fill="#f7f7f7" stroke="#444444" d="M583,-396.51C583,-396.51 506,-396.51 506,-396.51 500,-396.51 494,-390.51 494,-384.51 494,-384.51 494,-372.51 494,-372.51 494,-366.51 500,-360.51 506,-360.51 506,-360.51 583,-360.51 583,-360.51 589,-360.51 595,-366.51 595,-372.51 595,-372.51 595,-384.51 595,-384.51 595,-390.51 589,-396.51 583,-396.51"/>
<text text-anchor="middle" x="544.5" y="-375.71" font-family="DejaVu Sans" font-size="11.00">termin&#45;skeleton</text>
</g>
<!-- termin&#45;scene&#45;&gt;termin&#45;skeleton -->
<g id="edge18" class="edge">
<title>termin&#45;scene&#45;&gt;termin&#45;skeleton</title>
<path fill="none" stroke="#666666" stroke-width="1.1" d="M422.16,-378.51C441.86,-378.51 465.52,-378.51 486.7,-378.51"/>
<polygon fill="#666666" stroke="#666666" stroke-width="1.1" points="486.78,-380.96 493.78,-378.51 486.78,-376.06 486.78,-380.96"/>
</g>
<!-- termin&#45;render -->
<g id="node12" class="node">
<title>termin&#45;render</title>
<path fill="#f7f7f7" stroke="#444444" d="M577.5,-683.51C577.5,-683.51 511.5,-683.51 511.5,-683.51 505.5,-683.51 499.5,-677.51 499.5,-671.51 499.5,-671.51 499.5,-659.51 499.5,-659.51 499.5,-653.51 505.5,-647.51 511.5,-647.51 511.5,-647.51 577.5,-647.51 577.5,-647.51 583.5,-647.51 589.5,-653.51 589.5,-659.51 589.5,-659.51 589.5,-671.51 589.5,-671.51 589.5,-677.51 583.5,-683.51 577.5,-683.51"/>
<text text-anchor="middle" x="544.5" y="-662.71" font-family="DejaVu Sans" font-size="11.00">termin&#45;render</text>
</g>
<!-- termin&#45;scene&#45;&gt;termin&#45;render -->
<g id="edge11" class="edge">
<title>termin&#45;scene&#45;&gt;termin&#45;render</title>
<path fill="none" stroke="#666666" stroke-width="1.1" d="M383.09,-396.63C393.02,-442.58 424.84,-565.31 494,-639.51 495.08,-640.67 496.21,-641.78 497.4,-642.85"/>
<polygon fill="#666666" stroke="#666666" stroke-width="1.1" points="495.92,-644.8 502.9,-647.28 498.99,-640.98 495.92,-644.8"/>
</g>
<!-- termin&#45;scene&#45;&gt;termin&#45;components&#45;mesh -->
<g id="edge12" class="edge">
<title>termin&#45;scene&#45;&gt;termin&#45;components&#45;mesh</title>
<path fill="none" stroke="#666666" stroke-width="1.1" d="M402.19,-360.36C424.61,-343 460.34,-316.81 494,-298.51 616.44,-231.94 770.77,-177.68 856.81,-149.83"/>
<polygon fill="#666666" stroke="#666666" stroke-width="1.1" points="857.74,-152.1 863.65,-147.62 856.24,-147.44 857.74,-152.1"/>
</g>
<!-- termin&#45;components&#45;kinematic -->
<g id="node20" class="node">
<title>termin&#45;components&#45;kinematic</title>
<path fill="#f7f7f7" stroke="#444444" d="M1001,-215.51C1001,-215.51 846,-215.51 846,-215.51 840,-215.51 834,-209.51 834,-203.51 834,-203.51 834,-191.51 834,-191.51 834,-185.51 840,-179.51 846,-179.51 846,-179.51 1001,-179.51 1001,-179.51 1007,-179.51 1013,-185.51 1013,-191.51 1013,-191.51 1013,-203.51 1013,-203.51 1013,-209.51 1007,-215.51 1001,-215.51"/>
<text text-anchor="middle" x="923.5" y="-194.71" font-family="DejaVu Sans" font-size="11.00">termin&#45;components&#45;kinematic</text>
</g>
<!-- termin&#45;scene&#45;&gt;termin&#45;components&#45;kinematic -->
<g id="edge13" class="edge">
<title>termin&#45;scene&#45;&gt;termin&#45;components&#45;kinematic</title>
<path fill="none" stroke="#666666" stroke-width="1.1" d="M422.11,-364.31C517.86,-332.39 750.34,-254.9 861.43,-217.87"/>
<polygon fill="#666666" stroke="#666666" stroke-width="1.1" points="862.38,-220.13 868.25,-215.6 860.83,-215.49 862.38,-220.13"/>
</g>
<!-- termin&#45;display -->
<g id="node13" class="node">
<title>termin&#45;display</title>
<path fill="#f7f7f7" stroke="#444444" d="M749,-683.51C749,-683.51 680,-683.51 680,-683.51 674,-683.51 668,-677.51 668,-671.51 668,-671.51 668,-659.51 668,-659.51 668,-653.51 674,-647.51 680,-647.51 680,-647.51 749,-647.51 749,-647.51 755,-647.51 761,-653.51 761,-659.51 761,-659.51 761,-671.51 761,-671.51 761,-677.51 755,-683.51 749,-683.51"/>
<text text-anchor="middle" x="714.5" y="-662.71" font-family="DejaVu Sans" font-size="11.00">termin&#45;display</text>
</g>
<!-- termin&#45;input&#45;&gt;termin&#45;display -->
<g id="edge14" class="edge">
<title>termin&#45;input&#45;&gt;termin&#45;display</title>
<path fill="none" stroke="#666666" stroke-width="1.1" d="M581.55,-600.57C604.08,-611.82 633.7,-626.57 660,-639.51 663.16,-641.07 666.43,-642.67 669.72,-644.28"/>
<polygon fill="#666666" stroke="#666666" stroke-width="1.1" points="668.7,-646.5 676.06,-647.37 670.85,-642.1 668.7,-646.5"/>
</g>
<!-- termin -->
<g id="node24" class="node">
<title>termin</title>
<path fill="#f7f7f7" stroke="#444444" d="M1386.5,-351.51C1386.5,-351.51 1356.5,-351.51 1356.5,-351.51 1350.5,-351.51 1344.5,-345.51 1344.5,-339.51 1344.5,-339.51 1344.5,-327.51 1344.5,-327.51 1344.5,-321.51 1350.5,-315.51 1356.5,-315.51 1356.5,-315.51 1386.5,-315.51 1386.5,-315.51 1392.5,-315.51 1398.5,-321.51 1398.5,-327.51 1398.5,-327.51 1398.5,-339.51 1398.5,-339.51 1398.5,-345.51 1392.5,-351.51 1386.5,-351.51"/>
<text text-anchor="middle" x="1371.5" y="-330.71" font-family="DejaVu Sans" font-size="11.00">termin</text>
</g>
<!-- termin&#45;modules&#45;&gt;termin -->
<g id="edge38" class="edge">
<title>termin&#45;modules&#45;&gt;termin</title>
<path fill="none" stroke="#666666" stroke-width="1.1" d="M219.18,-360.28C243.96,-284.77 350.11,-0.51 543.5,-0.51 543.5,-0.51 543.5,-0.51 924.5,-0.51 1082.04,-0.51 1146.96,7.68 1266,-95.51 1332.17,-152.87 1358.06,-260.01 1366.73,-308.51"/>
<polygon fill="#666666" stroke="#666666" stroke-width="1.1" points="1364.33,-309.02 1367.93,-315.51 1369.16,-308.19 1364.33,-309.02"/>
</g>
<!-- termin&#45;collision&#45;&gt;termin&#45;physics -->
<g id="edge17" class="edge">
<title>termin&#45;collision&#45;&gt;termin&#45;physics</title>
<path fill="none" stroke="#666666" stroke-width="1.1" d="M594.09,-495.26C614.64,-501.5 638.65,-508.79 659.73,-515.19"/>
<polygon fill="#666666" stroke="#666666" stroke-width="1.1" points="659.05,-517.54 666.46,-517.23 660.48,-512.86 659.05,-517.54"/>
</g>
<!-- termin&#45;collision&#45;&gt;termin&#45;components&#45;collision -->
<g id="edge16" class="edge">
<title>termin&#45;collision&#45;&gt;termin&#45;components&#45;collision</title>
<path fill="none" stroke="#666666" stroke-width="1.1" d="M584.17,-462.5C606.23,-452.42 634.49,-439.85 660,-429.51 729.01,-401.56 809.6,-372.63 863.09,-353.93"/>
<polygon fill="#666666" stroke="#666666" stroke-width="1.1" points="864,-356.21 869.8,-351.59 862.39,-351.58 864,-356.21"/>
</g>
<!-- termin&#45;engine -->
<g id="node21" class="node">
<title>termin&#45;engine</title>
<path fill="#f7f7f7" stroke="#444444" d="M1201.5,-587.51C1201.5,-587.51 1134.5,-587.51 1134.5,-587.51 1128.5,-587.51 1122.5,-581.51 1122.5,-575.51 1122.5,-575.51 1122.5,-563.51 1122.5,-563.51 1122.5,-557.51 1128.5,-551.51 1134.5,-551.51 1134.5,-551.51 1201.5,-551.51 1201.5,-551.51 1207.5,-551.51 1213.5,-557.51 1213.5,-563.51 1213.5,-563.51 1213.5,-575.51 1213.5,-575.51 1213.5,-581.51 1207.5,-587.51 1201.5,-587.51"/>
<text text-anchor="middle" x="1168" y="-566.71" font-family="DejaVu Sans" font-size="11.00">termin&#45;engine</text>
</g>
<!-- termin&#45;collision&#45;&gt;termin&#45;engine -->
<g id="edge15" class="edge">
<title>termin&#45;collision&#45;&gt;termin&#45;engine</title>
<path fill="none" stroke="#666666" stroke-width="1.1" d="M562.44,-498.69C583.14,-519.44 620.33,-552.22 660,-565.51 818.83,-618.72 1021.67,-595.03 1115.33,-579.37"/>
<polygon fill="#666666" stroke="#666666" stroke-width="1.1" points="1115.94,-581.75 1122.43,-578.17 1115.12,-576.92 1115.94,-581.75"/>
</g>
<!-- termin&#45;components&#45;physics -->
<g id="node18" class="node">
<title>termin&#45;components&#45;physics</title>
<path fill="#f7f7f7" stroke="#444444" d="M1239.5,-351.51C1239.5,-351.51 1096.5,-351.51 1096.5,-351.51 1090.5,-351.51 1084.5,-345.51 1084.5,-339.51 1084.5,-339.51 1084.5,-327.51 1084.5,-327.51 1084.5,-321.51 1090.5,-315.51 1096.5,-315.51 1096.5,-315.51 1239.5,-315.51 1239.5,-315.51 1245.5,-315.51 1251.5,-321.51 1251.5,-327.51 1251.5,-327.51 1251.5,-339.51 1251.5,-339.51 1251.5,-345.51 1245.5,-351.51 1239.5,-351.51"/>
<text text-anchor="middle" x="1168" y="-330.71" font-family="DejaVu Sans" font-size="11.00">termin&#45;components&#45;physics</text>
</g>
<!-- termin&#45;physics&#45;&gt;termin&#45;components&#45;physics -->
<g id="edge25" class="edge">
<title>termin&#45;physics&#45;&gt;termin&#45;components&#45;physics</title>
<path fill="none" stroke="#666666" stroke-width="1.1" d="M762.76,-517.83C822.41,-499.84 927.57,-465.77 1013,-425.51 1056.71,-404.91 1104.01,-375.49 1134.48,-355.5"/>
<polygon fill="#666666" stroke="#666666" stroke-width="1.1" points="1135.85,-357.54 1140.35,-351.64 1133.16,-353.44 1135.85,-357.54"/>
</g>
<!-- termin&#45;physics&#45;&gt;termin -->
<g id="edge37" class="edge">
<title>termin&#45;physics&#45;&gt;termin</title>
<path fill="none" stroke="#666666" stroke-width="1.1" d="M762.74,-527.24C821.94,-521.19 926.17,-508.27 1013,-485.51 1129.19,-455.06 1156.79,-440.5 1266,-390.51 1290.86,-379.13 1317.94,-364.29 1338.3,-352.6"/>
<polygon fill="#666666" stroke="#666666" stroke-width="1.1" points="1339.56,-354.71 1344.39,-349.08 1337.11,-350.46 1339.56,-354.71"/>
</g>
<!-- termin&#45;skeleton&#45;&gt;termin&#45;animation -->
<g id="edge20" class="edge">
<title>termin&#45;skeleton&#45;&gt;termin&#45;animation</title>
<path fill="none" stroke="#666666" stroke-width="1.1" d="M581.13,-396.54C607.52,-409.89 643.58,-428.14 671.4,-442.21"/>
<polygon fill="#666666" stroke="#666666" stroke-width="1.1" points="670.57,-444.54 677.92,-445.51 672.78,-440.17 670.57,-444.54"/>
</g>
<!-- termin&#45;components&#45;skeleton -->
<g id="node16" class="node">
<title>termin&#45;components&#45;skeleton</title>
<path fill="#f7f7f7" stroke="#444444" d="M997.5,-283.51C997.5,-283.51 849.5,-283.51 849.5,-283.51 843.5,-283.51 837.5,-277.51 837.5,-271.51 837.5,-271.51 837.5,-259.51 837.5,-259.51 837.5,-253.51 843.5,-247.51 849.5,-247.51 849.5,-247.51 997.5,-247.51 997.5,-247.51 1003.5,-247.51 1009.5,-253.51 1009.5,-259.51 1009.5,-259.51 1009.5,-271.51 1009.5,-271.51 1009.5,-277.51 1003.5,-283.51 997.5,-283.51"/>
<text text-anchor="middle" x="923.5" y="-262.71" font-family="DejaVu Sans" font-size="11.00">termin&#45;components&#45;skeleton</text>
</g>
<!-- termin&#45;skeleton&#45;&gt;termin&#45;components&#45;skeleton -->
<g id="edge28" class="edge">
<title>termin&#45;skeleton&#45;&gt;termin&#45;components&#45;skeleton</title>
<path fill="none" stroke="#666666" stroke-width="1.1" d="M595.17,-363.62C661.9,-343.62 780.71,-308.01 855.36,-285.64"/>
<polygon fill="#666666" stroke="#666666" stroke-width="1.1" points="856.44,-287.87 862.44,-283.51 855.03,-283.18 856.44,-287.87"/>
</g>
<!-- termin&#45;components&#45;animation -->
<g id="node17" class="node">
<title>termin&#45;components&#45;animation</title>
<path fill="#f7f7f7" stroke="#444444" d="M1246,-283.51C1246,-283.51 1090,-283.51 1090,-283.51 1084,-283.51 1078,-277.51 1078,-271.51 1078,-271.51 1078,-259.51 1078,-259.51 1078,-253.51 1084,-247.51 1090,-247.51 1090,-247.51 1246,-247.51 1246,-247.51 1252,-247.51 1258,-253.51 1258,-259.51 1258,-259.51 1258,-271.51 1258,-271.51 1258,-277.51 1252,-283.51 1246,-283.51"/>
<text text-anchor="middle" x="1168" y="-262.71" font-family="DejaVu Sans" font-size="11.00">termin&#45;components&#45;animation</text>
</g>
<!-- termin&#45;animation&#45;&gt;termin&#45;components&#45;animation -->
<g id="edge29" class="edge">
<title>termin&#45;animation&#45;&gt;termin&#45;components&#45;animation</title>
<path fill="none" stroke="#666666" stroke-width="1.1" d="M760.36,-445.5C780.32,-437.74 804.2,-428.79 826,-421.51 908.06,-394.12 939,-412.32 1013,-367.51 1048.76,-345.85 1043.18,-322.65 1078,-299.51 1085.47,-294.55 1093.76,-290.17 1102.19,-286.34"/>
<polygon fill="#666666" stroke="#666666" stroke-width="1.1" points="1103.22,-288.56 1108.66,-283.52 1101.26,-284.07 1103.22,-288.56"/>
</g>
<!-- termin&#45;graphics&#45;&gt;termin&#45;render -->
<g id="edge21" class="edge">
<title>termin&#45;graphics&#45;&gt;termin&#45;render</title>
<path fill="none" stroke="#666666" stroke-width="1.1" d="M429.15,-665.51C449.05,-665.51 471.98,-665.51 492.05,-665.51"/>
<polygon fill="#666666" stroke="#666666" stroke-width="1.1" points="492.31,-667.96 499.31,-665.51 492.31,-663.06 492.31,-667.96"/>
</g>
<!-- termin&#45;gui -->
<g id="node22" class="node">
<title>termin&#45;gui</title>
<path fill="#f7f7f7" stroke="#444444" d="M947,-794.51C947,-794.51 900,-794.51 900,-794.51 894,-794.51 888,-788.51 888,-782.51 888,-782.51 888,-770.51 888,-770.51 888,-764.51 894,-758.51 900,-758.51 900,-758.51 947,-758.51 947,-758.51 953,-758.51 959,-764.51 959,-770.51 959,-770.51 959,-782.51 959,-782.51 959,-788.51 953,-794.51 947,-794.51"/>
<text text-anchor="middle" x="923.5" y="-773.71" font-family="DejaVu Sans" font-size="11.00">termin&#45;gui</text>
</g>
<!-- termin&#45;graphics&#45;&gt;termin&#45;gui -->
<g id="edge22" class="edge">
<title>termin&#45;graphics&#45;&gt;termin&#45;gui</title>
<path fill="none" stroke="#666666" stroke-width="1.1" d="M429.06,-681.53C449.09,-687.67 472.51,-694.41 494,-699.51 634.34,-732.85 803.58,-759.27 880.63,-770.57"/>
<polygon fill="#666666" stroke="#666666" stroke-width="1.1" points="880.51,-773.02 887.8,-771.61 881.22,-768.18 880.51,-773.02"/>
</g>
<!-- termin&#45;render&#45;&gt;termin&#45;display -->
<g id="edge23" class="edge">
<title>termin&#45;render&#45;&gt;termin&#45;display</title>
<path fill="none" stroke="#666666" stroke-width="1.1" d="M589.64,-665.51C611.4,-665.51 637.79,-665.51 660.62,-665.51"/>
<polygon fill="#666666" stroke="#666666" stroke-width="1.1" points="660.9,-667.96 667.9,-665.51 660.9,-663.06 660.9,-667.96"/>
</g>
<!-- termin&#45;components&#45;render -->
<g id="node14" class="node">
<title>termin&#45;components&#45;render</title>
<path fill="#f7f7f7" stroke="#444444" d="M992.5,-683.51C992.5,-683.51 854.5,-683.51 854.5,-683.51 848.5,-683.51 842.5,-677.51 842.5,-671.51 842.5,-671.51 842.5,-659.51 842.5,-659.51 842.5,-653.51 848.5,-647.51 854.5,-647.51 854.5,-647.51 992.5,-647.51 992.5,-647.51 998.5,-647.51 1004.5,-653.51 1004.5,-659.51 1004.5,-659.51 1004.5,-671.51 1004.5,-671.51 1004.5,-677.51 998.5,-683.51 992.5,-683.51"/>
<text text-anchor="middle" x="923.5" y="-662.71" font-family="DejaVu Sans" font-size="11.00">termin&#45;components&#45;render</text>
</g>
<!-- termin&#45;display&#45;&gt;termin&#45;components&#45;render -->
<g id="edge24" class="edge">
<title>termin&#45;display&#45;&gt;termin&#45;components&#45;render</title>
<path fill="none" stroke="#666666" stroke-width="1.1" d="M761.18,-665.51C782.95,-665.51 809.74,-665.51 835.19,-665.51"/>
<polygon fill="#666666" stroke="#666666" stroke-width="1.1" points="835.32,-667.96 842.32,-665.51 835.32,-663.06 835.32,-667.96"/>
</g>
<!-- termin&#45;components&#45;render&#45;&gt;termin&#45;components&#45;physics -->
<g id="edge27" class="edge">
<title>termin&#45;components&#45;render&#45;&gt;termin&#45;components&#45;physics</title>
<path fill="none" stroke="#666666" stroke-width="1.1" d="M937.88,-647.19C978.96,-590.96 1103.21,-420.84 1149.43,-357.56"/>
<polygon fill="#666666" stroke="#666666" stroke-width="1.1" points="1151.51,-358.88 1153.66,-351.78 1147.55,-355.99 1151.51,-358.88"/>
</g>
<!-- termin&#45;components&#45;render&#45;&gt;termin&#45;engine -->
<g id="edge31" class="edge">
<title>termin&#45;components&#45;render&#45;&gt;termin&#45;engine</title>
<path fill="none" stroke="#666666" stroke-width="1.1" d="M970.11,-647.46C1011.53,-631.06 1072.54,-606.91 1115.65,-589.84"/>
<polygon fill="#666666" stroke="#666666" stroke-width="1.1" points="1116.8,-592.02 1122.41,-587.16 1115,-587.46 1116.8,-592.02"/>
</g>
<!-- termin&#45;components&#45;collision&#45;&gt;termin&#45;components&#45;physics -->
<g id="edge26" class="edge">
<title>termin&#45;components&#45;collision&#45;&gt;termin&#45;components&#45;physics</title>
<path fill="none" stroke="#666666" stroke-width="1.1" d="M1008.63,-333.51C1030.73,-333.51 1054.64,-333.51 1077.03,-333.51"/>
<polygon fill="#666666" stroke="#666666" stroke-width="1.1" points="1077.24,-335.96 1084.24,-333.51 1077.24,-331.06 1077.24,-335.96"/>
</g>
<!-- termin&#45;components&#45;collision&#45;&gt;termin -->
<g id="edge34" class="edge">
<title>termin&#45;components&#45;collision&#45;&gt;termin</title>
<path fill="none" stroke="#666666" stroke-width="1.1" d="M982.51,-315.47C993.07,-311.02 1003.68,-305.71 1013,-299.51 1047.8,-276.34 1039.56,-247.95 1078,-231.51 1154.83,-198.67 1188.61,-200 1266,-231.51 1304.48,-247.18 1336.51,-284.58 1354.59,-309.47"/>
<polygon fill="#666666" stroke="#666666" stroke-width="1.1" points="1352.61,-310.92 1358.66,-315.2 1356.6,-308.08 1352.61,-310.92"/>
</g>
<!-- termin&#45;components&#45;skeleton&#45;&gt;termin&#45;components&#45;animation -->
<g id="edge30" class="edge">
<title>termin&#45;components&#45;skeleton&#45;&gt;termin&#45;components&#45;animation</title>
<path fill="none" stroke="#666666" stroke-width="1.1" d="M1009.66,-265.51C1029.43,-265.51 1050.62,-265.51 1070.83,-265.51"/>
<polygon fill="#666666" stroke="#666666" stroke-width="1.1" points="1070.94,-267.96 1077.94,-265.51 1070.94,-263.06 1070.94,-267.96"/>
</g>
<!-- termin&#45;components&#45;skeleton&#45;&gt;termin -->
<g id="edge32" class="edge">
<title>termin&#45;components&#45;skeleton&#45;&gt;termin</title>
<path fill="none" stroke="#666666" stroke-width="1.1" d="M974.48,-247.34C987.15,-242.45 1000.67,-236.99 1013,-231.51 1042.61,-218.35 1046.49,-206.05 1078,-198.51 1159.26,-179.07 1190.98,-161.71 1266,-198.51 1312.7,-221.42 1344.49,-276.37 1359.86,-308.66"/>
<polygon fill="#666666" stroke="#666666" stroke-width="1.1" points="1357.72,-309.87 1362.89,-315.19 1362.16,-307.81 1357.72,-309.87"/>
</g>
<!-- termin&#45;components&#45;animation&#45;&gt;termin -->
<g id="edge33" class="edge">
<title>termin&#45;components&#45;animation&#45;&gt;termin</title>
<path fill="none" stroke="#666666" stroke-width="1.1" d="M1222.47,-283.56C1259.11,-295.92 1306.53,-311.92 1337.7,-322.44"/>
<polygon fill="#666666" stroke="#666666" stroke-width="1.1" points="1337.07,-324.82 1344.48,-324.73 1338.64,-320.17 1337.07,-324.82"/>
</g>
<!-- termin&#45;components&#45;physics&#45;&gt;termin -->
<g id="edge36" class="edge">
<title>termin&#45;components&#45;physics&#45;&gt;termin</title>
<path fill="none" stroke="#666666" stroke-width="1.1" d="M1251.54,-333.51C1281.55,-333.51 1313.79,-333.51 1337.13,-333.51"/>
<polygon fill="#666666" stroke="#666666" stroke-width="1.1" points="1337.38,-335.96 1344.38,-333.51 1337.38,-331.06 1337.38,-335.96"/>
</g>
<!-- termin&#45;components&#45;kinematic&#45;&gt;termin -->
<g id="edge35" class="edge">
<title>termin&#45;components&#45;kinematic&#45;&gt;termin</title>
<path fill="none" stroke="#666666" stroke-width="1.1" d="M967.31,-179.5C1035.26,-153.9 1169.95,-115.65 1266,-168.51 1320.53,-198.52 1350.59,-270.34 1363.23,-308.57"/>
<polygon fill="#666666" stroke="#666666" stroke-width="1.1" points="1360.92,-309.39 1365.39,-315.3 1365.59,-307.89 1360.92,-309.39"/>
</g>
<!-- termin&#45;engine&#45;&gt;termin -->
<g id="edge39" class="edge">
<title>termin&#45;engine&#45;&gt;termin</title>
<path fill="none" stroke="#666666" stroke-width="1.1" d="M1213.54,-559.14C1232.02,-552.79 1252.3,-542.83 1266,-527.51 1315.58,-472.08 1269.45,-426.3 1315,-367.51 1321.07,-359.68 1329.49,-353.23 1337.93,-348.13"/>
<polygon fill="#666666" stroke="#666666" stroke-width="1.1" points="1339.48,-350.07 1344.36,-344.49 1337.06,-345.8 1339.48,-350.07"/>
</g>
<!-- termin&#45;nodegraph -->
<g id="node23" class="node">
<title>termin&#45;nodegraph</title>
<path fill="#f7f7f7" stroke="#444444" d="M1212.5,-794.51C1212.5,-794.51 1123.5,-794.51 1123.5,-794.51 1117.5,-794.51 1111.5,-788.51 1111.5,-782.51 1111.5,-782.51 1111.5,-770.51 1111.5,-770.51 1111.5,-764.51 1117.5,-758.51 1123.5,-758.51 1123.5,-758.51 1212.5,-758.51 1212.5,-758.51 1218.5,-758.51 1224.5,-764.51 1224.5,-770.51 1224.5,-770.51 1224.5,-782.51 1224.5,-782.51 1224.5,-788.51 1218.5,-794.51 1212.5,-794.51"/>
<text text-anchor="middle" x="1168" y="-773.71" font-family="DejaVu Sans" font-size="11.00">termin&#45;nodegraph</text>
</g>
<!-- termin&#45;gui&#45;&gt;termin&#45;nodegraph -->
<g id="edge43" class="edge">
<title>termin&#45;gui&#45;&gt;termin&#45;nodegraph</title>
<path fill="none" stroke="#666666" stroke-width="1.1" d="M959.24,-776.51C996.91,-776.51 1057.82,-776.51 1103.97,-776.51"/>
<polygon fill="#666666" stroke="#666666" stroke-width="1.1" points="1104.24,-778.96 1111.24,-776.51 1104.24,-774.06 1104.24,-778.96"/>
</g>
<!-- termin&#45;gui&#45;&gt;termin -->
<g id="edge40" class="edge">
<title>termin&#45;gui&#45;&gt;termin</title>
<path fill="none" stroke="#666666" stroke-width="1.1" d="M957.36,-758.37C974.44,-748.47 995.36,-735.59 1013,-722.51 1044.1,-699.45 1043.55,-682.19 1078,-664.51 1154.17,-625.42 1206.37,-683.95 1266,-622.51 1346.37,-539.69 1249.31,-462.4 1315,-367.51 1320.8,-359.14 1329.39,-352.45 1338.09,-347.29"/>
<polygon fill="#666666" stroke="#666666" stroke-width="1.1" points="1339.47,-349.33 1344.41,-343.81 1337.1,-345.04 1339.47,-349.33"/>
</g>
<!-- diffusion&#45;editor -->
<g id="node25" class="node">
<title>diffusion&#45;editor</title>
<path fill="#f7f7f7" stroke="#444444" d="M1408,-419.51C1408,-419.51 1335,-419.51 1335,-419.51 1329,-419.51 1323,-413.51 1323,-407.51 1323,-407.51 1323,-395.51 1323,-395.51 1323,-389.51 1329,-383.51 1335,-383.51 1335,-383.51 1408,-383.51 1408,-383.51 1414,-383.51 1420,-389.51 1420,-395.51 1420,-395.51 1420,-407.51 1420,-407.51 1420,-413.51 1414,-419.51 1408,-419.51"/>
<text text-anchor="middle" x="1371.5" y="-398.71" font-family="DejaVu Sans" font-size="11.00">diffusion&#45;editor</text>
</g>
<!-- termin&#45;gui&#45;&gt;diffusion&#45;editor -->
<g id="edge44" class="edge">
<title>termin&#45;gui&#45;&gt;diffusion&#45;editor</title>
<path fill="none" stroke="#666666" stroke-width="1.1" d="M959.27,-769.49C1036.78,-753.22 1220.47,-711.1 1266,-668.51 1337.55,-601.58 1360.85,-479.75 1367.8,-426.99"/>
<polygon fill="#666666" stroke="#666666" stroke-width="1.1" points="1370.27,-426.97 1368.71,-419.72 1365.41,-426.36 1370.27,-426.97"/>
</g>
<!-- termin&#45;nodegraph&#45;&gt;termin -->
<g id="edge41" class="edge">
<title>termin&#45;nodegraph&#45;&gt;termin</title>
<path fill="none" stroke="#666666" stroke-width="1.1" d="M1191.5,-758.42C1214.21,-738.8 1248.37,-705.34 1266,-668.51 1324.54,-546.27 1239.45,-480.04 1315,-367.51 1320.68,-359.06 1329.23,-352.34 1337.94,-347.19"/>
<polygon fill="#666666" stroke="#666666" stroke-width="1.1" points="1339.32,-349.23 1344.27,-343.71 1336.96,-344.93 1339.32,-349.23"/>
</g>
<!-- termin&#45;csharp -->
<g id="node26" class="node">
<title>termin&#45;csharp</title>
<path fill="#f7f7f7" stroke="#444444" d="M1564,-351.51C1564,-351.51 1497,-351.51 1497,-351.51 1491,-351.51 1485,-345.51 1485,-339.51 1485,-339.51 1485,-327.51 1485,-327.51 1485,-321.51 1491,-315.51 1497,-315.51 1497,-315.51 1564,-315.51 1564,-315.51 1570,-315.51 1576,-321.51 1576,-327.51 1576,-327.51 1576,-339.51 1576,-339.51 1576,-345.51 1570,-351.51 1564,-351.51"/>
<text text-anchor="middle" x="1530.5" y="-330.71" font-family="DejaVu Sans" font-size="11.00">termin&#45;csharp</text>
</g>
<!-- termin&#45;&gt;termin&#45;csharp -->
<g id="edge42" class="edge">
<title>termin&#45;&gt;termin&#45;csharp</title>
<path fill="none" stroke="#666666" stroke-width="1.1" d="M1398.78,-333.51C1420.24,-333.51 1451.24,-333.51 1477.66,-333.51"/>
<polygon fill="#666666" stroke="#666666" stroke-width="1.1" points="1477.98,-335.96 1484.98,-333.51 1477.98,-331.06 1477.98,-335.96"/>
</g>
</g>
</svg>
