<?xml version="1.0" encoding="UTF-8" standalone="no"?>
<!DOCTYPE svg PUBLIC "-//W3C//DTD SVG 1.1//EN"
 "http://www.w3.org/Graphics/SVG/1.1/DTD/svg11.dtd">
<!-- Generated by graphviz version 2.43.0 (0)
 -->
<!-- Title: termin_dependencies Pages: 1 -->
<svg width="1821pt" height="971pt"
 viewBox="0.00 0.00 1820.80 971.26" xmlns="http://www.w3.org/2000/svg" xmlns:xlink="http://www.w3.org/1999/xlink">
<g id="graph0" class="graph" transform="scale(1 1) rotate(0) translate(14.4 956.86)">
<title>termin_dependencies</title>
<polygon fill="white" stroke="transparent" points="-14.4,14.4 -14.4,-956.86 1806.4,-956.86 1806.4,14.4 -14.4,14.4"/>
<g id="clust1" class="cluster">
<title>cluster_application</title>
<polygon fill="white" stroke="#999999" stroke-dasharray="5,2" points="1671,-500.33 1671,-641.33 1784,-641.33 1784,-500.33 1671,-500.33"/>
<text text-anchor="middle" x="1727.5" y="-627.73" font-family="DejaVu Sans" font-size="12.00">Application</text>
</g>
<g id="clust2" class="cluster">
<title>cluster_foundation</title>
<polygon fill="white" stroke="#999999" stroke-dasharray="5,2" points="200,-428.33 200,-637.33 1028,-637.33 1028,-428.33 200,-428.33"/>
<text text-anchor="middle" x="614" y="-623.73" font-family="DejaVu Sans" font-size="12.00">Foundation</text>
</g>
<g id="clust3" class="cluster">
<title>cluster_native_bundle</title>
<polygon fill="white" stroke="#999999" stroke-dasharray="5,2" points="1365.5,-260.33 1365.5,-333.33 1611,-333.33 1611,-260.33 1365.5,-260.33"/>
<text text-anchor="middle" x="1488.25" y="-319.73" font-family="DejaVu Sans" font-size="12.00">Native Bundle</text>
</g>
<g id="clust4" class="cluster">
<title>cluster_other_components</title>
<polygon fill="white" stroke="#999999" stroke-dasharray="5,2" points="868,-121.33 868,-398.33 1308,-398.33 1308,-121.33 868,-121.33"/>
<text text-anchor="middle" x="1088" y="-384.73" font-family="DejaVu Sans" font-size="12.00">Other Components</text>
</g>
<g id="clust5" class="cluster">
<title>cluster_python_support</title>
<polygon fill="white" stroke="#999999" stroke-dasharray="5,2" points="8,-634.33 8,-775.33 151,-775.33 151,-634.33 8,-634.33"/>
<text text-anchor="middle" x="79.5" y="-761.73" font-family="DejaVu Sans" font-size="12.00">Python Support</text>
</g>
<g id="clust6" class="cluster">
<title>cluster_render_stack</title>
<polygon fill="white" stroke="#999999" stroke-dasharray="5,2" points="536,-645.33 536,-786.33 1299,-786.33 1299,-645.33 536,-645.33"/>
<text text-anchor="middle" x="917.5" y="-772.73" font-family="DejaVu Sans" font-size="12.00">Render Stack</text>
</g>
<g id="clust7" class="cluster">
<title>cluster_runtime</title>
<polygon fill="white" stroke="#999999" stroke-dasharray="5,2" points="1156.5,-564.33 1156.5,-637.33 1263.5,-637.33 1263.5,-564.33 1156.5,-564.33"/>
<text text-anchor="middle" x="1210" y="-623.73" font-family="DejaVu Sans" font-size="12.00">Runtime</text>
</g>
<g id="clust8" class="cluster">
<title>cluster_thin_facades</title>
<polygon fill="white" stroke="#999999" stroke-dasharray="5,2" points="1506,-351.33 1506,-424.33 1609,-424.33 1609,-351.33 1506,-351.33"/>
<text text-anchor="middle" x="1557.5" y="-410.73" font-family="DejaVu Sans" font-size="12.00">Thin Facades</text>
</g>
<g id="clust9" class="cluster">
<title>cluster_ui</title>
<polygon fill="white" stroke="#999999" stroke-dasharray="5,2" points="1357,-704.33 1357,-845.33 1622,-845.33 1622,-704.33 1357,-704.33"/>
<text text-anchor="middle" x="1489.5" y="-831.73" font-family="DejaVu Sans" font-size="12.00">UI</text>
</g>
<!-- diffusion&#45;editor -->
<g id="node1" class="node">
<title>diffusion&#45;editor</title>
<path fill="#f7f7f7" stroke="#444444" d="M1764,-612.33C1764,-612.33 1691,-612.33 1691,-612.33 1685,-612.33 1679,-606.33 1679,-600.33 1679,-600.33 1679,-588.33 1679,-588.33 1679,-582.33 1685,-576.33 1691,-576.33 1691,-576.33 1764,-576.33 1764,-576.33 1770,-576.33 1776,-582.33 1776,-588.33 1776,-588.33 1776,-600.33 1776,-600.33 1776,-606.33 1770,-612.33 1764,-612.33"/>
<text text-anchor="middle" x="1727.5" y="-591.53" font-family="DejaVu Sans" font-size="11.00">diffusion&#45;editor</text>
</g>
<!-- termin&#45;app -->
<g id="node2" class="node">
<title>termin&#45;app</title>
<path fill="#f7f7f7" stroke="#444444" d="M1753,-544.33C1753,-544.33 1702,-544.33 1702,-544.33 1696,-544.33 1690,-538.33 1690,-532.33 1690,-532.33 1690,-520.33 1690,-520.33 1690,-514.33 1696,-508.33 1702,-508.33 1702,-508.33 1753,-508.33 1753,-508.33 1759,-508.33 1765,-514.33 1765,-520.33 1765,-520.33 1765,-532.33 1765,-532.33 1765,-538.33 1759,-544.33 1753,-544.33"/>
<text text-anchor="middle" x="1727.5" y="-523.53" font-family="DejaVu Sans" font-size="11.00">termin&#45;app</text>
</g>
<!-- termin&#45;animation -->
<g id="node3" class="node">
<title>termin&#45;animation</title>
<path fill="#f7f7f7" stroke="#444444" d="M1008,-503.33C1008,-503.33 923,-503.33 923,-503.33 917,-503.33 911,-497.33 911,-491.33 911,-491.33 911,-479.33 911,-479.33 911,-473.33 917,-467.33 923,-467.33 923,-467.33 1008,-467.33 1008,-467.33 1014,-467.33 1020,-473.33 1020,-479.33 1020,-479.33 1020,-491.33 1020,-491.33 1020,-497.33 1014,-503.33 1008,-503.33"/>
<text text-anchor="middle" x="965.5" y="-482.53" font-family="DejaVu Sans" font-size="11.00">termin&#45;animation</text>
</g>
<!-- termin -->
<g id="node15" class="node">
<title>termin</title>
<path fill="#f7f7f7" stroke="#444444" d="M1415.5,-304.33C1415.5,-304.33 1385.5,-304.33 1385.5,-304.33 1379.5,-304.33 1373.5,-298.33 1373.5,-292.33 1373.5,-292.33 1373.5,-280.33 1373.5,-280.33 1373.5,-274.33 1379.5,-268.33 1385.5,-268.33 1385.5,-268.33 1415.5,-268.33 1415.5,-268.33 1421.5,-268.33 1427.5,-274.33 1427.5,-280.33 1427.5,-280.33 1427.5,-292.33 1427.5,-292.33 1427.5,-298.33 1421.5,-304.33 1415.5,-304.33"/>
<text text-anchor="middle" x="1400.5" y="-283.53" font-family="DejaVu Sans" font-size="11.00">termin</text>
</g>
<!-- termin&#45;animation&#45;&gt;termin -->
<g id="edge5" class="edge">
<title>termin&#45;animation&#45;&gt;termin</title>
<path fill="none" stroke="#666666" stroke-width="1.1" d="M1020.26,-483.98C1091.44,-479.85 1218.41,-464.18 1308,-406.33 1344.88,-382.52 1372.68,-338.46 1387.49,-310.87"/>
<polygon fill="#666666" stroke="#666666" stroke-width="1.1" points="1389.71,-311.91 1390.8,-304.57 1385.38,-309.63 1389.71,-311.91"/>
</g>
<!-- termin&#45;components&#45;animation -->
<g id="node17" class="node">
<title>termin&#45;components&#45;animation</title>
<path fill="#f7f7f7" stroke="#444444" d="M1288,-369.33C1288,-369.33 1132,-369.33 1132,-369.33 1126,-369.33 1120,-363.33 1120,-357.33 1120,-357.33 1120,-345.33 1120,-345.33 1120,-339.33 1126,-333.33 1132,-333.33 1132,-333.33 1288,-333.33 1288,-333.33 1294,-333.33 1300,-339.33 1300,-345.33 1300,-345.33 1300,-357.33 1300,-357.33 1300,-363.33 1294,-369.33 1288,-369.33"/>
<text text-anchor="middle" x="1210" y="-348.53" font-family="DejaVu Sans" font-size="11.00">termin&#45;components&#45;animation</text>
</g>
<!-- termin&#45;animation&#45;&gt;termin&#45;components&#45;animation -->
<g id="edge6" class="edge">
<title>termin&#45;animation&#45;&gt;termin&#45;components&#45;animation</title>
<path fill="none" stroke="#666666" stroke-width="1.1" d="M1006.55,-467.31C1021.87,-460.16 1039.4,-451.67 1055,-443.33 1096.97,-420.9 1143.71,-392.47 1174.57,-373.19"/>
<polygon fill="#666666" stroke="#666666" stroke-width="1.1" points="1175.89,-375.25 1180.52,-369.46 1173.29,-371.1 1175.89,-375.25"/>
</g>
<!-- termin&#45;base -->
<g id="node4" class="node">
<title>termin&#45;base</title>
<path fill="#f7f7f7" stroke="#444444" d="M289,-608.33C289,-608.33 232,-608.33 232,-608.33 226,-608.33 220,-602.33 220,-596.33 220,-596.33 220,-584.33 220,-584.33 220,-578.33 226,-572.33 232,-572.33 232,-572.33 289,-572.33 289,-572.33 295,-572.33 301,-578.33 301,-584.33 301,-584.33 301,-596.33 301,-596.33 301,-602.33 295,-608.33 289,-608.33"/>
<text text-anchor="middle" x="260.5" y="-587.53" font-family="DejaVu Sans" font-size="11.00">termin&#45;base</text>
</g>
<!-- termin&#45;inspect -->
<g id="node8" class="node">
<title>termin&#45;inspect</title>
<path fill="#f7f7f7" stroke="#444444" d="M463.5,-540.33C463.5,-540.33 393.5,-540.33 393.5,-540.33 387.5,-540.33 381.5,-534.33 381.5,-528.33 381.5,-528.33 381.5,-516.33 381.5,-516.33 381.5,-510.33 387.5,-504.33 393.5,-504.33 393.5,-504.33 463.5,-504.33 463.5,-504.33 469.5,-504.33 475.5,-510.33 475.5,-516.33 475.5,-516.33 475.5,-528.33 475.5,-528.33 475.5,-534.33 469.5,-540.33 463.5,-540.33"/>
<text text-anchor="middle" x="428.5" y="-519.53" font-family="DejaVu Sans" font-size="11.00">termin&#45;inspect</text>
</g>
<!-- termin&#45;base&#45;&gt;termin&#45;inspect -->
<g id="edge8" class="edge">
<title>termin&#45;base&#45;&gt;termin&#45;inspect</title>
<path fill="none" stroke="#666666" stroke-width="1.1" d="M301.26,-574.04C323.88,-564.78 352.45,-553.08 376.68,-543.15"/>
<polygon fill="#666666" stroke="#666666" stroke-width="1.1" points="377.84,-545.32 383.39,-540.4 375.99,-540.79 377.84,-545.32"/>
</g>
<!-- termin&#45;mesh -->
<g id="node9" class="node">
<title>termin&#45;mesh</title>
<path fill="#f7f7f7" stroke="#444444" d="M458.5,-608.33C458.5,-608.33 398.5,-608.33 398.5,-608.33 392.5,-608.33 386.5,-602.33 386.5,-596.33 386.5,-596.33 386.5,-584.33 386.5,-584.33 386.5,-578.33 392.5,-572.33 398.5,-572.33 398.5,-572.33 458.5,-572.33 458.5,-572.33 464.5,-572.33 470.5,-578.33 470.5,-584.33 470.5,-584.33 470.5,-596.33 470.5,-596.33 470.5,-602.33 464.5,-608.33 458.5,-608.33"/>
<text text-anchor="middle" x="428.5" y="-587.53" font-family="DejaVu Sans" font-size="11.00">termin&#45;mesh</text>
</g>
<!-- termin&#45;base&#45;&gt;termin&#45;mesh -->
<g id="edge10" class="edge">
<title>termin&#45;base&#45;&gt;termin&#45;mesh</title>
<path fill="none" stroke="#666666" stroke-width="1.1" d="M301.26,-590.33C324.66,-590.33 354.41,-590.33 379.16,-590.33"/>
<polygon fill="#666666" stroke="#666666" stroke-width="1.1" points="379.33,-592.78 386.33,-590.33 379.33,-587.88 379.33,-592.78"/>
</g>
<!-- termin&#45;modules -->
<g id="node10" class="node">
<title>termin&#45;modules</title>
<path fill="#f7f7f7" stroke="#444444" d="M467,-472.33C467,-472.33 390,-472.33 390,-472.33 384,-472.33 378,-466.33 378,-460.33 378,-460.33 378,-448.33 378,-448.33 378,-442.33 384,-436.33 390,-436.33 390,-436.33 467,-436.33 467,-436.33 473,-436.33 479,-442.33 479,-448.33 479,-448.33 479,-460.33 479,-460.33 479,-466.33 473,-472.33 467,-472.33"/>
<text text-anchor="middle" x="428.5" y="-451.53" font-family="DejaVu Sans" font-size="11.00">termin&#45;modules</text>
</g>
<!-- termin&#45;base&#45;&gt;termin&#45;modules -->
<g id="edge11" class="edge">
<title>termin&#45;base&#45;&gt;termin&#45;modules</title>
<path fill="none" stroke="#666666" stroke-width="1.1" d="M280.69,-572.28C303.31,-551.31 342.34,-516.04 378,-488.33 383.08,-484.38 388.58,-480.37 394.02,-476.54"/>
<polygon fill="#666666" stroke="#666666" stroke-width="1.1" points="395.51,-478.48 399.86,-472.47 392.71,-474.46 395.51,-478.48"/>
</g>
<!-- termin&#45;lighting -->
<g id="node28" class="node">
<title>termin&#45;lighting</title>
<path fill="#f7f7f7" stroke="#444444" d="M630,-757.33C630,-757.33 559,-757.33 559,-757.33 553,-757.33 547,-751.33 547,-745.33 547,-745.33 547,-733.33 547,-733.33 547,-727.33 553,-721.33 559,-721.33 559,-721.33 630,-721.33 630,-721.33 636,-721.33 642,-727.33 642,-733.33 642,-733.33 642,-745.33 642,-745.33 642,-751.33 636,-757.33 630,-757.33"/>
<text text-anchor="middle" x="594.5" y="-736.53" font-family="DejaVu Sans" font-size="11.00">termin&#45;lighting</text>
</g>
<!-- termin&#45;base&#45;&gt;termin&#45;lighting -->
<g id="edge9" class="edge">
<title>termin&#45;base&#45;&gt;termin&#45;lighting</title>
<path fill="none" stroke="#666666" stroke-width="1.1" d="M301.22,-608.16C362.79,-635.79 480.99,-688.84 546.65,-718.3"/>
<polygon fill="#666666" stroke="#666666" stroke-width="1.1" points="545.83,-720.62 553.22,-721.25 547.84,-716.15 545.83,-720.62"/>
</g>
<!-- termin&#45;collision -->
<g id="node5" class="node">
<title>termin&#45;collision</title>
<path fill="#f7f7f7" stroke="#444444" d="M798,-540.33C798,-540.33 723,-540.33 723,-540.33 717,-540.33 711,-534.33 711,-528.33 711,-528.33 711,-516.33 711,-516.33 711,-510.33 717,-504.33 723,-504.33 723,-504.33 798,-504.33 798,-504.33 804,-504.33 810,-510.33 810,-516.33 810,-516.33 810,-528.33 810,-528.33 810,-534.33 804,-540.33 798,-540.33"/>
<text text-anchor="middle" x="760.5" y="-519.53" font-family="DejaVu Sans" font-size="11.00">termin&#45;collision</text>
</g>
<!-- termin&#45;physics -->
<g id="node12" class="node">
<title>termin&#45;physics</title>
<path fill="#f7f7f7" stroke="#444444" d="M1001.5,-571.33C1001.5,-571.33 929.5,-571.33 929.5,-571.33 923.5,-571.33 917.5,-565.33 917.5,-559.33 917.5,-559.33 917.5,-547.33 917.5,-547.33 917.5,-541.33 923.5,-535.33 929.5,-535.33 929.5,-535.33 1001.5,-535.33 1001.5,-535.33 1007.5,-535.33 1013.5,-541.33 1013.5,-547.33 1013.5,-547.33 1013.5,-559.33 1013.5,-559.33 1013.5,-565.33 1007.5,-571.33 1001.5,-571.33"/>
<text text-anchor="middle" x="965.5" y="-550.53" font-family="DejaVu Sans" font-size="11.00">termin&#45;physics</text>
</g>
<!-- termin&#45;collision&#45;&gt;termin&#45;physics -->
<g id="edge14" class="edge">
<title>termin&#45;collision&#45;&gt;termin&#45;physics</title>
<path fill="none" stroke="#666666" stroke-width="1.1" d="M810.12,-529.76C840.33,-534.37 879.21,-540.3 910.39,-545.07"/>
<polygon fill="#666666" stroke="#666666" stroke-width="1.1" points="910.03,-547.49 917.32,-546.13 910.77,-542.65 910.03,-547.49"/>
</g>
<!-- termin&#45;components&#45;collision -->
<g id="node18" class="node">
<title>termin&#45;components&#45;collision</title>
<path fill="#f7f7f7" stroke="#444444" d="M1283,-301.33C1283,-301.33 1137,-301.33 1137,-301.33 1131,-301.33 1125,-295.33 1125,-289.33 1125,-289.33 1125,-277.33 1125,-277.33 1125,-271.33 1131,-265.33 1137,-265.33 1137,-265.33 1283,-265.33 1283,-265.33 1289,-265.33 1295,-271.33 1295,-277.33 1295,-277.33 1295,-289.33 1295,-289.33 1295,-295.33 1289,-301.33 1283,-301.33"/>
<text text-anchor="middle" x="1210" y="-280.53" font-family="DejaVu Sans" font-size="11.00">termin&#45;components&#45;collision</text>
</g>
<!-- termin&#45;collision&#45;&gt;termin&#45;components&#45;collision -->
<g id="edge12" class="edge">
<title>termin&#45;collision&#45;&gt;termin&#45;components&#45;collision</title>
<path fill="none" stroke="#666666" stroke-width="1.1" d="M787.9,-504.23C816.65,-484.6 859.68,-455.49 868,-451.33 946.83,-411.91 980.97,-433.16 1055,-385.33 1090.12,-362.64 1085.18,-340.47 1120,-317.33 1127.47,-312.37 1135.76,-307.99 1144.19,-304.16"/>
<polygon fill="#666666" stroke="#666666" stroke-width="1.1" points="1145.22,-306.38 1150.66,-301.34 1143.26,-301.89 1145.22,-306.38"/>
</g>
<!-- termin&#45;engine -->
<g id="node30" class="node">
<title>termin&#45;engine</title>
<path fill="#f7f7f7" stroke="#444444" d="M1243.5,-608.33C1243.5,-608.33 1176.5,-608.33 1176.5,-608.33 1170.5,-608.33 1164.5,-602.33 1164.5,-596.33 1164.5,-596.33 1164.5,-584.33 1164.5,-584.33 1164.5,-578.33 1170.5,-572.33 1176.5,-572.33 1176.5,-572.33 1243.5,-572.33 1243.5,-572.33 1249.5,-572.33 1255.5,-578.33 1255.5,-584.33 1255.5,-584.33 1255.5,-596.33 1255.5,-596.33 1255.5,-602.33 1249.5,-608.33 1243.5,-608.33"/>
<text text-anchor="middle" x="1210" y="-587.53" font-family="DejaVu Sans" font-size="11.00">termin&#45;engine</text>
</g>
<!-- termin&#45;collision&#45;&gt;termin&#45;engine -->
<g id="edge13" class="edge">
<title>termin&#45;collision&#45;&gt;termin&#45;engine</title>
<path fill="none" stroke="#666666" stroke-width="1.1" d="M787.69,-540.56C813.43,-558.06 851.23,-582.54 868,-587.33 967.14,-615.66 1089.2,-606.84 1157.12,-598.29"/>
<polygon fill="#666666" stroke="#666666" stroke-width="1.1" points="1157.7,-600.69 1164.33,-597.36 1157.07,-595.83 1157.7,-600.69"/>
</g>
<!-- termin&#45;csg -->
<g id="node6" class="node">
<title>termin&#45;csg</title>
<path fill="#f7f7f7" stroke="#444444" d="M619,-608.33C619,-608.33 570,-608.33 570,-608.33 564,-608.33 558,-602.33 558,-596.33 558,-596.33 558,-584.33 558,-584.33 558,-578.33 564,-572.33 570,-572.33 570,-572.33 619,-572.33 619,-572.33 625,-572.33 631,-578.33 631,-584.33 631,-584.33 631,-596.33 631,-596.33 631,-602.33 625,-608.33 619,-608.33"/>
<text text-anchor="middle" x="594.5" y="-587.53" font-family="DejaVu Sans" font-size="11.00">termin&#45;csg</text>
</g>
<!-- termin&#45;input -->
<g id="node7" class="node">
<title>termin&#45;input</title>
<path fill="#f7f7f7" stroke="#444444" d="M789.5,-608.33C789.5,-608.33 731.5,-608.33 731.5,-608.33 725.5,-608.33 719.5,-602.33 719.5,-596.33 719.5,-596.33 719.5,-584.33 719.5,-584.33 719.5,-578.33 725.5,-572.33 731.5,-572.33 731.5,-572.33 789.5,-572.33 789.5,-572.33 795.5,-572.33 801.5,-578.33 801.5,-584.33 801.5,-584.33 801.5,-596.33 801.5,-596.33 801.5,-602.33 795.5,-608.33 789.5,-608.33"/>
<text text-anchor="middle" x="760.5" y="-587.53" font-family="DejaVu Sans" font-size="11.00">termin&#45;input</text>
</g>
<!-- termin&#45;display -->
<g id="node26" class="node">
<title>termin&#45;display</title>
<path fill="#f7f7f7" stroke="#444444" d="M1000,-705.33C1000,-705.33 931,-705.33 931,-705.33 925,-705.33 919,-699.33 919,-693.33 919,-693.33 919,-681.33 919,-681.33 919,-675.33 925,-669.33 931,-669.33 931,-669.33 1000,-669.33 1000,-669.33 1006,-669.33 1012,-675.33 1012,-681.33 1012,-681.33 1012,-693.33 1012,-693.33 1012,-699.33 1006,-705.33 1000,-705.33"/>
<text text-anchor="middle" x="965.5" y="-684.53" font-family="DejaVu Sans" font-size="11.00">termin&#45;display</text>
</g>
<!-- termin&#45;input&#45;&gt;termin&#45;display -->
<g id="edge34" class="edge">
<title>termin&#45;input&#45;&gt;termin&#45;display</title>
<path fill="none" stroke="#666666" stroke-width="1.1" d="M795.27,-608.49C816.07,-619.5 843.38,-633.63 868,-645.33 883.03,-652.47 899.57,-659.85 914.65,-666.38"/>
<polygon fill="#666666" stroke="#666666" stroke-width="1.1" points="914.07,-668.8 921.47,-669.33 916.01,-664.3 914.07,-668.8"/>
</g>
<!-- termin&#45;scene -->
<g id="node13" class="node">
<title>termin&#45;scene</title>
<path fill="#f7f7f7" stroke="#444444" d="M626,-540.33C626,-540.33 563,-540.33 563,-540.33 557,-540.33 551,-534.33 551,-528.33 551,-528.33 551,-516.33 551,-516.33 551,-510.33 557,-504.33 563,-504.33 563,-504.33 626,-504.33 626,-504.33 632,-504.33 638,-510.33 638,-516.33 638,-516.33 638,-528.33 638,-528.33 638,-534.33 632,-540.33 626,-540.33"/>
<text text-anchor="middle" x="594.5" y="-519.53" font-family="DejaVu Sans" font-size="11.00">termin&#45;scene</text>
</g>
<!-- termin&#45;inspect&#45;&gt;termin&#45;scene -->
<g id="edge35" class="edge">
<title>termin&#45;inspect&#45;&gt;termin&#45;scene</title>
<path fill="none" stroke="#666666" stroke-width="1.1" d="M475.62,-522.33C496.81,-522.33 521.99,-522.33 543.63,-522.33"/>
<polygon fill="#666666" stroke="#666666" stroke-width="1.1" points="543.82,-524.78 550.82,-522.33 543.82,-519.88 543.82,-524.78"/>
</g>
<!-- termin&#45;mesh&#45;&gt;termin&#45;csg -->
<g id="edge38" class="edge">
<title>termin&#45;mesh&#45;&gt;termin&#45;csg</title>
<path fill="none" stroke="#666666" stroke-width="1.1" d="M470.88,-590.33C495.33,-590.33 526.21,-590.33 550.86,-590.33"/>
<polygon fill="#666666" stroke="#666666" stroke-width="1.1" points="550.97,-592.78 557.97,-590.33 550.97,-587.88 550.97,-592.78"/>
</g>
<!-- termin&#45;components&#45;mesh -->
<g id="node20" class="node">
<title>termin&#45;components&#45;mesh</title>
<path fill="#f7f7f7" stroke="#444444" d="M1031.5,-369.33C1031.5,-369.33 899.5,-369.33 899.5,-369.33 893.5,-369.33 887.5,-363.33 887.5,-357.33 887.5,-357.33 887.5,-345.33 887.5,-345.33 887.5,-339.33 893.5,-333.33 899.5,-333.33 899.5,-333.33 1031.5,-333.33 1031.5,-333.33 1037.5,-333.33 1043.5,-339.33 1043.5,-345.33 1043.5,-345.33 1043.5,-357.33 1043.5,-357.33 1043.5,-363.33 1037.5,-369.33 1031.5,-369.33"/>
<text text-anchor="middle" x="965.5" y="-348.53" font-family="DejaVu Sans" font-size="11.00">termin&#45;components&#45;mesh</text>
</g>
<!-- termin&#45;mesh&#45;&gt;termin&#45;components&#45;mesh -->
<g id="edge37" class="edge">
<title>termin&#45;mesh&#45;&gt;termin&#45;components&#45;mesh</title>
<path fill="none" stroke="#666666" stroke-width="1.1" d="M458.77,-572.17C465.68,-567.36 472.83,-561.94 479,-556.33 508.19,-529.81 506.63,-514.65 536,-488.33 605.22,-426.31 622.23,-402.9 710,-372.33 764.58,-353.32 829.57,-348.22 880.22,-347.8"/>
<polygon fill="#666666" stroke="#666666" stroke-width="1.1" points="880.28,-350.25 887.26,-347.77 880.25,-345.35 880.28,-350.25"/>
</g>
<!-- termin&#45;graphics -->
<g id="node27" class="node">
<title>termin&#45;graphics</title>
<path fill="#f7f7f7" stroke="#444444" d="M633,-689.33C633,-689.33 556,-689.33 556,-689.33 550,-689.33 544,-683.33 544,-677.33 544,-677.33 544,-665.33 544,-665.33 544,-659.33 550,-653.33 556,-653.33 556,-653.33 633,-653.33 633,-653.33 639,-653.33 645,-659.33 645,-665.33 645,-665.33 645,-677.33 645,-677.33 645,-683.33 639,-689.33 633,-689.33"/>
<text text-anchor="middle" x="594.5" y="-668.53" font-family="DejaVu Sans" font-size="11.00">termin&#45;graphics</text>
</g>
<!-- termin&#45;mesh&#45;&gt;termin&#45;graphics -->
<g id="edge39" class="edge">
<title>termin&#45;mesh&#45;&gt;termin&#45;graphics</title>
<path fill="none" stroke="#666666" stroke-width="1.1" d="M463.33,-608.37C484.15,-619.33 511.46,-633.46 536,-645.33 539.39,-646.97 542.91,-648.64 546.45,-650.3"/>
<polygon fill="#666666" stroke="#666666" stroke-width="1.1" points="545.47,-652.54 552.85,-653.27 547.53,-648.1 545.47,-652.54"/>
</g>
<!-- termin&#45;modules&#45;&gt;termin -->
<g id="edge40" class="edge">
<title>termin&#45;modules&#45;&gt;termin</title>
<path fill="none" stroke="#666666" stroke-width="1.1" d="M435.24,-436.29C460.27,-361.58 567.26,-80.33 759.5,-80.33 759.5,-80.33 759.5,-80.33 966.5,-80.33 1118.98,-80.33 1181.32,-28.45 1308,-113.33 1359.95,-148.14 1384.5,-222.31 1394.19,-261.26"/>
<polygon fill="#666666" stroke="#666666" stroke-width="1.1" points="1391.82,-261.87 1395.83,-268.11 1396.58,-260.73 1391.82,-261.87"/>
</g>
<!-- termin&#45;navmesh -->
<g id="node11" class="node">
<title>termin&#45;navmesh</title>
<path fill="#f7f7f7" stroke="#444444" d="M301,-506.33C301,-506.33 220,-506.33 220,-506.33 214,-506.33 208,-500.33 208,-494.33 208,-494.33 208,-482.33 208,-482.33 208,-476.33 214,-470.33 220,-470.33 220,-470.33 301,-470.33 301,-470.33 307,-470.33 313,-476.33 313,-482.33 313,-482.33 313,-494.33 313,-494.33 313,-500.33 307,-506.33 301,-506.33"/>
<text text-anchor="middle" x="260.5" y="-485.53" font-family="DejaVu Sans" font-size="11.00">termin&#45;navmesh</text>
</g>
<!-- termin&#45;navmesh&#45;&gt;termin&#45;app -->
<g id="edge42" class="edge">
<title>termin&#45;navmesh&#45;&gt;termin&#45;app</title>
<path fill="none" stroke="#666666" stroke-width="1.1" d="M276.02,-506.5C336.83,-582.41 569.09,-870.33 593.5,-870.33 593.5,-870.33 593.5,-870.33 1401.5,-870.33 1499.94,-870.33 1549.9,-916.35 1622,-849.33 1717.42,-760.63 1598.03,-668.25 1671,-560.33 1674.46,-555.22 1678.97,-550.74 1683.92,-546.85"/>
<polygon fill="#666666" stroke="#666666" stroke-width="1.1" points="1685.64,-548.64 1689.9,-542.57 1682.79,-544.65 1685.64,-548.64"/>
</g>
<!-- termin&#45;physics&#45;&gt;termin&#45;app -->
<g id="edge44" class="edge">
<title>termin&#45;physics&#45;&gt;termin&#45;app</title>
<path fill="none" stroke="#666666" stroke-width="1.1" d="M1013.75,-551.65C1151.25,-546.77 1549.79,-532.61 1682.74,-527.88"/>
<polygon fill="#666666" stroke="#666666" stroke-width="1.1" points="1683.09,-530.32 1690,-527.63 1682.91,-525.43 1683.09,-530.32"/>
</g>
<!-- termin&#45;scene&#45;&gt;termin&#45;collision -->
<g id="edge46" class="edge">
<title>termin&#45;scene&#45;&gt;termin&#45;collision</title>
<path fill="none" stroke="#666666" stroke-width="1.1" d="M638.16,-522.33C658.2,-522.33 682.34,-522.33 703.8,-522.33"/>
<polygon fill="#666666" stroke="#666666" stroke-width="1.1" points="703.97,-524.78 710.97,-522.33 703.97,-519.88 703.97,-524.78"/>
</g>
<!-- termin&#45;scene&#45;&gt;termin&#45;input -->
<g id="edge49" class="edge">
<title>termin&#45;scene&#45;&gt;termin&#45;input</title>
<path fill="none" stroke="#666666" stroke-width="1.1" d="M638.16,-540.02C661.06,-549.52 689.33,-561.24 712.82,-570.97"/>
<polygon fill="#666666" stroke="#666666" stroke-width="1.1" points="711.9,-573.25 719.31,-573.67 713.78,-568.72 711.9,-573.25"/>
</g>
<!-- termin&#45;skeleton -->
<g id="node14" class="node">
<title>termin&#45;skeleton</title>
<path fill="#f7f7f7" stroke="#444444" d="M799,-472.33C799,-472.33 722,-472.33 722,-472.33 716,-472.33 710,-466.33 710,-460.33 710,-460.33 710,-448.33 710,-448.33 710,-442.33 716,-436.33 722,-436.33 722,-436.33 799,-436.33 799,-436.33 805,-436.33 811,-442.33 811,-448.33 811,-448.33 811,-460.33 811,-460.33 811,-466.33 805,-472.33 799,-472.33"/>
<text text-anchor="middle" x="760.5" y="-451.53" font-family="DejaVu Sans" font-size="11.00">termin&#45;skeleton</text>
</g>
<!-- termin&#45;scene&#45;&gt;termin&#45;skeleton -->
<g id="edge51" class="edge">
<title>termin&#45;scene&#45;&gt;termin&#45;skeleton</title>
<path fill="none" stroke="#666666" stroke-width="1.1" d="M638.16,-504.64C659.93,-495.62 686.54,-484.58 709.29,-475.15"/>
<polygon fill="#666666" stroke="#666666" stroke-width="1.1" points="710.38,-477.35 715.91,-472.4 708.51,-472.82 710.38,-477.35"/>
</g>
<!-- termin&#45;components&#45;kinematic -->
<g id="node19" class="node">
<title>termin&#45;components&#45;kinematic</title>
<path fill="#f7f7f7" stroke="#444444" d="M1043,-233.33C1043,-233.33 888,-233.33 888,-233.33 882,-233.33 876,-227.33 876,-221.33 876,-221.33 876,-209.33 876,-209.33 876,-203.33 882,-197.33 888,-197.33 888,-197.33 1043,-197.33 1043,-197.33 1049,-197.33 1055,-203.33 1055,-209.33 1055,-209.33 1055,-221.33 1055,-221.33 1055,-227.33 1049,-233.33 1043,-233.33"/>
<text text-anchor="middle" x="965.5" y="-212.53" font-family="DejaVu Sans" font-size="11.00">termin&#45;components&#45;kinematic</text>
</g>
<!-- termin&#45;scene&#45;&gt;termin&#45;components&#45;kinematic -->
<g id="edge47" class="edge">
<title>termin&#45;scene&#45;&gt;termin&#45;components&#45;kinematic</title>
<path fill="none" stroke="#666666" stroke-width="1.1" d="M607.19,-504.05C626.55,-474.55 667.35,-415.39 710,-372.33 772.63,-309.11 789.91,-292 868,-249.33 877.14,-244.33 887.16,-239.84 897.17,-235.89"/>
<polygon fill="#666666" stroke="#666666" stroke-width="1.1" points="898.09,-238.16 903.74,-233.37 896.33,-233.59 898.09,-238.16"/>
</g>
<!-- termin&#45;scene&#45;&gt;termin&#45;components&#45;mesh -->
<g id="edge48" class="edge">
<title>termin&#45;scene&#45;&gt;termin&#45;components&#45;mesh</title>
<path fill="none" stroke="#666666" stroke-width="1.1" d="M611.03,-504.03C631.45,-481.13 669.5,-442.26 710,-420.33 762.96,-391.65 828.7,-374.23 880.1,-364.06"/>
<polygon fill="#666666" stroke="#666666" stroke-width="1.1" points="880.85,-366.41 887.26,-362.68 879.92,-361.6 880.85,-366.41"/>
</g>
<!-- termin&#45;render -->
<g id="node29" class="node">
<title>termin&#45;render</title>
<path fill="#f7f7f7" stroke="#444444" d="M793.5,-697.33C793.5,-697.33 727.5,-697.33 727.5,-697.33 721.5,-697.33 715.5,-691.33 715.5,-685.33 715.5,-685.33 715.5,-673.33 715.5,-673.33 715.5,-667.33 721.5,-661.33 727.5,-661.33 727.5,-661.33 793.5,-661.33 793.5,-661.33 799.5,-661.33 805.5,-667.33 805.5,-673.33 805.5,-673.33 805.5,-685.33 805.5,-685.33 805.5,-691.33 799.5,-697.33 793.5,-697.33"/>
<text text-anchor="middle" x="760.5" y="-676.53" font-family="DejaVu Sans" font-size="11.00">termin&#45;render</text>
</g>
<!-- termin&#45;scene&#45;&gt;termin&#45;render -->
<g id="edge50" class="edge">
<title>termin&#45;scene&#45;&gt;termin&#45;render</title>
<path fill="none" stroke="#666666" stroke-width="1.1" d="M625.3,-540.38C632.12,-545.16 639.09,-550.59 645,-556.33 680.13,-590.46 674.87,-611.2 710,-645.33 714.25,-649.46 719.04,-653.42 723.94,-657.1"/>
<polygon fill="#666666" stroke="#666666" stroke-width="1.1" points="722.6,-659.15 729.7,-661.28 725.47,-655.19 722.6,-659.15"/>
</g>
<!-- termin&#45;skeleton&#45;&gt;termin&#45;animation -->
<g id="edge52" class="edge">
<title>termin&#45;skeleton&#45;&gt;termin&#45;animation</title>
<path fill="none" stroke="#666666" stroke-width="1.1" d="M811.16,-461.91C839.09,-466.18 874.17,-471.54 903.73,-476.05"/>
<polygon fill="#666666" stroke="#666666" stroke-width="1.1" points="903.44,-478.48 910.73,-477.12 904.18,-473.64 903.44,-478.48"/>
</g>
<!-- termin&#45;components&#45;skeleton -->
<g id="node22" class="node">
<title>termin&#45;components&#45;skeleton</title>
<path fill="#f7f7f7" stroke="#444444" d="M1039.5,-301.33C1039.5,-301.33 891.5,-301.33 891.5,-301.33 885.5,-301.33 879.5,-295.33 879.5,-289.33 879.5,-289.33 879.5,-277.33 879.5,-277.33 879.5,-271.33 885.5,-265.33 891.5,-265.33 891.5,-265.33 1039.5,-265.33 1039.5,-265.33 1045.5,-265.33 1051.5,-271.33 1051.5,-277.33 1051.5,-277.33 1051.5,-289.33 1051.5,-289.33 1051.5,-295.33 1045.5,-301.33 1039.5,-301.33"/>
<text text-anchor="middle" x="965.5" y="-280.53" font-family="DejaVu Sans" font-size="11.00">termin&#45;components&#45;skeleton</text>
</g>
<!-- termin&#45;skeleton&#45;&gt;termin&#45;components&#45;skeleton -->
<g id="edge53" class="edge">
<title>termin&#45;skeleton&#45;&gt;termin&#45;components&#45;skeleton</title>
<path fill="none" stroke="#666666" stroke-width="1.1" d="M771.1,-436.08C787.3,-406.95 822.78,-349.91 868,-317.33 874.87,-312.38 882.52,-308.1 890.43,-304.4"/>
<polygon fill="#666666" stroke="#666666" stroke-width="1.1" points="891.72,-306.51 897.13,-301.43 889.74,-302.03 891.72,-306.51"/>
</g>
<!-- termin&#45;&gt;termin&#45;app -->
<g id="edge1" class="edge">
<title>termin&#45;&gt;termin&#45;app</title>
<path fill="none" stroke="#666666" stroke-width="1.1" d="M1427.57,-271.48C1471.71,-248.52 1562.19,-211.13 1622,-252.33 1705.86,-310.1 1722.47,-444.86 1725.72,-501.04"/>
<polygon fill="#666666" stroke="#666666" stroke-width="1.1" points="1723.28,-501.25 1726.09,-508.12 1728.18,-501 1723.28,-501.25"/>
</g>
<!-- termin&#45;&gt;termin&#45;navmesh -->
<g id="edge4" class="edge">
<title>termin&#45;&gt;termin&#45;navmesh</title>
<path fill="none" stroke="#666666" stroke-width="1.1" d="M1398.27,-268.02C1394.22,-223.58 1377.23,-109.76 1308,-56.33 1186.94,37.1 1119.42,-14.33 966.5,-14.33 593.5,-14.33 593.5,-14.33 593.5,-14.33 372.2,-14.33 285.94,-365.22 266.17,-463.2"/>
<polygon fill="#666666" stroke="#666666" stroke-width="1.1" points="263.71,-462.99 264.75,-470.33 268.52,-463.94 263.71,-462.99"/>
</g>
<!-- termin&#45;csharp -->
<g id="node16" class="node">
<title>termin&#45;csharp</title>
<path fill="#f7f7f7" stroke="#444444" d="M1591,-304.33C1591,-304.33 1524,-304.33 1524,-304.33 1518,-304.33 1512,-298.33 1512,-292.33 1512,-292.33 1512,-280.33 1512,-280.33 1512,-274.33 1518,-268.33 1524,-268.33 1524,-268.33 1591,-268.33 1591,-268.33 1597,-268.33 1603,-274.33 1603,-280.33 1603,-280.33 1603,-292.33 1603,-292.33 1603,-298.33 1597,-304.33 1591,-304.33"/>
<text text-anchor="middle" x="1557.5" y="-283.53" font-family="DejaVu Sans" font-size="11.00">termin&#45;csharp</text>
</g>
<!-- termin&#45;&gt;termin&#45;csharp -->
<g id="edge2" class="edge">
<title>termin&#45;&gt;termin&#45;csharp</title>
<path fill="none" stroke="#666666" stroke-width="1.1" d="M1427.79,-286.33C1448.79,-286.33 1478.87,-286.33 1504.67,-286.33"/>
<polygon fill="#666666" stroke="#666666" stroke-width="1.1" points="1504.83,-288.78 1511.83,-286.33 1504.83,-283.88 1504.83,-288.78"/>
</g>
<!-- termin&#45;entity -->
<g id="node31" class="node">
<title>termin&#45;entity</title>
<path fill="#f7f7f7" stroke="#444444" d="M1589,-395.33C1589,-395.33 1526,-395.33 1526,-395.33 1520,-395.33 1514,-389.33 1514,-383.33 1514,-383.33 1514,-371.33 1514,-371.33 1514,-365.33 1520,-359.33 1526,-359.33 1526,-359.33 1589,-359.33 1589,-359.33 1595,-359.33 1601,-365.33 1601,-371.33 1601,-371.33 1601,-383.33 1601,-383.33 1601,-389.33 1595,-395.33 1589,-395.33"/>
<text text-anchor="middle" x="1557.5" y="-374.53" font-family="DejaVu Sans" font-size="11.00">termin&#45;entity</text>
</g>
<!-- termin&#45;&gt;termin&#45;entity -->
<g id="edge3" class="edge">
<title>termin&#45;&gt;termin&#45;entity</title>
<path fill="none" stroke="#666666" stroke-width="1.1" d="M1427.79,-301.77C1453.01,-316.57 1491.31,-339.06 1519.58,-355.65"/>
<polygon fill="#666666" stroke="#666666" stroke-width="1.1" points="1518.53,-357.88 1525.81,-359.31 1521.01,-353.66 1518.53,-357.88"/>
</g>
<!-- termin&#45;components&#45;animation&#45;&gt;termin&#45;app -->
<g id="edge15" class="edge">
<title>termin&#45;components&#45;animation&#45;&gt;termin&#45;app</title>
<path fill="none" stroke="#666666" stroke-width="1.1" d="M1264.23,-369.4C1366.49,-404.12 1588.65,-479.53 1682.86,-511.52"/>
<polygon fill="#666666" stroke="#666666" stroke-width="1.1" points="1682.27,-513.9 1689.69,-513.83 1683.85,-509.26 1682.27,-513.9"/>
</g>
<!-- termin&#45;components&#45;collision&#45;&gt;termin -->
<g id="edge16" class="edge">
<title>termin&#45;components&#45;collision&#45;&gt;termin</title>
<path fill="none" stroke="#666666" stroke-width="1.1" d="M1295.05,-284.67C1320.23,-285.07 1346.4,-285.49 1366.24,-285.8"/>
<polygon fill="#666666" stroke="#666666" stroke-width="1.1" points="1366.21,-288.25 1373.25,-285.91 1366.29,-283.35 1366.21,-288.25"/>
</g>
<!-- termin&#45;components&#45;kinematic&#45;&gt;termin -->
<g id="edge17" class="edge">
<title>termin&#45;components&#45;kinematic&#45;&gt;termin</title>
<path fill="none" stroke="#666666" stroke-width="1.1" d="M1055.09,-208.78C1125.18,-206.25 1224.77,-208.6 1308,-233.33 1330.1,-239.9 1352.53,-252.77 1369.66,-264.19"/>
<polygon fill="#666666" stroke="#666666" stroke-width="1.1" points="1368.55,-266.4 1375.72,-268.32 1371.31,-262.35 1368.55,-266.4"/>
</g>
<!-- termin&#45;components&#45;mesh&#45;&gt;termin&#45;components&#45;collision -->
<g id="edge18" class="edge">
<title>termin&#45;components&#45;mesh&#45;&gt;termin&#45;components&#45;collision</title>
<path fill="none" stroke="#666666" stroke-width="1.1" d="M1030.85,-333.29C1063.73,-324.07 1103.83,-312.82 1137.65,-303.34"/>
<polygon fill="#666666" stroke="#666666" stroke-width="1.1" points="1138.69,-305.59 1144.77,-301.34 1137.37,-300.87 1138.69,-305.59"/>
</g>
<!-- termin&#45;components&#45;render -->
<g id="node25" class="node">
<title>termin&#45;components&#45;render</title>
<path fill="#f7f7f7" stroke="#444444" d="M1279,-689.33C1279,-689.33 1141,-689.33 1141,-689.33 1135,-689.33 1129,-683.33 1129,-677.33 1129,-677.33 1129,-665.33 1129,-665.33 1129,-659.33 1135,-653.33 1141,-653.33 1141,-653.33 1279,-653.33 1279,-653.33 1285,-653.33 1291,-659.33 1291,-665.33 1291,-665.33 1291,-677.33 1291,-677.33 1291,-683.33 1285,-689.33 1279,-689.33"/>
<text text-anchor="middle" x="1210" y="-668.53" font-family="DejaVu Sans" font-size="11.00">termin&#45;components&#45;render</text>
</g>
<!-- termin&#45;components&#45;mesh&#45;&gt;termin&#45;components&#45;render -->
<g id="edge19" class="edge">
<title>termin&#45;components&#45;mesh&#45;&gt;termin&#45;components&#45;render</title>
<path fill="none" stroke="#666666" stroke-width="1.1" d="M998.96,-369.5C1017.86,-381.62 1040.7,-399.19 1055,-420.33 1113.33,-506.54 1046.51,-571.62 1120,-645.33 1121.29,-646.63 1122.65,-647.86 1124.05,-649.03"/>
<polygon fill="#666666" stroke="#666666" stroke-width="1.1" points="1122.65,-651.04 1129.72,-653.26 1125.57,-647.11 1122.65,-651.04"/>
</g>
<!-- termin&#45;components&#45;physics -->
<g id="node21" class="node">
<title>termin&#45;components&#45;physics</title>
<path fill="#f7f7f7" stroke="#444444" d="M1037,-165.33C1037,-165.33 894,-165.33 894,-165.33 888,-165.33 882,-159.33 882,-153.33 882,-153.33 882,-141.33 882,-141.33 882,-135.33 888,-129.33 894,-129.33 894,-129.33 1037,-129.33 1037,-129.33 1043,-129.33 1049,-135.33 1049,-141.33 1049,-141.33 1049,-153.33 1049,-153.33 1049,-159.33 1043,-165.33 1037,-165.33"/>
<text text-anchor="middle" x="965.5" y="-144.53" font-family="DejaVu Sans" font-size="11.00">termin&#45;components&#45;physics</text>
</g>
<!-- termin&#45;components&#45;physics&#45;&gt;termin&#45;app -->
<g id="edge20" class="edge">
<title>termin&#45;components&#45;physics&#45;&gt;termin&#45;app</title>
<path fill="none" stroke="#666666" stroke-width="1.1" d="M1049.2,-131.7C1184.78,-111.1 1455.81,-91.61 1622,-225.33 1709,-295.33 1723.77,-442.1 1726.13,-501.03"/>
<polygon fill="#666666" stroke="#666666" stroke-width="1.1" points="1723.68,-501.19 1726.37,-508.1 1728.58,-501.02 1723.68,-501.19"/>
</g>
<!-- termin&#45;components&#45;skeleton&#45;&gt;termin -->
<g id="edge22" class="edge">
<title>termin&#45;components&#45;skeleton&#45;&gt;termin</title>
<path fill="none" stroke="#666666" stroke-width="1.1" d="M1033.46,-265.27C1102.7,-249.24 1213.69,-230.98 1308,-249.33 1328.19,-253.26 1349.57,-261.64 1366.58,-269.43"/>
<polygon fill="#666666" stroke="#666666" stroke-width="1.1" points="1365.73,-271.74 1373.11,-272.5 1367.81,-267.31 1365.73,-271.74"/>
</g>
<!-- termin&#45;components&#45;skeleton&#45;&gt;termin&#45;components&#45;animation -->
<g id="edge23" class="edge">
<title>termin&#45;components&#45;skeleton&#45;&gt;termin&#45;components&#45;animation</title>
<path fill="none" stroke="#666666" stroke-width="1.1" d="M1030.85,-301.37C1063.73,-310.59 1103.83,-321.84 1137.65,-331.32"/>
<polygon fill="#666666" stroke="#666666" stroke-width="1.1" points="1137.37,-333.79 1144.77,-333.32 1138.69,-329.07 1137.37,-333.79"/>
</g>
<!-- termin&#45;assets -->
<g id="node23" class="node">
<title>termin&#45;assets</title>
<path fill="#f7f7f7" stroke="#444444" d="M112.5,-746.33C112.5,-746.33 46.5,-746.33 46.5,-746.33 40.5,-746.33 34.5,-740.33 34.5,-734.33 34.5,-734.33 34.5,-722.33 34.5,-722.33 34.5,-716.33 40.5,-710.33 46.5,-710.33 46.5,-710.33 112.5,-710.33 112.5,-710.33 118.5,-710.33 124.5,-716.33 124.5,-722.33 124.5,-722.33 124.5,-734.33 124.5,-734.33 124.5,-740.33 118.5,-746.33 112.5,-746.33"/>
<text text-anchor="middle" x="79.5" y="-725.53" font-family="DejaVu Sans" font-size="11.00">termin&#45;assets</text>
</g>
<!-- termin&#45;assets&#45;&gt;termin&#45;app -->
<g id="edge7" class="edge">
<title>termin&#45;assets&#45;&gt;termin&#45;app</title>
<path fill="none" stroke="#666666" stroke-width="1.1" d="M96.12,-746.43C141.65,-797.03 280.35,-936.33 427.5,-936.33 427.5,-936.33 427.5,-936.33 1401.5,-936.33 1501.43,-936.33 1553.14,-964.75 1622,-892.33 1724.78,-784.24 1588.78,-684.78 1671,-560.33 1674.4,-555.18 1678.88,-550.68 1683.82,-546.79"/>
<polygon fill="#666666" stroke="#666666" stroke-width="1.1" points="1685.54,-548.57 1689.79,-542.49 1682.68,-544.59 1685.54,-548.57"/>
</g>
<!-- termin&#45;nanobind&#45;sdk -->
<g id="node24" class="node">
<title>termin&#45;nanobind&#45;sdk</title>
<path fill="#f7f7f7" stroke="#444444" d="M131,-678.33C131,-678.33 28,-678.33 28,-678.33 22,-678.33 16,-672.33 16,-666.33 16,-666.33 16,-654.33 16,-654.33 16,-648.33 22,-642.33 28,-642.33 28,-642.33 131,-642.33 131,-642.33 137,-642.33 143,-648.33 143,-654.33 143,-654.33 143,-666.33 143,-666.33 143,-672.33 137,-678.33 131,-678.33"/>
<text text-anchor="middle" x="79.5" y="-657.53" font-family="DejaVu Sans" font-size="11.00">termin&#45;nanobind&#45;sdk</text>
</g>
<!-- termin&#45;nanobind&#45;sdk&#45;&gt;termin&#45;base -->
<g id="edge41" class="edge">
<title>termin&#45;nanobind&#45;sdk&#45;&gt;termin&#45;base</title>
<path fill="none" stroke="#666666" stroke-width="1.1" d="M126.6,-642.3C153.24,-631.88 186.65,-618.82 213.31,-608.39"/>
<polygon fill="#666666" stroke="#666666" stroke-width="1.1" points="214.31,-610.63 219.94,-605.8 212.52,-606.07 214.31,-610.63"/>
</g>
<!-- termin&#45;components&#45;render&#45;&gt;termin -->
<g id="edge21" class="edge">
<title>termin&#45;components&#45;render&#45;&gt;termin</title>
<path fill="none" stroke="#666666" stroke-width="1.1" d="M1291.17,-657.63C1297.36,-654.34 1303.1,-650.29 1308,-645.33 1355.63,-597.11 1386.85,-384.96 1396.4,-311.48"/>
<polygon fill="#666666" stroke="#666666" stroke-width="1.1" points="1398.85,-311.67 1397.31,-304.42 1393.99,-311.05 1398.85,-311.67"/>
</g>
<!-- termin&#45;display&#45;&gt;diffusion&#45;editor -->
<g id="edge24" class="edge">
<title>termin&#45;display&#45;&gt;diffusion&#45;editor</title>
<path fill="none" stroke="#666666" stroke-width="1.1" d="M1012.05,-694.08C1042.53,-698.25 1083.57,-703.2 1120,-705.33 1203.41,-710.2 1225.95,-721.09 1308,-705.33 1398.69,-687.91 1411.86,-652.49 1501,-628.33 1558.13,-612.85 1625.44,-603.85 1671.55,-599.05"/>
<polygon fill="#666666" stroke="#666666" stroke-width="1.1" points="1672.05,-601.46 1678.77,-598.31 1671.56,-596.59 1672.05,-601.46"/>
</g>
<!-- termin&#45;display&#45;&gt;termin&#45;components&#45;render -->
<g id="edge25" class="edge">
<title>termin&#45;display&#45;&gt;termin&#45;components&#45;render</title>
<path fill="none" stroke="#666666" stroke-width="1.1" d="M1012.11,-684.32C1042.85,-682.29 1084.4,-679.55 1121.4,-677.11"/>
<polygon fill="#666666" stroke="#666666" stroke-width="1.1" points="1121.91,-679.53 1128.73,-676.63 1121.59,-674.64 1121.91,-679.53"/>
</g>
<!-- termin&#45;display&#45;&gt;termin&#45;engine -->
<g id="edge26" class="edge">
<title>termin&#45;display&#45;&gt;termin&#45;engine</title>
<path fill="none" stroke="#666666" stroke-width="1.1" d="M1011.54,-669.31C1052.97,-652.74 1114.37,-628.18 1157.68,-610.86"/>
<polygon fill="#666666" stroke="#666666" stroke-width="1.1" points="1158.61,-613.13 1164.2,-608.25 1156.79,-608.58 1158.61,-613.13"/>
</g>
<!-- termin&#45;graphics&#45;&gt;termin&#45;render -->
<g id="edge30" class="edge">
<title>termin&#45;graphics&#45;&gt;termin&#45;render</title>
<path fill="none" stroke="#666666" stroke-width="1.1" d="M645.15,-673.75C665.14,-674.73 688.18,-675.85 708.32,-676.83"/>
<polygon fill="#666666" stroke="#666666" stroke-width="1.1" points="708.2,-679.28 715.31,-677.17 708.44,-674.39 708.2,-679.28"/>
</g>
<!-- termin&#45;gui -->
<g id="node33" class="node">
<title>termin&#45;gui</title>
<path fill="#f7f7f7" stroke="#444444" d="M1424,-782.33C1424,-782.33 1377,-782.33 1377,-782.33 1371,-782.33 1365,-776.33 1365,-770.33 1365,-770.33 1365,-758.33 1365,-758.33 1365,-752.33 1371,-746.33 1377,-746.33 1377,-746.33 1424,-746.33 1424,-746.33 1430,-746.33 1436,-752.33 1436,-758.33 1436,-758.33 1436,-770.33 1436,-770.33 1436,-776.33 1430,-782.33 1424,-782.33"/>
<text text-anchor="middle" x="1400.5" y="-761.53" font-family="DejaVu Sans" font-size="11.00">termin&#45;gui</text>
</g>
<!-- termin&#45;graphics&#45;&gt;termin&#45;gui -->
<g id="edge29" class="edge">
<title>termin&#45;graphics&#45;&gt;termin&#45;gui</title>
<path fill="none" stroke="#666666" stroke-width="1.1" d="M636.28,-689.43C657.79,-698.16 684.85,-707.9 710,-713.33 951.14,-765.41 1249.51,-766.74 1357.78,-765.24"/>
<polygon fill="#666666" stroke="#666666" stroke-width="1.1" points="1357.98,-767.69 1364.94,-765.13 1357.91,-762.79 1357.98,-767.69"/>
</g>
<!-- termin&#45;lighting&#45;&gt;termin&#45;render -->
<g id="edge36" class="edge">
<title>termin&#45;lighting&#45;&gt;termin&#45;render</title>
<path fill="none" stroke="#666666" stroke-width="1.1" d="M642.06,-722.3C662.82,-714.7 687.34,-705.73 708.59,-697.96"/>
<polygon fill="#666666" stroke="#666666" stroke-width="1.1" points="709.63,-700.18 715.37,-695.48 707.95,-695.58 709.63,-700.18"/>
</g>
<!-- termin&#45;render&#45;&gt;termin&#45;display -->
<g id="edge45" class="edge">
<title>termin&#45;render&#45;&gt;termin&#45;display</title>
<path fill="none" stroke="#666666" stroke-width="1.1" d="M805.55,-681.07C836.66,-682.29 878.51,-683.94 911.46,-685.24"/>
<polygon fill="#666666" stroke="#666666" stroke-width="1.1" points="911.69,-687.7 918.78,-685.53 911.88,-682.8 911.69,-687.7"/>
</g>
<!-- termin&#45;engine&#45;&gt;termin -->
<g id="edge27" class="edge">
<title>termin&#45;engine&#45;&gt;termin</title>
<path fill="none" stroke="#666666" stroke-width="1.1" d="M1226.94,-572.08C1247.17,-548.42 1282.51,-505.43 1308,-465.33 1341.44,-412.73 1372.75,-346.4 1388.63,-311.1"/>
<polygon fill="#666666" stroke="#666666" stroke-width="1.1" points="1390.98,-311.86 1391.6,-304.47 1386.51,-309.86 1390.98,-311.86"/>
</g>
<!-- termin&#45;entity&#45;&gt;termin&#45;app -->
<g id="edge28" class="edge">
<title>termin&#45;entity&#45;&gt;termin&#45;app</title>
<path fill="none" stroke="#666666" stroke-width="1.1" d="M1581.41,-395.53C1593.62,-405.36 1608.79,-417.81 1622,-429.33 1650.21,-453.93 1681.54,-483.3 1702.48,-503.23"/>
<polygon fill="#666666" stroke="#666666" stroke-width="1.1" points="1700.81,-505.03 1707.57,-508.09 1704.19,-501.49 1700.81,-505.03"/>
</g>
<!-- tcplot -->
<g id="node32" class="node">
<title>tcplot</title>
<path fill="#f7f7f7" stroke="#444444" d="M1572.5,-748.33C1572.5,-748.33 1542.5,-748.33 1542.5,-748.33 1536.5,-748.33 1530.5,-742.33 1530.5,-736.33 1530.5,-736.33 1530.5,-724.33 1530.5,-724.33 1530.5,-718.33 1536.5,-712.33 1542.5,-712.33 1542.5,-712.33 1572.5,-712.33 1572.5,-712.33 1578.5,-712.33 1584.5,-718.33 1584.5,-724.33 1584.5,-724.33 1584.5,-736.33 1584.5,-736.33 1584.5,-742.33 1578.5,-748.33 1572.5,-748.33"/>
<text text-anchor="middle" x="1557.5" y="-727.53" font-family="DejaVu Sans" font-size="11.00">tcplot</text>
</g>
<!-- termin&#45;gui&#45;&gt;diffusion&#45;editor -->
<g id="edge31" class="edge">
<title>termin&#45;gui&#45;&gt;diffusion&#45;editor</title>
<path fill="none" stroke="#666666" stroke-width="1.1" d="M1425.67,-746.04C1445.36,-731.59 1474.19,-711.4 1501,-696.33 1558.12,-664.22 1627.21,-634.17 1673.74,-615.12"/>
<polygon fill="#666666" stroke="#666666" stroke-width="1.1" points="1674.88,-617.3 1680.43,-612.39 1673.03,-612.76 1674.88,-617.3"/>
</g>
<!-- termin&#45;gui&#45;&gt;tcplot -->
<g id="edge32" class="edge">
<title>termin&#45;gui&#45;&gt;tcplot</title>
<path fill="none" stroke="#666666" stroke-width="1.1" d="M1436.29,-756.7C1462.23,-751.01 1497.46,-743.28 1523.07,-737.66"/>
<polygon fill="#666666" stroke="#666666" stroke-width="1.1" points="1523.71,-740.03 1530.03,-736.14 1522.66,-735.24 1523.71,-740.03"/>
</g>
<!-- termin&#45;nodegraph -->
<g id="node34" class="node">
<title>termin&#45;nodegraph</title>
<path fill="#f7f7f7" stroke="#444444" d="M1602,-816.33C1602,-816.33 1513,-816.33 1513,-816.33 1507,-816.33 1501,-810.33 1501,-804.33 1501,-804.33 1501,-792.33 1501,-792.33 1501,-786.33 1507,-780.33 1513,-780.33 1513,-780.33 1602,-780.33 1602,-780.33 1608,-780.33 1614,-786.33 1614,-792.33 1614,-792.33 1614,-804.33 1614,-804.33 1614,-810.33 1608,-816.33 1602,-816.33"/>
<text text-anchor="middle" x="1557.5" y="-795.53" font-family="DejaVu Sans" font-size="11.00">termin&#45;nodegraph</text>
</g>
<!-- termin&#45;gui&#45;&gt;termin&#45;nodegraph -->
<g id="edge33" class="edge">
<title>termin&#45;gui&#45;&gt;termin&#45;nodegraph</title>
<path fill="none" stroke="#666666" stroke-width="1.1" d="M1436.29,-771.96C1453.29,-775.69 1474.29,-780.3 1493.95,-784.61"/>
<polygon fill="#666666" stroke="#666666" stroke-width="1.1" points="1493.48,-787.01 1500.84,-786.12 1494.53,-782.23 1493.48,-787.01"/>
</g>
<!-- termin&#45;nodegraph&#45;&gt;termin&#45;app -->
<g id="edge43" class="edge">
<title>termin&#45;nodegraph&#45;&gt;termin&#45;app</title>
<path fill="none" stroke="#666666" stroke-width="1.1" d="M1604.15,-780.13C1610.89,-775.79 1617.19,-770.57 1622,-764.33 1678.98,-690.52 1616.18,-635.76 1671,-560.33 1674.58,-555.4 1679.11,-551.04 1684.04,-547.23"/>
<polygon fill="#666666" stroke="#666666" stroke-width="1.1" points="1685.69,-549.06 1689.97,-543 1682.85,-545.07 1685.69,-549.06"/>
</g>
</g>
</svg>
