<?xml version="1.0" encoding="UTF-8" standalone="no"?>
<!DOCTYPE svg PUBLIC "-//W3C//DTD SVG 1.1//EN"
 "http://www.w3.org/Graphics/SVG/1.1/DTD/svg11.dtd">
<!-- Generated by graphviz version 2.43.0 (0)
 -->
<!-- Title: termin_dependencies Pages: 1 -->
<svg width="1713pt" height="1290pt"
 viewBox="0.00 0.00 1712.80 1290.22" xmlns="http://www.w3.org/2000/svg" xmlns:xlink="http://www.w3.org/1999/xlink">
<g id="graph0" class="graph" transform="scale(1 1) rotate(0) translate(14.4 1275.82)">
<title>termin_dependencies</title>
<polygon fill="white" stroke="transparent" points="-14.4,14.4 -14.4,-1275.82 1698.4,-1275.82 1698.4,14.4 -14.4,14.4"/>
<g id="clust1" class="cluster">
<title>cluster_application</title>
<polygon fill="white" stroke="#999999" stroke-dasharray="5,2" points="1418,-905 1418,-978 1509,-978 1509,-905 1418,-905"/>
<text text-anchor="middle" x="1463.5" y="-964.4" font-family="DejaVu Sans" font-size="12.00">Application</text>
</g>
<g id="clust2" class="cluster">
<title>cluster_foundation</title>
<polygon fill="white" stroke="#999999" stroke-dasharray="5,2" points="8,-106 8,-383 846,-383 846,-106 8,-106"/>
<text text-anchor="middle" x="427" y="-369.4" font-family="DejaVu Sans" font-size="12.00">Foundation</text>
</g>
<g id="clust3" class="cluster">
<title>cluster_namespace</title>
<polygon fill="white" stroke="#999999" stroke-dasharray="5,2" points="12.5,-8 12.5,-81 100.5,-81 100.5,-8 12.5,-8"/>
<text text-anchor="middle" x="56.5" y="-67.4" font-family="DejaVu Sans" font-size="12.00">Namespace</text>
</g>
<g id="clust4" class="cluster">
<title>cluster_native_interop</title>
<polygon fill="white" stroke="#999999" stroke-dasharray="5,2" points="1569,-1017 1569,-1090 1676,-1090 1676,-1017 1569,-1017"/>
<text text-anchor="middle" x="1622.5" y="-1076.4" font-family="DejaVu Sans" font-size="12.00">Native Interop</text>
</g>
<g id="clust5" class="cluster">
<title>cluster_other_components</title>
<polygon fill="white" stroke="#999999" stroke-dasharray="5,2" points="686,-391 686,-600 1358,-600 1358,-391 686,-391"/>
<text text-anchor="middle" x="1022" y="-586.4" font-family="DejaVu Sans" font-size="12.00">Other Components</text>
</g>
<g id="clust6" class="cluster">
<title>cluster_python_support</title>
<polygon fill="white" stroke="#999999" stroke-dasharray="5,2" points="157,-793 157,-934 300,-934 300,-793 157,-793"/>
<text text-anchor="middle" x="228.5" y="-920.4" font-family="DejaVu Sans" font-size="12.00">Python Support</text>
</g>
<g id="clust7" class="cluster">
<title>cluster_render_stack</title>
<polygon fill="white" stroke="#999999" stroke-dasharray="5,2" points="349,-608 349,-749 1117,-749 1117,-608 349,-608"/>
<text text-anchor="middle" x="733" y="-735.4" font-family="DejaVu Sans" font-size="12.00">Render Stack</text>
</g>
<g id="clust8" class="cluster">
<title>cluster_runtime</title>
<polygon fill="white" stroke="#999999" stroke-dasharray="5,2" points="1213,-668 1213,-741 1320,-741 1320,-668 1213,-668"/>
<text text-anchor="middle" x="1266.5" y="-727.4" font-family="DejaVu Sans" font-size="12.00">Runtime</text>
</g>
<g id="clust10" class="cluster">
<title>cluster_ui</title>
<polygon fill="white" stroke="#999999" stroke-dasharray="5,2" points="532.5,-1029 532.5,-1170 848,-1170 848,-1029 532.5,-1029"/>
<text text-anchor="middle" x="690.25" y="-1156.4" font-family="DejaVu Sans" font-size="12.00">UI</text>
</g>
<!-- termin&#45;app -->
<g id="node1" class="node">
<title>termin&#45;app</title>
<path fill="#f7f7f7" stroke="#444444" d="M1489,-949C1489,-949 1438,-949 1438,-949 1432,-949 1426,-943 1426,-937 1426,-937 1426,-925 1426,-925 1426,-919 1432,-913 1438,-913 1438,-913 1489,-913 1489,-913 1495,-913 1501,-919 1501,-925 1501,-925 1501,-937 1501,-937 1501,-943 1495,-949 1489,-949"/>
<text text-anchor="middle" x="1463.5" y="-928.2" font-family="DejaVu Sans" font-size="11.00">termin&#45;app</text>
</g>
<!-- termin&#45;csharp -->
<g id="node15" class="node">
<title>termin&#45;csharp</title>
<path fill="#f7f7f7" stroke="#444444" d="M1656,-1061C1656,-1061 1589,-1061 1589,-1061 1583,-1061 1577,-1055 1577,-1049 1577,-1049 1577,-1037 1577,-1037 1577,-1031 1583,-1025 1589,-1025 1589,-1025 1656,-1025 1656,-1025 1662,-1025 1668,-1031 1668,-1037 1668,-1037 1668,-1049 1668,-1049 1668,-1055 1662,-1061 1656,-1061"/>
<text text-anchor="middle" x="1622.5" y="-1040.2" font-family="DejaVu Sans" font-size="11.00">termin&#45;csharp</text>
</g>
<!-- termin&#45;app&#45;&gt;termin&#45;csharp -->
<g id="edge5" class="edge">
<title>termin&#45;app&#45;&gt;termin&#45;csharp</title>
<path fill="none" stroke="#666666" stroke-width="1.1" d="M1490.07,-949.24C1517.41,-968.75 1560.78,-999.68 1590.15,-1020.64"/>
<polygon fill="#666666" stroke="#666666" stroke-width="1.1" points="1589.08,-1022.88 1596.2,-1024.95 1591.92,-1018.89 1589.08,-1022.88"/>
</g>
<!-- termin&#45;animation -->
<g id="node2" class="node">
<title>termin&#45;animation</title>
<path fill="#f7f7f7" stroke="#444444" d="M826,-301C826,-301 741,-301 741,-301 735,-301 729,-295 729,-289 729,-289 729,-277 729,-277 729,-271 735,-265 741,-265 741,-265 826,-265 826,-265 832,-265 838,-271 838,-277 838,-277 838,-289 838,-289 838,-295 832,-301 826,-301"/>
<text text-anchor="middle" x="783.5" y="-280.2" font-family="DejaVu Sans" font-size="11.00">termin&#45;animation</text>
</g>
<!-- termin&#45;components&#45;animation -->
<g id="node16" class="node">
<title>termin&#45;components&#45;animation</title>
<path fill="#f7f7f7" stroke="#444444" d="M1106,-435C1106,-435 950,-435 950,-435 944,-435 938,-429 938,-423 938,-423 938,-411 938,-411 938,-405 944,-399 950,-399 950,-399 1106,-399 1106,-399 1112,-399 1118,-405 1118,-411 1118,-411 1118,-423 1118,-423 1118,-429 1112,-435 1106,-435"/>
<text text-anchor="middle" x="1028" y="-414.2" font-family="DejaVu Sans" font-size="11.00">termin&#45;components&#45;animation</text>
</g>
<!-- termin&#45;animation&#45;&gt;termin&#45;components&#45;animation -->
<g id="edge4" class="edge">
<title>termin&#45;animation&#45;&gt;termin&#45;components&#45;animation</title>
<path fill="none" stroke="#666666" stroke-width="1.1" d="M824.55,-301.02C839.87,-308.17 857.4,-316.66 873,-325 914.97,-347.43 961.71,-375.86 992.57,-395.14"/>
<polygon fill="#666666" stroke="#666666" stroke-width="1.1" points="991.29,-397.23 998.52,-398.87 993.89,-393.08 991.29,-397.23"/>
</g>
<!-- termin&#45;base -->
<g id="node3" class="node">
<title>termin&#45;base</title>
<path fill="#f7f7f7" stroke="#444444" d="M85,-286C85,-286 28,-286 28,-286 22,-286 16,-280 16,-274 16,-274 16,-262 16,-262 16,-256 22,-250 28,-250 28,-250 85,-250 85,-250 91,-250 97,-256 97,-262 97,-262 97,-274 97,-274 97,-280 91,-286 85,-286"/>
<text text-anchor="middle" x="56.5" y="-265.2" font-family="DejaVu Sans" font-size="11.00">termin&#45;base</text>
</g>
<!-- termin&#45;inspect -->
<g id="node7" class="node">
<title>termin&#45;inspect</title>
<path fill="#f7f7f7" stroke="#444444" d="M263.5,-150C263.5,-150 193.5,-150 193.5,-150 187.5,-150 181.5,-144 181.5,-138 181.5,-138 181.5,-126 181.5,-126 181.5,-120 187.5,-114 193.5,-114 193.5,-114 263.5,-114 263.5,-114 269.5,-114 275.5,-120 275.5,-126 275.5,-126 275.5,-138 275.5,-138 275.5,-144 269.5,-150 263.5,-150"/>
<text text-anchor="middle" x="228.5" y="-129.2" font-family="DejaVu Sans" font-size="11.00">termin&#45;inspect</text>
</g>
<!-- termin&#45;base&#45;&gt;termin&#45;inspect -->
<g id="edge8" class="edge">
<title>termin&#45;base&#45;&gt;termin&#45;inspect</title>
<path fill="none" stroke="#666666" stroke-width="1.1" d="M71.77,-249.9C89.8,-227.91 122.66,-190.7 157,-166 163.33,-161.44 170.37,-157.22 177.48,-153.41"/>
<polygon fill="#666666" stroke="#666666" stroke-width="1.1" points="178.92,-155.42 184.01,-150.03 176.67,-151.07 178.92,-155.42"/>
</g>
<!-- termin&#45;mesh -->
<g id="node8" class="node">
<title>termin&#45;mesh</title>
<path fill="#f7f7f7" stroke="#444444" d="M258.5,-218C258.5,-218 198.5,-218 198.5,-218 192.5,-218 186.5,-212 186.5,-206 186.5,-206 186.5,-194 186.5,-194 186.5,-188 192.5,-182 198.5,-182 198.5,-182 258.5,-182 258.5,-182 264.5,-182 270.5,-188 270.5,-194 270.5,-194 270.5,-206 270.5,-206 270.5,-212 264.5,-218 258.5,-218"/>
<text text-anchor="middle" x="228.5" y="-197.2" font-family="DejaVu Sans" font-size="11.00">termin&#45;mesh</text>
</g>
<!-- termin&#45;base&#45;&gt;termin&#45;mesh -->
<g id="edge10" class="edge">
<title>termin&#45;base&#45;&gt;termin&#45;mesh</title>
<path fill="none" stroke="#666666" stroke-width="1.1" d="M97.36,-252.06C121.95,-242.22 153.65,-229.54 179.6,-219.16"/>
<polygon fill="#666666" stroke="#666666" stroke-width="1.1" points="180.83,-221.31 186.41,-216.43 179.01,-216.76 180.83,-221.31"/>
</g>
<!-- termin&#45;modules -->
<g id="node9" class="node">
<title>termin&#45;modules</title>
<path fill="#f7f7f7" stroke="#444444" d="M267,-354C267,-354 190,-354 190,-354 184,-354 178,-348 178,-342 178,-342 178,-330 178,-330 178,-324 184,-318 190,-318 190,-318 267,-318 267,-318 273,-318 279,-324 279,-330 279,-330 279,-342 279,-342 279,-348 273,-354 267,-354"/>
<text text-anchor="middle" x="228.5" y="-333.2" font-family="DejaVu Sans" font-size="11.00">termin&#45;modules</text>
</g>
<!-- termin&#45;base&#45;&gt;termin&#45;modules -->
<g id="edge11" class="edge">
<title>termin&#45;base&#45;&gt;termin&#45;modules</title>
<path fill="none" stroke="#666666" stroke-width="1.1" d="M97.36,-283.94C120.78,-293.31 150.65,-305.26 175.86,-315.34"/>
<polygon fill="#666666" stroke="#666666" stroke-width="1.1" points="175.09,-317.67 182.5,-318 176.91,-313.12 175.09,-317.67"/>
</g>
<!-- termin&#45;navmesh -->
<g id="node10" class="node">
<title>termin&#45;navmesh</title>
<path fill="#f7f7f7" stroke="#444444" d="M269,-286C269,-286 188,-286 188,-286 182,-286 176,-280 176,-274 176,-274 176,-262 176,-262 176,-256 182,-250 188,-250 188,-250 269,-250 269,-250 275,-250 281,-256 281,-262 281,-262 281,-274 281,-274 281,-280 275,-286 269,-286"/>
<text text-anchor="middle" x="228.5" y="-265.2" font-family="DejaVu Sans" font-size="11.00">termin&#45;navmesh</text>
</g>
<!-- termin&#45;base&#45;&gt;termin&#45;navmesh -->
<g id="edge12" class="edge">
<title>termin&#45;base&#45;&gt;termin&#45;navmesh</title>
<path fill="none" stroke="#666666" stroke-width="1.1" d="M97.36,-268C118.61,-268 145.18,-268 168.75,-268"/>
<polygon fill="#666666" stroke="#666666" stroke-width="1.1" points="168.96,-270.45 175.96,-268 168.96,-265.55 168.96,-270.45"/>
</g>
<!-- termin&#45;assets -->
<g id="node22" class="node">
<title>termin&#45;assets</title>
<path fill="#f7f7f7" stroke="#444444" d="M261.5,-905C261.5,-905 195.5,-905 195.5,-905 189.5,-905 183.5,-899 183.5,-893 183.5,-893 183.5,-881 183.5,-881 183.5,-875 189.5,-869 195.5,-869 195.5,-869 261.5,-869 261.5,-869 267.5,-869 273.5,-875 273.5,-881 273.5,-881 273.5,-893 273.5,-893 273.5,-899 267.5,-905 261.5,-905"/>
<text text-anchor="middle" x="228.5" y="-884.2" font-family="DejaVu Sans" font-size="11.00">termin&#45;assets</text>
</g>
<!-- termin&#45;base&#45;&gt;termin&#45;assets -->
<g id="edge7" class="edge">
<title>termin&#45;base&#45;&gt;termin&#45;assets</title>
<path fill="none" stroke="#666666" stroke-width="1.1" d="M87.1,-286.13C92.36,-290.68 97.2,-295.99 100.5,-302 218.95,-517.8 15.61,-651.48 157,-853 162.06,-860.21 169.08,-865.95 176.74,-870.5"/>
<polygon fill="#666666" stroke="#666666" stroke-width="1.1" points="175.98,-872.88 183.3,-874.05 178.31,-868.57 175.98,-872.88"/>
</g>
<!-- termin&#45;lighting -->
<g id="node27" class="node">
<title>termin&#45;lighting</title>
<path fill="#f7f7f7" stroke="#444444" d="M443,-652C443,-652 372,-652 372,-652 366,-652 360,-646 360,-640 360,-640 360,-628 360,-628 360,-622 366,-616 372,-616 372,-616 443,-616 443,-616 449,-616 455,-622 455,-628 455,-628 455,-640 455,-640 455,-646 449,-652 443,-652"/>
<text text-anchor="middle" x="407.5" y="-631.2" font-family="DejaVu Sans" font-size="11.00">termin&#45;lighting</text>
</g>
<!-- termin&#45;base&#45;&gt;termin&#45;lighting -->
<g id="edge9" class="edge">
<title>termin&#45;base&#45;&gt;termin&#45;lighting</title>
<path fill="none" stroke="#666666" stroke-width="1.1" d="M82.35,-286.21C88.5,-291.1 94.92,-296.55 100.5,-302 128.62,-329.45 131,-340.54 157,-370 239.59,-463.6 262.77,-484.74 349,-575 360.29,-586.82 372.96,-599.85 383.53,-610.65"/>
<polygon fill="#666666" stroke="#666666" stroke-width="1.1" points="381.89,-612.47 388.53,-615.75 385.39,-609.04 381.89,-612.47"/>
</g>
<!-- termin&#45;pga -->
<g id="node37" class="node">
<title>termin&#45;pga</title>
<path fill="#f7f7f7" stroke="#444444" d="M254,-978C254,-978 203,-978 203,-978 197,-978 191,-972 191,-966 191,-966 191,-954 191,-954 191,-948 197,-942 203,-942 203,-942 254,-942 254,-942 260,-942 266,-948 266,-954 266,-954 266,-966 266,-966 266,-972 260,-978 254,-978"/>
<text text-anchor="middle" x="228.5" y="-957.2" font-family="DejaVu Sans" font-size="11.00">termin&#45;pga</text>
</g>
<!-- termin&#45;base&#45;&gt;termin&#45;pga -->
<g id="edge13" class="edge">
<title>termin&#45;base&#45;&gt;termin&#45;pga</title>
<path fill="none" stroke="#666666" stroke-width="1.1" d="M87.16,-286.1C92.42,-290.64 97.24,-295.97 100.5,-302 167.92,-426.85 67.95,-827.53 157,-938 163.8,-946.43 173.79,-951.7 184.12,-954.96"/>
<polygon fill="#666666" stroke="#666666" stroke-width="1.1" points="183.54,-957.34 190.94,-956.84 184.84,-952.62 183.54,-957.34"/>
</g>
<!-- termin&#45;qopt -->
<g id="node38" class="node">
<title>termin&#45;qopt</title>
<path fill="#f7f7f7" stroke="#444444" d="M256,-1046C256,-1046 201,-1046 201,-1046 195,-1046 189,-1040 189,-1034 189,-1034 189,-1022 189,-1022 189,-1016 195,-1010 201,-1010 201,-1010 256,-1010 256,-1010 262,-1010 268,-1016 268,-1022 268,-1022 268,-1034 268,-1034 268,-1040 262,-1046 256,-1046"/>
<text text-anchor="middle" x="228.5" y="-1025.2" font-family="DejaVu Sans" font-size="11.00">termin&#45;qopt</text>
</g>
<!-- termin&#45;base&#45;&gt;termin&#45;qopt -->
<g id="edge14" class="edge">
<title>termin&#45;base&#45;&gt;termin&#45;qopt</title>
<path fill="none" stroke="#666666" stroke-width="1.1" d="M87.2,-286.08C92.45,-290.63 97.27,-295.96 100.5,-302 173.33,-438.02 69.7,-866.79 157,-994 163.18,-1003.01 172.43,-1009.71 182.22,-1014.67"/>
<polygon fill="#666666" stroke="#666666" stroke-width="1.1" points="181.31,-1016.95 188.7,-1017.68 183.38,-1012.51 181.31,-1016.95"/>
</g>
<!-- termin&#45;collision -->
<g id="node4" class="node">
<title>termin&#45;collision</title>
<path fill="#f7f7f7" stroke="#444444" d="M613.5,-218C613.5,-218 538.5,-218 538.5,-218 532.5,-218 526.5,-212 526.5,-206 526.5,-206 526.5,-194 526.5,-194 526.5,-188 532.5,-182 538.5,-182 538.5,-182 613.5,-182 613.5,-182 619.5,-182 625.5,-188 625.5,-194 625.5,-194 625.5,-206 625.5,-206 625.5,-212 619.5,-218 613.5,-218"/>
<text text-anchor="middle" x="576" y="-197.2" font-family="DejaVu Sans" font-size="11.00">termin&#45;collision</text>
</g>
<!-- termin&#45;physics -->
<g id="node11" class="node">
<title>termin&#45;physics</title>
<path fill="#f7f7f7" stroke="#444444" d="M819.5,-233C819.5,-233 747.5,-233 747.5,-233 741.5,-233 735.5,-227 735.5,-221 735.5,-221 735.5,-209 735.5,-209 735.5,-203 741.5,-197 747.5,-197 747.5,-197 819.5,-197 819.5,-197 825.5,-197 831.5,-203 831.5,-209 831.5,-209 831.5,-221 831.5,-221 831.5,-227 825.5,-233 819.5,-233"/>
<text text-anchor="middle" x="783.5" y="-212.2" font-family="DejaVu Sans" font-size="11.00">termin&#45;physics</text>
</g>
<!-- termin&#45;collision&#45;&gt;termin&#45;physics -->
<g id="edge18" class="edge">
<title>termin&#45;collision&#45;&gt;termin&#45;physics</title>
<path fill="none" stroke="#666666" stroke-width="1.1" d="M625.7,-203.55C656.49,-205.8 696.32,-208.71 728.14,-211.03"/>
<polygon fill="#666666" stroke="#666666" stroke-width="1.1" points="728.05,-213.48 735.21,-211.55 728.41,-208.6 728.05,-213.48"/>
</g>
<!-- termin&#45;components&#45;collision -->
<g id="node17" class="node">
<title>termin&#45;components&#45;collision</title>
<path fill="#f7f7f7" stroke="#444444" d="M1101,-515C1101,-515 955,-515 955,-515 949,-515 943,-509 943,-503 943,-503 943,-491 943,-491 943,-485 949,-479 955,-479 955,-479 1101,-479 1101,-479 1107,-479 1113,-485 1113,-491 1113,-491 1113,-503 1113,-503 1113,-509 1107,-515 1101,-515"/>
<text text-anchor="middle" x="1028" y="-494.2" font-family="DejaVu Sans" font-size="11.00">termin&#45;components&#45;collision</text>
</g>
<!-- termin&#45;collision&#45;&gt;termin&#45;components&#45;collision -->
<g id="edge16" class="edge">
<title>termin&#45;collision&#45;&gt;termin&#45;components&#45;collision</title>
<path fill="none" stroke="#666666" stroke-width="1.1" d="M609.01,-218.11C615.99,-222.81 623.06,-228.19 629,-234 661,-265.28 650.49,-289.77 686,-317 755.94,-370.63 798.97,-335.17 873,-383 908.12,-405.69 904.53,-425.95 938,-451 950.33,-460.23 964.77,-468.57 978.39,-475.54"/>
<polygon fill="#666666" stroke="#666666" stroke-width="1.1" points="977.64,-477.91 985,-478.85 979.84,-473.53 977.64,-477.91"/>
</g>
<!-- termin&#45;android -->
<g id="node33" class="node">
<title>termin&#45;android</title>
<path fill="#f7f7f7" stroke="#444444" d="M1499.5,-594C1499.5,-594 1427.5,-594 1427.5,-594 1421.5,-594 1415.5,-588 1415.5,-582 1415.5,-582 1415.5,-570 1415.5,-570 1415.5,-564 1421.5,-558 1427.5,-558 1427.5,-558 1499.5,-558 1499.5,-558 1505.5,-558 1511.5,-564 1511.5,-570 1511.5,-570 1511.5,-582 1511.5,-582 1511.5,-588 1505.5,-594 1499.5,-594"/>
<text text-anchor="middle" x="1463.5" y="-573.2" font-family="DejaVu Sans" font-size="11.00">termin&#45;android</text>
</g>
<!-- termin&#45;collision&#45;&gt;termin&#45;android -->
<g id="edge15" class="edge">
<title>termin&#45;collision&#45;&gt;termin&#45;android</title>
<path fill="none" stroke="#666666" stroke-width="1.1" d="M595.08,-181.77C615.24,-162.87 649.79,-134.5 686,-123 970.66,-32.6 1124.28,62.94 1358,-123 1426.35,-177.38 1453.82,-463.62 1460.68,-550.79"/>
<polygon fill="#666666" stroke="#666666" stroke-width="1.1" points="1458.25,-551.1 1461.23,-557.89 1463.13,-550.72 1458.25,-551.1"/>
</g>
<!-- termin&#45;openxr -->
<g id="node36" class="node">
<title>termin&#45;openxr</title>
<path fill="#f7f7f7" stroke="#444444" d="M1498,-662C1498,-662 1429,-662 1429,-662 1423,-662 1417,-656 1417,-650 1417,-650 1417,-638 1417,-638 1417,-632 1423,-626 1429,-626 1429,-626 1498,-626 1498,-626 1504,-626 1510,-632 1510,-638 1510,-638 1510,-650 1510,-650 1510,-656 1504,-662 1498,-662"/>
<text text-anchor="middle" x="1463.5" y="-641.2" font-family="DejaVu Sans" font-size="11.00">termin&#45;openxr</text>
</g>
<!-- termin&#45;collision&#45;&gt;termin&#45;openxr -->
<g id="edge17" class="edge">
<title>termin&#45;collision&#45;&gt;termin&#45;openxr</title>
<path fill="none" stroke="#666666" stroke-width="1.1" d="M625.61,-189.71C684.6,-178.87 786.87,-165.36 873,-181 1102.75,-222.71 1208.73,-203.44 1358,-383 1424.5,-462.99 1356.46,-524.02 1415,-610 1417.76,-614.06 1421.17,-617.79 1424.9,-621.19"/>
<polygon fill="#666666" stroke="#666666" stroke-width="1.1" points="1423.59,-623.29 1430.53,-625.91 1426.74,-619.53 1423.59,-623.29"/>
</g>
<!-- termin&#45;csg -->
<g id="node5" class="node">
<title>termin&#45;csg</title>
<path fill="#f7f7f7" stroke="#444444" d="M81,-354C81,-354 32,-354 32,-354 26,-354 20,-348 20,-342 20,-342 20,-330 20,-330 20,-324 26,-318 32,-318 32,-318 81,-318 81,-318 87,-318 93,-324 93,-330 93,-330 93,-342 93,-342 93,-348 87,-354 81,-354"/>
<text text-anchor="middle" x="56.5" y="-333.2" font-family="DejaVu Sans" font-size="11.00">termin&#45;csg</text>
</g>
<!-- termin&#45;csg&#45;&gt;termin&#45;app -->
<g id="edge28" class="edge">
<title>termin&#45;csg&#45;&gt;termin&#45;app</title>
<path fill="none" stroke="#666666" stroke-width="1.1" d="M58.18,-354.3C62.2,-454.35 85.02,-935.36 157,-1062 227.09,-1185.31 264.66,-1261 406.5,-1261 406.5,-1261 406.5,-1261 1029,-1261 1180.95,-1261 1243.31,-1267.68 1358,-1168 1423.7,-1110.9 1449.79,-1004.66 1458.61,-956.23"/>
<polygon fill="#666666" stroke="#666666" stroke-width="1.1" points="1461.04,-956.56 1459.83,-949.24 1456.21,-955.71 1461.04,-956.56"/>
</g>
<!-- termin&#45;input -->
<g id="node6" class="node">
<title>termin&#45;input</title>
<path fill="#f7f7f7" stroke="#444444" d="M605,-354C605,-354 547,-354 547,-354 541,-354 535,-348 535,-342 535,-342 535,-330 535,-330 535,-324 541,-318 547,-318 547,-318 605,-318 605,-318 611,-318 617,-324 617,-330 617,-330 617,-342 617,-342 617,-348 611,-354 605,-354"/>
<text text-anchor="middle" x="576" y="-333.2" font-family="DejaVu Sans" font-size="11.00">termin&#45;input</text>
</g>
<!-- termin&#45;display -->
<g id="node25" class="node">
<title>termin&#45;display</title>
<path fill="#f7f7f7" stroke="#444444" d="M818,-660C818,-660 749,-660 749,-660 743,-660 737,-654 737,-648 737,-648 737,-636 737,-636 737,-630 743,-624 749,-624 749,-624 818,-624 818,-624 824,-624 830,-630 830,-636 830,-636 830,-648 830,-648 830,-654 824,-660 818,-660"/>
<text text-anchor="middle" x="783.5" y="-639.2" font-family="DejaVu Sans" font-size="11.00">termin&#45;display</text>
</g>
<!-- termin&#45;input&#45;&gt;termin&#45;display -->
<g id="edge41" class="edge">
<title>termin&#45;input&#45;&gt;termin&#45;display</title>
<path fill="none" stroke="#666666" stroke-width="1.1" d="M579.1,-354.07C585.63,-402.27 609.98,-535.13 686,-608 698.12,-619.62 714.44,-627.29 730.21,-632.35"/>
<polygon fill="#666666" stroke="#666666" stroke-width="1.1" points="729.51,-634.7 736.92,-634.36 730.92,-630 729.51,-634.7"/>
</g>
<!-- termin&#45;scene -->
<g id="node12" class="node">
<title>termin&#45;scene</title>
<path fill="#f7f7f7" stroke="#444444" d="M439,-354C439,-354 376,-354 376,-354 370,-354 364,-348 364,-342 364,-342 364,-330 364,-330 364,-324 370,-318 376,-318 376,-318 439,-318 439,-318 445,-318 451,-324 451,-330 451,-330 451,-342 451,-342 451,-348 445,-354 439,-354"/>
<text text-anchor="middle" x="407.5" y="-333.2" font-family="DejaVu Sans" font-size="11.00">termin&#45;scene</text>
</g>
<!-- termin&#45;inspect&#45;&gt;termin&#45;scene -->
<g id="edge42" class="edge">
<title>termin&#45;inspect&#45;&gt;termin&#45;scene</title>
<path fill="none" stroke="#666666" stroke-width="1.1" d="M275.85,-149.72C284.43,-154.24 292.91,-159.65 300,-166 346.7,-207.82 380.38,-274.87 396.26,-311"/>
<polygon fill="#666666" stroke="#666666" stroke-width="1.1" points="394.17,-312.35 399.2,-317.8 398.67,-310.4 394.17,-312.35"/>
</g>
<!-- termin&#45;components&#45;mesh -->
<g id="node19" class="node">
<title>termin&#45;components&#45;mesh</title>
<path fill="#f7f7f7" stroke="#444444" d="M849.5,-571C849.5,-571 717.5,-571 717.5,-571 711.5,-571 705.5,-565 705.5,-559 705.5,-559 705.5,-547 705.5,-547 705.5,-541 711.5,-535 717.5,-535 717.5,-535 849.5,-535 849.5,-535 855.5,-535 861.5,-541 861.5,-547 861.5,-547 861.5,-559 861.5,-559 861.5,-565 855.5,-571 849.5,-571"/>
<text text-anchor="middle" x="783.5" y="-550.2" font-family="DejaVu Sans" font-size="11.00">termin&#45;components&#45;mesh</text>
</g>
<!-- termin&#45;mesh&#45;&gt;termin&#45;components&#45;mesh -->
<g id="edge44" class="edge">
<title>termin&#45;mesh&#45;&gt;termin&#45;components&#45;mesh</title>
<path fill="none" stroke="#666666" stroke-width="1.1" d="M270.76,-213.41C281.41,-218.48 292.08,-225.22 300,-234 343.02,-281.72 309.39,-319.41 349,-370 406.3,-443.18 438.15,-448.07 523,-486 579.1,-511.08 646.38,-528.11 698.38,-538.73"/>
<polygon fill="#666666" stroke="#666666" stroke-width="1.1" points="697.94,-541.14 705.29,-540.12 698.91,-536.34 697.94,-541.14"/>
</g>
<!-- termin&#45;graphics -->
<g id="node26" class="node">
<title>termin&#45;graphics</title>
<path fill="#f7f7f7" stroke="#444444" d="M446,-720C446,-720 369,-720 369,-720 363,-720 357,-714 357,-708 357,-708 357,-696 357,-696 357,-690 363,-684 369,-684 369,-684 446,-684 446,-684 452,-684 458,-690 458,-696 458,-696 458,-708 458,-708 458,-714 452,-720 446,-720"/>
<text text-anchor="middle" x="407.5" y="-699.2" font-family="DejaVu Sans" font-size="11.00">termin&#45;graphics</text>
</g>
<!-- termin&#45;mesh&#45;&gt;termin&#45;graphics -->
<g id="edge45" class="edge">
<title>termin&#45;mesh&#45;&gt;termin&#45;graphics</title>
<path fill="none" stroke="#666666" stroke-width="1.1" d="M270.69,-211.6C281.87,-216.7 292.85,-223.91 300,-234 412.3,-392.33 243.5,-505.06 349,-668 351.77,-672.28 355.29,-676.1 359.22,-679.48"/>
<polygon fill="#666666" stroke="#666666" stroke-width="1.1" points="357.76,-681.45 364.79,-683.83 360.78,-677.59 357.76,-681.45"/>
</g>
<!-- termin&#45;modules&#45;&gt;termin&#45;app -->
<g id="edge46" class="edge">
<title>termin&#45;modules&#45;&gt;termin&#45;app</title>
<path fill="none" stroke="#666666" stroke-width="1.1" d="M240.49,-354.3C256.53,-381.96 285.96,-436.55 300,-487 327.57,-586.04 274.31,-876.37 349,-947 483.83,-1074.5 997.49,-984.33 1183,-989 1260.75,-990.96 1282.7,-1008.49 1358,-989 1384.94,-982.02 1412.34,-966.44 1432.32,-953.18"/>
<polygon fill="#666666" stroke="#666666" stroke-width="1.1" points="1433.85,-955.1 1438.27,-949.15 1431.1,-951.04 1433.85,-955.1"/>
</g>
<!-- termin&#45;navmesh&#45;&gt;termin&#45;app -->
<g id="edge48" class="edge">
<title>termin&#45;navmesh&#45;&gt;termin&#45;app</title>
<path fill="none" stroke="#666666" stroke-width="1.1" d="M281.23,-285.12C288.5,-289.57 295.14,-295.12 300,-302 417.24,-468.2 218.93,-600.63 349,-757 488.52,-924.73 1229.95,-932.27 1418.74,-931.43"/>
<polygon fill="#666666" stroke="#666666" stroke-width="1.1" points="1418.75,-933.88 1425.74,-931.4 1418.73,-928.98 1418.75,-933.88"/>
</g>
<!-- termin&#45;components&#45;physics -->
<g id="node20" class="node">
<title>termin&#45;components&#45;physics</title>
<path fill="#f7f7f7" stroke="#444444" d="M1338,-515C1338,-515 1195,-515 1195,-515 1189,-515 1183,-509 1183,-503 1183,-503 1183,-491 1183,-491 1183,-485 1189,-479 1195,-479 1195,-479 1338,-479 1338,-479 1344,-479 1350,-485 1350,-491 1350,-491 1350,-503 1350,-503 1350,-509 1344,-515 1338,-515"/>
<text text-anchor="middle" x="1266.5" y="-494.2" font-family="DejaVu Sans" font-size="11.00">termin&#45;components&#45;physics</text>
</g>
<!-- termin&#45;physics&#45;&gt;termin&#45;components&#45;physics -->
<g id="edge50" class="edge">
<title>termin&#45;physics&#45;&gt;termin&#45;components&#45;physics</title>
<path fill="none" stroke="#666666" stroke-width="1.1" d="M831.84,-231.85C845.29,-236.99 859.86,-242.91 873,-249 985.62,-301.15 1014.13,-315.06 1118,-383 1162.18,-411.9 1209.95,-450.26 1238.79,-474.28"/>
<polygon fill="#666666" stroke="#666666" stroke-width="1.1" points="1237.36,-476.28 1244.3,-478.89 1240.5,-472.52 1237.36,-476.28"/>
</g>
<!-- termin&#45;scene&#45;&gt;termin&#45;collision -->
<g id="edge56" class="edge">
<title>termin&#45;scene&#45;&gt;termin&#45;collision</title>
<path fill="none" stroke="#666666" stroke-width="1.1" d="M427.2,-317.77C449.27,-296.62 487.49,-261.19 523,-234 528.22,-230 533.9,-225.98 539.53,-222.18"/>
<polygon fill="#666666" stroke="#666666" stroke-width="1.1" points="541.12,-224.06 545.59,-218.14 538.41,-219.98 541.12,-224.06"/>
</g>
<!-- termin&#45;scene&#45;&gt;termin&#45;input -->
<g id="edge59" class="edge">
<title>termin&#45;scene&#45;&gt;termin&#45;input</title>
<path fill="none" stroke="#666666" stroke-width="1.1" d="M451.38,-336C474.69,-336 503.58,-336 527.57,-336"/>
<polygon fill="#666666" stroke="#666666" stroke-width="1.1" points="527.84,-338.45 534.84,-336 527.84,-333.55 527.84,-338.45"/>
</g>
<!-- termin&#45;skeleton -->
<g id="node13" class="node">
<title>termin&#45;skeleton</title>
<path fill="#f7f7f7" stroke="#444444" d="M614.5,-286C614.5,-286 537.5,-286 537.5,-286 531.5,-286 525.5,-280 525.5,-274 525.5,-274 525.5,-262 525.5,-262 525.5,-256 531.5,-250 537.5,-250 537.5,-250 614.5,-250 614.5,-250 620.5,-250 626.5,-256 626.5,-262 626.5,-262 626.5,-274 626.5,-274 626.5,-280 620.5,-286 614.5,-286"/>
<text text-anchor="middle" x="576" y="-265.2" font-family="DejaVu Sans" font-size="11.00">termin&#45;skeleton</text>
</g>
<!-- termin&#45;scene&#45;&gt;termin&#45;skeleton -->
<g id="edge61" class="edge">
<title>termin&#45;scene&#45;&gt;termin&#45;skeleton</title>
<path fill="none" stroke="#666666" stroke-width="1.1" d="M451.38,-318.49C473.57,-309.43 500.8,-298.3 524.05,-288.81"/>
<polygon fill="#666666" stroke="#666666" stroke-width="1.1" points="525.26,-290.96 530.82,-286.04 523.41,-286.42 525.26,-290.96"/>
</g>
<!-- termin&#45;components&#45;kinematic -->
<g id="node18" class="node">
<title>termin&#45;components&#45;kinematic</title>
<path fill="#f7f7f7" stroke="#444444" d="M861,-503C861,-503 706,-503 706,-503 700,-503 694,-497 694,-491 694,-491 694,-479 694,-479 694,-473 700,-467 706,-467 706,-467 861,-467 861,-467 867,-467 873,-473 873,-479 873,-479 873,-491 873,-491 873,-497 867,-503 861,-503"/>
<text text-anchor="middle" x="783.5" y="-482.2" font-family="DejaVu Sans" font-size="11.00">termin&#45;components&#45;kinematic</text>
</g>
<!-- termin&#45;scene&#45;&gt;termin&#45;components&#45;kinematic -->
<g id="edge57" class="edge">
<title>termin&#45;scene&#45;&gt;termin&#45;components&#45;kinematic</title>
<path fill="none" stroke="#666666" stroke-width="1.1" d="M450.06,-354.05C504.08,-377.32 601.51,-418.63 686,-451 697.9,-455.56 710.7,-460.23 722.97,-464.59"/>
<polygon fill="#666666" stroke="#666666" stroke-width="1.1" points="722.31,-466.96 729.72,-466.99 723.94,-462.34 722.31,-466.96"/>
</g>
<!-- termin&#45;scene&#45;&gt;termin&#45;components&#45;mesh -->
<g id="edge58" class="edge">
<title>termin&#45;scene&#45;&gt;termin&#45;components&#45;mesh</title>
<path fill="none" stroke="#666666" stroke-width="1.1" d="M427.83,-354.07C449.87,-374.19 487.46,-407.01 523,-431 591.23,-477.06 610.72,-485.66 686,-519 696.79,-523.78 708.49,-528.37 719.88,-532.55"/>
<polygon fill="#666666" stroke="#666666" stroke-width="1.1" points="719.14,-534.88 726.55,-534.95 720.8,-530.27 719.14,-534.88"/>
</g>
<!-- termin&#45;render -->
<g id="node28" class="node">
<title>termin&#45;render</title>
<path fill="#f7f7f7" stroke="#444444" d="M609,-660C609,-660 543,-660 543,-660 537,-660 531,-654 531,-648 531,-648 531,-636 531,-636 531,-630 537,-624 543,-624 543,-624 609,-624 609,-624 615,-624 621,-630 621,-636 621,-636 621,-648 621,-648 621,-654 615,-660 609,-660"/>
<text text-anchor="middle" x="576" y="-639.2" font-family="DejaVu Sans" font-size="11.00">termin&#45;render</text>
</g>
<!-- termin&#45;scene&#45;&gt;termin&#45;render -->
<g id="edge60" class="edge">
<title>termin&#45;scene&#45;&gt;termin&#45;render</title>
<path fill="none" stroke="#666666" stroke-width="1.1" d="M418.42,-354.23C446.93,-406.63 529.17,-557.77 561.61,-617.4"/>
<polygon fill="#666666" stroke="#666666" stroke-width="1.1" points="559.64,-618.89 565.14,-623.87 563.94,-616.55 559.64,-618.89"/>
</g>
<!-- termin&#45;skeleton&#45;&gt;termin&#45;animation -->
<g id="edge62" class="edge">
<title>termin&#45;skeleton&#45;&gt;termin&#45;animation</title>
<path fill="none" stroke="#666666" stroke-width="1.1" d="M626.75,-271.63C655.34,-273.72 691.47,-276.36 721.73,-278.56"/>
<polygon fill="#666666" stroke="#666666" stroke-width="1.1" points="721.73,-281.02 728.89,-279.09 722.09,-276.13 721.73,-281.02"/>
</g>
<!-- termin&#45;components&#45;skeleton -->
<g id="node21" class="node">
<title>termin&#45;components&#45;skeleton</title>
<path fill="#f7f7f7" stroke="#444444" d="M857.5,-435C857.5,-435 709.5,-435 709.5,-435 703.5,-435 697.5,-429 697.5,-423 697.5,-423 697.5,-411 697.5,-411 697.5,-405 703.5,-399 709.5,-399 709.5,-399 857.5,-399 857.5,-399 863.5,-399 869.5,-405 869.5,-411 869.5,-411 869.5,-423 869.5,-423 869.5,-429 863.5,-435 857.5,-435"/>
<text text-anchor="middle" x="783.5" y="-414.2" font-family="DejaVu Sans" font-size="11.00">termin&#45;components&#45;skeleton</text>
</g>
<!-- termin&#45;skeleton&#45;&gt;termin&#45;components&#45;skeleton -->
<g id="edge63" class="edge">
<title>termin&#45;skeleton&#45;&gt;termin&#45;components&#45;skeleton</title>
<path fill="none" stroke="#666666" stroke-width="1.1" d="M609.42,-286.15C616.3,-290.81 623.23,-296.18 629,-302 662.06,-335.37 648.11,-363.24 686,-391 688.16,-392.58 690.4,-394.06 692.72,-395.46"/>
<polygon fill="#666666" stroke="#666666" stroke-width="1.1" points="691.7,-397.69 699.01,-398.94 694.07,-393.4 691.7,-397.69"/>
</g>
<!-- termin -->
<g id="node14" class="node">
<title>termin</title>
<path fill="#f7f7f7" stroke="#444444" d="M71.5,-52C71.5,-52 41.5,-52 41.5,-52 35.5,-52 29.5,-46 29.5,-40 29.5,-40 29.5,-28 29.5,-28 29.5,-22 35.5,-16 41.5,-16 41.5,-16 71.5,-16 71.5,-16 77.5,-16 83.5,-22 83.5,-28 83.5,-28 83.5,-40 83.5,-40 83.5,-46 77.5,-52 71.5,-52"/>
<text text-anchor="middle" x="56.5" y="-31.2" font-family="DejaVu Sans" font-size="11.00">termin</text>
</g>
<!-- termin&#45;&gt;termin&#45;app -->
<g id="edge2" class="edge">
<title>termin&#45;&gt;termin&#45;app</title>
<path fill="none" stroke="#666666" stroke-width="1.1" d="M83.74,-31.72C141.85,-26.88 285.77,-16 406.5,-16 406.5,-16 406.5,-16 784.5,-16 1087.11,-16 1193.42,-129.05 1358,-383 1451.12,-526.68 1378.84,-596.64 1415,-764 1426.01,-814.95 1443.82,-873.26 1454.22,-905.75"/>
<polygon fill="#666666" stroke="#666666" stroke-width="1.1" points="1451.97,-906.75 1456.44,-912.66 1456.63,-905.25 1451.97,-906.75"/>
</g>
<!-- termin&#45;&gt;termin&#45;navmesh -->
<g id="edge3" class="edge">
<title>termin&#45;&gt;termin&#45;navmesh</title>
<path fill="none" stroke="#666666" stroke-width="1.1" d="M71.11,-52.16C80.12,-64.65 91.83,-81.84 100.5,-98 131.46,-155.67 112.02,-186.45 157,-234 161.39,-238.64 166.54,-242.72 172.03,-246.29"/>
<polygon fill="#666666" stroke="#666666" stroke-width="1.1" points="170.84,-248.44 178.1,-249.97 173.38,-244.25 170.84,-248.44"/>
</g>
<!-- termin&#45;components&#45;animation&#45;&gt;termin&#45;app -->
<g id="edge19" class="edge">
<title>termin&#45;components&#45;animation&#45;&gt;termin&#45;app</title>
<path fill="none" stroke="#666666" stroke-width="1.1" d="M1082.04,-435.03C1095.49,-441.89 1108.74,-451.03 1118,-463 1197.78,-566.09 1108.48,-642.05 1183,-749 1199.17,-772.2 1353.42,-865.98 1425.6,-909.1"/>
<polygon fill="#666666" stroke="#666666" stroke-width="1.1" points="1424.63,-911.38 1431.9,-912.87 1427.15,-907.18 1424.63,-911.38"/>
</g>
<!-- termin&#45;components&#45;collision&#45;&gt;termin&#45;components&#45;physics -->
<g id="edge20" class="edge">
<title>termin&#45;components&#45;collision&#45;&gt;termin&#45;components&#45;physics</title>
<path fill="none" stroke="#666666" stroke-width="1.1" d="M1113.05,-497C1133.36,-497 1155.14,-497 1175.7,-497"/>
<polygon fill="#666666" stroke="#666666" stroke-width="1.1" points="1175.92,-499.45 1182.92,-497 1175.92,-494.55 1175.92,-499.45"/>
</g>
<!-- termin&#45;components&#45;kinematic&#45;&gt;termin&#45;app -->
<g id="edge21" class="edge">
<title>termin&#45;components&#45;kinematic&#45;&gt;termin&#45;app</title>
<path fill="none" stroke="#666666" stroke-width="1.1" d="M841.24,-503.05C933.83,-532.72 1108.15,-589.56 1118,-600 1191.46,-677.91 1109.87,-753.78 1183,-832 1245.84,-899.21 1357.17,-920.83 1418.66,-927.76"/>
<polygon fill="#666666" stroke="#666666" stroke-width="1.1" points="1418.68,-930.22 1425.9,-928.53 1419.2,-925.35 1418.68,-930.22"/>
</g>
<!-- termin&#45;components&#45;mesh&#45;&gt;termin&#45;components&#45;collision -->
<g id="edge22" class="edge">
<title>termin&#45;components&#45;mesh&#45;&gt;termin&#45;components&#45;collision</title>
<path fill="none" stroke="#666666" stroke-width="1.1" d="M861.56,-535.2C887.15,-529.3 915.78,-522.68 941.94,-516.64"/>
<polygon fill="#666666" stroke="#666666" stroke-width="1.1" points="942.62,-519 948.89,-515.04 941.52,-514.23 942.62,-519"/>
</g>
<!-- termin&#45;components&#45;render -->
<g id="node24" class="node">
<title>termin&#45;components&#45;render</title>
<path fill="#f7f7f7" stroke="#444444" d="M1097,-660C1097,-660 959,-660 959,-660 953,-660 947,-654 947,-648 947,-648 947,-636 947,-636 947,-630 953,-624 959,-624 959,-624 1097,-624 1097,-624 1103,-624 1109,-630 1109,-636 1109,-636 1109,-648 1109,-648 1109,-654 1103,-660 1097,-660"/>
<text text-anchor="middle" x="1028" y="-639.2" font-family="DejaVu Sans" font-size="11.00">termin&#45;components&#45;render</text>
</g>
<!-- termin&#45;components&#45;mesh&#45;&gt;termin&#45;components&#45;render -->
<g id="edge23" class="edge">
<title>termin&#45;components&#45;mesh&#45;&gt;termin&#45;components&#45;render</title>
<path fill="none" stroke="#666666" stroke-width="1.1" d="M833.57,-571.01C873.3,-585.59 929.27,-606.13 970.79,-621.37"/>
<polygon fill="#666666" stroke="#666666" stroke-width="1.1" points="970.17,-623.75 977.58,-623.86 971.86,-619.15 970.17,-623.75"/>
</g>
<!-- termin&#45;components&#45;physics&#45;&gt;termin&#45;app -->
<g id="edge24" class="edge">
<title>termin&#45;components&#45;physics&#45;&gt;termin&#45;app</title>
<path fill="none" stroke="#666666" stroke-width="1.1" d="M1289.91,-515.13C1310.36,-532.77 1340.03,-561.34 1358,-592 1374.41,-620 1434.63,-831.67 1455.4,-905.61"/>
<polygon fill="#666666" stroke="#666666" stroke-width="1.1" points="1453.15,-906.65 1457.4,-912.72 1457.87,-905.32 1453.15,-906.65"/>
</g>
<!-- termin&#45;components&#45;skeleton&#45;&gt;termin&#45;components&#45;animation -->
<g id="edge27" class="edge">
<title>termin&#45;components&#45;skeleton&#45;&gt;termin&#45;components&#45;animation</title>
<path fill="none" stroke="#666666" stroke-width="1.1" d="M869.66,-417C889.43,-417 910.62,-417 930.83,-417"/>
<polygon fill="#666666" stroke="#666666" stroke-width="1.1" points="930.94,-419.45 937.94,-417 930.94,-414.55 930.94,-419.45"/>
</g>
<!-- termin&#45;assets&#45;&gt;termin&#45;app -->
<g id="edge6" class="edge">
<title>termin&#45;assets&#45;&gt;termin&#45;app</title>
<path fill="none" stroke="#666666" stroke-width="1.1" d="M273.7,-905.11C283.35,-910.68 292.81,-917.61 300,-926 341.24,-974.17 309.59,-1010.32 349,-1060 421.72,-1151.66 458,-1195 575,-1195 575,-1195 575,-1195 1029,-1195 1181.07,-1195 1236.84,-1192.91 1358,-1101 1408.07,-1063.02 1439.65,-993.5 1453.81,-956.21"/>
<polygon fill="#666666" stroke="#666666" stroke-width="1.1" points="1456.27,-956.62 1456.41,-949.21 1451.67,-954.92 1456.27,-956.62"/>
</g>
<!-- termin&#45;nanobind&#45;sdk -->
<g id="node23" class="node">
<title>termin&#45;nanobind&#45;sdk</title>
<path fill="#f7f7f7" stroke="#444444" d="M280,-837C280,-837 177,-837 177,-837 171,-837 165,-831 165,-825 165,-825 165,-813 165,-813 165,-807 171,-801 177,-801 177,-801 280,-801 280,-801 286,-801 292,-807 292,-813 292,-813 292,-825 292,-825 292,-831 286,-837 280,-837"/>
<text text-anchor="middle" x="228.5" y="-816.2" font-family="DejaVu Sans" font-size="11.00">termin&#45;nanobind&#45;sdk</text>
</g>
<!-- termin&#45;nanobind&#45;sdk&#45;&gt;termin&#45;base -->
<g id="edge47" class="edge">
<title>termin&#45;nanobind&#45;sdk&#45;&gt;termin&#45;base</title>
<path fill="none" stroke="#666666" stroke-width="1.1" d="M222.66,-800.69C211.03,-756.59 180.74,-640.94 157,-544 130.73,-436.72 159.69,-395.25 100.5,-302 98.02,-298.1 94.94,-294.45 91.57,-291.11"/>
<polygon fill="#666666" stroke="#666666" stroke-width="1.1" points="92.9,-289.01 86.08,-286.1 89.6,-292.63 92.9,-289.01"/>
</g>
<!-- termin&#45;render&#45;passes -->
<g id="node39" class="node">
<title>termin&#45;render&#45;passes</title>
<path fill="#f7f7f7" stroke="#444444" d="M1320.5,-644C1320.5,-644 1212.5,-644 1212.5,-644 1206.5,-644 1200.5,-638 1200.5,-632 1200.5,-632 1200.5,-620 1200.5,-620 1200.5,-614 1206.5,-608 1212.5,-608 1212.5,-608 1320.5,-608 1320.5,-608 1326.5,-608 1332.5,-614 1332.5,-620 1332.5,-620 1332.5,-632 1332.5,-632 1332.5,-638 1326.5,-644 1320.5,-644"/>
<text text-anchor="middle" x="1266.5" y="-623.2" font-family="DejaVu Sans" font-size="11.00">termin&#45;render&#45;passes</text>
</g>
<!-- termin&#45;components&#45;render&#45;&gt;termin&#45;render&#45;passes -->
<g id="edge25" class="edge">
<title>termin&#45;components&#45;render&#45;&gt;termin&#45;render&#45;passes</title>
<path fill="none" stroke="#666666" stroke-width="1.1" d="M1109.07,-636.58C1136.38,-634.74 1166.73,-632.68 1193.38,-630.88"/>
<polygon fill="#666666" stroke="#666666" stroke-width="1.1" points="1193.61,-633.32 1200.43,-630.4 1193.28,-628.43 1193.61,-633.32"/>
</g>
<!-- termin&#45;runtime -->
<g id="node40" class="node">
<title>termin&#45;runtime</title>
<path fill="#f7f7f7" stroke="#444444" d="M1500,-748C1500,-748 1427,-748 1427,-748 1421,-748 1415,-742 1415,-736 1415,-736 1415,-724 1415,-724 1415,-718 1421,-712 1427,-712 1427,-712 1500,-712 1500,-712 1506,-712 1512,-718 1512,-724 1512,-724 1512,-736 1512,-736 1512,-742 1506,-748 1500,-748"/>
<text text-anchor="middle" x="1463.5" y="-727.2" font-family="DejaVu Sans" font-size="11.00">termin&#45;runtime</text>
</g>
<!-- termin&#45;components&#45;render&#45;&gt;termin&#45;runtime -->
<g id="edge26" class="edge">
<title>termin&#45;components&#45;render&#45;&gt;termin&#45;runtime</title>
<path fill="none" stroke="#666666" stroke-width="1.1" d="M1047.92,-660.23C1075.16,-685.07 1128.22,-728.37 1183,-745 1258.36,-767.88 1350.32,-755.78 1407.66,-743.82"/>
<polygon fill="#666666" stroke="#666666" stroke-width="1.1" points="1408.49,-746.14 1414.83,-742.29 1407.47,-741.35 1408.49,-746.14"/>
</g>
<!-- termin&#45;display&#45;&gt;termin&#45;components&#45;render -->
<g id="edge29" class="edge">
<title>termin&#45;display&#45;&gt;termin&#45;components&#45;render</title>
<path fill="none" stroke="#666666" stroke-width="1.1" d="M830.11,-642C860.85,-642 902.4,-642 939.4,-642"/>
<polygon fill="#666666" stroke="#666666" stroke-width="1.1" points="939.73,-644.45 946.73,-642 939.73,-639.55 939.73,-644.45"/>
</g>
<!-- termin&#45;engine -->
<g id="node29" class="node">
<title>termin&#45;engine</title>
<path fill="#f7f7f7" stroke="#444444" d="M1300,-712C1300,-712 1233,-712 1233,-712 1227,-712 1221,-706 1221,-700 1221,-700 1221,-688 1221,-688 1221,-682 1227,-676 1233,-676 1233,-676 1300,-676 1300,-676 1306,-676 1312,-682 1312,-688 1312,-688 1312,-700 1312,-700 1312,-706 1306,-712 1300,-712"/>
<text text-anchor="middle" x="1266.5" y="-691.2" font-family="DejaVu Sans" font-size="11.00">termin&#45;engine</text>
</g>
<!-- termin&#45;display&#45;&gt;termin&#45;engine -->
<g id="edge30" class="edge">
<title>termin&#45;display&#45;&gt;termin&#45;engine</title>
<path fill="none" stroke="#666666" stroke-width="1.1" d="M830.16,-654.16C860.5,-661.74 901.36,-670.97 938,-676 1034.69,-689.28 1148.71,-692.84 1213.51,-693.75"/>
<polygon fill="#666666" stroke="#666666" stroke-width="1.1" points="1213.75,-696.2 1220.78,-693.84 1213.82,-691.3 1213.75,-696.2"/>
</g>
<!-- termin&#45;graphics&#45;&gt;termin&#45;render -->
<g id="edge37" class="edge">
<title>termin&#45;graphics&#45;&gt;termin&#45;render</title>
<path fill="none" stroke="#666666" stroke-width="1.1" d="M458,-684.16C478.85,-676.65 503.09,-667.91 524.09,-660.35"/>
<polygon fill="#666666" stroke="#666666" stroke-width="1.1" points="525.03,-662.61 530.78,-657.93 523.37,-658 525.03,-662.61"/>
</g>
<!-- termin&#45;gui -->
<g id="node31" class="node">
<title>termin&#45;gui</title>
<path fill="#f7f7f7" stroke="#444444" d="M599.5,-1073C599.5,-1073 552.5,-1073 552.5,-1073 546.5,-1073 540.5,-1067 540.5,-1061 540.5,-1061 540.5,-1049 540.5,-1049 540.5,-1043 546.5,-1037 552.5,-1037 552.5,-1037 599.5,-1037 599.5,-1037 605.5,-1037 611.5,-1043 611.5,-1049 611.5,-1049 611.5,-1061 611.5,-1061 611.5,-1067 605.5,-1073 599.5,-1073"/>
<text text-anchor="middle" x="576" y="-1052.2" font-family="DejaVu Sans" font-size="11.00">termin&#45;gui</text>
</g>
<!-- termin&#45;graphics&#45;&gt;termin&#45;gui -->
<g id="edge35" class="edge">
<title>termin&#45;graphics&#45;&gt;termin&#45;gui</title>
<path fill="none" stroke="#666666" stroke-width="1.1" d="M417.22,-720.48C445.03,-779.46 531.7,-963.2 563.31,-1030.22"/>
<polygon fill="#666666" stroke="#666666" stroke-width="1.1" points="561.17,-1031.42 566.37,-1036.7 565.6,-1029.32 561.17,-1031.42"/>
</g>
<!-- termin&#45;materials -->
<g id="node35" class="node">
<title>termin&#45;materials</title>
<path fill="#f7f7f7" stroke="#444444" d="M617,-793C617,-793 535,-793 535,-793 529,-793 523,-787 523,-781 523,-781 523,-769 523,-769 523,-763 529,-757 535,-757 535,-757 617,-757 617,-757 623,-757 629,-763 629,-769 629,-769 629,-781 629,-781 629,-787 623,-793 617,-793"/>
<text text-anchor="middle" x="576" y="-772.2" font-family="DejaVu Sans" font-size="11.00">termin&#45;materials</text>
</g>
<!-- termin&#45;graphics&#45;&gt;termin&#45;materials -->
<g id="edge36" class="edge">
<title>termin&#45;graphics&#45;&gt;termin&#45;materials</title>
<path fill="none" stroke="#666666" stroke-width="1.1" d="M448.43,-720C470.39,-729.85 498.15,-742.21 523,-753 523.83,-753.36 524.68,-753.73 525.53,-754.09"/>
<polygon fill="#666666" stroke="#666666" stroke-width="1.1" points="524.73,-756.42 532.12,-756.94 526.66,-751.92 524.73,-756.42"/>
</g>
<!-- termin&#45;lighting&#45;&gt;termin&#45;render -->
<g id="edge43" class="edge">
<title>termin&#45;lighting&#45;&gt;termin&#45;render</title>
<path fill="none" stroke="#666666" stroke-width="1.1" d="M455.32,-636.25C476.58,-637.27 501.79,-638.48 523.57,-639.53"/>
<polygon fill="#666666" stroke="#666666" stroke-width="1.1" points="523.71,-641.99 530.82,-639.88 523.94,-637.09 523.71,-641.99"/>
</g>
<!-- termin&#45;render&#45;&gt;termin&#45;display -->
<g id="edge52" class="edge">
<title>termin&#45;render&#45;&gt;termin&#45;display</title>
<path fill="none" stroke="#666666" stroke-width="1.1" d="M621.08,-642C652.9,-642 696.01,-642 729.68,-642"/>
<polygon fill="#666666" stroke="#666666" stroke-width="1.1" points="729.71,-644.45 736.71,-642 729.71,-639.55 729.71,-644.45"/>
</g>
<!-- termin&#45;components&#45;foliage -->
<g id="node34" class="node">
<title>termin&#45;components&#45;foliage</title>
<path fill="#f7f7f7" stroke="#444444" d="M852.5,-793C852.5,-793 714.5,-793 714.5,-793 708.5,-793 702.5,-787 702.5,-781 702.5,-781 702.5,-769 702.5,-769 702.5,-763 708.5,-757 714.5,-757 714.5,-757 852.5,-757 852.5,-757 858.5,-757 864.5,-763 864.5,-769 864.5,-769 864.5,-781 864.5,-781 864.5,-787 858.5,-793 852.5,-793"/>
<text text-anchor="middle" x="783.5" y="-772.2" font-family="DejaVu Sans" font-size="11.00">termin&#45;components&#45;foliage</text>
</g>
<!-- termin&#45;render&#45;&gt;termin&#45;components&#45;foliage -->
<g id="edge51" class="edge">
<title>termin&#45;render&#45;&gt;termin&#45;components&#45;foliage</title>
<path fill="none" stroke="#666666" stroke-width="1.1" d="M589.5,-660.11C607.73,-685.05 644.03,-729.56 686,-753 689.11,-754.74 692.35,-756.33 695.67,-757.81"/>
<polygon fill="#666666" stroke="#666666" stroke-width="1.1" points="694.76,-760.08 702.16,-760.49 696.63,-755.55 694.76,-760.08"/>
</g>
<!-- termin&#45;engine&#45;&gt;termin&#45;app -->
<g id="edge32" class="edge">
<title>termin&#45;engine&#45;&gt;termin&#45;app</title>
<path fill="none" stroke="#666666" stroke-width="1.1" d="M1282.48,-712.2C1317.36,-754.6 1403.99,-859.89 1442.96,-907.25"/>
<polygon fill="#666666" stroke="#666666" stroke-width="1.1" points="1441.13,-908.89 1447.47,-912.73 1444.92,-905.77 1441.13,-908.89"/>
</g>
<!-- termin&#45;engine&#45;&gt;termin&#45;android -->
<g id="edge31" class="edge">
<title>termin&#45;engine&#45;&gt;termin&#45;android</title>
<path fill="none" stroke="#666666" stroke-width="1.1" d="M1312.24,-680.79C1327.32,-675.42 1343.89,-668.45 1358,-660 1386.91,-642.68 1388.6,-630.94 1415,-610 1419.8,-606.19 1424.97,-602.29 1430.08,-598.55"/>
<polygon fill="#666666" stroke="#666666" stroke-width="1.1" points="1431.79,-600.34 1436.02,-594.25 1428.92,-596.37 1431.79,-600.34"/>
</g>
<!-- termin&#45;engine&#45;&gt;termin&#45;openxr -->
<g id="edge33" class="edge">
<title>termin&#45;engine&#45;&gt;termin&#45;openxr</title>
<path fill="none" stroke="#666666" stroke-width="1.1" d="M1312.24,-682.53C1341.4,-675.05 1379.58,-665.26 1410.16,-657.42"/>
<polygon fill="#666666" stroke="#666666" stroke-width="1.1" points="1410.79,-659.79 1416.96,-655.68 1409.57,-655.04 1410.79,-659.79"/>
</g>
<!-- termin&#45;engine&#45;&gt;termin&#45;runtime -->
<g id="edge34" class="edge">
<title>termin&#45;engine&#45;&gt;termin&#45;runtime</title>
<path fill="none" stroke="#666666" stroke-width="1.1" d="M1312.24,-702.26C1340.66,-707.51 1377.63,-714.33 1407.79,-719.9"/>
<polygon fill="#666666" stroke="#666666" stroke-width="1.1" points="1407.58,-722.35 1414.91,-721.21 1408.47,-717.53 1407.58,-722.35"/>
</g>
<!-- tcplot -->
<g id="node30" class="node">
<title>tcplot</title>
<path fill="#f7f7f7" stroke="#444444" d="M798.5,-1141C798.5,-1141 768.5,-1141 768.5,-1141 762.5,-1141 756.5,-1135 756.5,-1129 756.5,-1129 756.5,-1117 756.5,-1117 756.5,-1111 762.5,-1105 768.5,-1105 768.5,-1105 798.5,-1105 798.5,-1105 804.5,-1105 810.5,-1111 810.5,-1117 810.5,-1117 810.5,-1129 810.5,-1129 810.5,-1135 804.5,-1141 798.5,-1141"/>
<text text-anchor="middle" x="783.5" y="-1120.2" font-family="DejaVu Sans" font-size="11.00">tcplot</text>
</g>
<!-- tcplot&#45;&gt;termin&#45;csharp -->
<g id="edge1" class="edge">
<title>tcplot&#45;&gt;termin&#45;csharp</title>
<path fill="none" stroke="#666666" stroke-width="1.1" d="M810.64,-1123.65C892.07,-1125.31 1148.23,-1127.89 1358,-1101 1432.48,-1091.45 1517,-1071.12 1569.79,-1057.25"/>
<polygon fill="#666666" stroke="#666666" stroke-width="1.1" points="1570.56,-1059.58 1576.7,-1055.43 1569.31,-1054.85 1570.56,-1059.58"/>
</g>
<!-- termin&#45;gui&#45;&gt;termin&#45;csg -->
<g id="edge39" class="edge">
<title>termin&#45;gui&#45;&gt;termin&#45;csg</title>
<path fill="none" stroke="#666666" stroke-width="1.1" d="M540.28,-1059.37C490.8,-1063.5 400.36,-1062.94 349,-1013 274.69,-940.74 335.88,-882.24 300,-785 236.58,-613.09 117.35,-425.88 73.88,-360.31"/>
<polygon fill="#666666" stroke="#666666" stroke-width="1.1" points="75.83,-358.82 69.92,-354.34 71.75,-361.53 75.83,-358.82"/>
</g>
<!-- termin&#45;gui&#45;&gt;tcplot -->
<g id="edge38" class="edge">
<title>termin&#45;gui&#45;&gt;tcplot</title>
<path fill="none" stroke="#666666" stroke-width="1.1" d="M611.86,-1066.54C650.35,-1079.27 711.83,-1099.62 749.54,-1112.09"/>
<polygon fill="#666666" stroke="#666666" stroke-width="1.1" points="748.88,-1114.45 756.29,-1114.33 750.42,-1109.8 748.88,-1114.45"/>
</g>
<!-- termin&#45;nodegraph -->
<g id="node32" class="node">
<title>termin&#45;nodegraph</title>
<path fill="#f7f7f7" stroke="#444444" d="M828,-1073C828,-1073 739,-1073 739,-1073 733,-1073 727,-1067 727,-1061 727,-1061 727,-1049 727,-1049 727,-1043 733,-1037 739,-1037 739,-1037 828,-1037 828,-1037 834,-1037 840,-1043 840,-1049 840,-1049 840,-1061 840,-1061 840,-1067 834,-1073 828,-1073"/>
<text text-anchor="middle" x="783.5" y="-1052.2" font-family="DejaVu Sans" font-size="11.00">termin&#45;nodegraph</text>
</g>
<!-- termin&#45;gui&#45;&gt;termin&#45;nodegraph -->
<g id="edge40" class="edge">
<title>termin&#45;gui&#45;&gt;termin&#45;nodegraph</title>
<path fill="none" stroke="#666666" stroke-width="1.1" d="M611.86,-1055C641.26,-1055 684.08,-1055 719.47,-1055"/>
<polygon fill="#666666" stroke="#666666" stroke-width="1.1" points="719.9,-1057.45 726.9,-1055 719.9,-1052.55 719.9,-1057.45"/>
</g>
<!-- termin&#45;nodegraph&#45;&gt;termin&#45;app -->
<g id="edge49" class="edge">
<title>termin&#45;nodegraph&#45;&gt;termin&#45;app</title>
<path fill="none" stroke="#666666" stroke-width="1.1" d="M840.36,-1069.82C946.89,-1094.99 1183.98,-1135.92 1358,-1055 1401.91,-1034.58 1433.98,-985.63 1450.31,-955.7"/>
<polygon fill="#666666" stroke="#666666" stroke-width="1.1" points="1452.61,-956.59 1453.74,-949.26 1448.29,-954.28 1452.61,-956.59"/>
</g>
<!-- termin&#45;render&#45;passes&#45;&gt;termin&#45;app -->
<g id="edge54" class="edge">
<title>termin&#45;render&#45;passes&#45;&gt;termin&#45;app</title>
<path fill="none" stroke="#666666" stroke-width="1.1" d="M1332.84,-642.8C1342.08,-647.28 1350.85,-652.91 1358,-660 1394.39,-696.08 1438.86,-845.68 1455.65,-905.81"/>
<polygon fill="#666666" stroke="#666666" stroke-width="1.1" points="1453.33,-906.59 1457.56,-912.68 1458.05,-905.28 1453.33,-906.59"/>
</g>
<!-- termin&#45;render&#45;passes&#45;&gt;termin&#45;android -->
<g id="edge53" class="edge">
<title>termin&#45;render&#45;passes&#45;&gt;termin&#45;android</title>
<path fill="none" stroke="#666666" stroke-width="1.1" d="M1332.8,-610.32C1341.28,-608.22 1349.85,-606.08 1358,-604 1374.48,-599.79 1392.38,-595.05 1408.63,-590.69"/>
<polygon fill="#666666" stroke="#666666" stroke-width="1.1" points="1409.36,-593.03 1415.48,-588.85 1408.09,-588.3 1409.36,-593.03"/>
</g>
<!-- termin&#45;render&#45;passes&#45;&gt;termin&#45;openxr -->
<g id="edge55" class="edge">
<title>termin&#45;render&#45;passes&#45;&gt;termin&#45;openxr</title>
<path fill="none" stroke="#666666" stroke-width="1.1" d="M1332.7,-632.02C1357.69,-634.33 1385.86,-636.93 1409.56,-639.11"/>
<polygon fill="#666666" stroke="#666666" stroke-width="1.1" points="1409.57,-641.57 1416.76,-639.78 1410.02,-636.7 1409.57,-641.57"/>
</g>
</g>
</svg>
