<?xml version="1.0" encoding="UTF-8" standalone="no"?>
<!DOCTYPE svg PUBLIC "-//W3C//DTD SVG 1.1//EN"
 "http://www.w3.org/Graphics/SVG/1.1/DTD/svg11.dtd">
<!-- Generated by graphviz version 2.43.0 (0)
 -->
<!-- Title: termin_dependencies Pages: 1 -->
<svg width="1428pt" height="837pt"
 viewBox="0.00 0.00 1427.80 836.91" xmlns="http://www.w3.org/2000/svg" xmlns:xlink="http://www.w3.org/1999/xlink">
<g id="graph0" class="graph" transform="scale(1 1) rotate(0) translate(14.4 822.51)">
<title>termin_dependencies</title>
<polygon fill="white" stroke="transparent" points="-14.4,14.4 -14.4,-822.51 1413.4,-822.51 1413.4,14.4 -14.4,14.4"/>
<g id="clust1" class="cluster">
<title>cluster_foundation</title>
<path fill="white" stroke="#d9d9d9" d="M20,-274C20,-274 750,-274 750,-274 756,-274 762,-280 762,-286 762,-286 762,-507 762,-507 762,-513 756,-519 750,-519 750,-519 20,-519 20,-519 14,-519 8,-513 8,-507 8,-507 8,-286 8,-286 8,-280 14,-274 20,-274"/>
<text text-anchor="middle" x="385" y="-503.8" font-family="Times,serif" font-size="14.00">Foundation</text>
</g>
<g id="clust2" class="cluster">
<title>cluster_render</title>
<path fill="white" stroke="#d9d9d9" d="M332,-578C332,-578 985.5,-578 985.5,-578 991.5,-578 997.5,-584 997.5,-590 997.5,-590 997.5,-641 997.5,-641 997.5,-647 991.5,-653 985.5,-653 985.5,-653 332,-653 332,-653 326,-653 320,-647 320,-641 320,-641 320,-590 320,-590 320,-584 326,-578 332,-578"/>
<text text-anchor="middle" x="658.75" y="-637.8" font-family="Times,serif" font-size="14.00">Render Stack</text>
</g>
<g id="clust3" class="cluster">
<title>cluster_components</title>
<path fill="white" stroke="#d9d9d9" d="M823,-8C823,-8 1239,-8 1239,-8 1245,-8 1251,-14 1251,-20 1251,-20 1251,-275 1251,-275 1251,-281 1245,-287 1239,-287 1239,-287 823,-287 823,-287 817,-287 811,-281 811,-275 811,-275 811,-20 811,-20 811,-14 817,-8 823,-8"/>
<text text-anchor="middle" x="1031" y="-271.8" font-family="Times,serif" font-size="14.00">Other Components</text>
</g>
<g id="clust4" class="cluster">
<title>cluster_runtime</title>
<path fill="white" stroke="#d9d9d9" d="M867,-495C867,-495 950,-495 950,-495 956,-495 962,-501 962,-507 962,-507 962,-558 962,-558 962,-564 956,-570 950,-570 950,-570 867,-570 867,-570 861,-570 855,-564 855,-558 855,-558 855,-507 855,-507 855,-501 861,-495 867,-495"/>
<text text-anchor="middle" x="908.5" y="-554.8" font-family="Times,serif" font-size="14.00">Runtime</text>
</g>
<g id="clust5" class="cluster">
<title>cluster_ui</title>
<path fill="white" stroke="#d9d9d9" d="M674.5,-661C674.5,-661 961,-661 961,-661 967,-661 973,-667 973,-673 973,-673 973,-724 973,-724 973,-730 967,-736 961,-736 961,-736 674.5,-736 674.5,-736 668.5,-736 662.5,-730 662.5,-724 662.5,-724 662.5,-673 662.5,-673 662.5,-667 668.5,-661 674.5,-661"/>
<text text-anchor="middle" x="817.75" y="-720.8" font-family="Times,serif" font-size="14.00">UI</text>
</g>
<g id="clust6" class="cluster">
<title>cluster_application</title>
<path fill="white" stroke="#d9d9d9" d="M1108.5,-295C1108.5,-295 1197.5,-295 1197.5,-295 1203.5,-295 1209.5,-301 1209.5,-307 1209.5,-307 1209.5,-426 1209.5,-426 1209.5,-432 1203.5,-438 1197.5,-438 1197.5,-438 1108.5,-438 1108.5,-438 1102.5,-438 1096.5,-432 1096.5,-426 1096.5,-426 1096.5,-307 1096.5,-307 1096.5,-301 1102.5,-295 1108.5,-295"/>
<text text-anchor="middle" x="1153" y="-422.8" font-family="Times,serif" font-size="14.00">Application</text>
</g>
<!-- termin&#45;base -->
<g id="node1" class="node">
<title>termin&#45;base</title>
<path fill="#f7f7f7" stroke="#444444" d="M85,-411C85,-411 28,-411 28,-411 22,-411 16,-405 16,-399 16,-399 16,-387 16,-387 16,-381 22,-375 28,-375 28,-375 85,-375 85,-375 91,-375 97,-381 97,-387 97,-387 97,-399 97,-399 97,-405 91,-411 85,-411"/>
<text text-anchor="middle" x="56.5" y="-390.2" font-family="DejaVu Sans" font-size="11.00">termin&#45;base</text>
</g>
<!-- termin&#45;mesh -->
<g id="node2" class="node">
<title>termin&#45;mesh</title>
<path fill="#f7f7f7" stroke="#444444" d="M242.5,-318C242.5,-318 182.5,-318 182.5,-318 176.5,-318 170.5,-312 170.5,-306 170.5,-306 170.5,-294 170.5,-294 170.5,-288 176.5,-282 182.5,-282 182.5,-282 242.5,-282 242.5,-282 248.5,-282 254.5,-288 254.5,-294 254.5,-294 254.5,-306 254.5,-306 254.5,-312 248.5,-318 242.5,-318"/>
<text text-anchor="middle" x="212.5" y="-297.2" font-family="DejaVu Sans" font-size="11.00">termin&#45;mesh</text>
</g>
<!-- termin&#45;base&#45;&gt;termin&#45;mesh -->
<g id="edge1" class="edge">
<title>termin&#45;base&#45;&gt;termin&#45;mesh</title>
<path fill="none" stroke="#666666" stroke-width="1.1" d="M87.56,-374.85C112.68,-359.68 148.58,-338 175.28,-321.87"/>
<polygon fill="#666666" stroke="#666666" stroke-width="1.1" points="176.79,-323.82 181.52,-318.11 174.26,-319.63 176.79,-323.82"/>
</g>
<!-- termin&#45;inspect -->
<g id="node3" class="node">
<title>termin&#45;inspect</title>
<path fill="#f7f7f7" stroke="#444444" d="M247.5,-488C247.5,-488 177.5,-488 177.5,-488 171.5,-488 165.5,-482 165.5,-476 165.5,-476 165.5,-464 165.5,-464 165.5,-458 171.5,-452 177.5,-452 177.5,-452 247.5,-452 247.5,-452 253.5,-452 259.5,-458 259.5,-464 259.5,-464 259.5,-476 259.5,-476 259.5,-482 253.5,-488 247.5,-488"/>
<text text-anchor="middle" x="212.5" y="-467.2" font-family="DejaVu Sans" font-size="11.00">termin&#45;inspect</text>
</g>
<!-- termin&#45;base&#45;&gt;termin&#45;inspect -->
<g id="edge2" class="edge">
<title>termin&#45;base&#45;&gt;termin&#45;inspect</title>
<path fill="none" stroke="#666666" stroke-width="1.1" d="M93.61,-411.05C116.12,-422.31 145.19,-436.85 168.84,-448.67"/>
<polygon fill="#666666" stroke="#666666" stroke-width="1.1" points="168,-450.99 175.35,-451.93 170.19,-446.6 168,-450.99"/>
</g>
<!-- termin&#45;modules -->
<g id="node6" class="node">
<title>termin&#45;modules</title>
<path fill="#f7f7f7" stroke="#444444" d="M251,-386C251,-386 174,-386 174,-386 168,-386 162,-380 162,-374 162,-374 162,-362 162,-362 162,-356 168,-350 174,-350 174,-350 251,-350 251,-350 257,-350 263,-356 263,-362 263,-362 263,-374 263,-374 263,-380 257,-386 251,-386"/>
<text text-anchor="middle" x="212.5" y="-365.2" font-family="DejaVu Sans" font-size="11.00">termin&#45;modules</text>
</g>
<!-- termin&#45;base&#45;&gt;termin&#45;modules -->
<g id="edge3" class="edge">
<title>termin&#45;base&#45;&gt;termin&#45;modules</title>
<path fill="none" stroke="#666666" stroke-width="1.1" d="M97.16,-386.56C114.7,-383.71 135.65,-380.31 154.8,-377.2"/>
<polygon fill="#666666" stroke="#666666" stroke-width="1.1" points="155.25,-379.61 161.76,-376.07 154.46,-374.78 155.25,-379.61"/>
</g>
<!-- termin&#45;physics -->
<g id="node8" class="node">
<title>termin&#45;physics</title>
<path fill="#f7f7f7" stroke="#444444" d="M742,-408C742,-408 670,-408 670,-408 664,-408 658,-402 658,-396 658,-396 658,-384 658,-384 658,-378 664,-372 670,-372 670,-372 742,-372 742,-372 748,-372 754,-378 754,-384 754,-384 754,-396 754,-396 754,-402 748,-408 742,-408"/>
<text text-anchor="middle" x="706" y="-387.2" font-family="DejaVu Sans" font-size="11.00">termin&#45;physics</text>
</g>
<!-- termin&#45;base&#45;&gt;termin&#45;physics -->
<g id="edge4" class="edge">
<title>termin&#45;base&#45;&gt;termin&#45;physics</title>
<path fill="none" stroke="#666666" stroke-width="1.1" d="M97.15,-397.22C116.65,-399.09 140.53,-401.08 162,-402 206.85,-403.93 218.23,-405.28 263,-402 410.05,-391.24 446.25,-353.72 593,-368 611.98,-369.85 632.51,-373.41 650.75,-377.15"/>
<polygon fill="#666666" stroke="#666666" stroke-width="1.1" points="650.53,-379.6 657.89,-378.64 651.54,-374.81 650.53,-379.6"/>
</g>
<!-- termin&#45;graphics -->
<g id="node9" class="node">
<title>termin&#45;graphics</title>
<path fill="#f7f7f7" stroke="#444444" d="M417,-622C417,-622 340,-622 340,-622 334,-622 328,-616 328,-610 328,-610 328,-598 328,-598 328,-592 334,-586 340,-586 340,-586 417,-586 417,-586 423,-586 429,-592 429,-598 429,-598 429,-610 429,-610 429,-616 423,-622 417,-622"/>
<text text-anchor="middle" x="378.5" y="-601.2" font-family="DejaVu Sans" font-size="11.00">termin&#45;graphics</text>
</g>
<!-- termin&#45;mesh&#45;&gt;termin&#45;graphics -->
<g id="edge5" class="edge">
<title>termin&#45;mesh&#45;&gt;termin&#45;graphics</title>
<path fill="none" stroke="#666666" stroke-width="1.1" d="M246.62,-318.03C252.74,-322.58 258.59,-327.93 263,-334 315.55,-406.37 279.95,-447.03 320,-527 329.7,-546.36 344.34,-565.88 356.42,-580.42"/>
<polygon fill="#666666" stroke="#666666" stroke-width="1.1" points="354.69,-582.17 361.08,-585.94 358.43,-579.01 354.69,-582.17"/>
</g>
<!-- termin&#45;components&#45;collision -->
<g id="node13" class="node">
<title>termin&#45;components&#45;collision</title>
<path fill="#f7f7f7" stroke="#444444" d="M981.5,-120C981.5,-120 835.5,-120 835.5,-120 829.5,-120 823.5,-114 823.5,-108 823.5,-108 823.5,-96 823.5,-96 823.5,-90 829.5,-84 835.5,-84 835.5,-84 981.5,-84 981.5,-84 987.5,-84 993.5,-90 993.5,-96 993.5,-96 993.5,-108 993.5,-108 993.5,-114 987.5,-120 981.5,-120"/>
<text text-anchor="middle" x="908.5" y="-99.2" font-family="DejaVu Sans" font-size="11.00">termin&#45;components&#45;collision</text>
</g>
<!-- termin&#45;mesh&#45;&gt;termin&#45;components&#45;collision -->
<g id="edge6" class="edge">
<title>termin&#45;mesh&#45;&gt;termin&#45;components&#45;collision</title>
<path fill="none" stroke="#666666" stroke-width="1.1" d="M251.92,-281.81C271.94,-272.74 296.99,-262.02 320,-254 491.92,-194.08 699.44,-145.8 816.16,-120.74"/>
<polygon fill="#666666" stroke="#666666" stroke-width="1.1" points="816.7,-123.13 823.03,-119.27 815.67,-118.34 816.7,-123.13"/>
</g>
<!-- termin&#45;components&#45;mesh -->
<g id="node17" class="node">
<title>termin&#45;components&#45;mesh</title>
<path fill="#f7f7f7" stroke="#444444" d="M974.5,-256C974.5,-256 842.5,-256 842.5,-256 836.5,-256 830.5,-250 830.5,-244 830.5,-244 830.5,-232 830.5,-232 830.5,-226 836.5,-220 842.5,-220 842.5,-220 974.5,-220 974.5,-220 980.5,-220 986.5,-226 986.5,-232 986.5,-232 986.5,-244 986.5,-244 986.5,-250 980.5,-256 974.5,-256"/>
<text text-anchor="middle" x="908.5" y="-235.2" font-family="DejaVu Sans" font-size="11.00">termin&#45;components&#45;mesh</text>
</g>
<!-- termin&#45;mesh&#45;&gt;termin&#45;components&#45;mesh -->
<g id="edge7" class="edge">
<title>termin&#45;mesh&#45;&gt;termin&#45;components&#45;mesh</title>
<path fill="none" stroke="#666666" stroke-width="1.1" d="M254.69,-289.13C274.33,-284.36 298.24,-279.14 320,-276 497.87,-250.37 708.53,-242.02 823.05,-239.3"/>
<polygon fill="#666666" stroke="#666666" stroke-width="1.1" points="823.17,-241.75 830.11,-239.14 823.06,-236.85 823.17,-241.75"/>
</g>
<!-- termin&#45;scene -->
<g id="node4" class="node">
<title>termin&#45;scene</title>
<path fill="#f7f7f7" stroke="#444444" d="M410,-488C410,-488 347,-488 347,-488 341,-488 335,-482 335,-476 335,-476 335,-464 335,-464 335,-458 341,-452 347,-452 347,-452 410,-452 410,-452 416,-452 422,-458 422,-464 422,-464 422,-476 422,-476 422,-482 416,-488 410,-488"/>
<text text-anchor="middle" x="378.5" y="-467.2" font-family="DejaVu Sans" font-size="11.00">termin&#45;scene</text>
</g>
<!-- termin&#45;inspect&#45;&gt;termin&#45;scene -->
<g id="edge8" class="edge">
<title>termin&#45;inspect&#45;&gt;termin&#45;scene</title>
<path fill="none" stroke="#666666" stroke-width="1.1" d="M259.62,-470C280.81,-470 305.99,-470 327.63,-470"/>
<polygon fill="#666666" stroke="#666666" stroke-width="1.1" points="327.82,-472.45 334.82,-470 327.82,-467.55 327.82,-472.45"/>
</g>
<!-- termin&#45;input -->
<g id="node5" class="node">
<title>termin&#45;input</title>
<path fill="#f7f7f7" stroke="#444444" d="M572.5,-488C572.5,-488 514.5,-488 514.5,-488 508.5,-488 502.5,-482 502.5,-476 502.5,-476 502.5,-464 502.5,-464 502.5,-458 508.5,-452 514.5,-452 514.5,-452 572.5,-452 572.5,-452 578.5,-452 584.5,-458 584.5,-464 584.5,-464 584.5,-476 584.5,-476 584.5,-482 578.5,-488 572.5,-488"/>
<text text-anchor="middle" x="543.5" y="-467.2" font-family="DejaVu Sans" font-size="11.00">termin&#45;input</text>
</g>
<!-- termin&#45;scene&#45;&gt;termin&#45;input -->
<g id="edge9" class="edge">
<title>termin&#45;scene&#45;&gt;termin&#45;input</title>
<path fill="none" stroke="#666666" stroke-width="1.1" d="M422.33,-470C444.81,-470 472.4,-470 495.47,-470"/>
<polygon fill="#666666" stroke="#666666" stroke-width="1.1" points="495.48,-472.45 502.48,-470 495.48,-467.55 495.48,-472.45"/>
</g>
<!-- termin&#45;collision -->
<g id="node7" class="node">
<title>termin&#45;collision</title>
<path fill="#f7f7f7" stroke="#444444" d="M581,-420C581,-420 506,-420 506,-420 500,-420 494,-414 494,-408 494,-408 494,-396 494,-396 494,-390 500,-384 506,-384 506,-384 581,-384 581,-384 587,-384 593,-390 593,-396 593,-396 593,-408 593,-408 593,-414 587,-420 581,-420"/>
<text text-anchor="middle" x="543.5" y="-399.2" font-family="DejaVu Sans" font-size="11.00">termin&#45;collision</text>
</g>
<!-- termin&#45;scene&#45;&gt;termin&#45;collision -->
<g id="edge10" class="edge">
<title>termin&#45;scene&#45;&gt;termin&#45;collision</title>
<path fill="none" stroke="#666666" stroke-width="1.1" d="M422.33,-452.13C443.87,-443.14 470.12,-432.2 492.58,-422.83"/>
<polygon fill="#666666" stroke="#666666" stroke-width="1.1" points="493.59,-425.06 499.11,-420.1 491.71,-420.54 493.59,-425.06"/>
</g>
<!-- termin&#45;render -->
<g id="node10" class="node">
<title>termin&#45;render</title>
<path fill="#f7f7f7" stroke="#444444" d="M576.5,-622C576.5,-622 510.5,-622 510.5,-622 504.5,-622 498.5,-616 498.5,-610 498.5,-610 498.5,-598 498.5,-598 498.5,-592 504.5,-586 510.5,-586 510.5,-586 576.5,-586 576.5,-586 582.5,-586 588.5,-592 588.5,-598 588.5,-598 588.5,-610 588.5,-610 588.5,-616 582.5,-622 576.5,-622"/>
<text text-anchor="middle" x="543.5" y="-601.2" font-family="DejaVu Sans" font-size="11.00">termin&#45;render</text>
</g>
<!-- termin&#45;scene&#45;&gt;termin&#45;render -->
<g id="edge11" class="edge">
<title>termin&#45;scene&#45;&gt;termin&#45;render</title>
<path fill="none" stroke="#666666" stroke-width="1.1" d="M401.48,-488.07C430.77,-512.15 482.6,-554.76 514.61,-581.07"/>
<polygon fill="#666666" stroke="#666666" stroke-width="1.1" points="513.38,-583.23 520.34,-585.79 516.49,-579.45 513.38,-583.23"/>
</g>
<!-- termin&#45;scene&#45;&gt;termin&#45;components&#45;mesh -->
<g id="edge12" class="edge">
<title>termin&#45;scene&#45;&gt;termin&#45;components&#45;mesh</title>
<path fill="none" stroke="#666666" stroke-width="1.1" d="M422.33,-486.31C465.66,-500.59 534.41,-517.17 593,-504 674.08,-485.78 697.1,-475.9 762,-424 821.02,-376.8 870.49,-301.14 893.55,-262.47"/>
<polygon fill="#666666" stroke="#666666" stroke-width="1.1" points="895.84,-263.42 897.29,-256.14 891.62,-260.93 895.84,-263.42"/>
</g>
<!-- termin&#45;components&#45;kinematic -->
<g id="node18" class="node">
<title>termin&#45;components&#45;kinematic</title>
<path fill="#f7f7f7" stroke="#444444" d="M986,-188C986,-188 831,-188 831,-188 825,-188 819,-182 819,-176 819,-176 819,-164 819,-164 819,-158 825,-152 831,-152 831,-152 986,-152 986,-152 992,-152 998,-158 998,-164 998,-164 998,-176 998,-176 998,-182 992,-188 986,-188"/>
<text text-anchor="middle" x="908.5" y="-167.2" font-family="DejaVu Sans" font-size="11.00">termin&#45;components&#45;kinematic</text>
</g>
<!-- termin&#45;scene&#45;&gt;termin&#45;components&#45;kinematic -->
<g id="edge13" class="edge">
<title>termin&#45;scene&#45;&gt;termin&#45;components&#45;kinematic</title>
<path fill="none" stroke="#666666" stroke-width="1.1" d="M396.96,-451.89C418.46,-430.21 456.71,-393.65 494,-368 624.69,-278.1 665.4,-266.95 811,-204 821.97,-199.26 833.84,-194.66 845.38,-190.45"/>
<polygon fill="#666666" stroke="#666666" stroke-width="1.1" points="846.37,-192.7 852.13,-188.03 844.71,-188.09 846.37,-192.7"/>
</g>
<!-- termin&#45;display -->
<g id="node11" class="node">
<title>termin&#45;display</title>
<path fill="#f7f7f7" stroke="#444444" d="M740.5,-622C740.5,-622 671.5,-622 671.5,-622 665.5,-622 659.5,-616 659.5,-610 659.5,-610 659.5,-598 659.5,-598 659.5,-592 665.5,-586 671.5,-586 671.5,-586 740.5,-586 740.5,-586 746.5,-586 752.5,-592 752.5,-598 752.5,-598 752.5,-610 752.5,-610 752.5,-616 746.5,-622 740.5,-622"/>
<text text-anchor="middle" x="706" y="-601.2" font-family="DejaVu Sans" font-size="11.00">termin&#45;display</text>
</g>
<!-- termin&#45;input&#45;&gt;termin&#45;display -->
<g id="edge14" class="edge">
<title>termin&#45;input&#45;&gt;termin&#45;display</title>
<path fill="none" stroke="#666666" stroke-width="1.1" d="M566.15,-488.07C594.98,-512.15 646.02,-554.76 677.54,-581.07"/>
<polygon fill="#666666" stroke="#666666" stroke-width="1.1" points="676.24,-583.18 683.18,-585.79 679.38,-579.42 676.24,-583.18"/>
</g>
<!-- termin -->
<g id="node22" class="node">
<title>termin</title>
<path fill="#f7f7f7" stroke="#444444" d="M1168,-339C1168,-339 1138,-339 1138,-339 1132,-339 1126,-333 1126,-327 1126,-327 1126,-315 1126,-315 1126,-309 1132,-303 1138,-303 1138,-303 1168,-303 1168,-303 1174,-303 1180,-309 1180,-315 1180,-315 1180,-327 1180,-327 1180,-333 1174,-339 1168,-339"/>
<text text-anchor="middle" x="1153" y="-318.2" font-family="DejaVu Sans" font-size="11.00">termin</text>
</g>
<!-- termin&#45;modules&#45;&gt;termin -->
<g id="edge33" class="edge">
<title>termin&#45;modules&#45;&gt;termin</title>
<path fill="none" stroke="#666666" stroke-width="1.1" d="M263.3,-365.51C431.76,-357.07 977.65,-329.73 1118.56,-322.67"/>
<polygon fill="#666666" stroke="#666666" stroke-width="1.1" points="1118.86,-325.11 1125.73,-322.32 1118.62,-320.22 1118.86,-325.11"/>
</g>
<!-- termin&#45;collision&#45;&gt;termin&#45;physics -->
<g id="edge17" class="edge">
<title>termin&#45;collision&#45;&gt;termin&#45;physics</title>
<path fill="none" stroke="#666666" stroke-width="1.1" d="M593.09,-398.37C611.25,-397.01 632,-395.46 650.65,-394.06"/>
<polygon fill="#666666" stroke="#666666" stroke-width="1.1" points="651.15,-396.48 657.95,-393.52 650.79,-391.6 651.15,-396.48"/>
</g>
<!-- termin&#45;collision&#45;&gt;termin&#45;components&#45;collision -->
<g id="edge16" class="edge">
<title>termin&#45;collision&#45;&gt;termin&#45;components&#45;collision</title>
<path fill="none" stroke="#666666" stroke-width="1.1" d="M557.98,-383.73C593.91,-336.25 697.02,-207.71 811,-136 818.98,-130.98 827.81,-126.57 836.78,-122.75"/>
<polygon fill="#666666" stroke="#666666" stroke-width="1.1" points="837.78,-124.99 843.33,-120.07 835.93,-120.45 837.78,-124.99"/>
</g>
<!-- termin&#45;engine -->
<g id="node19" class="node">
<title>termin&#45;engine</title>
<path fill="#f7f7f7" stroke="#444444" d="M942,-539C942,-539 875,-539 875,-539 869,-539 863,-533 863,-527 863,-527 863,-515 863,-515 863,-509 869,-503 875,-503 875,-503 942,-503 942,-503 948,-503 954,-509 954,-515 954,-515 954,-527 954,-527 954,-533 948,-539 942,-539"/>
<text text-anchor="middle" x="908.5" y="-518.2" font-family="DejaVu Sans" font-size="11.00">termin&#45;engine</text>
</g>
<!-- termin&#45;collision&#45;&gt;termin&#45;engine -->
<g id="edge15" class="edge">
<title>termin&#45;collision&#45;&gt;termin&#45;engine</title>
<path fill="none" stroke="#666666" stroke-width="1.1" d="M593.08,-417.93C661.53,-440.37 785.83,-481.11 855.89,-504.08"/>
<polygon fill="#666666" stroke="#666666" stroke-width="1.1" points="855.49,-506.53 862.91,-506.38 857.02,-501.87 855.49,-506.53"/>
</g>
<!-- termin&#45;components&#45;physics -->
<g id="node16" class="node">
<title>termin&#45;components&#45;physics</title>
<path fill="#f7f7f7" stroke="#444444" d="M1224.5,-256C1224.5,-256 1081.5,-256 1081.5,-256 1075.5,-256 1069.5,-250 1069.5,-244 1069.5,-244 1069.5,-232 1069.5,-232 1069.5,-226 1075.5,-220 1081.5,-220 1081.5,-220 1224.5,-220 1224.5,-220 1230.5,-220 1236.5,-226 1236.5,-232 1236.5,-232 1236.5,-244 1236.5,-244 1236.5,-250 1230.5,-256 1224.5,-256"/>
<text text-anchor="middle" x="1153" y="-235.2" font-family="DejaVu Sans" font-size="11.00">termin&#45;components&#45;physics</text>
</g>
<!-- termin&#45;physics&#45;&gt;termin&#45;components&#45;physics -->
<g id="edge22" class="edge">
<title>termin&#45;physics&#45;&gt;termin&#45;components&#45;physics</title>
<path fill="none" stroke="#666666" stroke-width="1.1" d="M754.2,-373.88C835.74,-346.03 1002.79,-288.96 1092.28,-258.4"/>
<polygon fill="#666666" stroke="#666666" stroke-width="1.1" points="1093.28,-260.65 1099.11,-256.06 1091.7,-256.01 1093.28,-260.65"/>
</g>
<!-- termin&#45;physics&#45;&gt;termin -->
<g id="edge32" class="edge">
<title>termin&#45;physics&#45;&gt;termin</title>
<path fill="none" stroke="#666666" stroke-width="1.1" d="M754,-402.12C812.72,-415.03 915.5,-430.16 998,-403 1032.11,-391.77 1031.49,-372.23 1063,-355 1080.81,-345.26 1101.99,-337.05 1119.23,-331.13"/>
<polygon fill="#666666" stroke="#666666" stroke-width="1.1" points="1120.01,-333.45 1125.86,-328.9 1118.45,-328.81 1120.01,-333.45"/>
</g>
<!-- termin&#45;graphics&#45;&gt;termin&#45;render -->
<g id="edge18" class="edge">
<title>termin&#45;graphics&#45;&gt;termin&#45;render</title>
<path fill="none" stroke="#666666" stroke-width="1.1" d="M429.29,-604C448.89,-604 471.38,-604 491.13,-604"/>
<polygon fill="#666666" stroke="#666666" stroke-width="1.1" points="491.27,-606.45 498.27,-604 491.27,-601.55 491.27,-606.45"/>
</g>
<!-- termin&#45;gui -->
<g id="node20" class="node">
<title>termin&#45;gui</title>
<path fill="#f7f7f7" stroke="#444444" d="M729.5,-705C729.5,-705 682.5,-705 682.5,-705 676.5,-705 670.5,-699 670.5,-693 670.5,-693 670.5,-681 670.5,-681 670.5,-675 676.5,-669 682.5,-669 682.5,-669 729.5,-669 729.5,-669 735.5,-669 741.5,-675 741.5,-681 741.5,-681 741.5,-693 741.5,-693 741.5,-699 735.5,-705 729.5,-705"/>
<text text-anchor="middle" x="706" y="-684.2" font-family="DejaVu Sans" font-size="11.00">termin&#45;gui</text>
</g>
<!-- termin&#45;graphics&#45;&gt;termin&#45;gui -->
<g id="edge19" class="edge">
<title>termin&#45;graphics&#45;&gt;termin&#45;gui</title>
<path fill="none" stroke="#666666" stroke-width="1.1" d="M429.19,-619.47C449.25,-625.52 472.65,-632.36 494,-638 552.55,-653.48 620.93,-668.87 663.61,-678.16"/>
<polygon fill="#666666" stroke="#666666" stroke-width="1.1" points="663.13,-680.57 670.49,-679.66 664.17,-675.78 663.13,-680.57"/>
</g>
<!-- termin&#45;render&#45;&gt;termin&#45;display -->
<g id="edge20" class="edge">
<title>termin&#45;render&#45;&gt;termin&#45;display</title>
<path fill="none" stroke="#666666" stroke-width="1.1" d="M588.78,-604C608.45,-604 631.76,-604 652.32,-604"/>
<polygon fill="#666666" stroke="#666666" stroke-width="1.1" points="652.47,-606.45 659.47,-604 652.47,-601.55 652.47,-606.45"/>
</g>
<!-- termin&#45;components&#45;render -->
<g id="node12" class="node">
<title>termin&#45;components&#45;render</title>
<path fill="#f7f7f7" stroke="#444444" d="M977.5,-622C977.5,-622 839.5,-622 839.5,-622 833.5,-622 827.5,-616 827.5,-610 827.5,-610 827.5,-598 827.5,-598 827.5,-592 833.5,-586 839.5,-586 839.5,-586 977.5,-586 977.5,-586 983.5,-586 989.5,-592 989.5,-598 989.5,-598 989.5,-610 989.5,-610 989.5,-616 983.5,-622 977.5,-622"/>
<text text-anchor="middle" x="908.5" y="-601.2" font-family="DejaVu Sans" font-size="11.00">termin&#45;components&#45;render</text>
</g>
<!-- termin&#45;display&#45;&gt;termin&#45;components&#45;render -->
<g id="edge21" class="edge">
<title>termin&#45;display&#45;&gt;termin&#45;components&#45;render</title>
<path fill="none" stroke="#666666" stroke-width="1.1" d="M752.75,-604C772.75,-604 796.92,-604 820.15,-604"/>
<polygon fill="#666666" stroke="#666666" stroke-width="1.1" points="820.32,-606.45 827.32,-604 820.32,-601.55 820.32,-606.45"/>
</g>
<!-- termin&#45;components&#45;render&#45;&gt;termin&#45;components&#45;physics -->
<g id="edge24" class="edge">
<title>termin&#45;components&#45;render&#45;&gt;termin&#45;components&#45;physics</title>
<path fill="none" stroke="#666666" stroke-width="1.1" d="M988.95,-585.83C992.22,-583.52 995.26,-580.92 998,-578 1088.56,-481.25 983.47,-393.01 1063,-287 1071.47,-275.71 1083.35,-266.68 1095.67,-259.62"/>
<polygon fill="#666666" stroke="#666666" stroke-width="1.1" points="1097.16,-261.6 1102.14,-256.1 1094.82,-257.29 1097.16,-261.6"/>
</g>
<!-- termin&#45;components&#45;render&#45;&gt;termin&#45;engine -->
<g id="edge28" class="edge">
<title>termin&#45;components&#45;render&#45;&gt;termin&#45;engine</title>
<path fill="none" stroke="#666666" stroke-width="1.1" d="M908.5,-585.76C908.5,-572.65 908.5,-559.55 908.5,-546.44"/>
<polygon fill="#666666" stroke="#666666" stroke-width="1.1" points="910.95,-546.16 908.5,-539.16 906.05,-546.16 910.95,-546.16"/>
</g>
<!-- termin&#45;components&#45;collision&#45;&gt;termin&#45;components&#45;physics -->
<g id="edge23" class="edge">
<title>termin&#45;components&#45;collision&#45;&gt;termin&#45;components&#45;physics</title>
<path fill="none" stroke="#666666" stroke-width="1.1" d="M962.27,-120.11C974.24,-124.8 986.73,-130.19 998,-136 1043.56,-159.48 1092.27,-193.41 1122.43,-215.58"/>
<polygon fill="#666666" stroke="#666666" stroke-width="1.1" points="1121.12,-217.66 1128.2,-219.85 1124.03,-213.72 1121.12,-217.66"/>
</g>
<!-- termin&#45;components&#45;collision&#45;&gt;termin -->
<g id="edge29" class="edge">
<title>termin&#45;components&#45;collision&#45;&gt;termin</title>
<path fill="none" stroke="#666666" stroke-width="1.1" d="M975.09,-120.02C983.47,-124.3 991.41,-129.55 998,-136 1052.55,-189.41 1006.29,-243.89 1063,-295 1078.2,-308.7 1100.25,-315.2 1118.6,-318.28"/>
<polygon fill="#666666" stroke="#666666" stroke-width="1.1" points="1118.4,-320.73 1125.69,-319.34 1119.12,-315.88 1118.4,-320.73"/>
</g>
<!-- termin&#45;components&#45;skeleton -->
<g id="node14" class="node">
<title>termin&#45;components&#45;skeleton</title>
<path fill="#f7f7f7" stroke="#444444" d="M982.5,-52C982.5,-52 834.5,-52 834.5,-52 828.5,-52 822.5,-46 822.5,-40 822.5,-40 822.5,-28 822.5,-28 822.5,-22 828.5,-16 834.5,-16 834.5,-16 982.5,-16 982.5,-16 988.5,-16 994.5,-22 994.5,-28 994.5,-28 994.5,-40 994.5,-40 994.5,-46 988.5,-52 982.5,-52"/>
<text text-anchor="middle" x="908.5" y="-31.2" font-family="DejaVu Sans" font-size="11.00">termin&#45;components&#45;skeleton</text>
</g>
<!-- termin&#45;components&#45;animation -->
<g id="node15" class="node">
<title>termin&#45;components&#45;animation</title>
<path fill="#f7f7f7" stroke="#444444" d="M1231,-120C1231,-120 1075,-120 1075,-120 1069,-120 1063,-114 1063,-108 1063,-108 1063,-96 1063,-96 1063,-90 1069,-84 1075,-84 1075,-84 1231,-84 1231,-84 1237,-84 1243,-90 1243,-96 1243,-96 1243,-108 1243,-108 1243,-114 1237,-120 1231,-120"/>
<text text-anchor="middle" x="1153" y="-99.2" font-family="DejaVu Sans" font-size="11.00">termin&#45;components&#45;animation</text>
</g>
<!-- termin&#45;components&#45;skeleton&#45;&gt;termin&#45;components&#45;animation -->
<g id="edge27" class="edge">
<title>termin&#45;components&#45;skeleton&#45;&gt;termin&#45;components&#45;animation</title>
<path fill="none" stroke="#666666" stroke-width="1.1" d="M973.85,-52.04C1006.73,-61.26 1046.83,-72.51 1080.65,-81.99"/>
<polygon fill="#666666" stroke="#666666" stroke-width="1.1" points="1080.37,-84.46 1087.77,-83.99 1081.69,-79.74 1080.37,-84.46"/>
</g>
<!-- termin&#45;components&#45;physics&#45;&gt;termin -->
<g id="edge31" class="edge">
<title>termin&#45;components&#45;physics&#45;&gt;termin</title>
<path fill="none" stroke="#666666" stroke-width="1.1" d="M1153,-256.16C1153,-269.26 1153,-282.37 1153,-295.48"/>
<polygon fill="#666666" stroke="#666666" stroke-width="1.1" points="1150.55,-295.76 1153,-302.76 1155.45,-295.76 1150.55,-295.76"/>
</g>
<!-- termin&#45;components&#45;kinematic&#45;&gt;termin -->
<g id="edge30" class="edge">
<title>termin&#45;components&#45;kinematic&#45;&gt;termin</title>
<path fill="none" stroke="#666666" stroke-width="1.1" d="M970.58,-188.01C980.28,-192.37 989.8,-197.65 998,-204 1037.3,-234.42 1022.47,-266.23 1063,-295 1079.31,-306.58 1100.75,-313.04 1118.5,-316.63"/>
<polygon fill="#666666" stroke="#666666" stroke-width="1.1" points="1118.53,-319.13 1125.86,-318 1119.43,-314.31 1118.53,-319.13"/>
</g>
<!-- termin&#45;engine&#45;&gt;termin -->
<g id="edge34" class="edge">
<title>termin&#45;engine&#45;&gt;termin</title>
<path fill="none" stroke="#666666" stroke-width="1.1" d="M950.03,-502.93C966.29,-494.3 984.35,-482.82 998,-469 1038.97,-427.49 1018.72,-392.96 1063,-355 1078.85,-341.41 1100.71,-332.95 1118.8,-327.87"/>
<polygon fill="#666666" stroke="#666666" stroke-width="1.1" points="1119.64,-330.19 1125.78,-326.03 1118.39,-325.45 1119.64,-330.19"/>
</g>
<!-- termin&#45;nodegraph -->
<g id="node21" class="node">
<title>termin&#45;nodegraph</title>
<path fill="#f7f7f7" stroke="#444444" d="M953,-705C953,-705 864,-705 864,-705 858,-705 852,-699 852,-693 852,-693 852,-681 852,-681 852,-675 858,-669 864,-669 864,-669 953,-669 953,-669 959,-669 965,-675 965,-681 965,-681 965,-693 965,-693 965,-699 959,-705 953,-705"/>
<text text-anchor="middle" x="908.5" y="-684.2" font-family="DejaVu Sans" font-size="11.00">termin&#45;nodegraph</text>
</g>
<!-- termin&#45;gui&#45;&gt;termin&#45;nodegraph -->
<g id="edge38" class="edge">
<title>termin&#45;gui&#45;&gt;termin&#45;nodegraph</title>
<path fill="none" stroke="#666666" stroke-width="1.1" d="M741.92,-687C770.21,-687 810.77,-687 844.67,-687"/>
<polygon fill="#666666" stroke="#666666" stroke-width="1.1" points="844.8,-689.45 851.8,-687 844.8,-684.55 844.8,-689.45"/>
</g>
<!-- termin&#45;gui&#45;&gt;termin -->
<g id="edge35" class="edge">
<title>termin&#45;gui&#45;&gt;termin</title>
<path fill="none" stroke="#666666" stroke-width="1.1" d="M740.75,-705.22C800.17,-734.53 924.12,-782.91 998,-721 1124.63,-614.88 957.73,-482.33 1063,-355 1076.8,-338.31 1099.76,-329.8 1118.9,-325.47"/>
<polygon fill="#666666" stroke="#666666" stroke-width="1.1" points="1119.4,-327.86 1125.76,-324.05 1118.41,-323.07 1119.4,-327.86"/>
</g>
<!-- diffusion&#45;editor -->
<g id="node23" class="node">
<title>diffusion&#45;editor</title>
<path fill="#f7f7f7" stroke="#444444" d="M1189.5,-407C1189.5,-407 1116.5,-407 1116.5,-407 1110.5,-407 1104.5,-401 1104.5,-395 1104.5,-395 1104.5,-383 1104.5,-383 1104.5,-377 1110.5,-371 1116.5,-371 1116.5,-371 1189.5,-371 1189.5,-371 1195.5,-371 1201.5,-377 1201.5,-383 1201.5,-383 1201.5,-395 1201.5,-395 1201.5,-401 1195.5,-407 1189.5,-407"/>
<text text-anchor="middle" x="1153" y="-386.2" font-family="DejaVu Sans" font-size="11.00">diffusion&#45;editor</text>
</g>
<!-- termin&#45;gui&#45;&gt;diffusion&#45;editor -->
<g id="edge39" class="edge">
<title>termin&#45;gui&#45;&gt;diffusion&#45;editor</title>
<path fill="none" stroke="#666666" stroke-width="1.1" d="M720.41,-705.08C738.22,-727.41 772,-764.23 811,-779 888.72,-808.44 929.28,-825.75 998,-779 1124.02,-693.27 1146.92,-486.9 1151.08,-414.57"/>
<polygon fill="#666666" stroke="#666666" stroke-width="1.1" points="1153.54,-414.33 1151.46,-407.21 1148.65,-414.07 1153.54,-414.33"/>
</g>
<!-- termin&#45;nodegraph&#45;&gt;termin -->
<g id="edge36" class="edge">
<title>termin&#45;nodegraph&#45;&gt;termin</title>
<path fill="none" stroke="#666666" stroke-width="1.1" d="M965.13,-680.36C977.39,-676.46 989.29,-670.4 998,-661 1092.48,-559 972.63,-460.66 1063,-355 1077.01,-338.62 1099.83,-330.1 1118.85,-325.69"/>
<polygon fill="#666666" stroke="#666666" stroke-width="1.1" points="1119.59,-328.04 1125.93,-324.19 1118.58,-323.25 1119.59,-328.04"/>
</g>
<!-- termin&#45;&gt;termin&#45;components&#45;skeleton -->
<g id="edge25" class="edge">
<title>termin&#45;&gt;termin&#45;components&#45;skeleton</title>
<path fill="none" stroke="#666666" stroke-width="1.1" d="M1125.6,-319.91C1105.83,-317.69 1079.46,-311.55 1063,-295 988.99,-220.6 1068.87,-145.4 998,-68 993.67,-63.28 988.62,-59.2 983.15,-55.69"/>
<polygon fill="#666666" stroke="#666666" stroke-width="1.1" points="984.35,-53.55 977.08,-52.1 981.85,-57.77 984.35,-53.55"/>
</g>
<!-- termin&#45;&gt;termin&#45;components&#45;animation -->
<g id="edge26" class="edge">
<title>termin&#45;&gt;termin&#45;components&#45;animation</title>
<path fill="none" stroke="#666666" stroke-width="1.1" d="M1125.8,-320.84C1096.15,-318.99 1050.28,-310.78 1030.5,-279 994.9,-221.8 1070.2,-157.38 1117.85,-124.28"/>
<polygon fill="#666666" stroke="#666666" stroke-width="1.1" points="1119.41,-126.18 1123.8,-120.2 1116.64,-122.14 1119.41,-126.18"/>
</g>
<!-- termin&#45;csharp -->
<g id="node24" class="node">
<title>termin&#45;csharp</title>
<path fill="#f7f7f7" stroke="#444444" d="M1387,-339C1387,-339 1320,-339 1320,-339 1314,-339 1308,-333 1308,-327 1308,-327 1308,-315 1308,-315 1308,-309 1314,-303 1320,-303 1320,-303 1387,-303 1387,-303 1393,-303 1399,-309 1399,-315 1399,-315 1399,-327 1399,-327 1399,-333 1393,-339 1387,-339"/>
<text text-anchor="middle" x="1353.5" y="-318.2" font-family="DejaVu Sans" font-size="11.00">termin&#45;csharp</text>
</g>
<!-- termin&#45;&gt;termin&#45;csharp -->
<g id="edge37" class="edge">
<title>termin&#45;&gt;termin&#45;csharp</title>
<path fill="none" stroke="#666666" stroke-width="1.1" d="M1180.36,-321C1210.94,-321 1262.09,-321 1300.71,-321"/>
<polygon fill="#666666" stroke="#666666" stroke-width="1.1" points="1300.76,-323.45 1307.76,-321 1300.76,-318.55 1300.76,-323.45"/>
</g>
</g>
</svg>
