<?xml version="1.0" encoding="UTF-8" standalone="no"?>
<!DOCTYPE svg PUBLIC "-//W3C//DTD SVG 1.1//EN"
 "http://www.w3.org/Graphics/SVG/1.1/DTD/svg11.dtd">
<!-- Generated by graphviz version 2.43.0 (0)
 -->
<!-- Title: termin_dependencies Pages: 1 -->
<svg width="1846pt" height="1346pt"
 viewBox="0.00 0.00 1845.80 1346.11" xmlns="http://www.w3.org/2000/svg" xmlns:xlink="http://www.w3.org/1999/xlink">
<g id="graph0" class="graph" transform="scale(1 1) rotate(0) translate(14.4 1331.71)">
<title>termin_dependencies</title>
<polygon fill="white" stroke="transparent" points="-14.4,14.4 -14.4,-1331.71 1831.4,-1331.71 1831.4,14.4 -14.4,14.4"/>
<g id="clust1" class="cluster">
<title>cluster_application</title>
<polygon fill="white" stroke="#999999" stroke-dasharray="5,2" points="1551,-641 1551,-714 1642,-714 1642,-641 1551,-641"/>
<text text-anchor="middle" x="1596.5" y="-700.4" font-family="DejaVu Sans" font-size="12.00">Application</text>
</g>
<g id="clust2" class="cluster">
<title>cluster_foundation</title>
<polygon fill="white" stroke="#999999" stroke-dasharray="5,2" points="137,-8 137,-285 979,-285 979,-8 137,-8"/>
<text text-anchor="middle" x="558" y="-271.4" font-family="DejaVu Sans" font-size="12.00">Foundation</text>
</g>
<g id="clust3" class="cluster">
<title>cluster_namespace</title>
<polygon fill="white" stroke="#999999" stroke-dasharray="5,2" points="0,-144 0,-217 88,-217 88,-144 0,-144"/>
<text text-anchor="middle" x="44" y="-203.4" font-family="DejaVu Sans" font-size="12.00">Namespace</text>
</g>
<g id="clust4" class="cluster">
<title>cluster_native_interop</title>
<polygon fill="white" stroke="#999999" stroke-dasharray="5,2" points="1702,-909 1702,-982 1809,-982 1809,-909 1702,-909"/>
<text text-anchor="middle" x="1755.5" y="-968.4" font-family="DejaVu Sans" font-size="12.00">Native Interop</text>
</g>
<g id="clust5" class="cluster">
<title>cluster_other_components</title>
<polygon fill="white" stroke="#999999" stroke-dasharray="5,2" points="819,-293 819,-570 1491,-570 1491,-293 819,-293"/>
<text text-anchor="middle" x="1155" y="-556.4" font-family="DejaVu Sans" font-size="12.00">Other Components</text>
</g>
<g id="clust6" class="cluster">
<title>cluster_python_support</title>
<polygon fill="white" stroke="#999999" stroke-dasharray="5,2" points="290,-496 290,-637 433,-637 433,-496 290,-496"/>
<text text-anchor="middle" x="361.5" y="-623.4" font-family="DejaVu Sans" font-size="12.00">Python Support</text>
</g>
<g id="clust7" class="cluster">
<title>cluster_render_stack</title>
<polygon fill="white" stroke="#999999" stroke-dasharray="5,2" points="482,-686 482,-827 1250,-827 1250,-686 482,-686"/>
<text text-anchor="middle" x="866" y="-813.4" font-family="DejaVu Sans" font-size="12.00">Render Stack</text>
</g>
<g id="clust8" class="cluster">
<title>cluster_runtime</title>
<polygon fill="white" stroke="#999999" stroke-dasharray="5,2" points="1346,-1073 1346,-1146 1453,-1146 1453,-1073 1346,-1073"/>
<text text-anchor="middle" x="1399.5" y="-1132.4" font-family="DejaVu Sans" font-size="12.00">Runtime</text>
</g>
<g id="clust10" class="cluster">
<title>cluster_ui</title>
<polygon fill="white" stroke="#999999" stroke-dasharray="5,2" points="665.5,-1143 665.5,-1284 981,-1284 981,-1143 665.5,-1143"/>
<text text-anchor="middle" x="823.25" y="-1270.4" font-family="DejaVu Sans" font-size="12.00">UI</text>
</g>
<!-- termin&#45;app -->
<g id="node1" class="node">
<title>termin&#45;app</title>
<path fill="#f7f7f7" stroke="#444444" d="M1622,-685C1622,-685 1571,-685 1571,-685 1565,-685 1559,-679 1559,-673 1559,-673 1559,-661 1559,-661 1559,-655 1565,-649 1571,-649 1571,-649 1622,-649 1622,-649 1628,-649 1634,-655 1634,-661 1634,-661 1634,-673 1634,-673 1634,-679 1628,-685 1622,-685"/>
<text text-anchor="middle" x="1596.5" y="-664.2" font-family="DejaVu Sans" font-size="11.00">termin&#45;app</text>
</g>
<!-- termin&#45;csharp -->
<g id="node16" class="node">
<title>termin&#45;csharp</title>
<path fill="#f7f7f7" stroke="#444444" d="M1789,-953C1789,-953 1722,-953 1722,-953 1716,-953 1710,-947 1710,-941 1710,-941 1710,-929 1710,-929 1710,-923 1716,-917 1722,-917 1722,-917 1789,-917 1789,-917 1795,-917 1801,-923 1801,-929 1801,-929 1801,-941 1801,-941 1801,-947 1795,-953 1789,-953"/>
<text text-anchor="middle" x="1755.5" y="-932.2" font-family="DejaVu Sans" font-size="11.00">termin&#45;csharp</text>
</g>
<!-- termin&#45;app&#45;&gt;termin&#45;csharp -->
<g id="edge6" class="edge">
<title>termin&#45;app&#45;&gt;termin&#45;csharp</title>
<path fill="none" stroke="#666666" stroke-width="1.1" d="M1608.04,-685C1635.46,-731.8 1709.02,-857.36 1740.21,-910.6"/>
<polygon fill="#666666" stroke="#666666" stroke-width="1.1" points="1738.14,-911.92 1743.79,-916.73 1742.37,-909.45 1738.14,-911.92"/>
</g>
<!-- termin&#45;animation -->
<g id="node2" class="node">
<title>termin&#45;animation</title>
<path fill="#f7f7f7" stroke="#444444" d="M959,-203C959,-203 874,-203 874,-203 868,-203 862,-197 862,-191 862,-191 862,-179 862,-179 862,-173 868,-167 874,-167 874,-167 959,-167 959,-167 965,-167 971,-173 971,-179 971,-179 971,-191 971,-191 971,-197 965,-203 959,-203"/>
<text text-anchor="middle" x="916.5" y="-182.2" font-family="DejaVu Sans" font-size="11.00">termin&#45;animation</text>
</g>
<!-- termin&#45;components&#45;animation -->
<g id="node17" class="node">
<title>termin&#45;components&#45;animation</title>
<path fill="#f7f7f7" stroke="#444444" d="M1239,-337C1239,-337 1083,-337 1083,-337 1077,-337 1071,-331 1071,-325 1071,-325 1071,-313 1071,-313 1071,-307 1077,-301 1083,-301 1083,-301 1239,-301 1239,-301 1245,-301 1251,-307 1251,-313 1251,-313 1251,-325 1251,-325 1251,-331 1245,-337 1239,-337"/>
<text text-anchor="middle" x="1161" y="-316.2" font-family="DejaVu Sans" font-size="11.00">termin&#45;components&#45;animation</text>
</g>
<!-- termin&#45;animation&#45;&gt;termin&#45;components&#45;animation -->
<g id="edge5" class="edge">
<title>termin&#45;animation&#45;&gt;termin&#45;components&#45;animation</title>
<path fill="none" stroke="#666666" stroke-width="1.1" d="M957.55,-203.02C972.87,-210.17 990.4,-218.66 1006,-227 1047.97,-249.43 1094.71,-277.86 1125.57,-297.14"/>
<polygon fill="#666666" stroke="#666666" stroke-width="1.1" points="1124.29,-299.23 1131.52,-300.87 1126.89,-295.08 1124.29,-299.23"/>
</g>
<!-- termin&#45;base -->
<g id="node3" class="node">
<title>termin&#45;base</title>
<path fill="#f7f7f7" stroke="#444444" d="M217.5,-120C217.5,-120 160.5,-120 160.5,-120 154.5,-120 148.5,-114 148.5,-108 148.5,-108 148.5,-96 148.5,-96 148.5,-90 154.5,-84 160.5,-84 160.5,-84 217.5,-84 217.5,-84 223.5,-84 229.5,-90 229.5,-96 229.5,-96 229.5,-108 229.5,-108 229.5,-114 223.5,-120 217.5,-120"/>
<text text-anchor="middle" x="189" y="-99.2" font-family="DejaVu Sans" font-size="11.00">termin&#45;base</text>
</g>
<!-- termin&#45;inspect -->
<g id="node7" class="node">
<title>termin&#45;inspect</title>
<path fill="#f7f7f7" stroke="#444444" d="M396.5,-188C396.5,-188 326.5,-188 326.5,-188 320.5,-188 314.5,-182 314.5,-176 314.5,-176 314.5,-164 314.5,-164 314.5,-158 320.5,-152 326.5,-152 326.5,-152 396.5,-152 396.5,-152 402.5,-152 408.5,-158 408.5,-164 408.5,-164 408.5,-176 408.5,-176 408.5,-182 402.5,-188 396.5,-188"/>
<text text-anchor="middle" x="361.5" y="-167.2" font-family="DejaVu Sans" font-size="11.00">termin&#45;inspect</text>
</g>
<!-- termin&#45;base&#45;&gt;termin&#45;inspect -->
<g id="edge10" class="edge">
<title>termin&#45;base&#45;&gt;termin&#45;inspect</title>
<path fill="none" stroke="#666666" stroke-width="1.1" d="M229.54,-117.77C253.02,-127.14 283.07,-139.12 308.46,-149.24"/>
<polygon fill="#666666" stroke="#666666" stroke-width="1.1" points="307.74,-151.59 315.14,-151.91 309.55,-147.04 307.74,-151.59"/>
</g>
<!-- termin&#45;mesh -->
<g id="node8" class="node">
<title>termin&#45;mesh</title>
<path fill="#f7f7f7" stroke="#444444" d="M391.5,-256C391.5,-256 331.5,-256 331.5,-256 325.5,-256 319.5,-250 319.5,-244 319.5,-244 319.5,-232 319.5,-232 319.5,-226 325.5,-220 331.5,-220 331.5,-220 391.5,-220 391.5,-220 397.5,-220 403.5,-226 403.5,-232 403.5,-232 403.5,-244 403.5,-244 403.5,-250 397.5,-256 391.5,-256"/>
<text text-anchor="middle" x="361.5" y="-235.2" font-family="DejaVu Sans" font-size="11.00">termin&#45;mesh</text>
</g>
<!-- termin&#45;base&#45;&gt;termin&#45;mesh -->
<g id="edge12" class="edge">
<title>termin&#45;base&#45;&gt;termin&#45;mesh</title>
<path fill="none" stroke="#666666" stroke-width="1.1" d="M214.83,-120.23C220.98,-125.12 227.4,-130.56 233,-136 261.28,-163.48 258.88,-179.78 290,-204 296.87,-209.35 304.72,-214.15 312.62,-218.34"/>
<polygon fill="#666666" stroke="#666666" stroke-width="1.1" points="311.9,-220.72 319.25,-221.71 314.13,-216.35 311.9,-220.72"/>
</g>
<!-- termin&#45;modules -->
<g id="node9" class="node">
<title>termin&#45;modules</title>
<path fill="#f7f7f7" stroke="#444444" d="M400,-52C400,-52 323,-52 323,-52 317,-52 311,-46 311,-40 311,-40 311,-28 311,-28 311,-22 317,-16 323,-16 323,-16 400,-16 400,-16 406,-16 412,-22 412,-28 412,-28 412,-40 412,-40 412,-46 406,-52 400,-52"/>
<text text-anchor="middle" x="361.5" y="-31.2" font-family="DejaVu Sans" font-size="11.00">termin&#45;modules</text>
</g>
<!-- termin&#45;base&#45;&gt;termin&#45;modules -->
<g id="edge13" class="edge">
<title>termin&#45;base&#45;&gt;termin&#45;modules</title>
<path fill="none" stroke="#666666" stroke-width="1.1" d="M229.54,-86.23C253.02,-76.86 283.07,-64.88 308.46,-54.76"/>
<polygon fill="#666666" stroke="#666666" stroke-width="1.1" points="309.55,-56.96 315.14,-52.09 307.74,-52.41 309.55,-56.96"/>
</g>
<!-- termin&#45;navmesh -->
<g id="node10" class="node">
<title>termin&#45;navmesh</title>
<path fill="#f7f7f7" stroke="#444444" d="M402,-120C402,-120 321,-120 321,-120 315,-120 309,-114 309,-108 309,-108 309,-96 309,-96 309,-90 315,-84 321,-84 321,-84 402,-84 402,-84 408,-84 414,-90 414,-96 414,-96 414,-108 414,-108 414,-114 408,-120 402,-120"/>
<text text-anchor="middle" x="361.5" y="-99.2" font-family="DejaVu Sans" font-size="11.00">termin&#45;navmesh</text>
</g>
<!-- termin&#45;base&#45;&gt;termin&#45;navmesh -->
<g id="edge14" class="edge">
<title>termin&#45;base&#45;&gt;termin&#45;navmesh</title>
<path fill="none" stroke="#666666" stroke-width="1.1" d="M229.54,-102C250.94,-102 277.79,-102 301.6,-102"/>
<polygon fill="#666666" stroke="#666666" stroke-width="1.1" points="301.88,-104.45 308.88,-102 301.88,-99.55 301.88,-104.45"/>
</g>
<!-- termin&#45;assets -->
<g id="node24" class="node">
<title>termin&#45;assets</title>
<path fill="#f7f7f7" stroke="#444444" d="M394.5,-540C394.5,-540 328.5,-540 328.5,-540 322.5,-540 316.5,-534 316.5,-528 316.5,-528 316.5,-516 316.5,-516 316.5,-510 322.5,-504 328.5,-504 328.5,-504 394.5,-504 394.5,-504 400.5,-504 406.5,-510 406.5,-516 406.5,-516 406.5,-528 406.5,-528 406.5,-534 400.5,-540 394.5,-540"/>
<text text-anchor="middle" x="361.5" y="-519.2" font-family="DejaVu Sans" font-size="11.00">termin&#45;assets</text>
</g>
<!-- termin&#45;base&#45;&gt;termin&#45;assets -->
<g id="edge9" class="edge">
<title>termin&#45;base&#45;&gt;termin&#45;assets</title>
<path fill="none" stroke="#666666" stroke-width="1.1" d="M218.38,-120.23C223.85,-124.83 229.09,-130.14 233,-136 284.96,-213.99 260.46,-250.07 290,-339 309.07,-396.4 335.62,-462.27 350.09,-497.2"/>
<polygon fill="#666666" stroke="#666666" stroke-width="1.1" points="347.87,-498.24 352.82,-503.76 352.39,-496.36 347.87,-498.24"/>
</g>
<!-- termin&#45;lighting -->
<g id="node29" class="node">
<title>termin&#45;lighting</title>
<path fill="#f7f7f7" stroke="#444444" d="M576,-730C576,-730 505,-730 505,-730 499,-730 493,-724 493,-718 493,-718 493,-706 493,-706 493,-700 499,-694 505,-694 505,-694 576,-694 576,-694 582,-694 588,-700 588,-706 588,-706 588,-718 588,-718 588,-724 582,-730 576,-730"/>
<text text-anchor="middle" x="540.5" y="-709.2" font-family="DejaVu Sans" font-size="11.00">termin&#45;lighting</text>
</g>
<!-- termin&#45;base&#45;&gt;termin&#45;lighting -->
<g id="edge11" class="edge">
<title>termin&#45;base&#45;&gt;termin&#45;lighting</title>
<path fill="none" stroke="#666666" stroke-width="1.1" d="M217.39,-120.25C223.06,-124.9 228.63,-130.24 233,-136 272.63,-188.2 247.88,-221.79 290,-272 338.57,-329.9 387.38,-303.75 433,-364 510.51,-466.38 532.08,-625.54 537.67,-686.79"/>
<polygon fill="#666666" stroke="#666666" stroke-width="1.1" points="535.23,-687.01 538.28,-693.77 540.11,-686.58 535.23,-687.01"/>
</g>
<!-- termin&#45;pga -->
<g id="node39" class="node">
<title>termin&#45;pga</title>
<path fill="#f7f7f7" stroke="#444444" d="M387,-749C387,-749 336,-749 336,-749 330,-749 324,-743 324,-737 324,-737 324,-725 324,-725 324,-719 330,-713 336,-713 336,-713 387,-713 387,-713 393,-713 399,-719 399,-725 399,-725 399,-737 399,-737 399,-743 393,-749 387,-749"/>
<text text-anchor="middle" x="361.5" y="-728.2" font-family="DejaVu Sans" font-size="11.00">termin&#45;pga</text>
</g>
<!-- termin&#45;base&#45;&gt;termin&#45;pga -->
<g id="edge15" class="edge">
<title>termin&#45;base&#45;&gt;termin&#45;pga</title>
<path fill="none" stroke="#666666" stroke-width="1.1" d="M219.6,-120.13C224.86,-124.67 229.71,-129.99 233,-136 353.48,-355.76 146.15,-491.78 290,-697 296.65,-706.49 306.7,-713.43 317.14,-718.47"/>
<polygon fill="#666666" stroke="#666666" stroke-width="1.1" points="316.27,-720.76 323.66,-721.36 318.26,-716.29 316.27,-720.76"/>
</g>
<!-- termin&#45;qopt -->
<g id="node40" class="node">
<title>termin&#45;qopt</title>
<path fill="#f7f7f7" stroke="#444444" d="M389,-681C389,-681 334,-681 334,-681 328,-681 322,-675 322,-669 322,-669 322,-657 322,-657 322,-651 328,-645 334,-645 334,-645 389,-645 389,-645 395,-645 401,-651 401,-657 401,-657 401,-669 401,-669 401,-675 395,-681 389,-681"/>
<text text-anchor="middle" x="361.5" y="-660.2" font-family="DejaVu Sans" font-size="11.00">termin&#45;qopt</text>
</g>
<!-- termin&#45;base&#45;&gt;termin&#45;qopt -->
<g id="edge16" class="edge">
<title>termin&#45;base&#45;&gt;termin&#45;qopt</title>
<path fill="none" stroke="#666666" stroke-width="1.1" d="M219.55,-120.16C224.82,-124.7 229.67,-130.01 233,-136 342.69,-333.45 146.16,-466.85 290,-641 296.37,-648.72 305.41,-653.77 314.9,-657.07"/>
<polygon fill="#666666" stroke="#666666" stroke-width="1.1" points="314.45,-659.5 321.86,-659.18 315.87,-654.81 314.45,-659.5"/>
</g>
<!-- termin&#45;collision -->
<g id="node4" class="node">
<title>termin&#45;collision</title>
<path fill="#f7f7f7" stroke="#444444" d="M746.5,-188C746.5,-188 671.5,-188 671.5,-188 665.5,-188 659.5,-182 659.5,-176 659.5,-176 659.5,-164 659.5,-164 659.5,-158 665.5,-152 671.5,-152 671.5,-152 746.5,-152 746.5,-152 752.5,-152 758.5,-158 758.5,-164 758.5,-164 758.5,-176 758.5,-176 758.5,-182 752.5,-188 746.5,-188"/>
<text text-anchor="middle" x="709" y="-167.2" font-family="DejaVu Sans" font-size="11.00">termin&#45;collision</text>
</g>
<!-- termin&#45;physics -->
<g id="node11" class="node">
<title>termin&#45;physics</title>
<path fill="#f7f7f7" stroke="#444444" d="M952.5,-135C952.5,-135 880.5,-135 880.5,-135 874.5,-135 868.5,-129 868.5,-123 868.5,-123 868.5,-111 868.5,-111 868.5,-105 874.5,-99 880.5,-99 880.5,-99 952.5,-99 952.5,-99 958.5,-99 964.5,-105 964.5,-111 964.5,-111 964.5,-123 964.5,-123 964.5,-129 958.5,-135 952.5,-135"/>
<text text-anchor="middle" x="916.5" y="-114.2" font-family="DejaVu Sans" font-size="11.00">termin&#45;physics</text>
</g>
<!-- termin&#45;collision&#45;&gt;termin&#45;physics -->
<g id="edge20" class="edge">
<title>termin&#45;collision&#45;&gt;termin&#45;physics</title>
<path fill="none" stroke="#666666" stroke-width="1.1" d="M758.7,-157.44C789.49,-149.5 829.32,-139.23 861.14,-131.02"/>
<polygon fill="#666666" stroke="#666666" stroke-width="1.1" points="862.04,-133.32 868.21,-129.2 860.82,-128.57 862.04,-133.32"/>
</g>
<!-- termin&#45;components&#45;collision -->
<g id="node18" class="node">
<title>termin&#45;components&#45;collision</title>
<path fill="#f7f7f7" stroke="#444444" d="M1234,-405C1234,-405 1088,-405 1088,-405 1082,-405 1076,-399 1076,-393 1076,-393 1076,-381 1076,-381 1076,-375 1082,-369 1088,-369 1088,-369 1234,-369 1234,-369 1240,-369 1246,-375 1246,-381 1246,-381 1246,-393 1246,-393 1246,-399 1240,-405 1234,-405"/>
<text text-anchor="middle" x="1161" y="-384.2" font-family="DejaVu Sans" font-size="11.00">termin&#45;components&#45;collision</text>
</g>
<!-- termin&#45;collision&#45;&gt;termin&#45;components&#45;collision -->
<g id="edge18" class="edge">
<title>termin&#45;collision&#45;&gt;termin&#45;components&#45;collision</title>
<path fill="none" stroke="#666666" stroke-width="1.1" d="M748,-188.02C768.8,-197.64 795.12,-209.44 819,-219 900.82,-251.76 931.97,-237.17 1006,-285 1041.12,-307.69 1036.18,-329.86 1071,-353 1078.47,-357.96 1086.76,-362.34 1095.19,-366.17"/>
<polygon fill="#666666" stroke="#666666" stroke-width="1.1" points="1094.26,-368.44 1101.66,-368.99 1096.22,-363.95 1094.26,-368.44"/>
</g>
<!-- termin&#45;android -->
<g id="node35" class="node">
<title>termin&#45;android</title>
<path fill="#f7f7f7" stroke="#444444" d="M1632.5,-983C1632.5,-983 1560.5,-983 1560.5,-983 1554.5,-983 1548.5,-977 1548.5,-971 1548.5,-971 1548.5,-959 1548.5,-959 1548.5,-953 1554.5,-947 1560.5,-947 1560.5,-947 1632.5,-947 1632.5,-947 1638.5,-947 1644.5,-953 1644.5,-959 1644.5,-959 1644.5,-971 1644.5,-971 1644.5,-977 1638.5,-983 1632.5,-983"/>
<text text-anchor="middle" x="1596.5" y="-962.2" font-family="DejaVu Sans" font-size="11.00">termin&#45;android</text>
</g>
<!-- termin&#45;collision&#45;&gt;termin&#45;android -->
<g id="edge17" class="edge">
<title>termin&#45;collision&#45;&gt;termin&#45;android</title>
<path fill="none" stroke="#666666" stroke-width="1.1" d="M746.52,-188.1C752.5,-192.54 758.03,-197.83 762,-204 852.11,-343.87 700.74,-456.96 819,-574 956.86,-710.45 1076.55,-551.2 1251,-636 1404.17,-710.46 1533.83,-878.01 1578.7,-940.71"/>
<polygon fill="#666666" stroke="#666666" stroke-width="1.1" points="1576.96,-942.5 1583.02,-946.79 1580.96,-939.66 1576.96,-942.5"/>
</g>
<!-- termin&#45;openxr -->
<g id="node38" class="node">
<title>termin&#45;openxr</title>
<path fill="#f7f7f7" stroke="#444444" d="M1631,-1051C1631,-1051 1562,-1051 1562,-1051 1556,-1051 1550,-1045 1550,-1039 1550,-1039 1550,-1027 1550,-1027 1550,-1021 1556,-1015 1562,-1015 1562,-1015 1631,-1015 1631,-1015 1637,-1015 1643,-1021 1643,-1027 1643,-1027 1643,-1039 1643,-1039 1643,-1045 1637,-1051 1631,-1051"/>
<text text-anchor="middle" x="1596.5" y="-1030.2" font-family="DejaVu Sans" font-size="11.00">termin&#45;openxr</text>
</g>
<!-- termin&#45;collision&#45;&gt;termin&#45;openxr -->
<g id="edge19" class="edge">
<title>termin&#45;collision&#45;&gt;termin&#45;openxr</title>
<path fill="none" stroke="#666666" stroke-width="1.1" d="M746.61,-188.04C752.58,-192.49 758.09,-197.8 762,-204 863.43,-364.83 683.93,-494.18 819,-628 887.73,-696.09 1179.98,-616.3 1251,-682 1356.58,-779.66 1210.26,-901.51 1316,-999 1377.17,-1055.39 1480.53,-1051.83 1542.96,-1043.11"/>
<polygon fill="#666666" stroke="#666666" stroke-width="1.1" points="1543.42,-1045.52 1549.99,-1042.08 1542.71,-1040.67 1543.42,-1045.52"/>
</g>
<!-- termin&#45;csg -->
<g id="node5" class="node">
<title>termin&#45;csg</title>
<path fill="#f7f7f7" stroke="#444444" d="M213.5,-256C213.5,-256 164.5,-256 164.5,-256 158.5,-256 152.5,-250 152.5,-244 152.5,-244 152.5,-232 152.5,-232 152.5,-226 158.5,-220 164.5,-220 164.5,-220 213.5,-220 213.5,-220 219.5,-220 225.5,-226 225.5,-232 225.5,-232 225.5,-244 225.5,-244 225.5,-250 219.5,-256 213.5,-256"/>
<text text-anchor="middle" x="189" y="-235.2" font-family="DejaVu Sans" font-size="11.00">termin&#45;csg</text>
</g>
<!-- termin&#45;components&#45;mesh -->
<g id="node20" class="node">
<title>termin&#45;components&#45;mesh</title>
<path fill="#f7f7f7" stroke="#444444" d="M982.5,-473C982.5,-473 850.5,-473 850.5,-473 844.5,-473 838.5,-467 838.5,-461 838.5,-461 838.5,-449 838.5,-449 838.5,-443 844.5,-437 850.5,-437 850.5,-437 982.5,-437 982.5,-437 988.5,-437 994.5,-443 994.5,-449 994.5,-449 994.5,-461 994.5,-461 994.5,-467 988.5,-473 982.5,-473"/>
<text text-anchor="middle" x="916.5" y="-452.2" font-family="DejaVu Sans" font-size="11.00">termin&#45;components&#45;mesh</text>
</g>
<!-- termin&#45;csg&#45;&gt;termin&#45;components&#45;mesh -->
<g id="edge32" class="edge">
<title>termin&#45;csg&#45;&gt;termin&#45;components&#45;mesh</title>
<path fill="none" stroke="#666666" stroke-width="1.1" d="M225.59,-250.25C244.67,-256.78 268.59,-264.91 290,-272 452.25,-325.73 491.68,-342.99 656,-390 714.21,-406.65 780.43,-423.2 831.41,-435.43"/>
<polygon fill="#666666" stroke="#666666" stroke-width="1.1" points="831.12,-437.88 838.5,-437.13 832.26,-433.12 831.12,-437.88"/>
</g>
<!-- termin&#45;input -->
<g id="node6" class="node">
<title>termin&#45;input</title>
<path fill="#f7f7f7" stroke="#444444" d="M738,-256C738,-256 680,-256 680,-256 674,-256 668,-250 668,-244 668,-244 668,-232 668,-232 668,-226 674,-220 680,-220 680,-220 738,-220 738,-220 744,-220 750,-226 750,-232 750,-232 750,-244 750,-244 750,-250 744,-256 738,-256"/>
<text text-anchor="middle" x="709" y="-235.2" font-family="DejaVu Sans" font-size="11.00">termin&#45;input</text>
</g>
<!-- termin&#45;display -->
<g id="node27" class="node">
<title>termin&#45;display</title>
<path fill="#f7f7f7" stroke="#444444" d="M951,-772C951,-772 882,-772 882,-772 876,-772 870,-766 870,-760 870,-760 870,-748 870,-748 870,-742 876,-736 882,-736 882,-736 951,-736 951,-736 957,-736 963,-742 963,-748 963,-748 963,-760 963,-760 963,-766 957,-772 951,-772"/>
<text text-anchor="middle" x="916.5" y="-751.2" font-family="DejaVu Sans" font-size="11.00">termin&#45;display</text>
</g>
<!-- termin&#45;input&#45;&gt;termin&#45;display -->
<g id="edge45" class="edge">
<title>termin&#45;input&#45;&gt;termin&#45;display</title>
<path fill="none" stroke="#666666" stroke-width="1.1" d="M710.01,-256.03C710.89,-320.36 721.24,-542.42 819,-686 832.16,-705.33 852.76,-720.94 871.55,-732.3"/>
<polygon fill="#666666" stroke="#666666" stroke-width="1.1" points="870.57,-734.56 877.84,-735.99 873.05,-730.34 870.57,-734.56"/>
</g>
<!-- termin&#45;scene -->
<g id="node12" class="node">
<title>termin&#45;scene</title>
<path fill="#f7f7f7" stroke="#444444" d="M572,-256C572,-256 509,-256 509,-256 503,-256 497,-250 497,-244 497,-244 497,-232 497,-232 497,-226 503,-220 509,-220 509,-220 572,-220 572,-220 578,-220 584,-226 584,-232 584,-232 584,-244 584,-244 584,-250 578,-256 572,-256"/>
<text text-anchor="middle" x="540.5" y="-235.2" font-family="DejaVu Sans" font-size="11.00">termin&#45;scene</text>
</g>
<!-- termin&#45;inspect&#45;&gt;termin&#45;scene -->
<g id="edge46" class="edge">
<title>termin&#45;inspect&#45;&gt;termin&#45;scene</title>
<path fill="none" stroke="#666666" stroke-width="1.1" d="M408.54,-187.69C433.55,-197.3 464.49,-209.18 490.02,-218.99"/>
<polygon fill="#666666" stroke="#666666" stroke-width="1.1" points="489.31,-221.34 496.73,-221.57 491.07,-216.77 489.31,-221.34"/>
</g>
<!-- termin&#45;graphics -->
<g id="node28" class="node">
<title>termin&#45;graphics</title>
<path fill="#f7f7f7" stroke="#444444" d="M579,-798C579,-798 502,-798 502,-798 496,-798 490,-792 490,-786 490,-786 490,-774 490,-774 490,-768 496,-762 502,-762 502,-762 579,-762 579,-762 585,-762 591,-768 591,-774 591,-774 591,-786 591,-786 591,-792 585,-798 579,-798"/>
<text text-anchor="middle" x="540.5" y="-777.2" font-family="DejaVu Sans" font-size="11.00">termin&#45;graphics</text>
</g>
<!-- termin&#45;mesh&#45;&gt;termin&#45;graphics -->
<g id="edge48" class="edge">
<title>termin&#45;mesh&#45;&gt;termin&#45;graphics</title>
<path fill="none" stroke="#666666" stroke-width="1.1" d="M375.64,-256.16C391.99,-279.76 419.41,-322.82 433,-364 486.66,-526.54 387.88,-603.03 482,-746 484.85,-750.33 488.46,-754.18 492.47,-757.59"/>
<polygon fill="#666666" stroke="#666666" stroke-width="1.1" points="491.12,-759.65 498.16,-761.98 494.11,-755.77 491.12,-759.65"/>
</g>
<!-- termin&#45;modules&#45;&gt;termin&#45;app -->
<g id="edge49" class="edge">
<title>termin&#45;modules&#45;&gt;termin&#45;app</title>
<path fill="none" stroke="#666666" stroke-width="1.1" d="M412.28,-34.23C479.42,-34.53 602.73,-35 708,-35 708,-35 708,-35 1162,-35 1345.65,-35 1388.21,-132.81 1491,-285 1569.95,-401.9 1589.47,-576.77 1594.11,-641.62"/>
<polygon fill="#666666" stroke="#666666" stroke-width="1.1" points="1591.69,-642.15 1594.61,-648.97 1596.58,-641.82 1591.69,-642.15"/>
</g>
<!-- termin&#45;navmesh&#45;&gt;termin&#45;app -->
<g id="edge51" class="edge">
<title>termin&#45;navmesh&#45;&gt;termin&#45;app</title>
<path fill="none" stroke="#666666" stroke-width="1.1" d="M414.1,-118.75C421.49,-123.26 428.2,-128.91 433,-136 520.13,-264.52 385.58,-711.3 482,-833 532.28,-896.47 575.94,-874.86 656,-887 753.01,-901.71 1214.84,-859.28 1251,-831 1316.03,-780.15 1248.18,-704.06 1316,-657 1386.34,-608.19 1492.39,-631.36 1551.58,-650.52"/>
<polygon fill="#666666" stroke="#666666" stroke-width="1.1" points="1551.14,-652.95 1558.56,-652.83 1552.68,-648.3 1551.14,-652.95"/>
</g>
<!-- termin&#45;components&#45;physics -->
<g id="node21" class="node">
<title>termin&#45;components&#45;physics</title>
<path fill="#f7f7f7" stroke="#444444" d="M1471,-348C1471,-348 1328,-348 1328,-348 1322,-348 1316,-342 1316,-336 1316,-336 1316,-324 1316,-324 1316,-318 1322,-312 1328,-312 1328,-312 1471,-312 1471,-312 1477,-312 1483,-318 1483,-324 1483,-324 1483,-336 1483,-336 1483,-342 1477,-348 1471,-348"/>
<text text-anchor="middle" x="1399.5" y="-327.2" font-family="DejaVu Sans" font-size="11.00">termin&#45;components&#45;physics</text>
</g>
<!-- termin&#45;physics&#45;&gt;termin&#45;components&#45;physics -->
<g id="edge53" class="edge">
<title>termin&#45;physics&#45;&gt;termin&#45;components&#45;physics</title>
<path fill="none" stroke="#666666" stroke-width="1.1" d="M964.56,-134.47C978.01,-139.63 992.64,-145.4 1006,-151 1134.04,-204.73 1282.49,-274.52 1354.63,-308.93"/>
<polygon fill="#666666" stroke="#666666" stroke-width="1.1" points="1353.58,-311.14 1360.95,-311.95 1355.69,-306.72 1353.58,-311.14"/>
</g>
<!-- termin&#45;scene&#45;&gt;termin&#45;collision -->
<g id="edge59" class="edge">
<title>termin&#45;scene&#45;&gt;termin&#45;collision</title>
<path fill="none" stroke="#666666" stroke-width="1.1" d="M584.38,-220.49C606.57,-211.43 633.8,-200.3 657.05,-190.81"/>
<polygon fill="#666666" stroke="#666666" stroke-width="1.1" points="658.26,-192.96 663.82,-188.04 656.41,-188.42 658.26,-192.96"/>
</g>
<!-- termin&#45;scene&#45;&gt;termin&#45;input -->
<g id="edge62" class="edge">
<title>termin&#45;scene&#45;&gt;termin&#45;input</title>
<path fill="none" stroke="#666666" stroke-width="1.1" d="M584.38,-238C607.69,-238 636.58,-238 660.57,-238"/>
<polygon fill="#666666" stroke="#666666" stroke-width="1.1" points="660.84,-240.45 667.84,-238 660.84,-235.55 660.84,-240.45"/>
</g>
<!-- termin&#45;skeleton -->
<g id="node13" class="node">
<title>termin&#45;skeleton</title>
<path fill="#f7f7f7" stroke="#444444" d="M747.5,-120C747.5,-120 670.5,-120 670.5,-120 664.5,-120 658.5,-114 658.5,-108 658.5,-108 658.5,-96 658.5,-96 658.5,-90 664.5,-84 670.5,-84 670.5,-84 747.5,-84 747.5,-84 753.5,-84 759.5,-90 759.5,-96 759.5,-96 759.5,-108 759.5,-108 759.5,-114 753.5,-120 747.5,-120"/>
<text text-anchor="middle" x="709" y="-99.2" font-family="DejaVu Sans" font-size="11.00">termin&#45;skeleton</text>
</g>
<!-- termin&#45;scene&#45;&gt;termin&#45;skeleton -->
<g id="edge64" class="edge">
<title>termin&#45;scene&#45;&gt;termin&#45;skeleton</title>
<path fill="none" stroke="#666666" stroke-width="1.1" d="M560.2,-219.77C582.27,-198.62 620.49,-163.19 656,-136 661.22,-132 666.9,-127.98 672.53,-124.18"/>
<polygon fill="#666666" stroke="#666666" stroke-width="1.1" points="674.12,-126.06 678.59,-120.14 671.41,-121.98 674.12,-126.06"/>
</g>
<!-- termin&#45;components&#45;kinematic -->
<g id="node19" class="node">
<title>termin&#45;components&#45;kinematic</title>
<path fill="#f7f7f7" stroke="#444444" d="M994,-405C994,-405 839,-405 839,-405 833,-405 827,-399 827,-393 827,-393 827,-381 827,-381 827,-375 833,-369 839,-369 839,-369 994,-369 994,-369 1000,-369 1006,-375 1006,-381 1006,-381 1006,-393 1006,-393 1006,-399 1000,-405 994,-405"/>
<text text-anchor="middle" x="916.5" y="-384.2" font-family="DejaVu Sans" font-size="11.00">termin&#45;components&#45;kinematic</text>
</g>
<!-- termin&#45;scene&#45;&gt;termin&#45;components&#45;kinematic -->
<g id="edge60" class="edge">
<title>termin&#45;scene&#45;&gt;termin&#45;components&#45;kinematic</title>
<path fill="none" stroke="#666666" stroke-width="1.1" d="M583.06,-256.05C637.08,-279.32 734.51,-320.63 819,-353 830.9,-357.56 843.7,-362.23 855.97,-366.59"/>
<polygon fill="#666666" stroke="#666666" stroke-width="1.1" points="855.31,-368.96 862.72,-368.99 856.94,-364.34 855.31,-368.96"/>
</g>
<!-- termin&#45;scene&#45;&gt;termin&#45;components&#45;mesh -->
<g id="edge61" class="edge">
<title>termin&#45;scene&#45;&gt;termin&#45;components&#45;mesh</title>
<path fill="none" stroke="#666666" stroke-width="1.1" d="M560.77,-256.32C582.76,-276.69 620.31,-309.9 656,-334 724.05,-379.96 743.84,-387.93 819,-421 829.81,-425.75 841.5,-430.33 852.9,-434.5"/>
<polygon fill="#666666" stroke="#666666" stroke-width="1.1" points="852.16,-436.84 859.57,-436.91 853.82,-432.23 852.16,-436.84"/>
</g>
<!-- termin&#45;render -->
<g id="node30" class="node">
<title>termin&#45;render</title>
<path fill="#f7f7f7" stroke="#444444" d="M742,-772C742,-772 676,-772 676,-772 670,-772 664,-766 664,-760 664,-760 664,-748 664,-748 664,-742 670,-736 676,-736 676,-736 742,-736 742,-736 748,-736 754,-742 754,-748 754,-748 754,-760 754,-760 754,-766 748,-772 742,-772"/>
<text text-anchor="middle" x="709" y="-751.2" font-family="DejaVu Sans" font-size="11.00">termin&#45;render</text>
</g>
<!-- termin&#45;scene&#45;&gt;termin&#45;render -->
<g id="edge63" class="edge">
<title>termin&#45;scene&#45;&gt;termin&#45;render</title>
<path fill="none" stroke="#666666" stroke-width="1.1" d="M547.33,-256.06C572.38,-333.69 670.93,-639.13 699.93,-729"/>
<polygon fill="#666666" stroke="#666666" stroke-width="1.1" points="697.65,-729.91 702.13,-735.82 702.31,-728.4 697.65,-729.91"/>
</g>
<!-- termin&#45;skeleton&#45;&gt;termin&#45;animation -->
<g id="edge65" class="edge">
<title>termin&#45;skeleton&#45;&gt;termin&#45;animation</title>
<path fill="none" stroke="#666666" stroke-width="1.1" d="M748,-120.03C768.79,-129.65 795.11,-141.44 819,-151 830.62,-155.65 843.15,-160.31 855.21,-164.63"/>
<polygon fill="#666666" stroke="#666666" stroke-width="1.1" points="854.44,-166.96 861.86,-167 856.08,-162.34 854.44,-166.96"/>
</g>
<!-- termin&#45;components&#45;skeleton -->
<g id="node22" class="node">
<title>termin&#45;components&#45;skeleton</title>
<path fill="#f7f7f7" stroke="#444444" d="M990.5,-337C990.5,-337 842.5,-337 842.5,-337 836.5,-337 830.5,-331 830.5,-325 830.5,-325 830.5,-313 830.5,-313 830.5,-307 836.5,-301 842.5,-301 842.5,-301 990.5,-301 990.5,-301 996.5,-301 1002.5,-307 1002.5,-313 1002.5,-313 1002.5,-325 1002.5,-325 1002.5,-331 996.5,-337 990.5,-337"/>
<text text-anchor="middle" x="916.5" y="-316.2" font-family="DejaVu Sans" font-size="11.00">termin&#45;components&#45;skeleton</text>
</g>
<!-- termin&#45;skeleton&#45;&gt;termin&#45;components&#45;skeleton -->
<g id="edge66" class="edge">
<title>termin&#45;skeleton&#45;&gt;termin&#45;components&#45;skeleton</title>
<path fill="none" stroke="#666666" stroke-width="1.1" d="M744.5,-120.01C750.95,-124.56 757.18,-129.91 762,-136 808.1,-194.19 764.32,-242.79 819,-293 820.73,-294.58 822.54,-296.07 824.42,-297.47"/>
<polygon fill="#666666" stroke="#666666" stroke-width="1.1" points="823.1,-299.54 830.28,-301.41 825.84,-295.47 823.1,-299.54"/>
</g>
<!-- termin&#45;tween -->
<g id="node14" class="node">
<title>termin&#45;tween</title>
<path fill="#f7f7f7" stroke="#444444" d="M221,-188C221,-188 157,-188 157,-188 151,-188 145,-182 145,-176 145,-176 145,-164 145,-164 145,-158 151,-152 157,-152 157,-152 221,-152 221,-152 227,-152 233,-158 233,-164 233,-164 233,-176 233,-176 233,-182 227,-188 221,-188"/>
<text text-anchor="middle" x="189" y="-167.2" font-family="DejaVu Sans" font-size="11.00">termin&#45;tween</text>
</g>
<!-- termin&#45;components&#45;tween -->
<g id="node23" class="node">
<title>termin&#45;components&#45;tween</title>
<path fill="#f7f7f7" stroke="#444444" d="M984,-541C984,-541 849,-541 849,-541 843,-541 837,-535 837,-529 837,-529 837,-517 837,-517 837,-511 843,-505 849,-505 849,-505 984,-505 984,-505 990,-505 996,-511 996,-517 996,-517 996,-529 996,-529 996,-535 990,-541 984,-541"/>
<text text-anchor="middle" x="916.5" y="-520.2" font-family="DejaVu Sans" font-size="11.00">termin&#45;components&#45;tween</text>
</g>
<!-- termin&#45;tween&#45;&gt;termin&#45;components&#45;tween -->
<g id="edge67" class="edge">
<title>termin&#45;tween&#45;&gt;termin&#45;components&#45;tween</title>
<path fill="none" stroke="#666666" stroke-width="1.1" d="M217.43,-188.22C223.09,-192.88 228.65,-198.22 233,-204 273.17,-257.34 253.2,-287.29 290,-343 339.89,-418.52 392.87,-406.87 433,-488 502.06,-627.61 380.44,-716.92 482,-835 564.54,-930.96 661.41,-963.83 762,-887 838.52,-828.56 780.48,-766.24 819,-678 840.55,-628.64 876,-576.52 897.41,-547.05"/>
<polygon fill="#666666" stroke="#666666" stroke-width="1.1" points="899.6,-548.21 901.76,-541.11 895.65,-545.31 899.6,-548.21"/>
</g>
<!-- termin -->
<g id="node15" class="node">
<title>termin</title>
<path fill="#f7f7f7" stroke="#444444" d="M59,-188C59,-188 29,-188 29,-188 23,-188 17,-182 17,-176 17,-176 17,-164 17,-164 17,-158 23,-152 29,-152 29,-152 59,-152 59,-152 65,-152 71,-158 71,-164 71,-164 71,-176 71,-176 71,-182 65,-188 59,-188"/>
<text text-anchor="middle" x="44" y="-167.2" font-family="DejaVu Sans" font-size="11.00">termin</text>
</g>
<!-- termin&#45;&gt;termin&#45;app -->
<g id="edge2" class="edge">
<title>termin&#45;&gt;termin&#45;app</title>
<path fill="none" stroke="#666666" stroke-width="1.1" d="M45.96,-188.35C54.14,-334.85 117.61,-1309 360.5,-1309 360.5,-1309 360.5,-1309 710,-1309 841.89,-1309 883.77,-1337.53 1006,-1288 1137.85,-1234.57 1166.15,-1196.19 1251,-1082 1294.58,-1023.35 1271.71,-989.11 1316,-931 1376.38,-851.78 1419.68,-860.53 1491,-791 1524.17,-758.66 1557.88,-716.66 1577.72,-690.78"/>
<polygon fill="#666666" stroke="#666666" stroke-width="1.1" points="1579.68,-692.25 1581.98,-685.2 1575.79,-689.28 1579.68,-692.25"/>
</g>
<!-- termin&#45;&gt;termin&#45;navmesh -->
<g id="edge3" class="edge">
<title>termin&#45;&gt;termin&#45;navmesh</title>
<path fill="none" stroke="#666666" stroke-width="1.1" d="M54.86,-151.75C69.22,-127.35 98.43,-85.15 137,-68 195.11,-42.16 269.19,-62.65 315.75,-81.17"/>
<polygon fill="#666666" stroke="#666666" stroke-width="1.1" points="315.01,-83.52 322.42,-83.89 316.86,-78.98 315.01,-83.52"/>
</g>
<!-- termin&#45;&gt;termin&#45;tween -->
<g id="edge4" class="edge">
<title>termin&#45;&gt;termin&#45;tween</title>
<path fill="none" stroke="#666666" stroke-width="1.1" d="M71.23,-170C89.78,-170 115.24,-170 137.66,-170"/>
<polygon fill="#666666" stroke="#666666" stroke-width="1.1" points="137.81,-172.45 144.81,-170 137.81,-167.55 137.81,-172.45"/>
</g>
<!-- termin&#45;components&#45;animation&#45;&gt;termin&#45;app -->
<g id="edge21" class="edge">
<title>termin&#45;components&#45;animation&#45;&gt;termin&#45;app</title>
<path fill="none" stroke="#666666" stroke-width="1.1" d="M1219.48,-337.1C1308.17,-365.44 1470.38,-418.98 1491,-438 1552.6,-494.8 1580.55,-594.98 1590.7,-641.7"/>
<polygon fill="#666666" stroke="#666666" stroke-width="1.1" points="1588.34,-642.37 1592.18,-648.72 1593.13,-641.36 1588.34,-642.37"/>
</g>
<!-- termin&#45;components&#45;collision&#45;&gt;termin&#45;components&#45;physics -->
<g id="edge22" class="edge">
<title>termin&#45;components&#45;collision&#45;&gt;termin&#45;components&#45;physics</title>
<path fill="none" stroke="#666666" stroke-width="1.1" d="M1236.83,-368.96C1262.3,-362.83 1290.88,-355.94 1316.85,-349.68"/>
<polygon fill="#666666" stroke="#666666" stroke-width="1.1" points="1317.52,-352.04 1323.75,-348.02 1316.37,-347.27 1317.52,-352.04"/>
</g>
<!-- termin&#45;components&#45;kinematic&#45;&gt;termin&#45;app -->
<g id="edge23" class="edge">
<title>termin&#45;components&#45;kinematic&#45;&gt;termin&#45;app</title>
<path fill="none" stroke="#666666" stroke-width="1.1" d="M995.67,-405.05C1132.02,-437.38 1406.81,-506.6 1491,-558 1527.46,-580.26 1559.84,-618.34 1578.56,-643.08"/>
<polygon fill="#666666" stroke="#666666" stroke-width="1.1" points="1576.65,-644.62 1582.8,-648.76 1580.58,-641.69 1576.65,-644.62"/>
</g>
<!-- termin&#45;components&#45;mesh&#45;&gt;termin&#45;components&#45;collision -->
<g id="edge24" class="edge">
<title>termin&#45;components&#45;mesh&#45;&gt;termin&#45;components&#45;collision</title>
<path fill="none" stroke="#666666" stroke-width="1.1" d="M981.85,-436.96C1014.73,-427.74 1054.83,-416.49 1088.65,-407.01"/>
<polygon fill="#666666" stroke="#666666" stroke-width="1.1" points="1089.69,-409.26 1095.77,-405.01 1088.37,-404.54 1089.69,-409.26"/>
</g>
<!-- termin&#45;components&#45;render -->
<g id="node26" class="node">
<title>termin&#45;components&#45;render</title>
<path fill="#f7f7f7" stroke="#444444" d="M1230,-772C1230,-772 1092,-772 1092,-772 1086,-772 1080,-766 1080,-760 1080,-760 1080,-748 1080,-748 1080,-742 1086,-736 1092,-736 1092,-736 1230,-736 1230,-736 1236,-736 1242,-742 1242,-748 1242,-748 1242,-760 1242,-760 1242,-766 1236,-772 1230,-772"/>
<text text-anchor="middle" x="1161" y="-751.2" font-family="DejaVu Sans" font-size="11.00">termin&#45;components&#45;render</text>
</g>
<!-- termin&#45;components&#45;mesh&#45;&gt;termin&#45;components&#45;render -->
<g id="edge25" class="edge">
<title>termin&#45;components&#45;mesh&#45;&gt;termin&#45;components&#45;render</title>
<path fill="none" stroke="#666666" stroke-width="1.1" d="M980.47,-473.01C989.63,-477.33 998.48,-482.6 1006,-489 1047.15,-524.05 1119.98,-670.38 1148.29,-729.28"/>
<polygon fill="#666666" stroke="#666666" stroke-width="1.1" points="1146.13,-730.43 1151.36,-735.69 1150.54,-728.32 1146.13,-730.43"/>
</g>
<!-- termin&#45;components&#45;physics&#45;&gt;termin&#45;app -->
<g id="edge26" class="edge">
<title>termin&#45;components&#45;physics&#45;&gt;termin&#45;app</title>
<path fill="none" stroke="#666666" stroke-width="1.1" d="M1457.73,-348.19C1469.95,-354.21 1481.91,-362.01 1491,-372 1563.97,-452.18 1586.68,-586.6 1593.14,-641.98"/>
<polygon fill="#666666" stroke="#666666" stroke-width="1.1" points="1590.71,-642.27 1593.92,-648.95 1595.58,-641.73 1590.71,-642.27"/>
</g>
<!-- termin&#45;components&#45;skeleton&#45;&gt;termin&#45;components&#45;animation -->
<g id="edge29" class="edge">
<title>termin&#45;components&#45;skeleton&#45;&gt;termin&#45;components&#45;animation</title>
<path fill="none" stroke="#666666" stroke-width="1.1" d="M1002.66,-319C1022.43,-319 1043.62,-319 1063.83,-319"/>
<polygon fill="#666666" stroke="#666666" stroke-width="1.1" points="1063.94,-321.45 1070.94,-319 1063.94,-316.55 1063.94,-321.45"/>
</g>
<!-- termin&#45;components&#45;skeleton&#45;&gt;termin&#45;components&#45;render -->
<g id="edge30" class="edge">
<title>termin&#45;components&#45;skeleton&#45;&gt;termin&#45;components&#45;render</title>
<path fill="none" stroke="#666666" stroke-width="1.1" d="M985.06,-337.11C992.85,-341.35 1000.1,-346.57 1006,-353 1076.39,-429.68 1032.9,-481.13 1071,-578 1093.03,-634.01 1126.77,-696.08 1145.75,-729.49"/>
<polygon fill="#666666" stroke="#666666" stroke-width="1.1" points="1143.74,-730.91 1149.34,-735.77 1148,-728.48 1143.74,-730.91"/>
</g>
<!-- termin&#45;components&#45;tween&#45;&gt;termin&#45;app -->
<g id="edge31" class="edge">
<title>termin&#45;components&#45;tween&#45;&gt;termin&#45;app</title>
<path fill="none" stroke="#666666" stroke-width="1.1" d="M996.2,-525.66C1108.78,-531.48 1320.97,-550.02 1491,-609 1516.4,-617.81 1542.87,-632.57 1562.81,-644.99"/>
<polygon fill="#666666" stroke="#666666" stroke-width="1.1" points="1561.55,-647.09 1568.78,-648.76 1564.17,-642.95 1561.55,-647.09"/>
</g>
<!-- termin&#45;assets&#45;&gt;termin&#45;app -->
<g id="edge7" class="edge">
<title>termin&#45;assets&#45;&gt;termin&#45;app</title>
<path fill="none" stroke="#666666" stroke-width="1.1" d="M406.66,-534.98C416.79,-539.98 426.49,-546.79 433,-556 548.59,-719.58 351.34,-852.19 482,-1004 534.18,-1064.63 576.68,-1039.69 656,-1050 810.65,-1070.1 858.1,-1074.47 1006,-1025 1126.65,-984.65 1167.97,-973.38 1251,-877 1300.02,-820.09 1257.76,-768.43 1316,-721 1383.94,-665.67 1491.83,-661.08 1551.75,-663.48"/>
<polygon fill="#666666" stroke="#666666" stroke-width="1.1" points="1551.71,-665.94 1558.82,-663.81 1551.94,-661.04 1551.71,-665.94"/>
</g>
<!-- termin&#45;components&#45;foliage -->
<g id="node36" class="node">
<title>termin&#45;components&#45;foliage</title>
<path fill="#f7f7f7" stroke="#444444" d="M985.5,-1009C985.5,-1009 847.5,-1009 847.5,-1009 841.5,-1009 835.5,-1003 835.5,-997 835.5,-997 835.5,-985 835.5,-985 835.5,-979 841.5,-973 847.5,-973 847.5,-973 985.5,-973 985.5,-973 991.5,-973 997.5,-979 997.5,-985 997.5,-985 997.5,-997 997.5,-997 997.5,-1003 991.5,-1009 985.5,-1009"/>
<text text-anchor="middle" x="916.5" y="-988.2" font-family="DejaVu Sans" font-size="11.00">termin&#45;components&#45;foliage</text>
</g>
<!-- termin&#45;assets&#45;&gt;termin&#45;components&#45;foliage -->
<g id="edge8" class="edge">
<title>termin&#45;assets&#45;&gt;termin&#45;components&#45;foliage</title>
<path fill="none" stroke="#666666" stroke-width="1.1" d="M406.55,-535.05C416.69,-540.05 426.42,-546.84 433,-556 534.73,-697.48 374.23,-808.07 482,-945 564.96,-1050.41 740.85,-1031.91 841.22,-1010.55"/>
<polygon fill="#666666" stroke="#666666" stroke-width="1.1" points="841.99,-1012.89 848.31,-1009.01 840.95,-1008.1 841.99,-1012.89"/>
</g>
<!-- termin&#45;nanobind&#45;sdk -->
<g id="node25" class="node">
<title>termin&#45;nanobind&#45;sdk</title>
<path fill="#f7f7f7" stroke="#444444" d="M413,-608C413,-608 310,-608 310,-608 304,-608 298,-602 298,-596 298,-596 298,-584 298,-584 298,-578 304,-572 310,-572 310,-572 413,-572 413,-572 419,-572 425,-578 425,-584 425,-584 425,-596 425,-596 425,-602 419,-608 413,-608"/>
<text text-anchor="middle" x="361.5" y="-587.2" font-family="DejaVu Sans" font-size="11.00">termin&#45;nanobind&#45;sdk</text>
</g>
<!-- termin&#45;nanobind&#45;sdk&#45;&gt;termin&#45;base -->
<g id="edge50" class="edge">
<title>termin&#45;nanobind&#45;sdk&#45;&gt;termin&#45;base</title>
<path fill="none" stroke="#666666" stroke-width="1.1" d="M307.53,-571.89C300.78,-567.61 294.63,-562.38 290,-556 179.3,-403.58 326.33,-299.63 233,-136 230.77,-132.09 227.9,-128.47 224.7,-125.16"/>
<polygon fill="#666666" stroke="#666666" stroke-width="1.1" points="226.23,-123.23 219.45,-120.22 222.87,-126.8 226.23,-123.23"/>
</g>
<!-- termin&#45;render&#45;passes -->
<g id="node41" class="node">
<title>termin&#45;render&#45;passes</title>
<path fill="#f7f7f7" stroke="#444444" d="M1453.5,-983C1453.5,-983 1345.5,-983 1345.5,-983 1339.5,-983 1333.5,-977 1333.5,-971 1333.5,-971 1333.5,-959 1333.5,-959 1333.5,-953 1339.5,-947 1345.5,-947 1345.5,-947 1453.5,-947 1453.5,-947 1459.5,-947 1465.5,-953 1465.5,-959 1465.5,-959 1465.5,-971 1465.5,-971 1465.5,-977 1459.5,-983 1453.5,-983"/>
<text text-anchor="middle" x="1399.5" y="-962.2" font-family="DejaVu Sans" font-size="11.00">termin&#45;render&#45;passes</text>
</g>
<!-- termin&#45;components&#45;render&#45;&gt;termin&#45;render&#45;passes -->
<g id="edge27" class="edge">
<title>termin&#45;components&#45;render&#45;&gt;termin&#45;render&#45;passes</title>
<path fill="none" stroke="#666666" stroke-width="1.1" d="M1174.89,-772C1199.36,-805.21 1255.55,-876.91 1316,-923 1326.14,-930.73 1337.91,-937.7 1349.34,-943.64"/>
<polygon fill="#666666" stroke="#666666" stroke-width="1.1" points="1348.28,-945.85 1355.63,-946.83 1350.5,-941.48 1348.28,-945.85"/>
</g>
<!-- termin&#45;runtime -->
<g id="node42" class="node">
<title>termin&#45;runtime</title>
<path fill="#f7f7f7" stroke="#444444" d="M1633,-1154C1633,-1154 1560,-1154 1560,-1154 1554,-1154 1548,-1148 1548,-1142 1548,-1142 1548,-1130 1548,-1130 1548,-1124 1554,-1118 1560,-1118 1560,-1118 1633,-1118 1633,-1118 1639,-1118 1645,-1124 1645,-1130 1645,-1130 1645,-1142 1645,-1142 1645,-1148 1639,-1154 1633,-1154"/>
<text text-anchor="middle" x="1596.5" y="-1133.2" font-family="DejaVu Sans" font-size="11.00">termin&#45;runtime</text>
</g>
<!-- termin&#45;components&#45;render&#45;&gt;termin&#45;runtime -->
<g id="edge28" class="edge">
<title>termin&#45;components&#45;render&#45;&gt;termin&#45;runtime</title>
<path fill="none" stroke="#666666" stroke-width="1.1" d="M1162.42,-772.03C1165.01,-836.91 1183.58,-1059.41 1316,-1150 1383.19,-1195.96 1482.15,-1175.76 1542.51,-1156.32"/>
<polygon fill="#666666" stroke="#666666" stroke-width="1.1" points="1543.44,-1158.6 1549.32,-1154.08 1541.9,-1153.94 1543.44,-1158.6"/>
</g>
<!-- termin&#45;display&#45;&gt;termin&#45;components&#45;render -->
<g id="edge33" class="edge">
<title>termin&#45;display&#45;&gt;termin&#45;components&#45;render</title>
<path fill="none" stroke="#666666" stroke-width="1.1" d="M963.11,-754C993.85,-754 1035.4,-754 1072.4,-754"/>
<polygon fill="#666666" stroke="#666666" stroke-width="1.1" points="1072.73,-756.45 1079.73,-754 1072.73,-751.55 1072.73,-756.45"/>
</g>
<!-- termin&#45;engine -->
<g id="node31" class="node">
<title>termin&#45;engine</title>
<path fill="#f7f7f7" stroke="#444444" d="M1433,-1117C1433,-1117 1366,-1117 1366,-1117 1360,-1117 1354,-1111 1354,-1105 1354,-1105 1354,-1093 1354,-1093 1354,-1087 1360,-1081 1366,-1081 1366,-1081 1433,-1081 1433,-1081 1439,-1081 1445,-1087 1445,-1093 1445,-1093 1445,-1105 1445,-1105 1445,-1111 1439,-1117 1433,-1117"/>
<text text-anchor="middle" x="1399.5" y="-1096.2" font-family="DejaVu Sans" font-size="11.00">termin&#45;engine</text>
</g>
<!-- termin&#45;display&#45;&gt;termin&#45;engine -->
<g id="edge34" class="edge">
<title>termin&#45;display&#45;&gt;termin&#45;engine</title>
<path fill="none" stroke="#666666" stroke-width="1.1" d="M938.54,-772.18C996.31,-821.61 1163.25,-961.13 1316,-1057 1327.71,-1064.35 1340.86,-1071.5 1353.17,-1077.76"/>
<polygon fill="#666666" stroke="#666666" stroke-width="1.1" points="1352.16,-1079.99 1359.51,-1080.94 1354.36,-1075.61 1352.16,-1079.99"/>
</g>
<!-- termin&#45;graphics&#45;&gt;termin&#45;render -->
<g id="edge41" class="edge">
<title>termin&#45;graphics&#45;&gt;termin&#45;render</title>
<path fill="none" stroke="#666666" stroke-width="1.1" d="M591,-772.27C611.76,-769.03 635.88,-765.26 656.82,-761.99"/>
<polygon fill="#666666" stroke="#666666" stroke-width="1.1" points="657.25,-764.41 663.78,-760.9 656.49,-759.56 657.25,-764.41"/>
</g>
<!-- termin&#45;gui -->
<g id="node33" class="node">
<title>termin&#45;gui</title>
<path fill="#f7f7f7" stroke="#444444" d="M732.5,-1203C732.5,-1203 685.5,-1203 685.5,-1203 679.5,-1203 673.5,-1197 673.5,-1191 673.5,-1191 673.5,-1179 673.5,-1179 673.5,-1173 679.5,-1167 685.5,-1167 685.5,-1167 732.5,-1167 732.5,-1167 738.5,-1167 744.5,-1173 744.5,-1179 744.5,-1179 744.5,-1191 744.5,-1191 744.5,-1197 738.5,-1203 732.5,-1203"/>
<text text-anchor="middle" x="709" y="-1182.2" font-family="DejaVu Sans" font-size="11.00">termin&#45;gui</text>
</g>
<!-- termin&#45;graphics&#45;&gt;termin&#45;gui -->
<g id="edge39" class="edge">
<title>termin&#45;graphics&#45;&gt;termin&#45;gui</title>
<path fill="none" stroke="#666666" stroke-width="1.1" d="M548.98,-798.19C575.77,-863.35 666.97,-1085.21 697.76,-1160.08"/>
<polygon fill="#666666" stroke="#666666" stroke-width="1.1" points="695.62,-1161.32 700.54,-1166.86 700.15,-1159.46 695.62,-1161.32"/>
</g>
<!-- termin&#45;materials -->
<g id="node37" class="node">
<title>termin&#45;materials</title>
<path fill="#f7f7f7" stroke="#444444" d="M750,-871C750,-871 668,-871 668,-871 662,-871 656,-865 656,-859 656,-859 656,-847 656,-847 656,-841 662,-835 668,-835 668,-835 750,-835 750,-835 756,-835 762,-841 762,-847 762,-847 762,-859 762,-859 762,-865 756,-871 750,-871"/>
<text text-anchor="middle" x="709" y="-850.2" font-family="DejaVu Sans" font-size="11.00">termin&#45;materials</text>
</g>
<!-- termin&#45;graphics&#45;&gt;termin&#45;materials -->
<g id="edge40" class="edge">
<title>termin&#45;graphics&#45;&gt;termin&#45;materials</title>
<path fill="none" stroke="#666666" stroke-width="1.1" d="M581.43,-798C603.39,-807.85 631.15,-820.21 656,-831 656.83,-831.36 657.68,-831.73 658.53,-832.09"/>
<polygon fill="#666666" stroke="#666666" stroke-width="1.1" points="657.73,-834.42 665.12,-834.94 659.66,-829.92 657.73,-834.42"/>
</g>
<!-- termin&#45;lighting&#45;&gt;termin&#45;render -->
<g id="edge47" class="edge">
<title>termin&#45;lighting&#45;&gt;termin&#45;render</title>
<path fill="none" stroke="#666666" stroke-width="1.1" d="M588.32,-723.81C609.67,-729.2 635.01,-735.59 656.85,-741.1"/>
<polygon fill="#666666" stroke="#666666" stroke-width="1.1" points="656.43,-743.52 663.82,-742.85 657.63,-738.77 656.43,-743.52"/>
</g>
<!-- termin&#45;render&#45;&gt;termin&#45;display -->
<g id="edge55" class="edge">
<title>termin&#45;render&#45;&gt;termin&#45;display</title>
<path fill="none" stroke="#666666" stroke-width="1.1" d="M754.08,-754C785.9,-754 829.01,-754 862.68,-754"/>
<polygon fill="#666666" stroke="#666666" stroke-width="1.1" points="862.71,-756.45 869.71,-754 862.71,-751.55 862.71,-756.45"/>
</g>
<!-- termin&#45;render&#45;&gt;termin&#45;components&#45;foliage -->
<g id="edge54" class="edge">
<title>termin&#45;render&#45;&gt;termin&#45;components&#45;foliage</title>
<path fill="none" stroke="#666666" stroke-width="1.1" d="M725.78,-772.2C762.54,-814.6 853.84,-919.89 894.91,-967.25"/>
<polygon fill="#666666" stroke="#666666" stroke-width="1.1" points="893.23,-969.05 899.66,-972.73 896.93,-965.84 893.23,-969.05"/>
</g>
<!-- termin&#45;engine&#45;&gt;termin&#45;app -->
<g id="edge36" class="edge">
<title>termin&#45;engine&#45;&gt;termin&#45;app</title>
<path fill="none" stroke="#666666" stroke-width="1.1" d="M1421.66,-1080.72C1442.06,-1062.06 1472.49,-1031.3 1491,-999 1551.23,-893.88 1581.21,-749.77 1591.39,-692.23"/>
<polygon fill="#666666" stroke="#666666" stroke-width="1.1" points="1593.86,-692.33 1592.64,-685.01 1589.03,-691.49 1593.86,-692.33"/>
</g>
<!-- termin&#45;engine&#45;&gt;termin&#45;android -->
<g id="edge35" class="edge">
<title>termin&#45;engine&#45;&gt;termin&#45;android</title>
<path fill="none" stroke="#666666" stroke-width="1.1" d="M1426.8,-1080.93C1462.13,-1056.65 1524.87,-1013.53 1563.08,-987.28"/>
<polygon fill="#666666" stroke="#666666" stroke-width="1.1" points="1564.61,-989.2 1569,-983.21 1561.84,-985.16 1564.61,-989.2"/>
</g>
<!-- termin&#45;engine&#45;&gt;termin&#45;openxr -->
<g id="edge37" class="edge">
<title>termin&#45;engine&#45;&gt;termin&#45;openxr</title>
<path fill="none" stroke="#666666" stroke-width="1.1" d="M1445.24,-1083.86C1474.4,-1073.99 1512.58,-1061.06 1543.16,-1050.72"/>
<polygon fill="#666666" stroke="#666666" stroke-width="1.1" points="1544.11,-1052.98 1549.96,-1048.41 1542.54,-1048.34 1544.11,-1052.98"/>
</g>
<!-- termin&#45;engine&#45;&gt;termin&#45;runtime -->
<g id="edge38" class="edge">
<title>termin&#45;engine&#45;&gt;termin&#45;runtime</title>
<path fill="none" stroke="#666666" stroke-width="1.1" d="M1445.24,-1107.49C1473.66,-1112.88 1510.63,-1119.9 1540.79,-1125.62"/>
<polygon fill="#666666" stroke="#666666" stroke-width="1.1" points="1540.57,-1128.07 1547.91,-1126.97 1541.49,-1123.26 1540.57,-1128.07"/>
</g>
<!-- tcplot -->
<g id="node32" class="node">
<title>tcplot</title>
<path fill="#f7f7f7" stroke="#444444" d="M931.5,-1255C931.5,-1255 901.5,-1255 901.5,-1255 895.5,-1255 889.5,-1249 889.5,-1243 889.5,-1243 889.5,-1231 889.5,-1231 889.5,-1225 895.5,-1219 901.5,-1219 901.5,-1219 931.5,-1219 931.5,-1219 937.5,-1219 943.5,-1225 943.5,-1231 943.5,-1231 943.5,-1243 943.5,-1243 943.5,-1249 937.5,-1255 931.5,-1255"/>
<text text-anchor="middle" x="916.5" y="-1234.2" font-family="DejaVu Sans" font-size="11.00">tcplot</text>
</g>
<!-- tcplot&#45;&gt;termin&#45;csharp -->
<g id="edge1" class="edge">
<title>tcplot&#45;&gt;termin&#45;csharp</title>
<path fill="none" stroke="#666666" stroke-width="1.1" d="M943.54,-1243.17C1044.96,-1265.59 1419.06,-1333.21 1645,-1170 1715.97,-1118.73 1742.31,-1009.7 1750.87,-960.28"/>
<polygon fill="#666666" stroke="#666666" stroke-width="1.1" points="1753.32,-960.47 1752.05,-953.16 1748.49,-959.67 1753.32,-960.47"/>
</g>
<!-- termin&#45;gui&#45;&gt;termin&#45;csg -->
<g id="edge43" class="edge">
<title>termin&#45;gui&#45;&gt;termin&#45;csg</title>
<path fill="none" stroke="#666666" stroke-width="1.1" d="M673.28,-1187.54C625.43,-1189.21 538.72,-1185.43 482,-1143 331.12,-1030.13 350.84,-943.34 290,-765 226.49,-578.81 199.7,-341.06 192.28,-263.62"/>
<polygon fill="#666666" stroke="#666666" stroke-width="1.1" points="194.68,-262.95 191.58,-256.21 189.8,-263.41 194.68,-262.95"/>
</g>
<!-- termin&#45;gui&#45;&gt;tcplot -->
<g id="edge42" class="edge">
<title>termin&#45;gui&#45;&gt;tcplot</title>
<path fill="none" stroke="#666666" stroke-width="1.1" d="M744.86,-1193.82C783.19,-1203.52 844.32,-1218.99 882.07,-1228.54"/>
<polygon fill="#666666" stroke="#666666" stroke-width="1.1" points="881.91,-1231.03 889.29,-1230.37 883.11,-1226.28 881.91,-1231.03"/>
</g>
<!-- termin&#45;nodegraph -->
<g id="node34" class="node">
<title>termin&#45;nodegraph</title>
<path fill="#f7f7f7" stroke="#444444" d="M961,-1187C961,-1187 872,-1187 872,-1187 866,-1187 860,-1181 860,-1175 860,-1175 860,-1163 860,-1163 860,-1157 866,-1151 872,-1151 872,-1151 961,-1151 961,-1151 967,-1151 973,-1157 973,-1163 973,-1163 973,-1175 973,-1175 973,-1181 967,-1187 961,-1187"/>
<text text-anchor="middle" x="916.5" y="-1166.2" font-family="DejaVu Sans" font-size="11.00">termin&#45;nodegraph</text>
</g>
<!-- termin&#45;gui&#45;&gt;termin&#45;nodegraph -->
<g id="edge44" class="edge">
<title>termin&#45;gui&#45;&gt;termin&#45;nodegraph</title>
<path fill="none" stroke="#666666" stroke-width="1.1" d="M744.86,-1182.29C774.38,-1179.99 817.44,-1176.63 852.92,-1173.87"/>
<polygon fill="#666666" stroke="#666666" stroke-width="1.1" points="853.11,-1176.31 859.9,-1173.33 852.73,-1171.43 853.11,-1176.31"/>
</g>
<!-- termin&#45;nodegraph&#45;&gt;termin&#45;app -->
<g id="edge52" class="edge">
<title>termin&#45;nodegraph&#45;&gt;termin&#45;app</title>
<path fill="none" stroke="#666666" stroke-width="1.1" d="M966.86,-1150.88C1049.63,-1119.63 1211.26,-1054.55 1251,-1009 1313,-937.93 1253.67,-877.78 1316,-807 1372.76,-742.54 1414.52,-764.09 1491,-725 1513.51,-713.5 1538.26,-699.81 1558.02,-688.62"/>
<polygon fill="#666666" stroke="#666666" stroke-width="1.1" points="1559.37,-690.67 1564.25,-685.08 1556.95,-686.41 1559.37,-690.67"/>
</g>
<!-- termin&#45;render&#45;passes&#45;&gt;termin&#45;app -->
<g id="edge57" class="edge">
<title>termin&#45;render&#45;passes&#45;&gt;termin&#45;app</title>
<path fill="none" stroke="#666666" stroke-width="1.1" d="M1417.69,-946.77C1436.82,-925.97 1468.07,-890.51 1491,-857 1529.53,-800.7 1565.88,-728.9 1583.82,-691.75"/>
<polygon fill="#666666" stroke="#666666" stroke-width="1.1" points="1586.13,-692.6 1586.96,-685.23 1581.72,-690.48 1586.13,-692.6"/>
</g>
<!-- termin&#45;render&#45;passes&#45;&gt;termin&#45;android -->
<g id="edge56" class="edge">
<title>termin&#45;render&#45;passes&#45;&gt;termin&#45;android</title>
<path fill="none" stroke="#666666" stroke-width="1.1" d="M1465.7,-965C1490.19,-965 1517.73,-965 1541.13,-965"/>
<polygon fill="#666666" stroke="#666666" stroke-width="1.1" points="1541.25,-967.45 1548.25,-965 1541.25,-962.55 1541.25,-967.45"/>
</g>
<!-- termin&#45;render&#45;passes&#45;&gt;termin&#45;openxr -->
<g id="edge58" class="edge">
<title>termin&#45;render&#45;passes&#45;&gt;termin&#45;openxr</title>
<path fill="none" stroke="#666666" stroke-width="1.1" d="M1452.24,-983.04C1480.34,-992.84 1515,-1004.93 1543.19,-1014.76"/>
<polygon fill="#666666" stroke="#666666" stroke-width="1.1" points="1542.42,-1017.08 1549.83,-1017.08 1544.03,-1012.46 1542.42,-1017.08"/>
</g>
</g>
</svg>
