<?xml version="1.0" encoding="UTF-8" standalone="no"?>
<!DOCTYPE svg PUBLIC "-//W3C//DTD SVG 1.1//EN"
 "http://www.w3.org/Graphics/SVG/1.1/DTD/svg11.dtd">
<!-- Generated by graphviz version 2.42.4 (0)
 -->
<!-- Title: termin_dependencies Pages: 1 -->
<svg width="1748pt" height="2295pt"
 viewBox="0.00 0.00 1747.80 2294.88" xmlns="http://www.w3.org/2000/svg" xmlns:xlink="http://www.w3.org/1999/xlink">
<g id="graph0" class="graph" transform="scale(1 1) rotate(0) translate(14.4 2280.48)">
<title>termin_dependencies</title>
<polygon fill="white" stroke="transparent" points="-14.4,14.4 -14.4,-2280.48 1733.4,-2280.48 1733.4,14.4 -14.4,14.4"/>
<g id="clust1" class="cluster">
<title>cluster_application</title>
<polygon fill="white" stroke="#999999" stroke-dasharray="5,2" points="1620,-210.08 1620,-283.08 1711,-283.08 1711,-210.08 1620,-210.08"/>
<text text-anchor="middle" x="1665.5" y="-269.48" font-family="DejaVu Sans" font-size="12.00">Application</text>
</g>
<g id="clust2" class="cluster">
<title>cluster_foundation</title>
<polygon fill="white" stroke="#999999" stroke-dasharray="5,2" points="137,-1073.08 137,-1418.08 1106.5,-1418.08 1106.5,-1073.08 137,-1073.08"/>
<text text-anchor="middle" x="621.75" y="-1404.48" font-family="DejaVu Sans" font-size="12.00">Foundation</text>
</g>
<g id="clust3" class="cluster">
<title>cluster_namespace</title>
<polygon fill="white" stroke="#999999" stroke-dasharray="5,2" points="0,-691.08 0,-764.08 88,-764.08 88,-691.08 0,-691.08"/>
<text text-anchor="middle" x="44" y="-750.48" font-family="DejaVu Sans" font-size="12.00">Namespace</text>
</g>
<g id="clust4" class="cluster">
<title>cluster_native_interop</title>
<polygon fill="white" stroke="#999999" stroke-dasharray="5,2" points="1443.5,-1229.08 1443.5,-1302.08 1550.5,-1302.08 1550.5,-1229.08 1443.5,-1229.08"/>
<text text-anchor="middle" x="1497" y="-1288.48" font-family="DejaVu Sans" font-size="12.00">Native Interop</text>
</g>
<g id="clust5" class="cluster">
<title>cluster_other_components</title>
<polygon fill="white" stroke="#999999" stroke-dasharray="5,2" points="702,-1426.08 702,-1907.08 1374,-1907.08 1374,-1426.08 702,-1426.08"/>
<text text-anchor="middle" x="1038" y="-1893.48" font-family="DejaVu Sans" font-size="12.00">Other Components</text>
</g>
<g id="clust6" class="cluster">
<title>cluster_python_support</title>
<polygon fill="white" stroke="#999999" stroke-dasharray="5,2" points="307,-924.08 307,-1065.08 450,-1065.08 450,-924.08 307,-924.08"/>
<text text-anchor="middle" x="378.5" y="-1051.48" font-family="DejaVu Sans" font-size="12.00">Python Support</text>
</g>
<g id="clust7" class="cluster">
<title>cluster_render_stack</title>
<polygon fill="white" stroke="#999999" stroke-dasharray="5,2" points="320,-482.08 320,-623.08 1133,-623.08 1133,-482.08 320,-482.08"/>
<text text-anchor="middle" x="726.5" y="-609.48" font-family="DejaVu Sans" font-size="12.00">Render Stack</text>
</g>
<g id="clust8" class="cluster">
<title>cluster_runtime</title>
<polygon fill="white" stroke="#999999" stroke-dasharray="5,2" points="1229,-1157.08 1229,-1230.08 1336,-1230.08 1336,-1157.08 1229,-1157.08"/>
<text text-anchor="middle" x="1282.5" y="-1216.48" font-family="DejaVu Sans" font-size="12.00">Runtime</text>
</g>
<g id="clust10" class="cluster">
<title>cluster_ui</title>
<polygon fill="white" stroke="#999999" stroke-dasharray="5,2" points="532.5,-291.08 532.5,-432.08 864,-432.08 864,-291.08 532.5,-291.08"/>
<text text-anchor="middle" x="698.25" y="-418.48" font-family="DejaVu Sans" font-size="12.00">UI</text>
</g>
<!-- termin&#45;app -->
<g id="node1" class="node">
<title>termin&#45;app</title>
<path fill="#f7f7f7" stroke="#444444" d="M1691,-254.08C1691,-254.08 1640,-254.08 1640,-254.08 1634,-254.08 1628,-248.08 1628,-242.08 1628,-242.08 1628,-230.08 1628,-230.08 1628,-224.08 1634,-218.08 1640,-218.08 1640,-218.08 1691,-218.08 1691,-218.08 1697,-218.08 1703,-224.08 1703,-230.08 1703,-230.08 1703,-242.08 1703,-242.08 1703,-248.08 1697,-254.08 1691,-254.08"/>
<text text-anchor="middle" x="1665.5" y="-233.28" font-family="DejaVu Sans" font-size="11.00">termin&#45;app</text>
</g>
<!-- termin&#45;animation -->
<g id="node2" class="node">
<title>termin&#45;animation</title>
<path fill="#f7f7f7" stroke="#444444" d="M1086.5,-1268.08C1086.5,-1268.08 1001.5,-1268.08 1001.5,-1268.08 995.5,-1268.08 989.5,-1262.08 989.5,-1256.08 989.5,-1256.08 989.5,-1244.08 989.5,-1244.08 989.5,-1238.08 995.5,-1232.08 1001.5,-1232.08 1001.5,-1232.08 1086.5,-1232.08 1086.5,-1232.08 1092.5,-1232.08 1098.5,-1238.08 1098.5,-1244.08 1098.5,-1244.08 1098.5,-1256.08 1098.5,-1256.08 1098.5,-1262.08 1092.5,-1268.08 1086.5,-1268.08"/>
<text text-anchor="middle" x="1044" y="-1247.28" font-family="DejaVu Sans" font-size="11.00">termin&#45;animation</text>
</g>
<!-- termin&#45;animation&#45;&gt;termin&#45;app -->
<g id="edge9" class="edge">
<title>termin&#45;animation&#45;&gt;termin&#45;app</title>
<path fill="none" stroke="#666666" stroke-width="1.1" d="M1057.82,-1231.74C1106.11,-1162.74 1281.87,-912.35 1431,-709.08 1488.63,-630.53 1517.39,-620.17 1563,-534.08 1613.35,-439.07 1646.26,-314.08 1658.8,-261.32"/>
<polygon fill="#666666" stroke="#666666" stroke-width="1.1" points="1661.21,-261.73 1660.43,-254.36 1656.44,-260.61 1661.21,-261.73"/>
</g>
<!-- termin&#45;csharp -->
<g id="node18" class="node">
<title>termin&#45;csharp</title>
<path fill="#f7f7f7" stroke="#444444" d="M1530.5,-1273.08C1530.5,-1273.08 1463.5,-1273.08 1463.5,-1273.08 1457.5,-1273.08 1451.5,-1267.08 1451.5,-1261.08 1451.5,-1261.08 1451.5,-1249.08 1451.5,-1249.08 1451.5,-1243.08 1457.5,-1237.08 1463.5,-1237.08 1463.5,-1237.08 1530.5,-1237.08 1530.5,-1237.08 1536.5,-1237.08 1542.5,-1243.08 1542.5,-1249.08 1542.5,-1249.08 1542.5,-1261.08 1542.5,-1261.08 1542.5,-1267.08 1536.5,-1273.08 1530.5,-1273.08"/>
<text text-anchor="middle" x="1497" y="-1252.28" font-family="DejaVu Sans" font-size="11.00">termin&#45;csharp</text>
</g>
<!-- termin&#45;animation&#45;&gt;termin&#45;csharp -->
<g id="edge11" class="edge">
<title>termin&#45;animation&#45;&gt;termin&#45;csharp</title>
<path fill="none" stroke="#666666" stroke-width="1.1" d="M1098.51,-1250.68C1185.88,-1251.64 1358.08,-1253.55 1444.28,-1254.51"/>
<polygon fill="#666666" stroke="#666666" stroke-width="1.1" points="1444.32,-1256.96 1451.34,-1254.59 1444.37,-1252.06 1444.32,-1256.96"/>
</g>
<!-- termin&#45;components&#45;animation -->
<g id="node19" class="node">
<title>termin&#45;components&#45;animation</title>
<path fill="#f7f7f7" stroke="#444444" d="M1122,-1570.08C1122,-1570.08 966,-1570.08 966,-1570.08 960,-1570.08 954,-1564.08 954,-1558.08 954,-1558.08 954,-1546.08 954,-1546.08 954,-1540.08 960,-1534.08 966,-1534.08 966,-1534.08 1122,-1534.08 1122,-1534.08 1128,-1534.08 1134,-1540.08 1134,-1546.08 1134,-1546.08 1134,-1558.08 1134,-1558.08 1134,-1564.08 1128,-1570.08 1122,-1570.08"/>
<text text-anchor="middle" x="1044" y="-1549.28" font-family="DejaVu Sans" font-size="11.00">termin&#45;components&#45;animation</text>
</g>
<!-- termin&#45;animation&#45;&gt;termin&#45;components&#45;animation -->
<g id="edge10" class="edge">
<title>termin&#45;animation&#45;&gt;termin&#45;components&#45;animation</title>
<path fill="none" stroke="#666666" stroke-width="1.1" d="M989.35,-1257.61C963.89,-1264.23 936.06,-1276.68 921.5,-1300.08 897.78,-1338.19 897.78,-1463.97 921.5,-1502.08 929.17,-1514.4 940.51,-1523.68 953.24,-1530.68"/>
<polygon fill="#666666" stroke="#666666" stroke-width="1.1" points="952.25,-1532.92 959.6,-1533.94 954.48,-1528.56 952.25,-1532.92"/>
</g>
<!-- termin&#45;base -->
<g id="node3" class="node">
<title>termin&#45;base</title>
<path fill="#f7f7f7" stroke="#444444" d="M226,-1117.08C226,-1117.08 169,-1117.08 169,-1117.08 163,-1117.08 157,-1111.08 157,-1105.08 157,-1105.08 157,-1093.08 157,-1093.08 157,-1087.08 163,-1081.08 169,-1081.08 169,-1081.08 226,-1081.08 226,-1081.08 232,-1081.08 238,-1087.08 238,-1093.08 238,-1093.08 238,-1105.08 238,-1105.08 238,-1111.08 232,-1117.08 226,-1117.08"/>
<text text-anchor="middle" x="197.5" y="-1096.28" font-family="DejaVu Sans" font-size="11.00">termin&#45;base</text>
</g>
<!-- termin&#45;inspect -->
<g id="node7" class="node">
<title>termin&#45;inspect</title>
<path fill="#f7f7f7" stroke="#444444" d="M413.5,-1117.08C413.5,-1117.08 343.5,-1117.08 343.5,-1117.08 337.5,-1117.08 331.5,-1111.08 331.5,-1105.08 331.5,-1105.08 331.5,-1093.08 331.5,-1093.08 331.5,-1087.08 337.5,-1081.08 343.5,-1081.08 343.5,-1081.08 413.5,-1081.08 413.5,-1081.08 419.5,-1081.08 425.5,-1087.08 425.5,-1093.08 425.5,-1093.08 425.5,-1105.08 425.5,-1105.08 425.5,-1111.08 419.5,-1117.08 413.5,-1117.08"/>
<text text-anchor="middle" x="378.5" y="-1096.28" font-family="DejaVu Sans" font-size="11.00">termin&#45;inspect</text>
</g>
<!-- termin&#45;base&#45;&gt;termin&#45;inspect -->
<g id="edge21" class="edge">
<title>termin&#45;base&#45;&gt;termin&#45;inspect</title>
<path fill="none" stroke="#666666" stroke-width="1.1" d="M238.23,-1099.08C263.47,-1099.08 296.46,-1099.08 324,-1099.08"/>
<polygon fill="#666666" stroke="#666666" stroke-width="1.1" points="324.24,-1101.53 331.24,-1099.08 324.24,-1096.63 324.24,-1101.53"/>
</g>
<!-- termin&#45;mesh -->
<g id="node8" class="node">
<title>termin&#45;mesh</title>
<path fill="#f7f7f7" stroke="#444444" d="M408.5,-1321.08C408.5,-1321.08 348.5,-1321.08 348.5,-1321.08 342.5,-1321.08 336.5,-1315.08 336.5,-1309.08 336.5,-1309.08 336.5,-1297.08 336.5,-1297.08 336.5,-1291.08 342.5,-1285.08 348.5,-1285.08 348.5,-1285.08 408.5,-1285.08 408.5,-1285.08 414.5,-1285.08 420.5,-1291.08 420.5,-1297.08 420.5,-1297.08 420.5,-1309.08 420.5,-1309.08 420.5,-1315.08 414.5,-1321.08 408.5,-1321.08"/>
<text text-anchor="middle" x="378.5" y="-1300.28" font-family="DejaVu Sans" font-size="11.00">termin&#45;mesh</text>
</g>
<!-- termin&#45;base&#45;&gt;termin&#45;mesh -->
<g id="edge23" class="edge">
<title>termin&#45;base&#45;&gt;termin&#45;mesh</title>
<path fill="none" stroke="#666666" stroke-width="1.1" d="M232.17,-1117.13C238.68,-1121.71 245.01,-1127.06 250,-1133.08 291.82,-1183.54 261.89,-1221.54 307,-1269.08 313.41,-1275.84 321.44,-1281.41 329.76,-1285.96"/>
<polygon fill="#666666" stroke="#666666" stroke-width="1.1" points="328.82,-1288.22 336.16,-1289.23 331.05,-1283.86 328.82,-1288.22"/>
</g>
<!-- termin&#45;modules -->
<g id="node9" class="node">
<title>termin&#45;modules</title>
<path fill="#f7f7f7" stroke="#444444" d="M417,-1185.08C417,-1185.08 340,-1185.08 340,-1185.08 334,-1185.08 328,-1179.08 328,-1173.08 328,-1173.08 328,-1161.08 328,-1161.08 328,-1155.08 334,-1149.08 340,-1149.08 340,-1149.08 417,-1149.08 417,-1149.08 423,-1149.08 429,-1155.08 429,-1161.08 429,-1161.08 429,-1173.08 429,-1173.08 429,-1179.08 423,-1185.08 417,-1185.08"/>
<text text-anchor="middle" x="378.5" y="-1164.28" font-family="DejaVu Sans" font-size="11.00">termin&#45;modules</text>
</g>
<!-- termin&#45;base&#45;&gt;termin&#45;modules -->
<g id="edge24" class="edge">
<title>termin&#45;base&#45;&gt;termin&#45;modules</title>
<path fill="none" stroke="#666666" stroke-width="1.1" d="M238.23,-1114.17C263.2,-1123.66 295.75,-1136.03 323.1,-1146.42"/>
<polygon fill="#666666" stroke="#666666" stroke-width="1.1" points="322.53,-1148.82 329.94,-1149.01 324.27,-1144.24 322.53,-1148.82"/>
</g>
<!-- termin&#45;qopt -->
<g id="node12" class="node">
<title>termin&#45;qopt</title>
<path fill="#f7f7f7" stroke="#444444" d="M406,-1253.08C406,-1253.08 351,-1253.08 351,-1253.08 345,-1253.08 339,-1247.08 339,-1241.08 339,-1241.08 339,-1229.08 339,-1229.08 339,-1223.08 345,-1217.08 351,-1217.08 351,-1217.08 406,-1217.08 406,-1217.08 412,-1217.08 418,-1223.08 418,-1229.08 418,-1229.08 418,-1241.08 418,-1241.08 418,-1247.08 412,-1253.08 406,-1253.08"/>
<text text-anchor="middle" x="378.5" y="-1232.28" font-family="DejaVu Sans" font-size="11.00">termin&#45;qopt</text>
</g>
<!-- termin&#45;base&#45;&gt;termin&#45;qopt -->
<g id="edge27" class="edge">
<title>termin&#45;base&#45;&gt;termin&#45;qopt</title>
<path fill="none" stroke="#666666" stroke-width="1.1" d="M228.99,-1117.11C236.18,-1121.92 243.6,-1127.38 250,-1133.08 279.43,-1159.33 275.88,-1176.86 307,-1201.08 314.68,-1207.06 323.58,-1212.35 332.42,-1216.88"/>
<polygon fill="#666666" stroke="#666666" stroke-width="1.1" points="331.46,-1219.14 338.82,-1220.03 333.63,-1214.74 331.46,-1219.14"/>
</g>
<!-- termin&#45;assets -->
<g id="node29" class="node">
<title>termin&#45;assets</title>
<path fill="#f7f7f7" stroke="#444444" d="M411.5,-1036.08C411.5,-1036.08 345.5,-1036.08 345.5,-1036.08 339.5,-1036.08 333.5,-1030.08 333.5,-1024.08 333.5,-1024.08 333.5,-1012.08 333.5,-1012.08 333.5,-1006.08 339.5,-1000.08 345.5,-1000.08 345.5,-1000.08 411.5,-1000.08 411.5,-1000.08 417.5,-1000.08 423.5,-1006.08 423.5,-1012.08 423.5,-1012.08 423.5,-1024.08 423.5,-1024.08 423.5,-1030.08 417.5,-1036.08 411.5,-1036.08"/>
<text text-anchor="middle" x="378.5" y="-1015.28" font-family="DejaVu Sans" font-size="11.00">termin&#45;assets</text>
</g>
<!-- termin&#45;base&#45;&gt;termin&#45;assets -->
<g id="edge19" class="edge">
<title>termin&#45;base&#45;&gt;termin&#45;assets</title>
<path fill="none" stroke="#666666" stroke-width="1.1" d="M238.23,-1081.11C265.71,-1068.67 302.37,-1052.08 331.18,-1039.04"/>
<polygon fill="#666666" stroke="#666666" stroke-width="1.1" points="332.21,-1041.27 337.58,-1036.15 330.19,-1036.8 332.21,-1041.27"/>
</g>
<!-- termin&#45;lighting -->
<g id="node34" class="node">
<title>termin&#45;lighting</title>
<path fill="#f7f7f7" stroke="#444444" d="M414,-526.08C414,-526.08 343,-526.08 343,-526.08 337,-526.08 331,-520.08 331,-514.08 331,-514.08 331,-502.08 331,-502.08 331,-496.08 337,-490.08 343,-490.08 343,-490.08 414,-490.08 414,-490.08 420,-490.08 426,-496.08 426,-502.08 426,-502.08 426,-514.08 426,-514.08 426,-520.08 420,-526.08 414,-526.08"/>
<text text-anchor="middle" x="378.5" y="-505.28" font-family="DejaVu Sans" font-size="11.00">termin&#45;lighting</text>
</g>
<!-- termin&#45;base&#45;&gt;termin&#45;lighting -->
<g id="edge22" class="edge">
<title>termin&#45;base&#45;&gt;termin&#45;lighting</title>
<path fill="none" stroke="#666666" stroke-width="1.1" d="M199.86,-1080.99C206.65,-995.23 239.17,-630.04 307,-542.08 311.76,-535.9 317.94,-530.79 324.65,-526.56"/>
<polygon fill="#666666" stroke="#666666" stroke-width="1.1" points="326.1,-528.56 330.94,-522.93 323.65,-524.31 326.1,-528.56"/>
</g>
<!-- termin&#45;audio -->
<g id="node41" class="node">
<title>termin&#45;audio</title>
<path fill="#f7f7f7" stroke="#444444" d="M408.5,-1530.08C408.5,-1530.08 348.5,-1530.08 348.5,-1530.08 342.5,-1530.08 336.5,-1524.08 336.5,-1518.08 336.5,-1518.08 336.5,-1506.08 336.5,-1506.08 336.5,-1500.08 342.5,-1494.08 348.5,-1494.08 348.5,-1494.08 408.5,-1494.08 408.5,-1494.08 414.5,-1494.08 420.5,-1500.08 420.5,-1506.08 420.5,-1506.08 420.5,-1518.08 420.5,-1518.08 420.5,-1524.08 414.5,-1530.08 408.5,-1530.08"/>
<text text-anchor="middle" x="378.5" y="-1509.28" font-family="DejaVu Sans" font-size="11.00">termin&#45;audio</text>
</g>
<!-- termin&#45;base&#45;&gt;termin&#45;audio -->
<g id="edge20" class="edge">
<title>termin&#45;base&#45;&gt;termin&#45;audio</title>
<path fill="none" stroke="#666666" stroke-width="1.1" d="M234.61,-1117.27C240.54,-1121.71 246.03,-1126.97 250,-1133.08 334.59,-1263.46 213.87,-1353.67 307,-1478.08 312.9,-1485.96 321.1,-1492.1 329.83,-1496.86"/>
<polygon fill="#666666" stroke="#666666" stroke-width="1.1" points="328.9,-1499.13 336.26,-1500.08 331.1,-1494.76 328.9,-1499.13"/>
</g>
<!-- termin&#45;pga -->
<g id="node49" class="node">
<title>termin&#45;pga</title>
<path fill="#f7f7f7" stroke="#444444" d="M404,-1462.08C404,-1462.08 353,-1462.08 353,-1462.08 347,-1462.08 341,-1456.08 341,-1450.08 341,-1450.08 341,-1438.08 341,-1438.08 341,-1432.08 347,-1426.08 353,-1426.08 353,-1426.08 404,-1426.08 404,-1426.08 410,-1426.08 416,-1432.08 416,-1438.08 416,-1438.08 416,-1450.08 416,-1450.08 416,-1456.08 410,-1462.08 404,-1462.08"/>
<text text-anchor="middle" x="378.5" y="-1441.28" font-family="DejaVu Sans" font-size="11.00">termin&#45;pga</text>
</g>
<!-- termin&#45;base&#45;&gt;termin&#45;pga -->
<g id="edge25" class="edge">
<title>termin&#45;base&#45;&gt;termin&#45;pga</title>
<path fill="none" stroke="#666666" stroke-width="1.1" d="M234.2,-1117.18C240.24,-1121.64 245.88,-1126.94 250,-1133.08 322.95,-1241.79 219.55,-1324.66 307,-1422.08 314.03,-1429.91 323.8,-1434.98 333.82,-1438.26"/>
<polygon fill="#666666" stroke="#666666" stroke-width="1.1" points="333.37,-1440.68 340.78,-1440.25 334.72,-1435.97 333.37,-1440.68"/>
</g>
<!-- termin&#45;project -->
<g id="node52" class="node">
<title>termin&#45;project</title>
<path fill="#f7f7f7" stroke="#444444" d="M610.5,-217.08C610.5,-217.08 541.5,-217.08 541.5,-217.08 535.5,-217.08 529.5,-211.08 529.5,-205.08 529.5,-205.08 529.5,-193.08 529.5,-193.08 529.5,-187.08 535.5,-181.08 541.5,-181.08 541.5,-181.08 610.5,-181.08 610.5,-181.08 616.5,-181.08 622.5,-187.08 622.5,-193.08 622.5,-193.08 622.5,-205.08 622.5,-205.08 622.5,-211.08 616.5,-217.08 610.5,-217.08"/>
<text text-anchor="middle" x="576" y="-196.28" font-family="DejaVu Sans" font-size="11.00">termin&#45;project</text>
</g>
<!-- termin&#45;base&#45;&gt;termin&#45;project -->
<g id="edge26" class="edge">
<title>termin&#45;base&#45;&gt;termin&#45;project</title>
<path fill="none" stroke="#666666" stroke-width="1.1" d="M199.18,-1080.87C203.26,-980.23 226.94,-492.21 307,-369.08 358.29,-290.2 460.42,-240.91 522.73,-216.83"/>
<polygon fill="#666666" stroke="#666666" stroke-width="1.1" points="523.7,-219.08 529.37,-214.3 521.96,-214.5 523.7,-219.08"/>
</g>
<!-- termin&#45;collision -->
<g id="node4" class="node">
<title>termin&#45;collision</title>
<path fill="#f7f7f7" stroke="#444444" d="M837,-1235.08C837,-1235.08 762,-1235.08 762,-1235.08 756,-1235.08 750,-1229.08 750,-1223.08 750,-1223.08 750,-1211.08 750,-1211.08 750,-1205.08 756,-1199.08 762,-1199.08 762,-1199.08 837,-1199.08 837,-1199.08 843,-1199.08 849,-1205.08 849,-1211.08 849,-1211.08 849,-1223.08 849,-1223.08 849,-1229.08 843,-1235.08 837,-1235.08"/>
<text text-anchor="middle" x="799.5" y="-1214.28" font-family="DejaVu Sans" font-size="11.00">termin&#45;collision</text>
</g>
<!-- termin&#45;physics -->
<g id="node11" class="node">
<title>termin&#45;physics</title>
<path fill="#f7f7f7" stroke="#444444" d="M1080,-1336.08C1080,-1336.08 1008,-1336.08 1008,-1336.08 1002,-1336.08 996,-1330.08 996,-1324.08 996,-1324.08 996,-1312.08 996,-1312.08 996,-1306.08 1002,-1300.08 1008,-1300.08 1008,-1300.08 1080,-1300.08 1080,-1300.08 1086,-1300.08 1092,-1306.08 1092,-1312.08 1092,-1312.08 1092,-1324.08 1092,-1324.08 1092,-1330.08 1086,-1336.08 1080,-1336.08"/>
<text text-anchor="middle" x="1044" y="-1315.28" font-family="DejaVu Sans" font-size="11.00">termin&#45;physics</text>
</g>
<!-- termin&#45;collision&#45;&gt;termin&#45;physics -->
<g id="edge30" class="edge">
<title>termin&#45;collision&#45;&gt;termin&#45;physics</title>
<path fill="none" stroke="#666666" stroke-width="1.1" d="M849.1,-1234.72C862.16,-1239.74 876.22,-1245.4 889,-1251.08 918.61,-1264.24 924.38,-1270.95 954,-1284.08 965.25,-1289.07 977.48,-1294.03 989.16,-1298.56"/>
<polygon fill="#666666" stroke="#666666" stroke-width="1.1" points="988.56,-1300.95 995.97,-1301.17 990.31,-1296.38 988.56,-1300.95"/>
</g>
<!-- termin&#45;components&#45;collision -->
<g id="node20" class="node">
<title>termin&#45;components&#45;collision</title>
<path fill="#f7f7f7" stroke="#444444" d="M1117,-1502.08C1117,-1502.08 971,-1502.08 971,-1502.08 965,-1502.08 959,-1496.08 959,-1490.08 959,-1490.08 959,-1478.08 959,-1478.08 959,-1472.08 965,-1466.08 971,-1466.08 971,-1466.08 1117,-1466.08 1117,-1466.08 1123,-1466.08 1129,-1472.08 1129,-1478.08 1129,-1478.08 1129,-1490.08 1129,-1490.08 1129,-1496.08 1123,-1502.08 1117,-1502.08"/>
<text text-anchor="middle" x="1044" y="-1481.28" font-family="DejaVu Sans" font-size="11.00">termin&#45;components&#45;collision</text>
</g>
<!-- termin&#45;collision&#45;&gt;termin&#45;components&#45;collision -->
<g id="edge28" class="edge">
<title>termin&#45;collision&#45;&gt;termin&#45;components&#45;collision</title>
<path fill="none" stroke="#666666" stroke-width="1.1" d="M849.36,-1227.64C863.61,-1232.73 878.24,-1240.2 889,-1251.08 947.34,-1310.08 902.19,-1361.28 954,-1426.08 965.79,-1440.83 982.39,-1453.06 998.07,-1462.43"/>
<polygon fill="#666666" stroke="#666666" stroke-width="1.1" points="996.96,-1464.62 1004.25,-1466.01 999.42,-1460.38 996.96,-1464.62"/>
</g>
<!-- termin&#45;engine -->
<g id="node36" class="node">
<title>termin&#45;engine</title>
<path fill="#f7f7f7" stroke="#444444" d="M1316,-1201.08C1316,-1201.08 1249,-1201.08 1249,-1201.08 1243,-1201.08 1237,-1195.08 1237,-1189.08 1237,-1189.08 1237,-1177.08 1237,-1177.08 1237,-1171.08 1243,-1165.08 1249,-1165.08 1249,-1165.08 1316,-1165.08 1316,-1165.08 1322,-1165.08 1328,-1171.08 1328,-1177.08 1328,-1177.08 1328,-1189.08 1328,-1189.08 1328,-1195.08 1322,-1201.08 1316,-1201.08"/>
<text text-anchor="middle" x="1282.5" y="-1180.28" font-family="DejaVu Sans" font-size="11.00">termin&#45;engine</text>
</g>
<!-- termin&#45;collision&#45;&gt;termin&#45;engine -->
<g id="edge29" class="edge">
<title>termin&#45;collision&#45;&gt;termin&#45;engine</title>
<path fill="none" stroke="#666666" stroke-width="1.1" d="M849.27,-1213.64C940.51,-1207.19 1136.25,-1193.35 1229.73,-1186.74"/>
<polygon fill="#666666" stroke="#666666" stroke-width="1.1" points="1230.02,-1189.18 1236.83,-1186.24 1229.67,-1184.29 1230.02,-1189.18"/>
</g>
<!-- termin&#45;csg -->
<g id="node5" class="node">
<title>termin&#45;csg</title>
<path fill="#f7f7f7" stroke="#444444" d="M222,-1253.08C222,-1253.08 173,-1253.08 173,-1253.08 167,-1253.08 161,-1247.08 161,-1241.08 161,-1241.08 161,-1229.08 161,-1229.08 161,-1223.08 167,-1217.08 173,-1217.08 173,-1217.08 222,-1217.08 222,-1217.08 228,-1217.08 234,-1223.08 234,-1229.08 234,-1229.08 234,-1241.08 234,-1241.08 234,-1247.08 228,-1253.08 222,-1253.08"/>
<text text-anchor="middle" x="197.5" y="-1232.28" font-family="DejaVu Sans" font-size="11.00">termin&#45;csg</text>
</g>
<!-- termin&#45;components&#45;mesh -->
<g id="node22" class="node">
<title>termin&#45;components&#45;mesh</title>
<path fill="#f7f7f7" stroke="#444444" d="M865.5,-1810.08C865.5,-1810.08 733.5,-1810.08 733.5,-1810.08 727.5,-1810.08 721.5,-1804.08 721.5,-1798.08 721.5,-1798.08 721.5,-1786.08 721.5,-1786.08 721.5,-1780.08 727.5,-1774.08 733.5,-1774.08 733.5,-1774.08 865.5,-1774.08 865.5,-1774.08 871.5,-1774.08 877.5,-1780.08 877.5,-1786.08 877.5,-1786.08 877.5,-1798.08 877.5,-1798.08 877.5,-1804.08 871.5,-1810.08 865.5,-1810.08"/>
<text text-anchor="middle" x="799.5" y="-1789.28" font-family="DejaVu Sans" font-size="11.00">termin&#45;components&#45;mesh</text>
</g>
<!-- termin&#45;csg&#45;&gt;termin&#45;components&#45;mesh -->
<g id="edge51" class="edge">
<title>termin&#45;csg&#45;&gt;termin&#45;components&#45;mesh</title>
<path fill="none" stroke="#666666" stroke-width="1.1" d="M234.2,-1252.81C240.32,-1257.34 245.98,-1262.75 250,-1269.08 345.43,-1419.64 187.97,-1533.4 307,-1666.08 410.32,-1781.25 603.23,-1797.7 714.16,-1796.67"/>
<polygon fill="#666666" stroke="#666666" stroke-width="1.1" points="714.38,-1799.12 721.35,-1796.58 714.32,-1794.22 714.38,-1799.12"/>
</g>
<!-- termin&#45;input -->
<g id="node6" class="node">
<title>termin&#45;input</title>
<path fill="#f7f7f7" stroke="#444444" d="M828.5,-1303.08C828.5,-1303.08 770.5,-1303.08 770.5,-1303.08 764.5,-1303.08 758.5,-1297.08 758.5,-1291.08 758.5,-1291.08 758.5,-1279.08 758.5,-1279.08 758.5,-1273.08 764.5,-1267.08 770.5,-1267.08 770.5,-1267.08 828.5,-1267.08 828.5,-1267.08 834.5,-1267.08 840.5,-1273.08 840.5,-1279.08 840.5,-1279.08 840.5,-1291.08 840.5,-1291.08 840.5,-1297.08 834.5,-1303.08 828.5,-1303.08"/>
<text text-anchor="middle" x="799.5" y="-1282.28" font-family="DejaVu Sans" font-size="11.00">termin&#45;input</text>
</g>
<!-- termin&#45;display -->
<g id="node32" class="node">
<title>termin&#45;display</title>
<path fill="#f7f7f7" stroke="#444444" d="M834,-594.08C834,-594.08 765,-594.08 765,-594.08 759,-594.08 753,-588.08 753,-582.08 753,-582.08 753,-570.08 753,-570.08 753,-564.08 759,-558.08 765,-558.08 765,-558.08 834,-558.08 834,-558.08 840,-558.08 846,-564.08 846,-570.08 846,-570.08 846,-582.08 846,-582.08 846,-588.08 840,-594.08 834,-594.08"/>
<text text-anchor="middle" x="799.5" y="-573.28" font-family="DejaVu Sans" font-size="11.00">termin&#45;display</text>
</g>
<!-- termin&#45;input&#45;&gt;termin&#45;display -->
<g id="edge71" class="edge">
<title>termin&#45;input&#45;&gt;termin&#45;display</title>
<path fill="none" stroke="#666666" stroke-width="1.1" d="M758.39,-1281.59C728.61,-1276.58 690.68,-1264.43 673.5,-1235.08 642.85,-1182.73 648.77,-744.48 673.5,-689.08 691.28,-649.25 730.81,-617.62 760.88,-598.07"/>
<polygon fill="#666666" stroke="#666666" stroke-width="1.1" points="762.55,-599.91 767.14,-594.08 759.92,-595.78 762.55,-599.91"/>
</g>
<!-- termin&#45;scene -->
<g id="node13" class="node">
<title>termin&#45;scene</title>
<path fill="#f7f7f7" stroke="#444444" d="M607.5,-1235.08C607.5,-1235.08 544.5,-1235.08 544.5,-1235.08 538.5,-1235.08 532.5,-1229.08 532.5,-1223.08 532.5,-1223.08 532.5,-1211.08 532.5,-1211.08 532.5,-1205.08 538.5,-1199.08 544.5,-1199.08 544.5,-1199.08 607.5,-1199.08 607.5,-1199.08 613.5,-1199.08 619.5,-1205.08 619.5,-1211.08 619.5,-1211.08 619.5,-1223.08 619.5,-1223.08 619.5,-1229.08 613.5,-1235.08 607.5,-1235.08"/>
<text text-anchor="middle" x="576" y="-1214.28" font-family="DejaVu Sans" font-size="11.00">termin&#45;scene</text>
</g>
<!-- termin&#45;inspect&#45;&gt;termin&#45;scene -->
<g id="edge73" class="edge">
<title>termin&#45;inspect&#45;&gt;termin&#45;scene</title>
<path fill="none" stroke="#666666" stroke-width="1.1" d="M419.54,-1117.17C429.63,-1122.06 440.33,-1127.54 450,-1133.08 483.39,-1152.22 519.71,-1177.12 544.55,-1194.83"/>
<polygon fill="#666666" stroke="#666666" stroke-width="1.1" points="543.18,-1196.86 550.3,-1198.95 546.03,-1192.88 543.18,-1196.86"/>
</g>
<!-- termin&#45;components&#45;ui -->
<g id="node26" class="node">
<title>termin&#45;components&#45;ui</title>
<path fill="#f7f7f7" stroke="#444444" d="M855,-1538.08C855,-1538.08 744,-1538.08 744,-1538.08 738,-1538.08 732,-1532.08 732,-1526.08 732,-1526.08 732,-1514.08 732,-1514.08 732,-1508.08 738,-1502.08 744,-1502.08 744,-1502.08 855,-1502.08 855,-1502.08 861,-1502.08 867,-1508.08 867,-1514.08 867,-1514.08 867,-1526.08 867,-1526.08 867,-1532.08 861,-1538.08 855,-1538.08"/>
<text text-anchor="middle" x="799.5" y="-1517.28" font-family="DejaVu Sans" font-size="11.00">termin&#45;components&#45;ui</text>
</g>
<!-- termin&#45;inspect&#45;&gt;termin&#45;components&#45;ui -->
<g id="edge72" class="edge">
<title>termin&#45;inspect&#45;&gt;termin&#45;components&#45;ui</title>
<path fill="none" stroke="#666666" stroke-width="1.1" d="M425.68,-1115.81C434.48,-1120.45 443.08,-1126.17 450,-1133.08 491.2,-1174.25 475.51,-1202.09 507,-1251.08 580.39,-1365.25 590.64,-1408.51 702,-1486.08 709.12,-1491.04 717.03,-1495.34 725.18,-1499.06"/>
<polygon fill="#666666" stroke="#666666" stroke-width="1.1" points="724.66,-1501.51 732.06,-1502.05 726.61,-1497.02 724.66,-1501.51"/>
</g>
<!-- termin&#45;graphics -->
<g id="node33" class="node">
<title>termin&#45;graphics</title>
<path fill="#f7f7f7" stroke="#444444" d="M417,-594.08C417,-594.08 340,-594.08 340,-594.08 334,-594.08 328,-588.08 328,-582.08 328,-582.08 328,-570.08 328,-570.08 328,-564.08 334,-558.08 340,-558.08 340,-558.08 417,-558.08 417,-558.08 423,-558.08 429,-564.08 429,-570.08 429,-570.08 429,-582.08 429,-582.08 429,-588.08 423,-594.08 417,-594.08"/>
<text text-anchor="middle" x="378.5" y="-573.28" font-family="DejaVu Sans" font-size="11.00">termin&#45;graphics</text>
</g>
<!-- termin&#45;mesh&#45;&gt;termin&#45;graphics -->
<g id="edge76" class="edge">
<title>termin&#45;mesh&#45;&gt;termin&#45;graphics</title>
<path fill="none" stroke="#666666" stroke-width="1.1" d="M336.37,-1293.65C314.89,-1286.43 290.76,-1274.02 278.5,-1253.08 242.46,-1191.52 268.76,-1002.75 278.5,-932.08 296.06,-804.62 347.42,-658.53 368.89,-601.11"/>
<polygon fill="#666666" stroke="#666666" stroke-width="1.1" points="371.31,-601.65 371.48,-594.23 366.72,-599.92 371.31,-601.65"/>
</g>
<!-- termin&#45;modules&#45;&gt;termin&#45;engine -->
<g id="edge77" class="edge">
<title>termin&#45;modules&#45;&gt;termin&#45;engine</title>
<path fill="none" stroke="#666666" stroke-width="1.1" d="M421.91,-1185.23C431.42,-1189.93 441.28,-1195.31 450,-1201.08 478.1,-1219.68 477.89,-1234.11 507,-1251.08 682.96,-1353.66 750.76,-1338.83 954,-1352.08 1033.83,-1357.29 1061.17,-1385.19 1134,-1352.08 1199.86,-1322.15 1247.8,-1246.68 1269.15,-1207.51"/>
<polygon fill="#666666" stroke="#666666" stroke-width="1.1" points="1271.44,-1208.42 1272.59,-1201.1 1267.13,-1206.11 1271.44,-1208.42"/>
</g>
<!-- termin&#45;navmesh -->
<g id="node10" class="node">
<title>termin&#45;navmesh</title>
<path fill="#f7f7f7" stroke="#444444" d="M238,-1321.08C238,-1321.08 157,-1321.08 157,-1321.08 151,-1321.08 145,-1315.08 145,-1309.08 145,-1309.08 145,-1297.08 145,-1297.08 145,-1291.08 151,-1285.08 157,-1285.08 157,-1285.08 238,-1285.08 238,-1285.08 244,-1285.08 250,-1291.08 250,-1297.08 250,-1297.08 250,-1309.08 250,-1309.08 250,-1315.08 244,-1321.08 238,-1321.08"/>
<text text-anchor="middle" x="197.5" y="-1300.28" font-family="DejaVu Sans" font-size="11.00">termin&#45;navmesh</text>
</g>
<!-- termin&#45;bootstrap -->
<g id="node42" class="node">
<title>termin&#45;bootstrap</title>
<path fill="#f7f7f7" stroke="#444444" d="M1324.5,-2019.08C1324.5,-2019.08 1240.5,-2019.08 1240.5,-2019.08 1234.5,-2019.08 1228.5,-2013.08 1228.5,-2007.08 1228.5,-2007.08 1228.5,-1995.08 1228.5,-1995.08 1228.5,-1989.08 1234.5,-1983.08 1240.5,-1983.08 1240.5,-1983.08 1324.5,-1983.08 1324.5,-1983.08 1330.5,-1983.08 1336.5,-1989.08 1336.5,-1995.08 1336.5,-1995.08 1336.5,-2007.08 1336.5,-2007.08 1336.5,-2013.08 1330.5,-2019.08 1324.5,-2019.08"/>
<text text-anchor="middle" x="1282.5" y="-1998.28" font-family="DejaVu Sans" font-size="11.00">termin&#45;bootstrap</text>
</g>
<!-- termin&#45;navmesh&#45;&gt;termin&#45;bootstrap -->
<g id="edge79" class="edge">
<title>termin&#45;navmesh&#45;&gt;termin&#45;bootstrap</title>
<path fill="none" stroke="#666666" stroke-width="1.1" d="M234.87,-1321.11C240.77,-1325.56 246.19,-1330.87 250,-1337.08 367.19,-1528.1 182.36,-1651.84 307,-1838.08 382.68,-1951.16 438.93,-1986.08 575,-1986.08 575,-1986.08 575,-1986.08 800.5,-1986.08 952,-1986.08 1130.22,-1993.61 1221.29,-1998"/>
<polygon fill="#666666" stroke="#666666" stroke-width="1.1" points="1221.38,-2000.46 1228.49,-1998.35 1221.62,-1995.56 1221.38,-2000.46"/>
</g>
<!-- termin&#45;default&#45;assets -->
<g id="node44" class="node">
<title>termin&#45;default&#45;assets</title>
<path fill="#f7f7f7" stroke="#444444" d="M1551,-1951.08C1551,-1951.08 1443,-1951.08 1443,-1951.08 1437,-1951.08 1431,-1945.08 1431,-1939.08 1431,-1939.08 1431,-1927.08 1431,-1927.08 1431,-1921.08 1437,-1915.08 1443,-1915.08 1443,-1915.08 1551,-1915.08 1551,-1915.08 1557,-1915.08 1563,-1921.08 1563,-1927.08 1563,-1927.08 1563,-1939.08 1563,-1939.08 1563,-1945.08 1557,-1951.08 1551,-1951.08"/>
<text text-anchor="middle" x="1497" y="-1930.28" font-family="DejaVu Sans" font-size="11.00">termin&#45;default&#45;assets</text>
</g>
<!-- termin&#45;navmesh&#45;&gt;termin&#45;default&#45;assets -->
<g id="edge80" class="edge">
<title>termin&#45;navmesh&#45;&gt;termin&#45;default&#45;assets</title>
<path fill="none" stroke="#666666" stroke-width="1.1" d="M235.21,-1321.26C241.01,-1325.67 246.3,-1330.93 250,-1337.08 386.06,-1563.19 208.32,-1683.34 307,-1928.08 378.69,-2105.89 383.29,-2266.08 575,-2266.08 575,-2266.08 575,-2266.08 1045,-2266.08 1204.26,-2266.08 1252.7,-2227.28 1374,-2124.08 1429.67,-2076.72 1468.78,-1997.53 1486.06,-1957.64"/>
<polygon fill="#666666" stroke="#666666" stroke-width="1.1" points="1488.34,-1958.52 1488.84,-1951.12 1483.84,-1956.6 1488.34,-1958.52"/>
</g>
<!-- termin&#45;player -->
<g id="node50" class="node">
<title>termin&#45;player</title>
<path fill="#f7f7f7" stroke="#444444" d="M1529.5,-929.08C1529.5,-929.08 1464.5,-929.08 1464.5,-929.08 1458.5,-929.08 1452.5,-923.08 1452.5,-917.08 1452.5,-917.08 1452.5,-905.08 1452.5,-905.08 1452.5,-899.08 1458.5,-893.08 1464.5,-893.08 1464.5,-893.08 1529.5,-893.08 1529.5,-893.08 1535.5,-893.08 1541.5,-899.08 1541.5,-905.08 1541.5,-905.08 1541.5,-917.08 1541.5,-917.08 1541.5,-923.08 1535.5,-929.08 1529.5,-929.08"/>
<text text-anchor="middle" x="1497" y="-908.28" font-family="DejaVu Sans" font-size="11.00">termin&#45;player</text>
</g>
<!-- termin&#45;navmesh&#45;&gt;termin&#45;player -->
<g id="edge81" class="edge">
<title>termin&#45;navmesh&#45;&gt;termin&#45;player</title>
<path fill="none" stroke="#666666" stroke-width="1.1" d="M235.35,-1284.99C241.13,-1280.57 246.38,-1275.28 250,-1269.08 342.92,-1109.76 244.12,-614.47 307,-441.08 358.65,-298.67 372.07,-233.94 507,-165.08 561.63,-137.2 583.9,-159.74 645,-165.08 754.7,-174.67 785.99,-169.17 889,-208.08 896.38,-210.87 1369.45,-497.63 1374,-504.08 1445.45,-605.37 1390.98,-659.77 1431,-777.08 1444.62,-817.01 1467.29,-860.48 1481.93,-886.75"/>
<polygon fill="#666666" stroke="#666666" stroke-width="1.1" points="1479.91,-888.15 1485.47,-893.05 1484.18,-885.75 1479.91,-888.15"/>
</g>
<!-- termin&#45;components&#45;physics -->
<g id="node23" class="node">
<title>termin&#45;components&#45;physics</title>
<path fill="#f7f7f7" stroke="#444444" d="M1354,-1486.08C1354,-1486.08 1211,-1486.08 1211,-1486.08 1205,-1486.08 1199,-1480.08 1199,-1474.08 1199,-1474.08 1199,-1462.08 1199,-1462.08 1199,-1456.08 1205,-1450.08 1211,-1450.08 1211,-1450.08 1354,-1450.08 1354,-1450.08 1360,-1450.08 1366,-1456.08 1366,-1462.08 1366,-1462.08 1366,-1474.08 1366,-1474.08 1366,-1480.08 1360,-1486.08 1354,-1486.08"/>
<text text-anchor="middle" x="1282.5" y="-1465.28" font-family="DejaVu Sans" font-size="11.00">termin&#45;components&#45;physics</text>
</g>
<!-- termin&#45;physics&#45;&gt;termin&#45;components&#45;physics -->
<g id="edge83" class="edge">
<title>termin&#45;physics&#45;&gt;termin&#45;components&#45;physics</title>
<path fill="none" stroke="#666666" stroke-width="1.1" d="M1073.53,-1336.18C1117.03,-1363.77 1199.84,-1416.29 1246.77,-1446.06"/>
<polygon fill="#666666" stroke="#666666" stroke-width="1.1" points="1245.65,-1448.24 1252.87,-1449.92 1248.27,-1444.11 1245.65,-1448.24"/>
</g>
<!-- termin&#45;physics&#45;fem -->
<g id="node28" class="node">
<title>termin&#45;physics&#45;fem</title>
<path fill="#f7f7f7" stroke="#444444" d="M847.5,-1674.08C847.5,-1674.08 751.5,-1674.08 751.5,-1674.08 745.5,-1674.08 739.5,-1668.08 739.5,-1662.08 739.5,-1662.08 739.5,-1650.08 739.5,-1650.08 739.5,-1644.08 745.5,-1638.08 751.5,-1638.08 751.5,-1638.08 847.5,-1638.08 847.5,-1638.08 853.5,-1638.08 859.5,-1644.08 859.5,-1650.08 859.5,-1650.08 859.5,-1662.08 859.5,-1662.08 859.5,-1668.08 853.5,-1674.08 847.5,-1674.08"/>
<text text-anchor="middle" x="799.5" y="-1653.28" font-family="DejaVu Sans" font-size="11.00">termin&#45;physics&#45;fem</text>
</g>
<!-- termin&#45;qopt&#45;&gt;termin&#45;physics&#45;fem -->
<g id="edge89" class="edge">
<title>termin&#45;qopt&#45;&gt;termin&#45;physics&#45;fem</title>
<path fill="none" stroke="#666666" stroke-width="1.1" d="M418.24,-1246.31C430,-1251.49 441.93,-1258.83 450,-1269.08 524.49,-1363.76 431.31,-1440.36 507,-1534.08 536.4,-1570.49 656.07,-1612.55 732.64,-1636.57"/>
<polygon fill="#666666" stroke="#666666" stroke-width="1.1" points="732.04,-1638.94 739.45,-1638.69 733.5,-1634.27 732.04,-1638.94"/>
</g>
<!-- termin&#45;scene&#45;&gt;termin&#45;collision -->
<g id="edge98" class="edge">
<title>termin&#45;scene&#45;&gt;termin&#45;collision</title>
<path fill="none" stroke="#666666" stroke-width="1.1" d="M619.71,-1217.08C654.59,-1217.08 704.18,-1217.08 742.29,-1217.08"/>
<polygon fill="#666666" stroke="#666666" stroke-width="1.1" points="742.75,-1219.53 749.75,-1217.08 742.75,-1214.63 742.75,-1219.53"/>
</g>
<!-- termin&#45;scene&#45;&gt;termin&#45;input -->
<g id="edge104" class="edge">
<title>termin&#45;scene&#45;&gt;termin&#45;input</title>
<path fill="none" stroke="#666666" stroke-width="1.1" d="M619.71,-1230.19C657.34,-1241.75 712.09,-1258.56 751.08,-1270.52"/>
<polygon fill="#666666" stroke="#666666" stroke-width="1.1" points="750.75,-1272.99 758.16,-1272.7 752.19,-1268.3 750.75,-1272.99"/>
</g>
<!-- termin&#45;skeleton -->
<g id="node14" class="node">
<title>termin&#45;skeleton</title>
<path fill="#f7f7f7" stroke="#444444" d="M838,-1167.08C838,-1167.08 761,-1167.08 761,-1167.08 755,-1167.08 749,-1161.08 749,-1155.08 749,-1155.08 749,-1143.08 749,-1143.08 749,-1137.08 755,-1131.08 761,-1131.08 761,-1131.08 838,-1131.08 838,-1131.08 844,-1131.08 850,-1137.08 850,-1143.08 850,-1143.08 850,-1155.08 850,-1155.08 850,-1161.08 844,-1167.08 838,-1167.08"/>
<text text-anchor="middle" x="799.5" y="-1146.28" font-family="DejaVu Sans" font-size="11.00">termin&#45;skeleton</text>
</g>
<!-- termin&#45;scene&#45;&gt;termin&#45;skeleton -->
<g id="edge110" class="edge">
<title>termin&#45;scene&#45;&gt;termin&#45;skeleton</title>
<path fill="none" stroke="#666666" stroke-width="1.1" d="M619.71,-1203.97C654.5,-1193.29 703.92,-1178.12 741.99,-1166.43"/>
<polygon fill="#666666" stroke="#666666" stroke-width="1.1" points="742.99,-1168.69 748.96,-1164.29 741.55,-1164 742.99,-1168.69"/>
</g>
<!-- termin&#45;components&#45;kinematic -->
<g id="node21" class="node">
<title>termin&#45;components&#45;kinematic</title>
<path fill="#f7f7f7" stroke="#444444" d="M877,-1606.08C877,-1606.08 722,-1606.08 722,-1606.08 716,-1606.08 710,-1600.08 710,-1594.08 710,-1594.08 710,-1582.08 710,-1582.08 710,-1576.08 716,-1570.08 722,-1570.08 722,-1570.08 877,-1570.08 877,-1570.08 883,-1570.08 889,-1576.08 889,-1582.08 889,-1582.08 889,-1594.08 889,-1594.08 889,-1600.08 883,-1606.08 877,-1606.08"/>
<text text-anchor="middle" x="799.5" y="-1585.28" font-family="DejaVu Sans" font-size="11.00">termin&#45;components&#45;kinematic</text>
</g>
<!-- termin&#45;scene&#45;&gt;termin&#45;components&#45;kinematic -->
<g id="edge99" class="edge">
<title>termin&#45;scene&#45;&gt;termin&#45;components&#45;kinematic</title>
<path fill="none" stroke="#666666" stroke-width="1.1" d="M583.32,-1235.42C607,-1303.99 689.82,-1542.1 702,-1554.08 706.94,-1558.94 712.61,-1563.11 718.68,-1566.68"/>
<polygon fill="#666666" stroke="#666666" stroke-width="1.1" points="717.55,-1568.86 724.87,-1570.06 719.9,-1564.56 717.55,-1568.86"/>
</g>
<!-- termin&#45;scene&#45;&gt;termin&#45;components&#45;mesh -->
<g id="edge100" class="edge">
<title>termin&#45;scene&#45;&gt;termin&#45;components&#45;mesh</title>
<path fill="none" stroke="#666666" stroke-width="1.1" d="M578.85,-1235.12C587.84,-1319.8 629.63,-1677.15 702,-1758.08 706.26,-1762.85 711.23,-1766.94 716.62,-1770.47"/>
<polygon fill="#666666" stroke="#666666" stroke-width="1.1" points="715.37,-1772.57 722.63,-1774.07 717.89,-1768.37 715.37,-1772.57"/>
</g>
<!-- termin&#45;components&#45;tween -->
<g id="node25" class="node">
<title>termin&#45;components&#45;tween</title>
<path fill="#f7f7f7" stroke="#444444" d="M867,-1878.08C867,-1878.08 732,-1878.08 732,-1878.08 726,-1878.08 720,-1872.08 720,-1866.08 720,-1866.08 720,-1854.08 720,-1854.08 720,-1848.08 726,-1842.08 732,-1842.08 732,-1842.08 867,-1842.08 867,-1842.08 873,-1842.08 879,-1848.08 879,-1854.08 879,-1854.08 879,-1866.08 879,-1866.08 879,-1872.08 873,-1878.08 867,-1878.08"/>
<text text-anchor="middle" x="799.5" y="-1857.28" font-family="DejaVu Sans" font-size="11.00">termin&#45;components&#45;tween</text>
</g>
<!-- termin&#45;scene&#45;&gt;termin&#45;components&#45;tween -->
<g id="edge101" class="edge">
<title>termin&#45;scene&#45;&gt;termin&#45;components&#45;tween</title>
<path fill="none" stroke="#666666" stroke-width="1.1" d="M578.35,-1235.2C585.47,-1326.33 621.48,-1733.76 702,-1826.08 706.03,-1830.7 710.72,-1834.69 715.83,-1838.14"/>
<polygon fill="#666666" stroke="#666666" stroke-width="1.1" points="714.76,-1840.36 722,-1841.95 717.33,-1836.19 714.76,-1840.36"/>
</g>
<!-- termin&#45;components&#45;voxels -->
<g id="node27" class="node">
<title>termin&#45;components&#45;voxels</title>
<path fill="#f7f7f7" stroke="#444444" d="M868,-1742.08C868,-1742.08 731,-1742.08 731,-1742.08 725,-1742.08 719,-1736.08 719,-1730.08 719,-1730.08 719,-1718.08 719,-1718.08 719,-1712.08 725,-1706.08 731,-1706.08 731,-1706.08 868,-1706.08 868,-1706.08 874,-1706.08 880,-1712.08 880,-1718.08 880,-1718.08 880,-1730.08 880,-1730.08 880,-1736.08 874,-1742.08 868,-1742.08"/>
<text text-anchor="middle" x="799.5" y="-1721.28" font-family="DejaVu Sans" font-size="11.00">termin&#45;components&#45;voxels</text>
</g>
<!-- termin&#45;scene&#45;&gt;termin&#45;components&#45;voxels -->
<g id="edge102" class="edge">
<title>termin&#45;scene&#45;&gt;termin&#45;components&#45;voxels</title>
<path fill="none" stroke="#666666" stroke-width="1.1" d="M583.93,-1235.15C597.14,-1270.08 626.28,-1349.49 645,-1418.08 677.52,-1537.24 620.62,-1597.17 702,-1690.08 706.04,-1694.69 710.74,-1698.68 715.85,-1702.12"/>
<polygon fill="#666666" stroke="#666666" stroke-width="1.1" points="714.79,-1704.34 722.03,-1705.92 717.35,-1700.17 714.79,-1704.34"/>
</g>
<!-- termin&#45;scene&#45;&gt;termin&#45;physics&#45;fem -->
<g id="edge106" class="edge">
<title>termin&#45;scene&#45;&gt;termin&#45;physics&#45;fem</title>
<path fill="none" stroke="#666666" stroke-width="1.1" d="M583.52,-1235.27C596.03,-1270.4 624.03,-1350.15 645,-1418.08 672.76,-1508.04 637.68,-1553.35 702,-1622.08 710.37,-1631.03 721.23,-1637.62 732.64,-1642.48"/>
<polygon fill="#666666" stroke="#666666" stroke-width="1.1" points="731.99,-1644.86 739.4,-1645.14 733.79,-1640.3 731.99,-1644.86"/>
</g>
<!-- termin&#45;render -->
<g id="node35" class="node">
<title>termin&#45;render</title>
<path fill="#f7f7f7" stroke="#444444" d="M609,-594.08C609,-594.08 543,-594.08 543,-594.08 537,-594.08 531,-588.08 531,-582.08 531,-582.08 531,-570.08 531,-570.08 531,-564.08 537,-558.08 543,-558.08 543,-558.08 609,-558.08 609,-558.08 615,-558.08 621,-564.08 621,-570.08 621,-570.08 621,-582.08 621,-582.08 621,-588.08 615,-594.08 609,-594.08"/>
<text text-anchor="middle" x="576" y="-573.28" font-family="DejaVu Sans" font-size="11.00">termin&#45;render</text>
</g>
<!-- termin&#45;scene&#45;&gt;termin&#45;render -->
<g id="edge109" class="edge">
<title>termin&#45;scene&#45;&gt;termin&#45;render</title>
<path fill="none" stroke="#666666" stroke-width="1.1" d="M538.78,-1199.07C516.85,-1186.24 491.03,-1166.73 478.5,-1141.08 453.63,-1090.16 449.92,-680.01 478.5,-631.08 488.67,-613.67 506.61,-601.34 524.36,-592.83"/>
<polygon fill="#666666" stroke="#666666" stroke-width="1.1" points="525.51,-594.99 530.87,-589.86 523.48,-590.53 525.51,-594.99"/>
</g>
<!-- termin&#45;glb -->
<g id="node45" class="node">
<title>termin&#45;glb</title>
<path fill="#f7f7f7" stroke="#444444" d="M823,-997.08C823,-997.08 776,-997.08 776,-997.08 770,-997.08 764,-991.08 764,-985.08 764,-985.08 764,-973.08 764,-973.08 764,-967.08 770,-961.08 776,-961.08 776,-961.08 823,-961.08 823,-961.08 829,-961.08 835,-967.08 835,-973.08 835,-973.08 835,-985.08 835,-985.08 835,-991.08 829,-997.08 823,-997.08"/>
<text text-anchor="middle" x="799.5" y="-976.28" font-family="DejaVu Sans" font-size="11.00">termin&#45;glb</text>
</g>
<!-- termin&#45;scene&#45;&gt;termin&#45;glb -->
<g id="edge103" class="edge">
<title>termin&#45;scene&#45;&gt;termin&#45;glb</title>
<path fill="none" stroke="#666666" stroke-width="1.1" d="M583.27,-1198.97C597.84,-1159.49 637.72,-1065.05 702,-1013.08 717.73,-1000.36 738.56,-992.23 756.84,-987.12"/>
<polygon fill="#666666" stroke="#666666" stroke-width="1.1" points="757.83,-989.4 763.97,-985.25 756.58,-984.66 757.83,-989.4"/>
</g>
<!-- termin&#45;mcp -->
<g id="node47" class="node">
<title>termin&#45;mcp</title>
<path fill="#f7f7f7" stroke="#444444" d="M826.5,-929.08C826.5,-929.08 772.5,-929.08 772.5,-929.08 766.5,-929.08 760.5,-923.08 760.5,-917.08 760.5,-917.08 760.5,-905.08 760.5,-905.08 760.5,-899.08 766.5,-893.08 772.5,-893.08 772.5,-893.08 826.5,-893.08 826.5,-893.08 832.5,-893.08 838.5,-899.08 838.5,-905.08 838.5,-905.08 838.5,-917.08 838.5,-917.08 838.5,-923.08 832.5,-929.08 826.5,-929.08"/>
<text text-anchor="middle" x="799.5" y="-908.28" font-family="DejaVu Sans" font-size="11.00">termin&#45;mcp</text>
</g>
<!-- termin&#45;scene&#45;&gt;termin&#45;mcp -->
<g id="edge105" class="edge">
<title>termin&#45;scene&#45;&gt;termin&#45;mcp</title>
<path fill="none" stroke="#666666" stroke-width="1.1" d="M580.25,-1198.97C589.84,-1150.67 622.51,-1017.57 702,-945.08 716.25,-932.09 735.77,-924 753.53,-918.99"/>
<polygon fill="#666666" stroke="#666666" stroke-width="1.1" points="754.35,-921.31 760.5,-917.16 753.1,-916.57 754.35,-921.31"/>
</g>
<!-- termin&#45;prefab -->
<g id="node51" class="node">
<title>termin&#45;prefab</title>
<path fill="#f7f7f7" stroke="#444444" d="M832.5,-1065.08C832.5,-1065.08 766.5,-1065.08 766.5,-1065.08 760.5,-1065.08 754.5,-1059.08 754.5,-1053.08 754.5,-1053.08 754.5,-1041.08 754.5,-1041.08 754.5,-1035.08 760.5,-1029.08 766.5,-1029.08 766.5,-1029.08 832.5,-1029.08 832.5,-1029.08 838.5,-1029.08 844.5,-1035.08 844.5,-1041.08 844.5,-1041.08 844.5,-1053.08 844.5,-1053.08 844.5,-1059.08 838.5,-1065.08 832.5,-1065.08"/>
<text text-anchor="middle" x="799.5" y="-1044.28" font-family="DejaVu Sans" font-size="11.00">termin&#45;prefab</text>
</g>
<!-- termin&#45;scene&#45;&gt;termin&#45;prefab -->
<g id="edge107" class="edge">
<title>termin&#45;scene&#45;&gt;termin&#45;prefab</title>
<path fill="none" stroke="#666666" stroke-width="1.1" d="M586.9,-1199.02C605.22,-1167.4 647.56,-1102.22 702,-1069.08 715.62,-1060.79 732.04,-1055.62 747.45,-1052.4"/>
<polygon fill="#666666" stroke="#666666" stroke-width="1.1" points="748.03,-1054.78 754.44,-1051.05 747.11,-1049.97 748.03,-1054.78"/>
</g>
<!-- termin&#45;project&#45;modules -->
<g id="node54" class="node">
<title>termin&#45;project&#45;modules</title>
<path fill="#f7f7f7" stroke="#444444" d="M859,-725.08C859,-725.08 740,-725.08 740,-725.08 734,-725.08 728,-719.08 728,-713.08 728,-713.08 728,-701.08 728,-701.08 728,-695.08 734,-689.08 740,-689.08 740,-689.08 859,-689.08 859,-689.08 865,-689.08 871,-695.08 871,-701.08 871,-701.08 871,-713.08 871,-713.08 871,-719.08 865,-725.08 859,-725.08"/>
<text text-anchor="middle" x="799.5" y="-704.28" font-family="DejaVu Sans" font-size="11.00">termin&#45;project&#45;modules</text>
</g>
<!-- termin&#45;scene&#45;&gt;termin&#45;project&#45;modules -->
<g id="edge108" class="edge">
<title>termin&#45;scene&#45;&gt;termin&#45;project&#45;modules</title>
<path fill="none" stroke="#666666" stroke-width="1.1" d="M577.88,-1198.82C581.8,-1134.68 602.21,-915.97 702,-775.08 715.52,-756 736.15,-740.42 754.88,-729.01"/>
<polygon fill="#666666" stroke="#666666" stroke-width="1.1" points="756.37,-730.97 761.15,-725.3 753.87,-726.76 756.37,-730.97"/>
</g>
<!-- termin&#45;skeleton&#45;&gt;termin&#45;animation -->
<g id="edge113" class="edge">
<title>termin&#45;skeleton&#45;&gt;termin&#45;animation</title>
<path fill="none" stroke="#666666" stroke-width="1.1" d="M848.88,-1167.23C861.95,-1172.25 876.05,-1177.78 889,-1183.08 925.12,-1197.87 965.58,-1215.52 995.96,-1228.98"/>
<polygon fill="#666666" stroke="#666666" stroke-width="1.1" points="995.28,-1231.36 1002.67,-1231.97 997.27,-1226.89 995.28,-1231.36"/>
</g>
<!-- termin&#45;components&#45;skeleton -->
<g id="node24" class="node">
<title>termin&#45;components&#45;skeleton</title>
<path fill="#f7f7f7" stroke="#444444" d="M873.5,-1470.08C873.5,-1470.08 725.5,-1470.08 725.5,-1470.08 719.5,-1470.08 713.5,-1464.08 713.5,-1458.08 713.5,-1458.08 713.5,-1446.08 713.5,-1446.08 713.5,-1440.08 719.5,-1434.08 725.5,-1434.08 725.5,-1434.08 873.5,-1434.08 873.5,-1434.08 879.5,-1434.08 885.5,-1440.08 885.5,-1446.08 885.5,-1446.08 885.5,-1458.08 885.5,-1458.08 885.5,-1464.08 879.5,-1470.08 873.5,-1470.08"/>
<text text-anchor="middle" x="799.5" y="-1449.28" font-family="DejaVu Sans" font-size="11.00">termin&#45;components&#45;skeleton</text>
</g>
<!-- termin&#45;skeleton&#45;&gt;termin&#45;components&#45;skeleton -->
<g id="edge114" class="edge">
<title>termin&#45;skeleton&#45;&gt;termin&#45;components&#45;skeleton</title>
<path fill="none" stroke="#666666" stroke-width="1.1" d="M748.89,-1154.38C720.96,-1160.29 688.9,-1172.78 673.5,-1199.08 649.81,-1239.55 649.81,-1369.62 673.5,-1410.08 681.11,-1423.08 693.04,-1432.18 706.58,-1438.52"/>
<polygon fill="#666666" stroke="#666666" stroke-width="1.1" points="705.95,-1440.92 713.35,-1441.42 707.88,-1436.41 705.95,-1440.92"/>
</g>
<!-- termin&#45;tween -->
<g id="node15" class="node">
<title>termin&#45;tween</title>
<path fill="#f7f7f7" stroke="#444444" d="M229.5,-1389.08C229.5,-1389.08 165.5,-1389.08 165.5,-1389.08 159.5,-1389.08 153.5,-1383.08 153.5,-1377.08 153.5,-1377.08 153.5,-1365.08 153.5,-1365.08 153.5,-1359.08 159.5,-1353.08 165.5,-1353.08 165.5,-1353.08 229.5,-1353.08 229.5,-1353.08 235.5,-1353.08 241.5,-1359.08 241.5,-1365.08 241.5,-1365.08 241.5,-1377.08 241.5,-1377.08 241.5,-1383.08 235.5,-1389.08 229.5,-1389.08"/>
<text text-anchor="middle" x="197.5" y="-1368.28" font-family="DejaVu Sans" font-size="11.00">termin&#45;tween</text>
</g>
<!-- termin&#45;tween&#45;&gt;termin&#45;components&#45;tween -->
<g id="edge115" class="edge">
<title>termin&#45;tween&#45;&gt;termin&#45;components&#45;tween</title>
<path fill="none" stroke="#666666" stroke-width="1.1" d="M199.87,-1389.14C206.21,-1467.73 235.56,-1778.68 307,-1838.08 427.54,-1938.31 627.87,-1906.13 731.62,-1879.88"/>
<polygon fill="#666666" stroke="#666666" stroke-width="1.1" points="732.45,-1882.2 738.62,-1878.09 731.23,-1877.46 732.45,-1882.2"/>
</g>
<!-- termin&#45;voxels -->
<g id="node16" class="node">
<title>termin&#45;voxels</title>
<path fill="#f7f7f7" stroke="#444444" d="M230.5,-1185.08C230.5,-1185.08 164.5,-1185.08 164.5,-1185.08 158.5,-1185.08 152.5,-1179.08 152.5,-1173.08 152.5,-1173.08 152.5,-1161.08 152.5,-1161.08 152.5,-1155.08 158.5,-1149.08 164.5,-1149.08 164.5,-1149.08 230.5,-1149.08 230.5,-1149.08 236.5,-1149.08 242.5,-1155.08 242.5,-1161.08 242.5,-1161.08 242.5,-1173.08 242.5,-1173.08 242.5,-1179.08 236.5,-1185.08 230.5,-1185.08"/>
<text text-anchor="middle" x="197.5" y="-1164.28" font-family="DejaVu Sans" font-size="11.00">termin&#45;voxels</text>
</g>
<!-- termin&#45;voxels&#45;&gt;termin&#45;components&#45;voxels -->
<g id="edge116" class="edge">
<title>termin&#45;voxels&#45;&gt;termin&#45;components&#45;voxels</title>
<path fill="none" stroke="#666666" stroke-width="1.1" d="M234.61,-1185.27C240.54,-1189.71 246.03,-1194.97 250,-1201.08 334.59,-1331.46 207.78,-1426.47 307,-1546.08 408.06,-1667.91 599.57,-1706.36 711.36,-1718.49"/>
<polygon fill="#666666" stroke="#666666" stroke-width="1.1" points="711.39,-1720.96 718.61,-1719.25 711.9,-1716.08 711.39,-1720.96"/>
</g>
<!-- termin -->
<g id="node17" class="node">
<title>termin</title>
<path fill="#f7f7f7" stroke="#444444" d="M59,-735.08C59,-735.08 29,-735.08 29,-735.08 23,-735.08 17,-729.08 17,-723.08 17,-723.08 17,-711.08 17,-711.08 17,-705.08 23,-699.08 29,-699.08 29,-699.08 59,-699.08 59,-699.08 65,-699.08 71,-705.08 71,-711.08 71,-711.08 71,-723.08 71,-723.08 71,-729.08 65,-735.08 59,-735.08"/>
<text text-anchor="middle" x="44" y="-714.28" font-family="DejaVu Sans" font-size="11.00">termin</text>
</g>
<!-- termin&#45;&gt;termin&#45;app -->
<g id="edge2" class="edge">
<title>termin&#45;&gt;termin&#45;app</title>
<path fill="none" stroke="#666666" stroke-width="1.1" d="M44.83,-699C44.77,-587.68 59.51,-0.08 377.5,-0.08 377.5,-0.08 377.5,-0.08 1283.5,-0.08 1412.12,-0.08 1459.47,1.23 1563,-75.08 1610.87,-110.37 1641.61,-175.63 1655.63,-211.27"/>
<polygon fill="#666666" stroke="#666666" stroke-width="1.1" points="1653.42,-212.33 1658.22,-217.98 1657.99,-210.57 1653.42,-212.33"/>
</g>
<!-- termin&#45;&gt;termin&#45;navmesh -->
<g id="edge4" class="edge">
<title>termin&#45;&gt;termin&#45;navmesh</title>
<path fill="none" stroke="#666666" stroke-width="1.1" d="M45.96,-735.18C50.75,-820.16 74.46,-1179.3 137,-1269.08 139.99,-1273.38 143.71,-1277.2 147.82,-1280.59"/>
<polygon fill="#666666" stroke="#666666" stroke-width="1.1" points="146.57,-1282.71 153.64,-1284.94 149.5,-1278.78 146.57,-1282.71"/>
</g>
<!-- termin&#45;&gt;termin&#45;tween -->
<g id="edge7" class="edge">
<title>termin&#45;&gt;termin&#45;tween</title>
<path fill="none" stroke="#666666" stroke-width="1.1" d="M45.59,-735.22C48.88,-826.49 67.32,-1235.11 137,-1337.08 139.95,-1341.4 143.65,-1345.25 147.75,-1348.64"/>
<polygon fill="#666666" stroke="#666666" stroke-width="1.1" points="146.48,-1350.76 153.55,-1353 149.42,-1346.84 146.48,-1350.76"/>
</g>
<!-- termin&#45;&gt;termin&#45;voxels -->
<g id="edge8" class="edge">
<title>termin&#45;&gt;termin&#45;voxels</title>
<path fill="none" stroke="#666666" stroke-width="1.1" d="M47.08,-735.56C55.49,-807.43 88.76,-1067.56 137,-1133.08 140.22,-1137.46 144.19,-1141.36 148.54,-1144.81"/>
<polygon fill="#666666" stroke="#666666" stroke-width="1.1" points="147.12,-1146.81 154.22,-1148.94 150,-1142.84 147.12,-1146.81"/>
</g>
<!-- termin&#45;&gt;termin&#45;mcp -->
<g id="edge3" class="edge">
<title>termin&#45;&gt;termin&#45;mcp</title>
<path fill="none" stroke="#666666" stroke-width="1.1" d="M55.34,-698.9C115.57,-595.15 425.97,-89.36 645,-287.08 737.19,-370.31 639.26,-735.89 702,-843.08 713.96,-863.51 734.77,-879.35 754.01,-890.58"/>
<polygon fill="#666666" stroke="#666666" stroke-width="1.1" points="752.89,-892.76 760.19,-894.06 755.29,-888.49 752.89,-892.76"/>
</g>
<!-- termin&#45;&gt;termin&#45;player -->
<g id="edge5" class="edge">
<title>termin&#45;&gt;termin&#45;player</title>
<path fill="none" stroke="#666666" stroke-width="1.1" d="M47.58,-698.9C59.64,-621.44 118.06,-317.27 307,-192.08 522.93,-49 634.95,-110.52 889,-161.08 1122.6,-207.58 1242.76,-190.31 1374,-389.08 1470.03,-534.53 1379.7,-610.51 1431,-777.08 1443.35,-817.18 1466.15,-860.27 1481.2,-886.46"/>
<polygon fill="#666666" stroke="#666666" stroke-width="1.1" points="1479.21,-887.92 1484.85,-892.74 1483.45,-885.46 1479.21,-887.92"/>
</g>
<!-- termin&#45;shader&#45;runtime -->
<g id="node57" class="node">
<title>termin&#45;shader&#45;runtime</title>
<path fill="#f7f7f7" stroke="#444444" d="M633,-735.08C633,-735.08 519,-735.08 519,-735.08 513,-735.08 507,-729.08 507,-723.08 507,-723.08 507,-711.08 507,-711.08 507,-705.08 513,-699.08 519,-699.08 519,-699.08 633,-699.08 633,-699.08 639,-699.08 645,-705.08 645,-711.08 645,-711.08 645,-723.08 645,-723.08 645,-729.08 639,-735.08 633,-735.08"/>
<text text-anchor="middle" x="576" y="-714.28" font-family="DejaVu Sans" font-size="11.00">termin&#45;shader&#45;runtime</text>
</g>
<!-- termin&#45;&gt;termin&#45;shader&#45;runtime -->
<g id="edge6" class="edge">
<title>termin&#45;&gt;termin&#45;shader&#45;runtime</title>
<path fill="none" stroke="#666666" stroke-width="1.1" d="M71.28,-717.08C148.9,-717.08 379.19,-717.08 499.65,-717.08"/>
<polygon fill="#666666" stroke="#666666" stroke-width="1.1" points="499.71,-719.53 506.71,-717.08 499.71,-714.63 499.71,-719.53"/>
</g>
<!-- termin&#45;components&#45;animation&#45;&gt;termin&#45;bootstrap -->
<g id="edge31" class="edge">
<title>termin&#45;components&#45;animation&#45;&gt;termin&#45;bootstrap</title>
<path fill="none" stroke="#666666" stroke-width="1.1" d="M1053.84,-1570.16C1070.74,-1605.14 1108.25,-1684.75 1134,-1754.08 1168.46,-1846.87 1132.41,-1893.86 1199,-1967.08 1205.31,-1974.02 1213.26,-1979.58 1221.7,-1984.03"/>
<polygon fill="#666666" stroke="#666666" stroke-width="1.1" points="1220.88,-1986.35 1228.25,-1987.21 1223.02,-1981.94 1220.88,-1986.35"/>
</g>
<!-- termin&#45;components&#45;collision&#45;&gt;termin&#45;components&#45;physics -->
<g id="edge33" class="edge">
<title>termin&#45;components&#45;collision&#45;&gt;termin&#45;components&#45;physics</title>
<path fill="none" stroke="#666666" stroke-width="1.1" d="M1129.05,-1478.4C1149.36,-1477.02 1171.14,-1475.55 1191.7,-1474.16"/>
<polygon fill="#666666" stroke="#666666" stroke-width="1.1" points="1192.1,-1476.59 1198.92,-1473.67 1191.77,-1471.7 1192.1,-1476.59"/>
</g>
<!-- termin&#45;components&#45;collision&#45;&gt;termin&#45;bootstrap -->
<g id="edge32" class="edge">
<title>termin&#45;components&#45;collision&#45;&gt;termin&#45;bootstrap</title>
<path fill="none" stroke="#666666" stroke-width="1.1" d="M1115.1,-1502.15C1122.29,-1506.39 1128.83,-1511.62 1134,-1518.08 1259.97,-1675.52 1075.08,-1808.02 1199,-1967.08 1204.98,-1974.75 1212.98,-1980.71 1221.66,-1985.32"/>
<polygon fill="#666666" stroke="#666666" stroke-width="1.1" points="1220.71,-1987.59 1228.08,-1988.45 1222.86,-1983.18 1220.71,-1987.59"/>
</g>
<!-- termin&#45;render&#45;passes -->
<g id="node55" class="node">
<title>termin&#45;render&#45;passes</title>
<path fill="#f7f7f7" stroke="#444444" d="M1336.5,-1951.08C1336.5,-1951.08 1228.5,-1951.08 1228.5,-1951.08 1222.5,-1951.08 1216.5,-1945.08 1216.5,-1939.08 1216.5,-1939.08 1216.5,-1927.08 1216.5,-1927.08 1216.5,-1921.08 1222.5,-1915.08 1228.5,-1915.08 1228.5,-1915.08 1336.5,-1915.08 1336.5,-1915.08 1342.5,-1915.08 1348.5,-1921.08 1348.5,-1927.08 1348.5,-1927.08 1348.5,-1939.08 1348.5,-1939.08 1348.5,-1945.08 1342.5,-1951.08 1336.5,-1951.08"/>
<text text-anchor="middle" x="1282.5" y="-1930.28" font-family="DejaVu Sans" font-size="11.00">termin&#45;render&#45;passes</text>
</g>
<!-- termin&#45;components&#45;collision&#45;&gt;termin&#45;render&#45;passes -->
<g id="edge34" class="edge">
<title>termin&#45;components&#45;collision&#45;&gt;termin&#45;render&#45;passes</title>
<path fill="none" stroke="#666666" stroke-width="1.1" d="M1114.98,-1502.26C1122.19,-1506.48 1128.77,-1511.68 1134,-1518.08 1245.99,-1655.2 1080.01,-1779.99 1199,-1911.08 1202.28,-1914.7 1206.08,-1917.74 1210.21,-1920.31"/>
<polygon fill="#666666" stroke="#666666" stroke-width="1.1" points="1209.17,-1922.53 1216.49,-1923.74 1211.52,-1918.23 1209.17,-1922.53"/>
</g>
<!-- termin&#45;components&#45;kinematic&#45;&gt;termin&#45;csharp -->
<g id="edge36" class="edge">
<title>termin&#45;components&#45;kinematic&#45;&gt;termin&#45;csharp</title>
<path fill="none" stroke="#666666" stroke-width="1.1" d="M870.26,-1606.17C877.39,-1610.41 883.89,-1615.63 889,-1622.08 1020.32,-1787.64 794.69,-1954.25 954,-2093.08 1094.73,-2215.72 1236.61,-2219.45 1374,-2093.08 1429.89,-2041.68 1413.1,-1485.87 1431,-1412.08 1442.83,-1363.31 1467.65,-1310.02 1482.96,-1279.76"/>
<polygon fill="#666666" stroke="#666666" stroke-width="1.1" points="1485.26,-1280.65 1486.26,-1273.3 1480.9,-1278.42 1485.26,-1280.65"/>
</g>
<!-- termin&#45;components&#45;kinematic&#45;&gt;termin&#45;bootstrap -->
<g id="edge35" class="edge">
<title>termin&#45;components&#45;kinematic&#45;&gt;termin&#45;bootstrap</title>
<path fill="none" stroke="#666666" stroke-width="1.1" d="M860.94,-1606.12C870.82,-1610.49 880.57,-1615.77 889,-1622.08 927.08,-1650.57 923.21,-1670.84 954,-1707.08 1056.8,-1828.08 1068.23,-1877.04 1199,-1967.08 1205.98,-1971.89 1213.74,-1976.19 1221.63,-1979.99"/>
<polygon fill="#666666" stroke="#666666" stroke-width="1.1" points="1220.89,-1982.35 1228.28,-1983.06 1222.95,-1977.9 1220.89,-1982.35"/>
</g>
<!-- termin&#45;components&#45;kinematic&#45;&gt;termin&#45;player -->
<g id="edge37" class="edge">
<title>termin&#45;components&#45;kinematic&#45;&gt;termin&#45;player</title>
<path fill="none" stroke="#666666" stroke-width="1.1" d="M867.98,-1606.27C875.78,-1610.5 883.06,-1615.7 889,-1622.08 956.72,-1694.85 898.55,-1753.58 954,-1836.08 1032.25,-1952.51 1066.8,-1988.16 1199,-2035.08 1272.3,-2061.1 1317.11,-2088.12 1374,-2035.08 1440.31,-1973.25 1418.5,-1310.88 1431,-1221.08 1445.91,-1113.92 1476.3,-988.37 1489.56,-936"/>
<polygon fill="#666666" stroke="#666666" stroke-width="1.1" points="1491.96,-936.49 1491.32,-929.1 1487.22,-935.28 1491.96,-936.49"/>
</g>
<!-- termin&#45;components&#45;mesh&#45;&gt;termin&#45;navmesh -->
<g id="edge40" class="edge">
<title>termin&#45;components&#45;mesh&#45;&gt;termin&#45;navmesh</title>
<path fill="none" stroke="#666666" stroke-width="1.1" d="M721.19,-1805.05C598.35,-1823.73 366.38,-1850.57 307,-1798.08 229.66,-1729.72 304.41,-1424.8 250,-1337.08 247.42,-1332.92 244.12,-1329.16 240.44,-1325.8"/>
<polygon fill="#666666" stroke="#666666" stroke-width="1.1" points="241.77,-1323.72 234.82,-1321.14 238.65,-1327.49 241.77,-1323.72"/>
</g>
<!-- termin&#45;components&#45;mesh&#45;&gt;termin&#45;components&#45;collision -->
<g id="edge38" class="edge">
<title>termin&#45;components&#45;mesh&#45;&gt;termin&#45;components&#45;collision</title>
<path fill="none" stroke="#666666" stroke-width="1.1" d="M868.16,-1774.07C875.94,-1769.81 883.16,-1764.56 889,-1758.08 963.04,-1676.05 879.88,-1600.05 954,-1518.08 958.15,-1513.5 962.98,-1509.53 968.21,-1506.09"/>
<polygon fill="#666666" stroke="#666666" stroke-width="1.1" points="969.78,-1508 974.51,-1502.29 967.25,-1503.8 969.78,-1508"/>
</g>
<!-- termin&#45;components&#45;render -->
<g id="node31" class="node">
<title>termin&#45;components&#45;render</title>
<path fill="#f7f7f7" stroke="#444444" d="M1113,-594.08C1113,-594.08 975,-594.08 975,-594.08 969,-594.08 963,-588.08 963,-582.08 963,-582.08 963,-570.08 963,-570.08 963,-564.08 969,-558.08 975,-558.08 975,-558.08 1113,-558.08 1113,-558.08 1119,-558.08 1125,-564.08 1125,-570.08 1125,-570.08 1125,-582.08 1125,-582.08 1125,-588.08 1119,-594.08 1113,-594.08"/>
<text text-anchor="middle" x="1044" y="-573.28" font-family="DejaVu Sans" font-size="11.00">termin&#45;components&#45;render</text>
</g>
<!-- termin&#45;components&#45;mesh&#45;&gt;termin&#45;components&#45;render -->
<g id="edge39" class="edge">
<title>termin&#45;components&#45;mesh&#45;&gt;termin&#45;components&#45;render</title>
<path fill="none" stroke="#666666" stroke-width="1.1" d="M870.96,-1773.95C877.88,-1769.72 884.13,-1764.51 889,-1758.08 982.46,-1634.83 932.91,-1218.31 954,-1065.08 978.63,-886.15 1022.48,-672.92 1037.66,-601.09"/>
<polygon fill="#666666" stroke="#666666" stroke-width="1.1" points="1040.06,-601.55 1039.12,-594.2 1035.27,-600.54 1040.06,-601.55"/>
</g>
<!-- termin&#45;components&#45;physics&#45;&gt;termin&#45;default&#45;assets -->
<g id="edge41" class="edge">
<title>termin&#45;components&#45;physics&#45;&gt;termin&#45;default&#45;assets</title>
<path fill="none" stroke="#666666" stroke-width="1.1" d="M1291.83,-1486.31C1324.89,-1558.66 1446.91,-1825.66 1484.74,-1908.44"/>
<polygon fill="#666666" stroke="#666666" stroke-width="1.1" points="1482.59,-1909.63 1487.73,-1914.98 1487.05,-1907.59 1482.59,-1909.63"/>
</g>
<!-- termin&#45;components&#45;physics&#45;&gt;termin&#45;player -->
<g id="edge42" class="edge">
<title>termin&#45;components&#45;physics&#45;&gt;termin&#45;player</title>
<path fill="none" stroke="#666666" stroke-width="1.1" d="M1290.77,-1449.94C1306.27,-1411.14 1343.67,-1317.22 1374,-1238.08 1417.06,-1125.72 1466.73,-990.91 1486.84,-936.09"/>
<polygon fill="#666666" stroke="#666666" stroke-width="1.1" points="1489.26,-936.62 1489.37,-929.2 1484.66,-934.93 1489.26,-936.62"/>
</g>
<!-- termin&#45;components&#45;skeleton&#45;&gt;termin&#45;components&#45;animation -->
<g id="edge46" class="edge">
<title>termin&#45;components&#45;skeleton&#45;&gt;termin&#45;components&#45;animation</title>
<path fill="none" stroke="#666666" stroke-width="1.1" d="M849.97,-1470.18C862.78,-1475.11 876.48,-1480.61 889,-1486.08 918.5,-1498.98 924.48,-1505.21 954,-1518.08 964.42,-1522.63 975.66,-1527.18 986.53,-1531.41"/>
<polygon fill="#666666" stroke="#666666" stroke-width="1.1" points="985.83,-1533.77 993.24,-1534 987.59,-1529.2 985.83,-1533.77"/>
</g>
<!-- termin&#45;components&#45;skeleton&#45;&gt;termin&#45;components&#45;render -->
<g id="edge47" class="edge">
<title>termin&#45;components&#45;skeleton&#45;&gt;termin&#45;components&#45;render</title>
<path fill="none" stroke="#666666" stroke-width="1.1" d="M880.1,-1434.05C883.33,-1431.71 886.33,-1429.06 889,-1426.08 997.91,-1304.77 924.96,-1225.5 954,-1065.08 986.17,-887.36 1025.23,-673.36 1038.41,-601.21"/>
<polygon fill="#666666" stroke="#666666" stroke-width="1.1" points="1040.83,-601.61 1039.67,-594.29 1036.01,-600.73 1040.83,-601.61"/>
</g>
<!-- termin&#45;components&#45;tween&#45;&gt;termin&#45;player -->
<g id="edge48" class="edge">
<title>termin&#45;components&#45;tween&#45;&gt;termin&#45;player</title>
<path fill="none" stroke="#666666" stroke-width="1.1" d="M818.26,-1878.21C894.87,-1954.34 1201.03,-2236.89 1374,-2075.08 1443.45,-2010.11 1418.04,-1315.3 1431,-1221.08 1445.74,-1113.9 1476.22,-988.36 1489.53,-935.99"/>
<polygon fill="#666666" stroke="#666666" stroke-width="1.1" points="1491.94,-936.49 1491.3,-929.1 1487.19,-935.27 1491.94,-936.49"/>
</g>
<!-- termin&#45;components&#45;ui&#45;&gt;termin&#45;render&#45;passes -->
<g id="edge49" class="edge">
<title>termin&#45;components&#45;ui&#45;&gt;termin&#45;render&#45;passes</title>
<path fill="none" stroke="#666666" stroke-width="1.1" d="M852.18,-1538.15C864.43,-1542.92 877.33,-1548.35 889,-1554.08 946.19,-1582.18 1094.75,-1652.88 1134,-1703.08 1193.66,-1779.38 1129.08,-1844.06 1199,-1911.08 1202.3,-1914.25 1206,-1916.97 1209.96,-1919.31"/>
<polygon fill="#666666" stroke="#666666" stroke-width="1.1" points="1209.04,-1921.59 1216.38,-1922.67 1211.32,-1917.25 1209.04,-1921.59"/>
</g>
<!-- termin&#45;components&#45;voxels&#45;&gt;termin&#45;navmesh -->
<g id="edge50" class="edge">
<title>termin&#45;components&#45;voxels&#45;&gt;termin&#45;navmesh</title>
<path fill="none" stroke="#666666" stroke-width="1.1" d="M718.97,-1740.73C610.64,-1758.33 417.56,-1770.82 307,-1666.08 199.27,-1564.02 331.25,-1461.26 250,-1337.08 247.22,-1332.83 243.7,-1328.99 239.81,-1325.54"/>
<polygon fill="#666666" stroke="#666666" stroke-width="1.1" points="241.3,-1323.6 234.31,-1321.1 238.22,-1327.41 241.3,-1323.6"/>
</g>
<!-- termin&#45;assets&#45;&gt;termin&#45;skeleton -->
<g id="edge18" class="edge">
<title>termin&#45;assets&#45;&gt;termin&#45;skeleton</title>
<path fill="none" stroke="#666666" stroke-width="1.1" d="M423.55,-1031.85C500.16,-1055.81 657.82,-1105.1 742.23,-1131.49"/>
<polygon fill="#666666" stroke="#666666" stroke-width="1.1" points="741.51,-1133.83 748.92,-1133.58 742.97,-1129.15 741.51,-1133.83"/>
</g>
<!-- termin&#45;assets&#45;&gt;termin&#45;components&#45;voxels -->
<g id="edge13" class="edge">
<title>termin&#45;assets&#45;&gt;termin&#45;components&#45;voxels</title>
<path fill="none" stroke="#666666" stroke-width="1.1" d="M418.76,-1036.28C430.55,-1043.62 442.37,-1053.2 450,-1065.08 536.78,-1200.31 445.37,-1273.7 507,-1422.08 510.53,-1430.58 694.62,-1684.58 702,-1690.08 708.68,-1695.06 716.14,-1699.35 723.89,-1703.04"/>
<polygon fill="#666666" stroke="#666666" stroke-width="1.1" points="723.06,-1705.36 730.45,-1706.01 725.08,-1700.89 723.06,-1705.36"/>
</g>
<!-- termin&#45;components&#45;foliage -->
<g id="node43" class="node">
<title>termin&#45;components&#45;foliage</title>
<path fill="#f7f7f7" stroke="#444444" d="M868.5,-827.08C868.5,-827.08 730.5,-827.08 730.5,-827.08 724.5,-827.08 718.5,-821.08 718.5,-815.08 718.5,-815.08 718.5,-803.08 718.5,-803.08 718.5,-797.08 724.5,-791.08 730.5,-791.08 730.5,-791.08 868.5,-791.08 868.5,-791.08 874.5,-791.08 880.5,-797.08 880.5,-803.08 880.5,-803.08 880.5,-815.08 880.5,-815.08 880.5,-821.08 874.5,-827.08 868.5,-827.08"/>
<text text-anchor="middle" x="799.5" y="-806.28" font-family="DejaVu Sans" font-size="11.00">termin&#45;components&#45;foliage</text>
</g>
<!-- termin&#45;assets&#45;&gt;termin&#45;components&#45;foliage -->
<g id="edge12" class="edge">
<title>termin&#45;assets&#45;&gt;termin&#45;components&#45;foliage</title>
<path fill="none" stroke="#666666" stroke-width="1.1" d="M420.44,-999.92C430.31,-995.12 440.69,-989.69 450,-984.08 476.95,-967.84 479.87,-958.03 507,-942.08 586.19,-895.52 684.51,-853.69 744.33,-829.86"/>
<polygon fill="#666666" stroke="#666666" stroke-width="1.1" points="745.46,-832.04 751.07,-827.18 743.66,-827.49 745.46,-832.04"/>
</g>
<!-- termin&#45;assets&#45;&gt;termin&#45;glb -->
<g id="edge14" class="edge">
<title>termin&#45;assets&#45;&gt;termin&#45;glb</title>
<path fill="none" stroke="#666666" stroke-width="1.1" d="M423.55,-1013.98C504.66,-1006.43 676.62,-990.43 756.32,-983.01"/>
<polygon fill="#666666" stroke="#666666" stroke-width="1.1" points="756.99,-985.41 763.74,-982.32 756.54,-980.53 756.99,-985.41"/>
</g>
<!-- termin&#45;assets&#45;&gt;termin&#45;mcp -->
<g id="edge15" class="edge">
<title>termin&#45;assets&#45;&gt;termin&#45;mcp</title>
<path fill="none" stroke="#666666" stroke-width="1.1" d="M423.74,-1006.58C448.27,-1000.21 479.31,-992.18 507,-985.08 594.06,-962.76 695.84,-937 753.18,-922.52"/>
<polygon fill="#666666" stroke="#666666" stroke-width="1.1" points="754.1,-924.81 760.29,-920.72 752.9,-920.06 754.1,-924.81"/>
</g>
<!-- termin&#45;assets&#45;&gt;termin&#45;prefab -->
<g id="edge16" class="edge">
<title>termin&#45;assets&#45;&gt;termin&#45;prefab</title>
<path fill="none" stroke="#666666" stroke-width="1.1" d="M423.55,-1021.13C501.74,-1026.54 664.36,-1037.8 747.36,-1043.54"/>
<polygon fill="#666666" stroke="#666666" stroke-width="1.1" points="747.26,-1045.99 754.41,-1044.03 747.6,-1041.1 747.26,-1045.99"/>
</g>
<!-- termin&#45;assets&#45;&gt;termin&#45;shader&#45;runtime -->
<g id="edge17" class="edge">
<title>termin&#45;assets&#45;&gt;termin&#45;shader&#45;runtime</title>
<path fill="none" stroke="#666666" stroke-width="1.1" d="M423.7,-1003.24C433.36,-998.35 442.82,-992.06 450,-984.08 500.22,-928.28 474.14,-892.58 507,-825.08 521.74,-794.8 542.95,-762.41 557.75,-741.08"/>
<polygon fill="#666666" stroke="#666666" stroke-width="1.1" points="559.93,-742.24 561.93,-735.1 555.91,-739.43 559.93,-742.24"/>
</g>
<!-- termin&#45;nanobind&#45;sdk -->
<g id="node30" class="node">
<title>termin&#45;nanobind&#45;sdk</title>
<path fill="#f7f7f7" stroke="#444444" d="M430,-968.08C430,-968.08 327,-968.08 327,-968.08 321,-968.08 315,-962.08 315,-956.08 315,-956.08 315,-944.08 315,-944.08 315,-938.08 321,-932.08 327,-932.08 327,-932.08 430,-932.08 430,-932.08 436,-932.08 442,-938.08 442,-944.08 442,-944.08 442,-956.08 442,-956.08 442,-962.08 436,-968.08 430,-968.08"/>
<text text-anchor="middle" x="378.5" y="-947.28" font-family="DejaVu Sans" font-size="11.00">termin&#45;nanobind&#45;sdk</text>
</g>
<!-- termin&#45;nanobind&#45;sdk&#45;&gt;termin&#45;base -->
<g id="edge78" class="edge">
<title>termin&#45;nanobind&#45;sdk&#45;&gt;termin&#45;base</title>
<path fill="none" stroke="#666666" stroke-width="1.1" d="M333.57,-968.2C324.43,-972.8 315.11,-978.14 307,-984.08 270.91,-1010.5 236.81,-1049.88 216.78,-1075.01"/>
<polygon fill="#666666" stroke="#666666" stroke-width="1.1" points="214.65,-1073.76 212.24,-1080.77 218.5,-1076.79 214.65,-1073.76"/>
</g>
<!-- termin&#45;components&#45;render&#45;&gt;termin&#45;bootstrap -->
<g id="edge43" class="edge">
<title>termin&#45;components&#45;render&#45;&gt;termin&#45;bootstrap</title>
<path fill="none" stroke="#666666" stroke-width="1.1" d="M1049.03,-594.18C1063.1,-658.15 1110.53,-879.74 1134,-1065.08 1146.63,-1164.77 1140.13,-1885.65 1199,-1967.08 1204.9,-1975.24 1213.12,-1981.45 1222.11,-1986.17"/>
<polygon fill="#666666" stroke="#666666" stroke-width="1.1" points="1221.06,-1988.39 1228.43,-1989.21 1223.18,-1983.97 1221.06,-1988.39"/>
</g>
<!-- termin&#45;components&#45;render&#45;&gt;termin&#45;render&#45;passes -->
<g id="edge44" class="edge">
<title>termin&#45;components&#45;render&#45;&gt;termin&#45;render&#45;passes</title>
<path fill="none" stroke="#666666" stroke-width="1.1" d="M1048.99,-594.18C1062.97,-658.17 1110.09,-879.8 1134,-1065.08 1146.07,-1158.58 1138.74,-1838.58 1199,-1911.08 1202.18,-1914.91 1205.95,-1918.12 1210.1,-1920.79"/>
<polygon fill="#666666" stroke="#666666" stroke-width="1.1" points="1209.11,-1923.05 1216.41,-1924.34 1211.51,-1918.78 1209.11,-1923.05"/>
</g>
<!-- termin&#45;runtime -->
<g id="node56" class="node">
<title>termin&#45;runtime</title>
<path fill="#f7f7f7" stroke="#444444" d="M1533.5,-761.08C1533.5,-761.08 1460.5,-761.08 1460.5,-761.08 1454.5,-761.08 1448.5,-755.08 1448.5,-749.08 1448.5,-749.08 1448.5,-737.08 1448.5,-737.08 1448.5,-731.08 1454.5,-725.08 1460.5,-725.08 1460.5,-725.08 1533.5,-725.08 1533.5,-725.08 1539.5,-725.08 1545.5,-731.08 1545.5,-737.08 1545.5,-737.08 1545.5,-749.08 1545.5,-749.08 1545.5,-755.08 1539.5,-761.08 1533.5,-761.08"/>
<text text-anchor="middle" x="1497" y="-740.28" font-family="DejaVu Sans" font-size="11.00">termin&#45;runtime</text>
</g>
<!-- termin&#45;components&#45;render&#45;&gt;termin&#45;runtime -->
<g id="edge45" class="edge">
<title>termin&#45;components&#45;render&#45;&gt;termin&#45;runtime</title>
<path fill="none" stroke="#666666" stroke-width="1.1" d="M1110.97,-594.13C1178.15,-613.25 1284.83,-645.67 1374,-682.08 1402.36,-693.66 1433.2,-709.11 1456.78,-721.56"/>
<polygon fill="#666666" stroke="#666666" stroke-width="1.1" points="1455.9,-723.87 1463.23,-724.99 1458.2,-719.54 1455.9,-723.87"/>
</g>
<!-- termin&#45;display&#45;&gt;termin&#45;components&#45;render -->
<g id="edge52" class="edge">
<title>termin&#45;display&#45;&gt;termin&#45;components&#45;render</title>
<path fill="none" stroke="#666666" stroke-width="1.1" d="M846.11,-576.08C876.85,-576.08 918.4,-576.08 955.4,-576.08"/>
<polygon fill="#666666" stroke="#666666" stroke-width="1.1" points="955.73,-578.53 962.73,-576.08 955.73,-573.63 955.73,-578.53"/>
</g>
<!-- termin&#45;display&#45;&gt;termin&#45;engine -->
<g id="edge53" class="edge">
<title>termin&#45;display&#45;&gt;termin&#45;engine</title>
<path fill="none" stroke="#666666" stroke-width="1.1" d="M835.7,-557.97C901.94,-526.69 1046.35,-472.31 1134,-542.08 1184.1,-581.97 1259.66,-1044.14 1277.59,-1157.9"/>
<polygon fill="#666666" stroke="#666666" stroke-width="1.1" points="1275.18,-1158.35 1278.68,-1164.88 1280.02,-1157.59 1275.18,-1158.35"/>
</g>
<!-- termin&#45;graphics&#45;&gt;termin&#45;voxels -->
<g id="edge65" class="edge">
<title>termin&#45;graphics&#45;&gt;termin&#45;voxels</title>
<path fill="none" stroke="#666666" stroke-width="1.1" d="M373.77,-594.09C354.46,-687.11 266.09,-1109.87 250,-1133.08 247.06,-1137.32 243.41,-1141.17 239.41,-1144.62"/>
<polygon fill="#666666" stroke="#666666" stroke-width="1.1" points="237.75,-1142.81 233.79,-1149.08 240.79,-1146.65 237.75,-1142.81"/>
</g>
<!-- termin&#45;graphics&#45;&gt;termin&#45;render -->
<g id="edge63" class="edge">
<title>termin&#45;graphics&#45;&gt;termin&#45;render</title>
<path fill="none" stroke="#666666" stroke-width="1.1" d="M429.09,-576.08C457.97,-576.08 494.34,-576.08 523.54,-576.08"/>
<polygon fill="#666666" stroke="#666666" stroke-width="1.1" points="523.8,-578.53 530.8,-576.08 523.8,-573.63 523.8,-578.53"/>
</g>
<!-- termin&#45;gui -->
<g id="node38" class="node">
<title>termin&#45;gui</title>
<path fill="#f7f7f7" stroke="#444444" d="M599.5,-398.08C599.5,-398.08 552.5,-398.08 552.5,-398.08 546.5,-398.08 540.5,-392.08 540.5,-386.08 540.5,-386.08 540.5,-374.08 540.5,-374.08 540.5,-368.08 546.5,-362.08 552.5,-362.08 552.5,-362.08 599.5,-362.08 599.5,-362.08 605.5,-362.08 611.5,-368.08 611.5,-374.08 611.5,-374.08 611.5,-386.08 611.5,-386.08 611.5,-392.08 605.5,-398.08 599.5,-398.08"/>
<text text-anchor="middle" x="576" y="-377.28" font-family="DejaVu Sans" font-size="11.00">termin&#45;gui</text>
</g>
<!-- termin&#45;graphics&#45;&gt;termin&#45;gui -->
<g id="edge61" class="edge">
<title>termin&#45;graphics&#45;&gt;termin&#45;gui</title>
<path fill="none" stroke="#666666" stroke-width="1.1" d="M425,-558C433.75,-553.48 442.51,-548.16 450,-542.08 463.18,-531.4 526.28,-446.46 557.47,-404.03"/>
<polygon fill="#666666" stroke="#666666" stroke-width="1.1" points="559.48,-405.43 561.65,-398.34 555.53,-402.53 559.48,-405.43"/>
</g>
<!-- termin&#45;graphics&#45;&gt;termin&#45;glb -->
<g id="edge60" class="edge">
<title>termin&#45;graphics&#45;&gt;termin&#45;glb</title>
<path fill="none" stroke="#666666" stroke-width="1.1" d="M389.99,-594.38C425.48,-654.55 547.45,-848.02 702,-945.08 718.73,-955.59 739.14,-963.39 756.88,-968.84"/>
<polygon fill="#666666" stroke="#666666" stroke-width="1.1" points="756.37,-971.25 763.78,-970.89 757.77,-966.55 756.37,-971.25"/>
</g>
<!-- termin&#45;materials -->
<g id="node46" class="node">
<title>termin&#45;materials</title>
<path fill="#f7f7f7" stroke="#444444" d="M617,-667.08C617,-667.08 535,-667.08 535,-667.08 529,-667.08 523,-661.08 523,-655.08 523,-655.08 523,-643.08 523,-643.08 523,-637.08 529,-631.08 535,-631.08 535,-631.08 617,-631.08 617,-631.08 623,-631.08 629,-637.08 629,-643.08 629,-643.08 629,-655.08 629,-655.08 629,-661.08 623,-667.08 617,-667.08"/>
<text text-anchor="middle" x="576" y="-646.28" font-family="DejaVu Sans" font-size="11.00">termin&#45;materials</text>
</g>
<!-- termin&#45;graphics&#45;&gt;termin&#45;materials -->
<g id="edge62" class="edge">
<title>termin&#45;graphics&#45;&gt;termin&#45;materials</title>
<path fill="none" stroke="#666666" stroke-width="1.1" d="M422.6,-594.16C447.17,-604.26 478.64,-616.83 507,-627.08 509.97,-628.15 513.02,-629.23 516.1,-630.3"/>
<polygon fill="#666666" stroke="#666666" stroke-width="1.1" points="515.48,-632.68 522.9,-632.63 517.07,-628.04 515.48,-632.68"/>
</g>
<!-- termin&#45;graphics&#45;&gt;termin&#45;shader&#45;runtime -->
<g id="edge64" class="edge">
<title>termin&#45;graphics&#45;&gt;termin&#45;shader&#45;runtime</title>
<path fill="none" stroke="#666666" stroke-width="1.1" d="M398.25,-594.27C422.18,-616.88 465.45,-655.81 507,-683.08 513.67,-687.46 520.99,-691.67 528.27,-695.55"/>
<polygon fill="#666666" stroke="#666666" stroke-width="1.1" points="527.59,-697.95 534.93,-699 529.85,-693.6 527.59,-697.95"/>
</g>
<!-- termin&#45;lighting&#45;&gt;termin&#45;render -->
<g id="edge74" class="edge">
<title>termin&#45;lighting&#45;&gt;termin&#45;render</title>
<path fill="none" stroke="#666666" stroke-width="1.1" d="M426.33,-524.37C455.84,-534.63 493.94,-547.89 524.18,-558.41"/>
<polygon fill="#666666" stroke="#666666" stroke-width="1.1" points="523.49,-560.76 530.9,-560.74 525.1,-556.13 523.49,-560.76"/>
</g>
<!-- termin&#45;render&#45;&gt;termin&#45;navmesh -->
<g id="edge92" class="edge">
<title>termin&#45;render&#45;&gt;termin&#45;navmesh</title>
<path fill="none" stroke="#666666" stroke-width="1.1" d="M559.98,-557.69C538.58,-533.11 496.7,-490.72 450,-474.08 390.13,-452.75 353.52,-430.78 307,-474.08 177.36,-594.76 339.45,-1116.21 250,-1269.08 247.62,-1273.15 244.54,-1276.82 241.07,-1280.11"/>
<polygon fill="#666666" stroke="#666666" stroke-width="1.1" points="239.09,-1278.58 235.34,-1284.98 242.26,-1282.32 239.09,-1278.58"/>
</g>
<!-- termin&#45;render&#45;&gt;termin&#45;display -->
<g id="edge91" class="edge">
<title>termin&#45;render&#45;&gt;termin&#45;display</title>
<path fill="none" stroke="#666666" stroke-width="1.1" d="M621.03,-576.08C656.75,-576.08 707.23,-576.08 745.23,-576.08"/>
<polygon fill="#666666" stroke="#666666" stroke-width="1.1" points="745.65,-578.53 752.65,-576.08 745.65,-573.63 745.65,-578.53"/>
</g>
<!-- termin&#45;render&#45;&gt;termin&#45;components&#45;foliage -->
<g id="edge90" class="edge">
<title>termin&#45;render&#45;&gt;termin&#45;components&#45;foliage</title>
<path fill="none" stroke="#666666" stroke-width="1.1" d="M618.14,-594.19C627.82,-599.85 637.5,-606.82 645,-615.08 686.33,-660.58 662.83,-693.71 702,-741.08 717.37,-759.67 739.01,-775.54 757.9,-787.26"/>
<polygon fill="#666666" stroke="#666666" stroke-width="1.1" points="756.93,-789.54 764.18,-791.08 759.47,-785.35 756.93,-789.54"/>
</g>
<!-- termin&#45;engine&#45;&gt;termin&#45;csharp -->
<g id="edge55" class="edge">
<title>termin&#45;engine&#45;&gt;termin&#45;csharp</title>
<path fill="none" stroke="#666666" stroke-width="1.1" d="M1328.05,-1198.18C1361.93,-1209.66 1408.63,-1225.48 1444.19,-1237.53"/>
<polygon fill="#666666" stroke="#666666" stroke-width="1.1" points="1443.73,-1239.96 1451.15,-1239.88 1445.3,-1235.32 1443.73,-1239.96"/>
</g>
<!-- termin&#45;android -->
<g id="node40" class="node">
<title>termin&#45;android</title>
<path fill="#f7f7f7" stroke="#444444" d="M1533,-1766.08C1533,-1766.08 1461,-1766.08 1461,-1766.08 1455,-1766.08 1449,-1760.08 1449,-1754.08 1449,-1754.08 1449,-1742.08 1449,-1742.08 1449,-1736.08 1455,-1730.08 1461,-1730.08 1461,-1730.08 1533,-1730.08 1533,-1730.08 1539,-1730.08 1545,-1736.08 1545,-1742.08 1545,-1742.08 1545,-1754.08 1545,-1754.08 1545,-1760.08 1539,-1766.08 1533,-1766.08"/>
<text text-anchor="middle" x="1497" y="-1745.28" font-family="DejaVu Sans" font-size="11.00">termin&#45;android</text>
</g>
<!-- termin&#45;engine&#45;&gt;termin&#45;android -->
<g id="edge54" class="edge">
<title>termin&#45;engine&#45;&gt;termin&#45;android</title>
<path fill="none" stroke="#666666" stroke-width="1.1" d="M1290.62,-1201.33C1306.01,-1240.81 1343.44,-1337.09 1374,-1418.08 1416.91,-1531.8 1466.83,-1668.12 1486.93,-1723.19"/>
<polygon fill="#666666" stroke="#666666" stroke-width="1.1" points="1484.64,-1724.07 1489.34,-1729.81 1489.24,-1722.39 1484.64,-1724.07"/>
</g>
<!-- termin&#45;openxr -->
<g id="node48" class="node">
<title>termin&#45;openxr</title>
<path fill="#f7f7f7" stroke="#444444" d="M1531.5,-1464.08C1531.5,-1464.08 1462.5,-1464.08 1462.5,-1464.08 1456.5,-1464.08 1450.5,-1458.08 1450.5,-1452.08 1450.5,-1452.08 1450.5,-1440.08 1450.5,-1440.08 1450.5,-1434.08 1456.5,-1428.08 1462.5,-1428.08 1462.5,-1428.08 1531.5,-1428.08 1531.5,-1428.08 1537.5,-1428.08 1543.5,-1434.08 1543.5,-1440.08 1543.5,-1440.08 1543.5,-1452.08 1543.5,-1452.08 1543.5,-1458.08 1537.5,-1464.08 1531.5,-1464.08"/>
<text text-anchor="middle" x="1497" y="-1443.28" font-family="DejaVu Sans" font-size="11.00">termin&#45;openxr</text>
</g>
<!-- termin&#45;engine&#45;&gt;termin&#45;openxr -->
<g id="edge56" class="edge">
<title>termin&#45;engine&#45;&gt;termin&#45;openxr</title>
<path fill="none" stroke="#666666" stroke-width="1.1" d="M1298.11,-1201.16C1335.49,-1247.42 1434.62,-1370.12 1476.69,-1422.18"/>
<polygon fill="#666666" stroke="#666666" stroke-width="1.1" points="1474.99,-1423.97 1481.29,-1427.88 1478.8,-1420.89 1474.99,-1423.97"/>
</g>
<!-- termin&#45;engine&#45;&gt;termin&#45;player -->
<g id="edge57" class="edge">
<title>termin&#45;engine&#45;&gt;termin&#45;player</title>
<path fill="none" stroke="#666666" stroke-width="1.1" d="M1297.77,-1164.81C1335.12,-1117 1435.73,-988.22 1477.47,-934.8"/>
<polygon fill="#666666" stroke="#666666" stroke-width="1.1" points="1479.41,-936.3 1481.79,-929.27 1475.55,-933.28 1479.41,-936.3"/>
</g>
<!-- termin&#45;engine&#45;&gt;termin&#45;runtime -->
<g id="edge58" class="edge">
<title>termin&#45;engine&#45;&gt;termin&#45;runtime</title>
<path fill="none" stroke="#666666" stroke-width="1.1" d="M1292.3,-1164.79C1315.14,-1117.31 1378.24,-986.19 1431,-877.08 1449.47,-838.88 1470.97,-794.6 1484.02,-767.72"/>
<polygon fill="#666666" stroke="#666666" stroke-width="1.1" points="1486.3,-768.65 1487.15,-761.28 1481.89,-766.51 1486.3,-768.65"/>
</g>
<!-- tcplot -->
<g id="node37" class="node">
<title>tcplot</title>
<path fill="#f7f7f7" stroke="#444444" d="M814.5,-403.08C814.5,-403.08 784.5,-403.08 784.5,-403.08 778.5,-403.08 772.5,-397.08 772.5,-391.08 772.5,-391.08 772.5,-379.08 772.5,-379.08 772.5,-373.08 778.5,-367.08 784.5,-367.08 784.5,-367.08 814.5,-367.08 814.5,-367.08 820.5,-367.08 826.5,-373.08 826.5,-379.08 826.5,-379.08 826.5,-391.08 826.5,-391.08 826.5,-397.08 820.5,-403.08 814.5,-403.08"/>
<text text-anchor="middle" x="799.5" y="-382.28" font-family="DejaVu Sans" font-size="11.00">tcplot</text>
</g>
<!-- tcplot&#45;&gt;termin&#45;csharp -->
<g id="edge1" class="edge">
<title>tcplot&#45;&gt;termin&#45;csharp</title>
<path fill="none" stroke="#666666" stroke-width="1.1" d="M826.84,-384.9C888.02,-385.87 1041.55,-396.41 1134,-474.08 1389.02,-688.35 1474.38,-1121.51 1492.2,-1230.01"/>
<polygon fill="#666666" stroke="#666666" stroke-width="1.1" points="1489.78,-1230.44 1493.32,-1236.96 1494.62,-1229.66 1489.78,-1230.44"/>
</g>
<!-- termin&#45;gui&#45;&gt;termin&#45;csg -->
<g id="edge68" class="edge">
<title>termin&#45;gui&#45;&gt;termin&#45;csg</title>
<path fill="none" stroke="#666666" stroke-width="1.1" d="M540.24,-376.29C482.01,-372.08 365.38,-373.29 307,-441.08 196.48,-569.42 335.78,-1055.05 250,-1201.08 247.31,-1205.66 243.74,-1209.73 239.73,-1213.33"/>
<polygon fill="#666666" stroke="#666666" stroke-width="1.1" points="237.92,-1211.64 234.02,-1217.95 241,-1215.45 237.92,-1211.64"/>
</g>
<!-- termin&#45;gui&#45;&gt;termin&#45;components&#45;ui -->
<g id="edge67" class="edge">
<title>termin&#45;gui&#45;&gt;termin&#45;components&#45;ui</title>
<path fill="none" stroke="#666666" stroke-width="1.1" d="M595.21,-398.35C611.53,-416.04 634.48,-444.47 645,-474.08 682.69,-580.21 634.37,-1396.03 702,-1486.08 708.07,-1494.16 716.2,-1500.33 725.18,-1505.03"/>
<polygon fill="#666666" stroke="#666666" stroke-width="1.1" points="724.15,-1507.26 731.52,-1508.06 726.27,-1502.83 724.15,-1507.26"/>
</g>
<!-- termin&#45;gui&#45;&gt;tcplot -->
<g id="edge66" class="edge">
<title>termin&#45;gui&#45;&gt;tcplot</title>
<path fill="none" stroke="#666666" stroke-width="1.1" d="M611.61,-380.86C653.62,-381.81 723.96,-383.4 765.32,-384.33"/>
<polygon fill="#666666" stroke="#666666" stroke-width="1.1" points="765.39,-386.79 772.44,-384.49 765.5,-381.89 765.39,-386.79"/>
</g>
<!-- termin&#45;nodegraph -->
<g id="node39" class="node">
<title>termin&#45;nodegraph</title>
<path fill="#f7f7f7" stroke="#444444" d="M844,-335.08C844,-335.08 755,-335.08 755,-335.08 749,-335.08 743,-329.08 743,-323.08 743,-323.08 743,-311.08 743,-311.08 743,-305.08 749,-299.08 755,-299.08 755,-299.08 844,-299.08 844,-299.08 850,-299.08 856,-305.08 856,-311.08 856,-311.08 856,-323.08 856,-323.08 856,-329.08 850,-335.08 844,-335.08"/>
<text text-anchor="middle" x="799.5" y="-314.28" font-family="DejaVu Sans" font-size="11.00">termin&#45;nodegraph</text>
</g>
<!-- termin&#45;gui&#45;&gt;termin&#45;nodegraph -->
<g id="edge69" class="edge">
<title>termin&#45;gui&#45;&gt;termin&#45;nodegraph</title>
<path fill="none" stroke="#666666" stroke-width="1.1" d="M611.61,-370.24C644.74,-360.82 695.47,-346.39 735.73,-334.94"/>
<polygon fill="#666666" stroke="#666666" stroke-width="1.1" points="736.54,-337.25 742.61,-332.98 735.2,-332.54 736.54,-337.25"/>
</g>
<!-- termin&#45;project&#45;build -->
<g id="node53" class="node">
<title>termin&#45;project&#45;build</title>
<path fill="#f7f7f7" stroke="#444444" d="M849,-260.08C849,-260.08 750,-260.08 750,-260.08 744,-260.08 738,-254.08 738,-248.08 738,-248.08 738,-236.08 738,-236.08 738,-230.08 744,-224.08 750,-224.08 750,-224.08 849,-224.08 849,-224.08 855,-224.08 861,-230.08 861,-236.08 861,-236.08 861,-248.08 861,-248.08 861,-254.08 855,-260.08 849,-260.08"/>
<text text-anchor="middle" x="799.5" y="-239.28" font-family="DejaVu Sans" font-size="11.00">termin&#45;project&#45;build</text>
</g>
<!-- termin&#45;gui&#45;&gt;termin&#45;project&#45;build -->
<g id="edge70" class="edge">
<title>termin&#45;gui&#45;&gt;termin&#45;project&#45;build</title>
<path fill="none" stroke="#666666" stroke-width="1.1" d="M597.05,-361.86C620.81,-340.92 662.2,-306.45 702,-283.08 714.68,-275.64 728.97,-268.81 742.58,-262.95"/>
<polygon fill="#666666" stroke="#666666" stroke-width="1.1" points="743.71,-265.13 749.2,-260.15 741.8,-260.62 743.71,-265.13"/>
</g>
<!-- termin&#45;nodegraph&#45;&gt;termin&#45;app -->
<g id="edge82" class="edge">
<title>termin&#45;nodegraph&#45;&gt;termin&#45;app</title>
<path fill="none" stroke="#666666" stroke-width="1.1" d="M856.19,-311.86C1016.39,-296.84 1476.12,-253.74 1620.54,-240.2"/>
<polygon fill="#666666" stroke="#666666" stroke-width="1.1" points="1620.84,-242.64 1627.58,-239.54 1620.38,-237.76 1620.84,-242.64"/>
</g>
<!-- termin&#45;glb&#45;&gt;termin&#45;app -->
<g id="edge59" class="edge">
<title>termin&#45;glb&#45;&gt;termin&#45;app</title>
<path fill="none" stroke="#666666" stroke-width="1.1" d="M835.1,-969.14C852.05,-963.45 872.34,-955.38 889,-945.08 1232.44,-732.76 1561.72,-357.57 1644.59,-259.88"/>
<polygon fill="#666666" stroke="#666666" stroke-width="1.1" points="1646.6,-261.3 1649.25,-254.37 1642.86,-258.13 1646.6,-261.3"/>
</g>
<!-- termin&#45;mcp&#45;&gt;termin&#45;player -->
<g id="edge75" class="edge">
<title>termin&#45;mcp&#45;&gt;termin&#45;player</title>
<path fill="none" stroke="#666666" stroke-width="1.1" d="M838.88,-911.08C956.55,-911.08 1312.26,-911.08 1445.17,-911.08"/>
<polygon fill="#666666" stroke="#666666" stroke-width="1.1" points="1445.47,-913.53 1452.47,-911.08 1445.47,-908.63 1445.47,-913.53"/>
</g>
<!-- termin&#45;player&#45;&gt;termin&#45;app -->
<g id="edge84" class="edge">
<title>termin&#45;player&#45;&gt;termin&#45;app</title>
<path fill="none" stroke="#666666" stroke-width="1.1" d="M1508.9,-892.66C1523.37,-867.43 1548.75,-820.3 1563,-777.08 1626.5,-584.54 1654.46,-339.57 1662.18,-261.31"/>
<polygon fill="#666666" stroke="#666666" stroke-width="1.1" points="1664.62,-261.47 1662.86,-254.26 1659.74,-260.99 1664.62,-261.47"/>
</g>
<!-- termin&#45;project&#45;&gt;termin&#45;project&#45;build -->
<g id="edge85" class="edge">
<title>termin&#45;project&#45;&gt;termin&#45;project&#45;build</title>
<path fill="none" stroke="#666666" stroke-width="1.1" d="M622.63,-207.94C653.85,-214 695.79,-222.14 730.88,-228.96"/>
<polygon fill="#666666" stroke="#666666" stroke-width="1.1" points="730.46,-231.37 737.8,-230.3 731.4,-226.56 730.46,-231.37"/>
</g>
<!-- termin&#45;project&#45;&gt;termin&#45;project&#45;modules -->
<g id="edge86" class="edge">
<title>termin&#45;project&#45;&gt;termin&#45;project&#45;modules</title>
<path fill="none" stroke="#666666" stroke-width="1.1" d="M619.17,-217.29C629.08,-223.47 638.6,-231.34 645,-241.08 741.19,-387.48 614.29,-479.45 702,-631.08 715.06,-653.67 737.68,-672.02 757.74,-685.03"/>
<polygon fill="#666666" stroke="#666666" stroke-width="1.1" points="756.64,-687.24 763.86,-688.9 759.25,-683.09 756.64,-687.24"/>
</g>
<!-- termin&#45;project&#45;build&#45;&gt;termin&#45;app -->
<g id="edge87" class="edge">
<title>termin&#45;project&#45;build&#45;&gt;termin&#45;app</title>
<path fill="none" stroke="#666666" stroke-width="1.1" d="M817.69,-223.64C844,-196.92 897.23,-148.59 954,-130.08 1211.33,-46.18 1314.07,-23.8 1563,-130.08 1601.83,-146.66 1632.92,-186.19 1650.02,-212.02"/>
<polygon fill="#666666" stroke="#666666" stroke-width="1.1" points="1648,-213.4 1653.86,-217.94 1652.11,-210.74 1648,-213.4"/>
</g>
<!-- termin&#45;project&#45;modules&#45;&gt;termin&#45;player -->
<g id="edge88" class="edge">
<title>termin&#45;project&#45;modules&#45;&gt;termin&#45;player</title>
<path fill="none" stroke="#666666" stroke-width="1.1" d="M861.92,-725.1C997.61,-764.9 1320.81,-859.7 1445.62,-896.3"/>
<polygon fill="#666666" stroke="#666666" stroke-width="1.1" points="1445.07,-898.7 1452.48,-898.32 1446.45,-894 1445.07,-898.7"/>
</g>
<!-- termin&#45;render&#45;passes&#45;&gt;termin&#45;csharp -->
<g id="edge94" class="edge">
<title>termin&#45;render&#45;passes&#45;&gt;termin&#45;csharp</title>
<path fill="none" stroke="#666666" stroke-width="1.1" d="M1348.76,-1927.45C1358.36,-1923.93 1367.26,-1918.72 1374,-1911.08 1447.85,-1827.4 1403.05,-1520.14 1431,-1412.08 1443.57,-1363.49 1468.14,-1310.14 1483.21,-1279.82"/>
<polygon fill="#666666" stroke="#666666" stroke-width="1.1" points="1485.51,-1280.71 1486.46,-1273.35 1481.13,-1278.51 1485.51,-1280.71"/>
</g>
<!-- termin&#45;render&#45;passes&#45;&gt;termin&#45;android -->
<g id="edge93" class="edge">
<title>termin&#45;render&#45;passes&#45;&gt;termin&#45;android</title>
<path fill="none" stroke="#666666" stroke-width="1.1" d="M1348.59,-1923.07C1357.55,-1920.07 1366.31,-1916.16 1374,-1911.08 1427.46,-1875.8 1466.37,-1808.79 1484.54,-1772.65"/>
<polygon fill="#666666" stroke="#666666" stroke-width="1.1" points="1486.78,-1773.64 1487.69,-1766.28 1482.39,-1771.47 1486.78,-1773.64"/>
</g>
<!-- termin&#45;render&#45;passes&#45;&gt;termin&#45;default&#45;assets -->
<g id="edge95" class="edge">
<title>termin&#45;render&#45;passes&#45;&gt;termin&#45;default&#45;assets</title>
<path fill="none" stroke="#666666" stroke-width="1.1" d="M1348.7,-1933.08C1372.46,-1933.08 1399.46,-1933.08 1423.8,-1933.08"/>
<polygon fill="#666666" stroke="#666666" stroke-width="1.1" points="1423.92,-1935.53 1430.92,-1933.08 1423.92,-1930.63 1423.92,-1935.53"/>
</g>
<!-- termin&#45;render&#45;passes&#45;&gt;termin&#45;openxr -->
<g id="edge96" class="edge">
<title>termin&#45;render&#45;passes&#45;&gt;termin&#45;openxr</title>
<path fill="none" stroke="#666666" stroke-width="1.1" d="M1348.78,-1926.26C1358.14,-1922.86 1366.96,-1917.99 1374,-1911.08 1382.17,-1903.06 1466.04,-1566.85 1489.78,-1471.22"/>
<polygon fill="#666666" stroke="#666666" stroke-width="1.1" points="1492.2,-1471.63 1491.51,-1464.24 1487.44,-1470.45 1492.2,-1471.63"/>
</g>
<!-- termin&#45;render&#45;passes&#45;&gt;termin&#45;player -->
<g id="edge97" class="edge">
<title>termin&#45;render&#45;passes&#45;&gt;termin&#45;player</title>
<path fill="none" stroke="#666666" stroke-width="1.1" d="M1348.51,-1927.79C1358.26,-1924.26 1367.28,-1918.95 1374,-1911.08 1423.99,-1852.61 1419.92,-1297.21 1431,-1221.08 1446.58,-1114.02 1476.61,-988.42 1489.67,-936.01"/>
<polygon fill="#666666" stroke="#666666" stroke-width="1.1" points="1492.07,-936.5 1491.4,-929.11 1487.32,-935.31 1492.07,-936.5"/>
</g>
<!-- termin&#45;shader&#45;runtime&#45;&gt;termin&#45;player -->
<g id="edge111" class="edge">
<title>termin&#45;shader&#45;runtime&#45;&gt;termin&#45;player</title>
<path fill="none" stroke="#666666" stroke-width="1.1" d="M626,-698.98C633.12,-694.65 639.8,-689.4 645,-683.08 705.14,-610.1 627.16,-535.89 702,-478.08 777.98,-419.39 1047.12,-433.23 1134,-474.08 1324.4,-563.6 1449.05,-807.87 1485.15,-886.41"/>
<polygon fill="#666666" stroke="#666666" stroke-width="1.1" points="1483.04,-887.7 1488.17,-893.06 1487.5,-885.67 1483.04,-887.7"/>
</g>
<!-- termin&#45;shader&#45;runtime&#45;&gt;termin&#45;project&#45;build -->
<g id="edge112" class="edge">
<title>termin&#45;shader&#45;runtime&#45;&gt;termin&#45;project&#45;build</title>
<path fill="none" stroke="#666666" stroke-width="1.1" d="M627.74,-698.89C634.38,-694.61 640.45,-689.4 645,-683.08 749.97,-537.39 592.57,-425.46 702,-283.08 709.67,-273.1 720.25,-265.51 731.6,-259.76"/>
<polygon fill="#666666" stroke="#666666" stroke-width="1.1" points="732.68,-261.96 737.97,-256.76 730.59,-257.53 732.68,-261.96"/>
</g>
</g>
</svg>
