<?xml version="1.0" encoding="UTF-8" standalone="no"?>
<!DOCTYPE svg PUBLIC "-//W3C//DTD SVG 1.1//EN"
 "http://www.w3.org/Graphics/SVG/1.1/DTD/svg11.dtd">
<!-- Generated by graphviz version 2.43.0 (0)
 -->
<!-- Title: termin_dependencies Pages: 1 -->
<svg width="1713pt" height="1266pt"
 viewBox="0.00 0.00 1712.80 1266.30" xmlns="http://www.w3.org/2000/svg" xmlns:xlink="http://www.w3.org/1999/xlink">
<g id="graph0" class="graph" transform="scale(1 1) rotate(0) translate(14.4 1251.9)">
<title>termin_dependencies</title>
<polygon fill="white" stroke="transparent" points="-14.4,14.4 -14.4,-1251.9 1698.4,-1251.9 1698.4,14.4 -14.4,14.4"/>
<g id="clust1" class="cluster">
<title>cluster_application</title>
<polygon fill="white" stroke="#999999" stroke-dasharray="5,2" points="1372,-663 1372,-804 1485,-804 1485,-663 1372,-663"/>
<text text-anchor="middle" x="1428.5" y="-790.4" font-family="DejaVu Sans" font-size="12.00">Application</text>
</g>
<g id="clust2" class="cluster">
<title>cluster_foundation</title>
<polygon fill="white" stroke="#999999" stroke-dasharray="5,2" points="197,-8 197,-285 1008,-285 1008,-8 197,-8"/>
<text text-anchor="middle" x="602.5" y="-271.4" font-family="DejaVu Sans" font-size="12.00">Foundation</text>
</g>
<g id="clust3" class="cluster">
<title>cluster_namespace</title>
<polygon fill="white" stroke="#999999" stroke-dasharray="5,2" points="201.5,-994 201.5,-1067 289.5,-1067 289.5,-994 201.5,-994"/>
<text text-anchor="middle" x="245.5" y="-1053.4" font-family="DejaVu Sans" font-size="12.00">Namespace</text>
</g>
<g id="clust4" class="cluster">
<title>cluster_native_interop</title>
<polygon fill="white" stroke="#999999" stroke-dasharray="5,2" points="1569,-731 1569,-804 1676,-804 1676,-731 1569,-731"/>
<text text-anchor="middle" x="1622.5" y="-790.4" font-family="DejaVu Sans" font-size="12.00">Native Interop</text>
</g>
<g id="clust5" class="cluster">
<title>cluster_other_components</title>
<polygon fill="white" stroke="#999999" stroke-dasharray="5,2" points="848,-293 848,-502 1520,-502 1520,-293 848,-293"/>
<text text-anchor="middle" x="1184" y="-488.4" font-family="DejaVu Sans" font-size="12.00">Other Components</text>
</g>
<g id="clust6" class="cluster">
<title>cluster_python_support</title>
<polygon fill="white" stroke="#999999" stroke-dasharray="5,2" points="8,-863 8,-1004 151,-1004 151,-863 8,-863"/>
<text text-anchor="middle" x="79.5" y="-990.4" font-family="DejaVu Sans" font-size="12.00">Python Support</text>
</g>
<g id="clust7" class="cluster">
<title>cluster_render_stack</title>
<polygon fill="white" stroke="#999999" stroke-dasharray="5,2" points="516,-591 516,-732 1279,-732 1279,-591 516,-591"/>
<text text-anchor="middle" x="897.5" y="-718.4" font-family="DejaVu Sans" font-size="12.00">Render Stack</text>
</g>
<g id="clust8" class="cluster">
<title>cluster_runtime</title>
<polygon fill="white" stroke="#999999" stroke-dasharray="5,2" points="1136.5,-510 1136.5,-583 1243.5,-583 1243.5,-510 1136.5,-510"/>
<text text-anchor="middle" x="1190" y="-569.4" font-family="DejaVu Sans" font-size="12.00">Runtime</text>
</g>
<g id="clust9" class="cluster">
<title>cluster_thin_facades</title>
<polygon fill="white" stroke="#999999" stroke-dasharray="5,2" points="355,-1066 355,-1139 458,-1139 458,-1066 355,-1066"/>
<text text-anchor="middle" x="406.5" y="-1125.4" font-family="DejaVu Sans" font-size="12.00">Thin Facades</text>
</g>
<g id="clust10" class="cluster">
<title>cluster_ui</title>
<polygon fill="white" stroke="#999999" stroke-dasharray="5,2" points="902,-930 902,-1071 1254.5,-1071 1254.5,-930 902,-930"/>
<text text-anchor="middle" x="1078.25" y="-1057.4" font-family="DejaVu Sans" font-size="12.00">UI</text>
</g>
<!-- diffusion&#45;editor -->
<g id="node1" class="node">
<title>diffusion&#45;editor</title>
<path fill="#f7f7f7" stroke="#444444" d="M1465,-707C1465,-707 1392,-707 1392,-707 1386,-707 1380,-701 1380,-695 1380,-695 1380,-683 1380,-683 1380,-677 1386,-671 1392,-671 1392,-671 1465,-671 1465,-671 1471,-671 1477,-677 1477,-683 1477,-683 1477,-695 1477,-695 1477,-701 1471,-707 1465,-707"/>
<text text-anchor="middle" x="1428.5" y="-686.2" font-family="DejaVu Sans" font-size="11.00">diffusion&#45;editor</text>
</g>
<!-- termin&#45;app -->
<g id="node2" class="node">
<title>termin&#45;app</title>
<path fill="#f7f7f7" stroke="#444444" d="M1454,-775C1454,-775 1403,-775 1403,-775 1397,-775 1391,-769 1391,-763 1391,-763 1391,-751 1391,-751 1391,-745 1397,-739 1403,-739 1403,-739 1454,-739 1454,-739 1460,-739 1466,-745 1466,-751 1466,-751 1466,-763 1466,-763 1466,-769 1460,-775 1454,-775"/>
<text text-anchor="middle" x="1428.5" y="-754.2" font-family="DejaVu Sans" font-size="11.00">termin&#45;app</text>
</g>
<!-- termin&#45;csharp -->
<g id="node16" class="node">
<title>termin&#45;csharp</title>
<path fill="#f7f7f7" stroke="#444444" d="M1656,-775C1656,-775 1589,-775 1589,-775 1583,-775 1577,-769 1577,-763 1577,-763 1577,-751 1577,-751 1577,-745 1583,-739 1589,-739 1589,-739 1656,-739 1656,-739 1662,-739 1668,-745 1668,-751 1668,-751 1668,-763 1668,-763 1668,-769 1662,-775 1656,-775"/>
<text text-anchor="middle" x="1622.5" y="-754.2" font-family="DejaVu Sans" font-size="11.00">termin&#45;csharp</text>
</g>
<!-- termin&#45;app&#45;&gt;termin&#45;csharp -->
<g id="edge5" class="edge">
<title>termin&#45;app&#45;&gt;termin&#45;csharp</title>
<path fill="none" stroke="#666666" stroke-width="1.1" d="M1466.07,-757C1495.4,-757 1536.94,-757 1569.7,-757"/>
<polygon fill="#666666" stroke="#666666" stroke-width="1.1" points="1569.97,-759.45 1576.97,-757 1569.97,-754.55 1569.97,-759.45"/>
</g>
<!-- termin&#45;animation -->
<g id="node3" class="node">
<title>termin&#45;animation</title>
<path fill="#f7f7f7" stroke="#444444" d="M988,-195C988,-195 903,-195 903,-195 897,-195 891,-189 891,-183 891,-183 891,-171 891,-171 891,-165 897,-159 903,-159 903,-159 988,-159 988,-159 994,-159 1000,-165 1000,-171 1000,-171 1000,-183 1000,-183 1000,-189 994,-195 988,-195"/>
<text text-anchor="middle" x="945.5" y="-174.2" font-family="DejaVu Sans" font-size="11.00">termin&#45;animation</text>
</g>
<!-- termin&#45;components&#45;animation -->
<g id="node17" class="node">
<title>termin&#45;components&#45;animation</title>
<path fill="#f7f7f7" stroke="#444444" d="M1268,-337C1268,-337 1112,-337 1112,-337 1106,-337 1100,-331 1100,-325 1100,-325 1100,-313 1100,-313 1100,-307 1106,-301 1112,-301 1112,-301 1268,-301 1268,-301 1274,-301 1280,-307 1280,-313 1280,-313 1280,-325 1280,-325 1280,-331 1274,-337 1268,-337"/>
<text text-anchor="middle" x="1190" y="-316.2" font-family="DejaVu Sans" font-size="11.00">termin&#45;components&#45;animation</text>
</g>
<!-- termin&#45;animation&#45;&gt;termin&#45;components&#45;animation -->
<g id="edge4" class="edge">
<title>termin&#45;animation&#45;&gt;termin&#45;components&#45;animation</title>
<path fill="none" stroke="#666666" stroke-width="1.1" d="M983.01,-195.17C999.11,-203.38 1018.15,-213.39 1035,-223 1077.33,-247.15 1124.73,-277.16 1155.62,-297.14"/>
<polygon fill="#666666" stroke="#666666" stroke-width="1.1" points="1154.37,-299.25 1161.57,-301 1157.03,-295.13 1154.37,-299.25"/>
</g>
<!-- termin&#45;base -->
<g id="node4" class="node">
<title>termin&#45;base</title>
<path fill="#f7f7f7" stroke="#444444" d="M274,-222C274,-222 217,-222 217,-222 211,-222 205,-216 205,-210 205,-210 205,-198 205,-198 205,-192 211,-186 217,-186 217,-186 274,-186 274,-186 280,-186 286,-192 286,-198 286,-198 286,-210 286,-210 286,-216 280,-222 274,-222"/>
<text text-anchor="middle" x="245.5" y="-201.2" font-family="DejaVu Sans" font-size="11.00">termin&#45;base</text>
</g>
<!-- termin&#45;inspect -->
<g id="node8" class="node">
<title>termin&#45;inspect</title>
<path fill="#f7f7f7" stroke="#444444" d="M441.5,-52C441.5,-52 371.5,-52 371.5,-52 365.5,-52 359.5,-46 359.5,-40 359.5,-40 359.5,-28 359.5,-28 359.5,-22 365.5,-16 371.5,-16 371.5,-16 441.5,-16 441.5,-16 447.5,-16 453.5,-22 453.5,-28 453.5,-28 453.5,-40 453.5,-40 453.5,-46 447.5,-52 441.5,-52"/>
<text text-anchor="middle" x="406.5" y="-31.2" font-family="DejaVu Sans" font-size="11.00">termin&#45;inspect</text>
</g>
<!-- termin&#45;base&#45;&gt;termin&#45;inspect -->
<g id="edge7" class="edge">
<title>termin&#45;base&#45;&gt;termin&#45;inspect</title>
<path fill="none" stroke="#666666" stroke-width="1.1" d="M258.14,-185.76C276.34,-158.15 313.65,-105.04 354,-68 358.48,-63.89 363.51,-59.92 368.62,-56.25"/>
<polygon fill="#666666" stroke="#666666" stroke-width="1.1" points="370.28,-58.08 374.63,-52.08 367.48,-54.06 370.28,-58.08"/>
</g>
<!-- termin&#45;mesh -->
<g id="node9" class="node">
<title>termin&#45;mesh</title>
<path fill="#f7f7f7" stroke="#444444" d="M436.5,-120C436.5,-120 376.5,-120 376.5,-120 370.5,-120 364.5,-114 364.5,-108 364.5,-108 364.5,-96 364.5,-96 364.5,-90 370.5,-84 376.5,-84 376.5,-84 436.5,-84 436.5,-84 442.5,-84 448.5,-90 448.5,-96 448.5,-96 448.5,-108 448.5,-108 448.5,-114 442.5,-120 436.5,-120"/>
<text text-anchor="middle" x="406.5" y="-99.2" font-family="DejaVu Sans" font-size="11.00">termin&#45;mesh</text>
</g>
<!-- termin&#45;base&#45;&gt;termin&#45;mesh -->
<g id="edge9" class="edge">
<title>termin&#45;base&#45;&gt;termin&#45;mesh</title>
<path fill="none" stroke="#666666" stroke-width="1.1" d="M274.56,-186C301.53,-168.7 342.33,-142.52 371.21,-124"/>
<polygon fill="#666666" stroke="#666666" stroke-width="1.1" points="372.62,-126.01 377.19,-120.16 369.97,-121.88 372.62,-126.01"/>
</g>
<!-- termin&#45;modules -->
<g id="node10" class="node">
<title>termin&#45;modules</title>
<path fill="#f7f7f7" stroke="#444444" d="M445,-188C445,-188 368,-188 368,-188 362,-188 356,-182 356,-176 356,-176 356,-164 356,-164 356,-158 362,-152 368,-152 368,-152 445,-152 445,-152 451,-152 457,-158 457,-164 457,-164 457,-176 457,-176 457,-182 451,-188 445,-188"/>
<text text-anchor="middle" x="406.5" y="-167.2" font-family="DejaVu Sans" font-size="11.00">termin&#45;modules</text>
</g>
<!-- termin&#45;base&#45;&gt;termin&#45;modules -->
<g id="edge10" class="edge">
<title>termin&#45;base&#45;&gt;termin&#45;modules</title>
<path fill="none" stroke="#666666" stroke-width="1.1" d="M286.21,-195.51C305.14,-191.46 328.11,-186.55 348.83,-182.12"/>
<polygon fill="#666666" stroke="#666666" stroke-width="1.1" points="349.43,-184.5 355.76,-180.64 348.4,-179.7 349.43,-184.5"/>
</g>
<!-- termin&#45;navmesh -->
<g id="node11" class="node">
<title>termin&#45;navmesh</title>
<path fill="#f7f7f7" stroke="#444444" d="M447,-256C447,-256 366,-256 366,-256 360,-256 354,-250 354,-244 354,-244 354,-232 354,-232 354,-226 360,-220 366,-220 366,-220 447,-220 447,-220 453,-220 459,-226 459,-232 459,-232 459,-244 459,-244 459,-250 453,-256 447,-256"/>
<text text-anchor="middle" x="406.5" y="-235.2" font-family="DejaVu Sans" font-size="11.00">termin&#45;navmesh</text>
</g>
<!-- termin&#45;base&#45;&gt;termin&#45;navmesh -->
<g id="edge11" class="edge">
<title>termin&#45;base&#45;&gt;termin&#45;navmesh</title>
<path fill="none" stroke="#666666" stroke-width="1.1" d="M286.21,-212.49C304.56,-216.42 326.72,-221.15 346.93,-225.48"/>
<polygon fill="#666666" stroke="#666666" stroke-width="1.1" points="346.64,-227.92 353.99,-226.99 347.66,-223.13 346.64,-227.92"/>
</g>
<!-- termin&#45;lighting -->
<g id="node28" class="node">
<title>termin&#45;lighting</title>
<path fill="#f7f7f7" stroke="#444444" d="M610,-703C610,-703 539,-703 539,-703 533,-703 527,-697 527,-691 527,-691 527,-679 527,-679 527,-673 533,-667 539,-667 539,-667 610,-667 610,-667 616,-667 622,-673 622,-679 622,-679 622,-691 622,-691 622,-697 616,-703 610,-703"/>
<text text-anchor="middle" x="574.5" y="-682.2" font-family="DejaVu Sans" font-size="11.00">termin&#45;lighting</text>
</g>
<!-- termin&#45;base&#45;&gt;termin&#45;lighting -->
<g id="edge8" class="edge">
<title>termin&#45;base&#45;&gt;termin&#45;lighting</title>
<path fill="none" stroke="#666666" stroke-width="1.1" d="M253.64,-222.32C279.81,-287.64 376.36,-512.55 516,-651 520.32,-655.28 525.29,-659.24 530.45,-662.82"/>
<polygon fill="#666666" stroke="#666666" stroke-width="1.1" points="529.38,-665.05 536.58,-666.86 532.08,-660.96 529.38,-665.05"/>
</g>
<!-- termin&#45;collision -->
<g id="node5" class="node">
<title>termin&#45;collision</title>
<path fill="#f7f7f7" stroke="#444444" d="M778,-120C778,-120 703,-120 703,-120 697,-120 691,-114 691,-108 691,-108 691,-96 691,-96 691,-90 697,-84 703,-84 703,-84 778,-84 778,-84 784,-84 790,-90 790,-96 790,-96 790,-108 790,-108 790,-114 784,-120 778,-120"/>
<text text-anchor="middle" x="740.5" y="-99.2" font-family="DejaVu Sans" font-size="11.00">termin&#45;collision</text>
</g>
<!-- termin&#45;physics -->
<g id="node12" class="node">
<title>termin&#45;physics</title>
<path fill="#f7f7f7" stroke="#444444" d="M981.5,-124C981.5,-124 909.5,-124 909.5,-124 903.5,-124 897.5,-118 897.5,-112 897.5,-112 897.5,-100 897.5,-100 897.5,-94 903.5,-88 909.5,-88 909.5,-88 981.5,-88 981.5,-88 987.5,-88 993.5,-94 993.5,-100 993.5,-100 993.5,-112 993.5,-112 993.5,-118 987.5,-124 981.5,-124"/>
<text text-anchor="middle" x="945.5" y="-103.2" font-family="DejaVu Sans" font-size="11.00">termin&#45;physics</text>
</g>
<!-- termin&#45;collision&#45;&gt;termin&#45;physics -->
<g id="edge14" class="edge">
<title>termin&#45;collision&#45;&gt;termin&#45;physics</title>
<path fill="none" stroke="#666666" stroke-width="1.1" d="M790.12,-102.96C820.2,-103.55 858.88,-104.31 889.99,-104.93"/>
<polygon fill="#666666" stroke="#666666" stroke-width="1.1" points="890.28,-107.38 897.32,-105.07 890.37,-102.48 890.28,-107.38"/>
</g>
<!-- termin&#45;components&#45;collision -->
<g id="node18" class="node">
<title>termin&#45;components&#45;collision</title>
<path fill="#f7f7f7" stroke="#444444" d="M1263,-412C1263,-412 1117,-412 1117,-412 1111,-412 1105,-406 1105,-400 1105,-400 1105,-388 1105,-388 1105,-382 1111,-376 1117,-376 1117,-376 1263,-376 1263,-376 1269,-376 1275,-382 1275,-388 1275,-388 1275,-400 1275,-400 1275,-406 1269,-412 1263,-412"/>
<text text-anchor="middle" x="1190" y="-391.2" font-family="DejaVu Sans" font-size="11.00">termin&#45;components&#45;collision</text>
</g>
<!-- termin&#45;collision&#45;&gt;termin&#45;components&#45;collision -->
<g id="edge12" class="edge">
<title>termin&#45;collision&#45;&gt;termin&#45;components&#45;collision</title>
<path fill="none" stroke="#666666" stroke-width="1.1" d="M771.22,-120.14C778.04,-124.9 785.04,-130.32 791,-136 821.31,-164.89 814.64,-185.7 848,-211 919.22,-265.01 960.85,-235.09 1035,-285 1069.68,-308.34 1065.97,-328.71 1100,-353 1110.52,-360.5 1122.62,-367.16 1134.45,-372.82"/>
<polygon fill="#666666" stroke="#666666" stroke-width="1.1" points="1133.61,-375.13 1140.99,-375.86 1135.67,-370.68 1133.61,-375.13"/>
</g>
<!-- termin&#45;engine -->
<g id="node30" class="node">
<title>termin&#45;engine</title>
<path fill="#f7f7f7" stroke="#444444" d="M1223.5,-554C1223.5,-554 1156.5,-554 1156.5,-554 1150.5,-554 1144.5,-548 1144.5,-542 1144.5,-542 1144.5,-530 1144.5,-530 1144.5,-524 1150.5,-518 1156.5,-518 1156.5,-518 1223.5,-518 1223.5,-518 1229.5,-518 1235.5,-524 1235.5,-530 1235.5,-530 1235.5,-542 1235.5,-542 1235.5,-548 1229.5,-554 1223.5,-554"/>
<text text-anchor="middle" x="1190" y="-533.2" font-family="DejaVu Sans" font-size="11.00">termin&#45;engine</text>
</g>
<!-- termin&#45;collision&#45;&gt;termin&#45;engine -->
<g id="edge13" class="edge">
<title>termin&#45;collision&#45;&gt;termin&#45;engine</title>
<path fill="none" stroke="#666666" stroke-width="1.1" d="M776.03,-120.17C781.82,-124.63 787.18,-129.91 791,-136 880.33,-278.45 724.72,-395.66 848,-510 926.33,-582.66 1063.03,-566.02 1137.33,-549.72"/>
<polygon fill="#666666" stroke="#666666" stroke-width="1.1" points="1138.03,-552.07 1144.32,-548.14 1136.96,-547.29 1138.03,-552.07"/>
</g>
<!-- termin&#45;csg -->
<g id="node6" class="node">
<title>termin&#45;csg</title>
<path fill="#f7f7f7" stroke="#444444" d="M599,-256C599,-256 550,-256 550,-256 544,-256 538,-250 538,-244 538,-244 538,-232 538,-232 538,-226 544,-220 550,-220 550,-220 599,-220 599,-220 605,-220 611,-226 611,-232 611,-232 611,-244 611,-244 611,-250 605,-256 599,-256"/>
<text text-anchor="middle" x="574.5" y="-235.2" font-family="DejaVu Sans" font-size="11.00">termin&#45;csg</text>
</g>
<!-- termin&#45;input -->
<g id="node7" class="node">
<title>termin&#45;input</title>
<path fill="#f7f7f7" stroke="#444444" d="M769.5,-256C769.5,-256 711.5,-256 711.5,-256 705.5,-256 699.5,-250 699.5,-244 699.5,-244 699.5,-232 699.5,-232 699.5,-226 705.5,-220 711.5,-220 711.5,-220 769.5,-220 769.5,-220 775.5,-220 781.5,-226 781.5,-232 781.5,-232 781.5,-244 781.5,-244 781.5,-250 775.5,-256 769.5,-256"/>
<text text-anchor="middle" x="740.5" y="-235.2" font-family="DejaVu Sans" font-size="11.00">termin&#45;input</text>
</g>
<!-- termin&#45;display -->
<g id="node26" class="node">
<title>termin&#45;display</title>
<path fill="#f7f7f7" stroke="#444444" d="M980,-635C980,-635 911,-635 911,-635 905,-635 899,-629 899,-623 899,-623 899,-611 899,-611 899,-605 905,-599 911,-599 911,-599 980,-599 980,-599 986,-599 992,-605 992,-611 992,-611 992,-623 992,-623 992,-629 986,-635 980,-635"/>
<text text-anchor="middle" x="945.5" y="-614.2" font-family="DejaVu Sans" font-size="11.00">termin&#45;display</text>
</g>
<!-- termin&#45;input&#45;&gt;termin&#45;display -->
<g id="edge33" class="edge">
<title>termin&#45;input&#45;&gt;termin&#45;display</title>
<path fill="none" stroke="#666666" stroke-width="1.1" d="M743.31,-256.16C749.33,-308.17 772.72,-460.03 848,-556 860.86,-572.39 879.42,-585.6 896.84,-595.49"/>
<polygon fill="#666666" stroke="#666666" stroke-width="1.1" points="895.88,-597.75 903.19,-598.98 898.23,-593.46 895.88,-597.75"/>
</g>
<!-- termin&#45;scene -->
<g id="node13" class="node">
<title>termin&#45;scene</title>
<path fill="#f7f7f7" stroke="#444444" d="M606,-188C606,-188 543,-188 543,-188 537,-188 531,-182 531,-176 531,-176 531,-164 531,-164 531,-158 537,-152 543,-152 543,-152 606,-152 606,-152 612,-152 618,-158 618,-164 618,-164 618,-176 618,-176 618,-182 612,-188 606,-188"/>
<text text-anchor="middle" x="574.5" y="-167.2" font-family="DejaVu Sans" font-size="11.00">termin&#45;scene</text>
</g>
<!-- termin&#45;inspect&#45;&gt;termin&#45;scene -->
<g id="edge34" class="edge">
<title>termin&#45;inspect&#45;&gt;termin&#45;scene</title>
<path fill="none" stroke="#666666" stroke-width="1.1" d="M436.61,-52.17C444.06,-57.1 451.95,-62.58 459,-68 491.82,-93.24 527.02,-125.46 549.6,-146.86"/>
<polygon fill="#666666" stroke="#666666" stroke-width="1.1" points="548.02,-148.74 554.78,-151.79 551.4,-145.19 548.02,-148.74"/>
</g>
<!-- termin&#45;mesh&#45;&gt;termin&#45;csg -->
<g id="edge37" class="edge">
<title>termin&#45;mesh&#45;&gt;termin&#45;csg</title>
<path fill="none" stroke="#666666" stroke-width="1.1" d="M437.99,-120.02C445.18,-124.84 452.6,-130.29 459,-136 488.43,-162.25 485.93,-178.49 516,-204 521,-208.24 526.6,-212.27 532.28,-215.97"/>
<polygon fill="#666666" stroke="#666666" stroke-width="1.1" points="531.23,-218.2 538.46,-219.85 533.84,-214.05 531.23,-218.2"/>
</g>
<!-- termin&#45;components&#45;mesh -->
<g id="node20" class="node">
<title>termin&#45;components&#45;mesh</title>
<path fill="#f7f7f7" stroke="#444444" d="M1011.5,-473C1011.5,-473 879.5,-473 879.5,-473 873.5,-473 867.5,-467 867.5,-461 867.5,-461 867.5,-449 867.5,-449 867.5,-443 873.5,-437 879.5,-437 879.5,-437 1011.5,-437 1011.5,-437 1017.5,-437 1023.5,-443 1023.5,-449 1023.5,-449 1023.5,-461 1023.5,-461 1023.5,-467 1017.5,-473 1011.5,-473"/>
<text text-anchor="middle" x="945.5" y="-452.2" font-family="DejaVu Sans" font-size="11.00">termin&#45;components&#45;mesh</text>
</g>
<!-- termin&#45;mesh&#45;&gt;termin&#45;components&#45;mesh -->
<g id="edge36" class="edge">
<title>termin&#45;mesh&#45;&gt;termin&#45;components&#45;mesh</title>
<path fill="none" stroke="#666666" stroke-width="1.1" d="M441.17,-120.05C447.68,-124.63 454.01,-129.98 459,-136 500.82,-186.46 474.19,-221.53 516,-272 603.31,-377.39 762.38,-423.41 860.22,-442.5"/>
<polygon fill="#666666" stroke="#666666" stroke-width="1.1" points="859.82,-444.92 867.15,-443.83 860.74,-440.11 859.82,-444.92"/>
</g>
<!-- termin&#45;graphics -->
<g id="node27" class="node">
<title>termin&#45;graphics</title>
<path fill="#f7f7f7" stroke="#444444" d="M613,-635C613,-635 536,-635 536,-635 530,-635 524,-629 524,-623 524,-623 524,-611 524,-611 524,-605 530,-599 536,-599 536,-599 613,-599 613,-599 619,-599 625,-605 625,-611 625,-611 625,-623 625,-623 625,-629 619,-635 613,-635"/>
<text text-anchor="middle" x="574.5" y="-614.2" font-family="DejaVu Sans" font-size="11.00">termin&#45;graphics</text>
</g>
<!-- termin&#45;mesh&#45;&gt;termin&#45;graphics -->
<g id="edge38" class="edge">
<title>termin&#45;mesh&#45;&gt;termin&#45;graphics</title>
<path fill="none" stroke="#666666" stroke-width="1.1" d="M443.34,-120C449.37,-124.48 454.97,-129.8 459,-136 542.75,-264.83 473.88,-329.23 516,-477 527.89,-518.7 548.34,-564.81 561.38,-592.32"/>
<polygon fill="#666666" stroke="#666666" stroke-width="1.1" points="559.29,-593.64 564.52,-598.9 563.71,-591.53 559.29,-593.64"/>
</g>
<!-- termin&#45;modules&#45;&gt;termin&#45;app -->
<g id="edge39" class="edge">
<title>termin&#45;modules&#45;&gt;termin&#45;app</title>
<path fill="none" stroke="#666666" stroke-width="1.1" d="M443.9,-188.01C449.8,-192.46 455.21,-197.78 459,-204 520.84,-305.55 431.38,-652.48 516,-736 587.01,-806.09 639.73,-757 739.5,-757 739.5,-757 739.5,-757 946.5,-757 1107.77,-757 1299.45,-757 1383.89,-757"/>
<polygon fill="#666666" stroke="#666666" stroke-width="1.1" points="1383.99,-759.45 1390.99,-757 1383.99,-754.55 1383.99,-759.45"/>
</g>
<!-- termin&#45;navmesh&#45;&gt;termin&#45;app -->
<g id="edge42" class="edge">
<title>termin&#45;navmesh&#45;&gt;termin&#45;app</title>
<path fill="none" stroke="#666666" stroke-width="1.1" d="M407.06,-256.35C406.14,-328.6 410.3,-598.38 516,-782 614.18,-952.56 663.92,-1005.39 848,-1075 937.79,-1108.96 1199.09,-1126.66 1280,-1075 1384.74,-1008.12 1416.24,-845.61 1424.69,-782.58"/>
<polygon fill="#666666" stroke="#666666" stroke-width="1.1" points="1427.15,-782.65 1425.61,-775.4 1422.29,-782.03 1427.15,-782.65"/>
</g>
<!-- termin&#45;components&#45;physics -->
<g id="node21" class="node">
<title>termin&#45;components&#45;physics</title>
<path fill="#f7f7f7" stroke="#444444" d="M1500,-412C1500,-412 1357,-412 1357,-412 1351,-412 1345,-406 1345,-400 1345,-400 1345,-388 1345,-388 1345,-382 1351,-376 1357,-376 1357,-376 1500,-376 1500,-376 1506,-376 1512,-382 1512,-388 1512,-388 1512,-400 1512,-400 1512,-406 1506,-412 1500,-412"/>
<text text-anchor="middle" x="1428.5" y="-391.2" font-family="DejaVu Sans" font-size="11.00">termin&#45;components&#45;physics</text>
</g>
<!-- termin&#45;physics&#45;&gt;termin&#45;components&#45;physics -->
<g id="edge44" class="edge">
<title>termin&#45;physics&#45;&gt;termin&#45;components&#45;physics</title>
<path fill="none" stroke="#666666" stroke-width="1.1" d="M992.94,-124.09C1006.65,-129.79 1021.57,-136.34 1035,-143 1147.74,-198.95 1174.78,-215.94 1280,-285 1322.67,-313.01 1369.74,-348.68 1398.97,-371.44"/>
<polygon fill="#666666" stroke="#666666" stroke-width="1.1" points="1397.54,-373.43 1404.57,-375.81 1400.56,-369.57 1397.54,-373.43"/>
</g>
<!-- termin&#45;scene&#45;&gt;termin&#45;collision -->
<g id="edge46" class="edge">
<title>termin&#45;scene&#45;&gt;termin&#45;collision</title>
<path fill="none" stroke="#666666" stroke-width="1.1" d="M618.16,-152.31C639.93,-143.29 666.54,-132.25 689.29,-122.82"/>
<polygon fill="#666666" stroke="#666666" stroke-width="1.1" points="690.38,-125.02 695.91,-120.07 688.51,-120.49 690.38,-125.02"/>
</g>
<!-- termin&#45;scene&#45;&gt;termin&#45;input -->
<g id="edge49" class="edge">
<title>termin&#45;scene&#45;&gt;termin&#45;input</title>
<path fill="none" stroke="#666666" stroke-width="1.1" d="M618.16,-187.69C641.06,-197.18 669.33,-208.91 692.82,-218.64"/>
<polygon fill="#666666" stroke="#666666" stroke-width="1.1" points="691.9,-220.92 699.31,-221.34 693.78,-216.39 691.9,-220.92"/>
</g>
<!-- termin&#45;skeleton -->
<g id="node14" class="node">
<title>termin&#45;skeleton</title>
<path fill="#f7f7f7" stroke="#444444" d="M779,-188C779,-188 702,-188 702,-188 696,-188 690,-182 690,-176 690,-176 690,-164 690,-164 690,-158 696,-152 702,-152 702,-152 779,-152 779,-152 785,-152 791,-158 791,-164 791,-164 791,-176 791,-176 791,-182 785,-188 779,-188"/>
<text text-anchor="middle" x="740.5" y="-167.2" font-family="DejaVu Sans" font-size="11.00">termin&#45;skeleton</text>
</g>
<!-- termin&#45;scene&#45;&gt;termin&#45;skeleton -->
<g id="edge51" class="edge">
<title>termin&#45;scene&#45;&gt;termin&#45;skeleton</title>
<path fill="none" stroke="#666666" stroke-width="1.1" d="M618.16,-170C637.86,-170 661.52,-170 682.7,-170"/>
<polygon fill="#666666" stroke="#666666" stroke-width="1.1" points="682.78,-172.45 689.78,-170 682.78,-167.55 682.78,-172.45"/>
</g>
<!-- termin&#45;components&#45;kinematic -->
<g id="node19" class="node">
<title>termin&#45;components&#45;kinematic</title>
<path fill="#f7f7f7" stroke="#444444" d="M1023,-405C1023,-405 868,-405 868,-405 862,-405 856,-399 856,-393 856,-393 856,-381 856,-381 856,-375 862,-369 868,-369 868,-369 1023,-369 1023,-369 1029,-369 1035,-375 1035,-381 1035,-381 1035,-393 1035,-393 1035,-399 1029,-405 1023,-405"/>
<text text-anchor="middle" x="945.5" y="-384.2" font-family="DejaVu Sans" font-size="11.00">termin&#45;components&#45;kinematic</text>
</g>
<!-- termin&#45;scene&#45;&gt;termin&#45;components&#45;kinematic -->
<g id="edge47" class="edge">
<title>termin&#45;scene&#45;&gt;termin&#45;components&#45;kinematic</title>
<path fill="none" stroke="#666666" stroke-width="1.1" d="M603.99,-188.09C611.07,-192.98 618.49,-198.46 625,-204 656.84,-231.09 656.49,-247 690,-272 753.26,-319.18 775.51,-321.82 848,-353 858.98,-357.72 870.86,-362.31 882.4,-366.51"/>
<polygon fill="#666666" stroke="#666666" stroke-width="1.1" points="881.73,-368.88 889.14,-368.94 883.39,-364.26 881.73,-368.88"/>
</g>
<!-- termin&#45;scene&#45;&gt;termin&#45;components&#45;mesh -->
<g id="edge48" class="edge">
<title>termin&#45;scene&#45;&gt;termin&#45;components&#45;mesh</title>
<path fill="none" stroke="#666666" stroke-width="1.1" d="M606.67,-188.03C613.21,-192.69 619.72,-198.09 625,-204 665.94,-249.81 647.7,-281.45 690,-326 741.13,-379.85 819.65,-414.87 875.94,-434.64"/>
<polygon fill="#666666" stroke="#666666" stroke-width="1.1" points="875.28,-437.01 882.69,-436.98 876.88,-432.38 875.28,-437.01"/>
</g>
<!-- termin&#45;render -->
<g id="node29" class="node">
<title>termin&#45;render</title>
<path fill="#f7f7f7" stroke="#444444" d="M773.5,-635C773.5,-635 707.5,-635 707.5,-635 701.5,-635 695.5,-629 695.5,-623 695.5,-623 695.5,-611 695.5,-611 695.5,-605 701.5,-599 707.5,-599 707.5,-599 773.5,-599 773.5,-599 779.5,-599 785.5,-605 785.5,-611 785.5,-611 785.5,-623 785.5,-623 785.5,-629 779.5,-635 773.5,-635"/>
<text text-anchor="middle" x="740.5" y="-614.2" font-family="DejaVu Sans" font-size="11.00">termin&#45;render</text>
</g>
<!-- termin&#45;scene&#45;&gt;termin&#45;render -->
<g id="edge50" class="edge">
<title>termin&#45;scene&#45;&gt;termin&#45;render</title>
<path fill="none" stroke="#666666" stroke-width="1.1" d="M608.95,-188.16C614.98,-192.68 620.7,-197.97 625,-204 648.3,-236.66 713.63,-507.52 733.62,-591.96"/>
<polygon fill="#666666" stroke="#666666" stroke-width="1.1" points="731.25,-592.61 735.25,-598.86 736.02,-591.48 731.25,-592.61"/>
</g>
<!-- termin&#45;skeleton&#45;&gt;termin&#45;animation -->
<g id="edge52" class="edge">
<title>termin&#45;skeleton&#45;&gt;termin&#45;animation</title>
<path fill="none" stroke="#666666" stroke-width="1.1" d="M791.16,-171.71C819.09,-172.68 854.17,-173.89 883.73,-174.9"/>
<polygon fill="#666666" stroke="#666666" stroke-width="1.1" points="883.65,-177.35 890.73,-175.15 883.82,-172.46 883.65,-177.35"/>
</g>
<!-- termin&#45;components&#45;skeleton -->
<g id="node22" class="node">
<title>termin&#45;components&#45;skeleton</title>
<path fill="#f7f7f7" stroke="#444444" d="M1019.5,-337C1019.5,-337 871.5,-337 871.5,-337 865.5,-337 859.5,-331 859.5,-325 859.5,-325 859.5,-313 859.5,-313 859.5,-307 865.5,-301 871.5,-301 871.5,-301 1019.5,-301 1019.5,-301 1025.5,-301 1031.5,-307 1031.5,-313 1031.5,-313 1031.5,-325 1031.5,-325 1031.5,-331 1025.5,-337 1019.5,-337"/>
<text text-anchor="middle" x="945.5" y="-316.2" font-family="DejaVu Sans" font-size="11.00">termin&#45;components&#45;skeleton</text>
</g>
<!-- termin&#45;skeleton&#45;&gt;termin&#45;components&#45;skeleton -->
<g id="edge53" class="edge">
<title>termin&#45;skeleton&#45;&gt;termin&#45;components&#45;skeleton</title>
<path fill="none" stroke="#666666" stroke-width="1.1" d="M772.07,-188.16C778.71,-192.86 785.42,-198.23 791,-204 823.68,-237.75 810.11,-265.24 848,-293 850.16,-294.58 852.4,-296.06 854.72,-297.46"/>
<polygon fill="#666666" stroke="#666666" stroke-width="1.1" points="853.7,-299.69 861.01,-300.94 856.07,-295.4 853.7,-299.69"/>
</g>
<!-- termin -->
<g id="node15" class="node">
<title>termin</title>
<path fill="#f7f7f7" stroke="#444444" d="M260.5,-1038C260.5,-1038 230.5,-1038 230.5,-1038 224.5,-1038 218.5,-1032 218.5,-1026 218.5,-1026 218.5,-1014 218.5,-1014 218.5,-1008 224.5,-1002 230.5,-1002 230.5,-1002 260.5,-1002 260.5,-1002 266.5,-1002 272.5,-1008 272.5,-1014 272.5,-1014 272.5,-1026 272.5,-1026 272.5,-1032 266.5,-1038 260.5,-1038"/>
<text text-anchor="middle" x="245.5" y="-1017.2" font-family="DejaVu Sans" font-size="11.00">termin</text>
</g>
<!-- termin&#45;&gt;termin&#45;app -->
<g id="edge1" class="edge">
<title>termin&#45;&gt;termin&#45;app</title>
<path fill="none" stroke="#666666" stroke-width="1.1" d="M257.46,-1038.14C274.77,-1065.37 310.94,-1116.84 354,-1147 439.18,-1206.65 469.51,-1228 573.5,-1228 573.5,-1228 573.5,-1228 946.5,-1228 1096.72,-1228 1164.79,-1269.4 1280,-1173 1403.58,-1069.6 1423.66,-855.39 1426.89,-782.17"/>
<polygon fill="#666666" stroke="#666666" stroke-width="1.1" points="1429.34,-782.23 1427.17,-775.14 1424.44,-782.04 1429.34,-782.23"/>
</g>
<!-- termin&#45;&gt;termin&#45;navmesh -->
<g id="edge3" class="edge">
<title>termin&#45;&gt;termin&#45;navmesh</title>
<path fill="none" stroke="#666666" stroke-width="1.1" d="M250.2,-1001.82C271.25,-898.27 375.96,-383.27 400.4,-263.1"/>
<polygon fill="#666666" stroke="#666666" stroke-width="1.1" points="402.83,-263.43 401.82,-256.08 398.03,-262.45 402.83,-263.43"/>
</g>
<!-- termin&#45;entity -->
<g id="node31" class="node">
<title>termin&#45;entity</title>
<path fill="#f7f7f7" stroke="#444444" d="M438,-1110C438,-1110 375,-1110 375,-1110 369,-1110 363,-1104 363,-1098 363,-1098 363,-1086 363,-1086 363,-1080 369,-1074 375,-1074 375,-1074 438,-1074 438,-1074 444,-1074 450,-1080 450,-1086 450,-1086 450,-1098 450,-1098 450,-1104 444,-1110 438,-1110"/>
<text text-anchor="middle" x="406.5" y="-1089.2" font-family="DejaVu Sans" font-size="11.00">termin&#45;entity</text>
</g>
<!-- termin&#45;&gt;termin&#45;entity -->
<g id="edge2" class="edge">
<title>termin&#45;&gt;termin&#45;entity</title>
<path fill="none" stroke="#666666" stroke-width="1.1" d="M272.76,-1031.89C296.11,-1042.46 330.81,-1058.18 358.87,-1070.89"/>
<polygon fill="#666666" stroke="#666666" stroke-width="1.1" points="358.1,-1073.22 365.49,-1073.88 360.12,-1068.76 358.1,-1073.22"/>
</g>
<!-- termin&#45;components&#45;animation&#45;&gt;termin&#45;app -->
<g id="edge15" class="edge">
<title>termin&#45;components&#45;animation&#45;&gt;termin&#45;app</title>
<path fill="none" stroke="#666666" stroke-width="1.1" d="M1251.23,-337.08C1262.19,-342.83 1272.51,-350.31 1280,-360 1380.25,-489.67 1242.13,-595.41 1345,-723 1354.69,-735.02 1369.35,-742.84 1383.63,-747.9"/>
<polygon fill="#666666" stroke="#666666" stroke-width="1.1" points="1383.17,-750.33 1390.59,-750.17 1384.69,-745.67 1383.17,-750.33"/>
</g>
<!-- termin&#45;components&#45;collision&#45;&gt;termin&#45;components&#45;physics -->
<g id="edge16" class="edge">
<title>termin&#45;components&#45;collision&#45;&gt;termin&#45;components&#45;physics</title>
<path fill="none" stroke="#666666" stroke-width="1.1" d="M1275.05,-394C1295.36,-394 1317.14,-394 1337.7,-394"/>
<polygon fill="#666666" stroke="#666666" stroke-width="1.1" points="1337.92,-396.45 1344.92,-394 1337.92,-391.55 1337.92,-396.45"/>
</g>
<!-- termin&#45;components&#45;kinematic&#45;&gt;termin&#45;app -->
<g id="edge17" class="edge">
<title>termin&#45;components&#45;kinematic&#45;&gt;termin&#45;app</title>
<path fill="none" stroke="#666666" stroke-width="1.1" d="M1008.79,-405.11C1099.87,-432.09 1260.73,-481.82 1280,-502 1350.71,-576.04 1276.5,-646.91 1345,-723 1355.24,-734.38 1369.87,-742.04 1383.98,-747.16"/>
<polygon fill="#666666" stroke="#666666" stroke-width="1.1" points="1383.42,-749.55 1390.84,-749.47 1384.99,-744.91 1383.42,-749.55"/>
</g>
<!-- termin&#45;components&#45;mesh&#45;&gt;termin&#45;components&#45;collision -->
<g id="edge18" class="edge">
<title>termin&#45;components&#45;mesh&#45;&gt;termin&#45;components&#45;collision</title>
<path fill="none" stroke="#666666" stroke-width="1.1" d="M1018.27,-436.95C1047.24,-429.66 1080.74,-421.23 1110.37,-413.78"/>
<polygon fill="#666666" stroke="#666666" stroke-width="1.1" points="1111.22,-416.09 1117.41,-412.01 1110.02,-411.34 1111.22,-416.09"/>
</g>
<!-- termin&#45;components&#45;render -->
<g id="node25" class="node">
<title>termin&#45;components&#45;render</title>
<path fill="#f7f7f7" stroke="#444444" d="M1259,-635C1259,-635 1121,-635 1121,-635 1115,-635 1109,-629 1109,-623 1109,-623 1109,-611 1109,-611 1109,-605 1115,-599 1121,-599 1121,-599 1259,-599 1259,-599 1265,-599 1271,-605 1271,-611 1271,-611 1271,-623 1271,-623 1271,-629 1265,-635 1259,-635"/>
<text text-anchor="middle" x="1190" y="-614.2" font-family="DejaVu Sans" font-size="11.00">termin&#45;components&#45;render</text>
</g>
<!-- termin&#45;components&#45;mesh&#45;&gt;termin&#45;components&#45;render -->
<g id="edge19" class="edge">
<title>termin&#45;components&#45;mesh&#45;&gt;termin&#45;components&#45;render</title>
<path fill="none" stroke="#666666" stroke-width="1.1" d="M962.07,-473.23C987.86,-502.31 1042.34,-559.15 1100,-591 1103.35,-592.85 1106.84,-594.58 1110.42,-596.19"/>
<polygon fill="#666666" stroke="#666666" stroke-width="1.1" points="1109.55,-598.49 1116.95,-598.98 1111.47,-593.98 1109.55,-598.49"/>
</g>
<!-- termin&#45;components&#45;physics&#45;&gt;termin&#45;app -->
<g id="edge20" class="edge">
<title>termin&#45;components&#45;physics&#45;&gt;termin&#45;app</title>
<path fill="none" stroke="#666666" stroke-width="1.1" d="M1417.78,-412.31C1393.18,-455.53 1333.2,-568 1312.5,-671 1309.35,-686.69 1304.05,-693.42 1312.5,-707 1327.75,-731.51 1357.99,-744.03 1383.76,-750.42"/>
<polygon fill="#666666" stroke="#666666" stroke-width="1.1" points="1383.53,-752.88 1390.9,-752.06 1384.63,-748.1 1383.53,-752.88"/>
</g>
<!-- termin&#45;components&#45;skeleton&#45;&gt;termin&#45;components&#45;animation -->
<g id="edge22" class="edge">
<title>termin&#45;components&#45;skeleton&#45;&gt;termin&#45;components&#45;animation</title>
<path fill="none" stroke="#666666" stroke-width="1.1" d="M1031.66,-319C1051.43,-319 1072.62,-319 1092.83,-319"/>
<polygon fill="#666666" stroke="#666666" stroke-width="1.1" points="1092.94,-321.45 1099.94,-319 1092.94,-316.55 1092.94,-321.45"/>
</g>
<!-- termin&#45;assets -->
<g id="node23" class="node">
<title>termin&#45;assets</title>
<path fill="#f7f7f7" stroke="#444444" d="M112.5,-907C112.5,-907 46.5,-907 46.5,-907 40.5,-907 34.5,-901 34.5,-895 34.5,-895 34.5,-883 34.5,-883 34.5,-877 40.5,-871 46.5,-871 46.5,-871 112.5,-871 112.5,-871 118.5,-871 124.5,-877 124.5,-883 124.5,-883 124.5,-895 124.5,-895 124.5,-901 118.5,-907 112.5,-907"/>
<text text-anchor="middle" x="79.5" y="-886.2" font-family="DejaVu Sans" font-size="11.00">termin&#45;assets</text>
</g>
<!-- termin&#45;assets&#45;&gt;termin&#45;app -->
<g id="edge6" class="edge">
<title>termin&#45;assets&#45;&gt;termin&#45;app</title>
<path fill="none" stroke="#666666" stroke-width="1.1" d="M124.66,-889C187.17,-889 305.07,-889 405.5,-889 405.5,-889 405.5,-889 575.5,-889 888.77,-889 1259.28,-800.77 1384.05,-768.58"/>
<polygon fill="#666666" stroke="#666666" stroke-width="1.1" points="1384.7,-770.94 1390.86,-766.81 1383.47,-766.2 1384.7,-770.94"/>
</g>
<!-- termin&#45;nanobind&#45;sdk -->
<g id="node24" class="node">
<title>termin&#45;nanobind&#45;sdk</title>
<path fill="#f7f7f7" stroke="#444444" d="M131,-975C131,-975 28,-975 28,-975 22,-975 16,-969 16,-963 16,-963 16,-951 16,-951 16,-945 22,-939 28,-939 28,-939 131,-939 131,-939 137,-939 143,-945 143,-951 143,-951 143,-963 143,-963 143,-969 137,-975 131,-975"/>
<text text-anchor="middle" x="79.5" y="-954.2" font-family="DejaVu Sans" font-size="11.00">termin&#45;nanobind&#45;sdk</text>
</g>
<!-- termin&#45;nanobind&#45;sdk&#45;&gt;termin&#45;base -->
<g id="edge40" class="edge">
<title>termin&#45;nanobind&#45;sdk&#45;&gt;termin&#45;base</title>
<path fill="none" stroke="#666666" stroke-width="1.1" d="M133.5,-938.91C140.24,-934.63 146.39,-929.39 151,-923 233.57,-808.65 243.23,-343.52 244.35,-229.38"/>
<polygon fill="#666666" stroke="#666666" stroke-width="1.1" points="246.81,-229.1 244.42,-222.08 241.91,-229.06 246.81,-229.1"/>
</g>
<!-- termin&#45;nanobind&#45;sdk&#45;&gt;termin&#45;entity -->
<g id="edge41" class="edge">
<title>termin&#45;nanobind&#45;sdk&#45;&gt;termin&#45;entity</title>
<path fill="none" stroke="#666666" stroke-width="1.1" d="M92.69,-975.03C111.58,-1001.3 150.6,-1049.3 197,-1071 247.42,-1094.58 312.03,-1097.48 355.88,-1095.99"/>
<polygon fill="#666666" stroke="#666666" stroke-width="1.1" points="356.1,-1098.43 363,-1095.7 355.91,-1093.54 356.1,-1098.43"/>
</g>
<!-- termin&#45;components&#45;render&#45;&gt;termin&#45;app -->
<g id="edge21" class="edge">
<title>termin&#45;components&#45;render&#45;&gt;termin&#45;app</title>
<path fill="none" stroke="#666666" stroke-width="1.1" d="M1214.01,-635.15C1243.28,-657.69 1295.92,-696.39 1345,-723 1357.41,-729.73 1371.44,-735.97 1384.36,-741.23"/>
<polygon fill="#666666" stroke="#666666" stroke-width="1.1" points="1383.59,-743.56 1391,-743.88 1385.41,-739.01 1383.59,-743.56"/>
</g>
<!-- termin&#45;display&#45;&gt;diffusion&#45;editor -->
<g id="edge23" class="edge">
<title>termin&#45;display&#45;&gt;diffusion&#45;editor</title>
<path fill="none" stroke="#666666" stroke-width="1.1" d="M992.27,-628.43C1022.66,-635.7 1063.53,-644.86 1100,-651 1195.25,-667.03 1307.23,-678.44 1372.49,-684.35"/>
<polygon fill="#666666" stroke="#666666" stroke-width="1.1" points="1372.64,-686.83 1379.83,-685.01 1373.08,-681.95 1372.64,-686.83"/>
</g>
<!-- termin&#45;display&#45;&gt;termin&#45;components&#45;render -->
<g id="edge24" class="edge">
<title>termin&#45;display&#45;&gt;termin&#45;components&#45;render</title>
<path fill="none" stroke="#666666" stroke-width="1.1" d="M992.11,-617C1022.85,-617 1064.4,-617 1101.4,-617"/>
<polygon fill="#666666" stroke="#666666" stroke-width="1.1" points="1101.73,-619.45 1108.73,-617 1101.73,-614.55 1101.73,-619.45"/>
</g>
<!-- termin&#45;display&#45;&gt;termin&#45;engine -->
<g id="edge25" class="edge">
<title>termin&#45;display&#45;&gt;termin&#45;engine</title>
<path fill="none" stroke="#666666" stroke-width="1.1" d="M992.11,-601.76C1033.53,-587.93 1094.54,-567.55 1137.65,-553.15"/>
<polygon fill="#666666" stroke="#666666" stroke-width="1.1" points="1138.55,-555.44 1144.41,-550.89 1137,-550.79 1138.55,-555.44"/>
</g>
<!-- termin&#45;graphics&#45;&gt;termin&#45;render -->
<g id="edge29" class="edge">
<title>termin&#45;graphics&#45;&gt;termin&#45;render</title>
<path fill="none" stroke="#666666" stroke-width="1.1" d="M625.15,-617C645.05,-617 667.98,-617 688.05,-617"/>
<polygon fill="#666666" stroke="#666666" stroke-width="1.1" points="688.31,-619.45 695.31,-617 688.31,-614.55 688.31,-619.45"/>
</g>
<!-- termin&#45;gui -->
<g id="node33" class="node">
<title>termin&#45;gui</title>
<path fill="#f7f7f7" stroke="#444444" d="M969,-974C969,-974 922,-974 922,-974 916,-974 910,-968 910,-962 910,-962 910,-950 910,-950 910,-944 916,-938 922,-938 922,-938 969,-938 969,-938 975,-938 981,-944 981,-950 981,-950 981,-962 981,-962 981,-968 975,-974 969,-974"/>
<text text-anchor="middle" x="945.5" y="-953.2" font-family="DejaVu Sans" font-size="11.00">termin&#45;gui</text>
</g>
<!-- termin&#45;graphics&#45;&gt;termin&#45;gui -->
<g id="edge28" class="edge">
<title>termin&#45;graphics&#45;&gt;termin&#45;gui</title>
<path fill="none" stroke="#666666" stroke-width="1.1" d="M603.16,-635.12C610.4,-640.09 618.1,-645.61 625,-651 746.22,-745.72 873.65,-879.28 923.13,-932.65"/>
<polygon fill="#666666" stroke="#666666" stroke-width="1.1" points="921.39,-934.38 927.94,-937.86 924.99,-931.05 921.39,-934.38"/>
</g>
<!-- termin&#45;lighting&#45;&gt;termin&#45;render -->
<g id="edge35" class="edge">
<title>termin&#45;lighting&#45;&gt;termin&#45;render</title>
<path fill="none" stroke="#666666" stroke-width="1.1" d="M619.02,-666.96C640.7,-657.97 667.02,-647.05 689.52,-637.72"/>
<polygon fill="#666666" stroke="#666666" stroke-width="1.1" points="690.54,-639.95 696.06,-635.01 688.66,-635.43 690.54,-639.95"/>
</g>
<!-- termin&#45;render&#45;&gt;termin&#45;display -->
<g id="edge45" class="edge">
<title>termin&#45;render&#45;&gt;termin&#45;display</title>
<path fill="none" stroke="#666666" stroke-width="1.1" d="M785.55,-617C816.66,-617 858.51,-617 891.46,-617"/>
<polygon fill="#666666" stroke="#666666" stroke-width="1.1" points="891.78,-619.45 898.78,-617 891.78,-614.55 891.78,-619.45"/>
</g>
<!-- termin&#45;engine&#45;&gt;termin&#45;app -->
<g id="edge26" class="edge">
<title>termin&#45;engine&#45;&gt;termin&#45;app</title>
<path fill="none" stroke="#666666" stroke-width="1.1" d="M1235.54,-552.53C1251.1,-559.99 1267.72,-570.08 1280,-583 1327.25,-632.73 1295.44,-675.56 1345,-723 1355.87,-733.4 1370.36,-740.81 1384.17,-745.99"/>
<polygon fill="#666666" stroke="#666666" stroke-width="1.1" points="1383.45,-748.33 1390.87,-748.36 1385.09,-743.71 1383.45,-748.33"/>
</g>
<!-- termin&#45;entity&#45;&gt;termin&#45;app -->
<g id="edge27" class="edge">
<title>termin&#45;entity&#45;&gt;termin&#45;app</title>
<path fill="none" stroke="#666666" stroke-width="1.1" d="M450.13,-1106.93C512.74,-1127.49 633.62,-1162 739.5,-1162 739.5,-1162 739.5,-1162 946.5,-1162 1095.84,-1162 1161.48,-1211.86 1280,-1121 1392.03,-1035.12 1419.33,-850.1 1425.67,-782.44"/>
<polygon fill="#666666" stroke="#666666" stroke-width="1.1" points="1428.14,-782.34 1426.31,-775.16 1423.26,-781.91 1428.14,-782.34"/>
</g>
<!-- tcplot -->
<g id="node32" class="node">
<title>tcplot</title>
<path fill="#f7f7f7" stroke="#444444" d="M1205,-1042C1205,-1042 1175,-1042 1175,-1042 1169,-1042 1163,-1036 1163,-1030 1163,-1030 1163,-1018 1163,-1018 1163,-1012 1169,-1006 1175,-1006 1175,-1006 1205,-1006 1205,-1006 1211,-1006 1217,-1012 1217,-1018 1217,-1018 1217,-1030 1217,-1030 1217,-1036 1211,-1042 1205,-1042"/>
<text text-anchor="middle" x="1190" y="-1021.2" font-family="DejaVu Sans" font-size="11.00">tcplot</text>
</g>
<!-- termin&#45;gui&#45;&gt;diffusion&#45;editor -->
<g id="edge30" class="edge">
<title>termin&#45;gui&#45;&gt;diffusion&#45;editor</title>
<path fill="none" stroke="#666666" stroke-width="1.1" d="M974.27,-937.95C1038.13,-896.85 1201.02,-794.34 1345,-723 1354.14,-718.47 1364.03,-714.03 1373.68,-709.92"/>
<polygon fill="#666666" stroke="#666666" stroke-width="1.1" points="1374.81,-712.1 1380.31,-707.13 1372.91,-707.59 1374.81,-712.1"/>
</g>
<!-- termin&#45;gui&#45;&gt;tcplot -->
<g id="edge31" class="edge">
<title>termin&#45;gui&#45;&gt;tcplot</title>
<path fill="none" stroke="#666666" stroke-width="1.1" d="M981.24,-965.74C1027.96,-978.84 1110.42,-1001.96 1156.14,-1014.79"/>
<polygon fill="#666666" stroke="#666666" stroke-width="1.1" points="1155.48,-1017.15 1162.88,-1016.68 1156.81,-1012.43 1155.48,-1017.15"/>
</g>
<!-- termin&#45;nodegraph -->
<g id="node34" class="node">
<title>termin&#45;nodegraph</title>
<path fill="#f7f7f7" stroke="#444444" d="M1234.5,-974C1234.5,-974 1145.5,-974 1145.5,-974 1139.5,-974 1133.5,-968 1133.5,-962 1133.5,-962 1133.5,-950 1133.5,-950 1133.5,-944 1139.5,-938 1145.5,-938 1145.5,-938 1234.5,-938 1234.5,-938 1240.5,-938 1246.5,-944 1246.5,-950 1246.5,-950 1246.5,-962 1246.5,-962 1246.5,-968 1240.5,-974 1234.5,-974"/>
<text text-anchor="middle" x="1190" y="-953.2" font-family="DejaVu Sans" font-size="11.00">termin&#45;nodegraph</text>
</g>
<!-- termin&#45;gui&#45;&gt;termin&#45;nodegraph -->
<g id="edge32" class="edge">
<title>termin&#45;gui&#45;&gt;termin&#45;nodegraph</title>
<path fill="none" stroke="#666666" stroke-width="1.1" d="M981.24,-956C1018.91,-956 1079.82,-956 1125.97,-956"/>
<polygon fill="#666666" stroke="#666666" stroke-width="1.1" points="1126.24,-958.45 1133.24,-956 1126.24,-953.55 1126.24,-958.45"/>
</g>
<!-- termin&#45;nodegraph&#45;&gt;termin&#45;app -->
<g id="edge43" class="edge">
<title>termin&#45;nodegraph&#45;&gt;termin&#45;app</title>
<path fill="none" stroke="#666666" stroke-width="1.1" d="M1237.67,-937.97C1251.89,-931.44 1267.15,-923.35 1280,-914 1333.82,-874.86 1384.08,-814.29 1409.73,-780.98"/>
<polygon fill="#666666" stroke="#666666" stroke-width="1.1" points="1411.92,-782.14 1414.23,-775.09 1408.03,-779.17 1411.92,-782.14"/>
</g>
</g>
</svg>
