<?xml version="1.0" encoding="UTF-8" standalone="no"?>
<!DOCTYPE svg PUBLIC "-//W3C//DTD SVG 1.1//EN"
 "http://www.w3.org/Graphics/SVG/1.1/DTD/svg11.dtd">
<!-- Generated by graphviz version 2.43.0 (0)
 -->
<!-- Title: termin_dependencies Pages: 1 -->
<svg width="1431pt" height="808pt"
 viewBox="0.00 0.00 1430.80 808.24" xmlns="http://www.w3.org/2000/svg" xmlns:xlink="http://www.w3.org/1999/xlink">
<g id="graph0" class="graph" transform="scale(1 1) rotate(0) translate(14.4 793.84)">
<title>termin_dependencies</title>
<polygon fill="white" stroke="transparent" points="-14.4,14.4 -14.4,-793.84 1416.4,-793.84 1416.4,14.4 -14.4,14.4"/>
<g id="clust1" class="cluster">
<title>cluster_application</title>
<polygon fill="white" stroke="#999999" stroke-dasharray="5,2" points="1141,-169.44 1141,-310.44 1254,-310.44 1254,-169.44 1141,-169.44"/>
<text text-anchor="middle" x="1197.5" y="-296.84" font-family="DejaVu Sans" font-size="12.00">Application</text>
</g>
<g id="clust2" class="cluster">
<title>cluster_foundation</title>
<polygon fill="white" stroke="#999999" stroke-dasharray="5,2" points="8,-277.44 8,-486.44 812,-486.44 812,-277.44 8,-277.44"/>
<text text-anchor="middle" x="410" y="-472.84" font-family="DejaVu Sans" font-size="12.00">Foundation</text>
</g>
<g id="clust3" class="cluster">
<title>cluster_other_components</title>
<polygon fill="white" stroke="#999999" stroke-dasharray="5,2" points="652,-494.44 652,-771.44 1092,-771.44 1092,-494.44 652,-494.44"/>
<text text-anchor="middle" x="872" y="-757.84" font-family="DejaVu Sans" font-size="12.00">Other Components</text>
</g>
<g id="clust4" class="cluster">
<title>cluster_render_stack</title>
<polygon fill="white" stroke="#999999" stroke-dasharray="5,2" points="320,-196.44 320,-269.44 1083,-269.44 1083,-196.44 320,-196.44"/>
<text text-anchor="middle" x="701.5" y="-255.84" font-family="DejaVu Sans" font-size="12.00">Render Stack</text>
</g>
<g id="clust5" class="cluster">
<title>cluster_runtime</title>
<polygon fill="white" stroke="#999999" stroke-dasharray="5,2" points="940.5,-277.44 940.5,-350.44 1047.5,-350.44 1047.5,-277.44 940.5,-277.44"/>
<text text-anchor="middle" x="994" y="-336.84" font-family="DejaVu Sans" font-size="12.00">Runtime</text>
</g>
<g id="clust6" class="cluster">
<title>cluster_ui</title>
<polygon fill="white" stroke="#999999" stroke-dasharray="5,2" points="706,-62.44 706,-135.44 1058.5,-135.44 1058.5,-62.44 706,-62.44"/>
<text text-anchor="middle" x="882.25" y="-121.84" font-family="DejaVu Sans" font-size="12.00">UI</text>
</g>
<!-- diffusion&#45;editor -->
<g id="node1" class="node">
<title>diffusion&#45;editor</title>
<path fill="#f7f7f7" stroke="#444444" d="M1234,-213.44C1234,-213.44 1161,-213.44 1161,-213.44 1155,-213.44 1149,-207.44 1149,-201.44 1149,-201.44 1149,-189.44 1149,-189.44 1149,-183.44 1155,-177.44 1161,-177.44 1161,-177.44 1234,-177.44 1234,-177.44 1240,-177.44 1246,-183.44 1246,-189.44 1246,-189.44 1246,-201.44 1246,-201.44 1246,-207.44 1240,-213.44 1234,-213.44"/>
<text text-anchor="middle" x="1197.5" y="-192.64" font-family="DejaVu Sans" font-size="11.00">diffusion&#45;editor</text>
</g>
<!-- termin -->
<g id="node2" class="node">
<title>termin</title>
<path fill="#f7f7f7" stroke="#444444" d="M1212.5,-281.44C1212.5,-281.44 1182.5,-281.44 1182.5,-281.44 1176.5,-281.44 1170.5,-275.44 1170.5,-269.44 1170.5,-269.44 1170.5,-257.44 1170.5,-257.44 1170.5,-251.44 1176.5,-245.44 1182.5,-245.44 1182.5,-245.44 1212.5,-245.44 1212.5,-245.44 1218.5,-245.44 1224.5,-251.44 1224.5,-257.44 1224.5,-257.44 1224.5,-269.44 1224.5,-269.44 1224.5,-275.44 1218.5,-281.44 1212.5,-281.44"/>
<text text-anchor="middle" x="1197.5" y="-260.64" font-family="DejaVu Sans" font-size="11.00">termin</text>
</g>
<!-- termin&#45;csharp -->
<g id="node26" class="node">
<title>termin&#45;csharp</title>
<path fill="#f7f7f7" stroke="#444444" d="M1390,-281.44C1390,-281.44 1323,-281.44 1323,-281.44 1317,-281.44 1311,-275.44 1311,-269.44 1311,-269.44 1311,-257.44 1311,-257.44 1311,-251.44 1317,-245.44 1323,-245.44 1323,-245.44 1390,-245.44 1390,-245.44 1396,-245.44 1402,-251.44 1402,-257.44 1402,-257.44 1402,-269.44 1402,-269.44 1402,-275.44 1396,-281.44 1390,-281.44"/>
<text text-anchor="middle" x="1356.5" y="-260.64" font-family="DejaVu Sans" font-size="11.00">termin&#45;csharp</text>
</g>
<!-- termin&#45;&gt;termin&#45;csharp -->
<g id="edge1" class="edge">
<title>termin&#45;&gt;termin&#45;csharp</title>
<path fill="none" stroke="#666666" stroke-width="1.1" d="M1224.78,-263.44C1246.24,-263.44 1277.24,-263.44 1303.66,-263.44"/>
<polygon fill="#666666" stroke="#666666" stroke-width="1.1" points="1303.98,-265.89 1310.98,-263.44 1303.98,-260.99 1303.98,-265.89"/>
</g>
<!-- termin&#45;animation -->
<g id="node3" class="node">
<title>termin&#45;animation</title>
<path fill="#f7f7f7" stroke="#444444" d="M792,-457.44C792,-457.44 707,-457.44 707,-457.44 701,-457.44 695,-451.44 695,-445.44 695,-445.44 695,-433.44 695,-433.44 695,-427.44 701,-421.44 707,-421.44 707,-421.44 792,-421.44 792,-421.44 798,-421.44 804,-427.44 804,-433.44 804,-433.44 804,-445.44 804,-445.44 804,-451.44 798,-457.44 792,-457.44"/>
<text text-anchor="middle" x="749.5" y="-436.64" font-family="DejaVu Sans" font-size="11.00">termin&#45;animation</text>
</g>
<!-- termin&#45;components&#45;animation -->
<g id="node13" class="node">
<title>termin&#45;components&#45;animation</title>
<path fill="#f7f7f7" stroke="#444444" d="M1072,-606.44C1072,-606.44 916,-606.44 916,-606.44 910,-606.44 904,-600.44 904,-594.44 904,-594.44 904,-582.44 904,-582.44 904,-576.44 910,-570.44 916,-570.44 916,-570.44 1072,-570.44 1072,-570.44 1078,-570.44 1084,-576.44 1084,-582.44 1084,-582.44 1084,-594.44 1084,-594.44 1084,-600.44 1078,-606.44 1072,-606.44"/>
<text text-anchor="middle" x="994" y="-585.64" font-family="DejaVu Sans" font-size="11.00">termin&#45;components&#45;animation</text>
</g>
<!-- termin&#45;animation&#45;&gt;termin&#45;components&#45;animation -->
<g id="edge2" class="edge">
<title>termin&#45;animation&#45;&gt;termin&#45;components&#45;animation</title>
<path fill="none" stroke="#666666" stroke-width="1.1" d="M790.9,-457.47C806.6,-465.33 824.3,-475.31 839,-486.44 872.33,-511.67 869.18,-531.3 904,-554.44 911.47,-559.4 919.76,-563.78 928.19,-567.61"/>
<polygon fill="#666666" stroke="#666666" stroke-width="1.1" points="927.26,-569.88 934.66,-570.43 929.22,-565.39 927.26,-569.88"/>
</g>
<!-- termin&#45;base -->
<g id="node4" class="node">
<title>termin&#45;base</title>
<path fill="#f7f7f7" stroke="#444444" d="M85,-389.44C85,-389.44 28,-389.44 28,-389.44 22,-389.44 16,-383.44 16,-377.44 16,-377.44 16,-365.44 16,-365.44 16,-359.44 22,-353.44 28,-353.44 28,-353.44 85,-353.44 85,-353.44 91,-353.44 97,-359.44 97,-365.44 97,-365.44 97,-377.44 97,-377.44 97,-383.44 91,-389.44 85,-389.44"/>
<text text-anchor="middle" x="56.5" y="-368.64" font-family="DejaVu Sans" font-size="11.00">termin&#45;base</text>
</g>
<!-- termin&#45;inspect -->
<g id="node7" class="node">
<title>termin&#45;inspect</title>
<path fill="#f7f7f7" stroke="#444444" d="M247.5,-389.44C247.5,-389.44 177.5,-389.44 177.5,-389.44 171.5,-389.44 165.5,-383.44 165.5,-377.44 165.5,-377.44 165.5,-365.44 165.5,-365.44 165.5,-359.44 171.5,-353.44 177.5,-353.44 177.5,-353.44 247.5,-353.44 247.5,-353.44 253.5,-353.44 259.5,-359.44 259.5,-365.44 259.5,-365.44 259.5,-377.44 259.5,-377.44 259.5,-383.44 253.5,-389.44 247.5,-389.44"/>
<text text-anchor="middle" x="212.5" y="-368.64" font-family="DejaVu Sans" font-size="11.00">termin&#45;inspect</text>
</g>
<!-- termin&#45;base&#45;&gt;termin&#45;inspect -->
<g id="edge3" class="edge">
<title>termin&#45;base&#45;&gt;termin&#45;inspect</title>
<path fill="none" stroke="#666666" stroke-width="1.1" d="M97.16,-371.44C115.73,-371.44 138.13,-371.44 158.16,-371.44"/>
<polygon fill="#666666" stroke="#666666" stroke-width="1.1" points="158.42,-373.89 165.42,-371.44 158.42,-368.99 158.42,-373.89"/>
</g>
<!-- termin&#45;mesh -->
<g id="node8" class="node">
<title>termin&#45;mesh</title>
<path fill="#f7f7f7" stroke="#444444" d="M242.5,-457.44C242.5,-457.44 182.5,-457.44 182.5,-457.44 176.5,-457.44 170.5,-451.44 170.5,-445.44 170.5,-445.44 170.5,-433.44 170.5,-433.44 170.5,-427.44 176.5,-421.44 182.5,-421.44 182.5,-421.44 242.5,-421.44 242.5,-421.44 248.5,-421.44 254.5,-427.44 254.5,-433.44 254.5,-433.44 254.5,-445.44 254.5,-445.44 254.5,-451.44 248.5,-457.44 242.5,-457.44"/>
<text text-anchor="middle" x="212.5" y="-436.64" font-family="DejaVu Sans" font-size="11.00">termin&#45;mesh</text>
</g>
<!-- termin&#45;base&#45;&gt;termin&#45;mesh -->
<g id="edge4" class="edge">
<title>termin&#45;base&#45;&gt;termin&#45;mesh</title>
<path fill="none" stroke="#666666" stroke-width="1.1" d="M97.16,-388.95C117.59,-397.97 142.65,-409.04 164.1,-418.51"/>
<polygon fill="#666666" stroke="#666666" stroke-width="1.1" points="163.24,-420.81 170.63,-421.39 165.22,-416.32 163.24,-420.81"/>
</g>
<!-- termin&#45;modules -->
<g id="node9" class="node">
<title>termin&#45;modules</title>
<path fill="#f7f7f7" stroke="#444444" d="M251,-321.44C251,-321.44 174,-321.44 174,-321.44 168,-321.44 162,-315.44 162,-309.44 162,-309.44 162,-297.44 162,-297.44 162,-291.44 168,-285.44 174,-285.44 174,-285.44 251,-285.44 251,-285.44 257,-285.44 263,-291.44 263,-297.44 263,-297.44 263,-309.44 263,-309.44 263,-315.44 257,-321.44 251,-321.44"/>
<text text-anchor="middle" x="212.5" y="-300.64" font-family="DejaVu Sans" font-size="11.00">termin&#45;modules</text>
</g>
<!-- termin&#45;base&#45;&gt;termin&#45;modules -->
<g id="edge5" class="edge">
<title>termin&#45;base&#45;&gt;termin&#45;modules</title>
<path fill="none" stroke="#666666" stroke-width="1.1" d="M97.16,-353.93C117.59,-344.9 142.65,-333.84 164.1,-324.37"/>
<polygon fill="#666666" stroke="#666666" stroke-width="1.1" points="165.22,-326.55 170.63,-321.48 163.24,-322.07 165.22,-326.55"/>
</g>
<!-- termin&#45;collision -->
<g id="node5" class="node">
<title>termin&#45;collision</title>
<path fill="#f7f7f7" stroke="#444444" d="M582,-389.44C582,-389.44 507,-389.44 507,-389.44 501,-389.44 495,-383.44 495,-377.44 495,-377.44 495,-365.44 495,-365.44 495,-359.44 501,-353.44 507,-353.44 507,-353.44 582,-353.44 582,-353.44 588,-353.44 594,-359.44 594,-365.44 594,-365.44 594,-377.44 594,-377.44 594,-383.44 588,-389.44 582,-389.44"/>
<text text-anchor="middle" x="544.5" y="-368.64" font-family="DejaVu Sans" font-size="11.00">termin&#45;collision</text>
</g>
<!-- termin&#45;physics -->
<g id="node10" class="node">
<title>termin&#45;physics</title>
<path fill="#f7f7f7" stroke="#444444" d="M785.5,-389.44C785.5,-389.44 713.5,-389.44 713.5,-389.44 707.5,-389.44 701.5,-383.44 701.5,-377.44 701.5,-377.44 701.5,-365.44 701.5,-365.44 701.5,-359.44 707.5,-353.44 713.5,-353.44 713.5,-353.44 785.5,-353.44 785.5,-353.44 791.5,-353.44 797.5,-359.44 797.5,-365.44 797.5,-365.44 797.5,-377.44 797.5,-377.44 797.5,-383.44 791.5,-389.44 785.5,-389.44"/>
<text text-anchor="middle" x="749.5" y="-368.64" font-family="DejaVu Sans" font-size="11.00">termin&#45;physics</text>
</g>
<!-- termin&#45;collision&#45;&gt;termin&#45;physics -->
<g id="edge8" class="edge">
<title>termin&#45;collision&#45;&gt;termin&#45;physics</title>
<path fill="none" stroke="#666666" stroke-width="1.1" d="M594.12,-371.44C624.2,-371.44 662.88,-371.44 693.99,-371.44"/>
<polygon fill="#666666" stroke="#666666" stroke-width="1.1" points="694.32,-373.89 701.32,-371.44 694.32,-368.99 694.32,-373.89"/>
</g>
<!-- termin&#45;components&#45;collision -->
<g id="node14" class="node">
<title>termin&#45;components&#45;collision</title>
<path fill="#f7f7f7" stroke="#444444" d="M822.5,-538.44C822.5,-538.44 676.5,-538.44 676.5,-538.44 670.5,-538.44 664.5,-532.44 664.5,-526.44 664.5,-526.44 664.5,-514.44 664.5,-514.44 664.5,-508.44 670.5,-502.44 676.5,-502.44 676.5,-502.44 822.5,-502.44 822.5,-502.44 828.5,-502.44 834.5,-508.44 834.5,-514.44 834.5,-514.44 834.5,-526.44 834.5,-526.44 834.5,-532.44 828.5,-538.44 822.5,-538.44"/>
<text text-anchor="middle" x="749.5" y="-517.64" font-family="DejaVu Sans" font-size="11.00">termin&#45;components&#45;collision</text>
</g>
<!-- termin&#45;collision&#45;&gt;termin&#45;components&#45;collision -->
<g id="edge6" class="edge">
<title>termin&#45;collision&#45;&gt;termin&#45;components&#45;collision</title>
<path fill="none" stroke="#666666" stroke-width="1.1" d="M576.07,-389.6C582.71,-394.3 589.42,-399.67 595,-405.44 627.68,-439.18 614.11,-466.68 652,-494.44 654.16,-496.02 656.4,-497.5 658.72,-498.89"/>
<polygon fill="#666666" stroke="#666666" stroke-width="1.1" points="657.7,-501.13 665.01,-502.38 660.07,-496.84 657.7,-501.13"/>
</g>
<!-- termin&#45;engine -->
<g id="node23" class="node">
<title>termin&#45;engine</title>
<path fill="#f7f7f7" stroke="#444444" d="M1027.5,-321.44C1027.5,-321.44 960.5,-321.44 960.5,-321.44 954.5,-321.44 948.5,-315.44 948.5,-309.44 948.5,-309.44 948.5,-297.44 948.5,-297.44 948.5,-291.44 954.5,-285.44 960.5,-285.44 960.5,-285.44 1027.5,-285.44 1027.5,-285.44 1033.5,-285.44 1039.5,-291.44 1039.5,-297.44 1039.5,-297.44 1039.5,-309.44 1039.5,-309.44 1039.5,-315.44 1033.5,-321.44 1027.5,-321.44"/>
<text text-anchor="middle" x="994" y="-300.64" font-family="DejaVu Sans" font-size="11.00">termin&#45;engine</text>
</g>
<!-- termin&#45;collision&#45;&gt;termin&#45;engine -->
<g id="edge7" class="edge">
<title>termin&#45;collision&#45;&gt;termin&#45;engine</title>
<path fill="none" stroke="#666666" stroke-width="1.1" d="M594.24,-353.51C612.18,-347.54 632.8,-341.41 652,-337.44 753.18,-316.48 874.02,-308.31 941.27,-305.22"/>
<polygon fill="#666666" stroke="#666666" stroke-width="1.1" points="941.53,-307.66 948.41,-304.91 941.31,-302.77 941.53,-307.66"/>
</g>
<!-- termin&#45;input -->
<g id="node6" class="node">
<title>termin&#45;input</title>
<path fill="#f7f7f7" stroke="#444444" d="M573.5,-321.44C573.5,-321.44 515.5,-321.44 515.5,-321.44 509.5,-321.44 503.5,-315.44 503.5,-309.44 503.5,-309.44 503.5,-297.44 503.5,-297.44 503.5,-291.44 509.5,-285.44 515.5,-285.44 515.5,-285.44 573.5,-285.44 573.5,-285.44 579.5,-285.44 585.5,-291.44 585.5,-297.44 585.5,-297.44 585.5,-309.44 585.5,-309.44 585.5,-315.44 579.5,-321.44 573.5,-321.44"/>
<text text-anchor="middle" x="544.5" y="-300.64" font-family="DejaVu Sans" font-size="11.00">termin&#45;input</text>
</g>
<!-- termin&#45;display -->
<g id="node20" class="node">
<title>termin&#45;display</title>
<path fill="#f7f7f7" stroke="#444444" d="M784,-240.44C784,-240.44 715,-240.44 715,-240.44 709,-240.44 703,-234.44 703,-228.44 703,-228.44 703,-216.44 703,-216.44 703,-210.44 709,-204.44 715,-204.44 715,-204.44 784,-204.44 784,-204.44 790,-204.44 796,-210.44 796,-216.44 796,-216.44 796,-228.44 796,-228.44 796,-234.44 790,-240.44 784,-240.44"/>
<text text-anchor="middle" x="749.5" y="-219.64" font-family="DejaVu Sans" font-size="11.00">termin&#45;display</text>
</g>
<!-- termin&#45;input&#45;&gt;termin&#45;display -->
<g id="edge22" class="edge">
<title>termin&#45;input&#45;&gt;termin&#45;display</title>
<path fill="none" stroke="#666666" stroke-width="1.1" d="M585.61,-287.43C617.35,-274.77 661.91,-256.99 696.41,-243.22"/>
<polygon fill="#666666" stroke="#666666" stroke-width="1.1" points="697.58,-245.39 703.17,-240.52 695.76,-240.84 697.58,-245.39"/>
</g>
<!-- termin&#45;scene -->
<g id="node11" class="node">
<title>termin&#45;scene</title>
<path fill="#f7f7f7" stroke="#444444" d="M410,-389.44C410,-389.44 347,-389.44 347,-389.44 341,-389.44 335,-383.44 335,-377.44 335,-377.44 335,-365.44 335,-365.44 335,-359.44 341,-353.44 347,-353.44 347,-353.44 410,-353.44 410,-353.44 416,-353.44 422,-359.44 422,-365.44 422,-365.44 422,-377.44 422,-377.44 422,-383.44 416,-389.44 410,-389.44"/>
<text text-anchor="middle" x="378.5" y="-368.64" font-family="DejaVu Sans" font-size="11.00">termin&#45;scene</text>
</g>
<!-- termin&#45;inspect&#45;&gt;termin&#45;scene -->
<g id="edge23" class="edge">
<title>termin&#45;inspect&#45;&gt;termin&#45;scene</title>
<path fill="none" stroke="#666666" stroke-width="1.1" d="M259.62,-371.44C280.81,-371.44 305.99,-371.44 327.63,-371.44"/>
<polygon fill="#666666" stroke="#666666" stroke-width="1.1" points="327.82,-373.89 334.82,-371.44 327.82,-368.99 327.82,-373.89"/>
</g>
<!-- termin&#45;mesh&#45;&gt;termin&#45;components&#45;collision -->
<g id="edge24" class="edge">
<title>termin&#45;mesh&#45;&gt;termin&#45;components&#45;collision</title>
<path fill="none" stroke="#666666" stroke-width="1.1" d="M254.59,-445.66C340.24,-458.63 539.62,-488.81 657.2,-506.61"/>
<polygon fill="#666666" stroke="#666666" stroke-width="1.1" points="656.84,-509.04 664.13,-507.66 657.57,-504.19 656.84,-509.04"/>
</g>
<!-- termin&#45;components&#45;mesh -->
<g id="node16" class="node">
<title>termin&#45;components&#45;mesh</title>
<path fill="#f7f7f7" stroke="#444444" d="M815.5,-742.44C815.5,-742.44 683.5,-742.44 683.5,-742.44 677.5,-742.44 671.5,-736.44 671.5,-730.44 671.5,-730.44 671.5,-718.44 671.5,-718.44 671.5,-712.44 677.5,-706.44 683.5,-706.44 683.5,-706.44 815.5,-706.44 815.5,-706.44 821.5,-706.44 827.5,-712.44 827.5,-718.44 827.5,-718.44 827.5,-730.44 827.5,-730.44 827.5,-736.44 821.5,-742.44 815.5,-742.44"/>
<text text-anchor="middle" x="749.5" y="-721.64" font-family="DejaVu Sans" font-size="11.00">termin&#45;components&#45;mesh</text>
</g>
<!-- termin&#45;mesh&#45;&gt;termin&#45;components&#45;mesh -->
<g id="edge25" class="edge">
<title>termin&#45;mesh&#45;&gt;termin&#45;components&#45;mesh</title>
<path fill="none" stroke="#666666" stroke-width="1.1" d="M241.03,-457.56C308.79,-501.64 489.89,-616.23 652,-690.44 662.43,-695.21 673.74,-699.74 684.83,-703.85"/>
<polygon fill="#666666" stroke="#666666" stroke-width="1.1" points="684.27,-706.25 691.69,-706.35 685.95,-701.65 684.27,-706.25"/>
</g>
<!-- termin&#45;graphics -->
<g id="node21" class="node">
<title>termin&#45;graphics</title>
<path fill="#f7f7f7" stroke="#444444" d="M417,-240.44C417,-240.44 340,-240.44 340,-240.44 334,-240.44 328,-234.44 328,-228.44 328,-228.44 328,-216.44 328,-216.44 328,-210.44 334,-204.44 340,-204.44 340,-204.44 417,-204.44 417,-204.44 423,-204.44 429,-210.44 429,-216.44 429,-216.44 429,-228.44 429,-228.44 429,-234.44 423,-240.44 417,-240.44"/>
<text text-anchor="middle" x="378.5" y="-219.64" font-family="DejaVu Sans" font-size="11.00">termin&#45;graphics</text>
</g>
<!-- termin&#45;mesh&#45;&gt;termin&#45;graphics -->
<g id="edge26" class="edge">
<title>termin&#45;mesh&#45;&gt;termin&#45;graphics</title>
<path fill="none" stroke="#666666" stroke-width="1.1" d="M245.6,-421.39C251.94,-416.79 258.13,-411.42 263,-405.44 304.36,-354.6 280.8,-321.96 320,-269.44 326.64,-260.54 335.32,-252.31 343.92,-245.3"/>
<polygon fill="#666666" stroke="#666666" stroke-width="1.1" points="345.84,-246.91 349.83,-240.66 342.81,-243.06 345.84,-246.91"/>
</g>
<!-- termin&#45;modules&#45;&gt;termin -->
<g id="edge27" class="edge">
<title>termin&#45;modules&#45;&gt;termin</title>
<path fill="none" stroke="#666666" stroke-width="1.1" d="M222.99,-285.37C257.13,-223.13 380.34,-21.44 543.5,-21.44 543.5,-21.44 543.5,-21.44 750.5,-21.44 902.98,-21.44 975.08,43.45 1092,-54.44 1153.93,-106.29 1092.31,-165 1141,-229.44 1146.97,-237.34 1155.36,-243.82 1163.81,-248.92"/>
<polygon fill="#666666" stroke="#666666" stroke-width="1.1" points="1162.95,-251.24 1170.25,-252.55 1165.36,-246.98 1162.95,-251.24"/>
</g>
<!-- termin&#45;components&#45;physics -->
<g id="node17" class="node">
<title>termin&#45;components&#45;physics</title>
<path fill="#f7f7f7" stroke="#444444" d="M1065.5,-538.44C1065.5,-538.44 922.5,-538.44 922.5,-538.44 916.5,-538.44 910.5,-532.44 910.5,-526.44 910.5,-526.44 910.5,-514.44 910.5,-514.44 910.5,-508.44 916.5,-502.44 922.5,-502.44 922.5,-502.44 1065.5,-502.44 1065.5,-502.44 1071.5,-502.44 1077.5,-508.44 1077.5,-514.44 1077.5,-514.44 1077.5,-526.44 1077.5,-526.44 1077.5,-532.44 1071.5,-538.44 1065.5,-538.44"/>
<text text-anchor="middle" x="994" y="-517.64" font-family="DejaVu Sans" font-size="11.00">termin&#45;components&#45;physics</text>
</g>
<!-- termin&#45;physics&#45;&gt;termin&#45;components&#45;physics -->
<g id="edge29" class="edge">
<title>termin&#45;physics&#45;&gt;termin&#45;components&#45;physics</title>
<path fill="none" stroke="#666666" stroke-width="1.1" d="M797.51,-386.76C811.24,-391.96 826.03,-398.28 839,-405.44 887.21,-432.03 937.25,-472.12 966.73,-497.26"/>
<polygon fill="#666666" stroke="#666666" stroke-width="1.1" points="965.44,-499.38 972.35,-502.08 968.63,-495.66 965.44,-499.38"/>
</g>
<!-- termin&#45;scene&#45;&gt;termin&#45;collision -->
<g id="edge31" class="edge">
<title>termin&#45;scene&#45;&gt;termin&#45;collision</title>
<path fill="none" stroke="#666666" stroke-width="1.1" d="M422.16,-371.44C442.2,-371.44 466.34,-371.44 487.8,-371.44"/>
<polygon fill="#666666" stroke="#666666" stroke-width="1.1" points="487.97,-373.89 494.97,-371.44 487.97,-368.99 487.97,-373.89"/>
</g>
<!-- termin&#45;scene&#45;&gt;termin&#45;input -->
<g id="edge34" class="edge">
<title>termin&#45;scene&#45;&gt;termin&#45;input</title>
<path fill="none" stroke="#666666" stroke-width="1.1" d="M422.16,-353.75C445.06,-344.25 473.33,-332.53 496.82,-322.79"/>
<polygon fill="#666666" stroke="#666666" stroke-width="1.1" points="497.78,-325.05 503.31,-320.1 495.9,-320.52 497.78,-325.05"/>
</g>
<!-- termin&#45;skeleton -->
<g id="node12" class="node">
<title>termin&#45;skeleton</title>
<path fill="#f7f7f7" stroke="#444444" d="M583,-457.44C583,-457.44 506,-457.44 506,-457.44 500,-457.44 494,-451.44 494,-445.44 494,-445.44 494,-433.44 494,-433.44 494,-427.44 500,-421.44 506,-421.44 506,-421.44 583,-421.44 583,-421.44 589,-421.44 595,-427.44 595,-433.44 595,-433.44 595,-445.44 595,-445.44 595,-451.44 589,-457.44 583,-457.44"/>
<text text-anchor="middle" x="544.5" y="-436.64" font-family="DejaVu Sans" font-size="11.00">termin&#45;skeleton</text>
</g>
<!-- termin&#45;scene&#45;&gt;termin&#45;skeleton -->
<g id="edge36" class="edge">
<title>termin&#45;scene&#45;&gt;termin&#45;skeleton</title>
<path fill="none" stroke="#666666" stroke-width="1.1" d="M422.16,-389.13C443.93,-398.15 470.54,-409.19 493.29,-418.62"/>
<polygon fill="#666666" stroke="#666666" stroke-width="1.1" points="492.51,-420.95 499.91,-421.36 494.38,-416.42 492.51,-420.95"/>
</g>
<!-- termin&#45;components&#45;kinematic -->
<g id="node15" class="node">
<title>termin&#45;components&#45;kinematic</title>
<path fill="#f7f7f7" stroke="#444444" d="M827,-674.44C827,-674.44 672,-674.44 672,-674.44 666,-674.44 660,-668.44 660,-662.44 660,-662.44 660,-650.44 660,-650.44 660,-644.44 666,-638.44 672,-638.44 672,-638.44 827,-638.44 827,-638.44 833,-638.44 839,-644.44 839,-650.44 839,-650.44 839,-662.44 839,-662.44 839,-668.44 833,-674.44 827,-674.44"/>
<text text-anchor="middle" x="749.5" y="-653.64" font-family="DejaVu Sans" font-size="11.00">termin&#45;components&#45;kinematic</text>
</g>
<!-- termin&#45;scene&#45;&gt;termin&#45;components&#45;kinematic -->
<g id="edge32" class="edge">
<title>termin&#45;scene&#45;&gt;termin&#45;components&#45;kinematic</title>
<path fill="none" stroke="#666666" stroke-width="1.1" d="M398.86,-389.71C421.24,-410.59 459.43,-445.48 494,-473.44 537.27,-508.43 555.31,-508.43 595,-547.44 624.86,-576.78 618.17,-597.78 652,-622.44 658.84,-627.42 666.48,-631.73 674.38,-635.44"/>
<polygon fill="#666666" stroke="#666666" stroke-width="1.1" points="673.68,-637.81 681.07,-638.42 675.67,-633.33 673.68,-637.81"/>
</g>
<!-- termin&#45;scene&#45;&gt;termin&#45;components&#45;mesh -->
<g id="edge33" class="edge">
<title>termin&#45;scene&#45;&gt;termin&#45;components&#45;mesh</title>
<path fill="none" stroke="#666666" stroke-width="1.1" d="M389.49,-389.62C420.55,-444.38 521.26,-608.96 652,-690.44 660.07,-695.46 668.98,-699.88 678.03,-703.71"/>
<polygon fill="#666666" stroke="#666666" stroke-width="1.1" points="677.22,-706.03 684.63,-706.4 679.07,-701.49 677.22,-706.03"/>
</g>
<!-- termin&#45;render -->
<g id="node22" class="node">
<title>termin&#45;render</title>
<path fill="#f7f7f7" stroke="#444444" d="M577.5,-240.44C577.5,-240.44 511.5,-240.44 511.5,-240.44 505.5,-240.44 499.5,-234.44 499.5,-228.44 499.5,-228.44 499.5,-216.44 499.5,-216.44 499.5,-210.44 505.5,-204.44 511.5,-204.44 511.5,-204.44 577.5,-204.44 577.5,-204.44 583.5,-204.44 589.5,-210.44 589.5,-216.44 589.5,-216.44 589.5,-228.44 589.5,-228.44 589.5,-234.44 583.5,-240.44 577.5,-240.44"/>
<text text-anchor="middle" x="544.5" y="-219.64" font-family="DejaVu Sans" font-size="11.00">termin&#45;render</text>
</g>
<!-- termin&#45;scene&#45;&gt;termin&#45;render -->
<g id="edge35" class="edge">
<title>termin&#45;scene&#45;&gt;termin&#45;render</title>
<path fill="none" stroke="#666666" stroke-width="1.1" d="M399.61,-353.17C429.45,-326.06 485.41,-275.21 518.06,-245.55"/>
<polygon fill="#666666" stroke="#666666" stroke-width="1.1" points="519.95,-247.14 523.48,-240.62 516.65,-243.52 519.95,-247.14"/>
</g>
<!-- termin&#45;skeleton&#45;&gt;termin&#45;animation -->
<g id="edge37" class="edge">
<title>termin&#45;skeleton&#45;&gt;termin&#45;animation</title>
<path fill="none" stroke="#666666" stroke-width="1.1" d="M595.16,-439.44C622.97,-439.44 657.88,-439.44 687.36,-439.44"/>
<polygon fill="#666666" stroke="#666666" stroke-width="1.1" points="687.73,-441.89 694.73,-439.44 687.73,-436.99 687.73,-441.89"/>
</g>
<!-- termin&#45;components&#45;skeleton -->
<g id="node18" class="node">
<title>termin&#45;components&#45;skeleton</title>
<path fill="#f7f7f7" stroke="#444444" d="M823.5,-606.44C823.5,-606.44 675.5,-606.44 675.5,-606.44 669.5,-606.44 663.5,-600.44 663.5,-594.44 663.5,-594.44 663.5,-582.44 663.5,-582.44 663.5,-576.44 669.5,-570.44 675.5,-570.44 675.5,-570.44 823.5,-570.44 823.5,-570.44 829.5,-570.44 835.5,-576.44 835.5,-582.44 835.5,-582.44 835.5,-594.44 835.5,-594.44 835.5,-600.44 829.5,-606.44 823.5,-606.44"/>
<text text-anchor="middle" x="749.5" y="-585.64" font-family="DejaVu Sans" font-size="11.00">termin&#45;components&#45;skeleton</text>
</g>
<!-- termin&#45;skeleton&#45;&gt;termin&#45;components&#45;skeleton -->
<g id="edge38" class="edge">
<title>termin&#45;skeleton&#45;&gt;termin&#45;components&#45;skeleton</title>
<path fill="none" stroke="#666666" stroke-width="1.1" d="M568.79,-457.54C577.38,-464.63 586.96,-473.06 595,-481.44 623.51,-511.13 618.58,-530.41 652,-554.44 658.93,-559.42 666.66,-563.73 674.64,-567.44"/>
<polygon fill="#666666" stroke="#666666" stroke-width="1.1" points="674,-569.84 681.39,-570.42 675.98,-565.36 674,-569.84"/>
</g>
<!-- termin&#45;components&#45;animation&#45;&gt;termin -->
<g id="edge9" class="edge">
<title>termin&#45;components&#45;animation&#45;&gt;termin</title>
<path fill="none" stroke="#666666" stroke-width="1.1" d="M1069.56,-570.28C1077.8,-566.05 1085.54,-560.85 1092,-554.44 1168.03,-478.99 1189.02,-344.36 1194.59,-288.65"/>
<polygon fill="#666666" stroke="#666666" stroke-width="1.1" points="1197.03,-288.83 1195.25,-281.63 1192.15,-288.37 1197.03,-288.83"/>
</g>
<!-- termin&#45;components&#45;collision&#45;&gt;termin&#45;components&#45;physics -->
<g id="edge10" class="edge">
<title>termin&#45;components&#45;collision&#45;&gt;termin&#45;components&#45;physics</title>
<path fill="none" stroke="#666666" stroke-width="1.1" d="M834.63,-520.44C856.73,-520.44 880.64,-520.44 903.03,-520.44"/>
<polygon fill="#666666" stroke="#666666" stroke-width="1.1" points="903.24,-522.89 910.24,-520.44 903.24,-517.99 903.24,-522.89"/>
</g>
<!-- termin&#45;components&#45;kinematic&#45;&gt;termin -->
<g id="edge11" class="edge">
<title>termin&#45;components&#45;kinematic&#45;&gt;termin</title>
<path fill="none" stroke="#666666" stroke-width="1.1" d="M839.3,-672.82C915.02,-681.45 1022.35,-680.32 1092,-622.44 1144.61,-578.72 1181.42,-363.65 1192.79,-289.01"/>
<polygon fill="#666666" stroke="#666666" stroke-width="1.1" points="1195.25,-289.12 1193.87,-281.83 1190.41,-288.39 1195.25,-289.12"/>
</g>
<!-- termin&#45;components&#45;physics&#45;&gt;termin -->
<g id="edge12" class="edge">
<title>termin&#45;components&#45;physics&#45;&gt;termin</title>
<path fill="none" stroke="#666666" stroke-width="1.1" d="M1009.17,-502.37C1044.79,-456.93 1138.09,-337.94 1177.98,-287.06"/>
<polygon fill="#666666" stroke="#666666" stroke-width="1.1" points="1179.96,-288.51 1182.35,-281.49 1176.1,-285.49 1179.96,-288.51"/>
</g>
<!-- termin&#45;components&#45;skeleton&#45;&gt;termin&#45;components&#45;animation -->
<g id="edge14" class="edge">
<title>termin&#45;components&#45;skeleton&#45;&gt;termin&#45;components&#45;animation</title>
<path fill="none" stroke="#666666" stroke-width="1.1" d="M835.66,-588.44C855.43,-588.44 876.62,-588.44 896.83,-588.44"/>
<polygon fill="#666666" stroke="#666666" stroke-width="1.1" points="896.94,-590.89 903.94,-588.44 896.94,-585.99 896.94,-590.89"/>
</g>
<!-- termin&#45;components&#45;render -->
<g id="node19" class="node">
<title>termin&#45;components&#45;render</title>
<path fill="#f7f7f7" stroke="#444444" d="M1063,-240.44C1063,-240.44 925,-240.44 925,-240.44 919,-240.44 913,-234.44 913,-228.44 913,-228.44 913,-216.44 913,-216.44 913,-210.44 919,-204.44 925,-204.44 925,-204.44 1063,-204.44 1063,-204.44 1069,-204.44 1075,-210.44 1075,-216.44 1075,-216.44 1075,-228.44 1075,-228.44 1075,-234.44 1069,-240.44 1063,-240.44"/>
<text text-anchor="middle" x="994" y="-219.64" font-family="DejaVu Sans" font-size="11.00">termin&#45;components&#45;render</text>
</g>
<!-- termin&#45;components&#45;render&#45;&gt;termin -->
<g id="edge13" class="edge">
<title>termin&#45;components&#45;render&#45;&gt;termin</title>
<path fill="none" stroke="#666666" stroke-width="1.1" d="M1075.22,-238.76C1105.85,-244.99 1139.13,-251.76 1163.07,-256.63"/>
<polygon fill="#666666" stroke="#666666" stroke-width="1.1" points="1162.83,-259.09 1170.18,-258.08 1163.81,-254.29 1162.83,-259.09"/>
</g>
<!-- termin&#45;display&#45;&gt;termin&#45;components&#45;render -->
<g id="edge15" class="edge">
<title>termin&#45;display&#45;&gt;termin&#45;components&#45;render</title>
<path fill="none" stroke="#666666" stroke-width="1.1" d="M796.11,-222.44C826.85,-222.44 868.4,-222.44 905.4,-222.44"/>
<polygon fill="#666666" stroke="#666666" stroke-width="1.1" points="905.73,-224.89 912.73,-222.44 905.73,-219.99 905.73,-224.89"/>
</g>
<!-- termin&#45;display&#45;&gt;termin&#45;engine -->
<g id="edge16" class="edge">
<title>termin&#45;display&#45;&gt;termin&#45;engine</title>
<path fill="none" stroke="#666666" stroke-width="1.1" d="M796.26,-239.64C826.65,-250.87 867.52,-265.58 904,-277.44 916.14,-281.38 929.3,-285.38 941.69,-289.02"/>
<polygon fill="#666666" stroke="#666666" stroke-width="1.1" points="941.07,-291.39 948.48,-291 942.44,-286.68 941.07,-291.39"/>
</g>
<!-- termin&#45;graphics&#45;&gt;termin&#45;render -->
<g id="edge19" class="edge">
<title>termin&#45;graphics&#45;&gt;termin&#45;render</title>
<path fill="none" stroke="#666666" stroke-width="1.1" d="M429.15,-222.44C449.05,-222.44 471.98,-222.44 492.05,-222.44"/>
<polygon fill="#666666" stroke="#666666" stroke-width="1.1" points="492.31,-224.89 499.31,-222.44 492.31,-219.99 492.31,-224.89"/>
</g>
<!-- termin&#45;gui -->
<g id="node24" class="node">
<title>termin&#45;gui</title>
<path fill="#f7f7f7" stroke="#444444" d="M773,-106.44C773,-106.44 726,-106.44 726,-106.44 720,-106.44 714,-100.44 714,-94.44 714,-94.44 714,-82.44 714,-82.44 714,-76.44 720,-70.44 726,-70.44 726,-70.44 773,-70.44 773,-70.44 779,-70.44 785,-76.44 785,-82.44 785,-82.44 785,-94.44 785,-94.44 785,-100.44 779,-106.44 773,-106.44"/>
<text text-anchor="middle" x="749.5" y="-85.64" font-family="DejaVu Sans" font-size="11.00">termin&#45;gui</text>
</g>
<!-- termin&#45;graphics&#45;&gt;termin&#45;gui -->
<g id="edge18" class="edge">
<title>termin&#45;graphics&#45;&gt;termin&#45;gui</title>
<path fill="none" stroke="#666666" stroke-width="1.1" d="M429.26,-204.37C502.68,-177.71 638.67,-128.32 707.01,-103.5"/>
<polygon fill="#666666" stroke="#666666" stroke-width="1.1" points="708.07,-105.73 713.81,-101.03 706.4,-101.12 708.07,-105.73"/>
</g>
<!-- termin&#45;render&#45;&gt;termin&#45;display -->
<g id="edge30" class="edge">
<title>termin&#45;render&#45;&gt;termin&#45;display</title>
<path fill="none" stroke="#666666" stroke-width="1.1" d="M589.55,-222.44C620.66,-222.44 662.51,-222.44 695.46,-222.44"/>
<polygon fill="#666666" stroke="#666666" stroke-width="1.1" points="695.78,-224.89 702.78,-222.44 695.78,-219.99 695.78,-224.89"/>
</g>
<!-- termin&#45;engine&#45;&gt;termin -->
<g id="edge17" class="edge">
<title>termin&#45;engine&#45;&gt;termin</title>
<path fill="none" stroke="#666666" stroke-width="1.1" d="M1039.72,-294.56C1077.17,-287.13 1129.77,-276.68 1163.5,-269.99"/>
<polygon fill="#666666" stroke="#666666" stroke-width="1.1" points="1164.01,-272.39 1170.4,-268.62 1163.05,-267.58 1164.01,-272.39"/>
</g>
<!-- termin&#45;gui&#45;&gt;diffusion&#45;editor -->
<g id="edge20" class="edge">
<title>termin&#45;gui&#45;&gt;diffusion&#45;editor</title>
<path fill="none" stroke="#666666" stroke-width="1.1" d="M785.13,-96.74C862.22,-115.24 1048.54,-159.94 1141.64,-182.28"/>
<polygon fill="#666666" stroke="#666666" stroke-width="1.1" points="1141.35,-184.72 1148.73,-183.98 1142.49,-179.96 1141.35,-184.72"/>
</g>
<!-- termin&#45;nodegraph -->
<g id="node25" class="node">
<title>termin&#45;nodegraph</title>
<path fill="#f7f7f7" stroke="#444444" d="M1038.5,-106.44C1038.5,-106.44 949.5,-106.44 949.5,-106.44 943.5,-106.44 937.5,-100.44 937.5,-94.44 937.5,-94.44 937.5,-82.44 937.5,-82.44 937.5,-76.44 943.5,-70.44 949.5,-70.44 949.5,-70.44 1038.5,-70.44 1038.5,-70.44 1044.5,-70.44 1050.5,-76.44 1050.5,-82.44 1050.5,-82.44 1050.5,-94.44 1050.5,-94.44 1050.5,-100.44 1044.5,-106.44 1038.5,-106.44"/>
<text text-anchor="middle" x="994" y="-85.64" font-family="DejaVu Sans" font-size="11.00">termin&#45;nodegraph</text>
</g>
<!-- termin&#45;gui&#45;&gt;termin&#45;nodegraph -->
<g id="edge21" class="edge">
<title>termin&#45;gui&#45;&gt;termin&#45;nodegraph</title>
<path fill="none" stroke="#666666" stroke-width="1.1" d="M785.24,-88.44C822.91,-88.44 883.82,-88.44 929.97,-88.44"/>
<polygon fill="#666666" stroke="#666666" stroke-width="1.1" points="930.24,-90.89 937.24,-88.44 930.24,-85.99 930.24,-90.89"/>
</g>
<!-- termin&#45;nodegraph&#45;&gt;termin -->
<g id="edge28" class="edge">
<title>termin&#45;nodegraph&#45;&gt;termin</title>
<path fill="none" stroke="#666666" stroke-width="1.1" d="M1011.41,-106.66C1037.31,-134.87 1090.01,-189.96 1141,-229.44 1148.12,-234.95 1156.19,-240.32 1163.92,-245.11"/>
<polygon fill="#666666" stroke="#666666" stroke-width="1.1" points="1163.05,-247.45 1170.31,-248.99 1165.59,-243.26 1163.05,-247.45"/>
</g>
</g>
</svg>
