<?xml version="1.0" encoding="UTF-8" standalone="no"?>
<!DOCTYPE svg PUBLIC "-//W3C//DTD SVG 1.1//EN"
 "http://www.w3.org/Graphics/SVG/1.1/DTD/svg11.dtd">
<!-- Generated by graphviz version 2.42.4 (0)
 -->
<!-- Title: termin_dependencies Pages: 1 -->
<svg width="1732pt" height="1819pt"
 viewBox="0.00 0.00 1731.80 1819.37" xmlns="http://www.w3.org/2000/svg" xmlns:xlink="http://www.w3.org/1999/xlink">
<g id="graph0" class="graph" transform="scale(1 1) rotate(0) translate(14.4 1804.97)">
<title>termin_dependencies</title>
<polygon fill="white" stroke="transparent" points="-14.4,14.4 -14.4,-1804.97 1717.4,-1804.97 1717.4,14.4 -14.4,14.4"/>
<g id="clust1" class="cluster">
<title>cluster_application</title>
<polygon fill="white" stroke="#999999" stroke-dasharray="5,2" points="1419.5,-304.68 1419.5,-377.68 1510.5,-377.68 1510.5,-304.68 1419.5,-304.68"/>
<text text-anchor="middle" x="1465" y="-364.08" font-family="DejaVu Sans" font-size="12.00">Application</text>
</g>
<g id="clust2" class="cluster">
<title>cluster_foundation</title>
<polygon fill="white" stroke="#999999" stroke-dasharray="5,2" points="137,-976.68 137,-1321.68 1074.5,-1321.68 1074.5,-976.68 137,-976.68"/>
<text text-anchor="middle" x="605.75" y="-1308.08" font-family="DejaVu Sans" font-size="12.00">Foundation</text>
</g>
<g id="clust3" class="cluster">
<title>cluster_namespace</title>
<polygon fill="white" stroke="#999999" stroke-dasharray="5,2" points="0,-1044.68 0,-1117.68 88,-1117.68 88,-1044.68 0,-1044.68"/>
<text text-anchor="middle" x="44" y="-1104.08" font-family="DejaVu Sans" font-size="12.00">Namespace</text>
</g>
<g id="clust4" class="cluster">
<title>cluster_native_interop</title>
<polygon fill="white" stroke="#999999" stroke-dasharray="5,2" points="1588,-172.68 1588,-245.68 1695,-245.68 1695,-172.68 1588,-172.68"/>
<text text-anchor="middle" x="1641.5" y="-232.08" font-family="DejaVu Sans" font-size="12.00">Native Interop</text>
</g>
<g id="clust5" class="cluster">
<title>cluster_other_components</title>
<polygon fill="white" stroke="#999999" stroke-dasharray="5,2" points="670,-487.68 670,-968.68 1342,-968.68 1342,-487.68 670,-487.68"/>
<text text-anchor="middle" x="1006" y="-955.08" font-family="DejaVu Sans" font-size="12.00">Other Components</text>
</g>
<g id="clust6" class="cluster">
<title>cluster_python_support</title>
<polygon fill="white" stroke="#999999" stroke-dasharray="5,2" points="307,-1329.68 307,-1470.68 450,-1470.68 450,-1329.68 307,-1329.68"/>
<text text-anchor="middle" x="378.5" y="-1457.08" font-family="DejaVu Sans" font-size="12.00">Python Support</text>
</g>
<g id="clust7" class="cluster">
<title>cluster_render_stack</title>
<polygon fill="white" stroke="#999999" stroke-dasharray="5,2" points="320,-1637.68 320,-1778.68 1101,-1778.68 1101,-1637.68 320,-1637.68"/>
<text text-anchor="middle" x="710.5" y="-1765.08" font-family="DejaVu Sans" font-size="12.00">Render Stack</text>
</g>
<g id="clust8" class="cluster">
<title>cluster_runtime</title>
<polygon fill="white" stroke="#999999" stroke-dasharray="5,2" points="958.5,-1329.68 958.5,-1402.68 1065.5,-1402.68 1065.5,-1329.68 958.5,-1329.68"/>
<text text-anchor="middle" x="1012" y="-1389.08" font-family="DejaVu Sans" font-size="12.00">Runtime</text>
</g>
<g id="clust10" class="cluster">
<title>cluster_ui</title>
<polygon fill="white" stroke="#999999" stroke-dasharray="5,2" points="516.5,-338.68 516.5,-479.68 832,-479.68 832,-338.68 516.5,-338.68"/>
<text text-anchor="middle" x="674.25" y="-466.08" font-family="DejaVu Sans" font-size="12.00">UI</text>
</g>
<!-- termin&#45;app -->
<g id="node1" class="node">
<title>termin&#45;app</title>
<path fill="#f7f7f7" stroke="#444444" d="M1490.5,-348.68C1490.5,-348.68 1439.5,-348.68 1439.5,-348.68 1433.5,-348.68 1427.5,-342.68 1427.5,-336.68 1427.5,-336.68 1427.5,-324.68 1427.5,-324.68 1427.5,-318.68 1433.5,-312.68 1439.5,-312.68 1439.5,-312.68 1490.5,-312.68 1490.5,-312.68 1496.5,-312.68 1502.5,-318.68 1502.5,-324.68 1502.5,-324.68 1502.5,-336.68 1502.5,-336.68 1502.5,-342.68 1496.5,-348.68 1490.5,-348.68"/>
<text text-anchor="middle" x="1465" y="-327.88" font-family="DejaVu Sans" font-size="11.00">termin&#45;app</text>
</g>
<!-- termin&#45;csharp -->
<g id="node18" class="node">
<title>termin&#45;csharp</title>
<path fill="#f7f7f7" stroke="#444444" d="M1675,-216.68C1675,-216.68 1608,-216.68 1608,-216.68 1602,-216.68 1596,-210.68 1596,-204.68 1596,-204.68 1596,-192.68 1596,-192.68 1596,-186.68 1602,-180.68 1608,-180.68 1608,-180.68 1675,-180.68 1675,-180.68 1681,-180.68 1687,-186.68 1687,-192.68 1687,-192.68 1687,-204.68 1687,-204.68 1687,-210.68 1681,-216.68 1675,-216.68"/>
<text text-anchor="middle" x="1641.5" y="-195.88" font-family="DejaVu Sans" font-size="11.00">termin&#45;csharp</text>
</g>
<!-- termin&#45;app&#45;&gt;termin&#45;csharp -->
<g id="edge8" class="edge">
<title>termin&#45;app&#45;&gt;termin&#45;csharp</title>
<path fill="none" stroke="#666666" stroke-width="1.1" d="M1489.9,-312.6C1521.4,-288.78 1576.8,-246.87 1610.91,-221.06"/>
<polygon fill="#666666" stroke="#666666" stroke-width="1.1" points="1612.51,-222.93 1616.61,-216.75 1609.55,-219.02 1612.51,-222.93"/>
</g>
<!-- termin&#45;animation -->
<g id="node2" class="node">
<title>termin&#45;animation</title>
<path fill="#f7f7f7" stroke="#444444" d="M1054.5,-1104.68C1054.5,-1104.68 969.5,-1104.68 969.5,-1104.68 963.5,-1104.68 957.5,-1098.68 957.5,-1092.68 957.5,-1092.68 957.5,-1080.68 957.5,-1080.68 957.5,-1074.68 963.5,-1068.68 969.5,-1068.68 969.5,-1068.68 1054.5,-1068.68 1054.5,-1068.68 1060.5,-1068.68 1066.5,-1074.68 1066.5,-1080.68 1066.5,-1080.68 1066.5,-1092.68 1066.5,-1092.68 1066.5,-1098.68 1060.5,-1104.68 1054.5,-1104.68"/>
<text text-anchor="middle" x="1012" y="-1083.88" font-family="DejaVu Sans" font-size="11.00">termin&#45;animation</text>
</g>
<!-- termin&#45;animation&#45;&gt;termin&#45;app -->
<g id="edge6" class="edge">
<title>termin&#45;animation&#45;&gt;termin&#45;app</title>
<path fill="none" stroke="#666666" stroke-width="1.1" d="M1066.13,-1068.65C1158.61,-1037.2 1339.65,-975.41 1342,-972.68 1362.84,-948.56 1441.16,-471.69 1459.94,-355.87"/>
<polygon fill="#666666" stroke="#666666" stroke-width="1.1" points="1462.39,-356.07 1461.09,-348.77 1457.55,-355.29 1462.39,-356.07"/>
</g>
<!-- termin&#45;components&#45;animation -->
<g id="node19" class="node">
<title>termin&#45;components&#45;animation</title>
<path fill="#f7f7f7" stroke="#444444" d="M1090,-834.68C1090,-834.68 934,-834.68 934,-834.68 928,-834.68 922,-828.68 922,-822.68 922,-822.68 922,-810.68 922,-810.68 922,-804.68 928,-798.68 934,-798.68 934,-798.68 1090,-798.68 1090,-798.68 1096,-798.68 1102,-804.68 1102,-810.68 1102,-810.68 1102,-822.68 1102,-822.68 1102,-828.68 1096,-834.68 1090,-834.68"/>
<text text-anchor="middle" x="1012" y="-813.88" font-family="DejaVu Sans" font-size="11.00">termin&#45;components&#45;animation</text>
</g>
<!-- termin&#45;animation&#45;&gt;termin&#45;components&#45;animation -->
<g id="edge7" class="edge">
<title>termin&#45;animation&#45;&gt;termin&#45;components&#45;animation</title>
<path fill="none" stroke="#666666" stroke-width="1.1" d="M957.35,-1079.16C931.89,-1072.53 904.06,-1060.09 889.5,-1036.68 849.58,-972.53 849.58,-930.83 889.5,-866.68 897.17,-854.36 908.51,-845.08 921.24,-838.08"/>
<polygon fill="#666666" stroke="#666666" stroke-width="1.1" points="922.48,-840.2 927.6,-834.83 920.25,-835.84 922.48,-840.2"/>
</g>
<!-- termin&#45;base -->
<g id="node3" class="node">
<title>termin&#45;base</title>
<path fill="#f7f7f7" stroke="#444444" d="M226,-1292.68C226,-1292.68 169,-1292.68 169,-1292.68 163,-1292.68 157,-1286.68 157,-1280.68 157,-1280.68 157,-1268.68 157,-1268.68 157,-1262.68 163,-1256.68 169,-1256.68 169,-1256.68 226,-1256.68 226,-1256.68 232,-1256.68 238,-1262.68 238,-1268.68 238,-1268.68 238,-1280.68 238,-1280.68 238,-1286.68 232,-1292.68 226,-1292.68"/>
<text text-anchor="middle" x="197.5" y="-1271.88" font-family="DejaVu Sans" font-size="11.00">termin&#45;base</text>
</g>
<!-- termin&#45;inspect -->
<g id="node7" class="node">
<title>termin&#45;inspect</title>
<path fill="#f7f7f7" stroke="#444444" d="M413.5,-1224.68C413.5,-1224.68 343.5,-1224.68 343.5,-1224.68 337.5,-1224.68 331.5,-1218.68 331.5,-1212.68 331.5,-1212.68 331.5,-1200.68 331.5,-1200.68 331.5,-1194.68 337.5,-1188.68 343.5,-1188.68 343.5,-1188.68 413.5,-1188.68 413.5,-1188.68 419.5,-1188.68 425.5,-1194.68 425.5,-1200.68 425.5,-1200.68 425.5,-1212.68 425.5,-1212.68 425.5,-1218.68 419.5,-1224.68 413.5,-1224.68"/>
<text text-anchor="middle" x="378.5" y="-1203.88" font-family="DejaVu Sans" font-size="11.00">termin&#45;inspect</text>
</g>
<!-- termin&#45;base&#45;&gt;termin&#45;inspect -->
<g id="edge16" class="edge">
<title>termin&#45;base&#45;&gt;termin&#45;inspect</title>
<path fill="none" stroke="#666666" stroke-width="1.1" d="M238.23,-1259.59C263.58,-1249.96 296.74,-1237.36 324.35,-1226.87"/>
<polygon fill="#666666" stroke="#666666" stroke-width="1.1" points="325.57,-1229.03 331.24,-1224.26 323.83,-1224.45 325.57,-1229.03"/>
</g>
<!-- termin&#45;mesh -->
<g id="node8" class="node">
<title>termin&#45;mesh</title>
<path fill="#f7f7f7" stroke="#444444" d="M408.5,-1156.68C408.5,-1156.68 348.5,-1156.68 348.5,-1156.68 342.5,-1156.68 336.5,-1150.68 336.5,-1144.68 336.5,-1144.68 336.5,-1132.68 336.5,-1132.68 336.5,-1126.68 342.5,-1120.68 348.5,-1120.68 348.5,-1120.68 408.5,-1120.68 408.5,-1120.68 414.5,-1120.68 420.5,-1126.68 420.5,-1132.68 420.5,-1132.68 420.5,-1144.68 420.5,-1144.68 420.5,-1150.68 414.5,-1156.68 408.5,-1156.68"/>
<text text-anchor="middle" x="378.5" y="-1135.88" font-family="DejaVu Sans" font-size="11.00">termin&#45;mesh</text>
</g>
<!-- termin&#45;base&#45;&gt;termin&#45;mesh -->
<g id="edge18" class="edge">
<title>termin&#45;base&#45;&gt;termin&#45;mesh</title>
<path fill="none" stroke="#666666" stroke-width="1.1" d="M228.99,-1256.66C236.18,-1251.85 243.6,-1246.39 250,-1240.68 279.43,-1214.43 275.88,-1196.9 307,-1172.68 313.87,-1167.34 321.72,-1162.54 329.62,-1158.34"/>
<polygon fill="#666666" stroke="#666666" stroke-width="1.1" points="331.13,-1160.33 336.25,-1154.97 328.9,-1155.96 331.13,-1160.33"/>
</g>
<!-- termin&#45;modules -->
<g id="node9" class="node">
<title>termin&#45;modules</title>
<path fill="#f7f7f7" stroke="#444444" d="M417,-1292.68C417,-1292.68 340,-1292.68 340,-1292.68 334,-1292.68 328,-1286.68 328,-1280.68 328,-1280.68 328,-1268.68 328,-1268.68 328,-1262.68 334,-1256.68 340,-1256.68 340,-1256.68 417,-1256.68 417,-1256.68 423,-1256.68 429,-1262.68 429,-1268.68 429,-1268.68 429,-1280.68 429,-1280.68 429,-1286.68 423,-1292.68 417,-1292.68"/>
<text text-anchor="middle" x="378.5" y="-1271.88" font-family="DejaVu Sans" font-size="11.00">termin&#45;modules</text>
</g>
<!-- termin&#45;base&#45;&gt;termin&#45;modules -->
<g id="edge19" class="edge">
<title>termin&#45;base&#45;&gt;termin&#45;modules</title>
<path fill="none" stroke="#666666" stroke-width="1.1" d="M238.23,-1274.68C262.52,-1274.68 294,-1274.68 320.88,-1274.68"/>
<polygon fill="#666666" stroke="#666666" stroke-width="1.1" points="320.97,-1277.13 327.97,-1274.68 320.97,-1272.23 320.97,-1277.13"/>
</g>
<!-- termin&#45;qopt -->
<g id="node12" class="node">
<title>termin&#45;qopt</title>
<path fill="#f7f7f7" stroke="#444444" d="M406,-1062.68C406,-1062.68 351,-1062.68 351,-1062.68 345,-1062.68 339,-1056.68 339,-1050.68 339,-1050.68 339,-1038.68 339,-1038.68 339,-1032.68 345,-1026.68 351,-1026.68 351,-1026.68 406,-1026.68 406,-1026.68 412,-1026.68 418,-1032.68 418,-1038.68 418,-1038.68 418,-1050.68 418,-1050.68 418,-1056.68 412,-1062.68 406,-1062.68"/>
<text text-anchor="middle" x="378.5" y="-1041.88" font-family="DejaVu Sans" font-size="11.00">termin&#45;qopt</text>
</g>
<!-- termin&#45;base&#45;&gt;termin&#45;qopt -->
<g id="edge21" class="edge">
<title>termin&#45;base&#45;&gt;termin&#45;qopt</title>
<path fill="none" stroke="#666666" stroke-width="1.1" d="M232.17,-1256.63C238.68,-1252.06 245.01,-1246.7 250,-1240.68 291.82,-1190.22 268.32,-1157.59 307,-1104.68 317.36,-1090.51 331.72,-1077.5 344.78,-1067.25"/>
<polygon fill="#666666" stroke="#666666" stroke-width="1.1" points="346.6,-1068.94 350.67,-1062.74 343.62,-1065.05 346.6,-1068.94"/>
</g>
<!-- termin&#45;assets -->
<g id="node29" class="node">
<title>termin&#45;assets</title>
<path fill="#f7f7f7" stroke="#444444" d="M411.5,-1441.68C411.5,-1441.68 345.5,-1441.68 345.5,-1441.68 339.5,-1441.68 333.5,-1435.68 333.5,-1429.68 333.5,-1429.68 333.5,-1417.68 333.5,-1417.68 333.5,-1411.68 339.5,-1405.68 345.5,-1405.68 345.5,-1405.68 411.5,-1405.68 411.5,-1405.68 417.5,-1405.68 423.5,-1411.68 423.5,-1417.68 423.5,-1417.68 423.5,-1429.68 423.5,-1429.68 423.5,-1435.68 417.5,-1441.68 411.5,-1441.68"/>
<text text-anchor="middle" x="378.5" y="-1420.88" font-family="DejaVu Sans" font-size="11.00">termin&#45;assets</text>
</g>
<!-- termin&#45;base&#45;&gt;termin&#45;assets -->
<g id="edge14" class="edge">
<title>termin&#45;base&#45;&gt;termin&#45;assets</title>
<path fill="none" stroke="#666666" stroke-width="1.1" d="M212.24,-1292.99C231.35,-1317.49 268.02,-1361.15 307,-1389.68 313.21,-1394.23 320.13,-1398.43 327.13,-1402.21"/>
<polygon fill="#666666" stroke="#666666" stroke-width="1.1" points="326.23,-1404.51 333.57,-1405.57 328.49,-1400.16 326.23,-1404.51"/>
</g>
<!-- termin&#45;lighting -->
<g id="node34" class="node">
<title>termin&#45;lighting</title>
<path fill="#f7f7f7" stroke="#444444" d="M414,-1749.68C414,-1749.68 343,-1749.68 343,-1749.68 337,-1749.68 331,-1743.68 331,-1737.68 331,-1737.68 331,-1725.68 331,-1725.68 331,-1719.68 337,-1713.68 343,-1713.68 343,-1713.68 414,-1713.68 414,-1713.68 420,-1713.68 426,-1719.68 426,-1725.68 426,-1725.68 426,-1737.68 426,-1737.68 426,-1743.68 420,-1749.68 414,-1749.68"/>
<text text-anchor="middle" x="378.5" y="-1728.88" font-family="DejaVu Sans" font-size="11.00">termin&#45;lighting</text>
</g>
<!-- termin&#45;base&#45;&gt;termin&#45;lighting -->
<g id="edge17" class="edge">
<title>termin&#45;base&#45;&gt;termin&#45;lighting</title>
<path fill="none" stroke="#666666" stroke-width="1.1" d="M198.02,-1292.72C197.3,-1355.96 202.99,-1570.7 307,-1697.68 311.88,-1703.64 318.05,-1708.62 324.7,-1712.78"/>
<polygon fill="#666666" stroke="#666666" stroke-width="1.1" points="323.64,-1714.99 330.93,-1716.36 326.08,-1710.74 323.64,-1714.99"/>
</g>
<!-- termin&#45;audio -->
<g id="node41" class="node">
<title>termin&#45;audio</title>
<path fill="#f7f7f7" stroke="#444444" d="M408.5,-968.68C408.5,-968.68 348.5,-968.68 348.5,-968.68 342.5,-968.68 336.5,-962.68 336.5,-956.68 336.5,-956.68 336.5,-944.68 336.5,-944.68 336.5,-938.68 342.5,-932.68 348.5,-932.68 348.5,-932.68 408.5,-932.68 408.5,-932.68 414.5,-932.68 420.5,-938.68 420.5,-944.68 420.5,-944.68 420.5,-956.68 420.5,-956.68 420.5,-962.68 414.5,-968.68 408.5,-968.68"/>
<text text-anchor="middle" x="378.5" y="-947.88" font-family="DejaVu Sans" font-size="11.00">termin&#45;audio</text>
</g>
<!-- termin&#45;base&#45;&gt;termin&#45;audio -->
<g id="edge15" class="edge">
<title>termin&#45;base&#45;&gt;termin&#45;audio</title>
<path fill="none" stroke="#666666" stroke-width="1.1" d="M234.13,-1256.54C240.17,-1252.08 245.84,-1246.79 250,-1240.68 318.6,-1140.07 224.98,-1062.7 307,-972.68 313.06,-966.03 321.11,-961.37 329.59,-958.11"/>
<polygon fill="#666666" stroke="#666666" stroke-width="1.1" points="330.61,-960.35 336.45,-955.79 329.03,-955.71 330.61,-960.35"/>
</g>
<!-- termin&#45;pga -->
<g id="node47" class="node">
<title>termin&#45;pga</title>
<path fill="#f7f7f7" stroke="#444444" d="M404,-900.68C404,-900.68 353,-900.68 353,-900.68 347,-900.68 341,-894.68 341,-888.68 341,-888.68 341,-876.68 341,-876.68 341,-870.68 347,-864.68 353,-864.68 353,-864.68 404,-864.68 404,-864.68 410,-864.68 416,-870.68 416,-876.68 416,-876.68 416,-888.68 416,-888.68 416,-894.68 410,-900.68 404,-900.68"/>
<text text-anchor="middle" x="378.5" y="-879.88" font-family="DejaVu Sans" font-size="11.00">termin&#45;pga</text>
</g>
<!-- termin&#45;base&#45;&gt;termin&#45;pga -->
<g id="edge20" class="edge">
<title>termin&#45;base&#45;&gt;termin&#45;pga</title>
<path fill="none" stroke="#666666" stroke-width="1.1" d="M234.3,-1256.65C240.33,-1252.18 245.94,-1246.86 250,-1240.68 330.21,-1118.44 218.77,-1033.27 307,-916.68 313.93,-907.53 323.96,-900.71 334.29,-895.69"/>
<polygon fill="#666666" stroke="#666666" stroke-width="1.1" points="335.36,-897.9 340.74,-892.79 333.35,-893.43 335.36,-897.9"/>
</g>
<!-- termin&#45;collision -->
<g id="node4" class="node">
<title>termin&#45;collision</title>
<path fill="#f7f7f7" stroke="#444444" d="M805,-1088.68C805,-1088.68 730,-1088.68 730,-1088.68 724,-1088.68 718,-1082.68 718,-1076.68 718,-1076.68 718,-1064.68 718,-1064.68 718,-1058.68 724,-1052.68 730,-1052.68 730,-1052.68 805,-1052.68 805,-1052.68 811,-1052.68 817,-1058.68 817,-1064.68 817,-1064.68 817,-1076.68 817,-1076.68 817,-1082.68 811,-1088.68 805,-1088.68"/>
<text text-anchor="middle" x="767.5" y="-1067.88" font-family="DejaVu Sans" font-size="11.00">termin&#45;collision</text>
</g>
<!-- termin&#45;physics -->
<g id="node11" class="node">
<title>termin&#45;physics</title>
<path fill="#f7f7f7" stroke="#444444" d="M1048,-1036.68C1048,-1036.68 976,-1036.68 976,-1036.68 970,-1036.68 964,-1030.68 964,-1024.68 964,-1024.68 964,-1012.68 964,-1012.68 964,-1006.68 970,-1000.68 976,-1000.68 976,-1000.68 1048,-1000.68 1048,-1000.68 1054,-1000.68 1060,-1006.68 1060,-1012.68 1060,-1012.68 1060,-1024.68 1060,-1024.68 1060,-1030.68 1054,-1036.68 1048,-1036.68"/>
<text text-anchor="middle" x="1012" y="-1015.88" font-family="DejaVu Sans" font-size="11.00">termin&#45;physics</text>
</g>
<!-- termin&#45;collision&#45;&gt;termin&#45;physics -->
<g id="edge24" class="edge">
<title>termin&#45;collision&#45;&gt;termin&#45;physics</title>
<path fill="none" stroke="#666666" stroke-width="1.1" d="M817.28,-1060.22C857.68,-1051.56 915.04,-1039.26 956.85,-1030.29"/>
<polygon fill="#666666" stroke="#666666" stroke-width="1.1" points="957.61,-1032.64 963.95,-1028.77 956.59,-1027.84 957.61,-1032.64"/>
</g>
<!-- termin&#45;components&#45;collision -->
<g id="node20" class="node">
<title>termin&#45;components&#45;collision</title>
<path fill="#f7f7f7" stroke="#444444" d="M1085,-902.68C1085,-902.68 939,-902.68 939,-902.68 933,-902.68 927,-896.68 927,-890.68 927,-890.68 927,-878.68 927,-878.68 927,-872.68 933,-866.68 939,-866.68 939,-866.68 1085,-866.68 1085,-866.68 1091,-866.68 1097,-872.68 1097,-878.68 1097,-878.68 1097,-890.68 1097,-890.68 1097,-896.68 1091,-902.68 1085,-902.68"/>
<text text-anchor="middle" x="1012" y="-881.88" font-family="DejaVu Sans" font-size="11.00">termin&#45;components&#45;collision</text>
</g>
<!-- termin&#45;collision&#45;&gt;termin&#45;components&#45;collision -->
<g id="edge22" class="edge">
<title>termin&#45;collision&#45;&gt;termin&#45;components&#45;collision</title>
<path fill="none" stroke="#666666" stroke-width="1.1" d="M817.24,-1056.34C830.72,-1051.24 844.94,-1044.71 857,-1036.68 891.8,-1013.51 892.34,-998.15 922,-968.68 943.17,-947.65 967.9,-924.4 985.92,-907.71"/>
<polygon fill="#666666" stroke="#666666" stroke-width="1.1" points="987.8,-909.3 991.28,-902.75 984.48,-905.71 987.8,-909.3"/>
</g>
<!-- termin&#45;engine -->
<g id="node36" class="node">
<title>termin&#45;engine</title>
<path fill="#f7f7f7" stroke="#444444" d="M1045.5,-1373.68C1045.5,-1373.68 978.5,-1373.68 978.5,-1373.68 972.5,-1373.68 966.5,-1367.68 966.5,-1361.68 966.5,-1361.68 966.5,-1349.68 966.5,-1349.68 966.5,-1343.68 972.5,-1337.68 978.5,-1337.68 978.5,-1337.68 1045.5,-1337.68 1045.5,-1337.68 1051.5,-1337.68 1057.5,-1343.68 1057.5,-1349.68 1057.5,-1349.68 1057.5,-1361.68 1057.5,-1361.68 1057.5,-1367.68 1051.5,-1373.68 1045.5,-1373.68"/>
<text text-anchor="middle" x="1012" y="-1352.88" font-family="DejaVu Sans" font-size="11.00">termin&#45;engine</text>
</g>
<!-- termin&#45;collision&#45;&gt;termin&#45;engine -->
<g id="edge23" class="edge">
<title>termin&#45;collision&#45;&gt;termin&#45;engine</title>
<path fill="none" stroke="#666666" stroke-width="1.1" d="M817.4,-1080.6C831.83,-1085.67 846.54,-1093.28 857,-1104.68 927.39,-1181.36 848.51,-1255.97 922,-1329.68 931.97,-1339.68 945.55,-1345.88 959.11,-1349.71"/>
<polygon fill="#666666" stroke="#666666" stroke-width="1.1" points="958.79,-1352.16 966.17,-1351.5 959.99,-1347.41 958.79,-1352.16"/>
</g>
<!-- termin&#45;csg -->
<g id="node5" class="node">
<title>termin&#45;csg</title>
<path fill="#f7f7f7" stroke="#444444" d="M222,-1088.68C222,-1088.68 173,-1088.68 173,-1088.68 167,-1088.68 161,-1082.68 161,-1076.68 161,-1076.68 161,-1064.68 161,-1064.68 161,-1058.68 167,-1052.68 173,-1052.68 173,-1052.68 222,-1052.68 222,-1052.68 228,-1052.68 234,-1058.68 234,-1064.68 234,-1064.68 234,-1076.68 234,-1076.68 234,-1082.68 228,-1088.68 222,-1088.68"/>
<text text-anchor="middle" x="197.5" y="-1067.88" font-family="DejaVu Sans" font-size="11.00">termin&#45;csg</text>
</g>
<!-- termin&#45;components&#45;mesh -->
<g id="node22" class="node">
<title>termin&#45;components&#45;mesh</title>
<path fill="#f7f7f7" stroke="#444444" d="M833.5,-939.68C833.5,-939.68 701.5,-939.68 701.5,-939.68 695.5,-939.68 689.5,-933.68 689.5,-927.68 689.5,-927.68 689.5,-915.68 689.5,-915.68 689.5,-909.68 695.5,-903.68 701.5,-903.68 701.5,-903.68 833.5,-903.68 833.5,-903.68 839.5,-903.68 845.5,-909.68 845.5,-915.68 845.5,-915.68 845.5,-927.68 845.5,-927.68 845.5,-933.68 839.5,-939.68 833.5,-939.68"/>
<text text-anchor="middle" x="767.5" y="-918.88" font-family="DejaVu Sans" font-size="11.00">termin&#45;components&#45;mesh</text>
</g>
<!-- termin&#45;csg&#45;&gt;termin&#45;components&#45;mesh -->
<g id="edge40" class="edge">
<title>termin&#45;csg&#45;&gt;termin&#45;components&#45;mesh</title>
<path fill="none" stroke="#666666" stroke-width="1.1" d="M233.19,-1052.63C239.47,-1048.11 245.45,-1042.78 250,-1036.68 302.2,-966.69 236.87,-900.7 307,-848.68 358.05,-810.82 386.85,-841.49 450,-848.68 537.71,-858.67 636.5,-883.74 700.02,-901.71"/>
<polygon fill="#666666" stroke="#666666" stroke-width="1.1" points="699.42,-904.09 706.83,-903.65 700.76,-899.37 699.42,-904.09"/>
</g>
<!-- termin&#45;input -->
<g id="node6" class="node">
<title>termin&#45;input</title>
<path fill="#f7f7f7" stroke="#444444" d="M796.5,-1020.68C796.5,-1020.68 738.5,-1020.68 738.5,-1020.68 732.5,-1020.68 726.5,-1014.68 726.5,-1008.68 726.5,-1008.68 726.5,-996.68 726.5,-996.68 726.5,-990.68 732.5,-984.68 738.5,-984.68 738.5,-984.68 796.5,-984.68 796.5,-984.68 802.5,-984.68 808.5,-990.68 808.5,-996.68 808.5,-996.68 808.5,-1008.68 808.5,-1008.68 808.5,-1014.68 802.5,-1020.68 796.5,-1020.68"/>
<text text-anchor="middle" x="767.5" y="-999.88" font-family="DejaVu Sans" font-size="11.00">termin&#45;input</text>
</g>
<!-- termin&#45;display -->
<g id="node32" class="node">
<title>termin&#45;display</title>
<path fill="#f7f7f7" stroke="#444444" d="M802,-1681.68C802,-1681.68 733,-1681.68 733,-1681.68 727,-1681.68 721,-1675.68 721,-1669.68 721,-1669.68 721,-1657.68 721,-1657.68 721,-1651.68 727,-1645.68 733,-1645.68 733,-1645.68 802,-1645.68 802,-1645.68 808,-1645.68 814,-1651.68 814,-1657.68 814,-1657.68 814,-1669.68 814,-1669.68 814,-1675.68 808,-1681.68 802,-1681.68"/>
<text text-anchor="middle" x="767.5" y="-1660.88" font-family="DejaVu Sans" font-size="11.00">termin&#45;display</text>
</g>
<!-- termin&#45;input&#45;&gt;termin&#45;display -->
<g id="edge56" class="edge">
<title>termin&#45;input&#45;&gt;termin&#45;display</title>
<path fill="none" stroke="#666666" stroke-width="1.1" d="M726.39,-1006.17C696.61,-1011.19 658.68,-1023.33 641.5,-1052.68 613.15,-1101.11 617.82,-1506.81 641.5,-1557.68 658.85,-1594.94 696.45,-1623.78 726.09,-1641.91"/>
<polygon fill="#666666" stroke="#666666" stroke-width="1.1" points="725.01,-1644.13 732.28,-1645.62 727.53,-1639.92 725.01,-1644.13"/>
</g>
<!-- termin&#45;scene -->
<g id="node13" class="node">
<title>termin&#45;scene</title>
<path fill="#f7f7f7" stroke="#444444" d="M591.5,-1080.68C591.5,-1080.68 528.5,-1080.68 528.5,-1080.68 522.5,-1080.68 516.5,-1074.68 516.5,-1068.68 516.5,-1068.68 516.5,-1056.68 516.5,-1056.68 516.5,-1050.68 522.5,-1044.68 528.5,-1044.68 528.5,-1044.68 591.5,-1044.68 591.5,-1044.68 597.5,-1044.68 603.5,-1050.68 603.5,-1056.68 603.5,-1056.68 603.5,-1068.68 603.5,-1068.68 603.5,-1074.68 597.5,-1080.68 591.5,-1080.68"/>
<text text-anchor="middle" x="560" y="-1059.88" font-family="DejaVu Sans" font-size="11.00">termin&#45;scene</text>
</g>
<!-- termin&#45;inspect&#45;&gt;termin&#45;scene -->
<g id="edge58" class="edge">
<title>termin&#45;inspect&#45;&gt;termin&#45;scene</title>
<path fill="none" stroke="#666666" stroke-width="1.1" d="M422.95,-1188.6C432.22,-1183.97 441.7,-1178.6 450,-1172.68 485.26,-1147.53 519.3,-1110.48 539.7,-1086.46"/>
<polygon fill="#666666" stroke="#666666" stroke-width="1.1" points="541.7,-1087.88 544.34,-1080.95 537.96,-1084.73 541.7,-1087.88"/>
</g>
<!-- termin&#45;components&#45;ui -->
<g id="node26" class="node">
<title>termin&#45;components&#45;ui</title>
<path fill="#f7f7f7" stroke="#444444" d="M823,-531.68C823,-531.68 712,-531.68 712,-531.68 706,-531.68 700,-525.68 700,-519.68 700,-519.68 700,-507.68 700,-507.68 700,-501.68 706,-495.68 712,-495.68 712,-495.68 823,-495.68 823,-495.68 829,-495.68 835,-501.68 835,-507.68 835,-507.68 835,-519.68 835,-519.68 835,-525.68 829,-531.68 823,-531.68"/>
<text text-anchor="middle" x="767.5" y="-510.88" font-family="DejaVu Sans" font-size="11.00">termin&#45;components&#45;ui</text>
</g>
<!-- termin&#45;inspect&#45;&gt;termin&#45;components&#45;ui -->
<g id="edge57" class="edge">
<title>termin&#45;inspect&#45;&gt;termin&#45;components&#45;ui</title>
<path fill="none" stroke="#666666" stroke-width="1.1" d="M425.86,-1192.15C435.08,-1187.3 443.81,-1180.95 450,-1172.68 542.43,-1049.39 455.05,-975.76 507,-830.68 555.93,-694.03 558.38,-640.47 670,-547.68 676.97,-541.89 684.99,-537.06 693.37,-533.03"/>
<polygon fill="#666666" stroke="#666666" stroke-width="1.1" points="694.46,-535.22 699.83,-530.11 692.44,-530.76 694.46,-535.22"/>
</g>
<!-- termin&#45;graphics -->
<g id="node33" class="node">
<title>termin&#45;graphics</title>
<path fill="#f7f7f7" stroke="#444444" d="M417,-1681.68C417,-1681.68 340,-1681.68 340,-1681.68 334,-1681.68 328,-1675.68 328,-1669.68 328,-1669.68 328,-1657.68 328,-1657.68 328,-1651.68 334,-1645.68 340,-1645.68 340,-1645.68 417,-1645.68 417,-1645.68 423,-1645.68 429,-1651.68 429,-1657.68 429,-1657.68 429,-1669.68 429,-1669.68 429,-1675.68 423,-1681.68 417,-1681.68"/>
<text text-anchor="middle" x="378.5" y="-1660.88" font-family="DejaVu Sans" font-size="11.00">termin&#45;graphics</text>
</g>
<!-- termin&#45;mesh&#45;&gt;termin&#45;graphics -->
<g id="edge60" class="edge">
<title>termin&#45;mesh&#45;&gt;termin&#45;graphics</title>
<path fill="none" stroke="#666666" stroke-width="1.1" d="M336.37,-1148.11C314.89,-1155.33 290.76,-1167.74 278.5,-1188.68 247.74,-1241.23 264.57,-1403.41 278.5,-1462.68 294.64,-1531.37 337.96,-1603.42 361.95,-1639.73"/>
<polygon fill="#666666" stroke="#666666" stroke-width="1.1" points="359.98,-1641.21 365.91,-1645.67 364.06,-1638.49 359.98,-1641.21"/>
</g>
<!-- termin&#45;modules&#45;&gt;termin&#45;engine -->
<g id="edge61" class="edge">
<title>termin&#45;modules&#45;&gt;termin&#45;engine</title>
<path fill="none" stroke="#666666" stroke-width="1.1" d="M429.03,-1275.72C516.18,-1278.21 702.37,-1286.52 857,-1313.68 876.66,-1317.13 922.94,-1330 959.67,-1340.59"/>
<polygon fill="#666666" stroke="#666666" stroke-width="1.1" points="959.01,-1342.95 966.41,-1342.54 960.37,-1338.24 959.01,-1342.95"/>
</g>
<!-- termin&#45;navmesh -->
<g id="node10" class="node">
<title>termin&#45;navmesh</title>
<path fill="#f7f7f7" stroke="#444444" d="M238,-1020.68C238,-1020.68 157,-1020.68 157,-1020.68 151,-1020.68 145,-1014.68 145,-1008.68 145,-1008.68 145,-996.68 145,-996.68 145,-990.68 151,-984.68 157,-984.68 157,-984.68 238,-984.68 238,-984.68 244,-984.68 250,-990.68 250,-996.68 250,-996.68 250,-1008.68 250,-1008.68 250,-1014.68 244,-1020.68 238,-1020.68"/>
<text text-anchor="middle" x="197.5" y="-999.88" font-family="DejaVu Sans" font-size="11.00">termin&#45;navmesh</text>
</g>
<!-- termin&#45;navmesh&#45;&gt;termin&#45;app -->
<g id="edge63" class="edge">
<title>termin&#45;navmesh&#45;&gt;termin&#45;app</title>
<path fill="none" stroke="#666666" stroke-width="1.1" d="M200.1,-984.41C208.52,-890.55 249.55,-462.41 307,-343.68 379.49,-193.87 392.57,-66.68 559,-66.68 559,-66.68 559,-66.68 768.5,-66.68 1028.04,-66.68 1120.09,-42.1 1342,-176.68 1394.22,-208.35 1433.08,-271.06 1451.72,-305.9"/>
<polygon fill="#666666" stroke="#666666" stroke-width="1.1" points="1449.75,-307.42 1455.17,-312.47 1454.08,-305.14 1449.75,-307.42"/>
</g>
<!-- termin&#45;default&#45;assets -->
<g id="node43" class="node">
<title>termin&#45;default&#45;assets</title>
<path fill="#f7f7f7" stroke="#444444" d="M1519,-805.68C1519,-805.68 1411,-805.68 1411,-805.68 1405,-805.68 1399,-799.68 1399,-793.68 1399,-793.68 1399,-781.68 1399,-781.68 1399,-775.68 1405,-769.68 1411,-769.68 1411,-769.68 1519,-769.68 1519,-769.68 1525,-769.68 1531,-775.68 1531,-781.68 1531,-781.68 1531,-793.68 1531,-793.68 1531,-799.68 1525,-805.68 1519,-805.68"/>
<text text-anchor="middle" x="1465" y="-784.88" font-family="DejaVu Sans" font-size="11.00">termin&#45;default&#45;assets</text>
</g>
<!-- termin&#45;navmesh&#45;&gt;termin&#45;default&#45;assets -->
<g id="edge64" class="edge">
<title>termin&#45;navmesh&#45;&gt;termin&#45;default&#45;assets</title>
<path fill="none" stroke="#666666" stroke-width="1.1" d="M198,-984.6C196.9,-914.64 200.64,-657.16 307,-486.68 366.67,-391.04 400.4,-367.34 507,-330.68 863.78,-207.99 1065.27,-227.23 1342,-483.68 1425.83,-561.37 1453.23,-704.44 1461.13,-762.35"/>
<polygon fill="#666666" stroke="#666666" stroke-width="1.1" points="1458.75,-763 1462.08,-769.63 1463.61,-762.37 1458.75,-763"/>
</g>
<!-- termin&#45;components&#45;physics -->
<g id="node23" class="node">
<title>termin&#45;components&#45;physics</title>
<path fill="#f7f7f7" stroke="#444444" d="M1322,-860.68C1322,-860.68 1179,-860.68 1179,-860.68 1173,-860.68 1167,-854.68 1167,-848.68 1167,-848.68 1167,-836.68 1167,-836.68 1167,-830.68 1173,-824.68 1179,-824.68 1179,-824.68 1322,-824.68 1322,-824.68 1328,-824.68 1334,-830.68 1334,-836.68 1334,-836.68 1334,-848.68 1334,-848.68 1334,-854.68 1328,-860.68 1322,-860.68"/>
<text text-anchor="middle" x="1250.5" y="-839.88" font-family="DejaVu Sans" font-size="11.00">termin&#45;components&#45;physics</text>
</g>
<!-- termin&#45;physics&#45;&gt;termin&#45;components&#45;physics -->
<g id="edge66" class="edge">
<title>termin&#45;physics&#45;&gt;termin&#45;components&#45;physics</title>
<path fill="none" stroke="#666666" stroke-width="1.1" d="M1057.86,-1000.65C1072.44,-993.98 1088.36,-985.8 1102,-976.68 1151.28,-943.74 1200.67,-894.87 1227.94,-866.15"/>
<polygon fill="#666666" stroke="#666666" stroke-width="1.1" points="1229.75,-867.8 1232.77,-861.03 1226.19,-864.44 1229.75,-867.8"/>
</g>
<!-- termin&#45;physics&#45;fem -->
<g id="node28" class="node">
<title>termin&#45;physics&#45;fem</title>
<path fill="#f7f7f7" stroke="#444444" d="M815.5,-735.68C815.5,-735.68 719.5,-735.68 719.5,-735.68 713.5,-735.68 707.5,-729.68 707.5,-723.68 707.5,-723.68 707.5,-711.68 707.5,-711.68 707.5,-705.68 713.5,-699.68 719.5,-699.68 719.5,-699.68 815.5,-699.68 815.5,-699.68 821.5,-699.68 827.5,-705.68 827.5,-711.68 827.5,-711.68 827.5,-723.68 827.5,-723.68 827.5,-729.68 821.5,-735.68 815.5,-735.68"/>
<text text-anchor="middle" x="767.5" y="-714.88" font-family="DejaVu Sans" font-size="11.00">termin&#45;physics&#45;fem</text>
</g>
<!-- termin&#45;qopt&#45;&gt;termin&#45;physics&#45;fem -->
<g id="edge69" class="edge">
<title>termin&#45;qopt&#45;&gt;termin&#45;physics&#45;fem</title>
<path fill="none" stroke="#666666" stroke-width="1.1" d="M401.95,-1026.63C416.08,-1015.02 434.5,-999.4 450,-984.68 553.27,-886.61 550.59,-829.31 670,-751.68 679.37,-745.59 689.97,-740.44 700.62,-736.13"/>
<polygon fill="#666666" stroke="#666666" stroke-width="1.1" points="701.61,-738.38 707.25,-733.56 699.84,-733.81 701.61,-738.38"/>
</g>
<!-- termin&#45;scene&#45;&gt;termin&#45;collision -->
<g id="edge77" class="edge">
<title>termin&#45;scene&#45;&gt;termin&#45;collision</title>
<path fill="none" stroke="#666666" stroke-width="1.1" d="M603.58,-1064.34C634.64,-1065.55 677.03,-1067.2 710.78,-1068.51"/>
<polygon fill="#666666" stroke="#666666" stroke-width="1.1" points="710.76,-1070.96 717.85,-1068.79 710.95,-1066.07 710.76,-1070.96"/>
</g>
<!-- termin&#45;scene&#45;&gt;termin&#45;input -->
<g id="edge83" class="edge">
<title>termin&#45;scene&#45;&gt;termin&#45;input</title>
<path fill="none" stroke="#666666" stroke-width="1.1" d="M603.58,-1050.25C637.42,-1040.37 684.69,-1026.57 719.61,-1016.37"/>
<polygon fill="#666666" stroke="#666666" stroke-width="1.1" points="720.39,-1018.7 726.42,-1014.38 719.01,-1014 720.39,-1018.7"/>
</g>
<!-- termin&#45;skeleton -->
<g id="node14" class="node">
<title>termin&#45;skeleton</title>
<path fill="#f7f7f7" stroke="#444444" d="M806,-1156.68C806,-1156.68 729,-1156.68 729,-1156.68 723,-1156.68 717,-1150.68 717,-1144.68 717,-1144.68 717,-1132.68 717,-1132.68 717,-1126.68 723,-1120.68 729,-1120.68 729,-1120.68 806,-1120.68 806,-1120.68 812,-1120.68 818,-1126.68 818,-1132.68 818,-1132.68 818,-1144.68 818,-1144.68 818,-1150.68 812,-1156.68 806,-1156.68"/>
<text text-anchor="middle" x="767.5" y="-1135.88" font-family="DejaVu Sans" font-size="11.00">termin&#45;skeleton</text>
</g>
<!-- termin&#45;scene&#45;&gt;termin&#45;skeleton -->
<g id="edge87" class="edge">
<title>termin&#45;scene&#45;&gt;termin&#45;skeleton</title>
<path fill="none" stroke="#666666" stroke-width="1.1" d="M603.6,-1079.43C623.69,-1087.24 648.02,-1096.58 670,-1104.68 682.91,-1109.44 696.85,-1114.44 710.01,-1119.09"/>
<polygon fill="#666666" stroke="#666666" stroke-width="1.1" points="709.4,-1121.47 716.81,-1121.49 711.03,-1116.85 709.4,-1121.47"/>
</g>
<!-- termin&#45;components&#45;kinematic -->
<g id="node21" class="node">
<title>termin&#45;components&#45;kinematic</title>
<path fill="#f7f7f7" stroke="#444444" d="M845,-803.68C845,-803.68 690,-803.68 690,-803.68 684,-803.68 678,-797.68 678,-791.68 678,-791.68 678,-779.68 678,-779.68 678,-773.68 684,-767.68 690,-767.68 690,-767.68 845,-767.68 845,-767.68 851,-767.68 857,-773.68 857,-779.68 857,-779.68 857,-791.68 857,-791.68 857,-797.68 851,-803.68 845,-803.68"/>
<text text-anchor="middle" x="767.5" y="-782.88" font-family="DejaVu Sans" font-size="11.00">termin&#45;components&#45;kinematic</text>
</g>
<!-- termin&#45;scene&#45;&gt;termin&#45;components&#45;kinematic -->
<g id="edge78" class="edge">
<title>termin&#45;scene&#45;&gt;termin&#45;components&#45;kinematic</title>
<path fill="none" stroke="#666666" stroke-width="1.1" d="M564.07,-1044.58C572.59,-999.94 600.6,-883.56 670,-819.68 675.2,-814.9 681.1,-810.78 687.38,-807.24"/>
<polygon fill="#666666" stroke="#666666" stroke-width="1.1" points="688.71,-809.31 693.76,-803.89 686.43,-804.97 688.71,-809.31"/>
</g>
<!-- termin&#45;scene&#45;&gt;termin&#45;components&#45;mesh -->
<g id="edge79" class="edge">
<title>termin&#45;scene&#45;&gt;termin&#45;components&#45;mesh</title>
<path fill="none" stroke="#666666" stroke-width="1.1" d="M579.1,-1044.46C599.81,-1024.25 635.36,-991.5 670,-968.68 684.57,-959.09 701.39,-950.22 716.87,-942.84"/>
<polygon fill="#666666" stroke="#666666" stroke-width="1.1" points="718.11,-944.96 723.41,-939.77 716.03,-940.53 718.11,-944.96"/>
</g>
<!-- termin&#45;components&#45;tween -->
<g id="node25" class="node">
<title>termin&#45;components&#45;tween</title>
<path fill="#f7f7f7" stroke="#444444" d="M835,-667.68C835,-667.68 700,-667.68 700,-667.68 694,-667.68 688,-661.68 688,-655.68 688,-655.68 688,-643.68 688,-643.68 688,-637.68 694,-631.68 700,-631.68 700,-631.68 835,-631.68 835,-631.68 841,-631.68 847,-637.68 847,-643.68 847,-643.68 847,-655.68 847,-655.68 847,-661.68 841,-667.68 835,-667.68"/>
<text text-anchor="middle" x="767.5" y="-646.88" font-family="DejaVu Sans" font-size="11.00">termin&#45;components&#45;tween</text>
</g>
<!-- termin&#45;scene&#45;&gt;termin&#45;components&#45;tween -->
<g id="edge80" class="edge">
<title>termin&#45;scene&#45;&gt;termin&#45;components&#45;tween</title>
<path fill="none" stroke="#666666" stroke-width="1.1" d="M566.21,-1044.45C587.81,-968.93 669.19,-684.55 670,-683.68 674.47,-678.94 679.65,-674.85 685.24,-671.34"/>
<polygon fill="#666666" stroke="#666666" stroke-width="1.1" points="686.61,-673.37 691.44,-667.75 684.16,-669.13 686.61,-673.37"/>
</g>
<!-- termin&#45;components&#45;voxels -->
<g id="node27" class="node">
<title>termin&#45;components&#45;voxels</title>
<path fill="#f7f7f7" stroke="#444444" d="M836,-599.68C836,-599.68 699,-599.68 699,-599.68 693,-599.68 687,-593.68 687,-587.68 687,-587.68 687,-575.68 687,-575.68 687,-569.68 693,-563.68 699,-563.68 699,-563.68 836,-563.68 836,-563.68 842,-563.68 848,-569.68 848,-575.68 848,-575.68 848,-587.68 848,-587.68 848,-593.68 842,-599.68 836,-599.68"/>
<text text-anchor="middle" x="767.5" y="-578.88" font-family="DejaVu Sans" font-size="11.00">termin&#45;components&#45;voxels</text>
</g>
<!-- termin&#45;scene&#45;&gt;termin&#45;components&#45;voxels -->
<g id="edge81" class="edge">
<title>termin&#45;scene&#45;&gt;termin&#45;components&#45;voxels</title>
<path fill="none" stroke="#666666" stroke-width="1.1" d="M566.64,-1044.45C576.66,-1011.79 597.89,-941.09 613,-880.68 642.23,-763.81 590.39,-706.1 670,-615.68 674.05,-611.08 678.76,-607.11 683.88,-603.67"/>
<polygon fill="#666666" stroke="#666666" stroke-width="1.1" points="685.38,-605.62 690.06,-599.87 682.82,-601.44 685.38,-605.62"/>
</g>
<!-- termin&#45;scene&#45;&gt;termin&#45;physics&#45;fem -->
<g id="edge84" class="edge">
<title>termin&#45;scene&#45;&gt;termin&#45;physics&#45;fem</title>
<path fill="none" stroke="#666666" stroke-width="1.1" d="M566.42,-1044.32C585.29,-980.88 648.12,-773.6 670,-751.68 678.55,-743.12 689.38,-736.7 700.68,-731.9"/>
<polygon fill="#666666" stroke="#666666" stroke-width="1.1" points="701.76,-734.11 707.37,-729.26 699.96,-729.55 701.76,-734.11"/>
</g>
<!-- termin&#45;render -->
<g id="node35" class="node">
<title>termin&#45;render</title>
<path fill="#f7f7f7" stroke="#444444" d="M593,-1697.68C593,-1697.68 527,-1697.68 527,-1697.68 521,-1697.68 515,-1691.68 515,-1685.68 515,-1685.68 515,-1673.68 515,-1673.68 515,-1667.68 521,-1661.68 527,-1661.68 527,-1661.68 593,-1661.68 593,-1661.68 599,-1661.68 605,-1667.68 605,-1673.68 605,-1673.68 605,-1685.68 605,-1685.68 605,-1691.68 599,-1697.68 593,-1697.68"/>
<text text-anchor="middle" x="560" y="-1676.88" font-family="DejaVu Sans" font-size="11.00">termin&#45;render</text>
</g>
<!-- termin&#45;scene&#45;&gt;termin&#45;render -->
<g id="edge86" class="edge">
<title>termin&#45;scene&#45;&gt;termin&#45;render</title>
<path fill="none" stroke="#666666" stroke-width="1.1" d="M556.17,-1080.91C542.19,-1148.44 493.97,-1390.95 478.5,-1593.68 477.28,-1609.64 470.69,-1615.72 478.5,-1629.68 485.33,-1641.89 496.51,-1651.49 508.42,-1658.86"/>
<polygon fill="#666666" stroke="#666666" stroke-width="1.1" points="507.41,-1661.11 514.69,-1662.51 509.88,-1656.87 507.41,-1661.11"/>
</g>
<!-- termin&#45;glb -->
<g id="node44" class="node">
<title>termin&#45;glb</title>
<path fill="#f7f7f7" stroke="#444444" d="M791,-1433.68C791,-1433.68 744,-1433.68 744,-1433.68 738,-1433.68 732,-1427.68 732,-1421.68 732,-1421.68 732,-1409.68 732,-1409.68 732,-1403.68 738,-1397.68 744,-1397.68 744,-1397.68 791,-1397.68 791,-1397.68 797,-1397.68 803,-1403.68 803,-1409.68 803,-1409.68 803,-1421.68 803,-1421.68 803,-1427.68 797,-1433.68 791,-1433.68"/>
<text text-anchor="middle" x="767.5" y="-1412.88" font-family="DejaVu Sans" font-size="11.00">termin&#45;glb</text>
</g>
<!-- termin&#45;scene&#45;&gt;termin&#45;glb -->
<g id="edge82" class="edge">
<title>termin&#45;scene&#45;&gt;termin&#45;glb</title>
<path fill="none" stroke="#666666" stroke-width="1.1" d="M561.89,-1081.04C565.48,-1134.89 583.3,-1294.16 670,-1381.68 684.58,-1396.41 705.92,-1404.77 724.82,-1409.52"/>
<polygon fill="#666666" stroke="#666666" stroke-width="1.1" points="724.29,-1411.91 731.66,-1411.1 725.4,-1407.13 724.29,-1411.91"/>
</g>
<!-- termin&#45;prefab -->
<g id="node48" class="node">
<title>termin&#45;prefab</title>
<path fill="#f7f7f7" stroke="#444444" d="M800.5,-1365.68C800.5,-1365.68 734.5,-1365.68 734.5,-1365.68 728.5,-1365.68 722.5,-1359.68 722.5,-1353.68 722.5,-1353.68 722.5,-1341.68 722.5,-1341.68 722.5,-1335.68 728.5,-1329.68 734.5,-1329.68 734.5,-1329.68 800.5,-1329.68 800.5,-1329.68 806.5,-1329.68 812.5,-1335.68 812.5,-1341.68 812.5,-1341.68 812.5,-1353.68 812.5,-1353.68 812.5,-1359.68 806.5,-1365.68 800.5,-1365.68"/>
<text text-anchor="middle" x="767.5" y="-1344.88" font-family="DejaVu Sans" font-size="11.00">termin&#45;prefab</text>
</g>
<!-- termin&#45;scene&#45;&gt;termin&#45;prefab -->
<g id="edge85" class="edge">
<title>termin&#45;scene&#45;&gt;termin&#45;prefab</title>
<path fill="none" stroke="#666666" stroke-width="1.1" d="M562.9,-1080.99C568.91,-1129.1 592,-1259.85 670,-1325.68 682.53,-1336.25 699.12,-1342 715,-1345.05"/>
<polygon fill="#666666" stroke="#666666" stroke-width="1.1" points="714.92,-1347.53 722.23,-1346.27 715.74,-1342.69 714.92,-1347.53"/>
</g>
<!-- termin&#45;skeleton&#45;&gt;termin&#45;animation -->
<g id="edge88" class="edge">
<title>termin&#45;skeleton&#45;&gt;termin&#45;animation</title>
<path fill="none" stroke="#666666" stroke-width="1.1" d="M818.16,-1128.03C856.41,-1119.83 909.46,-1108.45 950.25,-1099.71"/>
<polygon fill="#666666" stroke="#666666" stroke-width="1.1" points="950.86,-1102.08 957.2,-1098.22 949.84,-1097.29 950.86,-1102.08"/>
</g>
<!-- termin&#45;components&#45;skeleton -->
<g id="node24" class="node">
<title>termin&#45;components&#45;skeleton</title>
<path fill="#f7f7f7" stroke="#444444" d="M841.5,-871.68C841.5,-871.68 693.5,-871.68 693.5,-871.68 687.5,-871.68 681.5,-865.68 681.5,-859.68 681.5,-859.68 681.5,-847.68 681.5,-847.68 681.5,-841.68 687.5,-835.68 693.5,-835.68 693.5,-835.68 841.5,-835.68 841.5,-835.68 847.5,-835.68 853.5,-841.68 853.5,-847.68 853.5,-847.68 853.5,-859.68 853.5,-859.68 853.5,-865.68 847.5,-871.68 841.5,-871.68"/>
<text text-anchor="middle" x="767.5" y="-850.88" font-family="DejaVu Sans" font-size="11.00">termin&#45;components&#45;skeleton</text>
</g>
<!-- termin&#45;skeleton&#45;&gt;termin&#45;components&#45;skeleton -->
<g id="edge89" class="edge">
<title>termin&#45;skeleton&#45;&gt;termin&#45;components&#45;skeleton</title>
<path fill="none" stroke="#666666" stroke-width="1.1" d="M716.89,-1133.39C688.96,-1127.47 656.9,-1114.98 641.5,-1088.68 620.73,-1053.2 620.73,-939.16 641.5,-903.68 649.28,-890.38 661.33,-880.62 674.94,-873.45"/>
<polygon fill="#666666" stroke="#666666" stroke-width="1.1" points="676.09,-875.61 681.3,-870.33 673.94,-871.21 676.09,-875.61"/>
</g>
<!-- termin&#45;tween -->
<g id="node15" class="node">
<title>termin&#45;tween</title>
<path fill="#f7f7f7" stroke="#444444" d="M229.5,-1156.68C229.5,-1156.68 165.5,-1156.68 165.5,-1156.68 159.5,-1156.68 153.5,-1150.68 153.5,-1144.68 153.5,-1144.68 153.5,-1132.68 153.5,-1132.68 153.5,-1126.68 159.5,-1120.68 165.5,-1120.68 165.5,-1120.68 229.5,-1120.68 229.5,-1120.68 235.5,-1120.68 241.5,-1126.68 241.5,-1132.68 241.5,-1132.68 241.5,-1144.68 241.5,-1144.68 241.5,-1150.68 235.5,-1156.68 229.5,-1156.68"/>
<text text-anchor="middle" x="197.5" y="-1135.88" font-family="DejaVu Sans" font-size="11.00">termin&#45;tween</text>
</g>
<!-- termin&#45;tween&#45;&gt;termin&#45;components&#45;tween -->
<g id="edge90" class="edge">
<title>termin&#45;tween&#45;&gt;termin&#45;components&#45;tween</title>
<path fill="none" stroke="#666666" stroke-width="1.1" d="M234.08,-1120.51C240.13,-1116.05 245.81,-1110.77 250,-1104.68 316.12,-1008.69 233.56,-939.2 307,-848.68 401.1,-732.7 575.85,-682.76 680.62,-662.46"/>
<polygon fill="#666666" stroke="#666666" stroke-width="1.1" points="681.31,-664.83 687.73,-661.11 680.39,-660.01 681.31,-664.83"/>
</g>
<!-- termin&#45;voxels -->
<g id="node16" class="node">
<title>termin&#45;voxels</title>
<path fill="#f7f7f7" stroke="#444444" d="M230.5,-1224.68C230.5,-1224.68 164.5,-1224.68 164.5,-1224.68 158.5,-1224.68 152.5,-1218.68 152.5,-1212.68 152.5,-1212.68 152.5,-1200.68 152.5,-1200.68 152.5,-1194.68 158.5,-1188.68 164.5,-1188.68 164.5,-1188.68 230.5,-1188.68 230.5,-1188.68 236.5,-1188.68 242.5,-1194.68 242.5,-1200.68 242.5,-1200.68 242.5,-1212.68 242.5,-1212.68 242.5,-1218.68 236.5,-1224.68 230.5,-1224.68"/>
<text text-anchor="middle" x="197.5" y="-1203.88" font-family="DejaVu Sans" font-size="11.00">termin&#45;voxels</text>
</g>
<!-- termin&#45;voxels&#45;&gt;termin&#45;components&#45;voxels -->
<g id="edge91" class="edge">
<title>termin&#45;voxels&#45;&gt;termin&#45;components&#45;voxels</title>
<path fill="none" stroke="#666666" stroke-width="1.1" d="M234.3,-1188.65C240.33,-1184.18 245.94,-1178.86 250,-1172.68 330.21,-1050.44 226,-970.41 307,-848.68 398.9,-710.57 588.38,-634.76 693.03,-601.86"/>
<polygon fill="#666666" stroke="#666666" stroke-width="1.1" points="693.85,-604.17 699.8,-599.75 692.39,-599.49 693.85,-604.17"/>
</g>
<!-- termin -->
<g id="node17" class="node">
<title>termin</title>
<path fill="#f7f7f7" stroke="#444444" d="M59,-1088.68C59,-1088.68 29,-1088.68 29,-1088.68 23,-1088.68 17,-1082.68 17,-1076.68 17,-1076.68 17,-1064.68 17,-1064.68 17,-1058.68 23,-1052.68 29,-1052.68 29,-1052.68 59,-1052.68 59,-1052.68 65,-1052.68 71,-1058.68 71,-1064.68 71,-1064.68 71,-1076.68 71,-1076.68 71,-1082.68 65,-1088.68 59,-1088.68"/>
<text text-anchor="middle" x="44" y="-1067.88" font-family="DejaVu Sans" font-size="11.00">termin</text>
</g>
<!-- termin&#45;&gt;termin&#45;app -->
<g id="edge2" class="edge">
<title>termin&#45;&gt;termin&#45;app</title>
<path fill="none" stroke="#666666" stroke-width="1.1" d="M46.53,-1052.56C58.87,-911.95 147.72,-0.68 377.5,-0.68 377.5,-0.68 377.5,-0.68 1013,-0.68 1163.91,-0.68 1224.67,10.23 1342,-84.68 1414.42,-143.27 1447.36,-255.73 1458.9,-305.7"/>
<polygon fill="#666666" stroke="#666666" stroke-width="1.1" points="1456.53,-306.31 1460.45,-312.6 1461.31,-305.23 1456.53,-306.31"/>
</g>
<!-- termin&#45;&gt;termin&#45;navmesh -->
<g id="edge3" class="edge">
<title>termin&#45;&gt;termin&#45;navmesh</title>
<path fill="none" stroke="#666666" stroke-width="1.1" d="M71.04,-1058.99C92.65,-1049.3 123.91,-1035.26 149.82,-1023.63"/>
<polygon fill="#666666" stroke="#666666" stroke-width="1.1" points="150.9,-1025.83 156.28,-1020.73 148.89,-1021.36 150.9,-1025.83"/>
</g>
<!-- termin&#45;&gt;termin&#45;tween -->
<g id="edge4" class="edge">
<title>termin&#45;&gt;termin&#45;tween</title>
<path fill="none" stroke="#666666" stroke-width="1.1" d="M71.04,-1082.37C92.65,-1092.07 123.91,-1106.1 149.82,-1117.73"/>
<polygon fill="#666666" stroke="#666666" stroke-width="1.1" points="148.89,-1120 156.28,-1120.63 150.9,-1115.53 148.89,-1120"/>
</g>
<!-- termin&#45;&gt;termin&#45;voxels -->
<g id="edge5" class="edge">
<title>termin&#45;&gt;termin&#45;voxels</title>
<path fill="none" stroke="#666666" stroke-width="1.1" d="M58.48,-1088.87C75.22,-1110.62 105.43,-1147.25 137,-1172.68 142.42,-1177.05 148.47,-1181.19 154.58,-1184.99"/>
<polygon fill="#666666" stroke="#666666" stroke-width="1.1" points="153.43,-1187.16 160.69,-1188.67 155.95,-1182.96 153.43,-1187.16"/>
</g>
<!-- termin&#45;components&#45;collision&#45;&gt;termin&#45;components&#45;physics -->
<g id="edge25" class="edge">
<title>termin&#45;components&#45;collision&#45;&gt;termin&#45;components&#45;physics</title>
<path fill="none" stroke="#666666" stroke-width="1.1" d="M1097.05,-869.76C1117.44,-866.13 1139.33,-862.25 1159.97,-858.58"/>
<polygon fill="#666666" stroke="#666666" stroke-width="1.1" points="1160.45,-860.98 1166.92,-857.35 1159.6,-856.16 1160.45,-860.98"/>
</g>
<!-- termin&#45;render&#45;passes -->
<g id="node49" class="node">
<title>termin&#45;render&#45;passes</title>
<path fill="#f7f7f7" stroke="#444444" d="M1304.5,-1144.68C1304.5,-1144.68 1196.5,-1144.68 1196.5,-1144.68 1190.5,-1144.68 1184.5,-1138.68 1184.5,-1132.68 1184.5,-1132.68 1184.5,-1120.68 1184.5,-1120.68 1184.5,-1114.68 1190.5,-1108.68 1196.5,-1108.68 1196.5,-1108.68 1304.5,-1108.68 1304.5,-1108.68 1310.5,-1108.68 1316.5,-1114.68 1316.5,-1120.68 1316.5,-1120.68 1316.5,-1132.68 1316.5,-1132.68 1316.5,-1138.68 1310.5,-1144.68 1304.5,-1144.68"/>
<text text-anchor="middle" x="1250.5" y="-1123.88" font-family="DejaVu Sans" font-size="11.00">termin&#45;render&#45;passes</text>
</g>
<!-- termin&#45;components&#45;collision&#45;&gt;termin&#45;render&#45;passes -->
<g id="edge26" class="edge">
<title>termin&#45;components&#45;collision&#45;&gt;termin&#45;render&#45;passes</title>
<path fill="none" stroke="#666666" stroke-width="1.1" d="M1062.68,-902.87C1076.24,-909.19 1090.39,-917.13 1102,-926.68 1164.48,-978.05 1214.55,-1061.44 1236.88,-1102.4"/>
<polygon fill="#666666" stroke="#666666" stroke-width="1.1" points="1234.74,-1103.6 1240.22,-1108.6 1239.06,-1101.28 1234.74,-1103.6"/>
</g>
<!-- termin&#45;components&#45;kinematic&#45;&gt;termin&#45;app -->
<g id="edge27" class="edge">
<title>termin&#45;components&#45;kinematic&#45;&gt;termin&#45;app</title>
<path fill="none" stroke="#666666" stroke-width="1.1" d="M821.83,-767.57C833.65,-762.9 845.94,-757.53 857,-751.68 1096.12,-625.18 1353.3,-421.32 1436.43,-353.46"/>
<polygon fill="#666666" stroke="#666666" stroke-width="1.1" points="1438.24,-355.15 1442.11,-348.82 1435.14,-351.35 1438.24,-355.15"/>
</g>
<!-- termin&#45;components&#45;mesh&#45;&gt;termin&#45;navmesh -->
<g id="edge30" class="edge">
<title>termin&#45;components&#45;mesh&#45;&gt;termin&#45;navmesh</title>
<path fill="none" stroke="#666666" stroke-width="1.1" d="M712.89,-903.61C698.85,-898.66 683.79,-893.14 670,-887.68 514.73,-826.2 449.46,-703.56 307,-790.68 239.2,-832.15 212.05,-930.86 202.72,-977.48"/>
<polygon fill="#666666" stroke="#666666" stroke-width="1.1" points="200.29,-977.16 201.38,-984.5 205.1,-978.09 200.29,-977.16"/>
</g>
<!-- termin&#45;components&#45;mesh&#45;&gt;termin&#45;components&#45;collision -->
<g id="edge28" class="edge">
<title>termin&#45;components&#45;mesh&#45;&gt;termin&#45;components&#45;collision</title>
<path fill="none" stroke="#666666" stroke-width="1.1" d="M845.56,-909.92C869.17,-906.32 895.36,-902.33 919.81,-898.6"/>
<polygon fill="#666666" stroke="#666666" stroke-width="1.1" points="920.45,-900.98 927,-897.5 919.71,-896.13 920.45,-900.98"/>
</g>
<!-- termin&#45;components&#45;render -->
<g id="node31" class="node">
<title>termin&#45;components&#45;render</title>
<path fill="#f7f7f7" stroke="#444444" d="M1081,-1681.68C1081,-1681.68 943,-1681.68 943,-1681.68 937,-1681.68 931,-1675.68 931,-1669.68 931,-1669.68 931,-1657.68 931,-1657.68 931,-1651.68 937,-1645.68 943,-1645.68 943,-1645.68 1081,-1645.68 1081,-1645.68 1087,-1645.68 1093,-1651.68 1093,-1657.68 1093,-1657.68 1093,-1669.68 1093,-1669.68 1093,-1675.68 1087,-1681.68 1081,-1681.68"/>
<text text-anchor="middle" x="1012" y="-1660.88" font-family="DejaVu Sans" font-size="11.00">termin&#45;components&#45;render</text>
</g>
<!-- termin&#45;components&#45;mesh&#45;&gt;termin&#45;components&#45;render -->
<g id="edge29" class="edge">
<title>termin&#45;components&#45;mesh&#45;&gt;termin&#45;components&#45;render</title>
<path fill="none" stroke="#666666" stroke-width="1.1" d="M821.88,-939.92C835.26,-946.92 848.28,-956.31 857,-968.68 971.45,-1130.94 874.39,-1217.92 922,-1410.68 943.2,-1496.5 981.9,-1594.17 1000.49,-1638.92"/>
<polygon fill="#666666" stroke="#666666" stroke-width="1.1" points="998.33,-1640.12 1003.29,-1645.64 1002.86,-1638.23 998.33,-1640.12"/>
</g>
<!-- termin&#45;components&#45;physics&#45;&gt;termin&#45;app -->
<g id="edge31" class="edge">
<title>termin&#45;components&#45;physics&#45;&gt;termin&#45;app</title>
<path fill="none" stroke="#666666" stroke-width="1.1" d="M1259.06,-824.46C1291.27,-746.85 1417.04,-443.82 1453.84,-355.17"/>
<polygon fill="#666666" stroke="#666666" stroke-width="1.1" points="1456.11,-356.09 1456.53,-348.69 1451.58,-354.21 1456.11,-356.09"/>
</g>
<!-- termin&#45;components&#45;physics&#45;&gt;termin&#45;default&#45;assets -->
<g id="edge32" class="edge">
<title>termin&#45;components&#45;physics&#45;&gt;termin&#45;default&#45;assets</title>
<path fill="none" stroke="#666666" stroke-width="1.1" d="M1321.08,-824.67C1343.79,-818.8 1369.04,-812.26 1391.93,-806.34"/>
<polygon fill="#666666" stroke="#666666" stroke-width="1.1" points="1392.79,-808.65 1398.95,-804.52 1391.56,-803.9 1392.79,-808.65"/>
</g>
<!-- termin&#45;components&#45;skeleton&#45;&gt;termin&#45;components&#45;animation -->
<g id="edge35" class="edge">
<title>termin&#45;components&#45;skeleton&#45;&gt;termin&#45;components&#45;animation</title>
<path fill="none" stroke="#666666" stroke-width="1.1" d="M853.66,-840.69C873.43,-837.67 894.62,-834.44 914.83,-831.36"/>
<polygon fill="#666666" stroke="#666666" stroke-width="1.1" points="915.39,-833.75 921.94,-830.27 914.65,-828.91 915.39,-833.75"/>
</g>
<!-- termin&#45;components&#45;skeleton&#45;&gt;termin&#45;components&#45;render -->
<g id="edge36" class="edge">
<title>termin&#45;components&#45;skeleton&#45;&gt;termin&#45;components&#45;render</title>
<path fill="none" stroke="#666666" stroke-width="1.1" d="M838.34,-871.71C845.46,-875.95 851.93,-881.2 857,-887.68 929.16,-979.93 895.19,-1296.68 922,-1410.68 942.23,-1496.73 981.4,-1594.29 1000.29,-1638.97"/>
<polygon fill="#666666" stroke="#666666" stroke-width="1.1" points="998.15,-1640.19 1003.15,-1645.67 1002.66,-1638.27 998.15,-1640.19"/>
</g>
<!-- termin&#45;components&#45;tween&#45;&gt;termin&#45;app -->
<g id="edge37" class="edge">
<title>termin&#45;components&#45;tween&#45;&gt;termin&#45;app</title>
<path fill="none" stroke="#666666" stroke-width="1.1" d="M837.39,-631.49C844.77,-627.27 851.56,-622.07 857,-615.68 948.26,-508.5 812.72,-394.42 922,-305.68 1069.25,-186.1 1320.21,-270.12 1420.61,-311.42"/>
<polygon fill="#666666" stroke="#666666" stroke-width="1.1" points="1419.88,-313.77 1427.29,-314.19 1421.76,-309.25 1419.88,-313.77"/>
</g>
<!-- termin&#45;components&#45;ui&#45;&gt;termin&#45;render&#45;passes -->
<g id="edge38" class="edge">
<title>termin&#45;components&#45;ui&#45;&gt;termin&#45;render&#45;passes</title>
<path fill="none" stroke="#666666" stroke-width="1.1" d="M835.42,-530.48C843.61,-534.94 851.14,-540.57 857,-547.68 963.39,-676.93 810.82,-793.54 922,-918.68 977.47,-981.12 1030.76,-929.08 1102,-972.68 1158.48,-1007.25 1208.04,-1068.69 1232.78,-1102.58"/>
<polygon fill="#666666" stroke="#666666" stroke-width="1.1" points="1231.02,-1104.33 1237.11,-1108.57 1235,-1101.46 1231.02,-1104.33"/>
</g>
<!-- termin&#45;components&#45;voxels&#45;&gt;termin&#45;navmesh -->
<g id="edge39" class="edge">
<title>termin&#45;components&#45;voxels&#45;&gt;termin&#45;navmesh</title>
<path fill="none" stroke="#666666" stroke-width="1.1" d="M703.37,-563.64C649.33,-551.52 570.45,-541.84 507,-566.68 321.77,-639.21 230.35,-896.35 205.58,-977.77"/>
<polygon fill="#666666" stroke="#666666" stroke-width="1.1" points="203.18,-977.24 203.52,-984.65 207.88,-978.65 203.18,-977.24"/>
</g>
<!-- termin&#45;physics&#45;fem&#45;&gt;termin&#45;app -->
<g id="edge67" class="edge">
<title>termin&#45;physics&#45;fem&#45;&gt;termin&#45;app</title>
<path fill="none" stroke="#666666" stroke-width="1.1" d="M827.67,-703.91C838.62,-699.05 849.09,-692.5 857,-683.68 932.51,-599.5 842.23,-517.84 922,-437.68 1058.77,-300.25 1317.5,-313.15 1420.3,-324.65"/>
<polygon fill="#666666" stroke="#666666" stroke-width="1.1" points="1420.19,-327.1 1427.42,-325.47 1420.75,-322.24 1420.19,-327.1"/>
</g>
<!-- termin&#45;physics&#45;fem&#45;&gt;termin&#45;default&#45;assets -->
<g id="edge68" class="edge">
<title>termin&#45;physics&#45;fem&#45;&gt;termin&#45;default&#45;assets</title>
<path fill="none" stroke="#666666" stroke-width="1.1" d="M827.8,-723.65C954.95,-736.45 1253.46,-766.49 1391.57,-780.39"/>
<polygon fill="#666666" stroke="#666666" stroke-width="1.1" points="1391.61,-782.86 1398.82,-781.12 1392.1,-777.98 1391.61,-782.86"/>
</g>
<!-- termin&#45;assets&#45;&gt;termin&#45;skeleton -->
<g id="edge13" class="edge">
<title>termin&#45;assets&#45;&gt;termin&#45;skeleton</title>
<path fill="none" stroke="#666666" stroke-width="1.1" d="M420.96,-1405.57C430.71,-1400.8 440.9,-1395.38 450,-1389.68 566.38,-1316.73 689.95,-1208.48 741.58,-1161.65"/>
<polygon fill="#666666" stroke="#666666" stroke-width="1.1" points="743.4,-1163.3 746.93,-1156.78 740.1,-1159.68 743.4,-1163.3"/>
</g>
<!-- termin&#45;assets&#45;&gt;termin&#45;components&#45;voxels -->
<g id="edge10" class="edge">
<title>termin&#45;assets&#45;&gt;termin&#45;components&#45;voxels</title>
<path fill="none" stroke="#666666" stroke-width="1.1" d="M423.86,-1410.41C433.87,-1405.43 443.45,-1398.7 450,-1389.68 560.94,-1236.89 453.78,-1149.85 507,-968.68 538.38,-861.85 566.5,-842.85 613,-741.68 638.67,-685.84 624.71,-657.23 670,-615.68 675.2,-610.91 681.12,-606.8 687.4,-603.26"/>
<polygon fill="#666666" stroke="#666666" stroke-width="1.1" points="688.72,-605.33 693.78,-599.91 686.45,-600.99 688.72,-605.33"/>
</g>
<!-- termin&#45;components&#45;foliage -->
<g id="node42" class="node">
<title>termin&#45;components&#45;foliage</title>
<path fill="#f7f7f7" stroke="#444444" d="M836.5,-1557.68C836.5,-1557.68 698.5,-1557.68 698.5,-1557.68 692.5,-1557.68 686.5,-1551.68 686.5,-1545.68 686.5,-1545.68 686.5,-1533.68 686.5,-1533.68 686.5,-1527.68 692.5,-1521.68 698.5,-1521.68 698.5,-1521.68 836.5,-1521.68 836.5,-1521.68 842.5,-1521.68 848.5,-1527.68 848.5,-1533.68 848.5,-1533.68 848.5,-1545.68 848.5,-1545.68 848.5,-1551.68 842.5,-1557.68 836.5,-1557.68"/>
<text text-anchor="middle" x="767.5" y="-1536.88" font-family="DejaVu Sans" font-size="11.00">termin&#45;components&#45;foliage</text>
</g>
<!-- termin&#45;assets&#45;&gt;termin&#45;components&#45;foliage -->
<g id="edge9" class="edge">
<title>termin&#45;assets&#45;&gt;termin&#45;components&#45;foliage</title>
<path fill="none" stroke="#666666" stroke-width="1.1" d="M423.52,-1436.88C490.92,-1457.08 620.2,-1495.83 699.35,-1519.56"/>
<polygon fill="#666666" stroke="#666666" stroke-width="1.1" points="698.97,-1522 706.38,-1521.66 700.38,-1517.3 698.97,-1522"/>
</g>
<!-- termin&#45;assets&#45;&gt;termin&#45;glb -->
<g id="edge11" class="edge">
<title>termin&#45;assets&#45;&gt;termin&#45;glb</title>
<path fill="none" stroke="#666666" stroke-width="1.1" d="M423.52,-1422.77C498.69,-1421.22 650.84,-1418.07 724.56,-1416.55"/>
<polygon fill="#666666" stroke="#666666" stroke-width="1.1" points="724.93,-1418.99 731.88,-1416.4 724.83,-1414.09 724.93,-1418.99"/>
</g>
<!-- termin&#45;assets&#45;&gt;termin&#45;prefab -->
<g id="edge12" class="edge">
<title>termin&#45;assets&#45;&gt;termin&#45;prefab</title>
<path fill="none" stroke="#666666" stroke-width="1.1" d="M423.52,-1415.04C495.58,-1400.89 638.38,-1372.84 715.02,-1357.79"/>
<polygon fill="#666666" stroke="#666666" stroke-width="1.1" points="715.83,-1360.13 722.23,-1356.38 714.89,-1355.32 715.83,-1360.13"/>
</g>
<!-- termin&#45;nanobind&#45;sdk -->
<g id="node30" class="node">
<title>termin&#45;nanobind&#45;sdk</title>
<path fill="#f7f7f7" stroke="#444444" d="M430,-1373.68C430,-1373.68 327,-1373.68 327,-1373.68 321,-1373.68 315,-1367.68 315,-1361.68 315,-1361.68 315,-1349.68 315,-1349.68 315,-1343.68 321,-1337.68 327,-1337.68 327,-1337.68 430,-1337.68 430,-1337.68 436,-1337.68 442,-1343.68 442,-1349.68 442,-1349.68 442,-1361.68 442,-1361.68 442,-1367.68 436,-1373.68 430,-1373.68"/>
<text text-anchor="middle" x="378.5" y="-1352.88" font-family="DejaVu Sans" font-size="11.00">termin&#45;nanobind&#45;sdk</text>
</g>
<!-- termin&#45;nanobind&#45;sdk&#45;&gt;termin&#45;base -->
<g id="edge62" class="edge">
<title>termin&#45;nanobind&#45;sdk&#45;&gt;termin&#45;base</title>
<path fill="none" stroke="#666666" stroke-width="1.1" d="M326.39,-1337.63C319.82,-1335.08 313.22,-1332.39 307,-1329.68 283.77,-1319.55 258.47,-1306.83 238.16,-1296.18"/>
<polygon fill="#666666" stroke="#666666" stroke-width="1.1" points="239.08,-1293.89 231.74,-1292.8 236.79,-1298.23 239.08,-1293.89"/>
</g>
<!-- termin&#45;components&#45;render&#45;&gt;termin&#45;render&#45;passes -->
<g id="edge33" class="edge">
<title>termin&#45;components&#45;render&#45;&gt;termin&#45;render&#45;passes</title>
<path fill="none" stroke="#666666" stroke-width="1.1" d="M1021,-1645.51C1056.31,-1565.34 1198.15,-1243.28 1238.65,-1151.32"/>
<polygon fill="#666666" stroke="#666666" stroke-width="1.1" points="1240.92,-1152.25 1241.5,-1144.85 1236.43,-1150.27 1240.92,-1152.25"/>
</g>
<!-- termin&#45;runtime -->
<g id="node50" class="node">
<title>termin&#45;runtime</title>
<path fill="#f7f7f7" stroke="#444444" d="M1287,-1410.68C1287,-1410.68 1214,-1410.68 1214,-1410.68 1208,-1410.68 1202,-1404.68 1202,-1398.68 1202,-1398.68 1202,-1386.68 1202,-1386.68 1202,-1380.68 1208,-1374.68 1214,-1374.68 1214,-1374.68 1287,-1374.68 1287,-1374.68 1293,-1374.68 1299,-1380.68 1299,-1386.68 1299,-1386.68 1299,-1398.68 1299,-1398.68 1299,-1404.68 1293,-1410.68 1287,-1410.68"/>
<text text-anchor="middle" x="1250.5" y="-1389.88" font-family="DejaVu Sans" font-size="11.00">termin&#45;runtime</text>
</g>
<!-- termin&#45;components&#45;render&#45;&gt;termin&#45;runtime -->
<g id="edge34" class="edge">
<title>termin&#45;components&#45;render&#45;&gt;termin&#45;runtime</title>
<path fill="none" stroke="#666666" stroke-width="1.1" d="M1028.88,-1645.48C1070.45,-1597.85 1182.43,-1469.54 1228.87,-1416.32"/>
<polygon fill="#666666" stroke="#666666" stroke-width="1.1" points="1230.93,-1417.69 1233.68,-1410.8 1227.24,-1414.47 1230.93,-1417.69"/>
</g>
<!-- termin&#45;display&#45;&gt;termin&#45;components&#45;render -->
<g id="edge41" class="edge">
<title>termin&#45;display&#45;&gt;termin&#45;components&#45;render</title>
<path fill="none" stroke="#666666" stroke-width="1.1" d="M814.11,-1663.68C844.85,-1663.68 886.4,-1663.68 923.4,-1663.68"/>
<polygon fill="#666666" stroke="#666666" stroke-width="1.1" points="923.73,-1666.13 930.73,-1663.68 923.73,-1661.23 923.73,-1666.13"/>
</g>
<!-- termin&#45;display&#45;&gt;termin&#45;engine -->
<g id="edge42" class="edge">
<title>termin&#45;display&#45;&gt;termin&#45;engine</title>
<path fill="none" stroke="#666666" stroke-width="1.1" d="M788.07,-1645.56C806.65,-1627.95 834.94,-1600.08 857,-1573.68 912.67,-1507.05 969.35,-1421.17 995.74,-1379.91"/>
<polygon fill="#666666" stroke="#666666" stroke-width="1.1" points="997.86,-1381.14 999.56,-1373.92 993.73,-1378.51 997.86,-1381.14"/>
</g>
<!-- termin&#45;graphics&#45;&gt;termin&#45;voxels -->
<g id="edge51" class="edge">
<title>termin&#45;graphics&#45;&gt;termin&#45;voxels</title>
<path fill="none" stroke="#666666" stroke-width="1.1" d="M369.7,-1645.58C355.77,-1612.76 326.27,-1541.08 307,-1478.68 274.9,-1374.76 312.42,-1329.76 250,-1240.68 247.04,-1236.46 243.38,-1232.62 239.37,-1229.18"/>
<polygon fill="#666666" stroke="#666666" stroke-width="1.1" points="240.75,-1227.14 233.74,-1224.72 237.71,-1230.98 240.75,-1227.14"/>
</g>
<!-- termin&#45;graphics&#45;&gt;termin&#45;render -->
<g id="edge50" class="edge">
<title>termin&#45;graphics&#45;&gt;termin&#45;render</title>
<path fill="none" stroke="#666666" stroke-width="1.1" d="M429.02,-1668.1C453.49,-1670.28 482.98,-1672.91 507.68,-1675.11"/>
<polygon fill="#666666" stroke="#666666" stroke-width="1.1" points="507.65,-1677.56 514.84,-1675.75 508.09,-1672.68 507.65,-1677.56"/>
</g>
<!-- termin&#45;gui -->
<g id="node38" class="node">
<title>termin&#45;gui</title>
<path fill="#f7f7f7" stroke="#444444" d="M583.5,-450.68C583.5,-450.68 536.5,-450.68 536.5,-450.68 530.5,-450.68 524.5,-444.68 524.5,-438.68 524.5,-438.68 524.5,-426.68 524.5,-426.68 524.5,-420.68 530.5,-414.68 536.5,-414.68 536.5,-414.68 583.5,-414.68 583.5,-414.68 589.5,-414.68 595.5,-420.68 595.5,-426.68 595.5,-426.68 595.5,-438.68 595.5,-438.68 595.5,-444.68 589.5,-450.68 583.5,-450.68"/>
<text text-anchor="middle" x="560" y="-429.88" font-family="DejaVu Sans" font-size="11.00">termin&#45;gui</text>
</g>
<!-- termin&#45;graphics&#45;&gt;termin&#45;gui -->
<g id="edge48" class="edge">
<title>termin&#45;graphics&#45;&gt;termin&#45;gui</title>
<path fill="none" stroke="#666666" stroke-width="1.1" d="M388.24,-1645.54C403.52,-1612.97 434.9,-1542.04 450,-1478.68 462.25,-1427.27 541.54,-612.84 556.55,-458"/>
<polygon fill="#666666" stroke="#666666" stroke-width="1.1" points="559.02,-457.93 557.25,-450.72 554.14,-457.46 559.02,-457.93"/>
</g>
<!-- termin&#45;graphics&#45;&gt;termin&#45;glb -->
<g id="edge47" class="edge">
<title>termin&#45;graphics&#45;&gt;termin&#45;glb</title>
<path fill="none" stroke="#666666" stroke-width="1.1" d="M405.69,-1645.62C431.34,-1628.03 471.61,-1600.65 507,-1577.68 586.03,-1526.38 680.15,-1468.38 730.49,-1437.61"/>
<polygon fill="#666666" stroke="#666666" stroke-width="1.1" points="732.01,-1439.55 736.71,-1433.81 729.46,-1435.37 732.01,-1439.55"/>
</g>
<!-- termin&#45;materials -->
<g id="node45" class="node">
<title>termin&#45;materials</title>
<path fill="#f7f7f7" stroke="#444444" d="M601,-1629.68C601,-1629.68 519,-1629.68 519,-1629.68 513,-1629.68 507,-1623.68 507,-1617.68 507,-1617.68 507,-1605.68 507,-1605.68 507,-1599.68 513,-1593.68 519,-1593.68 519,-1593.68 601,-1593.68 601,-1593.68 607,-1593.68 613,-1599.68 613,-1605.68 613,-1605.68 613,-1617.68 613,-1617.68 613,-1623.68 607,-1629.68 601,-1629.68"/>
<text text-anchor="middle" x="560" y="-1608.88" font-family="DejaVu Sans" font-size="11.00">termin&#45;materials</text>
</g>
<!-- termin&#45;graphics&#45;&gt;termin&#45;materials -->
<g id="edge49" class="edge">
<title>termin&#45;graphics&#45;&gt;termin&#45;materials</title>
<path fill="none" stroke="#666666" stroke-width="1.1" d="M429.02,-1649.34C450.94,-1642.99 476.88,-1635.47 499.81,-1628.83"/>
<polygon fill="#666666" stroke="#666666" stroke-width="1.1" points="500.77,-1631.1 506.82,-1626.8 499.41,-1626.39 500.77,-1631.1"/>
</g>
<!-- termin&#45;lighting&#45;&gt;termin&#45;render -->
<g id="edge59" class="edge">
<title>termin&#45;lighting&#45;&gt;termin&#45;render</title>
<path fill="none" stroke="#666666" stroke-width="1.1" d="M426.19,-1718.16C451.27,-1710.89 482.23,-1701.92 507.94,-1694.47"/>
<polygon fill="#666666" stroke="#666666" stroke-width="1.1" points="508.66,-1696.82 514.7,-1692.51 507.3,-1692.11 508.66,-1696.82"/>
</g>
<!-- termin&#45;render&#45;&gt;termin&#45;navmesh -->
<g id="edge72" class="edge">
<title>termin&#45;render&#45;&gt;termin&#45;navmesh</title>
<path fill="none" stroke="#666666" stroke-width="1.1" d="M543.47,-1697.73C524.08,-1718.73 488.71,-1752.25 450,-1765.68 389.96,-1786.52 353.66,-1808.84 307,-1765.68 187.7,-1655.35 332.52,-1176.66 250,-1036.68 247.61,-1032.62 244.52,-1028.96 241.04,-1025.67"/>
<polygon fill="#666666" stroke="#666666" stroke-width="1.1" points="242.23,-1023.46 235.3,-1020.8 239.06,-1027.2 242.23,-1023.46"/>
</g>
<!-- termin&#45;render&#45;&gt;termin&#45;display -->
<g id="edge71" class="edge">
<title>termin&#45;render&#45;&gt;termin&#45;display</title>
<path fill="none" stroke="#666666" stroke-width="1.1" d="M605.08,-1676.25C636.9,-1673.77 680.01,-1670.42 713.68,-1667.8"/>
<polygon fill="#666666" stroke="#666666" stroke-width="1.1" points="713.92,-1670.23 720.71,-1667.25 713.54,-1665.35 713.92,-1670.23"/>
</g>
<!-- termin&#45;render&#45;&gt;termin&#45;components&#45;foliage -->
<g id="edge70" class="edge">
<title>termin&#45;render&#45;&gt;termin&#45;components&#45;foliage</title>
<path fill="none" stroke="#666666" stroke-width="1.1" d="M588.88,-1661.64C596.71,-1656.52 605.21,-1650.92 613,-1645.68 655.46,-1617.15 703.97,-1583.47 734.89,-1561.86"/>
<polygon fill="#666666" stroke="#666666" stroke-width="1.1" points="736.5,-1563.72 740.83,-1557.7 733.69,-1559.7 736.5,-1563.72"/>
</g>
<!-- termin&#45;engine&#45;&gt;termin&#45;app -->
<g id="edge44" class="edge">
<title>termin&#45;engine&#45;&gt;termin&#45;app</title>
<path fill="none" stroke="#666666" stroke-width="1.1" d="M1057.91,-1351.59C1073.7,-1348.02 1090.37,-1341.5 1102,-1329.68 1178.59,-1251.81 1093.44,-1173.42 1167,-1092.68 1222.98,-1031.24 1288.97,-1090.7 1342,-1026.68 1364.11,-999.99 1442.28,-477.91 1460.28,-355.99"/>
<polygon fill="#666666" stroke="#666666" stroke-width="1.1" points="1462.73,-356.15 1461.33,-348.86 1457.89,-355.43 1462.73,-356.15"/>
</g>
<!-- termin&#45;android -->
<g id="node40" class="node">
<title>termin&#45;android</title>
<path fill="#f7f7f7" stroke="#444444" d="M1501,-1295.68C1501,-1295.68 1429,-1295.68 1429,-1295.68 1423,-1295.68 1417,-1289.68 1417,-1283.68 1417,-1283.68 1417,-1271.68 1417,-1271.68 1417,-1265.68 1423,-1259.68 1429,-1259.68 1429,-1259.68 1501,-1259.68 1501,-1259.68 1507,-1259.68 1513,-1265.68 1513,-1271.68 1513,-1271.68 1513,-1283.68 1513,-1283.68 1513,-1289.68 1507,-1295.68 1501,-1295.68"/>
<text text-anchor="middle" x="1465" y="-1274.88" font-family="DejaVu Sans" font-size="11.00">termin&#45;android</text>
</g>
<!-- termin&#45;engine&#45;&gt;termin&#45;android -->
<g id="edge43" class="edge">
<title>termin&#45;engine&#45;&gt;termin&#45;android</title>
<path fill="none" stroke="#666666" stroke-width="1.1" d="M1057.89,-1347.92C1141.3,-1333.49 1319.85,-1302.61 1409.82,-1287.05"/>
<polygon fill="#666666" stroke="#666666" stroke-width="1.1" points="1410.45,-1289.43 1416.93,-1285.82 1409.61,-1284.6 1410.45,-1289.43"/>
</g>
<!-- termin&#45;openxr -->
<g id="node46" class="node">
<title>termin&#45;openxr</title>
<path fill="#f7f7f7" stroke="#444444" d="M1499.5,-1184.68C1499.5,-1184.68 1430.5,-1184.68 1430.5,-1184.68 1424.5,-1184.68 1418.5,-1178.68 1418.5,-1172.68 1418.5,-1172.68 1418.5,-1160.68 1418.5,-1160.68 1418.5,-1154.68 1424.5,-1148.68 1430.5,-1148.68 1430.5,-1148.68 1499.5,-1148.68 1499.5,-1148.68 1505.5,-1148.68 1511.5,-1154.68 1511.5,-1160.68 1511.5,-1160.68 1511.5,-1172.68 1511.5,-1172.68 1511.5,-1178.68 1505.5,-1184.68 1499.5,-1184.68"/>
<text text-anchor="middle" x="1465" y="-1163.88" font-family="DejaVu Sans" font-size="11.00">termin&#45;openxr</text>
</g>
<!-- termin&#45;engine&#45;&gt;termin&#45;openxr -->
<g id="edge45" class="edge">
<title>termin&#45;engine&#45;&gt;termin&#45;openxr</title>
<path fill="none" stroke="#666666" stroke-width="1.1" d="M1057.62,-1344.85C1072.03,-1340.77 1087.92,-1335.65 1102,-1329.68 1132.61,-1316.71 1137.2,-1307.42 1167,-1292.68 1250.87,-1251.19 1351.76,-1210.2 1411.74,-1186.72"/>
<polygon fill="#666666" stroke="#666666" stroke-width="1.1" points="1412.86,-1188.91 1418.48,-1184.08 1411.07,-1184.35 1412.86,-1188.91"/>
</g>
<!-- termin&#45;engine&#45;&gt;termin&#45;runtime -->
<g id="edge46" class="edge">
<title>termin&#45;engine&#45;&gt;termin&#45;runtime</title>
<path fill="none" stroke="#666666" stroke-width="1.1" d="M1057.76,-1362.69C1096.63,-1368.77 1153.03,-1377.59 1194.61,-1384.1"/>
<polygon fill="#666666" stroke="#666666" stroke-width="1.1" points="1194.38,-1386.54 1201.67,-1385.2 1195.14,-1381.7 1194.38,-1386.54"/>
</g>
<!-- tcplot -->
<g id="node37" class="node">
<title>tcplot</title>
<path fill="#f7f7f7" stroke="#444444" d="M782.5,-382.68C782.5,-382.68 752.5,-382.68 752.5,-382.68 746.5,-382.68 740.5,-376.68 740.5,-370.68 740.5,-370.68 740.5,-358.68 740.5,-358.68 740.5,-352.68 746.5,-346.68 752.5,-346.68 752.5,-346.68 782.5,-346.68 782.5,-346.68 788.5,-346.68 794.5,-352.68 794.5,-358.68 794.5,-358.68 794.5,-370.68 794.5,-370.68 794.5,-376.68 788.5,-382.68 782.5,-382.68"/>
<text text-anchor="middle" x="767.5" y="-361.88" font-family="DejaVu Sans" font-size="11.00">tcplot</text>
</g>
<!-- tcplot&#45;&gt;termin&#45;csharp -->
<g id="edge1" class="edge">
<title>tcplot&#45;&gt;termin&#45;csharp</title>
<path fill="none" stroke="#666666" stroke-width="1.1" d="M776.03,-346.39C794.06,-305.36 844.09,-206.63 922,-168.68 1149.21,-58.03 1466.33,-141.12 1589.12,-180.75"/>
<polygon fill="#666666" stroke="#666666" stroke-width="1.1" points="1588.46,-183.11 1595.87,-182.95 1589.97,-178.45 1588.46,-183.11"/>
</g>
<!-- termin&#45;gui&#45;&gt;termin&#45;csg -->
<g id="edge54" class="edge">
<title>termin&#45;gui&#45;&gt;termin&#45;csg</title>
<path fill="none" stroke="#666666" stroke-width="1.1" d="M524.36,-449.14C468.26,-477.8 358.62,-542.53 307,-632.68 216.89,-790.04 346.89,-883.41 250,-1036.68 247.24,-1041.04 243.71,-1044.96 239.77,-1048.46"/>
<polygon fill="#666666" stroke="#666666" stroke-width="1.1" points="238.11,-1046.65 234.21,-1052.96 241.19,-1050.46 238.11,-1046.65"/>
</g>
<!-- termin&#45;gui&#45;&gt;termin&#45;components&#45;ui -->
<g id="edge53" class="edge">
<title>termin&#45;gui&#45;&gt;termin&#45;components&#45;ui</title>
<path fill="none" stroke="#666666" stroke-width="1.1" d="M592.65,-450.82C613.99,-462.51 643.07,-477.39 670,-487.68 677.26,-490.46 684.93,-493.06 692.65,-495.46"/>
<polygon fill="#666666" stroke="#666666" stroke-width="1.1" points="692.33,-497.92 699.74,-497.61 693.75,-493.23 692.33,-497.92"/>
</g>
<!-- termin&#45;gui&#45;&gt;tcplot -->
<g id="edge52" class="edge">
<title>termin&#45;gui&#45;&gt;tcplot</title>
<path fill="none" stroke="#666666" stroke-width="1.1" d="M595.86,-421.15C634.35,-408.41 695.83,-388.07 733.54,-375.59"/>
<polygon fill="#666666" stroke="#666666" stroke-width="1.1" points="734.42,-377.88 740.29,-373.35 732.88,-373.23 734.42,-377.88"/>
</g>
<!-- termin&#45;nodegraph -->
<g id="node39" class="node">
<title>termin&#45;nodegraph</title>
<path fill="#f7f7f7" stroke="#444444" d="M812,-450.68C812,-450.68 723,-450.68 723,-450.68 717,-450.68 711,-444.68 711,-438.68 711,-438.68 711,-426.68 711,-426.68 711,-420.68 717,-414.68 723,-414.68 723,-414.68 812,-414.68 812,-414.68 818,-414.68 824,-420.68 824,-426.68 824,-426.68 824,-438.68 824,-438.68 824,-444.68 818,-450.68 812,-450.68"/>
<text text-anchor="middle" x="767.5" y="-429.88" font-family="DejaVu Sans" font-size="11.00">termin&#45;nodegraph</text>
</g>
<!-- termin&#45;gui&#45;&gt;termin&#45;nodegraph -->
<g id="edge55" class="edge">
<title>termin&#45;gui&#45;&gt;termin&#45;nodegraph</title>
<path fill="none" stroke="#666666" stroke-width="1.1" d="M595.86,-432.68C625.26,-432.68 668.08,-432.68 703.47,-432.68"/>
<polygon fill="#666666" stroke="#666666" stroke-width="1.1" points="703.9,-435.13 710.9,-432.68 703.9,-430.23 703.9,-435.13"/>
</g>
<!-- termin&#45;nodegraph&#45;&gt;termin&#45;app -->
<g id="edge65" class="edge">
<title>termin&#45;nodegraph&#45;&gt;termin&#45;app</title>
<path fill="none" stroke="#666666" stroke-width="1.1" d="M824.05,-419.25C836.03,-414.33 847.83,-407.66 857,-398.68 911.55,-345.28 858.62,-282.24 922,-239.68 1076.97,-135.62 1164.84,-180.89 1342,-239.68 1381.93,-252.94 1419.39,-284.91 1442,-307.19"/>
<polygon fill="#666666" stroke="#666666" stroke-width="1.1" points="1440.47,-309.12 1447.15,-312.34 1443.94,-305.66 1440.47,-309.12"/>
</g>
<!-- termin&#45;render&#45;passes&#45;&gt;termin&#45;app -->
<g id="edge74" class="edge">
<title>termin&#45;render&#45;passes&#45;&gt;termin&#45;app</title>
<path fill="none" stroke="#666666" stroke-width="1.1" d="M1311.95,-1108.67C1323.43,-1102.72 1334.26,-1094.9 1342,-1084.68 1347.7,-1077.16 1439.79,-486.44 1460.07,-355.99"/>
<polygon fill="#666666" stroke="#666666" stroke-width="1.1" points="1462.54,-356.04 1461.19,-348.75 1457.7,-355.29 1462.54,-356.04"/>
</g>
<!-- termin&#45;render&#45;passes&#45;&gt;termin&#45;android -->
<g id="edge73" class="edge">
<title>termin&#45;render&#45;passes&#45;&gt;termin&#45;android</title>
<path fill="none" stroke="#666666" stroke-width="1.1" d="M1277.13,-1144.9C1316.25,-1172.69 1390.72,-1225.61 1432.88,-1255.57"/>
<polygon fill="#666666" stroke="#666666" stroke-width="1.1" points="1431.48,-1257.58 1438.61,-1259.64 1434.32,-1253.59 1431.48,-1257.58"/>
</g>
<!-- termin&#45;render&#45;passes&#45;&gt;termin&#45;default&#45;assets -->
<g id="edge75" class="edge">
<title>termin&#45;render&#45;passes&#45;&gt;termin&#45;default&#45;assets</title>
<path fill="none" stroke="#666666" stroke-width="1.1" d="M1307.43,-1108.62C1319.99,-1102.55 1332.42,-1094.7 1342,-1084.68 1418.87,-1004.29 1450.03,-868.78 1460.03,-812.92"/>
<polygon fill="#666666" stroke="#666666" stroke-width="1.1" points="1462.47,-813.2 1461.25,-805.89 1457.64,-812.36 1462.47,-813.2"/>
</g>
<!-- termin&#45;render&#45;passes&#45;&gt;termin&#45;openxr -->
<g id="edge76" class="edge">
<title>termin&#45;render&#45;passes&#45;&gt;termin&#45;openxr</title>
<path fill="none" stroke="#666666" stroke-width="1.1" d="M1316.7,-1138.96C1347.07,-1144.67 1382.72,-1151.38 1411.35,-1156.77"/>
<polygon fill="#666666" stroke="#666666" stroke-width="1.1" points="1411.13,-1159.22 1418.46,-1158.11 1412.04,-1154.41 1411.13,-1159.22"/>
</g>
</g>
</svg>
