<?xml version="1.0" encoding="UTF-8" standalone="no"?>
<!DOCTYPE svg PUBLIC "-//W3C//DTD SVG 1.1//EN"
 "http://www.w3.org/Graphics/SVG/1.1/DTD/svg11.dtd">
<!-- Generated by graphviz version 2.43.0 (0)
 -->
<!-- Title: termin_dependencies Pages: 1 -->
<svg width="1589pt" height="655pt"
 viewBox="0.00 0.00 1588.80 655.17" xmlns="http://www.w3.org/2000/svg" xmlns:xlink="http://www.w3.org/1999/xlink">
<g id="graph0" class="graph" transform="scale(1 1) rotate(0) translate(14.4 640.77)">
<title>termin_dependencies</title>
<polygon fill="white" stroke="transparent" points="-14.4,14.4 -14.4,-640.77 1574.4,-640.77 1574.4,14.4 -14.4,14.4"/>
<g id="clust1" class="cluster">
<title>cluster_foundation</title>
<path fill="white" stroke="#d9d9d9" d="M20,-273C20,-273 589,-273 589,-273 595,-273 601,-279 601,-285 601,-285 601,-472 601,-472 601,-478 595,-484 589,-484 589,-484 20,-484 20,-484 14,-484 8,-478 8,-472 8,-472 8,-285 8,-285 8,-279 14,-273 20,-273"/>
<text text-anchor="middle" x="304.5" y="-468.8" font-family="Times,serif" font-size="14.00">Foundation</text>
</g>
<g id="clust2" class="cluster">
<title>cluster_render</title>
<path fill="white" stroke="#d9d9d9" d="M332,-190C332,-190 1060,-190 1060,-190 1066,-190 1072,-196 1072,-202 1072,-202 1072,-253 1072,-253 1072,-259 1066,-265 1060,-265 1060,-265 332,-265 332,-265 326,-265 320,-259 320,-253 320,-253 320,-202 320,-202 320,-196 326,-190 332,-190"/>
<text text-anchor="middle" x="696" y="-249.8" font-family="Times,serif" font-size="14.00">Render Stack</text>
</g>
<g id="clust3" class="cluster">
<title>cluster_components</title>
<path fill="white" stroke="#d9d9d9" d="M662,-340C662,-340 833,-340 833,-340 839,-340 845,-346 845,-352 845,-352 845,-539 845,-539 845,-545 839,-551 833,-551 833,-551 662,-551 662,-551 656,-551 650,-545 650,-539 650,-539 650,-352 650,-352 650,-346 656,-340 662,-340"/>
<text text-anchor="middle" x="747.5" y="-535.8" font-family="Times,serif" font-size="14.00">Other Components</text>
</g>
<g id="clust4" class="cluster">
<title>cluster_runtime</title>
<path fill="white" stroke="#d9d9d9" d="M1144,-241C1144,-241 1227,-241 1227,-241 1233,-241 1239,-247 1239,-253 1239,-253 1239,-304 1239,-304 1239,-310 1233,-316 1227,-316 1227,-316 1144,-316 1144,-316 1138,-316 1132,-310 1132,-304 1132,-304 1132,-253 1132,-253 1132,-247 1138,-241 1144,-241"/>
<text text-anchor="middle" x="1185.5" y="-300.8" font-family="Times,serif" font-size="14.00">Runtime</text>
</g>
<g id="clust5" class="cluster">
<title>cluster_ui</title>
<path fill="white" stroke="#d9d9d9" d="M951.5,-107C951.5,-107 1238,-107 1238,-107 1244,-107 1250,-113 1250,-119 1250,-119 1250,-170 1250,-170 1250,-176 1244,-182 1238,-182 1238,-182 951.5,-182 951.5,-182 945.5,-182 939.5,-176 939.5,-170 939.5,-170 939.5,-119 939.5,-119 939.5,-113 945.5,-107 951.5,-107"/>
<text text-anchor="middle" x="1094.75" y="-166.8" font-family="Times,serif" font-size="14.00">UI</text>
</g>
<g id="clust6" class="cluster">
<title>cluster_application</title>
<path fill="white" stroke="#d9d9d9" d="M1311,-107C1311,-107 1400,-107 1400,-107 1406,-107 1412,-113 1412,-119 1412,-119 1412,-238 1412,-238 1412,-244 1406,-250 1400,-250 1400,-250 1311,-250 1311,-250 1305,-250 1299,-244 1299,-238 1299,-238 1299,-119 1299,-119 1299,-113 1305,-107 1311,-107"/>
<text text-anchor="middle" x="1355.5" y="-234.8" font-family="Times,serif" font-size="14.00">Application</text>
</g>
<!-- termin&#45;base -->
<g id="node1" class="node">
<title>termin&#45;base</title>
<path fill="#f7f7f7" stroke="#444444" d="M85,-385C85,-385 28,-385 28,-385 22,-385 16,-379 16,-373 16,-373 16,-361 16,-361 16,-355 22,-349 28,-349 28,-349 85,-349 85,-349 91,-349 97,-355 97,-361 97,-361 97,-373 97,-373 97,-379 91,-385 85,-385"/>
<text text-anchor="middle" x="56.5" y="-364.2" font-family="DejaVu Sans" font-size="11.00">termin&#45;base</text>
</g>
<!-- termin&#45;mesh -->
<g id="node2" class="node">
<title>termin&#45;mesh</title>
<path fill="#f7f7f7" stroke="#444444" d="M242.5,-453C242.5,-453 182.5,-453 182.5,-453 176.5,-453 170.5,-447 170.5,-441 170.5,-441 170.5,-429 170.5,-429 170.5,-423 176.5,-417 182.5,-417 182.5,-417 242.5,-417 242.5,-417 248.5,-417 254.5,-423 254.5,-429 254.5,-429 254.5,-441 254.5,-441 254.5,-447 248.5,-453 242.5,-453"/>
<text text-anchor="middle" x="212.5" y="-432.2" font-family="DejaVu Sans" font-size="11.00">termin&#45;mesh</text>
</g>
<!-- termin&#45;base&#45;&gt;termin&#45;mesh -->
<g id="edge1" class="edge">
<title>termin&#45;base&#45;&gt;termin&#45;mesh</title>
<path fill="none" stroke="#666666" stroke-width="1.1" d="M97.16,-384.51C117.59,-393.53 142.65,-404.6 164.1,-414.07"/>
<polygon fill="#666666" stroke="#666666" stroke-width="1.1" points="163.24,-416.37 170.63,-416.96 165.22,-411.89 163.24,-416.37"/>
</g>
<!-- termin&#45;inspect -->
<g id="node3" class="node">
<title>termin&#45;inspect</title>
<path fill="#f7f7f7" stroke="#444444" d="M247.5,-385C247.5,-385 177.5,-385 177.5,-385 171.5,-385 165.5,-379 165.5,-373 165.5,-373 165.5,-361 165.5,-361 165.5,-355 171.5,-349 177.5,-349 177.5,-349 247.5,-349 247.5,-349 253.5,-349 259.5,-355 259.5,-361 259.5,-361 259.5,-373 259.5,-373 259.5,-379 253.5,-385 247.5,-385"/>
<text text-anchor="middle" x="212.5" y="-364.2" font-family="DejaVu Sans" font-size="11.00">termin&#45;inspect</text>
</g>
<!-- termin&#45;base&#45;&gt;termin&#45;inspect -->
<g id="edge2" class="edge">
<title>termin&#45;base&#45;&gt;termin&#45;inspect</title>
<path fill="none" stroke="#666666" stroke-width="1.1" d="M97.16,-367C115.73,-367 138.13,-367 158.16,-367"/>
<polygon fill="#666666" stroke="#666666" stroke-width="1.1" points="158.42,-369.45 165.42,-367 158.42,-364.55 158.42,-369.45"/>
</g>
<!-- termin&#45;modules -->
<g id="node6" class="node">
<title>termin&#45;modules</title>
<path fill="#f7f7f7" stroke="#444444" d="M251,-317C251,-317 174,-317 174,-317 168,-317 162,-311 162,-305 162,-305 162,-293 162,-293 162,-287 168,-281 174,-281 174,-281 251,-281 251,-281 257,-281 263,-287 263,-293 263,-293 263,-305 263,-305 263,-311 257,-317 251,-317"/>
<text text-anchor="middle" x="212.5" y="-296.2" font-family="DejaVu Sans" font-size="11.00">termin&#45;modules</text>
</g>
<!-- termin&#45;base&#45;&gt;termin&#45;modules -->
<g id="edge3" class="edge">
<title>termin&#45;base&#45;&gt;termin&#45;modules</title>
<path fill="none" stroke="#666666" stroke-width="1.1" d="M97.16,-349.49C117.59,-340.47 142.65,-329.4 164.1,-319.93"/>
<polygon fill="#666666" stroke="#666666" stroke-width="1.1" points="165.22,-322.11 170.63,-317.04 163.24,-317.63 165.22,-322.11"/>
</g>
<!-- termin&#45;graphics -->
<g id="node8" class="node">
<title>termin&#45;graphics</title>
<path fill="#f7f7f7" stroke="#444444" d="M417,-234C417,-234 340,-234 340,-234 334,-234 328,-228 328,-222 328,-222 328,-210 328,-210 328,-204 334,-198 340,-198 340,-198 417,-198 417,-198 423,-198 429,-204 429,-210 429,-210 429,-222 429,-222 429,-228 423,-234 417,-234"/>
<text text-anchor="middle" x="378.5" y="-213.2" font-family="DejaVu Sans" font-size="11.00">termin&#45;graphics</text>
</g>
<!-- termin&#45;mesh&#45;&gt;termin&#45;graphics -->
<g id="edge4" class="edge">
<title>termin&#45;mesh&#45;&gt;termin&#45;graphics</title>
<path fill="none" stroke="#666666" stroke-width="1.1" d="M245.6,-416.96C251.94,-412.35 258.13,-406.98 263,-401 304.36,-350.16 281.34,-317.92 320,-265 327.11,-255.27 336.53,-246.2 345.68,-238.59"/>
<polygon fill="#666666" stroke="#666666" stroke-width="1.1" points="347.41,-240.34 351.32,-234.04 344.34,-236.53 347.41,-240.34"/>
</g>
<!-- termin&#45;components&#45;collision -->
<g id="node12" class="node">
<title>termin&#45;components&#45;collision</title>
<path fill="#f7f7f7" stroke="#444444" d="M820.5,-384C820.5,-384 674.5,-384 674.5,-384 668.5,-384 662.5,-378 662.5,-372 662.5,-372 662.5,-360 662.5,-360 662.5,-354 668.5,-348 674.5,-348 674.5,-348 820.5,-348 820.5,-348 826.5,-348 832.5,-354 832.5,-360 832.5,-360 832.5,-372 832.5,-372 832.5,-378 826.5,-384 820.5,-384"/>
<text text-anchor="middle" x="747.5" y="-363.2" font-family="DejaVu Sans" font-size="11.00">termin&#45;components&#45;collision</text>
</g>
<!-- termin&#45;mesh&#45;&gt;termin&#45;components&#45;collision -->
<g id="edge5" class="edge">
<title>termin&#45;mesh&#45;&gt;termin&#45;components&#45;collision</title>
<path fill="none" stroke="#666666" stroke-width="1.1" d="M254.76,-433.39C325.85,-430.18 475.86,-421.42 601,-401 624.82,-397.11 650.51,-391.44 673.58,-385.78"/>
<polygon fill="#666666" stroke="#666666" stroke-width="1.1" points="674.44,-388.09 680.65,-384.03 673.26,-383.34 674.44,-388.09"/>
</g>
<!-- termin&#45;components&#45;mesh -->
<g id="node13" class="node">
<title>termin&#45;components&#45;mesh</title>
<path fill="#f7f7f7" stroke="#444444" d="M813.5,-520C813.5,-520 681.5,-520 681.5,-520 675.5,-520 669.5,-514 669.5,-508 669.5,-508 669.5,-496 669.5,-496 669.5,-490 675.5,-484 681.5,-484 681.5,-484 813.5,-484 813.5,-484 819.5,-484 825.5,-490 825.5,-496 825.5,-496 825.5,-508 825.5,-508 825.5,-514 819.5,-520 813.5,-520"/>
<text text-anchor="middle" x="747.5" y="-499.2" font-family="DejaVu Sans" font-size="11.00">termin&#45;components&#45;mesh</text>
</g>
<!-- termin&#45;mesh&#45;&gt;termin&#45;components&#45;mesh -->
<g id="edge6" class="edge">
<title>termin&#45;mesh&#45;&gt;termin&#45;components&#45;mesh</title>
<path fill="none" stroke="#666666" stroke-width="1.1" d="M219.41,-453.06C231.76,-487.4 263.89,-561.37 320,-591 430.43,-649.32 480.79,-624.85 601,-591 646.5,-578.19 691.84,-546.74 719.52,-524.89"/>
<polygon fill="#666666" stroke="#666666" stroke-width="1.1" points="721.22,-526.67 725.15,-520.38 718.15,-522.84 721.22,-526.67"/>
</g>
<!-- termin&#45;scene -->
<g id="node4" class="node">
<title>termin&#45;scene</title>
<path fill="#f7f7f7" stroke="#444444" d="M410,-385C410,-385 347,-385 347,-385 341,-385 335,-379 335,-373 335,-373 335,-361 335,-361 335,-355 341,-349 347,-349 347,-349 410,-349 410,-349 416,-349 422,-355 422,-361 422,-361 422,-373 422,-373 422,-379 416,-385 410,-385"/>
<text text-anchor="middle" x="378.5" y="-364.2" font-family="DejaVu Sans" font-size="11.00">termin&#45;scene</text>
</g>
<!-- termin&#45;inspect&#45;&gt;termin&#45;scene -->
<g id="edge7" class="edge">
<title>termin&#45;inspect&#45;&gt;termin&#45;scene</title>
<path fill="none" stroke="#666666" stroke-width="1.1" d="M259.62,-367C280.81,-367 305.99,-367 327.63,-367"/>
<polygon fill="#666666" stroke="#666666" stroke-width="1.1" points="327.82,-369.45 334.82,-367 327.82,-364.55 327.82,-369.45"/>
</g>
<!-- termin&#45;input -->
<g id="node5" class="node">
<title>termin&#45;input</title>
<path fill="#f7f7f7" stroke="#444444" d="M572.5,-317C572.5,-317 514.5,-317 514.5,-317 508.5,-317 502.5,-311 502.5,-305 502.5,-305 502.5,-293 502.5,-293 502.5,-287 508.5,-281 514.5,-281 514.5,-281 572.5,-281 572.5,-281 578.5,-281 584.5,-287 584.5,-293 584.5,-293 584.5,-305 584.5,-305 584.5,-311 578.5,-317 572.5,-317"/>
<text text-anchor="middle" x="543.5" y="-296.2" font-family="DejaVu Sans" font-size="11.00">termin&#45;input</text>
</g>
<!-- termin&#45;scene&#45;&gt;termin&#45;input -->
<g id="edge8" class="edge">
<title>termin&#45;scene&#45;&gt;termin&#45;input</title>
<path fill="none" stroke="#666666" stroke-width="1.1" d="M422.33,-349.13C444.9,-339.71 472.64,-328.14 495.77,-318.49"/>
<polygon fill="#666666" stroke="#666666" stroke-width="1.1" points="496.96,-320.65 502.48,-315.7 495.08,-316.13 496.96,-320.65"/>
</g>
<!-- termin&#45;collision -->
<g id="node7" class="node">
<title>termin&#45;collision</title>
<path fill="#f7f7f7" stroke="#444444" d="M581,-385C581,-385 506,-385 506,-385 500,-385 494,-379 494,-373 494,-373 494,-361 494,-361 494,-355 500,-349 506,-349 506,-349 581,-349 581,-349 587,-349 593,-355 593,-361 593,-361 593,-373 593,-373 593,-379 587,-385 581,-385"/>
<text text-anchor="middle" x="543.5" y="-364.2" font-family="DejaVu Sans" font-size="11.00">termin&#45;collision</text>
</g>
<!-- termin&#45;scene&#45;&gt;termin&#45;collision -->
<g id="edge9" class="edge">
<title>termin&#45;scene&#45;&gt;termin&#45;collision</title>
<path fill="none" stroke="#666666" stroke-width="1.1" d="M422.33,-367C442.07,-367 465.76,-367 486.87,-367"/>
<polygon fill="#666666" stroke="#666666" stroke-width="1.1" points="486.92,-369.45 493.92,-367 486.92,-364.55 486.92,-369.45"/>
</g>
<!-- termin&#45;render -->
<g id="node9" class="node">
<title>termin&#45;render</title>
<path fill="#f7f7f7" stroke="#444444" d="M576.5,-234C576.5,-234 510.5,-234 510.5,-234 504.5,-234 498.5,-228 498.5,-222 498.5,-222 498.5,-210 498.5,-210 498.5,-204 504.5,-198 510.5,-198 510.5,-198 576.5,-198 576.5,-198 582.5,-198 588.5,-204 588.5,-210 588.5,-210 588.5,-222 588.5,-222 588.5,-228 582.5,-234 576.5,-234"/>
<text text-anchor="middle" x="543.5" y="-213.2" font-family="DejaVu Sans" font-size="11.00">termin&#45;render</text>
</g>
<!-- termin&#45;scene&#45;&gt;termin&#45;render -->
<g id="edge10" class="edge">
<title>termin&#45;scene&#45;&gt;termin&#45;render</title>
<path fill="none" stroke="#666666" stroke-width="1.1" d="M399.16,-348.79C428.86,-321.28 485.13,-269.15 517.63,-239.04"/>
<polygon fill="#666666" stroke="#666666" stroke-width="1.1" points="519.55,-240.6 523.02,-234.04 516.22,-237 519.55,-240.6"/>
</g>
<!-- termin&#45;scene&#45;&gt;termin&#45;components&#45;mesh -->
<g id="edge11" class="edge">
<title>termin&#45;scene&#45;&gt;termin&#45;components&#45;mesh</title>
<path fill="none" stroke="#666666" stroke-width="1.1" d="M405.74,-385.09C428.3,-399.96 462.13,-420.67 494,-434 548.3,-456.72 612.36,-473.87 662.37,-485.26"/>
<polygon fill="#666666" stroke="#666666" stroke-width="1.1" points="661.97,-487.68 669.33,-486.83 663.05,-482.9 661.97,-487.68"/>
</g>
<!-- termin&#45;components&#45;kinematic -->
<g id="node14" class="node">
<title>termin&#45;components&#45;kinematic</title>
<path fill="#f7f7f7" stroke="#444444" d="M825,-452C825,-452 670,-452 670,-452 664,-452 658,-446 658,-440 658,-440 658,-428 658,-428 658,-422 664,-416 670,-416 670,-416 825,-416 825,-416 831,-416 837,-422 837,-428 837,-428 837,-440 837,-440 837,-446 831,-452 825,-452"/>
<text text-anchor="middle" x="747.5" y="-431.2" font-family="DejaVu Sans" font-size="11.00">termin&#45;components&#45;kinematic</text>
</g>
<!-- termin&#45;scene&#45;&gt;termin&#45;components&#45;kinematic -->
<g id="edge12" class="edge">
<title>termin&#45;scene&#45;&gt;termin&#45;components&#45;kinematic</title>
<path fill="none" stroke="#666666" stroke-width="1.1" d="M422.04,-381.38C443.42,-388.17 469.86,-395.87 494,-401 545.31,-411.9 603.31,-419.78 650.76,-425.11"/>
<polygon fill="#666666" stroke="#666666" stroke-width="1.1" points="650.76,-427.57 657.98,-425.91 651.3,-422.7 650.76,-427.57"/>
</g>
<!-- termin&#45;display -->
<g id="node10" class="node">
<title>termin&#45;display</title>
<path fill="#f7f7f7" stroke="#444444" d="M782,-234C782,-234 713,-234 713,-234 707,-234 701,-228 701,-222 701,-222 701,-210 701,-210 701,-204 707,-198 713,-198 713,-198 782,-198 782,-198 788,-198 794,-204 794,-210 794,-210 794,-222 794,-222 794,-228 788,-234 782,-234"/>
<text text-anchor="middle" x="747.5" y="-213.2" font-family="DejaVu Sans" font-size="11.00">termin&#45;display</text>
</g>
<!-- termin&#45;input&#45;&gt;termin&#45;display -->
<g id="edge13" class="edge">
<title>termin&#45;input&#45;&gt;termin&#45;display</title>
<path fill="none" stroke="#666666" stroke-width="1.1" d="M584.89,-282.4C616.84,-269.28 661.63,-250.87 695.96,-236.77"/>
<polygon fill="#666666" stroke="#666666" stroke-width="1.1" points="697.13,-238.93 702.68,-234.01 695.27,-234.4 697.13,-238.93"/>
</g>
<!-- termin -->
<g id="node18" class="node">
<title>termin</title>
<path fill="#f7f7f7" stroke="#444444" d="M1370.5,-151C1370.5,-151 1340.5,-151 1340.5,-151 1334.5,-151 1328.5,-145 1328.5,-139 1328.5,-139 1328.5,-127 1328.5,-127 1328.5,-121 1334.5,-115 1340.5,-115 1340.5,-115 1370.5,-115 1370.5,-115 1376.5,-115 1382.5,-121 1382.5,-127 1382.5,-127 1382.5,-139 1382.5,-139 1382.5,-145 1376.5,-151 1370.5,-151"/>
<text text-anchor="middle" x="1355.5" y="-130.2" font-family="DejaVu Sans" font-size="11.00">termin</text>
</g>
<!-- termin&#45;modules&#45;&gt;termin -->
<g id="edge23" class="edge">
<title>termin&#45;modules&#45;&gt;termin</title>
<path fill="none" stroke="#666666" stroke-width="1.1" d="M222.19,-280.75C254.52,-215.83 374.63,0 542.5,0 542.5,0 542.5,0 984,0 1115.81,0 1259.32,-75.5 1322.07,-112.73"/>
<polygon fill="#666666" stroke="#666666" stroke-width="1.1" points="1320.98,-114.93 1328.25,-116.42 1323.5,-110.73 1320.98,-114.93"/>
</g>
<!-- termin&#45;collision&#45;&gt;termin&#45;components&#45;collision -->
<g id="edge15" class="edge">
<title>termin&#45;collision&#45;&gt;termin&#45;components&#45;collision</title>
<path fill="none" stroke="#666666" stroke-width="1.1" d="M593.14,-366.76C611.81,-366.67 633.78,-366.56 655.16,-366.45"/>
<polygon fill="#666666" stroke="#666666" stroke-width="1.1" points="655.4,-368.9 662.39,-366.42 655.38,-364 655.4,-368.9"/>
</g>
<!-- termin&#45;engine -->
<g id="node15" class="node">
<title>termin&#45;engine</title>
<path fill="#f7f7f7" stroke="#444444" d="M1219,-285C1219,-285 1152,-285 1152,-285 1146,-285 1140,-279 1140,-273 1140,-273 1140,-261 1140,-261 1140,-255 1146,-249 1152,-249 1152,-249 1219,-249 1219,-249 1225,-249 1231,-255 1231,-261 1231,-261 1231,-273 1231,-273 1231,-279 1225,-285 1219,-285"/>
<text text-anchor="middle" x="1185.5" y="-264.2" font-family="DejaVu Sans" font-size="11.00">termin&#45;engine</text>
</g>
<!-- termin&#45;collision&#45;&gt;termin&#45;engine -->
<g id="edge14" class="edge">
<title>termin&#45;collision&#45;&gt;termin&#45;engine</title>
<path fill="none" stroke="#666666" stroke-width="1.1" d="M592.25,-348.92C610.14,-342.74 630.79,-336.31 650,-332 824.46,-292.86 1036.59,-275.92 1132.72,-269.86"/>
<polygon fill="#666666" stroke="#666666" stroke-width="1.1" points="1133.16,-272.29 1139.99,-269.41 1132.86,-267.4 1133.16,-272.29"/>
</g>
<!-- termin&#45;graphics&#45;&gt;termin&#45;render -->
<g id="edge16" class="edge">
<title>termin&#45;graphics&#45;&gt;termin&#45;render</title>
<path fill="none" stroke="#666666" stroke-width="1.1" d="M429.29,-216C448.89,-216 471.38,-216 491.13,-216"/>
<polygon fill="#666666" stroke="#666666" stroke-width="1.1" points="491.27,-218.45 498.27,-216 491.27,-213.55 491.27,-218.45"/>
</g>
<!-- termin&#45;gui -->
<g id="node16" class="node">
<title>termin&#45;gui</title>
<path fill="#f7f7f7" stroke="#444444" d="M1006.5,-151C1006.5,-151 959.5,-151 959.5,-151 953.5,-151 947.5,-145 947.5,-139 947.5,-139 947.5,-127 947.5,-127 947.5,-121 953.5,-115 959.5,-115 959.5,-115 1006.5,-115 1006.5,-115 1012.5,-115 1018.5,-121 1018.5,-127 1018.5,-127 1018.5,-139 1018.5,-139 1018.5,-145 1012.5,-151 1006.5,-151"/>
<text text-anchor="middle" x="983" y="-130.2" font-family="DejaVu Sans" font-size="11.00">termin&#45;gui</text>
</g>
<!-- termin&#45;graphics&#45;&gt;termin&#45;gui -->
<g id="edge17" class="edge">
<title>termin&#45;graphics&#45;&gt;termin&#45;gui</title>
<path fill="none" stroke="#666666" stroke-width="1.1" d="M429.15,-199.03C449.1,-192.8 472.43,-186.25 494,-182 657.17,-149.88 855.41,-138.25 940.23,-134.54"/>
<polygon fill="#666666" stroke="#666666" stroke-width="1.1" points="940.47,-136.98 947.36,-134.24 940.26,-132.09 940.47,-136.98"/>
</g>
<!-- termin&#45;render&#45;&gt;termin&#45;display -->
<g id="edge18" class="edge">
<title>termin&#45;render&#45;&gt;termin&#45;display</title>
<path fill="none" stroke="#666666" stroke-width="1.1" d="M588.83,-216C619.71,-216 661.04,-216 693.64,-216"/>
<polygon fill="#666666" stroke="#666666" stroke-width="1.1" points="693.87,-218.45 700.87,-216 693.87,-213.55 693.87,-218.45"/>
</g>
<!-- termin&#45;components&#45;render -->
<g id="node11" class="node">
<title>termin&#45;components&#45;render</title>
<path fill="#f7f7f7" stroke="#444444" d="M1052,-234C1052,-234 914,-234 914,-234 908,-234 902,-228 902,-222 902,-222 902,-210 902,-210 902,-204 908,-198 914,-198 914,-198 1052,-198 1052,-198 1058,-198 1064,-204 1064,-210 1064,-210 1064,-222 1064,-222 1064,-228 1058,-234 1052,-234"/>
<text text-anchor="middle" x="983" y="-213.2" font-family="DejaVu Sans" font-size="11.00">termin&#45;components&#45;render</text>
</g>
<!-- termin&#45;display&#45;&gt;termin&#45;components&#45;render -->
<g id="edge19" class="edge">
<title>termin&#45;display&#45;&gt;termin&#45;components&#45;render</title>
<path fill="none" stroke="#666666" stroke-width="1.1" d="M794.08,-216C822.57,-216 860.22,-216 894.33,-216"/>
<polygon fill="#666666" stroke="#666666" stroke-width="1.1" points="894.55,-218.45 901.55,-216 894.55,-213.55 894.55,-218.45"/>
</g>
<!-- termin&#45;components&#45;render&#45;&gt;termin&#45;engine -->
<g id="edge20" class="edge">
<title>termin&#45;components&#45;render&#45;&gt;termin&#45;engine</title>
<path fill="none" stroke="#666666" stroke-width="1.1" d="M1054.97,-234.05C1080.71,-240.6 1109.26,-247.86 1133,-253.9"/>
<polygon fill="#666666" stroke="#666666" stroke-width="1.1" points="1132.49,-256.3 1139.88,-255.65 1133.7,-251.55 1132.49,-256.3"/>
</g>
<!-- termin&#45;components&#45;collision&#45;&gt;termin -->
<g id="edge21" class="edge">
<title>termin&#45;components&#45;collision&#45;&gt;termin</title>
<path fill="none" stroke="#666666" stroke-width="1.1" d="M827.37,-384.03C935.25,-403.74 1129.18,-420.88 1250,-324 1307.03,-278.27 1254.08,-224.66 1299,-167 1305.09,-159.19 1313.51,-152.74 1321.96,-147.63"/>
<polygon fill="#666666" stroke="#666666" stroke-width="1.1" points="1323.51,-149.58 1328.39,-143.99 1321.09,-145.31 1323.51,-149.58"/>
</g>
<!-- termin&#45;components&#45;kinematic&#45;&gt;termin -->
<g id="edge22" class="edge">
<title>termin&#45;components&#45;kinematic&#45;&gt;termin</title>
<path fill="none" stroke="#666666" stroke-width="1.1" d="M831.22,-452.07C942.2,-470.99 1138.24,-484.86 1250,-378 1319.59,-311.47 1242.7,-245.09 1299,-167 1304.9,-158.81 1313.44,-152.2 1322.06,-147.06"/>
<polygon fill="#666666" stroke="#666666" stroke-width="1.1" points="1323.39,-149.12 1328.31,-143.57 1321.01,-144.84 1323.39,-149.12"/>
</g>
<!-- termin&#45;engine&#45;&gt;termin -->
<g id="edge24" class="edge">
<title>termin&#45;engine&#45;&gt;termin</title>
<path fill="none" stroke="#666666" stroke-width="1.1" d="M1204.74,-248.95C1226.31,-228.05 1263.74,-193.15 1299,-167 1306.23,-161.64 1314.34,-156.32 1322.08,-151.53"/>
<polygon fill="#666666" stroke="#666666" stroke-width="1.1" points="1323.75,-153.38 1328.46,-147.65 1321.21,-149.2 1323.75,-153.38"/>
</g>
<!-- termin&#45;nodegraph -->
<g id="node17" class="node">
<title>termin&#45;nodegraph</title>
<path fill="#f7f7f7" stroke="#444444" d="M1230,-151C1230,-151 1141,-151 1141,-151 1135,-151 1129,-145 1129,-139 1129,-139 1129,-127 1129,-127 1129,-121 1135,-115 1141,-115 1141,-115 1230,-115 1230,-115 1236,-115 1242,-121 1242,-127 1242,-127 1242,-139 1242,-139 1242,-145 1236,-151 1230,-151"/>
<text text-anchor="middle" x="1185.5" y="-130.2" font-family="DejaVu Sans" font-size="11.00">termin&#45;nodegraph</text>
</g>
<!-- termin&#45;gui&#45;&gt;termin&#45;nodegraph -->
<g id="edge28" class="edge">
<title>termin&#45;gui&#45;&gt;termin&#45;nodegraph</title>
<path fill="none" stroke="#666666" stroke-width="1.1" d="M1018.92,-133C1047.21,-133 1087.77,-133 1121.67,-133"/>
<polygon fill="#666666" stroke="#666666" stroke-width="1.1" points="1121.8,-135.45 1128.8,-133 1121.8,-130.55 1121.8,-135.45"/>
</g>
<!-- termin&#45;gui&#45;&gt;termin -->
<g id="edge25" class="edge">
<title>termin&#45;gui&#45;&gt;termin</title>
<path fill="none" stroke="#666666" stroke-width="1.1" d="M1018.76,-122.47C1047.89,-114.22 1090.73,-103.43 1129,-99 1182.42,-92.82 1196.89,-90.58 1250,-99 1274.72,-102.92 1301.54,-111.75 1321.82,-119.43"/>
<polygon fill="#666666" stroke="#666666" stroke-width="1.1" points="1321.02,-121.75 1328.44,-121.98 1322.79,-117.17 1321.02,-121.75"/>
</g>
<!-- diffusion&#45;editor -->
<g id="node19" class="node">
<title>diffusion&#45;editor</title>
<path fill="#f7f7f7" stroke="#444444" d="M1392,-219C1392,-219 1319,-219 1319,-219 1313,-219 1307,-213 1307,-207 1307,-207 1307,-195 1307,-195 1307,-189 1313,-183 1319,-183 1319,-183 1392,-183 1392,-183 1398,-183 1404,-189 1404,-195 1404,-195 1404,-207 1404,-207 1404,-213 1398,-219 1392,-219"/>
<text text-anchor="middle" x="1355.5" y="-198.2" font-family="DejaVu Sans" font-size="11.00">diffusion&#45;editor</text>
</g>
<!-- termin&#45;gui&#45;&gt;diffusion&#45;editor -->
<g id="edge29" class="edge">
<title>termin&#45;gui&#45;&gt;diffusion&#45;editor</title>
<path fill="none" stroke="#666666" stroke-width="1.1" d="M1018.7,-141.97C1047.97,-149.33 1091.04,-159.7 1129,-167 1186.94,-178.14 1253.84,-187.83 1299.63,-193.99"/>
<polygon fill="#666666" stroke="#666666" stroke-width="1.1" points="1299.54,-196.45 1306.8,-194.94 1300.18,-191.59 1299.54,-196.45"/>
</g>
<!-- termin&#45;nodegraph&#45;&gt;termin -->
<g id="edge26" class="edge">
<title>termin&#45;nodegraph&#45;&gt;termin</title>
<path fill="none" stroke="#666666" stroke-width="1.1" d="M1242.44,-133C1268.63,-133 1298.92,-133 1321.4,-133"/>
<polygon fill="#666666" stroke="#666666" stroke-width="1.1" points="1321.41,-135.45 1328.41,-133 1321.41,-130.55 1321.41,-135.45"/>
</g>
<!-- termin&#45;csharp -->
<g id="node20" class="node">
<title>termin&#45;csharp</title>
<path fill="#f7f7f7" stroke="#444444" d="M1548,-151C1548,-151 1481,-151 1481,-151 1475,-151 1469,-145 1469,-139 1469,-139 1469,-127 1469,-127 1469,-121 1475,-115 1481,-115 1481,-115 1548,-115 1548,-115 1554,-115 1560,-121 1560,-127 1560,-127 1560,-139 1560,-139 1560,-145 1554,-151 1548,-151"/>
<text text-anchor="middle" x="1514.5" y="-130.2" font-family="DejaVu Sans" font-size="11.00">termin&#45;csharp</text>
</g>
<!-- termin&#45;&gt;termin&#45;csharp -->
<g id="edge27" class="edge">
<title>termin&#45;&gt;termin&#45;csharp</title>
<path fill="none" stroke="#666666" stroke-width="1.1" d="M1382.78,-133C1404.24,-133 1435.24,-133 1461.66,-133"/>
<polygon fill="#666666" stroke="#666666" stroke-width="1.1" points="1461.98,-135.45 1468.98,-133 1461.98,-130.55 1461.98,-135.45"/>
</g>
</g>
</svg>
