<?xml version="1.0" encoding="UTF-8" standalone="no"?>
<!DOCTYPE svg PUBLIC "-//W3C//DTD SVG 1.1//EN"
 "http://www.w3.org/Graphics/SVG/1.1/DTD/svg11.dtd">
<!-- Generated by graphviz version 2.43.0 (0)
 -->
<!-- Title: termin_dependencies Pages: 1 -->
<svg width="1443pt" height="659pt"
 viewBox="0.00 0.00 1442.80 659.17" xmlns="http://www.w3.org/2000/svg" xmlns:xlink="http://www.w3.org/1999/xlink">
<g id="graph0" class="graph" transform="scale(1 1) rotate(0) translate(14.4 644.77)">
<title>termin_dependencies</title>
<polygon fill="white" stroke="transparent" points="-14.4,14.4 -14.4,-644.77 1428.4,-644.77 1428.4,14.4 -14.4,14.4"/>
<g id="clust1" class="cluster">
<title>cluster_ui</title>
<polygon fill="white" stroke="#999999" stroke-dasharray="5,2" points="524,-41.37 524,-114.37 872.5,-114.37 872.5,-41.37 524,-41.37"/>
<text text-anchor="middle" x="698.25" y="-100.77" font-family="DejaVu Sans" font-size="12.00">UI</text>
</g>
<!-- termin&#45;gui -->
<g id="node1" class="node">
<title>termin&#45;gui</title>
<path fill="#f7f7f7" stroke="#444444" d="M591,-85.37C591,-85.37 544,-85.37 544,-85.37 538,-85.37 532,-79.37 532,-73.37 532,-73.37 532,-61.37 532,-61.37 532,-55.37 538,-49.37 544,-49.37 544,-49.37 591,-49.37 591,-49.37 597,-49.37 603,-55.37 603,-61.37 603,-61.37 603,-73.37 603,-73.37 603,-79.37 597,-85.37 591,-85.37"/>
<text text-anchor="middle" x="567.5" y="-64.57" font-family="DejaVu Sans" font-size="11.00">termin&#45;gui</text>
</g>
<!-- termin&#45;nodegraph -->
<g id="node2" class="node">
<title>termin&#45;nodegraph</title>
<path fill="#f7f7f7" stroke="#444444" d="M852.5,-85.37C852.5,-85.37 763.5,-85.37 763.5,-85.37 757.5,-85.37 751.5,-79.37 751.5,-73.37 751.5,-73.37 751.5,-61.37 751.5,-61.37 751.5,-55.37 757.5,-49.37 763.5,-49.37 763.5,-49.37 852.5,-49.37 852.5,-49.37 858.5,-49.37 864.5,-55.37 864.5,-61.37 864.5,-61.37 864.5,-73.37 864.5,-73.37 864.5,-79.37 858.5,-85.37 852.5,-85.37"/>
<text text-anchor="middle" x="808" y="-64.57" font-family="DejaVu Sans" font-size="11.00">termin&#45;nodegraph</text>
</g>
<!-- termin&#45;gui&#45;&gt;termin&#45;nodegraph -->
<g id="edge21" class="edge">
<title>termin&#45;gui&#45;&gt;termin&#45;nodegraph</title>
<path fill="none" stroke="#666666" stroke-width="1.1" d="M603.18,-67.37C640.09,-67.37 699.28,-67.37 744.38,-67.37"/>
<polygon fill="#666666" stroke="#666666" stroke-width="1.1" points="744.5,-69.82 751.5,-67.37 744.5,-64.92 744.5,-69.82"/>
</g>
<!-- diffusion&#45;editor -->
<g id="node3" class="node">
<title>diffusion&#45;editor</title>
<path fill="#f7f7f7" stroke="#444444" d="M844.5,-158.37C844.5,-158.37 771.5,-158.37 771.5,-158.37 765.5,-158.37 759.5,-152.37 759.5,-146.37 759.5,-146.37 759.5,-134.37 759.5,-134.37 759.5,-128.37 765.5,-122.37 771.5,-122.37 771.5,-122.37 844.5,-122.37 844.5,-122.37 850.5,-122.37 856.5,-128.37 856.5,-134.37 856.5,-134.37 856.5,-146.37 856.5,-146.37 856.5,-152.37 850.5,-158.37 844.5,-158.37"/>
<text text-anchor="middle" x="808" y="-137.57" font-family="DejaVu Sans" font-size="11.00">diffusion&#45;editor</text>
</g>
<!-- termin&#45;gui&#45;&gt;diffusion&#45;editor -->
<g id="edge20" class="edge">
<title>termin&#45;gui&#45;&gt;diffusion&#45;editor</title>
<path fill="none" stroke="#666666" stroke-width="1.1" d="M603.04,-79.58C634.01,-90.36 680.79,-106.2 722,-118.37 731.74,-121.24 742.17,-124.11 752.27,-126.78"/>
<polygon fill="#666666" stroke="#666666" stroke-width="1.1" points="751.8,-129.19 759.19,-128.6 753.04,-124.45 751.8,-129.19"/>
</g>
<!-- termin -->
<g id="node4" class="node">
<title>termin</title>
<path fill="#f7f7f7" stroke="#444444" d="M1246,-293.37C1246,-293.37 1216,-293.37 1216,-293.37 1210,-293.37 1204,-287.37 1204,-281.37 1204,-281.37 1204,-269.37 1204,-269.37 1204,-263.37 1210,-257.37 1216,-257.37 1216,-257.37 1246,-257.37 1246,-257.37 1252,-257.37 1258,-263.37 1258,-269.37 1258,-269.37 1258,-281.37 1258,-281.37 1258,-287.37 1252,-293.37 1246,-293.37"/>
<text text-anchor="middle" x="1231" y="-272.57" font-family="DejaVu Sans" font-size="11.00">termin</text>
</g>
<!-- termin&#45;nodegraph&#45;&gt;termin -->
<g id="edge28" class="edge">
<title>termin&#45;nodegraph&#45;&gt;termin</title>
<path fill="none" stroke="#666666" stroke-width="1.1" d="M864.55,-75.95C933.44,-88.57 1052.36,-117.03 1139,-173.37 1170.59,-193.91 1198.01,-228.22 1214.27,-251.31"/>
<polygon fill="#666666" stroke="#666666" stroke-width="1.1" points="1212.36,-252.85 1218.36,-257.21 1216.39,-250.06 1212.36,-252.85"/>
</g>
<!-- termin&#45;csharp -->
<g id="node15" class="node">
<title>termin&#45;csharp</title>
<path fill="#f7f7f7" stroke="#444444" d="M1402,-293.37C1402,-293.37 1335,-293.37 1335,-293.37 1329,-293.37 1323,-287.37 1323,-281.37 1323,-281.37 1323,-269.37 1323,-269.37 1323,-263.37 1329,-257.37 1335,-257.37 1335,-257.37 1402,-257.37 1402,-257.37 1408,-257.37 1414,-263.37 1414,-269.37 1414,-269.37 1414,-281.37 1414,-281.37 1414,-287.37 1408,-293.37 1402,-293.37"/>
<text text-anchor="middle" x="1368.5" y="-272.57" font-family="DejaVu Sans" font-size="11.00">termin&#45;csharp</text>
</g>
<!-- termin&#45;&gt;termin&#45;csharp -->
<g id="edge1" class="edge">
<title>termin&#45;&gt;termin&#45;csharp</title>
<path fill="none" stroke="#666666" stroke-width="1.1" d="M1258.13,-275.37C1274.43,-275.37 1295.98,-275.37 1315.64,-275.37"/>
<polygon fill="#666666" stroke="#666666" stroke-width="1.1" points="1315.78,-277.82 1322.78,-275.37 1315.78,-272.92 1315.78,-277.82"/>
</g>
<!-- termin&#45;animation -->
<g id="node5" class="node">
<title>termin&#45;animation</title>
<path fill="#f7f7f7" stroke="#444444" d="M850.5,-630.37C850.5,-630.37 765.5,-630.37 765.5,-630.37 759.5,-630.37 753.5,-624.37 753.5,-618.37 753.5,-618.37 753.5,-606.37 753.5,-606.37 753.5,-600.37 759.5,-594.37 765.5,-594.37 765.5,-594.37 850.5,-594.37 850.5,-594.37 856.5,-594.37 862.5,-600.37 862.5,-606.37 862.5,-606.37 862.5,-618.37 862.5,-618.37 862.5,-624.37 856.5,-630.37 850.5,-630.37"/>
<text text-anchor="middle" x="808" y="-609.57" font-family="DejaVu Sans" font-size="11.00">termin&#45;animation</text>
</g>
<!-- termin&#45;components&#45;animation -->
<g id="node8" class="node">
<title>termin&#45;components&#45;animation</title>
<path fill="#f7f7f7" stroke="#444444" d="M1127,-562.37C1127,-562.37 971,-562.37 971,-562.37 965,-562.37 959,-556.37 959,-550.37 959,-550.37 959,-538.37 959,-538.37 959,-532.37 965,-526.37 971,-526.37 971,-526.37 1127,-526.37 1127,-526.37 1133,-526.37 1139,-532.37 1139,-538.37 1139,-538.37 1139,-550.37 1139,-550.37 1139,-556.37 1133,-562.37 1127,-562.37"/>
<text text-anchor="middle" x="1049" y="-541.57" font-family="DejaVu Sans" font-size="11.00">termin&#45;components&#45;animation</text>
</g>
<!-- termin&#45;animation&#45;&gt;termin&#45;components&#45;animation -->
<g id="edge2" class="edge">
<title>termin&#45;animation&#45;&gt;termin&#45;components&#45;animation</title>
<path fill="none" stroke="#666666" stroke-width="1.1" d="M862.64,-597.11C896.58,-587.45 940.84,-574.86 977.6,-564.4"/>
<polygon fill="#666666" stroke="#666666" stroke-width="1.1" points="978.3,-566.74 984.37,-562.47 976.96,-562.03 978.3,-566.74"/>
</g>
<!-- termin&#45;base -->
<g id="node6" class="node">
<title>termin&#45;base</title>
<path fill="#f7f7f7" stroke="#444444" d="M69,-225.37C69,-225.37 12,-225.37 12,-225.37 6,-225.37 0,-219.37 0,-213.37 0,-213.37 0,-201.37 0,-201.37 0,-195.37 6,-189.37 12,-189.37 12,-189.37 69,-189.37 69,-189.37 75,-189.37 81,-195.37 81,-201.37 81,-201.37 81,-213.37 81,-213.37 81,-219.37 75,-225.37 69,-225.37"/>
<text text-anchor="middle" x="40.5" y="-204.57" font-family="DejaVu Sans" font-size="11.00">termin&#45;base</text>
</g>
<!-- termin&#45;inspect -->
<g id="node20" class="node">
<title>termin&#45;inspect</title>
<path fill="#f7f7f7" stroke="#444444" d="M231.5,-326.37C231.5,-326.37 161.5,-326.37 161.5,-326.37 155.5,-326.37 149.5,-320.37 149.5,-314.37 149.5,-314.37 149.5,-302.37 149.5,-302.37 149.5,-296.37 155.5,-290.37 161.5,-290.37 161.5,-290.37 231.5,-290.37 231.5,-290.37 237.5,-290.37 243.5,-296.37 243.5,-302.37 243.5,-302.37 243.5,-314.37 243.5,-314.37 243.5,-320.37 237.5,-326.37 231.5,-326.37"/>
<text text-anchor="middle" x="196.5" y="-305.57" font-family="DejaVu Sans" font-size="11.00">termin&#45;inspect</text>
</g>
<!-- termin&#45;base&#45;&gt;termin&#45;inspect -->
<g id="edge3" class="edge">
<title>termin&#45;base&#45;&gt;termin&#45;inspect</title>
<path fill="none" stroke="#666666" stroke-width="1.1" d="M69.03,-225.42C95.01,-242.46 134.02,-268.05 161.84,-286.29"/>
<polygon fill="#666666" stroke="#666666" stroke-width="1.1" points="160.75,-288.51 167.95,-290.3 163.44,-284.41 160.75,-288.51"/>
</g>
<!-- termin&#45;mesh -->
<g id="node21" class="node">
<title>termin&#45;mesh</title>
<path fill="#f7f7f7" stroke="#444444" d="M226.5,-225.37C226.5,-225.37 166.5,-225.37 166.5,-225.37 160.5,-225.37 154.5,-219.37 154.5,-213.37 154.5,-213.37 154.5,-201.37 154.5,-201.37 154.5,-195.37 160.5,-189.37 166.5,-189.37 166.5,-189.37 226.5,-189.37 226.5,-189.37 232.5,-189.37 238.5,-195.37 238.5,-201.37 238.5,-201.37 238.5,-213.37 238.5,-213.37 238.5,-219.37 232.5,-225.37 226.5,-225.37"/>
<text text-anchor="middle" x="196.5" y="-204.57" font-family="DejaVu Sans" font-size="11.00">termin&#45;mesh</text>
</g>
<!-- termin&#45;base&#45;&gt;termin&#45;mesh -->
<g id="edge4" class="edge">
<title>termin&#45;base&#45;&gt;termin&#45;mesh</title>
<path fill="none" stroke="#666666" stroke-width="1.1" d="M81.16,-207.37C101.34,-207.37 126.03,-207.37 147.29,-207.37"/>
<polygon fill="#666666" stroke="#666666" stroke-width="1.1" points="147.36,-209.82 154.36,-207.37 147.36,-204.92 147.36,-209.82"/>
</g>
<!-- termin&#45;modules -->
<g id="node22" class="node">
<title>termin&#45;modules</title>
<path fill="#f7f7f7" stroke="#444444" d="M235,-88.37C235,-88.37 158,-88.37 158,-88.37 152,-88.37 146,-82.37 146,-76.37 146,-76.37 146,-64.37 146,-64.37 146,-58.37 152,-52.37 158,-52.37 158,-52.37 235,-52.37 235,-52.37 241,-52.37 247,-58.37 247,-64.37 247,-64.37 247,-76.37 247,-76.37 247,-82.37 241,-88.37 235,-88.37"/>
<text text-anchor="middle" x="196.5" y="-67.57" font-family="DejaVu Sans" font-size="11.00">termin&#45;modules</text>
</g>
<!-- termin&#45;base&#45;&gt;termin&#45;modules -->
<g id="edge5" class="edge">
<title>termin&#45;base&#45;&gt;termin&#45;modules</title>
<path fill="none" stroke="#666666" stroke-width="1.1" d="M61.95,-189.17C89.68,-164.51 139.21,-120.44 169.54,-93.46"/>
<polygon fill="#666666" stroke="#666666" stroke-width="1.1" points="171.36,-95.12 174.97,-88.64 168.11,-91.46 171.36,-95.12"/>
</g>
<!-- termin&#45;collision -->
<g id="node7" class="node">
<title>termin&#45;collision</title>
<path fill="#f7f7f7" stroke="#444444" d="M605,-428.37C605,-428.37 530,-428.37 530,-428.37 524,-428.37 518,-422.37 518,-416.37 518,-416.37 518,-404.37 518,-404.37 518,-398.37 524,-392.37 530,-392.37 530,-392.37 605,-392.37 605,-392.37 611,-392.37 617,-398.37 617,-404.37 617,-404.37 617,-416.37 617,-416.37 617,-422.37 611,-428.37 605,-428.37"/>
<text text-anchor="middle" x="567.5" y="-407.57" font-family="DejaVu Sans" font-size="11.00">termin&#45;collision</text>
</g>
<!-- termin&#45;components&#45;collision -->
<g id="node9" class="node">
<title>termin&#45;components&#45;collision</title>
<path fill="#f7f7f7" stroke="#444444" d="M881,-360.37C881,-360.37 735,-360.37 735,-360.37 729,-360.37 723,-354.37 723,-348.37 723,-348.37 723,-336.37 723,-336.37 723,-330.37 729,-324.37 735,-324.37 735,-324.37 881,-324.37 881,-324.37 887,-324.37 893,-330.37 893,-336.37 893,-336.37 893,-348.37 893,-348.37 893,-354.37 887,-360.37 881,-360.37"/>
<text text-anchor="middle" x="808" y="-339.57" font-family="DejaVu Sans" font-size="11.00">termin&#45;components&#45;collision</text>
</g>
<!-- termin&#45;collision&#45;&gt;termin&#45;components&#45;collision -->
<g id="edge6" class="edge">
<title>termin&#45;collision&#45;&gt;termin&#45;components&#45;collision</title>
<path fill="none" stroke="#666666" stroke-width="1.1" d="M617.05,-396.52C651.41,-386.73 698.03,-373.44 736.49,-362.47"/>
<polygon fill="#666666" stroke="#666666" stroke-width="1.1" points="737.51,-364.73 743.57,-360.45 736.16,-360.02 737.51,-364.73"/>
</g>
<!-- termin&#45;engine -->
<g id="node17" class="node">
<title>termin&#45;engine</title>
<path fill="#f7f7f7" stroke="#444444" d="M1082.5,-293.37C1082.5,-293.37 1015.5,-293.37 1015.5,-293.37 1009.5,-293.37 1003.5,-287.37 1003.5,-281.37 1003.5,-281.37 1003.5,-269.37 1003.5,-269.37 1003.5,-263.37 1009.5,-257.37 1015.5,-257.37 1015.5,-257.37 1082.5,-257.37 1082.5,-257.37 1088.5,-257.37 1094.5,-263.37 1094.5,-269.37 1094.5,-269.37 1094.5,-281.37 1094.5,-281.37 1094.5,-287.37 1088.5,-293.37 1082.5,-293.37"/>
<text text-anchor="middle" x="1049" y="-272.57" font-family="DejaVu Sans" font-size="11.00">termin&#45;engine</text>
</g>
<!-- termin&#45;collision&#45;&gt;termin&#45;engine -->
<g id="edge7" class="edge">
<title>termin&#45;collision&#45;&gt;termin&#45;engine</title>
<path fill="none" stroke="#666666" stroke-width="1.1" d="M617.24,-396.03C630.72,-390.92 644.94,-384.39 657,-376.37 691.8,-353.2 684.43,-326.72 722,-308.37 810.89,-264.94 929.46,-265.29 996.36,-269.98"/>
<polygon fill="#666666" stroke="#666666" stroke-width="1.1" points="996.3,-272.43 1003.46,-270.5 996.66,-267.54 996.3,-272.43"/>
</g>
<!-- termin&#45;physics -->
<g id="node23" class="node">
<title>termin&#45;physics</title>
<path fill="#f7f7f7" stroke="#444444" d="M844,-428.37C844,-428.37 772,-428.37 772,-428.37 766,-428.37 760,-422.37 760,-416.37 760,-416.37 760,-404.37 760,-404.37 760,-398.37 766,-392.37 772,-392.37 772,-392.37 844,-392.37 844,-392.37 850,-392.37 856,-398.37 856,-404.37 856,-404.37 856,-416.37 856,-416.37 856,-422.37 850,-428.37 844,-428.37"/>
<text text-anchor="middle" x="808" y="-407.57" font-family="DejaVu Sans" font-size="11.00">termin&#45;physics</text>
</g>
<!-- termin&#45;collision&#45;&gt;termin&#45;physics -->
<g id="edge8" class="edge">
<title>termin&#45;collision&#45;&gt;termin&#45;physics</title>
<path fill="none" stroke="#666666" stroke-width="1.1" d="M617.05,-410.37C656.37,-410.37 711.73,-410.37 752.55,-410.37"/>
<polygon fill="#666666" stroke="#666666" stroke-width="1.1" points="752.74,-412.82 759.74,-410.37 752.74,-407.92 752.74,-412.82"/>
</g>
<!-- termin&#45;components&#45;animation&#45;&gt;termin -->
<g id="edge9" class="edge">
<title>termin&#45;components&#45;animation&#45;&gt;termin</title>
<path fill="none" stroke="#666666" stroke-width="1.1" d="M1105.07,-526.22C1117.42,-520.15 1129.63,-512.32 1139,-502.37 1194.57,-443.38 1217.86,-346.16 1226.12,-300.51"/>
<polygon fill="#666666" stroke="#666666" stroke-width="1.1" points="1228.57,-300.7 1227.36,-293.38 1223.74,-299.86 1228.57,-300.7"/>
</g>
<!-- termin&#45;components&#45;physics -->
<g id="node12" class="node">
<title>termin&#45;components&#45;physics</title>
<path fill="#f7f7f7" stroke="#444444" d="M1120.5,-361.37C1120.5,-361.37 977.5,-361.37 977.5,-361.37 971.5,-361.37 965.5,-355.37 965.5,-349.37 965.5,-349.37 965.5,-337.37 965.5,-337.37 965.5,-331.37 971.5,-325.37 977.5,-325.37 977.5,-325.37 1120.5,-325.37 1120.5,-325.37 1126.5,-325.37 1132.5,-331.37 1132.5,-337.37 1132.5,-337.37 1132.5,-349.37 1132.5,-349.37 1132.5,-355.37 1126.5,-361.37 1120.5,-361.37"/>
<text text-anchor="middle" x="1049" y="-340.57" font-family="DejaVu Sans" font-size="11.00">termin&#45;components&#45;physics</text>
</g>
<!-- termin&#45;components&#45;collision&#45;&gt;termin&#45;components&#45;physics -->
<g id="edge10" class="edge">
<title>termin&#45;components&#45;collision&#45;&gt;termin&#45;components&#45;physics</title>
<path fill="none" stroke="#666666" stroke-width="1.1" d="M893.26,-342.72C914.27,-342.81 936.88,-342.9 958.15,-342.99"/>
<polygon fill="#666666" stroke="#666666" stroke-width="1.1" points="958.29,-345.44 965.3,-343.02 958.31,-340.54 958.29,-345.44"/>
</g>
<!-- termin&#45;components&#45;kinematic -->
<g id="node10" class="node">
<title>termin&#45;components&#45;kinematic</title>
<path fill="#f7f7f7" stroke="#444444" d="M645,-496.37C645,-496.37 490,-496.37 490,-496.37 484,-496.37 478,-490.37 478,-484.37 478,-484.37 478,-472.37 478,-472.37 478,-466.37 484,-460.37 490,-460.37 490,-460.37 645,-460.37 645,-460.37 651,-460.37 657,-466.37 657,-472.37 657,-472.37 657,-484.37 657,-484.37 657,-490.37 651,-496.37 645,-496.37"/>
<text text-anchor="middle" x="567.5" y="-475.57" font-family="DejaVu Sans" font-size="11.00">termin&#45;components&#45;kinematic</text>
</g>
<!-- termin&#45;components&#45;kinematic&#45;&gt;termin -->
<g id="edge11" class="edge">
<title>termin&#45;components&#45;kinematic&#45;&gt;termin</title>
<path fill="none" stroke="#666666" stroke-width="1.1" d="M657.23,-482.26C775.9,-483.34 988.72,-470.47 1139,-377.37 1171.04,-357.52 1198.35,-323.04 1214.46,-299.73"/>
<polygon fill="#666666" stroke="#666666" stroke-width="1.1" points="1216.61,-300.93 1218.51,-293.76 1212.55,-298.18 1216.61,-300.93"/>
</g>
<!-- termin&#45;components&#45;mesh -->
<g id="node11" class="node">
<title>termin&#45;components&#45;mesh</title>
<path fill="#f7f7f7" stroke="#444444" d="M633.5,-292.37C633.5,-292.37 501.5,-292.37 501.5,-292.37 495.5,-292.37 489.5,-286.37 489.5,-280.37 489.5,-280.37 489.5,-268.37 489.5,-268.37 489.5,-262.37 495.5,-256.37 501.5,-256.37 501.5,-256.37 633.5,-256.37 633.5,-256.37 639.5,-256.37 645.5,-262.37 645.5,-268.37 645.5,-268.37 645.5,-280.37 645.5,-280.37 645.5,-286.37 639.5,-292.37 633.5,-292.37"/>
<text text-anchor="middle" x="567.5" y="-271.57" font-family="DejaVu Sans" font-size="11.00">termin&#45;components&#45;mesh</text>
</g>
<!-- termin&#45;components&#45;physics&#45;&gt;termin -->
<g id="edge12" class="edge">
<title>termin&#45;components&#45;physics&#45;&gt;termin</title>
<path fill="none" stroke="#666666" stroke-width="1.1" d="M1097.76,-325.32C1129.07,-313.5 1169.18,-298.34 1196.98,-287.84"/>
<polygon fill="#666666" stroke="#666666" stroke-width="1.1" points="1198.09,-290.04 1203.77,-285.28 1196.35,-285.46 1198.09,-290.04"/>
</g>
<!-- termin&#45;components&#45;render -->
<g id="node13" class="node">
<title>termin&#45;components&#45;render</title>
<path fill="#f7f7f7" stroke="#444444" d="M1118,-225.37C1118,-225.37 980,-225.37 980,-225.37 974,-225.37 968,-219.37 968,-213.37 968,-213.37 968,-201.37 968,-201.37 968,-195.37 974,-189.37 980,-189.37 980,-189.37 1118,-189.37 1118,-189.37 1124,-189.37 1130,-195.37 1130,-201.37 1130,-201.37 1130,-213.37 1130,-213.37 1130,-219.37 1124,-225.37 1118,-225.37"/>
<text text-anchor="middle" x="1049" y="-204.57" font-family="DejaVu Sans" font-size="11.00">termin&#45;components&#45;render</text>
</g>
<!-- termin&#45;components&#45;render&#45;&gt;termin -->
<g id="edge13" class="edge">
<title>termin&#45;components&#45;render&#45;&gt;termin</title>
<path fill="none" stroke="#666666" stroke-width="1.1" d="M1097.76,-225.41C1129.07,-237.24 1169.18,-252.39 1196.98,-262.89"/>
<polygon fill="#666666" stroke="#666666" stroke-width="1.1" points="1196.35,-265.28 1203.77,-265.46 1198.09,-260.69 1196.35,-265.28"/>
</g>
<!-- termin&#45;components&#45;skeleton -->
<g id="node14" class="node">
<title>termin&#45;components&#45;skeleton</title>
<path fill="#f7f7f7" stroke="#444444" d="M882,-562.37C882,-562.37 734,-562.37 734,-562.37 728,-562.37 722,-556.37 722,-550.37 722,-550.37 722,-538.37 722,-538.37 722,-532.37 728,-526.37 734,-526.37 734,-526.37 882,-526.37 882,-526.37 888,-526.37 894,-532.37 894,-538.37 894,-538.37 894,-550.37 894,-550.37 894,-556.37 888,-562.37 882,-562.37"/>
<text text-anchor="middle" x="808" y="-541.57" font-family="DejaVu Sans" font-size="11.00">termin&#45;components&#45;skeleton</text>
</g>
<!-- termin&#45;components&#45;skeleton&#45;&gt;termin&#45;components&#45;animation -->
<g id="edge14" class="edge">
<title>termin&#45;components&#45;skeleton&#45;&gt;termin&#45;components&#45;animation</title>
<path fill="none" stroke="#666666" stroke-width="1.1" d="M894.27,-544.37C912.82,-544.37 932.56,-544.37 951.5,-544.37"/>
<polygon fill="#666666" stroke="#666666" stroke-width="1.1" points="951.72,-546.82 958.72,-544.37 951.72,-541.92 951.72,-546.82"/>
</g>
<!-- termin&#45;display -->
<g id="node16" class="node">
<title>termin&#45;display</title>
<path fill="#f7f7f7" stroke="#444444" d="M842.5,-226.37C842.5,-226.37 773.5,-226.37 773.5,-226.37 767.5,-226.37 761.5,-220.37 761.5,-214.37 761.5,-214.37 761.5,-202.37 761.5,-202.37 761.5,-196.37 767.5,-190.37 773.5,-190.37 773.5,-190.37 842.5,-190.37 842.5,-190.37 848.5,-190.37 854.5,-196.37 854.5,-202.37 854.5,-202.37 854.5,-214.37 854.5,-214.37 854.5,-220.37 848.5,-226.37 842.5,-226.37"/>
<text text-anchor="middle" x="808" y="-205.57" font-family="DejaVu Sans" font-size="11.00">termin&#45;display</text>
</g>
<!-- termin&#45;display&#45;&gt;termin&#45;components&#45;render -->
<g id="edge15" class="edge">
<title>termin&#45;display&#45;&gt;termin&#45;components&#45;render</title>
<path fill="none" stroke="#666666" stroke-width="1.1" d="M854.52,-208.18C884.48,-208.05 924.68,-207.88 960.67,-207.73"/>
<polygon fill="#666666" stroke="#666666" stroke-width="1.1" points="960.82,-210.18 967.81,-207.7 960.8,-205.28 960.82,-210.18"/>
</g>
<!-- termin&#45;display&#45;&gt;termin&#45;engine -->
<g id="edge16" class="edge">
<title>termin&#45;display&#45;&gt;termin&#45;engine</title>
<path fill="none" stroke="#666666" stroke-width="1.1" d="M854.52,-221.13C895.06,-232.49 954.33,-249.11 996.57,-260.95"/>
<polygon fill="#666666" stroke="#666666" stroke-width="1.1" points="996.06,-263.35 1003.46,-262.88 997.38,-258.63 996.06,-263.35"/>
</g>
<!-- termin&#45;engine&#45;&gt;termin -->
<g id="edge17" class="edge">
<title>termin&#45;engine&#45;&gt;termin</title>
<path fill="none" stroke="#666666" stroke-width="1.1" d="M1094.96,-275.37C1126.5,-275.37 1167.99,-275.37 1196.62,-275.37"/>
<polygon fill="#666666" stroke="#666666" stroke-width="1.1" points="1196.97,-277.82 1203.97,-275.37 1196.97,-272.92 1196.97,-277.82"/>
</g>
<!-- termin&#45;graphics -->
<g id="node18" class="node">
<title>termin&#45;graphics</title>
<path fill="#f7f7f7" stroke="#444444" d="M401,-158.37C401,-158.37 324,-158.37 324,-158.37 318,-158.37 312,-152.37 312,-146.37 312,-146.37 312,-134.37 312,-134.37 312,-128.37 318,-122.37 324,-122.37 324,-122.37 401,-122.37 401,-122.37 407,-122.37 413,-128.37 413,-134.37 413,-134.37 413,-146.37 413,-146.37 413,-152.37 407,-158.37 401,-158.37"/>
<text text-anchor="middle" x="362.5" y="-137.57" font-family="DejaVu Sans" font-size="11.00">termin&#45;graphics</text>
</g>
<!-- termin&#45;graphics&#45;&gt;termin&#45;gui -->
<g id="edge18" class="edge">
<title>termin&#45;graphics&#45;&gt;termin&#45;gui</title>
<path fill="none" stroke="#666666" stroke-width="1.1" d="M413.16,-122.51C447.57,-110.14 492.84,-93.85 525.26,-82.2"/>
<polygon fill="#666666" stroke="#666666" stroke-width="1.1" points="526.22,-84.46 531.98,-79.78 524.56,-79.85 526.22,-84.46"/>
</g>
<!-- termin&#45;render -->
<g id="node24" class="node">
<title>termin&#45;render</title>
<path fill="#f7f7f7" stroke="#444444" d="M600.5,-158.37C600.5,-158.37 534.5,-158.37 534.5,-158.37 528.5,-158.37 522.5,-152.37 522.5,-146.37 522.5,-146.37 522.5,-134.37 522.5,-134.37 522.5,-128.37 528.5,-122.37 534.5,-122.37 534.5,-122.37 600.5,-122.37 600.5,-122.37 606.5,-122.37 612.5,-128.37 612.5,-134.37 612.5,-134.37 612.5,-146.37 612.5,-146.37 612.5,-152.37 606.5,-158.37 600.5,-158.37"/>
<text text-anchor="middle" x="567.5" y="-137.57" font-family="DejaVu Sans" font-size="11.00">termin&#45;render</text>
</g>
<!-- termin&#45;graphics&#45;&gt;termin&#45;render -->
<g id="edge19" class="edge">
<title>termin&#45;graphics&#45;&gt;termin&#45;render</title>
<path fill="none" stroke="#666666" stroke-width="1.1" d="M413.16,-140.37C444.02,-140.37 483.62,-140.37 514.85,-140.37"/>
<polygon fill="#666666" stroke="#666666" stroke-width="1.1" points="515.19,-142.82 522.19,-140.37 515.19,-137.92 515.19,-142.82"/>
</g>
<!-- termin&#45;input -->
<g id="node19" class="node">
<title>termin&#45;input</title>
<path fill="#f7f7f7" stroke="#444444" d="M596.5,-360.37C596.5,-360.37 538.5,-360.37 538.5,-360.37 532.5,-360.37 526.5,-354.37 526.5,-348.37 526.5,-348.37 526.5,-336.37 526.5,-336.37 526.5,-330.37 532.5,-324.37 538.5,-324.37 538.5,-324.37 596.5,-324.37 596.5,-324.37 602.5,-324.37 608.5,-330.37 608.5,-336.37 608.5,-336.37 608.5,-348.37 608.5,-348.37 608.5,-354.37 602.5,-360.37 596.5,-360.37"/>
<text text-anchor="middle" x="567.5" y="-339.57" font-family="DejaVu Sans" font-size="11.00">termin&#45;input</text>
</g>
<!-- termin&#45;input&#45;&gt;termin&#45;display -->
<g id="edge22" class="edge">
<title>termin&#45;input&#45;&gt;termin&#45;display</title>
<path fill="none" stroke="#666666" stroke-width="1.1" d="M608.7,-330.38C624.37,-324.84 642.1,-317.45 657,-308.37 690.05,-288.21 689.91,-272.03 722,-250.37 733.27,-242.76 746.12,-235.69 758.35,-229.6"/>
<polygon fill="#666666" stroke="#666666" stroke-width="1.1" points="759.46,-231.78 764.68,-226.51 757.31,-227.38 759.46,-231.78"/>
</g>
<!-- termin&#45;scene -->
<g id="node25" class="node">
<title>termin&#45;scene</title>
<path fill="#f7f7f7" stroke="#444444" d="M394,-360.37C394,-360.37 331,-360.37 331,-360.37 325,-360.37 319,-354.37 319,-348.37 319,-348.37 319,-336.37 319,-336.37 319,-330.37 325,-324.37 331,-324.37 331,-324.37 394,-324.37 394,-324.37 400,-324.37 406,-330.37 406,-336.37 406,-336.37 406,-348.37 406,-348.37 406,-354.37 400,-360.37 394,-360.37"/>
<text text-anchor="middle" x="362.5" y="-339.57" font-family="DejaVu Sans" font-size="11.00">termin&#45;scene</text>
</g>
<!-- termin&#45;inspect&#45;&gt;termin&#45;scene -->
<g id="edge23" class="edge">
<title>termin&#45;inspect&#45;&gt;termin&#45;scene</title>
<path fill="none" stroke="#666666" stroke-width="1.1" d="M243.62,-317.93C264.91,-322.34 290.21,-327.59 311.91,-332.09"/>
<polygon fill="#666666" stroke="#666666" stroke-width="1.1" points="311.46,-334.5 318.82,-333.52 312.46,-329.7 311.46,-334.5"/>
</g>
<!-- termin&#45;mesh&#45;&gt;termin&#45;components&#45;collision -->
<g id="edge24" class="edge">
<title>termin&#45;mesh&#45;&gt;termin&#45;components&#45;collision</title>
<path fill="none" stroke="#666666" stroke-width="1.1" d="M238.56,-203.35C320.67,-196.8 509.87,-189.24 657,-240.37 706.08,-257.42 754.21,-294.87 782.22,-319.33"/>
<polygon fill="#666666" stroke="#666666" stroke-width="1.1" points="780.68,-321.24 787.55,-324.04 783.93,-317.57 780.68,-321.24"/>
</g>
<!-- termin&#45;mesh&#45;&gt;termin&#45;components&#45;mesh -->
<g id="edge25" class="edge">
<title>termin&#45;mesh&#45;&gt;termin&#45;components&#45;mesh</title>
<path fill="none" stroke="#666666" stroke-width="1.1" d="M238.73,-216.91C260.47,-221.8 287.62,-227.7 312,-232.37 368.71,-243.23 432.85,-253.8 482.56,-261.63"/>
<polygon fill="#666666" stroke="#666666" stroke-width="1.1" points="482.18,-264.05 489.47,-262.71 482.94,-259.21 482.18,-264.05"/>
</g>
<!-- termin&#45;mesh&#45;&gt;termin&#45;graphics -->
<g id="edge26" class="edge">
<title>termin&#45;mesh&#45;&gt;termin&#45;graphics</title>
<path fill="none" stroke="#666666" stroke-width="1.1" d="M238.88,-190.46C260.65,-181.57 287.52,-170.59 310.55,-161.18"/>
<polygon fill="#666666" stroke="#666666" stroke-width="1.1" points="311.7,-163.36 317.25,-158.44 309.85,-158.82 311.7,-163.36"/>
</g>
<!-- termin&#45;modules&#45;&gt;termin -->
<g id="edge27" class="edge">
<title>termin&#45;modules&#45;&gt;termin</title>
<path fill="none" stroke="#666666" stroke-width="1.1" d="M247.07,-54.83C317.38,-34.21 450.44,-0.37 566.5,-0.37 566.5,-0.37 566.5,-0.37 809,-0.37 961.14,-0.37 1021.69,5.51 1139,-91.37 1189.7,-133.24 1214.59,-210.34 1224.54,-250.13"/>
<polygon fill="#666666" stroke="#666666" stroke-width="1.1" points="1222.2,-250.88 1226.22,-257.11 1226.96,-249.73 1222.2,-250.88"/>
</g>
<!-- termin&#45;physics&#45;&gt;termin&#45;components&#45;physics -->
<g id="edge29" class="edge">
<title>termin&#45;physics&#45;&gt;termin&#45;components&#45;physics</title>
<path fill="none" stroke="#666666" stroke-width="1.1" d="M856.22,-397.13C890.54,-387.51 937.61,-374.31 976.52,-363.41"/>
<polygon fill="#666666" stroke="#666666" stroke-width="1.1" points="977.61,-365.65 983.69,-361.4 976.29,-360.93 977.61,-365.65"/>
</g>
<!-- termin&#45;render&#45;&gt;termin&#45;display -->
<g id="edge30" class="edge">
<title>termin&#45;render&#45;&gt;termin&#45;display</title>
<path fill="none" stroke="#666666" stroke-width="1.1" d="M612.52,-152.92C652.56,-164.33 711.71,-181.2 754.26,-193.33"/>
<polygon fill="#666666" stroke="#666666" stroke-width="1.1" points="753.8,-195.75 761.2,-195.31 755.14,-191.03 753.8,-195.75"/>
</g>
<!-- termin&#45;scene&#45;&gt;termin&#45;collision -->
<g id="edge31" class="edge">
<title>termin&#45;scene&#45;&gt;termin&#45;collision</title>
<path fill="none" stroke="#666666" stroke-width="1.1" d="M406.06,-356.62C436.56,-366.84 477.92,-380.7 511.01,-391.78"/>
<polygon fill="#666666" stroke="#666666" stroke-width="1.1" points="510.53,-394.2 517.94,-394.1 512.08,-389.55 510.53,-394.2"/>
</g>
<!-- termin&#45;scene&#45;&gt;termin&#45;components&#45;kinematic -->
<g id="edge32" class="edge">
<title>termin&#45;scene&#45;&gt;termin&#45;components&#45;kinematic</title>
<path fill="none" stroke="#666666" stroke-width="1.1" d="M379.76,-360.41C400.65,-382.69 438.9,-420.54 478,-444.37 486.03,-449.26 494.88,-453.66 503.79,-457.55"/>
<polygon fill="#666666" stroke="#666666" stroke-width="1.1" points="502.88,-459.82 510.28,-460.29 504.79,-455.31 502.88,-459.82"/>
</g>
<!-- termin&#45;scene&#45;&gt;termin&#45;components&#45;mesh -->
<g id="edge33" class="edge">
<title>termin&#45;scene&#45;&gt;termin&#45;components&#45;mesh</title>
<path fill="none" stroke="#666666" stroke-width="1.1" d="M406.06,-328.11C434.93,-318.44 473.54,-305.51 505.65,-294.75"/>
<polygon fill="#666666" stroke="#666666" stroke-width="1.1" points="506.53,-297.04 512.39,-292.49 504.98,-292.39 506.53,-297.04"/>
</g>
<!-- termin&#45;scene&#45;&gt;termin&#45;input -->
<g id="edge34" class="edge">
<title>termin&#45;scene&#45;&gt;termin&#45;input</title>
<path fill="none" stroke="#666666" stroke-width="1.1" d="M406.06,-342.37C439.16,-342.37 485.07,-342.37 519.3,-342.37"/>
<polygon fill="#666666" stroke="#666666" stroke-width="1.1" points="519.42,-344.82 526.42,-342.37 519.42,-339.92 519.42,-344.82"/>
</g>
<!-- termin&#45;scene&#45;&gt;termin&#45;render -->
<g id="edge35" class="edge">
<title>termin&#45;scene&#45;&gt;termin&#45;render</title>
<path fill="none" stroke="#666666" stroke-width="1.1" d="M381.87,-324.08C418.86,-287.28 502.25,-204.3 543.08,-163.67"/>
<polygon fill="#666666" stroke="#666666" stroke-width="1.1" points="545.08,-165.14 548.31,-158.46 541.62,-161.66 545.08,-165.14"/>
</g>
<!-- termin&#45;skeleton -->
<g id="node26" class="node">
<title>termin&#45;skeleton</title>
<path fill="#f7f7f7" stroke="#444444" d="M606,-564.37C606,-564.37 529,-564.37 529,-564.37 523,-564.37 517,-558.37 517,-552.37 517,-552.37 517,-540.37 517,-540.37 517,-534.37 523,-528.37 529,-528.37 529,-528.37 606,-528.37 606,-528.37 612,-528.37 618,-534.37 618,-540.37 618,-540.37 618,-552.37 618,-552.37 618,-558.37 612,-564.37 606,-564.37"/>
<text text-anchor="middle" x="567.5" y="-543.57" font-family="DejaVu Sans" font-size="11.00">termin&#45;skeleton</text>
</g>
<!-- termin&#45;scene&#45;&gt;termin&#45;skeleton -->
<g id="edge36" class="edge">
<title>termin&#45;scene&#45;&gt;termin&#45;skeleton</title>
<path fill="none" stroke="#666666" stroke-width="1.1" d="M371.13,-360.41C386.48,-394.69 424.27,-469.59 478,-512.37 487.47,-519.91 498.81,-525.92 510.15,-530.67"/>
<polygon fill="#666666" stroke="#666666" stroke-width="1.1" points="509.41,-533.01 516.82,-533.31 511.22,-528.45 509.41,-533.01"/>
</g>
<!-- termin&#45;skeleton&#45;&gt;termin&#45;animation -->
<g id="edge37" class="edge">
<title>termin&#45;skeleton&#45;&gt;termin&#45;animation</title>
<path fill="none" stroke="#666666" stroke-width="1.1" d="M618.21,-560.12C655.5,-570.44 706.75,-584.63 746.44,-595.61"/>
<polygon fill="#666666" stroke="#666666" stroke-width="1.1" points="745.81,-597.98 753.21,-597.48 747.12,-593.25 745.81,-597.98"/>
</g>
<!-- termin&#45;skeleton&#45;&gt;termin&#45;components&#45;skeleton -->
<g id="edge38" class="edge">
<title>termin&#45;skeleton&#45;&gt;termin&#45;components&#45;skeleton</title>
<path fill="none" stroke="#666666" stroke-width="1.1" d="M618.21,-545.95C646,-545.72 681.55,-545.42 714.28,-545.14"/>
<polygon fill="#666666" stroke="#666666" stroke-width="1.1" points="714.68,-547.59 721.65,-545.08 714.63,-542.69 714.68,-547.59"/>
</g>
</g>
</svg>
