<?xml version="1.0" encoding="UTF-8" standalone="no"?>
<!DOCTYPE svg PUBLIC "-//W3C//DTD SVG 1.1//EN"
 "http://www.w3.org/Graphics/SVG/1.1/DTD/svg11.dtd">
<!-- Generated by graphviz version 2.42.4 (0)
 -->
<!-- Title: termin_dependencies Pages: 1 -->
<svg width="1732pt" height="1866pt"
 viewBox="0.00 0.00 1731.80 1865.80" xmlns="http://www.w3.org/2000/svg" xmlns:xlink="http://www.w3.org/1999/xlink">
<g id="graph0" class="graph" transform="scale(1 1) rotate(0) translate(14.4 1851.4)">
<title>termin_dependencies</title>
<polygon fill="white" stroke="transparent" points="-14.4,14.4 -14.4,-1851.4 1717.4,-1851.4 1717.4,14.4 -14.4,14.4"/>
<g id="clust1" class="cluster">
<title>cluster_application</title>
<polygon fill="white" stroke="#999999" stroke-dasharray="5,2" points="1419.5,-1277 1419.5,-1350 1510.5,-1350 1510.5,-1277 1419.5,-1277"/>
<text text-anchor="middle" x="1465" y="-1336.4" font-family="DejaVu Sans" font-size="12.00">Application</text>
</g>
<g id="clust2" class="cluster">
<title>cluster_foundation</title>
<polygon fill="white" stroke="#999999" stroke-dasharray="5,2" points="137,-178 137,-523 1074.5,-523 1074.5,-178 137,-178"/>
<text text-anchor="middle" x="605.75" y="-509.4" font-family="DejaVu Sans" font-size="12.00">Foundation</text>
</g>
<g id="clust3" class="cluster">
<title>cluster_namespace</title>
<polygon fill="white" stroke="#999999" stroke-dasharray="5,2" points="0,-416 0,-489 88,-489 88,-416 0,-416"/>
<text text-anchor="middle" x="44" y="-475.4" font-family="DejaVu Sans" font-size="12.00">Namespace</text>
</g>
<g id="clust4" class="cluster">
<title>cluster_native_interop</title>
<polygon fill="white" stroke="#999999" stroke-dasharray="5,2" points="1588,-1409 1588,-1482 1695,-1482 1695,-1409 1588,-1409"/>
<text text-anchor="middle" x="1641.5" y="-1468.4" font-family="DejaVu Sans" font-size="12.00">Native Interop</text>
</g>
<g id="clust5" class="cluster">
<title>cluster_other_components</title>
<polygon fill="white" stroke="#999999" stroke-dasharray="5,2" points="670,-531 670,-1012 1342,-1012 1342,-531 670,-531"/>
<text text-anchor="middle" x="1006" y="-998.4" font-family="DejaVu Sans" font-size="12.00">Other Components</text>
</g>
<g id="clust6" class="cluster">
<title>cluster_python_support</title>
<polygon fill="white" stroke="#999999" stroke-dasharray="5,2" points="307,-766 307,-907 450,-907 450,-766 307,-766"/>
<text text-anchor="middle" x="378.5" y="-893.4" font-family="DejaVu Sans" font-size="12.00">Python Support</text>
</g>
<g id="clust7" class="cluster">
<title>cluster_render_stack</title>
<polygon fill="white" stroke="#999999" stroke-dasharray="5,2" points="320,-1471 320,-1612 1101,-1612 1101,-1471 320,-1471"/>
<text text-anchor="middle" x="710.5" y="-1598.4" font-family="DejaVu Sans" font-size="12.00">Render Stack</text>
</g>
<g id="clust8" class="cluster">
<title>cluster_runtime</title>
<polygon fill="white" stroke="#999999" stroke-dasharray="5,2" points="958.5,-1282 958.5,-1355 1065.5,-1355 1065.5,-1282 958.5,-1282"/>
<text text-anchor="middle" x="1012" y="-1341.4" font-family="DejaVu Sans" font-size="12.00">Runtime</text>
</g>
<g id="clust10" class="cluster">
<title>cluster_ui</title>
<polygon fill="white" stroke="#999999" stroke-dasharray="5,2" points="516.5,-1146 516.5,-1287 832,-1287 832,-1146 516.5,-1146"/>
<text text-anchor="middle" x="674.25" y="-1273.4" font-family="DejaVu Sans" font-size="12.00">UI</text>
</g>
<!-- termin&#45;app -->
<g id="node1" class="node">
<title>termin&#45;app</title>
<path fill="#f7f7f7" stroke="#444444" d="M1490.5,-1321C1490.5,-1321 1439.5,-1321 1439.5,-1321 1433.5,-1321 1427.5,-1315 1427.5,-1309 1427.5,-1309 1427.5,-1297 1427.5,-1297 1427.5,-1291 1433.5,-1285 1439.5,-1285 1439.5,-1285 1490.5,-1285 1490.5,-1285 1496.5,-1285 1502.5,-1291 1502.5,-1297 1502.5,-1297 1502.5,-1309 1502.5,-1309 1502.5,-1315 1496.5,-1321 1490.5,-1321"/>
<text text-anchor="middle" x="1465" y="-1300.2" font-family="DejaVu Sans" font-size="11.00">termin&#45;app</text>
</g>
<!-- termin&#45;csharp -->
<g id="node18" class="node">
<title>termin&#45;csharp</title>
<path fill="#f7f7f7" stroke="#444444" d="M1675,-1453C1675,-1453 1608,-1453 1608,-1453 1602,-1453 1596,-1447 1596,-1441 1596,-1441 1596,-1429 1596,-1429 1596,-1423 1602,-1417 1608,-1417 1608,-1417 1675,-1417 1675,-1417 1681,-1417 1687,-1423 1687,-1429 1687,-1429 1687,-1441 1687,-1441 1687,-1447 1681,-1453 1675,-1453"/>
<text text-anchor="middle" x="1641.5" y="-1432.2" font-family="DejaVu Sans" font-size="11.00">termin&#45;csharp</text>
</g>
<!-- termin&#45;app&#45;&gt;termin&#45;csharp -->
<g id="edge8" class="edge">
<title>termin&#45;app&#45;&gt;termin&#45;csharp</title>
<path fill="none" stroke="#666666" stroke-width="1.1" d="M1489.9,-1321.08C1521.4,-1344.91 1576.8,-1386.82 1610.91,-1412.62"/>
<polygon fill="#666666" stroke="#666666" stroke-width="1.1" points="1609.55,-1414.66 1616.61,-1416.93 1612.51,-1410.75 1609.55,-1414.66"/>
</g>
<!-- termin&#45;animation -->
<g id="node2" class="node">
<title>termin&#45;animation</title>
<path fill="#f7f7f7" stroke="#444444" d="M1054.5,-494C1054.5,-494 969.5,-494 969.5,-494 963.5,-494 957.5,-488 957.5,-482 957.5,-482 957.5,-470 957.5,-470 957.5,-464 963.5,-458 969.5,-458 969.5,-458 1054.5,-458 1054.5,-458 1060.5,-458 1066.5,-464 1066.5,-470 1066.5,-470 1066.5,-482 1066.5,-482 1066.5,-488 1060.5,-494 1054.5,-494"/>
<text text-anchor="middle" x="1012" y="-473.2" font-family="DejaVu Sans" font-size="11.00">termin&#45;animation</text>
</g>
<!-- termin&#45;animation&#45;&gt;termin&#45;app -->
<g id="edge6" class="edge">
<title>termin&#45;animation&#45;&gt;termin&#45;app</title>
<path fill="none" stroke="#666666" stroke-width="1.1" d="M1066.74,-465.54C1140.46,-454.65 1271.78,-448.26 1342,-523 1451.14,-639.17 1332.2,-1093.28 1399,-1238 1406.61,-1254.48 1420.29,-1269.15 1433.14,-1280.36"/>
<polygon fill="#666666" stroke="#666666" stroke-width="1.1" points="1431.65,-1282.31 1438.58,-1284.95 1434.81,-1278.56 1431.65,-1282.31"/>
</g>
<!-- termin&#45;components&#45;animation -->
<g id="node19" class="node">
<title>termin&#45;components&#45;animation</title>
<path fill="#f7f7f7" stroke="#444444" d="M1090,-881C1090,-881 934,-881 934,-881 928,-881 922,-875 922,-869 922,-869 922,-857 922,-857 922,-851 928,-845 934,-845 934,-845 1090,-845 1090,-845 1096,-845 1102,-851 1102,-857 1102,-857 1102,-869 1102,-869 1102,-875 1096,-881 1090,-881"/>
<text text-anchor="middle" x="1012" y="-860.2" font-family="DejaVu Sans" font-size="11.00">termin&#45;components&#45;animation</text>
</g>
<!-- termin&#45;animation&#45;&gt;termin&#45;components&#45;animation -->
<g id="edge7" class="edge">
<title>termin&#45;animation&#45;&gt;termin&#45;components&#45;animation</title>
<path fill="none" stroke="#666666" stroke-width="1.1" d="M957.35,-489.83C932.07,-499.26 904.39,-514.6 889.5,-539 861.72,-584.53 864.64,-731.81 889.5,-779 904.4,-807.29 933.61,-827.88 959.76,-841.59"/>
<polygon fill="#666666" stroke="#666666" stroke-width="1.1" points="958.98,-843.95 966.34,-844.93 961.2,-839.58 958.98,-843.95"/>
</g>
<!-- termin&#45;base -->
<g id="node3" class="node">
<title>termin&#45;base</title>
<path fill="#f7f7f7" stroke="#444444" d="M226,-222C226,-222 169,-222 169,-222 163,-222 157,-216 157,-210 157,-210 157,-198 157,-198 157,-192 163,-186 169,-186 169,-186 226,-186 226,-186 232,-186 238,-192 238,-198 238,-198 238,-210 238,-210 238,-216 232,-222 226,-222"/>
<text text-anchor="middle" x="197.5" y="-201.2" font-family="DejaVu Sans" font-size="11.00">termin&#45;base</text>
</g>
<!-- termin&#45;inspect -->
<g id="node7" class="node">
<title>termin&#45;inspect</title>
<path fill="#f7f7f7" stroke="#444444" d="M413.5,-274C413.5,-274 343.5,-274 343.5,-274 337.5,-274 331.5,-268 331.5,-262 331.5,-262 331.5,-250 331.5,-250 331.5,-244 337.5,-238 343.5,-238 343.5,-238 413.5,-238 413.5,-238 419.5,-238 425.5,-244 425.5,-250 425.5,-250 425.5,-262 425.5,-262 425.5,-268 419.5,-274 413.5,-274"/>
<text text-anchor="middle" x="378.5" y="-253.2" font-family="DejaVu Sans" font-size="11.00">termin&#45;inspect</text>
</g>
<!-- termin&#45;base&#45;&gt;termin&#45;inspect -->
<g id="edge16" class="edge">
<title>termin&#45;base&#45;&gt;termin&#45;inspect</title>
<path fill="none" stroke="#666666" stroke-width="1.1" d="M238.23,-215.54C263.58,-222.91 296.74,-232.54 324.35,-240.56"/>
<polygon fill="#666666" stroke="#666666" stroke-width="1.1" points="323.83,-242.96 331.24,-242.56 325.2,-238.26 323.83,-242.96"/>
</g>
<!-- termin&#45;mesh -->
<g id="node8" class="node">
<title>termin&#45;mesh</title>
<path fill="#f7f7f7" stroke="#444444" d="M408.5,-342C408.5,-342 348.5,-342 348.5,-342 342.5,-342 336.5,-336 336.5,-330 336.5,-330 336.5,-318 336.5,-318 336.5,-312 342.5,-306 348.5,-306 348.5,-306 408.5,-306 408.5,-306 414.5,-306 420.5,-312 420.5,-318 420.5,-318 420.5,-330 420.5,-330 420.5,-336 414.5,-342 408.5,-342"/>
<text text-anchor="middle" x="378.5" y="-321.2" font-family="DejaVu Sans" font-size="11.00">termin&#45;mesh</text>
</g>
<!-- termin&#45;base&#45;&gt;termin&#45;mesh -->
<g id="edge18" class="edge">
<title>termin&#45;base&#45;&gt;termin&#45;mesh</title>
<path fill="none" stroke="#666666" stroke-width="1.1" d="M227.66,-222.11C235.1,-227.04 242.98,-232.54 250,-238 277.06,-259.07 278.59,-270.79 307,-290 314.12,-294.82 322.03,-299.33 329.91,-303.39"/>
<polygon fill="#666666" stroke="#666666" stroke-width="1.1" points="329.14,-305.75 336.49,-306.7 331.33,-301.37 329.14,-305.75"/>
</g>
<!-- termin&#45;modules -->
<g id="node9" class="node">
<title>termin&#45;modules</title>
<path fill="#f7f7f7" stroke="#444444" d="M417,-478C417,-478 340,-478 340,-478 334,-478 328,-472 328,-466 328,-466 328,-454 328,-454 328,-448 334,-442 340,-442 340,-442 417,-442 417,-442 423,-442 429,-448 429,-454 429,-454 429,-466 429,-466 429,-472 423,-478 417,-478"/>
<text text-anchor="middle" x="378.5" y="-457.2" font-family="DejaVu Sans" font-size="11.00">termin&#45;modules</text>
</g>
<!-- termin&#45;base&#45;&gt;termin&#45;modules -->
<g id="edge19" class="edge">
<title>termin&#45;base&#45;&gt;termin&#45;modules</title>
<path fill="none" stroke="#666666" stroke-width="1.1" d="M233.19,-222.05C239.47,-226.57 245.45,-231.9 250,-238 302.2,-307.99 250.23,-359.67 307,-426 311.22,-430.93 316.31,-435.2 321.81,-438.89"/>
<polygon fill="#666666" stroke="#666666" stroke-width="1.1" points="320.68,-441.07 327.92,-442.67 323.26,-436.9 320.68,-441.07"/>
</g>
<!-- termin&#45;qopt -->
<g id="node12" class="node">
<title>termin&#45;qopt</title>
<path fill="#f7f7f7" stroke="#444444" d="M406,-410C406,-410 351,-410 351,-410 345,-410 339,-404 339,-398 339,-398 339,-386 339,-386 339,-380 345,-374 351,-374 351,-374 406,-374 406,-374 412,-374 418,-380 418,-386 418,-386 418,-398 418,-398 418,-404 412,-410 406,-410"/>
<text text-anchor="middle" x="378.5" y="-389.2" font-family="DejaVu Sans" font-size="11.00">termin&#45;qopt</text>
</g>
<!-- termin&#45;base&#45;&gt;termin&#45;qopt -->
<g id="edge21" class="edge">
<title>termin&#45;base&#45;&gt;termin&#45;qopt</title>
<path fill="none" stroke="#666666" stroke-width="1.1" d="M231.69,-222.05C238.3,-226.65 244.8,-232.02 250,-238 288.73,-282.57 265.37,-316.13 307,-358 314.24,-365.28 323.35,-371.23 332.59,-375.99"/>
<polygon fill="#666666" stroke="#666666" stroke-width="1.1" points="331.62,-378.24 338.99,-379.1 333.76,-373.84 331.62,-378.24"/>
</g>
<!-- termin&#45;assets -->
<g id="node29" class="node">
<title>termin&#45;assets</title>
<path fill="#f7f7f7" stroke="#444444" d="M411.5,-878C411.5,-878 345.5,-878 345.5,-878 339.5,-878 333.5,-872 333.5,-866 333.5,-866 333.5,-854 333.5,-854 333.5,-848 339.5,-842 345.5,-842 345.5,-842 411.5,-842 411.5,-842 417.5,-842 423.5,-848 423.5,-854 423.5,-854 423.5,-866 423.5,-866 423.5,-872 417.5,-878 411.5,-878"/>
<text text-anchor="middle" x="378.5" y="-857.2" font-family="DejaVu Sans" font-size="11.00">termin&#45;assets</text>
</g>
<!-- termin&#45;base&#45;&gt;termin&#45;assets -->
<g id="edge14" class="edge">
<title>termin&#45;base&#45;&gt;termin&#45;assets</title>
<path fill="none" stroke="#666666" stroke-width="1.1" d="M235.21,-222.18C241.01,-226.59 246.3,-231.85 250,-238 385.43,-462.93 156.8,-610.65 307,-826 312.04,-833.23 319.05,-838.97 326.71,-843.53"/>
<polygon fill="#666666" stroke="#666666" stroke-width="1.1" points="325.94,-845.9 333.27,-847.08 328.28,-841.59 325.94,-845.9"/>
</g>
<!-- termin&#45;lighting -->
<g id="node34" class="node">
<title>termin&#45;lighting</title>
<path fill="#f7f7f7" stroke="#444444" d="M414,-1583C414,-1583 343,-1583 343,-1583 337,-1583 331,-1577 331,-1571 331,-1571 331,-1559 331,-1559 331,-1553 337,-1547 343,-1547 343,-1547 414,-1547 414,-1547 420,-1547 426,-1553 426,-1559 426,-1559 426,-1571 426,-1571 426,-1577 420,-1583 414,-1583"/>
<text text-anchor="middle" x="378.5" y="-1562.2" font-family="DejaVu Sans" font-size="11.00">termin&#45;lighting</text>
</g>
<!-- termin&#45;base&#45;&gt;termin&#45;lighting -->
<g id="edge17" class="edge">
<title>termin&#45;base&#45;&gt;termin&#45;lighting</title>
<path fill="none" stroke="#666666" stroke-width="1.1" d="M235.48,-222.02C241.25,-226.45 246.46,-231.76 250,-238 391.83,-488.21 148.72,-1290.86 307,-1531 311.41,-1537.69 317.53,-1543.1 324.33,-1547.47"/>
<polygon fill="#666666" stroke="#666666" stroke-width="1.1" points="323.46,-1549.79 330.74,-1551.19 325.92,-1545.56 323.46,-1549.79"/>
</g>
<!-- termin&#45;audio -->
<g id="node41" class="node">
<title>termin&#45;audio</title>
<path fill="#f7f7f7" stroke="#444444" d="M408.5,-36C408.5,-36 348.5,-36 348.5,-36 342.5,-36 336.5,-30 336.5,-24 336.5,-24 336.5,-12 336.5,-12 336.5,-6 342.5,0 348.5,0 348.5,0 408.5,0 408.5,0 414.5,0 420.5,-6 420.5,-12 420.5,-12 420.5,-24 420.5,-24 420.5,-30 414.5,-36 408.5,-36"/>
<text text-anchor="middle" x="378.5" y="-15.2" font-family="DejaVu Sans" font-size="11.00">termin&#45;audio</text>
</g>
<!-- termin&#45;base&#45;&gt;termin&#45;audio -->
<g id="edge15" class="edge">
<title>termin&#45;base&#45;&gt;termin&#45;audio</title>
<path fill="none" stroke="#666666" stroke-width="1.1" d="M208.96,-185.84C226.43,-156.65 263.89,-98.67 307,-60 315.43,-52.44 325.42,-45.52 335.2,-39.58"/>
<polygon fill="#666666" stroke="#666666" stroke-width="1.1" points="336.46,-41.68 341.24,-36.01 333.96,-37.46 336.46,-41.68"/>
</g>
<!-- termin&#45;pga -->
<g id="node47" class="node">
<title>termin&#45;pga</title>
<path fill="#f7f7f7" stroke="#444444" d="M404,-1656C404,-1656 353,-1656 353,-1656 347,-1656 341,-1650 341,-1644 341,-1644 341,-1632 341,-1632 341,-1626 347,-1620 353,-1620 353,-1620 404,-1620 404,-1620 410,-1620 416,-1626 416,-1632 416,-1632 416,-1644 416,-1644 416,-1650 410,-1656 404,-1656"/>
<text text-anchor="middle" x="378.5" y="-1635.2" font-family="DejaVu Sans" font-size="11.00">termin&#45;pga</text>
</g>
<!-- termin&#45;base&#45;&gt;termin&#45;pga -->
<g id="edge20" class="edge">
<title>termin&#45;base&#45;&gt;termin&#45;pga</title>
<path fill="none" stroke="#666666" stroke-width="1.1" d="M235.49,-222.01C241.26,-226.44 246.47,-231.75 250,-238 325.39,-371.42 213.67,-1494.46 307,-1616 313.6,-1624.59 323.52,-1629.91 333.85,-1633.18"/>
<polygon fill="#666666" stroke="#666666" stroke-width="1.1" points="333.27,-1635.56 340.67,-1635.04 334.57,-1630.83 333.27,-1635.56"/>
</g>
<!-- termin&#45;collision -->
<g id="node4" class="node">
<title>termin&#45;collision</title>
<path fill="#f7f7f7" stroke="#444444" d="M805,-358C805,-358 730,-358 730,-358 724,-358 718,-352 718,-346 718,-346 718,-334 718,-334 718,-328 724,-322 730,-322 730,-322 805,-322 805,-322 811,-322 817,-328 817,-334 817,-334 817,-346 817,-346 817,-352 811,-358 805,-358"/>
<text text-anchor="middle" x="767.5" y="-337.2" font-family="DejaVu Sans" font-size="11.00">termin&#45;collision</text>
</g>
<!-- termin&#45;physics -->
<g id="node11" class="node">
<title>termin&#45;physics</title>
<path fill="#f7f7f7" stroke="#444444" d="M1048,-392C1048,-392 976,-392 976,-392 970,-392 964,-386 964,-380 964,-380 964,-368 964,-368 964,-362 970,-356 976,-356 976,-356 1048,-356 1048,-356 1054,-356 1060,-362 1060,-368 1060,-368 1060,-380 1060,-380 1060,-386 1054,-392 1048,-392"/>
<text text-anchor="middle" x="1012" y="-371.2" font-family="DejaVu Sans" font-size="11.00">termin&#45;physics</text>
</g>
<!-- termin&#45;collision&#45;&gt;termin&#45;physics -->
<g id="edge24" class="edge">
<title>termin&#45;collision&#45;&gt;termin&#45;physics</title>
<path fill="none" stroke="#666666" stroke-width="1.1" d="M817.28,-346.84C857.68,-352.5 915.04,-360.55 956.85,-366.41"/>
<polygon fill="#666666" stroke="#666666" stroke-width="1.1" points="956.67,-368.86 963.95,-367.4 957.35,-364 956.67,-368.86"/>
</g>
<!-- termin&#45;components&#45;collision -->
<g id="node20" class="node">
<title>termin&#45;components&#45;collision</title>
<path fill="#f7f7f7" stroke="#444444" d="M1085,-779C1085,-779 939,-779 939,-779 933,-779 927,-773 927,-767 927,-767 927,-755 927,-755 927,-749 933,-743 939,-743 939,-743 1085,-743 1085,-743 1091,-743 1097,-749 1097,-755 1097,-755 1097,-767 1097,-767 1097,-773 1091,-779 1085,-779"/>
<text text-anchor="middle" x="1012" y="-758.2" font-family="DejaVu Sans" font-size="11.00">termin&#45;components&#45;collision</text>
</g>
<!-- termin&#45;collision&#45;&gt;termin&#45;components&#45;collision -->
<g id="edge22" class="edge">
<title>termin&#45;collision&#45;&gt;termin&#45;components&#45;collision</title>
<path fill="none" stroke="#666666" stroke-width="1.1" d="M817.2,-350.71C831.45,-355.81 846.11,-363.24 857,-374 863.95,-380.87 968.97,-652.09 1001.48,-736.31"/>
<polygon fill="#666666" stroke="#666666" stroke-width="1.1" points="999.24,-737.31 1004.05,-742.96 1003.81,-735.55 999.24,-737.31"/>
</g>
<!-- termin&#45;engine -->
<g id="node36" class="node">
<title>termin&#45;engine</title>
<path fill="#f7f7f7" stroke="#444444" d="M1045.5,-1326C1045.5,-1326 978.5,-1326 978.5,-1326 972.5,-1326 966.5,-1320 966.5,-1314 966.5,-1314 966.5,-1302 966.5,-1302 966.5,-1296 972.5,-1290 978.5,-1290 978.5,-1290 1045.5,-1290 1045.5,-1290 1051.5,-1290 1057.5,-1296 1057.5,-1302 1057.5,-1302 1057.5,-1314 1057.5,-1314 1057.5,-1320 1051.5,-1326 1045.5,-1326"/>
<text text-anchor="middle" x="1012" y="-1305.2" font-family="DejaVu Sans" font-size="11.00">termin&#45;engine</text>
</g>
<!-- termin&#45;collision&#45;&gt;termin&#45;engine -->
<g id="edge23" class="edge">
<title>termin&#45;collision&#45;&gt;termin&#45;engine</title>
<path fill="none" stroke="#666666" stroke-width="1.1" d="M817.3,-348.37C832.26,-353.36 847.31,-361.31 857,-374 944.56,-488.67 893.34,-878.6 922,-1020 942.17,-1119.48 982.86,-1233.54 1001.41,-1282.98"/>
<polygon fill="#666666" stroke="#666666" stroke-width="1.1" points="999.21,-1284.11 1003.98,-1289.8 1003.8,-1282.39 999.21,-1284.11"/>
</g>
<!-- termin&#45;csg -->
<g id="node5" class="node">
<title>termin&#45;csg</title>
<path fill="#f7f7f7" stroke="#444444" d="M222,-358C222,-358 173,-358 173,-358 167,-358 161,-352 161,-346 161,-346 161,-334 161,-334 161,-328 167,-322 173,-322 173,-322 222,-322 222,-322 228,-322 234,-328 234,-334 234,-334 234,-346 234,-346 234,-352 228,-358 222,-358"/>
<text text-anchor="middle" x="197.5" y="-337.2" font-family="DejaVu Sans" font-size="11.00">termin&#45;csg</text>
</g>
<!-- termin&#45;components&#45;mesh -->
<g id="node22" class="node">
<title>termin&#45;components&#45;mesh</title>
<path fill="#f7f7f7" stroke="#444444" d="M833.5,-779C833.5,-779 701.5,-779 701.5,-779 695.5,-779 689.5,-773 689.5,-767 689.5,-767 689.5,-755 689.5,-755 689.5,-749 695.5,-743 701.5,-743 701.5,-743 833.5,-743 833.5,-743 839.5,-743 845.5,-749 845.5,-755 845.5,-755 845.5,-767 845.5,-767 845.5,-773 839.5,-779 833.5,-779"/>
<text text-anchor="middle" x="767.5" y="-758.2" font-family="DejaVu Sans" font-size="11.00">termin&#45;components&#45;mesh</text>
</g>
<!-- termin&#45;csg&#45;&gt;termin&#45;components&#45;mesh -->
<g id="edge40" class="edge">
<title>termin&#45;csg&#45;&gt;termin&#45;components&#45;mesh</title>
<path fill="none" stroke="#666666" stroke-width="1.1" d="M233.11,-358.11C239.4,-362.62 245.41,-367.94 250,-374 300.18,-440.2 250.08,-491.5 307,-552 332,-578.57 582.36,-651.2 613,-671 642.83,-690.28 639.87,-708.21 670,-727 678.07,-732.03 686.98,-736.44 696.02,-740.28"/>
<polygon fill="#666666" stroke="#666666" stroke-width="1.1" points="695.22,-742.59 702.63,-742.97 697.07,-738.06 695.22,-742.59"/>
</g>
<!-- termin&#45;input -->
<g id="node6" class="node">
<title>termin&#45;input</title>
<path fill="#f7f7f7" stroke="#444444" d="M796.5,-426C796.5,-426 738.5,-426 738.5,-426 732.5,-426 726.5,-420 726.5,-414 726.5,-414 726.5,-402 726.5,-402 726.5,-396 732.5,-390 738.5,-390 738.5,-390 796.5,-390 796.5,-390 802.5,-390 808.5,-396 808.5,-402 808.5,-402 808.5,-414 808.5,-414 808.5,-420 802.5,-426 796.5,-426"/>
<text text-anchor="middle" x="767.5" y="-405.2" font-family="DejaVu Sans" font-size="11.00">termin&#45;input</text>
</g>
<!-- termin&#45;display -->
<g id="node32" class="node">
<title>termin&#45;display</title>
<path fill="#f7f7f7" stroke="#444444" d="M802,-1523C802,-1523 733,-1523 733,-1523 727,-1523 721,-1517 721,-1511 721,-1511 721,-1499 721,-1499 721,-1493 727,-1487 733,-1487 733,-1487 802,-1487 802,-1487 808,-1487 814,-1493 814,-1499 814,-1499 814,-1511 814,-1511 814,-1517 808,-1523 802,-1523"/>
<text text-anchor="middle" x="767.5" y="-1502.2" font-family="DejaVu Sans" font-size="11.00">termin&#45;display</text>
</g>
<!-- termin&#45;input&#45;&gt;termin&#45;display -->
<g id="edge56" class="edge">
<title>termin&#45;input&#45;&gt;termin&#45;display</title>
<path fill="none" stroke="#666666" stroke-width="1.1" d="M726.39,-411.49C696.61,-416.5 658.68,-428.65 641.5,-458 615.37,-502.64 620.72,-1341.63 641.5,-1389 659.47,-1429.97 699.85,-1462.85 730.08,-1483"/>
<polygon fill="#666666" stroke="#666666" stroke-width="1.1" points="728.78,-1485.08 735.98,-1486.86 731.46,-1480.98 728.78,-1485.08"/>
</g>
<!-- termin&#45;scene -->
<g id="node13" class="node">
<title>termin&#45;scene</title>
<path fill="#f7f7f7" stroke="#444444" d="M591.5,-412C591.5,-412 528.5,-412 528.5,-412 522.5,-412 516.5,-406 516.5,-400 516.5,-400 516.5,-388 516.5,-388 516.5,-382 522.5,-376 528.5,-376 528.5,-376 591.5,-376 591.5,-376 597.5,-376 603.5,-382 603.5,-388 603.5,-388 603.5,-400 603.5,-400 603.5,-406 597.5,-412 591.5,-412"/>
<text text-anchor="middle" x="560" y="-391.2" font-family="DejaVu Sans" font-size="11.00">termin&#45;scene</text>
</g>
<!-- termin&#45;inspect&#45;&gt;termin&#45;scene -->
<g id="edge58" class="edge">
<title>termin&#45;inspect&#45;&gt;termin&#45;scene</title>
<path fill="none" stroke="#666666" stroke-width="1.1" d="M422.46,-274.07C431.85,-278.74 441.51,-284.12 450,-290 484.04,-313.57 517.66,-347.76 538.37,-370.42"/>
<polygon fill="#666666" stroke="#666666" stroke-width="1.1" points="536.58,-372.09 543.09,-375.64 540.21,-368.81 536.58,-372.09"/>
</g>
<!-- termin&#45;components&#45;ui -->
<g id="node26" class="node">
<title>termin&#45;components&#45;ui</title>
<path fill="#f7f7f7" stroke="#444444" d="M823,-983C823,-983 712,-983 712,-983 706,-983 700,-977 700,-971 700,-971 700,-959 700,-959 700,-953 706,-947 712,-947 712,-947 823,-947 823,-947 829,-947 835,-953 835,-959 835,-959 835,-971 835,-971 835,-977 829,-983 823,-983"/>
<text text-anchor="middle" x="767.5" y="-962.2" font-family="DejaVu Sans" font-size="11.00">termin&#45;components&#45;ui</text>
</g>
<!-- termin&#45;inspect&#45;&gt;termin&#45;components&#45;ui -->
<g id="edge57" class="edge">
<title>termin&#45;inspect&#45;&gt;termin&#45;components&#45;ui</title>
<path fill="none" stroke="#666666" stroke-width="1.1" d="M425.61,-271.72C434.62,-276.47 443.32,-282.48 450,-290 499.99,-346.31 616.97,-877.54 670,-931 676.58,-937.63 684.53,-942.98 693.01,-947.28"/>
<polygon fill="#666666" stroke="#666666" stroke-width="1.1" points="692.2,-949.61 699.58,-950.37 694.29,-945.17 692.2,-949.61"/>
</g>
<!-- termin&#45;graphics -->
<g id="node33" class="node">
<title>termin&#45;graphics</title>
<path fill="#f7f7f7" stroke="#444444" d="M417,-1515C417,-1515 340,-1515 340,-1515 334,-1515 328,-1509 328,-1503 328,-1503 328,-1491 328,-1491 328,-1485 334,-1479 340,-1479 340,-1479 417,-1479 417,-1479 423,-1479 429,-1485 429,-1491 429,-1491 429,-1503 429,-1503 429,-1509 423,-1515 417,-1515"/>
<text text-anchor="middle" x="378.5" y="-1494.2" font-family="DejaVu Sans" font-size="11.00">termin&#45;graphics</text>
</g>
<!-- termin&#45;mesh&#45;&gt;termin&#45;graphics -->
<g id="edge60" class="edge">
<title>termin&#45;mesh&#45;&gt;termin&#45;graphics</title>
<path fill="none" stroke="#666666" stroke-width="1.1" d="M336.37,-333.43C314.89,-340.65 290.76,-353.06 278.5,-374 236.06,-446.49 267.36,-1046.74 278.5,-1130 296.13,-1261.77 347.87,-1413.25 369.17,-1471.95"/>
<polygon fill="#666666" stroke="#666666" stroke-width="1.1" points="366.91,-1472.91 371.62,-1478.65 371.52,-1471.23 366.91,-1472.91"/>
</g>
<!-- termin&#45;modules&#45;&gt;termin&#45;engine -->
<g id="edge61" class="edge">
<title>termin&#45;modules&#45;&gt;termin&#45;engine</title>
<path fill="none" stroke="#666666" stroke-width="1.1" d="M383.48,-478.19C401.45,-555.86 482.37,-862.65 670,-1016 736.98,-1070.75 787.55,-1018.42 857,-1070 933.82,-1127.06 982.79,-1234.74 1001.89,-1283.23"/>
<polygon fill="#666666" stroke="#666666" stroke-width="1.1" points="999.68,-1284.3 1004.5,-1289.94 1004.25,-1282.53 999.68,-1284.3"/>
</g>
<!-- termin&#45;navmesh -->
<g id="node10" class="node">
<title>termin&#45;navmesh</title>
<path fill="#f7f7f7" stroke="#444444" d="M238,-426C238,-426 157,-426 157,-426 151,-426 145,-420 145,-414 145,-414 145,-402 145,-402 145,-396 151,-390 157,-390 157,-390 238,-390 238,-390 244,-390 250,-396 250,-402 250,-402 250,-414 250,-414 250,-420 244,-426 238,-426"/>
<text text-anchor="middle" x="197.5" y="-405.2" font-family="DejaVu Sans" font-size="11.00">termin&#45;navmesh</text>
</g>
<!-- termin&#45;navmesh&#45;&gt;termin&#45;app -->
<g id="edge63" class="edge">
<title>termin&#45;navmesh&#45;&gt;termin&#45;app</title>
<path fill="none" stroke="#666666" stroke-width="1.1" d="M235.47,-426.02C241.24,-430.45 246.46,-435.76 250,-442 319.6,-564.66 217.33,-1601.15 307,-1710 380.27,-1798.94 443.77,-1771 559,-1771 559,-1771 559,-1771 1013,-1771 1177.39,-1771 1230.93,-1723.19 1342,-1602 1417.59,-1519.52 1449.46,-1383.96 1459.84,-1328.18"/>
<polygon fill="#666666" stroke="#666666" stroke-width="1.1" points="1462.28,-1328.49 1461.12,-1321.16 1457.46,-1327.61 1462.28,-1328.49"/>
</g>
<!-- termin&#45;default&#45;assets -->
<g id="node43" class="node">
<title>termin&#45;default&#45;assets</title>
<path fill="#f7f7f7" stroke="#444444" d="M1519,-779C1519,-779 1411,-779 1411,-779 1405,-779 1399,-773 1399,-767 1399,-767 1399,-755 1399,-755 1399,-749 1405,-743 1411,-743 1411,-743 1519,-743 1519,-743 1525,-743 1531,-749 1531,-755 1531,-755 1531,-767 1531,-767 1531,-773 1525,-779 1519,-779"/>
<text text-anchor="middle" x="1465" y="-758.2" font-family="DejaVu Sans" font-size="11.00">termin&#45;default&#45;assets</text>
</g>
<!-- termin&#45;navmesh&#45;&gt;termin&#45;default&#45;assets -->
<g id="edge64" class="edge">
<title>termin&#45;navmesh&#45;&gt;termin&#45;default&#45;assets</title>
<path fill="none" stroke="#666666" stroke-width="1.1" d="M232.62,-389.9C239.01,-385.36 245.19,-380.03 250,-374 294.97,-317.58 259.65,-276.44 307,-222 390.66,-125.81 431.52,-85 559,-85 559,-85 559,-85 1013,-85 1332.22,-85 1439.47,-613.07 1460.08,-735.75"/>
<polygon fill="#666666" stroke="#666666" stroke-width="1.1" points="1457.7,-736.41 1461.26,-742.92 1462.54,-735.61 1457.7,-736.41"/>
</g>
<!-- termin&#45;components&#45;physics -->
<g id="node23" class="node">
<title>termin&#45;components&#45;physics</title>
<path fill="#f7f7f7" stroke="#444444" d="M1322,-779C1322,-779 1179,-779 1179,-779 1173,-779 1167,-773 1167,-767 1167,-767 1167,-755 1167,-755 1167,-749 1173,-743 1179,-743 1179,-743 1322,-743 1322,-743 1328,-743 1334,-749 1334,-755 1334,-755 1334,-767 1334,-767 1334,-773 1328,-779 1322,-779"/>
<text text-anchor="middle" x="1250.5" y="-758.2" font-family="DejaVu Sans" font-size="11.00">termin&#45;components&#45;physics</text>
</g>
<!-- termin&#45;physics&#45;&gt;termin&#45;components&#45;physics -->
<g id="edge66" class="edge">
<title>termin&#45;physics&#45;&gt;termin&#45;components&#45;physics</title>
<path fill="none" stroke="#666666" stroke-width="1.1" d="M1043.69,-392.03C1062.43,-404.26 1085.82,-421.82 1102,-442 1178.49,-537.42 1225.62,-678.96 1242.48,-735.92"/>
<polygon fill="#666666" stroke="#666666" stroke-width="1.1" points="1240.16,-736.72 1244.48,-742.75 1244.86,-735.35 1240.16,-736.72"/>
</g>
<!-- termin&#45;physics&#45;fem -->
<g id="node28" class="node">
<title>termin&#45;physics&#45;fem</title>
<path fill="#f7f7f7" stroke="#444444" d="M815.5,-643C815.5,-643 719.5,-643 719.5,-643 713.5,-643 707.5,-637 707.5,-631 707.5,-631 707.5,-619 707.5,-619 707.5,-613 713.5,-607 719.5,-607 719.5,-607 815.5,-607 815.5,-607 821.5,-607 827.5,-613 827.5,-619 827.5,-619 827.5,-631 827.5,-631 827.5,-637 821.5,-643 815.5,-643"/>
<text text-anchor="middle" x="767.5" y="-622.2" font-family="DejaVu Sans" font-size="11.00">termin&#45;physics&#45;fem</text>
</g>
<!-- termin&#45;qopt&#45;&gt;termin&#45;physics&#45;fem -->
<g id="edge67" class="edge">
<title>termin&#45;qopt&#45;&gt;termin&#45;physics&#45;fem</title>
<path fill="none" stroke="#666666" stroke-width="1.1" d="M418.42,-402.92C468.1,-418.41 554.59,-450.69 613,-502 648.29,-533 633.18,-561.83 670,-591 679.05,-598.17 689.73,-603.89 700.62,-608.44"/>
<polygon fill="#666666" stroke="#666666" stroke-width="1.1" points="700.01,-610.83 707.42,-611.12 701.81,-606.27 700.01,-610.83"/>
</g>
<!-- termin&#45;scene&#45;&gt;termin&#45;collision -->
<g id="edge75" class="edge">
<title>termin&#45;scene&#45;&gt;termin&#45;collision</title>
<path fill="none" stroke="#666666" stroke-width="1.1" d="M603.58,-382.81C634.64,-374.65 677.03,-363.51 710.78,-354.64"/>
<polygon fill="#666666" stroke="#666666" stroke-width="1.1" points="711.7,-356.93 717.85,-352.78 710.45,-352.19 711.7,-356.93"/>
</g>
<!-- termin&#45;scene&#45;&gt;termin&#45;input -->
<g id="edge81" class="edge">
<title>termin&#45;scene&#45;&gt;termin&#45;input</title>
<path fill="none" stroke="#666666" stroke-width="1.1" d="M603.58,-396.9C637.27,-399.2 684.3,-402.4 719.17,-404.78"/>
<polygon fill="#666666" stroke="#666666" stroke-width="1.1" points="719.27,-407.24 726.42,-405.27 719.6,-402.35 719.27,-407.24"/>
</g>
<!-- termin&#45;skeleton -->
<g id="node14" class="node">
<title>termin&#45;skeleton</title>
<path fill="#f7f7f7" stroke="#444444" d="M806,-494C806,-494 729,-494 729,-494 723,-494 717,-488 717,-482 717,-482 717,-470 717,-470 717,-464 723,-458 729,-458 729,-458 806,-458 806,-458 812,-458 818,-464 818,-470 818,-470 818,-482 818,-482 818,-488 812,-494 806,-494"/>
<text text-anchor="middle" x="767.5" y="-473.2" font-family="DejaVu Sans" font-size="11.00">termin&#45;skeleton</text>
</g>
<!-- termin&#45;scene&#45;&gt;termin&#45;skeleton -->
<g id="edge85" class="edge">
<title>termin&#45;scene&#45;&gt;termin&#45;skeleton</title>
<path fill="none" stroke="#666666" stroke-width="1.1" d="M600.05,-412.06C620.69,-421.38 646.54,-432.72 670,-442 682.8,-447.06 696.69,-452.18 709.84,-456.85"/>
<polygon fill="#666666" stroke="#666666" stroke-width="1.1" points="709.23,-459.23 716.64,-459.25 710.86,-454.61 709.23,-459.23"/>
</g>
<!-- termin&#45;components&#45;kinematic -->
<g id="node21" class="node">
<title>termin&#45;components&#45;kinematic</title>
<path fill="#f7f7f7" stroke="#444444" d="M845,-575C845,-575 690,-575 690,-575 684,-575 678,-569 678,-563 678,-563 678,-551 678,-551 678,-545 684,-539 690,-539 690,-539 845,-539 845,-539 851,-539 857,-545 857,-551 857,-551 857,-563 857,-563 857,-569 851,-575 845,-575"/>
<text text-anchor="middle" x="767.5" y="-554.2" font-family="DejaVu Sans" font-size="11.00">termin&#45;components&#45;kinematic</text>
</g>
<!-- termin&#45;scene&#45;&gt;termin&#45;components&#45;kinematic -->
<g id="edge76" class="edge">
<title>termin&#45;scene&#45;&gt;termin&#45;components&#45;kinematic</title>
<path fill="none" stroke="#666666" stroke-width="1.1" d="M586.91,-412.03C595.78,-418.92 605.38,-427.24 613,-436 645.32,-473.15 630.71,-501.33 670,-531 671.94,-532.46 673.95,-533.85 676.03,-535.15"/>
<polygon fill="#666666" stroke="#666666" stroke-width="1.1" points="675.15,-537.47 682.44,-538.83 677.59,-533.22 675.15,-537.47"/>
</g>
<!-- termin&#45;scene&#45;&gt;termin&#45;components&#45;mesh -->
<g id="edge77" class="edge">
<title>termin&#45;scene&#45;&gt;termin&#45;components&#45;mesh</title>
<path fill="none" stroke="#666666" stroke-width="1.1" d="M566.44,-412.11C586.87,-479.86 658.36,-715.09 670,-727 674.65,-731.76 680.01,-735.85 685.76,-739.37"/>
<polygon fill="#666666" stroke="#666666" stroke-width="1.1" points="684.85,-741.67 692.15,-742.97 687.25,-737.4 684.85,-741.67"/>
</g>
<!-- termin&#45;components&#45;tween -->
<g id="node25" class="node">
<title>termin&#45;components&#45;tween</title>
<path fill="#f7f7f7" stroke="#444444" d="M835,-711C835,-711 700,-711 700,-711 694,-711 688,-705 688,-699 688,-699 688,-687 688,-687 688,-681 694,-675 700,-675 700,-675 835,-675 835,-675 841,-675 847,-681 847,-687 847,-687 847,-699 847,-699 847,-705 841,-711 835,-711"/>
<text text-anchor="middle" x="767.5" y="-690.2" font-family="DejaVu Sans" font-size="11.00">termin&#45;components&#45;tween</text>
</g>
<!-- termin&#45;scene&#45;&gt;termin&#45;components&#45;tween -->
<g id="edge78" class="edge">
<title>termin&#45;scene&#45;&gt;termin&#45;components&#45;tween</title>
<path fill="none" stroke="#666666" stroke-width="1.1" d="M570.4,-412.09C581.28,-433.34 599.43,-469.78 613,-502 641.8,-570.42 617.26,-606.76 670,-659 674.73,-663.68 680.14,-667.72 685.93,-671.21"/>
<polygon fill="#666666" stroke="#666666" stroke-width="1.1" points="685.04,-673.52 692.35,-674.77 687.42,-669.23 685.04,-673.52"/>
</g>
<!-- termin&#45;components&#45;voxels -->
<g id="node27" class="node">
<title>termin&#45;components&#45;voxels</title>
<path fill="#f7f7f7" stroke="#444444" d="M836,-847C836,-847 699,-847 699,-847 693,-847 687,-841 687,-835 687,-835 687,-823 687,-823 687,-817 693,-811 699,-811 699,-811 836,-811 836,-811 842,-811 848,-817 848,-823 848,-823 848,-835 848,-835 848,-841 842,-847 836,-847"/>
<text text-anchor="middle" x="767.5" y="-826.2" font-family="DejaVu Sans" font-size="11.00">termin&#45;components&#45;voxels</text>
</g>
<!-- termin&#45;scene&#45;&gt;termin&#45;components&#45;voxels -->
<g id="edge79" class="edge">
<title>termin&#45;scene&#45;&gt;termin&#45;components&#45;voxels</title>
<path fill="none" stroke="#666666" stroke-width="1.1" d="M563.66,-412.11C574.31,-482.5 615.98,-736.87 670,-795 674.35,-799.68 679.39,-803.72 684.83,-807.2"/>
<polygon fill="#666666" stroke="#666666" stroke-width="1.1" points="683.6,-809.32 690.87,-810.77 686.09,-805.1 683.6,-809.32"/>
</g>
<!-- termin&#45;scene&#45;&gt;termin&#45;physics&#45;fem -->
<g id="edge82" class="edge">
<title>termin&#45;scene&#45;&gt;termin&#45;physics&#45;fem</title>
<path fill="none" stroke="#666666" stroke-width="1.1" d="M588.94,-412.1C597.57,-418.78 606.51,-426.95 613,-436 655.76,-495.66 617.75,-539.45 670,-591 678.62,-599.5 689.48,-605.88 700.79,-610.67"/>
<polygon fill="#666666" stroke="#666666" stroke-width="1.1" points="700.07,-613.02 707.48,-613.32 701.87,-608.47 700.07,-613.02"/>
</g>
<!-- termin&#45;render -->
<g id="node35" class="node">
<title>termin&#45;render</title>
<path fill="#f7f7f7" stroke="#444444" d="M593,-1531C593,-1531 527,-1531 527,-1531 521,-1531 515,-1525 515,-1519 515,-1519 515,-1507 515,-1507 515,-1501 521,-1495 527,-1495 527,-1495 593,-1495 593,-1495 599,-1495 605,-1501 605,-1507 605,-1507 605,-1519 605,-1519 605,-1525 599,-1531 593,-1531"/>
<text text-anchor="middle" x="560" y="-1510.2" font-family="DejaVu Sans" font-size="11.00">termin&#45;render</text>
</g>
<!-- termin&#45;scene&#45;&gt;termin&#45;render -->
<g id="edge84" class="edge">
<title>termin&#45;scene&#45;&gt;termin&#45;render</title>
<path fill="none" stroke="#666666" stroke-width="1.1" d="M557.32,-412.18C545.09,-496.31 494.41,-856.51 478.5,-1154 474.83,-1222.57 444.96,-1403.08 478.5,-1463 485.33,-1475.21 496.51,-1484.8 508.42,-1492.18"/>
<polygon fill="#666666" stroke="#666666" stroke-width="1.1" points="507.41,-1494.43 514.69,-1495.83 509.88,-1490.19 507.41,-1494.43"/>
</g>
<!-- termin&#45;glb -->
<g id="node44" class="node">
<title>termin&#45;glb</title>
<path fill="#f7f7f7" stroke="#444444" d="M791,-1122C791,-1122 744,-1122 744,-1122 738,-1122 732,-1116 732,-1110 732,-1110 732,-1098 732,-1098 732,-1092 738,-1086 744,-1086 744,-1086 791,-1086 791,-1086 797,-1086 803,-1092 803,-1098 803,-1098 803,-1110 803,-1110 803,-1116 797,-1122 791,-1122"/>
<text text-anchor="middle" x="767.5" y="-1101.2" font-family="DejaVu Sans" font-size="11.00">termin&#45;glb</text>
</g>
<!-- termin&#45;scene&#45;&gt;termin&#45;glb -->
<g id="edge80" class="edge">
<title>termin&#45;scene&#45;&gt;termin&#45;glb</title>
<path fill="none" stroke="#666666" stroke-width="1.1" d="M562.51,-412.08C570.36,-503.09 608.5,-910.94 670,-1020 684.36,-1045.47 709.46,-1066.95 730.47,-1081.82"/>
<polygon fill="#666666" stroke="#666666" stroke-width="1.1" points="729.12,-1083.86 736.27,-1085.83 731.91,-1079.83 729.12,-1083.86"/>
</g>
<!-- termin&#45;prefab -->
<g id="node48" class="node">
<title>termin&#45;prefab</title>
<path fill="#f7f7f7" stroke="#444444" d="M800.5,-170C800.5,-170 734.5,-170 734.5,-170 728.5,-170 722.5,-164 722.5,-158 722.5,-158 722.5,-146 722.5,-146 722.5,-140 728.5,-134 734.5,-134 734.5,-134 800.5,-134 800.5,-134 806.5,-134 812.5,-140 812.5,-146 812.5,-146 812.5,-158 812.5,-158 812.5,-164 806.5,-170 800.5,-170"/>
<text text-anchor="middle" x="767.5" y="-149.2" font-family="DejaVu Sans" font-size="11.00">termin&#45;prefab</text>
</g>
<!-- termin&#45;scene&#45;&gt;termin&#45;prefab -->
<g id="edge83" class="edge">
<title>termin&#45;scene&#45;&gt;termin&#45;prefab</title>
<path fill="none" stroke="#666666" stroke-width="1.1" d="M564.48,-375.88C573.61,-333.46 602.38,-227.3 670,-174 682.76,-163.95 699.25,-158.32 714.98,-155.22"/>
<polygon fill="#666666" stroke="#666666" stroke-width="1.1" points="715.66,-157.58 722.14,-153.96 714.82,-152.76 715.66,-157.58"/>
</g>
<!-- termin&#45;skeleton&#45;&gt;termin&#45;animation -->
<g id="edge86" class="edge">
<title>termin&#45;skeleton&#45;&gt;termin&#45;animation</title>
<path fill="none" stroke="#666666" stroke-width="1.1" d="M818.16,-476C856.33,-476 909.25,-476 949.99,-476"/>
<polygon fill="#666666" stroke="#666666" stroke-width="1.1" points="950.2,-478.45 957.2,-476 950.2,-473.55 950.2,-478.45"/>
</g>
<!-- termin&#45;components&#45;skeleton -->
<g id="node24" class="node">
<title>termin&#45;components&#45;skeleton</title>
<path fill="#f7f7f7" stroke="#444444" d="M841.5,-915C841.5,-915 693.5,-915 693.5,-915 687.5,-915 681.5,-909 681.5,-903 681.5,-903 681.5,-891 681.5,-891 681.5,-885 687.5,-879 693.5,-879 693.5,-879 841.5,-879 841.5,-879 847.5,-879 853.5,-885 853.5,-891 853.5,-891 853.5,-903 853.5,-903 853.5,-909 847.5,-915 841.5,-915"/>
<text text-anchor="middle" x="767.5" y="-894.2" font-family="DejaVu Sans" font-size="11.00">termin&#45;components&#45;skeleton</text>
</g>
<!-- termin&#45;skeleton&#45;&gt;termin&#45;components&#45;skeleton -->
<g id="edge87" class="edge">
<title>termin&#45;skeleton&#45;&gt;termin&#45;components&#45;skeleton</title>
<path fill="none" stroke="#666666" stroke-width="1.1" d="M716.68,-487.13C689.06,-496.11 657.38,-511.88 641.5,-539 606.92,-598.07 606.92,-787.93 641.5,-847 649.28,-860.3 661.33,-870.06 674.94,-877.24"/>
<polygon fill="#666666" stroke="#666666" stroke-width="1.1" points="673.94,-879.47 681.3,-880.35 676.09,-875.07 673.94,-879.47"/>
</g>
<!-- termin&#45;tween -->
<g id="node15" class="node">
<title>termin&#45;tween</title>
<path fill="#f7f7f7" stroke="#444444" d="M229.5,-290C229.5,-290 165.5,-290 165.5,-290 159.5,-290 153.5,-284 153.5,-278 153.5,-278 153.5,-266 153.5,-266 153.5,-260 159.5,-254 165.5,-254 165.5,-254 229.5,-254 229.5,-254 235.5,-254 241.5,-260 241.5,-266 241.5,-266 241.5,-278 241.5,-278 241.5,-284 235.5,-290 229.5,-290"/>
<text text-anchor="middle" x="197.5" y="-269.2" font-family="DejaVu Sans" font-size="11.00">termin&#45;tween</text>
</g>
<!-- termin&#45;tween&#45;&gt;termin&#45;components&#45;tween -->
<g id="edge88" class="edge">
<title>termin&#45;tween&#45;&gt;termin&#45;components&#45;tween</title>
<path fill="none" stroke="#666666" stroke-width="1.1" d="M233.19,-290.05C239.47,-294.57 245.45,-299.9 250,-306 302.2,-375.99 247.35,-430.24 307,-494 353.41,-543.61 387.39,-521.63 450,-548 523.66,-579.03 542.6,-586.14 613,-624 639.18,-638.08 643.16,-646.21 670,-659 680.16,-663.84 691.2,-668.37 702.06,-672.44"/>
<polygon fill="#666666" stroke="#666666" stroke-width="1.1" points="701.38,-674.8 708.79,-674.92 703.07,-670.2 701.38,-674.8"/>
</g>
<!-- termin&#45;voxels -->
<g id="node16" class="node">
<title>termin&#45;voxels</title>
<path fill="#f7f7f7" stroke="#444444" d="M230.5,-494C230.5,-494 164.5,-494 164.5,-494 158.5,-494 152.5,-488 152.5,-482 152.5,-482 152.5,-470 152.5,-470 152.5,-464 158.5,-458 164.5,-458 164.5,-458 230.5,-458 230.5,-458 236.5,-458 242.5,-464 242.5,-470 242.5,-470 242.5,-482 242.5,-482 242.5,-488 236.5,-494 230.5,-494"/>
<text text-anchor="middle" x="197.5" y="-473.2" font-family="DejaVu Sans" font-size="11.00">termin&#45;voxels</text>
</g>
<!-- termin&#45;voxels&#45;&gt;termin&#45;components&#45;voxels -->
<g id="edge89" class="edge">
<title>termin&#45;voxels&#45;&gt;termin&#45;components&#45;voxels</title>
<path fill="none" stroke="#666666" stroke-width="1.1" d="M203.59,-494.01C215.34,-532.35 247.96,-622.55 307,-672 415.71,-763.05 579.95,-802.23 679.81,-818.4"/>
<polygon fill="#666666" stroke="#666666" stroke-width="1.1" points="679.59,-820.84 686.89,-819.52 680.36,-816 679.59,-820.84"/>
</g>
<!-- termin -->
<g id="node17" class="node">
<title>termin</title>
<path fill="#f7f7f7" stroke="#444444" d="M59,-460C59,-460 29,-460 29,-460 23,-460 17,-454 17,-448 17,-448 17,-436 17,-436 17,-430 23,-424 29,-424 29,-424 59,-424 59,-424 65,-424 71,-430 71,-436 71,-436 71,-448 71,-448 71,-454 65,-460 59,-460"/>
<text text-anchor="middle" x="44" y="-439.2" font-family="DejaVu Sans" font-size="11.00">termin</text>
</g>
<!-- termin&#45;&gt;termin&#45;app -->
<g id="edge2" class="edge">
<title>termin&#45;&gt;termin&#45;app</title>
<path fill="none" stroke="#666666" stroke-width="1.1" d="M45.28,-460.15C48.25,-623.66 80.29,-1837 377.5,-1837 377.5,-1837 377.5,-1837 1013,-1837 1171.56,-1837 1235.52,-1816.5 1342,-1699 1442.21,-1588.42 1460.12,-1397.03 1463.31,-1328.4"/>
<polygon fill="#666666" stroke="#666666" stroke-width="1.1" points="1465.76,-1328.5 1463.61,-1321.4 1460.87,-1328.29 1465.76,-1328.5"/>
</g>
<!-- termin&#45;&gt;termin&#45;navmesh -->
<g id="edge3" class="edge">
<title>termin&#45;&gt;termin&#45;navmesh</title>
<path fill="none" stroke="#666666" stroke-width="1.1" d="M71.04,-436.16C89.37,-432.04 114.64,-426.37 137.7,-421.2"/>
<polygon fill="#666666" stroke="#666666" stroke-width="1.1" points="138.48,-423.53 144.78,-419.61 137.41,-418.75 138.48,-423.53"/>
</g>
<!-- termin&#45;&gt;termin&#45;tween -->
<g id="edge4" class="edge">
<title>termin&#45;&gt;termin&#45;tween</title>
<path fill="none" stroke="#666666" stroke-width="1.1" d="M53.84,-423.78C68.17,-395.72 98.75,-341.47 137,-306 141.74,-301.6 147.15,-297.54 152.73,-293.87"/>
<polygon fill="#666666" stroke="#666666" stroke-width="1.1" points="154.2,-295.84 158.83,-290.04 151.6,-291.69 154.2,-295.84"/>
</g>
<!-- termin&#45;&gt;termin&#45;voxels -->
<g id="edge5" class="edge">
<title>termin&#45;&gt;termin&#45;voxels</title>
<path fill="none" stroke="#666666" stroke-width="1.1" d="M71.04,-447.84C91.46,-452.43 120.5,-458.94 145.5,-464.55"/>
<polygon fill="#666666" stroke="#666666" stroke-width="1.1" points="145.07,-466.97 152.43,-466.11 146.14,-462.19 145.07,-466.97"/>
</g>
<!-- termin&#45;components&#45;collision&#45;&gt;termin&#45;components&#45;physics -->
<g id="edge25" class="edge">
<title>termin&#45;components&#45;collision&#45;&gt;termin&#45;components&#45;physics</title>
<path fill="none" stroke="#666666" stroke-width="1.1" d="M1097.05,-761C1117.36,-761 1139.14,-761 1159.7,-761"/>
<polygon fill="#666666" stroke="#666666" stroke-width="1.1" points="1159.92,-763.45 1166.92,-761 1159.92,-758.55 1159.92,-763.45"/>
</g>
<!-- termin&#45;render&#45;passes -->
<g id="node49" class="node">
<title>termin&#45;render&#45;passes</title>
<path fill="#f7f7f7" stroke="#444444" d="M1304.5,-1056C1304.5,-1056 1196.5,-1056 1196.5,-1056 1190.5,-1056 1184.5,-1050 1184.5,-1044 1184.5,-1044 1184.5,-1032 1184.5,-1032 1184.5,-1026 1190.5,-1020 1196.5,-1020 1196.5,-1020 1304.5,-1020 1304.5,-1020 1310.5,-1020 1316.5,-1026 1316.5,-1032 1316.5,-1032 1316.5,-1044 1316.5,-1044 1316.5,-1050 1310.5,-1056 1304.5,-1056"/>
<text text-anchor="middle" x="1250.5" y="-1035.2" font-family="DejaVu Sans" font-size="11.00">termin&#45;render&#45;passes</text>
</g>
<!-- termin&#45;components&#45;collision&#45;&gt;termin&#45;render&#45;passes -->
<g id="edge26" class="edge">
<title>termin&#45;components&#45;collision&#45;&gt;termin&#45;render&#45;passes</title>
<path fill="none" stroke="#666666" stroke-width="1.1" d="M1045.25,-779.04C1064.11,-791.04 1087.07,-808.36 1102,-829 1153.59,-900.28 1102.53,-956.12 1167,-1016 1170.28,-1019.05 1173.93,-1021.68 1177.82,-1023.95"/>
<polygon fill="#666666" stroke="#666666" stroke-width="1.1" points="1176.78,-1026.17 1184.12,-1027.24 1179.05,-1021.83 1176.78,-1026.17"/>
</g>
<!-- termin&#45;components&#45;kinematic&#45;&gt;termin&#45;app -->
<g id="edge27" class="edge">
<title>termin&#45;components&#45;kinematic&#45;&gt;termin&#45;app</title>
<path fill="none" stroke="#666666" stroke-width="1.1" d="M837.38,-575.21C844.76,-579.43 851.55,-584.62 857,-591 947.27,-696.74 847.14,-779.84 922,-897 1050.54,-1098.16 1316.13,-1235.62 1420.51,-1283.89"/>
<polygon fill="#666666" stroke="#666666" stroke-width="1.1" points="1419.77,-1286.24 1427.15,-1286.94 1421.82,-1281.79 1419.77,-1286.24"/>
</g>
<!-- termin&#45;components&#45;mesh&#45;&gt;termin&#45;navmesh -->
<g id="edge30" class="edge">
<title>termin&#45;components&#45;mesh&#45;&gt;termin&#45;navmesh</title>
<path fill="none" stroke="#666666" stroke-width="1.1" d="M712.03,-742.92C698.21,-738.03 683.47,-732.55 670,-727 644.08,-716.33 639.31,-709.67 613,-700 480.84,-651.44 409.08,-714.97 307,-618 247.39,-561.37 299.78,-507.44 250,-442 246.83,-437.84 243,-434.03 238.88,-430.58"/>
<polygon fill="#666666" stroke="#666666" stroke-width="1.1" points="240.14,-428.46 233.1,-426.12 237.14,-432.34 240.14,-428.46"/>
</g>
<!-- termin&#45;components&#45;mesh&#45;&gt;termin&#45;components&#45;collision -->
<g id="edge28" class="edge">
<title>termin&#45;components&#45;mesh&#45;&gt;termin&#45;components&#45;collision</title>
<path fill="none" stroke="#666666" stroke-width="1.1" d="M845.56,-761C869.17,-761 895.36,-761 919.81,-761"/>
<polygon fill="#666666" stroke="#666666" stroke-width="1.1" points="920,-763.45 927,-761 920,-758.55 920,-763.45"/>
</g>
<!-- termin&#45;components&#45;render -->
<g id="node31" class="node">
<title>termin&#45;components&#45;render</title>
<path fill="#f7f7f7" stroke="#444444" d="M1081,-1531C1081,-1531 943,-1531 943,-1531 937,-1531 931,-1525 931,-1519 931,-1519 931,-1507 931,-1507 931,-1501 937,-1495 943,-1495 943,-1495 1081,-1495 1081,-1495 1087,-1495 1093,-1501 1093,-1507 1093,-1507 1093,-1519 1093,-1519 1093,-1525 1087,-1531 1081,-1531"/>
<text text-anchor="middle" x="1012" y="-1510.2" font-family="DejaVu Sans" font-size="11.00">termin&#45;components&#45;render</text>
</g>
<!-- termin&#45;components&#45;mesh&#45;&gt;termin&#45;components&#45;render -->
<g id="edge29" class="edge">
<title>termin&#45;components&#45;mesh&#45;&gt;termin&#45;components&#45;render</title>
<path fill="none" stroke="#666666" stroke-width="1.1" d="M838.83,-779.23C845.77,-783.44 852.06,-788.62 857,-795 934.79,-895.45 881.47,-1242.59 922,-1363 938.23,-1411.23 971.51,-1460.77 992.45,-1489.13"/>
<polygon fill="#666666" stroke="#666666" stroke-width="1.1" points="990.57,-1490.7 996.72,-1494.85 994.5,-1487.77 990.57,-1490.7"/>
</g>
<!-- termin&#45;components&#45;physics&#45;&gt;termin&#45;app -->
<g id="edge31" class="edge">
<title>termin&#45;components&#45;physics&#45;&gt;termin&#45;app</title>
<path fill="none" stroke="#666666" stroke-width="1.1" d="M1259.05,-779.04C1275.61,-819.03 1315.72,-918.35 1342,-1004 1373.4,-1106.33 1346.54,-1144.69 1399,-1238 1408.03,-1254.07 1422.15,-1268.87 1434.92,-1280.27"/>
<polygon fill="#666666" stroke="#666666" stroke-width="1.1" points="1433.4,-1282.2 1440.29,-1284.95 1436.62,-1278.5 1433.4,-1282.2"/>
</g>
<!-- termin&#45;components&#45;physics&#45;&gt;termin&#45;default&#45;assets -->
<g id="edge32" class="edge">
<title>termin&#45;components&#45;physics&#45;&gt;termin&#45;default&#45;assets</title>
<path fill="none" stroke="#666666" stroke-width="1.1" d="M1334.27,-761C1353.2,-761 1373.17,-761 1391.63,-761"/>
<polygon fill="#666666" stroke="#666666" stroke-width="1.1" points="1391.89,-763.45 1398.89,-761 1391.89,-758.55 1391.89,-763.45"/>
</g>
<!-- termin&#45;components&#45;skeleton&#45;&gt;termin&#45;components&#45;animation -->
<g id="edge35" class="edge">
<title>termin&#45;components&#45;skeleton&#45;&gt;termin&#45;components&#45;animation</title>
<path fill="none" stroke="#666666" stroke-width="1.1" d="M853.66,-885.06C873.43,-882.29 894.62,-879.32 914.83,-876.48"/>
<polygon fill="#666666" stroke="#666666" stroke-width="1.1" points="915.35,-878.89 921.94,-875.49 914.67,-874.03 915.35,-878.89"/>
</g>
<!-- termin&#45;components&#45;skeleton&#45;&gt;termin&#45;components&#45;render -->
<g id="edge36" class="edge">
<title>termin&#45;components&#45;skeleton&#45;&gt;termin&#45;components&#45;render</title>
<path fill="none" stroke="#666666" stroke-width="1.1" d="M838.18,-915.15C845.33,-919.38 851.85,-924.58 857,-931 978.58,-1082.38 856.81,-1180.11 922,-1363 939.09,-1410.93 972.09,-1460.57 992.75,-1489.02"/>
<polygon fill="#666666" stroke="#666666" stroke-width="1.1" points="990.85,-1490.57 996.96,-1494.76 994.8,-1487.67 990.85,-1490.57"/>
</g>
<!-- termin&#45;components&#45;tween&#45;&gt;termin&#45;app -->
<g id="edge37" class="edge">
<title>termin&#45;components&#45;tween&#45;&gt;termin&#45;app</title>
<path fill="none" stroke="#666666" stroke-width="1.1" d="M838.12,-711.2C845.28,-715.41 851.82,-720.61 857,-727 972.35,-869.3 802.12,-995.5 922,-1134 1052.71,-1285.02 1316.08,-1302.85 1420.21,-1303.72"/>
<polygon fill="#666666" stroke="#666666" stroke-width="1.1" points="1420.41,-1306.17 1427.42,-1303.75 1420.43,-1301.27 1420.41,-1306.17"/>
</g>
<!-- termin&#45;components&#45;ui&#45;&gt;termin&#45;render&#45;passes -->
<g id="edge38" class="edge">
<title>termin&#45;components&#45;ui&#45;&gt;termin&#45;render&#45;passes</title>
<path fill="none" stroke="#666666" stroke-width="1.1" d="M835.13,-975.11C925,-988.75 1084.45,-1012.95 1177.16,-1027.02"/>
<polygon fill="#666666" stroke="#666666" stroke-width="1.1" points="1176.98,-1029.47 1184.27,-1028.1 1177.71,-1024.63 1176.98,-1029.47"/>
</g>
<!-- termin&#45;components&#45;voxels&#45;&gt;termin&#45;navmesh -->
<g id="edge39" class="edge">
<title>termin&#45;components&#45;voxels&#45;&gt;termin&#45;navmesh</title>
<path fill="none" stroke="#666666" stroke-width="1.1" d="M716.37,-847.07C654.67,-868.27 546.23,-902.16 450,-915 387,-923.41 354.55,-957.17 307,-915 227.79,-844.76 305.66,-532.06 250,-442 247.43,-437.84 244.13,-434.08 240.45,-430.71"/>
<polygon fill="#666666" stroke="#666666" stroke-width="1.1" points="241.79,-428.63 234.83,-426.05 238.66,-432.4 241.79,-428.63"/>
</g>
<!-- termin&#45;assets&#45;&gt;termin&#45;skeleton -->
<g id="edge13" class="edge">
<title>termin&#45;assets&#45;&gt;termin&#45;skeleton</title>
<path fill="none" stroke="#666666" stroke-width="1.1" d="M423.66,-842.85C432.89,-838.16 442.18,-832.53 450,-826 577.7,-719.29 542.5,-629.96 670,-523 682.13,-512.82 696.85,-504.22 711.09,-497.27"/>
<polygon fill="#666666" stroke="#666666" stroke-width="1.1" points="712.31,-499.41 717.59,-494.2 710.21,-494.98 712.31,-499.41"/>
</g>
<!-- termin&#45;assets&#45;&gt;termin&#45;components&#45;voxels -->
<g id="edge10" class="edge">
<title>termin&#45;assets&#45;&gt;termin&#45;components&#45;voxels</title>
<path fill="none" stroke="#666666" stroke-width="1.1" d="M423.52,-856.47C485.63,-851.5 600.29,-842.31 679.85,-835.94"/>
<polygon fill="#666666" stroke="#666666" stroke-width="1.1" points="680.17,-838.37 686.95,-835.37 679.78,-833.49 680.17,-838.37"/>
</g>
<!-- termin&#45;components&#45;foliage -->
<g id="node42" class="node">
<title>termin&#45;components&#45;foliage</title>
<path fill="#f7f7f7" stroke="#444444" d="M836.5,-1389C836.5,-1389 698.5,-1389 698.5,-1389 692.5,-1389 686.5,-1383 686.5,-1377 686.5,-1377 686.5,-1365 686.5,-1365 686.5,-1359 692.5,-1353 698.5,-1353 698.5,-1353 836.5,-1353 836.5,-1353 842.5,-1353 848.5,-1359 848.5,-1365 848.5,-1365 848.5,-1377 848.5,-1377 848.5,-1383 842.5,-1389 836.5,-1389"/>
<text text-anchor="middle" x="767.5" y="-1368.2" font-family="DejaVu Sans" font-size="11.00">termin&#45;components&#45;foliage</text>
</g>
<!-- termin&#45;assets&#45;&gt;termin&#45;components&#45;foliage -->
<g id="edge9" class="edge">
<title>termin&#45;assets&#45;&gt;termin&#45;components&#45;foliage</title>
<path fill="none" stroke="#666666" stroke-width="1.1" d="M379.19,-878.12C379.08,-943.59 387.68,-1170.31 507,-1291 552.22,-1336.73 622.93,-1356.44 679.13,-1364.88"/>
<polygon fill="#666666" stroke="#666666" stroke-width="1.1" points="678.98,-1367.33 686.25,-1365.9 679.67,-1362.48 678.98,-1367.33"/>
</g>
<!-- termin&#45;assets&#45;&gt;termin&#45;glb -->
<g id="edge11" class="edge">
<title>termin&#45;assets&#45;&gt;termin&#45;glb</title>
<path fill="none" stroke="#666666" stroke-width="1.1" d="M389.9,-878.19C409.06,-910.14 452.96,-976.51 507,-1014 575.24,-1061.35 670.75,-1085.93 724.83,-1096.81"/>
<polygon fill="#666666" stroke="#666666" stroke-width="1.1" points="724.52,-1099.24 731.86,-1098.19 725.47,-1094.43 724.52,-1099.24"/>
</g>
<!-- termin&#45;assets&#45;&gt;termin&#45;prefab -->
<g id="edge12" class="edge">
<title>termin&#45;assets&#45;&gt;termin&#45;prefab</title>
<path fill="none" stroke="#666666" stroke-width="1.1" d="M423.79,-847.12C433.93,-842.12 443.59,-835.28 450,-826 532.64,-706.32 404.02,-276.71 507,-174 560.99,-120.15 656.46,-127.7 715.33,-139.13"/>
<polygon fill="#666666" stroke="#666666" stroke-width="1.1" points="714.98,-141.56 722.32,-140.54 715.95,-136.75 714.98,-141.56"/>
</g>
<!-- termin&#45;nanobind&#45;sdk -->
<g id="node30" class="node">
<title>termin&#45;nanobind&#45;sdk</title>
<path fill="#f7f7f7" stroke="#444444" d="M430,-810C430,-810 327,-810 327,-810 321,-810 315,-804 315,-798 315,-798 315,-786 315,-786 315,-780 321,-774 327,-774 327,-774 430,-774 430,-774 436,-774 442,-780 442,-786 442,-786 442,-798 442,-798 442,-804 436,-810 430,-810"/>
<text text-anchor="middle" x="378.5" y="-789.2" font-family="DejaVu Sans" font-size="11.00">termin&#45;nanobind&#45;sdk</text>
</g>
<!-- termin&#45;nanobind&#45;sdk&#45;&gt;termin&#45;base -->
<g id="edge62" class="edge">
<title>termin&#45;nanobind&#45;sdk&#45;&gt;termin&#45;base</title>
<path fill="none" stroke="#666666" stroke-width="1.1" d="M372.09,-773.76C359.62,-731.39 328.32,-622.9 307,-531 277.02,-401.77 323.78,-348.26 250,-238 247.17,-233.78 243.63,-229.95 239.72,-226.52"/>
<polygon fill="#666666" stroke="#666666" stroke-width="1.1" points="241.2,-224.57 234.21,-222.09 238.13,-228.38 241.2,-224.57"/>
</g>
<!-- termin&#45;components&#45;render&#45;&gt;termin&#45;render&#45;passes -->
<g id="edge33" class="edge">
<title>termin&#45;components&#45;render&#45;&gt;termin&#45;render&#45;passes</title>
<path fill="none" stroke="#666666" stroke-width="1.1" d="M1024.62,-1494.89C1042.28,-1467.06 1076.51,-1411.86 1102,-1363 1159.02,-1253.68 1216.52,-1117.94 1239.3,-1062.91"/>
<polygon fill="#666666" stroke="#666666" stroke-width="1.1" points="1241.62,-1063.71 1242.03,-1056.3 1237.09,-1061.84 1241.62,-1063.71"/>
</g>
<!-- termin&#45;runtime -->
<g id="node50" class="node">
<title>termin&#45;runtime</title>
<path fill="#f7f7f7" stroke="#444444" d="M1287,-1586C1287,-1586 1214,-1586 1214,-1586 1208,-1586 1202,-1580 1202,-1574 1202,-1574 1202,-1562 1202,-1562 1202,-1556 1208,-1550 1214,-1550 1214,-1550 1287,-1550 1287,-1550 1293,-1550 1299,-1556 1299,-1562 1299,-1562 1299,-1574 1299,-1574 1299,-1580 1293,-1586 1287,-1586"/>
<text text-anchor="middle" x="1250.5" y="-1565.2" font-family="DejaVu Sans" font-size="11.00">termin&#45;runtime</text>
</g>
<!-- termin&#45;components&#45;render&#45;&gt;termin&#45;runtime -->
<g id="edge34" class="edge">
<title>termin&#45;components&#45;render&#45;&gt;termin&#45;runtime</title>
<path fill="none" stroke="#666666" stroke-width="1.1" d="M1090.44,-1531.01C1124.63,-1538.96 1164.01,-1548.12 1195.03,-1555.33"/>
<polygon fill="#666666" stroke="#666666" stroke-width="1.1" points="1194.55,-1557.74 1201.92,-1556.94 1195.66,-1552.96 1194.55,-1557.74"/>
</g>
<!-- termin&#45;display&#45;&gt;termin&#45;components&#45;render -->
<g id="edge41" class="edge">
<title>termin&#45;display&#45;&gt;termin&#45;components&#45;render</title>
<path fill="none" stroke="#666666" stroke-width="1.1" d="M814.11,-1506.5C844.85,-1507.52 886.4,-1508.89 923.4,-1510.11"/>
<polygon fill="#666666" stroke="#666666" stroke-width="1.1" points="923.66,-1512.57 930.73,-1510.35 923.82,-1507.67 923.66,-1512.57"/>
</g>
<!-- termin&#45;display&#45;&gt;termin&#45;engine -->
<g id="edge42" class="edge">
<title>termin&#45;display&#45;&gt;termin&#45;engine</title>
<path fill="none" stroke="#666666" stroke-width="1.1" d="M790.88,-1486.82C835.27,-1450.76 934.38,-1370.25 983,-1330.74"/>
<polygon fill="#666666" stroke="#666666" stroke-width="1.1" points="984.79,-1332.45 988.67,-1326.14 981.7,-1328.65 984.79,-1332.45"/>
</g>
<!-- termin&#45;graphics&#45;&gt;termin&#45;voxels -->
<g id="edge51" class="edge">
<title>termin&#45;graphics&#45;&gt;termin&#45;voxels</title>
<path fill="none" stroke="#666666" stroke-width="1.1" d="M373.59,-1478.78C362.5,-1426.88 330.18,-1273.82 307,-1146 261.5,-895.08 215.39,-589.58 202.22,-501.11"/>
<polygon fill="#666666" stroke="#666666" stroke-width="1.1" points="204.64,-500.73 201.18,-494.16 199.79,-501.45 204.64,-500.73"/>
</g>
<!-- termin&#45;graphics&#45;&gt;termin&#45;render -->
<g id="edge50" class="edge">
<title>termin&#45;graphics&#45;&gt;termin&#45;render</title>
<path fill="none" stroke="#666666" stroke-width="1.1" d="M429.02,-1501.41C453.49,-1503.59 482.98,-1506.22 507.68,-1508.43"/>
<polygon fill="#666666" stroke="#666666" stroke-width="1.1" points="507.65,-1510.88 514.84,-1509.06 508.09,-1506 507.65,-1510.88"/>
</g>
<!-- termin&#45;gui -->
<g id="node38" class="node">
<title>termin&#45;gui</title>
<path fill="#f7f7f7" stroke="#444444" d="M583.5,-1206C583.5,-1206 536.5,-1206 536.5,-1206 530.5,-1206 524.5,-1200 524.5,-1194 524.5,-1194 524.5,-1182 524.5,-1182 524.5,-1176 530.5,-1170 536.5,-1170 536.5,-1170 583.5,-1170 583.5,-1170 589.5,-1170 595.5,-1176 595.5,-1182 595.5,-1182 595.5,-1194 595.5,-1194 595.5,-1200 589.5,-1206 583.5,-1206"/>
<text text-anchor="middle" x="560" y="-1185.2" font-family="DejaVu Sans" font-size="11.00">termin&#45;gui</text>
</g>
<!-- termin&#45;graphics&#45;&gt;termin&#45;gui -->
<g id="edge48" class="edge">
<title>termin&#45;graphics&#45;&gt;termin&#45;gui</title>
<path fill="none" stroke="#666666" stroke-width="1.1" d="M390.19,-1478.6C420.99,-1425.57 509.95,-1272.43 544.78,-1212.48"/>
<polygon fill="#666666" stroke="#666666" stroke-width="1.1" points="546.97,-1213.59 548.37,-1206.31 542.73,-1211.13 546.97,-1213.59"/>
</g>
<!-- termin&#45;graphics&#45;&gt;termin&#45;glb -->
<g id="edge47" class="edge">
<title>termin&#45;graphics&#45;&gt;termin&#45;glb</title>
<path fill="none" stroke="#666666" stroke-width="1.1" d="M408.86,-1478.88C457.77,-1447.29 556.16,-1377.56 613,-1295 655.1,-1233.86 617.26,-1190.24 670,-1138 684.72,-1123.42 706.07,-1115.06 724.95,-1110.29"/>
<polygon fill="#666666" stroke="#666666" stroke-width="1.1" points="725.52,-1112.67 731.77,-1108.69 724.4,-1107.9 725.52,-1112.67"/>
</g>
<!-- termin&#45;materials -->
<g id="node45" class="node">
<title>termin&#45;materials</title>
<path fill="#f7f7f7" stroke="#444444" d="M601,-1463C601,-1463 519,-1463 519,-1463 513,-1463 507,-1457 507,-1451 507,-1451 507,-1439 507,-1439 507,-1433 513,-1427 519,-1427 519,-1427 601,-1427 601,-1427 607,-1427 613,-1433 613,-1439 613,-1439 613,-1451 613,-1451 613,-1457 607,-1463 601,-1463"/>
<text text-anchor="middle" x="560" y="-1442.2" font-family="DejaVu Sans" font-size="11.00">termin&#45;materials</text>
</g>
<!-- termin&#45;graphics&#45;&gt;termin&#45;materials -->
<g id="edge49" class="edge">
<title>termin&#45;graphics&#45;&gt;termin&#45;materials</title>
<path fill="none" stroke="#666666" stroke-width="1.1" d="M429.02,-1482.65C450.94,-1476.31 476.88,-1468.79 499.81,-1462.15"/>
<polygon fill="#666666" stroke="#666666" stroke-width="1.1" points="500.77,-1464.42 506.82,-1460.12 499.41,-1459.71 500.77,-1464.42"/>
</g>
<!-- termin&#45;lighting&#45;&gt;termin&#45;render -->
<g id="edge59" class="edge">
<title>termin&#45;lighting&#45;&gt;termin&#45;render</title>
<path fill="none" stroke="#666666" stroke-width="1.1" d="M426.19,-1551.47C451.27,-1544.21 482.23,-1535.24 507.94,-1527.79"/>
<polygon fill="#666666" stroke="#666666" stroke-width="1.1" points="508.66,-1530.13 514.7,-1525.83 507.3,-1525.43 508.66,-1530.13"/>
</g>
<!-- termin&#45;render&#45;&gt;termin&#45;navmesh -->
<g id="edge70" class="edge">
<title>termin&#45;render&#45;&gt;termin&#45;navmesh</title>
<path fill="none" stroke="#666666" stroke-width="1.1" d="M553.02,-1531.14C540.42,-1566.03 507.44,-1641.73 450,-1672 393.77,-1701.63 352.97,-1715.89 307,-1672 208.04,-1577.52 317.6,-560.95 250,-442 247.67,-437.9 244.63,-434.21 241.17,-430.91"/>
<polygon fill="#666666" stroke="#666666" stroke-width="1.1" points="242.38,-428.71 235.46,-426.03 239.19,-432.44 242.38,-428.71"/>
</g>
<!-- termin&#45;render&#45;&gt;termin&#45;display -->
<g id="edge69" class="edge">
<title>termin&#45;render&#45;&gt;termin&#45;display</title>
<path fill="none" stroke="#666666" stroke-width="1.1" d="M605.08,-1511.28C636.9,-1510.05 680.01,-1508.37 713.68,-1507.06"/>
<polygon fill="#666666" stroke="#666666" stroke-width="1.1" points="713.81,-1509.5 720.71,-1506.78 713.62,-1504.61 713.81,-1509.5"/>
</g>
<!-- termin&#45;render&#45;&gt;termin&#45;components&#45;foliage -->
<g id="edge68" class="edge">
<title>termin&#45;render&#45;&gt;termin&#45;components&#45;foliage</title>
<path fill="none" stroke="#666666" stroke-width="1.1" d="M588.91,-1495C596.74,-1489.88 605.23,-1484.27 613,-1479 655.85,-1449.93 704.65,-1415.34 735.5,-1393.28"/>
<polygon fill="#666666" stroke="#666666" stroke-width="1.1" points="737.16,-1395.1 741.42,-1389.04 734.3,-1391.12 737.16,-1395.1"/>
</g>
<!-- termin&#45;engine&#45;&gt;termin&#45;app -->
<g id="edge44" class="edge">
<title>termin&#45;engine&#45;&gt;termin&#45;app</title>
<path fill="none" stroke="#666666" stroke-width="1.1" d="M1057.66,-1315.35C1088.33,-1320.02 1130.01,-1325.61 1167,-1328 1244.62,-1333.02 1264.62,-1335.85 1342,-1328 1368.32,-1325.33 1397.34,-1319.5 1420.48,-1314.15"/>
<polygon fill="#666666" stroke="#666666" stroke-width="1.1" points="1421.21,-1316.49 1427.46,-1312.5 1420.09,-1311.72 1421.21,-1316.49"/>
</g>
<!-- termin&#45;android -->
<g id="node40" class="node">
<title>termin&#45;android</title>
<path fill="#f7f7f7" stroke="#444444" d="M1501,-1072C1501,-1072 1429,-1072 1429,-1072 1423,-1072 1417,-1066 1417,-1060 1417,-1060 1417,-1048 1417,-1048 1417,-1042 1423,-1036 1429,-1036 1429,-1036 1501,-1036 1501,-1036 1507,-1036 1513,-1042 1513,-1048 1513,-1048 1513,-1060 1513,-1060 1513,-1066 1507,-1072 1501,-1072"/>
<text text-anchor="middle" x="1465" y="-1051.2" font-family="DejaVu Sans" font-size="11.00">termin&#45;android</text>
</g>
<!-- termin&#45;engine&#45;&gt;termin&#45;android -->
<g id="edge43" class="edge">
<title>termin&#45;engine&#45;&gt;termin&#45;android</title>
<path fill="none" stroke="#666666" stroke-width="1.1" d="M1045.07,-1289.94C1125.96,-1244.38 1338.03,-1124.95 1425.46,-1075.7"/>
<polygon fill="#666666" stroke="#666666" stroke-width="1.1" points="1426.89,-1077.71 1431.79,-1072.14 1424.49,-1073.44 1426.89,-1077.71"/>
</g>
<!-- termin&#45;openxr -->
<g id="node46" class="node">
<title>termin&#45;openxr</title>
<path fill="#f7f7f7" stroke="#444444" d="M1499.5,-1222C1499.5,-1222 1430.5,-1222 1430.5,-1222 1424.5,-1222 1418.5,-1216 1418.5,-1210 1418.5,-1210 1418.5,-1198 1418.5,-1198 1418.5,-1192 1424.5,-1186 1430.5,-1186 1430.5,-1186 1499.5,-1186 1499.5,-1186 1505.5,-1186 1511.5,-1192 1511.5,-1198 1511.5,-1198 1511.5,-1210 1511.5,-1210 1511.5,-1216 1505.5,-1222 1499.5,-1222"/>
<text text-anchor="middle" x="1465" y="-1201.2" font-family="DejaVu Sans" font-size="11.00">termin&#45;openxr</text>
</g>
<!-- termin&#45;engine&#45;&gt;termin&#45;openxr -->
<g id="edge45" class="edge">
<title>termin&#45;engine&#45;&gt;termin&#45;openxr</title>
<path fill="none" stroke="#666666" stroke-width="1.1" d="M1057.89,-1297.65C1141.74,-1278.31 1321.71,-1236.81 1411.21,-1216.17"/>
<polygon fill="#666666" stroke="#666666" stroke-width="1.1" points="1412.01,-1218.5 1418.28,-1214.54 1410.91,-1213.73 1412.01,-1218.5"/>
</g>
<!-- termin&#45;engine&#45;&gt;termin&#45;runtime -->
<g id="edge46" class="edge">
<title>termin&#45;engine&#45;&gt;termin&#45;runtime</title>
<path fill="none" stroke="#666666" stroke-width="1.1" d="M1029.63,-1326.28C1071.53,-1372.34 1181.39,-1493.12 1228.05,-1544.41"/>
<polygon fill="#666666" stroke="#666666" stroke-width="1.1" points="1226.37,-1546.21 1232.89,-1549.74 1229.99,-1542.91 1226.37,-1546.21"/>
</g>
<!-- tcplot -->
<g id="node37" class="node">
<title>tcplot</title>
<path fill="#f7f7f7" stroke="#444444" d="M782.5,-1258C782.5,-1258 752.5,-1258 752.5,-1258 746.5,-1258 740.5,-1252 740.5,-1246 740.5,-1246 740.5,-1234 740.5,-1234 740.5,-1228 746.5,-1222 752.5,-1222 752.5,-1222 782.5,-1222 782.5,-1222 788.5,-1222 794.5,-1228 794.5,-1234 794.5,-1234 794.5,-1246 794.5,-1246 794.5,-1252 788.5,-1258 782.5,-1258"/>
<text text-anchor="middle" x="767.5" y="-1237.2" font-family="DejaVu Sans" font-size="11.00">tcplot</text>
</g>
<!-- tcplot&#45;&gt;termin&#45;csharp -->
<g id="edge1" class="edge">
<title>tcplot&#45;&gt;termin&#45;csharp</title>
<path fill="none" stroke="#666666" stroke-width="1.1" d="M784.93,-1258.06C824.07,-1301.04 919.73,-1405.95 922,-1407 1150.84,-1512.85 1465.83,-1469.1 1588.59,-1445.93"/>
<polygon fill="#666666" stroke="#666666" stroke-width="1.1" points="1589.28,-1448.29 1595.69,-1444.57 1588.36,-1443.48 1589.28,-1448.29"/>
</g>
<!-- termin&#45;gui&#45;&gt;termin&#45;csg -->
<g id="edge54" class="edge">
<title>termin&#45;gui&#45;&gt;termin&#45;csg</title>
<path fill="none" stroke="#666666" stroke-width="1.1" d="M533.77,-1169.93C481,-1130.52 359.55,-1031.05 307,-915 207.27,-694.75 375.57,-580.61 250,-374 247.28,-369.53 243.73,-365.53 239.76,-361.98"/>
<polygon fill="#666666" stroke="#666666" stroke-width="1.1" points="241.11,-359.92 234.12,-357.42 238.02,-363.73 241.11,-359.92"/>
</g>
<!-- termin&#45;gui&#45;&gt;termin&#45;components&#45;ui -->
<g id="edge53" class="edge">
<title>termin&#45;gui&#45;&gt;termin&#45;components&#45;ui</title>
<path fill="none" stroke="#666666" stroke-width="1.1" d="M585.89,-1169.94C594.86,-1162.92 604.78,-1154.52 613,-1146 642.31,-1115.61 643.01,-1102.47 670,-1070 694.22,-1040.86 723.96,-1009.04 743.98,-988.15"/>
<polygon fill="#666666" stroke="#666666" stroke-width="1.1" points="745.76,-989.83 748.84,-983.09 742.23,-986.44 745.76,-989.83"/>
</g>
<!-- termin&#45;gui&#45;&gt;tcplot -->
<g id="edge52" class="edge">
<title>termin&#45;gui&#45;&gt;tcplot</title>
<path fill="none" stroke="#666666" stroke-width="1.1" d="M595.86,-1196.82C634.19,-1206.52 695.32,-1221.99 733.07,-1231.54"/>
<polygon fill="#666666" stroke="#666666" stroke-width="1.1" points="732.91,-1234.03 740.29,-1233.37 734.11,-1229.28 732.91,-1234.03"/>
</g>
<!-- termin&#45;nodegraph -->
<g id="node39" class="node">
<title>termin&#45;nodegraph</title>
<path fill="#f7f7f7" stroke="#444444" d="M812,-1190C812,-1190 723,-1190 723,-1190 717,-1190 711,-1184 711,-1178 711,-1178 711,-1166 711,-1166 711,-1160 717,-1154 723,-1154 723,-1154 812,-1154 812,-1154 818,-1154 824,-1160 824,-1166 824,-1166 824,-1178 824,-1178 824,-1184 818,-1190 812,-1190"/>
<text text-anchor="middle" x="767.5" y="-1169.2" font-family="DejaVu Sans" font-size="11.00">termin&#45;nodegraph</text>
</g>
<!-- termin&#45;gui&#45;&gt;termin&#45;nodegraph -->
<g id="edge55" class="edge">
<title>termin&#45;gui&#45;&gt;termin&#45;nodegraph</title>
<path fill="none" stroke="#666666" stroke-width="1.1" d="M595.86,-1185.29C625.38,-1182.99 668.44,-1179.63 703.92,-1176.87"/>
<polygon fill="#666666" stroke="#666666" stroke-width="1.1" points="704.11,-1179.31 710.9,-1176.33 703.73,-1174.43 704.11,-1179.31"/>
</g>
<!-- termin&#45;nodegraph&#45;&gt;termin&#45;app -->
<g id="edge65" class="edge">
<title>termin&#45;nodegraph&#45;&gt;termin&#45;app</title>
<path fill="none" stroke="#666666" stroke-width="1.1" d="M824.42,-1185.71C836.24,-1190.61 847.88,-1197.2 857,-1206 910.15,-1257.32 860.38,-1318.23 922,-1359 1080.67,-1463.99 1324.58,-1369.44 1421.84,-1324.09"/>
<polygon fill="#666666" stroke="#666666" stroke-width="1.1" points="1423.02,-1326.24 1428.31,-1321.04 1420.93,-1321.8 1423.02,-1326.24"/>
</g>
<!-- termin&#45;render&#45;passes&#45;&gt;termin&#45;app -->
<g id="edge72" class="edge">
<title>termin&#45;render&#45;passes&#45;&gt;termin&#45;app</title>
<path fill="none" stroke="#666666" stroke-width="1.1" d="M1268.03,-1056.08C1286.84,-1077.02 1318.06,-1112.9 1342,-1146 1370.19,-1184.98 1369.13,-1200.3 1399,-1238 1410.79,-1252.89 1425.67,-1267.98 1438.21,-1279.87"/>
<polygon fill="#666666" stroke="#666666" stroke-width="1.1" points="1436.65,-1281.76 1443.43,-1284.76 1440,-1278.18 1436.65,-1281.76"/>
</g>
<!-- termin&#45;render&#45;passes&#45;&gt;termin&#45;android -->
<g id="edge71" class="edge">
<title>termin&#45;render&#45;passes&#45;&gt;termin&#45;android</title>
<path fill="none" stroke="#666666" stroke-width="1.1" d="M1316.7,-1042.91C1346.51,-1045.15 1381.4,-1047.78 1409.75,-1049.92"/>
<polygon fill="#666666" stroke="#666666" stroke-width="1.1" points="1409.64,-1052.36 1416.81,-1050.45 1410.01,-1047.48 1409.64,-1052.36"/>
</g>
<!-- termin&#45;render&#45;passes&#45;&gt;termin&#45;default&#45;assets -->
<g id="edge73" class="edge">
<title>termin&#45;render&#45;passes&#45;&gt;termin&#45;default&#45;assets</title>
<path fill="none" stroke="#666666" stroke-width="1.1" d="M1316.63,-1029.64C1325.79,-1026.42 1334.59,-1022.01 1342,-1016 1416.83,-955.3 1448.64,-837.71 1459.4,-786.2"/>
<polygon fill="#666666" stroke="#666666" stroke-width="1.1" points="1461.85,-786.44 1460.84,-779.09 1457.05,-785.47 1461.85,-786.44"/>
</g>
<!-- termin&#45;render&#45;passes&#45;&gt;termin&#45;openxr -->
<g id="edge74" class="edge">
<title>termin&#45;render&#45;passes&#45;&gt;termin&#45;openxr</title>
<path fill="none" stroke="#666666" stroke-width="1.1" d="M1274.65,-1056.08C1313.69,-1086.58 1392.52,-1148.16 1435.12,-1181.44"/>
<polygon fill="#666666" stroke="#666666" stroke-width="1.1" points="1433.86,-1183.56 1440.88,-1185.94 1436.87,-1179.7 1433.86,-1183.56"/>
</g>
</g>
</svg>
