<?xml version="1.0" encoding="UTF-8" standalone="no"?>
<!DOCTYPE svg PUBLIC "-//W3C//DTD SVG 1.1//EN"
 "http://www.w3.org/Graphics/SVG/1.1/DTD/svg11.dtd">
<!-- Generated by graphviz version 2.43.0 (0)
 -->
<!-- Title: termin_dependencies Pages: 1 -->
<svg width="1609pt" height="826pt"
 viewBox="0.00 0.00 1608.80 825.85" xmlns="http://www.w3.org/2000/svg" xmlns:xlink="http://www.w3.org/1999/xlink">
<g id="graph0" class="graph" transform="scale(1 1) rotate(0) translate(14.4 811.45)">
<title>termin_dependencies</title>
<polygon fill="white" stroke="transparent" points="-14.4,14.4 -14.4,-811.45 1594.4,-811.45 1594.4,14.4 -14.4,14.4"/>
<g id="clust1" class="cluster">
<title>cluster_foundation</title>
<path fill="white" stroke="#d9d9d9" d="M20,-223.05C20,-223.05 800,-223.05 800,-223.05 806,-223.05 812,-229.05 812,-235.05 812,-235.05 812,-490.05 812,-490.05 812,-496.05 806,-502.05 800,-502.05 800,-502.05 20,-502.05 20,-502.05 14,-502.05 8,-496.05 8,-490.05 8,-490.05 8,-235.05 8,-235.05 8,-229.05 14,-223.05 20,-223.05"/>
<text text-anchor="middle" x="410" y="-486.85" font-family="Times,serif" font-size="14.00">Foundation</text>
</g>
<g id="clust2" class="cluster">
<title>cluster_render</title>
<path fill="white" stroke="#d9d9d9" d="M332,-140.05C332,-140.05 1071,-140.05 1071,-140.05 1077,-140.05 1083,-146.05 1083,-152.05 1083,-152.05 1083,-203.05 1083,-203.05 1083,-209.05 1077,-215.05 1071,-215.05 1071,-215.05 332,-215.05 332,-215.05 326,-215.05 320,-209.05 320,-203.05 320,-203.05 320,-152.05 320,-152.05 320,-146.05 326,-140.05 332,-140.05"/>
<text text-anchor="middle" x="701.5" y="-199.85" font-family="Times,serif" font-size="14.00">Render Stack</text>
</g>
<g id="clust3" class="cluster">
<title>cluster_components</title>
<path fill="white" stroke="#d9d9d9" d="M664,-510.05C664,-510.05 1080,-510.05 1080,-510.05 1086,-510.05 1092,-516.05 1092,-522.05 1092,-522.05 1092,-777.05 1092,-777.05 1092,-783.05 1086,-789.05 1080,-789.05 1080,-789.05 664,-789.05 664,-789.05 658,-789.05 652,-783.05 652,-777.05 652,-777.05 652,-522.05 652,-522.05 652,-516.05 658,-510.05 664,-510.05"/>
<text text-anchor="middle" x="872" y="-773.85" font-family="Times,serif" font-size="14.00">Other Components</text>
</g>
<g id="clust4" class="cluster">
<title>cluster_runtime</title>
<path fill="white" stroke="#d9d9d9" d="M1164,-284.05C1164,-284.05 1247,-284.05 1247,-284.05 1253,-284.05 1259,-290.05 1259,-296.05 1259,-296.05 1259,-347.05 1259,-347.05 1259,-353.05 1253,-359.05 1247,-359.05 1247,-359.05 1164,-359.05 1164,-359.05 1158,-359.05 1152,-353.05 1152,-347.05 1152,-347.05 1152,-296.05 1152,-296.05 1152,-290.05 1158,-284.05 1164,-284.05"/>
<text text-anchor="middle" x="1205.5" y="-343.85" font-family="Times,serif" font-size="14.00">Runtime</text>
</g>
<g id="clust5" class="cluster">
<title>cluster_ui</title>
<path fill="white" stroke="#d9d9d9" d="M962.5,-57.05C962.5,-57.05 1258,-57.05 1258,-57.05 1264,-57.05 1270,-63.05 1270,-69.05 1270,-69.05 1270,-120.05 1270,-120.05 1270,-126.05 1264,-132.05 1258,-132.05 1258,-132.05 962.5,-132.05 962.5,-132.05 956.5,-132.05 950.5,-126.05 950.5,-120.05 950.5,-120.05 950.5,-69.05 950.5,-69.05 950.5,-63.05 956.5,-57.05 962.5,-57.05"/>
<text text-anchor="middle" x="1110.25" y="-116.85" font-family="Times,serif" font-size="14.00">UI</text>
</g>
<g id="clust6" class="cluster">
<title>cluster_application</title>
<path fill="white" stroke="#d9d9d9" d="M1331,-290.05C1331,-290.05 1420,-290.05 1420,-290.05 1426,-290.05 1432,-296.05 1432,-302.05 1432,-302.05 1432,-421.05 1432,-421.05 1432,-427.05 1426,-433.05 1420,-433.05 1420,-433.05 1331,-433.05 1331,-433.05 1325,-433.05 1319,-427.05 1319,-421.05 1319,-421.05 1319,-302.05 1319,-302.05 1319,-296.05 1325,-290.05 1331,-290.05"/>
<text text-anchor="middle" x="1375.5" y="-417.85" font-family="Times,serif" font-size="14.00">Application</text>
</g>
<!-- termin&#45;base -->
<g id="node1" class="node">
<title>termin&#45;base</title>
<path fill="#f7f7f7" stroke="#444444" d="M85,-360.05C85,-360.05 28,-360.05 28,-360.05 22,-360.05 16,-354.05 16,-348.05 16,-348.05 16,-336.05 16,-336.05 16,-330.05 22,-324.05 28,-324.05 28,-324.05 85,-324.05 85,-324.05 91,-324.05 97,-330.05 97,-336.05 97,-336.05 97,-348.05 97,-348.05 97,-354.05 91,-360.05 85,-360.05"/>
<text text-anchor="middle" x="56.5" y="-339.25" font-family="DejaVu Sans" font-size="11.00">termin&#45;base</text>
</g>
<!-- termin&#45;mesh -->
<g id="node2" class="node">
<title>termin&#45;mesh</title>
<path fill="#f7f7f7" stroke="#444444" d="M242.5,-471.05C242.5,-471.05 182.5,-471.05 182.5,-471.05 176.5,-471.05 170.5,-465.05 170.5,-459.05 170.5,-459.05 170.5,-447.05 170.5,-447.05 170.5,-441.05 176.5,-435.05 182.5,-435.05 182.5,-435.05 242.5,-435.05 242.5,-435.05 248.5,-435.05 254.5,-441.05 254.5,-447.05 254.5,-447.05 254.5,-459.05 254.5,-459.05 254.5,-465.05 248.5,-471.05 242.5,-471.05"/>
<text text-anchor="middle" x="212.5" y="-450.25" font-family="DejaVu Sans" font-size="11.00">termin&#45;mesh</text>
</g>
<!-- termin&#45;base&#45;&gt;termin&#45;mesh -->
<g id="edge1" class="edge">
<title>termin&#45;base&#45;&gt;termin&#45;mesh</title>
<path fill="none" stroke="#666666" stroke-width="1.1" d="M81.83,-360.33C102.9,-376.08 134.27,-399.32 162,-419.05 167.43,-422.91 173.23,-426.96 178.88,-430.87"/>
<polygon fill="#666666" stroke="#666666" stroke-width="1.1" points="177.77,-433.08 184.93,-435.04 180.55,-429.05 177.77,-433.08"/>
</g>
<!-- termin&#45;inspect -->
<g id="node3" class="node">
<title>termin&#45;inspect</title>
<path fill="#f7f7f7" stroke="#444444" d="M247.5,-403.05C247.5,-403.05 177.5,-403.05 177.5,-403.05 171.5,-403.05 165.5,-397.05 165.5,-391.05 165.5,-391.05 165.5,-379.05 165.5,-379.05 165.5,-373.05 171.5,-367.05 177.5,-367.05 177.5,-367.05 247.5,-367.05 247.5,-367.05 253.5,-367.05 259.5,-373.05 259.5,-379.05 259.5,-379.05 259.5,-391.05 259.5,-391.05 259.5,-397.05 253.5,-403.05 247.5,-403.05"/>
<text text-anchor="middle" x="212.5" y="-382.25" font-family="DejaVu Sans" font-size="11.00">termin&#45;inspect</text>
</g>
<!-- termin&#45;base&#45;&gt;termin&#45;inspect -->
<g id="edge2" class="edge">
<title>termin&#45;base&#45;&gt;termin&#45;inspect</title>
<path fill="none" stroke="#666666" stroke-width="1.1" d="M97.16,-353.12C115.81,-358.33 138.33,-364.62 158.42,-370.23"/>
<polygon fill="#666666" stroke="#666666" stroke-width="1.1" points="158.02,-372.66 165.42,-372.18 159.34,-367.94 158.02,-372.66"/>
</g>
<!-- termin&#45;modules -->
<g id="node6" class="node">
<title>termin&#45;modules</title>
<path fill="#f7f7f7" stroke="#444444" d="M251,-267.05C251,-267.05 174,-267.05 174,-267.05 168,-267.05 162,-261.05 162,-255.05 162,-255.05 162,-243.05 162,-243.05 162,-237.05 168,-231.05 174,-231.05 174,-231.05 251,-231.05 251,-231.05 257,-231.05 263,-237.05 263,-243.05 263,-243.05 263,-255.05 263,-255.05 263,-261.05 257,-267.05 251,-267.05"/>
<text text-anchor="middle" x="212.5" y="-246.25" font-family="DejaVu Sans" font-size="11.00">termin&#45;modules</text>
</g>
<!-- termin&#45;base&#45;&gt;termin&#45;modules -->
<g id="edge3" class="edge">
<title>termin&#45;base&#45;&gt;termin&#45;modules</title>
<path fill="none" stroke="#666666" stroke-width="1.1" d="M87.56,-323.9C112.68,-308.73 148.58,-287.05 175.28,-270.92"/>
<polygon fill="#666666" stroke="#666666" stroke-width="1.1" points="176.79,-272.87 181.52,-267.16 174.26,-268.68 176.79,-272.87"/>
</g>
<!-- termin&#45;physics -->
<g id="node8" class="node">
<title>termin&#45;physics</title>
<path fill="#f7f7f7" stroke="#444444" d="M785.5,-400.05C785.5,-400.05 713.5,-400.05 713.5,-400.05 707.5,-400.05 701.5,-394.05 701.5,-388.05 701.5,-388.05 701.5,-376.05 701.5,-376.05 701.5,-370.05 707.5,-364.05 713.5,-364.05 713.5,-364.05 785.5,-364.05 785.5,-364.05 791.5,-364.05 797.5,-370.05 797.5,-376.05 797.5,-376.05 797.5,-388.05 797.5,-388.05 797.5,-394.05 791.5,-400.05 785.5,-400.05"/>
<text text-anchor="middle" x="749.5" y="-379.25" font-family="DejaVu Sans" font-size="11.00">termin&#45;physics</text>
</g>
<!-- termin&#45;base&#45;&gt;termin&#45;physics -->
<g id="edge4" class="edge">
<title>termin&#45;base&#45;&gt;termin&#45;physics</title>
<path fill="none" stroke="#666666" stroke-width="1.1" d="M97.12,-333.65C186.83,-316.05 411.9,-279.88 595,-317.05 636.17,-325.41 680.01,-345.19 710.25,-360.75"/>
<polygon fill="#666666" stroke="#666666" stroke-width="1.1" points="709.15,-362.94 716.49,-364 711.42,-358.59 709.15,-362.94"/>
</g>
<!-- termin&#45;graphics -->
<g id="node11" class="node">
<title>termin&#45;graphics</title>
<path fill="#f7f7f7" stroke="#444444" d="M417,-184.05C417,-184.05 340,-184.05 340,-184.05 334,-184.05 328,-178.05 328,-172.05 328,-172.05 328,-160.05 328,-160.05 328,-154.05 334,-148.05 340,-148.05 340,-148.05 417,-148.05 417,-148.05 423,-148.05 429,-154.05 429,-160.05 429,-160.05 429,-172.05 429,-172.05 429,-178.05 423,-184.05 417,-184.05"/>
<text text-anchor="middle" x="378.5" y="-163.25" font-family="DejaVu Sans" font-size="11.00">termin&#45;graphics</text>
</g>
<!-- termin&#45;mesh&#45;&gt;termin&#45;graphics -->
<g id="edge5" class="edge">
<title>termin&#45;mesh&#45;&gt;termin&#45;graphics</title>
<path fill="none" stroke="#666666" stroke-width="1.1" d="M246.94,-434.88C252.97,-430.37 258.69,-425.07 263,-419.05 317.75,-342.47 269.3,-294.37 320,-215.05 326.32,-205.17 335.24,-196.21 344.17,-188.73"/>
<polygon fill="#666666" stroke="#666666" stroke-width="1.1" points="345.8,-190.57 349.72,-184.28 342.73,-186.76 345.8,-190.57"/>
</g>
<!-- termin&#45;components&#45;collision -->
<g id="node15" class="node">
<title>termin&#45;components&#45;collision</title>
<path fill="#f7f7f7" stroke="#444444" d="M822.5,-554.05C822.5,-554.05 676.5,-554.05 676.5,-554.05 670.5,-554.05 664.5,-548.05 664.5,-542.05 664.5,-542.05 664.5,-530.05 664.5,-530.05 664.5,-524.05 670.5,-518.05 676.5,-518.05 676.5,-518.05 822.5,-518.05 822.5,-518.05 828.5,-518.05 834.5,-524.05 834.5,-530.05 834.5,-530.05 834.5,-542.05 834.5,-542.05 834.5,-548.05 828.5,-554.05 822.5,-554.05"/>
<text text-anchor="middle" x="749.5" y="-533.25" font-family="DejaVu Sans" font-size="11.00">termin&#45;components&#45;collision</text>
</g>
<!-- termin&#45;mesh&#45;&gt;termin&#45;components&#45;collision -->
<g id="edge6" class="edge">
<title>termin&#45;mesh&#45;&gt;termin&#45;components&#45;collision</title>
<path fill="none" stroke="#666666" stroke-width="1.1" d="M254.72,-468.28C274.26,-474.96 298.08,-482.35 320,-487.05 434.94,-511.72 570.06,-524.56 657.38,-530.8"/>
<polygon fill="#666666" stroke="#666666" stroke-width="1.1" points="657.21,-533.25 664.37,-531.29 657.56,-528.36 657.21,-533.25"/>
</g>
<!-- termin&#45;components&#45;mesh -->
<g id="node19" class="node">
<title>termin&#45;components&#45;mesh</title>
<path fill="#f7f7f7" stroke="#444444" d="M815.5,-758.05C815.5,-758.05 683.5,-758.05 683.5,-758.05 677.5,-758.05 671.5,-752.05 671.5,-746.05 671.5,-746.05 671.5,-734.05 671.5,-734.05 671.5,-728.05 677.5,-722.05 683.5,-722.05 683.5,-722.05 815.5,-722.05 815.5,-722.05 821.5,-722.05 827.5,-728.05 827.5,-734.05 827.5,-734.05 827.5,-746.05 827.5,-746.05 827.5,-752.05 821.5,-758.05 815.5,-758.05"/>
<text text-anchor="middle" x="749.5" y="-737.25" font-family="DejaVu Sans" font-size="11.00">termin&#45;components&#45;mesh</text>
</g>
<!-- termin&#45;mesh&#45;&gt;termin&#45;components&#45;mesh -->
<g id="edge7" class="edge">
<title>termin&#45;mesh&#45;&gt;termin&#45;components&#45;mesh</title>
<path fill="none" stroke="#666666" stroke-width="1.1" d="M233.02,-471.27C276.59,-511.05 386.41,-606.46 494,-661.05 547.98,-688.44 613.27,-708.47 664.2,-721.51"/>
<polygon fill="#666666" stroke="#666666" stroke-width="1.1" points="663.9,-723.96 671.29,-723.3 665.1,-719.21 663.9,-723.96"/>
</g>
<!-- termin&#45;scene -->
<g id="node4" class="node">
<title>termin&#45;scene</title>
<path fill="#f7f7f7" stroke="#444444" d="M410,-471.05C410,-471.05 347,-471.05 347,-471.05 341,-471.05 335,-465.05 335,-459.05 335,-459.05 335,-447.05 335,-447.05 335,-441.05 341,-435.05 347,-435.05 347,-435.05 410,-435.05 410,-435.05 416,-435.05 422,-441.05 422,-447.05 422,-447.05 422,-459.05 422,-459.05 422,-465.05 416,-471.05 410,-471.05"/>
<text text-anchor="middle" x="378.5" y="-450.25" font-family="DejaVu Sans" font-size="11.00">termin&#45;scene</text>
</g>
<!-- termin&#45;inspect&#45;&gt;termin&#45;scene -->
<g id="edge8" class="edge">
<title>termin&#45;inspect&#45;&gt;termin&#45;scene</title>
<path fill="none" stroke="#666666" stroke-width="1.1" d="M257.02,-403.09C278.96,-412.19 305.65,-423.26 328.32,-432.66"/>
<polygon fill="#666666" stroke="#666666" stroke-width="1.1" points="327.51,-434.97 334.91,-435.39 329.39,-430.45 327.51,-434.97"/>
</g>
<!-- termin&#45;animation -->
<g id="node10" class="node">
<title>termin&#45;animation</title>
<path fill="#f7f7f7" stroke="#444444" d="M792,-471.05C792,-471.05 707,-471.05 707,-471.05 701,-471.05 695,-465.05 695,-459.05 695,-459.05 695,-447.05 695,-447.05 695,-441.05 701,-435.05 707,-435.05 707,-435.05 792,-435.05 792,-435.05 798,-435.05 804,-441.05 804,-447.05 804,-447.05 804,-459.05 804,-459.05 804,-465.05 798,-471.05 792,-471.05"/>
<text text-anchor="middle" x="749.5" y="-450.25" font-family="DejaVu Sans" font-size="11.00">termin&#45;animation</text>
</g>
<!-- termin&#45;inspect&#45;&gt;termin&#45;animation -->
<g id="edge19" class="edge">
<title>termin&#45;inspect&#45;&gt;termin&#45;animation</title>
<path fill="none" stroke="#666666" stroke-width="1.1" d="M259.54,-387.23C331.47,-391.07 474.74,-400.45 595,-419.05 625.84,-423.82 659.74,-431.11 687.82,-437.72"/>
<polygon fill="#666666" stroke="#666666" stroke-width="1.1" points="687.46,-440.15 694.83,-439.38 688.59,-435.38 687.46,-440.15"/>
</g>
<!-- termin&#45;input -->
<g id="node5" class="node">
<title>termin&#45;input</title>
<path fill="#f7f7f7" stroke="#444444" d="M573.5,-267.05C573.5,-267.05 515.5,-267.05 515.5,-267.05 509.5,-267.05 503.5,-261.05 503.5,-255.05 503.5,-255.05 503.5,-243.05 503.5,-243.05 503.5,-237.05 509.5,-231.05 515.5,-231.05 515.5,-231.05 573.5,-231.05 573.5,-231.05 579.5,-231.05 585.5,-237.05 585.5,-243.05 585.5,-243.05 585.5,-255.05 585.5,-255.05 585.5,-261.05 579.5,-267.05 573.5,-267.05"/>
<text text-anchor="middle" x="544.5" y="-246.25" font-family="DejaVu Sans" font-size="11.00">termin&#45;input</text>
</g>
<!-- termin&#45;scene&#45;&gt;termin&#45;input -->
<g id="edge9" class="edge">
<title>termin&#45;scene&#45;&gt;termin&#45;input</title>
<path fill="none" stroke="#666666" stroke-width="1.1" d="M394.05,-434.95C423.78,-397.97 491.44,-313.81 524.54,-272.63"/>
<polygon fill="#666666" stroke="#666666" stroke-width="1.1" points="526.5,-274.1 528.98,-267.11 522.68,-271.03 526.5,-274.1"/>
</g>
<!-- termin&#45;collision -->
<g id="node7" class="node">
<title>termin&#45;collision</title>
<path fill="#f7f7f7" stroke="#444444" d="M582,-369.05C582,-369.05 507,-369.05 507,-369.05 501,-369.05 495,-363.05 495,-357.05 495,-357.05 495,-345.05 495,-345.05 495,-339.05 501,-333.05 507,-333.05 507,-333.05 582,-333.05 582,-333.05 588,-333.05 594,-339.05 594,-345.05 594,-345.05 594,-357.05 594,-357.05 594,-363.05 588,-369.05 582,-369.05"/>
<text text-anchor="middle" x="544.5" y="-348.25" font-family="DejaVu Sans" font-size="11.00">termin&#45;collision</text>
</g>
<!-- termin&#45;scene&#45;&gt;termin&#45;collision -->
<g id="edge10" class="edge">
<title>termin&#45;scene&#45;&gt;termin&#45;collision</title>
<path fill="none" stroke="#666666" stroke-width="1.1" d="M408.44,-435.05C436.26,-417.75 478.35,-391.57 508.13,-373.05"/>
<polygon fill="#666666" stroke="#666666" stroke-width="1.1" points="509.65,-374.99 514.3,-369.21 507.06,-370.83 509.65,-374.99"/>
</g>
<!-- termin&#45;skeleton -->
<g id="node9" class="node">
<title>termin&#45;skeleton</title>
<path fill="#f7f7f7" stroke="#444444" d="M583,-471.05C583,-471.05 506,-471.05 506,-471.05 500,-471.05 494,-465.05 494,-459.05 494,-459.05 494,-447.05 494,-447.05 494,-441.05 500,-435.05 506,-435.05 506,-435.05 583,-435.05 583,-435.05 589,-435.05 595,-441.05 595,-447.05 595,-447.05 595,-459.05 595,-459.05 595,-465.05 589,-471.05 583,-471.05"/>
<text text-anchor="middle" x="544.5" y="-450.25" font-family="DejaVu Sans" font-size="11.00">termin&#45;skeleton</text>
</g>
<!-- termin&#45;scene&#45;&gt;termin&#45;skeleton -->
<g id="edge18" class="edge">
<title>termin&#45;scene&#45;&gt;termin&#45;skeleton</title>
<path fill="none" stroke="#666666" stroke-width="1.1" d="M422.16,-453.05C441.86,-453.05 465.52,-453.05 486.7,-453.05"/>
<polygon fill="#666666" stroke="#666666" stroke-width="1.1" points="486.78,-455.5 493.78,-453.05 486.78,-450.6 486.78,-455.5"/>
</g>
<!-- termin&#45;render -->
<g id="node12" class="node">
<title>termin&#45;render</title>
<path fill="#f7f7f7" stroke="#444444" d="M577.5,-184.05C577.5,-184.05 511.5,-184.05 511.5,-184.05 505.5,-184.05 499.5,-178.05 499.5,-172.05 499.5,-172.05 499.5,-160.05 499.5,-160.05 499.5,-154.05 505.5,-148.05 511.5,-148.05 511.5,-148.05 577.5,-148.05 577.5,-148.05 583.5,-148.05 589.5,-154.05 589.5,-160.05 589.5,-160.05 589.5,-172.05 589.5,-172.05 589.5,-178.05 583.5,-184.05 577.5,-184.05"/>
<text text-anchor="middle" x="544.5" y="-163.25" font-family="DejaVu Sans" font-size="11.00">termin&#45;render</text>
</g>
<!-- termin&#45;scene&#45;&gt;termin&#45;render -->
<g id="edge11" class="edge">
<title>termin&#45;scene&#45;&gt;termin&#45;render</title>
<path fill="none" stroke="#666666" stroke-width="1.1" d="M385.79,-434.9C400.62,-393.5 440.62,-289.9 494,-215.05 500.5,-205.93 508.78,-197 516.7,-189.31"/>
<polygon fill="#666666" stroke="#666666" stroke-width="1.1" points="518.7,-190.79 522.09,-184.19 515.33,-187.23 518.7,-190.79"/>
</g>
<!-- termin&#45;scene&#45;&gt;termin&#45;components&#45;mesh -->
<g id="edge12" class="edge">
<title>termin&#45;scene&#45;&gt;termin&#45;components&#45;mesh</title>
<path fill="none" stroke="#666666" stroke-width="1.1" d="M391.34,-471.45C410.58,-500.49 450.86,-557.78 494,-598.05 556.18,-656.09 576.13,-667.59 652,-706.05 661.68,-710.96 672.24,-715.46 682.71,-719.47"/>
<polygon fill="#666666" stroke="#666666" stroke-width="1.1" points="682.15,-721.88 689.56,-722.04 683.86,-717.29 682.15,-721.88"/>
</g>
<!-- termin&#45;components&#45;kinematic -->
<g id="node20" class="node">
<title>termin&#45;components&#45;kinematic</title>
<path fill="#f7f7f7" stroke="#444444" d="M827,-690.05C827,-690.05 672,-690.05 672,-690.05 666,-690.05 660,-684.05 660,-678.05 660,-678.05 660,-666.05 660,-666.05 660,-660.05 666,-654.05 672,-654.05 672,-654.05 827,-654.05 827,-654.05 833,-654.05 839,-660.05 839,-666.05 839,-666.05 839,-678.05 839,-678.05 839,-684.05 833,-690.05 827,-690.05"/>
<text text-anchor="middle" x="749.5" y="-669.25" font-family="DejaVu Sans" font-size="11.00">termin&#45;components&#45;kinematic</text>
</g>
<!-- termin&#45;scene&#45;&gt;termin&#45;components&#45;kinematic -->
<g id="edge13" class="edge">
<title>termin&#45;scene&#45;&gt;termin&#45;components&#45;kinematic</title>
<path fill="none" stroke="#666666" stroke-width="1.1" d="M401.93,-471.27C447,-507.17 552.72,-587.92 652,-638.05 661.69,-642.94 672.25,-647.44 682.72,-651.44"/>
<polygon fill="#666666" stroke="#666666" stroke-width="1.1" points="682.16,-653.85 689.57,-654.01 683.88,-649.26 682.16,-653.85"/>
</g>
<!-- termin&#45;display -->
<g id="node13" class="node">
<title>termin&#45;display</title>
<path fill="#f7f7f7" stroke="#444444" d="M784,-184.05C784,-184.05 715,-184.05 715,-184.05 709,-184.05 703,-178.05 703,-172.05 703,-172.05 703,-160.05 703,-160.05 703,-154.05 709,-148.05 715,-148.05 715,-148.05 784,-148.05 784,-148.05 790,-148.05 796,-154.05 796,-160.05 796,-160.05 796,-172.05 796,-172.05 796,-178.05 790,-184.05 784,-184.05"/>
<text text-anchor="middle" x="749.5" y="-163.25" font-family="DejaVu Sans" font-size="11.00">termin&#45;display</text>
</g>
<!-- termin&#45;input&#45;&gt;termin&#45;display -->
<g id="edge14" class="edge">
<title>termin&#45;input&#45;&gt;termin&#45;display</title>
<path fill="none" stroke="#666666" stroke-width="1.1" d="M585.61,-232.65C617.67,-219.54 662.83,-201.08 697.47,-186.92"/>
<polygon fill="#666666" stroke="#666666" stroke-width="1.1" points="698.7,-189.06 704.25,-184.14 696.84,-184.52 698.7,-189.06"/>
</g>
<!-- termin -->
<g id="node24" class="node">
<title>termin</title>
<path fill="#f7f7f7" stroke="#444444" d="M1390.5,-402.05C1390.5,-402.05 1360.5,-402.05 1360.5,-402.05 1354.5,-402.05 1348.5,-396.05 1348.5,-390.05 1348.5,-390.05 1348.5,-378.05 1348.5,-378.05 1348.5,-372.05 1354.5,-366.05 1360.5,-366.05 1360.5,-366.05 1390.5,-366.05 1390.5,-366.05 1396.5,-366.05 1402.5,-372.05 1402.5,-378.05 1402.5,-378.05 1402.5,-390.05 1402.5,-390.05 1402.5,-396.05 1396.5,-402.05 1390.5,-402.05"/>
<text text-anchor="middle" x="1375.5" y="-381.25" font-family="DejaVu Sans" font-size="11.00">termin</text>
</g>
<!-- termin&#45;modules&#45;&gt;termin -->
<g id="edge37" class="edge">
<title>termin&#45;modules&#45;&gt;termin</title>
<path fill="none" stroke="#666666" stroke-width="1.1" d="M226.22,-230.77C266.08,-175.84 394.82,-16.05 543.5,-16.05 543.5,-16.05 543.5,-16.05 995,-16.05 1118.1,-16.05 1181.15,36.15 1270,-49.05 1367.83,-142.86 1243.45,-237.52 1319,-350.05 1324.68,-358.5 1333.23,-365.22 1341.94,-370.37"/>
<polygon fill="#666666" stroke="#666666" stroke-width="1.1" points="1340.96,-372.63 1348.27,-373.85 1343.32,-368.33 1340.96,-372.63"/>
</g>
<!-- termin&#45;collision&#45;&gt;termin&#45;physics -->
<g id="edge17" class="edge">
<title>termin&#45;collision&#45;&gt;termin&#45;physics</title>
<path fill="none" stroke="#666666" stroke-width="1.1" d="M594.12,-358.48C624.33,-363.09 663.21,-369.02 694.39,-373.79"/>
<polygon fill="#666666" stroke="#666666" stroke-width="1.1" points="694.03,-376.21 701.32,-374.85 694.77,-371.37 694.03,-376.21"/>
</g>
<!-- termin&#45;collision&#45;&gt;termin&#45;components&#45;collision -->
<g id="edge16" class="edge">
<title>termin&#45;collision&#45;&gt;termin&#45;components&#45;collision</title>
<path fill="none" stroke="#666666" stroke-width="1.1" d="M559.3,-369.27C569.43,-382.83 583.39,-401.87 595,-419.05 621.73,-458.59 613.64,-481.66 652,-510.05 654.15,-511.64 656.39,-513.13 658.7,-514.54"/>
<polygon fill="#666666" stroke="#666666" stroke-width="1.1" points="657.67,-516.76 664.97,-518.04 660.06,-512.49 657.67,-516.76"/>
</g>
<!-- termin&#45;engine -->
<g id="node21" class="node">
<title>termin&#45;engine</title>
<path fill="#f7f7f7" stroke="#444444" d="M1239,-328.05C1239,-328.05 1172,-328.05 1172,-328.05 1166,-328.05 1160,-322.05 1160,-316.05 1160,-316.05 1160,-304.05 1160,-304.05 1160,-298.05 1166,-292.05 1172,-292.05 1172,-292.05 1239,-292.05 1239,-292.05 1245,-292.05 1251,-298.05 1251,-304.05 1251,-304.05 1251,-316.05 1251,-316.05 1251,-322.05 1245,-328.05 1239,-328.05"/>
<text text-anchor="middle" x="1205.5" y="-307.25" font-family="DejaVu Sans" font-size="11.00">termin&#45;engine</text>
</g>
<!-- termin&#45;collision&#45;&gt;termin&#45;engine -->
<g id="edge15" class="edge">
<title>termin&#45;collision&#45;&gt;termin&#45;engine</title>
<path fill="none" stroke="#666666" stroke-width="1.1" d="M594.23,-348.02C715.24,-340.49 1028.65,-320.99 1152.77,-313.27"/>
<polygon fill="#666666" stroke="#666666" stroke-width="1.1" points="1153.13,-315.7 1159.96,-312.82 1152.83,-310.81 1153.13,-315.7"/>
</g>
<!-- termin&#45;components&#45;physics -->
<g id="node18" class="node">
<title>termin&#45;components&#45;physics</title>
<path fill="#f7f7f7" stroke="#444444" d="M1065.5,-554.05C1065.5,-554.05 922.5,-554.05 922.5,-554.05 916.5,-554.05 910.5,-548.05 910.5,-542.05 910.5,-542.05 910.5,-530.05 910.5,-530.05 910.5,-524.05 916.5,-518.05 922.5,-518.05 922.5,-518.05 1065.5,-518.05 1065.5,-518.05 1071.5,-518.05 1077.5,-524.05 1077.5,-530.05 1077.5,-530.05 1077.5,-542.05 1077.5,-542.05 1077.5,-548.05 1071.5,-554.05 1065.5,-554.05"/>
<text text-anchor="middle" x="994" y="-533.25" font-family="DejaVu Sans" font-size="11.00">termin&#45;components&#45;physics</text>
</g>
<!-- termin&#45;physics&#45;&gt;termin&#45;components&#45;physics -->
<g id="edge25" class="edge">
<title>termin&#45;physics&#45;&gt;termin&#45;components&#45;physics</title>
<path fill="none" stroke="#666666" stroke-width="1.1" d="M797.95,-399.29C811.55,-404.92 826.16,-411.65 839,-419.05 887.27,-446.87 937.67,-487.78 967.15,-513.13"/>
<polygon fill="#666666" stroke="#666666" stroke-width="1.1" points="965.87,-515.25 972.77,-517.98 969.07,-511.55 965.87,-515.25"/>
</g>
<!-- termin&#45;physics&#45;&gt;termin -->
<g id="edge36" class="edge">
<title>termin&#45;physics&#45;&gt;termin</title>
<path fill="none" stroke="#666666" stroke-width="1.1" d="M797.66,-382.2C918.55,-382.59 1237.3,-383.61 1341.22,-383.94"/>
<polygon fill="#666666" stroke="#666666" stroke-width="1.1" points="1341.32,-386.39 1348.33,-383.97 1341.33,-381.49 1341.32,-386.39"/>
</g>
<!-- termin&#45;skeleton&#45;&gt;termin&#45;animation -->
<g id="edge20" class="edge">
<title>termin&#45;skeleton&#45;&gt;termin&#45;animation</title>
<path fill="none" stroke="#666666" stroke-width="1.1" d="M595.16,-453.05C622.97,-453.05 657.88,-453.05 687.36,-453.05"/>
<polygon fill="#666666" stroke="#666666" stroke-width="1.1" points="687.73,-455.5 694.73,-453.05 687.73,-450.6 687.73,-455.5"/>
</g>
<!-- termin&#45;components&#45;skeleton -->
<g id="node16" class="node">
<title>termin&#45;components&#45;skeleton</title>
<path fill="#f7f7f7" stroke="#444444" d="M823.5,-622.05C823.5,-622.05 675.5,-622.05 675.5,-622.05 669.5,-622.05 663.5,-616.05 663.5,-610.05 663.5,-610.05 663.5,-598.05 663.5,-598.05 663.5,-592.05 669.5,-586.05 675.5,-586.05 675.5,-586.05 823.5,-586.05 823.5,-586.05 829.5,-586.05 835.5,-592.05 835.5,-598.05 835.5,-598.05 835.5,-610.05 835.5,-610.05 835.5,-616.05 829.5,-622.05 823.5,-622.05"/>
<text text-anchor="middle" x="749.5" y="-601.25" font-family="DejaVu Sans" font-size="11.00">termin&#45;components&#45;skeleton</text>
</g>
<!-- termin&#45;skeleton&#45;&gt;termin&#45;components&#45;skeleton -->
<g id="edge27" class="edge">
<title>termin&#45;skeleton&#45;&gt;termin&#45;components&#45;skeleton</title>
<path fill="none" stroke="#666666" stroke-width="1.1" d="M557.49,-471.06C575.28,-496.5 611.02,-542.88 652,-570.05 659.55,-575.06 667.92,-579.42 676.49,-583.19"/>
<polygon fill="#666666" stroke="#666666" stroke-width="1.1" points="675.66,-585.5 683.07,-585.96 677.57,-580.99 675.66,-585.5"/>
</g>
<!-- termin&#45;components&#45;animation -->
<g id="node17" class="node">
<title>termin&#45;components&#45;animation</title>
<path fill="#f7f7f7" stroke="#444444" d="M1072,-622.05C1072,-622.05 916,-622.05 916,-622.05 910,-622.05 904,-616.05 904,-610.05 904,-610.05 904,-598.05 904,-598.05 904,-592.05 910,-586.05 916,-586.05 916,-586.05 1072,-586.05 1072,-586.05 1078,-586.05 1084,-592.05 1084,-598.05 1084,-598.05 1084,-610.05 1084,-610.05 1084,-616.05 1078,-622.05 1072,-622.05"/>
<text text-anchor="middle" x="994" y="-601.25" font-family="DejaVu Sans" font-size="11.00">termin&#45;components&#45;animation</text>
</g>
<!-- termin&#45;animation&#45;&gt;termin&#45;components&#45;animation -->
<g id="edge28" class="edge">
<title>termin&#45;animation&#45;&gt;termin&#45;components&#45;animation</title>
<path fill="none" stroke="#666666" stroke-width="1.1" d="M789.09,-471.17C805.21,-479.55 823.7,-490.25 839,-502.05 872.11,-527.58 869.18,-546.91 904,-570.05 911.47,-575.01 919.76,-579.39 928.19,-583.22"/>
<polygon fill="#666666" stroke="#666666" stroke-width="1.1" points="927.26,-585.49 934.66,-586.04 929.22,-581 927.26,-585.49"/>
</g>
<!-- termin&#45;graphics&#45;&gt;termin&#45;render -->
<g id="edge21" class="edge">
<title>termin&#45;graphics&#45;&gt;termin&#45;render</title>
<path fill="none" stroke="#666666" stroke-width="1.1" d="M429.15,-166.05C449.05,-166.05 471.98,-166.05 492.05,-166.05"/>
<polygon fill="#666666" stroke="#666666" stroke-width="1.1" points="492.31,-168.5 499.31,-166.05 492.31,-163.6 492.31,-168.5"/>
</g>
<!-- termin&#45;gui -->
<g id="node22" class="node">
<title>termin&#45;gui</title>
<path fill="#f7f7f7" stroke="#444444" d="M1017.5,-101.05C1017.5,-101.05 970.5,-101.05 970.5,-101.05 964.5,-101.05 958.5,-95.05 958.5,-89.05 958.5,-89.05 958.5,-77.05 958.5,-77.05 958.5,-71.05 964.5,-65.05 970.5,-65.05 970.5,-65.05 1017.5,-65.05 1017.5,-65.05 1023.5,-65.05 1029.5,-71.05 1029.5,-77.05 1029.5,-77.05 1029.5,-89.05 1029.5,-89.05 1029.5,-95.05 1023.5,-101.05 1017.5,-101.05"/>
<text text-anchor="middle" x="994" y="-80.25" font-family="DejaVu Sans" font-size="11.00">termin&#45;gui</text>
</g>
<!-- termin&#45;graphics&#45;&gt;termin&#45;gui -->
<g id="edge22" class="edge">
<title>termin&#45;graphics&#45;&gt;termin&#45;gui</title>
<path fill="none" stroke="#666666" stroke-width="1.1" d="M429.15,-149.06C449.09,-142.83 472.43,-136.27 494,-132.05 661.47,-99.27 865.07,-87.96 951.26,-84.46"/>
<polygon fill="#666666" stroke="#666666" stroke-width="1.1" points="951.59,-86.9 958.49,-84.17 951.4,-82 951.59,-86.9"/>
</g>
<!-- termin&#45;render&#45;&gt;termin&#45;display -->
<g id="edge23" class="edge">
<title>termin&#45;render&#45;&gt;termin&#45;display</title>
<path fill="none" stroke="#666666" stroke-width="1.1" d="M589.55,-166.05C620.66,-166.05 662.51,-166.05 695.46,-166.05"/>
<polygon fill="#666666" stroke="#666666" stroke-width="1.1" points="695.78,-168.5 702.78,-166.05 695.78,-163.6 695.78,-168.5"/>
</g>
<!-- termin&#45;components&#45;render -->
<g id="node14" class="node">
<title>termin&#45;components&#45;render</title>
<path fill="#f7f7f7" stroke="#444444" d="M1063,-184.05C1063,-184.05 925,-184.05 925,-184.05 919,-184.05 913,-178.05 913,-172.05 913,-172.05 913,-160.05 913,-160.05 913,-154.05 919,-148.05 925,-148.05 925,-148.05 1063,-148.05 1063,-148.05 1069,-148.05 1075,-154.05 1075,-160.05 1075,-160.05 1075,-172.05 1075,-172.05 1075,-178.05 1069,-184.05 1063,-184.05"/>
<text text-anchor="middle" x="994" y="-163.25" font-family="DejaVu Sans" font-size="11.00">termin&#45;components&#45;render</text>
</g>
<!-- termin&#45;display&#45;&gt;termin&#45;components&#45;render -->
<g id="edge24" class="edge">
<title>termin&#45;display&#45;&gt;termin&#45;components&#45;render</title>
<path fill="none" stroke="#666666" stroke-width="1.1" d="M796.11,-166.05C826.85,-166.05 868.4,-166.05 905.4,-166.05"/>
<polygon fill="#666666" stroke="#666666" stroke-width="1.1" points="905.73,-168.5 912.73,-166.05 905.73,-163.6 905.73,-168.5"/>
</g>
<!-- termin&#45;components&#45;render&#45;&gt;termin&#45;engine -->
<g id="edge30" class="edge">
<title>termin&#45;components&#45;render&#45;&gt;termin&#45;engine</title>
<path fill="none" stroke="#666666" stroke-width="1.1" d="M1021.53,-184.29C1059.94,-210.69 1130.95,-259.49 1172.3,-287.92"/>
<polygon fill="#666666" stroke="#666666" stroke-width="1.1" points="1171.03,-290.01 1178.18,-291.96 1173.8,-285.98 1171.03,-290.01"/>
</g>
<!-- termin&#45;components&#45;collision&#45;&gt;termin&#45;components&#45;physics -->
<g id="edge26" class="edge">
<title>termin&#45;components&#45;collision&#45;&gt;termin&#45;components&#45;physics</title>
<path fill="none" stroke="#666666" stroke-width="1.1" d="M834.63,-536.05C856.73,-536.05 880.64,-536.05 903.03,-536.05"/>
<polygon fill="#666666" stroke="#666666" stroke-width="1.1" points="903.24,-538.5 910.24,-536.05 903.24,-533.6 903.24,-538.5"/>
</g>
<!-- termin&#45;components&#45;collision&#45;&gt;termin -->
<g id="edge33" class="edge">
<title>termin&#45;components&#45;collision&#45;&gt;termin</title>
<path fill="none" stroke="#666666" stroke-width="1.1" d="M808.51,-554.09C819.07,-558.54 829.68,-563.85 839,-570.05 873.8,-593.22 865.56,-621.62 904,-638.05 980.83,-670.89 1011.3,-659.71 1092,-638.05 1180.28,-614.35 1202.81,-597.02 1270,-535.05 1310.91,-497.32 1344.62,-440.82 1361.93,-408.7"/>
<polygon fill="#666666" stroke="#666666" stroke-width="1.1" points="1364.24,-409.57 1365.37,-402.24 1359.92,-407.27 1364.24,-409.57"/>
</g>
<!-- termin&#45;components&#45;skeleton&#45;&gt;termin&#45;components&#45;animation -->
<g id="edge29" class="edge">
<title>termin&#45;components&#45;skeleton&#45;&gt;termin&#45;components&#45;animation</title>
<path fill="none" stroke="#666666" stroke-width="1.1" d="M835.66,-604.05C855.43,-604.05 876.62,-604.05 896.83,-604.05"/>
<polygon fill="#666666" stroke="#666666" stroke-width="1.1" points="896.94,-606.5 903.94,-604.05 896.94,-601.6 896.94,-606.5"/>
</g>
<!-- termin&#45;components&#45;skeleton&#45;&gt;termin -->
<g id="edge31" class="edge">
<title>termin&#45;components&#45;skeleton&#45;&gt;termin</title>
<path fill="none" stroke="#666666" stroke-width="1.1" d="M801.04,-622.19C813.57,-627.04 826.88,-632.49 839,-638.05 868.82,-651.74 872.18,-665.03 904,-673.05 985.02,-693.48 1009.94,-688.81 1092,-673.05 1175.64,-656.98 1207.78,-660.21 1270,-602.05 1328.24,-547.62 1357.58,-453.96 1368.85,-409.24"/>
<polygon fill="#666666" stroke="#666666" stroke-width="1.1" points="1371.28,-409.63 1370.56,-402.24 1366.52,-408.46 1371.28,-409.63"/>
</g>
<!-- termin&#45;components&#45;animation&#45;&gt;termin -->
<g id="edge32" class="edge">
<title>termin&#45;components&#45;animation&#45;&gt;termin</title>
<path fill="none" stroke="#666666" stroke-width="1.1" d="M1050.95,-586.03C1064.54,-581.22 1078.92,-575.76 1092,-570.05 1174,-534.27 1196.36,-526.85 1270,-476.05 1300.14,-455.26 1331.19,-426.87 1351.53,-407.14"/>
<polygon fill="#666666" stroke="#666666" stroke-width="1.1" points="1353.42,-408.72 1356.72,-402.08 1350,-405.21 1353.42,-408.72"/>
</g>
<!-- termin&#45;components&#45;physics&#45;&gt;termin -->
<g id="edge35" class="edge">
<title>termin&#45;components&#45;physics&#45;&gt;termin</title>
<path fill="none" stroke="#666666" stroke-width="1.1" d="M1040.02,-518.02C1117.28,-487.07 1273.34,-424.57 1341.45,-397.29"/>
<polygon fill="#666666" stroke="#666666" stroke-width="1.1" points="1342.56,-399.48 1348.15,-394.6 1340.74,-394.93 1342.56,-399.48"/>
</g>
<!-- termin&#45;components&#45;kinematic&#45;&gt;termin -->
<g id="edge34" class="edge">
<title>termin&#45;components&#45;kinematic&#45;&gt;termin</title>
<path fill="none" stroke="#666666" stroke-width="1.1" d="M803.43,-690.17C907.38,-722.04 1139.42,-774.3 1270,-657.05 1344.83,-589.85 1366.43,-463.09 1372.37,-409.26"/>
<polygon fill="#666666" stroke="#666666" stroke-width="1.1" points="1374.82,-409.37 1373.11,-402.16 1369.94,-408.87 1374.82,-409.37"/>
</g>
<!-- termin&#45;engine&#45;&gt;termin -->
<g id="edge38" class="edge">
<title>termin&#45;engine&#45;&gt;termin</title>
<path fill="none" stroke="#666666" stroke-width="1.1" d="M1247.6,-328.15C1276.61,-340.93 1314.96,-357.82 1341.88,-369.68"/>
<polygon fill="#666666" stroke="#666666" stroke-width="1.1" points="1341.07,-372 1348.47,-372.58 1343.05,-367.52 1341.07,-372"/>
</g>
<!-- termin&#45;nodegraph -->
<g id="node23" class="node">
<title>termin&#45;nodegraph</title>
<path fill="#f7f7f7" stroke="#444444" d="M1250,-101.05C1250,-101.05 1161,-101.05 1161,-101.05 1155,-101.05 1149,-95.05 1149,-89.05 1149,-89.05 1149,-77.05 1149,-77.05 1149,-71.05 1155,-65.05 1161,-65.05 1161,-65.05 1250,-65.05 1250,-65.05 1256,-65.05 1262,-71.05 1262,-77.05 1262,-77.05 1262,-89.05 1262,-89.05 1262,-95.05 1256,-101.05 1250,-101.05"/>
<text text-anchor="middle" x="1205.5" y="-80.25" font-family="DejaVu Sans" font-size="11.00">termin&#45;nodegraph</text>
</g>
<!-- termin&#45;gui&#45;&gt;termin&#45;nodegraph -->
<g id="edge42" class="edge">
<title>termin&#45;gui&#45;&gt;termin&#45;nodegraph</title>
<path fill="none" stroke="#666666" stroke-width="1.1" d="M1029.59,-83.05C1059.99,-83.05 1104.98,-83.05 1141.72,-83.05"/>
<polygon fill="#666666" stroke="#666666" stroke-width="1.1" points="1141.95,-85.5 1148.95,-83.05 1141.95,-80.6 1141.95,-85.5"/>
</g>
<!-- termin&#45;gui&#45;&gt;termin -->
<g id="edge39" class="edge">
<title>termin&#45;gui&#45;&gt;termin</title>
<path fill="none" stroke="#666666" stroke-width="1.1" d="M1029.89,-96.34C1049.37,-104.79 1073.38,-116.96 1092,-132.05 1123.44,-157.53 1118.54,-176.41 1149,-203.05 1196.28,-244.4 1224.67,-232.58 1270,-276.05 1298.47,-303.35 1290.62,-322.65 1319,-350.05 1325.8,-356.62 1334.09,-362.52 1342.16,-367.5"/>
<polygon fill="#666666" stroke="#666666" stroke-width="1.1" points="1340.99,-369.65 1348.26,-371.12 1343.49,-365.44 1340.99,-369.65"/>
</g>
<!-- diffusion&#45;editor -->
<g id="node25" class="node">
<title>diffusion&#45;editor</title>
<path fill="#f7f7f7" stroke="#444444" d="M1412,-334.05C1412,-334.05 1339,-334.05 1339,-334.05 1333,-334.05 1327,-328.05 1327,-322.05 1327,-322.05 1327,-310.05 1327,-310.05 1327,-304.05 1333,-298.05 1339,-298.05 1339,-298.05 1412,-298.05 1412,-298.05 1418,-298.05 1424,-304.05 1424,-310.05 1424,-310.05 1424,-322.05 1424,-322.05 1424,-328.05 1418,-334.05 1412,-334.05"/>
<text text-anchor="middle" x="1375.5" y="-313.25" font-family="DejaVu Sans" font-size="11.00">diffusion&#45;editor</text>
</g>
<!-- termin&#45;gui&#45;&gt;diffusion&#45;editor -->
<g id="edge43" class="edge">
<title>termin&#45;gui&#45;&gt;diffusion&#45;editor</title>
<path fill="none" stroke="#666666" stroke-width="1.1" d="M1029.64,-94.68C1083.9,-113.85 1190.89,-155.56 1270,-211.05 1303.39,-234.47 1335.5,-269.16 1355.12,-292.17"/>
<polygon fill="#666666" stroke="#666666" stroke-width="1.1" points="1353.44,-293.99 1359.83,-297.76 1357.19,-290.83 1353.44,-293.99"/>
</g>
<!-- termin&#45;nodegraph&#45;&gt;termin -->
<g id="edge40" class="edge">
<title>termin&#45;nodegraph&#45;&gt;termin</title>
<path fill="none" stroke="#666666" stroke-width="1.1" d="M1216.47,-101.37C1229.64,-125.93 1253.11,-171.06 1270,-211.05 1295.49,-271.39 1277.81,-299.12 1319,-350.05 1325.17,-357.68 1333.54,-364.05 1341.91,-369.13"/>
<polygon fill="#666666" stroke="#666666" stroke-width="1.1" points="1340.98,-371.42 1348.28,-372.77 1343.42,-367.17 1340.98,-371.42"/>
</g>
<!-- termin&#45;csharp -->
<g id="node26" class="node">
<title>termin&#45;csharp</title>
<path fill="#f7f7f7" stroke="#444444" d="M1568,-402.05C1568,-402.05 1501,-402.05 1501,-402.05 1495,-402.05 1489,-396.05 1489,-390.05 1489,-390.05 1489,-378.05 1489,-378.05 1489,-372.05 1495,-366.05 1501,-366.05 1501,-366.05 1568,-366.05 1568,-366.05 1574,-366.05 1580,-372.05 1580,-378.05 1580,-378.05 1580,-390.05 1580,-390.05 1580,-396.05 1574,-402.05 1568,-402.05"/>
<text text-anchor="middle" x="1534.5" y="-381.25" font-family="DejaVu Sans" font-size="11.00">termin&#45;csharp</text>
</g>
<!-- termin&#45;&gt;termin&#45;csharp -->
<g id="edge41" class="edge">
<title>termin&#45;&gt;termin&#45;csharp</title>
<path fill="none" stroke="#666666" stroke-width="1.1" d="M1402.78,-384.05C1424.24,-384.05 1455.24,-384.05 1481.66,-384.05"/>
<polygon fill="#666666" stroke="#666666" stroke-width="1.1" points="1481.98,-386.5 1488.98,-384.05 1481.98,-381.6 1481.98,-386.5"/>
</g>
</g>
</svg>
