<?xml version="1.0" encoding="UTF-8" standalone="no"?>
<!DOCTYPE svg PUBLIC "-//W3C//DTD SVG 1.1//EN"
 "http://www.w3.org/Graphics/SVG/1.1/DTD/svg11.dtd">
<!-- Generated by graphviz version 2.43.0 (0)
 -->
<!-- Title: termin_dependencies Pages: 1 -->
<svg width="1748pt" height="2046pt"
 viewBox="0.00 0.00 1747.80 2046.40" xmlns="http://www.w3.org/2000/svg" xmlns:xlink="http://www.w3.org/1999/xlink">
<g id="graph0" class="graph" transform="scale(1 1) rotate(0) translate(14.4 2032)">
<title>termin_dependencies</title>
<polygon fill="white" stroke="transparent" points="-14.4,14.4 -14.4,-2032 1733.4,-2032 1733.4,14.4 -14.4,14.4"/>
<g id="clust1" class="cluster">
<title>cluster_application</title>
<polygon fill="white" stroke="#999999" stroke-dasharray="5,2" points="1620,-1330.6 1620,-1403.6 1711,-1403.6 1711,-1330.6 1620,-1330.6"/>
<text text-anchor="middle" x="1665.5" y="-1390" font-family="DejaVu Sans" font-size="12.00">Application</text>
</g>
<g id="clust2" class="cluster">
<title>cluster_foundation</title>
<polygon fill="white" stroke="#999999" stroke-dasharray="5,2" points="137,-846.6 137,-1191.6 1106.5,-1191.6 1106.5,-846.6 137,-846.6"/>
<text text-anchor="middle" x="621.75" y="-1178" font-family="DejaVu Sans" font-size="12.00">Foundation</text>
</g>
<g id="clust3" class="cluster">
<title>cluster_namespace</title>
<polygon fill="white" stroke="#999999" stroke-dasharray="5,2" points="0,-846.6 0,-919.6 88,-919.6 88,-846.6 0,-846.6"/>
<text text-anchor="middle" x="44" y="-906" font-family="DejaVu Sans" font-size="12.00">Namespace</text>
</g>
<g id="clust4" class="cluster">
<title>cluster_native_interop</title>
<polygon fill="white" stroke="#999999" stroke-dasharray="5,2" points="1443.5,-1070.6 1443.5,-1143.6 1550.5,-1143.6 1550.5,-1070.6 1443.5,-1070.6"/>
<text text-anchor="middle" x="1497" y="-1130" font-family="DejaVu Sans" font-size="12.00">Native Interop</text>
</g>
<g id="clust5" class="cluster">
<title>cluster_other_components</title>
<polygon fill="white" stroke="#999999" stroke-dasharray="5,2" points="702,-249.6 702,-730.6 1374,-730.6 1374,-249.6 702,-249.6"/>
<text text-anchor="middle" x="1038" y="-717" font-family="DejaVu Sans" font-size="12.00">Other Components</text>
</g>
<g id="clust6" class="cluster">
<title>cluster_python_support</title>
<polygon fill="white" stroke="#999999" stroke-dasharray="5,2" points="307,-1199.6 307,-1340.6 450,-1340.6 450,-1199.6 307,-1199.6"/>
<text text-anchor="middle" x="378.5" y="-1327" font-family="DejaVu Sans" font-size="12.00">Python Support</text>
</g>
<g id="clust7" class="cluster">
<title>cluster_render_stack</title>
<polygon fill="white" stroke="#999999" stroke-dasharray="5,2" points="320,-1521.6 320,-1662.6 1133,-1662.6 1133,-1521.6 320,-1521.6"/>
<text text-anchor="middle" x="726.5" y="-1649" font-family="DejaVu Sans" font-size="12.00">Render Stack</text>
</g>
<g id="clust8" class="cluster">
<title>cluster_runtime</title>
<polygon fill="white" stroke="#999999" stroke-dasharray="5,2" points="1229,-998.6 1229,-1071.6 1336,-1071.6 1336,-998.6 1229,-998.6"/>
<text text-anchor="middle" x="1282.5" y="-1058" font-family="DejaVu Sans" font-size="12.00">Runtime</text>
</g>
<g id="clust10" class="cluster">
<title>cluster_ui</title>
<polygon fill="white" stroke="#999999" stroke-dasharray="5,2" points="532.5,-1728.6 532.5,-1869.6 864,-1869.6 864,-1728.6 532.5,-1728.6"/>
<text text-anchor="middle" x="698.25" y="-1856" font-family="DejaVu Sans" font-size="12.00">UI</text>
</g>
<!-- termin&#45;app -->
<g id="node1" class="node">
<title>termin&#45;app</title>
<path fill="#f7f7f7" stroke="#444444" d="M1691,-1374.6C1691,-1374.6 1640,-1374.6 1640,-1374.6 1634,-1374.6 1628,-1368.6 1628,-1362.6 1628,-1362.6 1628,-1350.6 1628,-1350.6 1628,-1344.6 1634,-1338.6 1640,-1338.6 1640,-1338.6 1691,-1338.6 1691,-1338.6 1697,-1338.6 1703,-1344.6 1703,-1350.6 1703,-1350.6 1703,-1362.6 1703,-1362.6 1703,-1368.6 1697,-1374.6 1691,-1374.6"/>
<text text-anchor="middle" x="1665.5" y="-1353.8" font-family="DejaVu Sans" font-size="11.00">termin&#45;app</text>
</g>
<!-- termin&#45;animation -->
<g id="node2" class="node">
<title>termin&#45;animation</title>
<path fill="#f7f7f7" stroke="#444444" d="M1086.5,-1018.6C1086.5,-1018.6 1001.5,-1018.6 1001.5,-1018.6 995.5,-1018.6 989.5,-1012.6 989.5,-1006.6 989.5,-1006.6 989.5,-994.6 989.5,-994.6 989.5,-988.6 995.5,-982.6 1001.5,-982.6 1001.5,-982.6 1086.5,-982.6 1086.5,-982.6 1092.5,-982.6 1098.5,-988.6 1098.5,-994.6 1098.5,-994.6 1098.5,-1006.6 1098.5,-1006.6 1098.5,-1012.6 1092.5,-1018.6 1086.5,-1018.6"/>
<text text-anchor="middle" x="1044" y="-997.8" font-family="DejaVu Sans" font-size="11.00">termin&#45;animation</text>
</g>
<!-- termin&#45;animation&#45;&gt;termin&#45;app -->
<g id="edge9" class="edge">
<title>termin&#45;animation&#45;&gt;termin&#45;app</title>
<path fill="none" stroke="#666666" stroke-width="1.1" d="M1074.98,-982.46C1161.27,-932.84 1413.57,-806.2 1563,-924.6 1628.07,-976.15 1655.51,-1247.02 1662.57,-1331.45"/>
<polygon fill="#666666" stroke="#666666" stroke-width="1.1" points="1660.14,-1331.79 1663.15,-1338.57 1665.02,-1331.39 1660.14,-1331.79"/>
</g>
<!-- termin&#45;csharp -->
<g id="node18" class="node">
<title>termin&#45;csharp</title>
<path fill="#f7f7f7" stroke="#444444" d="M1530.5,-1114.6C1530.5,-1114.6 1463.5,-1114.6 1463.5,-1114.6 1457.5,-1114.6 1451.5,-1108.6 1451.5,-1102.6 1451.5,-1102.6 1451.5,-1090.6 1451.5,-1090.6 1451.5,-1084.6 1457.5,-1078.6 1463.5,-1078.6 1463.5,-1078.6 1530.5,-1078.6 1530.5,-1078.6 1536.5,-1078.6 1542.5,-1084.6 1542.5,-1090.6 1542.5,-1090.6 1542.5,-1102.6 1542.5,-1102.6 1542.5,-1108.6 1536.5,-1114.6 1530.5,-1114.6"/>
<text text-anchor="middle" x="1497" y="-1093.8" font-family="DejaVu Sans" font-size="11.00">termin&#45;csharp</text>
</g>
<!-- termin&#45;animation&#45;&gt;termin&#45;csharp -->
<g id="edge11" class="edge">
<title>termin&#45;animation&#45;&gt;termin&#45;csharp</title>
<path fill="none" stroke="#666666" stroke-width="1.1" d="M1060.25,-1018.61C1085.6,-1047 1139.55,-1101.04 1199,-1121.6 1281.4,-1150.1 1384.01,-1130.25 1444.51,-1113.35"/>
<polygon fill="#666666" stroke="#666666" stroke-width="1.1" points="1445.26,-1115.68 1451.32,-1111.41 1443.91,-1110.97 1445.26,-1115.68"/>
</g>
<!-- termin&#45;components&#45;animation -->
<g id="node19" class="node">
<title>termin&#45;components&#45;animation</title>
<path fill="#f7f7f7" stroke="#444444" d="M1122,-574.6C1122,-574.6 966,-574.6 966,-574.6 960,-574.6 954,-568.6 954,-562.6 954,-562.6 954,-550.6 954,-550.6 954,-544.6 960,-538.6 966,-538.6 966,-538.6 1122,-538.6 1122,-538.6 1128,-538.6 1134,-544.6 1134,-550.6 1134,-550.6 1134,-562.6 1134,-562.6 1134,-568.6 1128,-574.6 1122,-574.6"/>
<text text-anchor="middle" x="1044" y="-553.8" font-family="DejaVu Sans" font-size="11.00">termin&#45;components&#45;animation</text>
</g>
<!-- termin&#45;animation&#45;&gt;termin&#45;components&#45;animation -->
<g id="edge10" class="edge">
<title>termin&#45;animation&#45;&gt;termin&#45;components&#45;animation</title>
<path fill="none" stroke="#666666" stroke-width="1.1" d="M1004.58,-982.57C975.71,-966.99 938.69,-941.46 921.5,-906.6 911.28,-885.87 917.02,-877.27 921.5,-854.6 942.66,-747.46 1002.79,-630.42 1030.15,-580.89"/>
<polygon fill="#666666" stroke="#666666" stroke-width="1.1" points="1032.37,-581.94 1033.63,-574.63 1028.08,-579.56 1032.37,-581.94"/>
</g>
<!-- termin&#45;base -->
<g id="node3" class="node">
<title>termin&#45;base</title>
<path fill="#f7f7f7" stroke="#444444" d="M226,-958.6C226,-958.6 169,-958.6 169,-958.6 163,-958.6 157,-952.6 157,-946.6 157,-946.6 157,-934.6 157,-934.6 157,-928.6 163,-922.6 169,-922.6 169,-922.6 226,-922.6 226,-922.6 232,-922.6 238,-928.6 238,-934.6 238,-934.6 238,-946.6 238,-946.6 238,-952.6 232,-958.6 226,-958.6"/>
<text text-anchor="middle" x="197.5" y="-937.8" font-family="DejaVu Sans" font-size="11.00">termin&#45;base</text>
</g>
<!-- termin&#45;inspect -->
<g id="node7" class="node">
<title>termin&#45;inspect</title>
<path fill="#f7f7f7" stroke="#444444" d="M413.5,-1026.6C413.5,-1026.6 343.5,-1026.6 343.5,-1026.6 337.5,-1026.6 331.5,-1020.6 331.5,-1014.6 331.5,-1014.6 331.5,-1002.6 331.5,-1002.6 331.5,-996.6 337.5,-990.6 343.5,-990.6 343.5,-990.6 413.5,-990.6 413.5,-990.6 419.5,-990.6 425.5,-996.6 425.5,-1002.6 425.5,-1002.6 425.5,-1014.6 425.5,-1014.6 425.5,-1020.6 419.5,-1026.6 413.5,-1026.6"/>
<text text-anchor="middle" x="378.5" y="-1005.8" font-family="DejaVu Sans" font-size="11.00">termin&#45;inspect</text>
</g>
<!-- termin&#45;base&#45;&gt;termin&#45;inspect -->
<g id="edge19" class="edge">
<title>termin&#45;base&#45;&gt;termin&#45;inspect</title>
<path fill="none" stroke="#666666" stroke-width="1.1" d="M238.23,-955.69C263.58,-965.32 296.74,-977.92 324.35,-988.41"/>
<polygon fill="#666666" stroke="#666666" stroke-width="1.1" points="323.83,-990.83 331.24,-991.02 325.57,-986.25 323.83,-990.83"/>
</g>
<!-- termin&#45;mesh -->
<g id="node8" class="node">
<title>termin&#45;mesh</title>
<path fill="#f7f7f7" stroke="#444444" d="M408.5,-958.6C408.5,-958.6 348.5,-958.6 348.5,-958.6 342.5,-958.6 336.5,-952.6 336.5,-946.6 336.5,-946.6 336.5,-934.6 336.5,-934.6 336.5,-928.6 342.5,-922.6 348.5,-922.6 348.5,-922.6 408.5,-922.6 408.5,-922.6 414.5,-922.6 420.5,-928.6 420.5,-934.6 420.5,-934.6 420.5,-946.6 420.5,-946.6 420.5,-952.6 414.5,-958.6 408.5,-958.6"/>
<text text-anchor="middle" x="378.5" y="-937.8" font-family="DejaVu Sans" font-size="11.00">termin&#45;mesh</text>
</g>
<!-- termin&#45;base&#45;&gt;termin&#45;mesh -->
<g id="edge22" class="edge">
<title>termin&#45;base&#45;&gt;termin&#45;mesh</title>
<path fill="none" stroke="#666666" stroke-width="1.1" d="M238.23,-940.6C265.1,-940.6 300.75,-940.6 329.25,-940.6"/>
<polygon fill="#666666" stroke="#666666" stroke-width="1.1" points="329.33,-943.05 336.33,-940.6 329.33,-938.15 329.33,-943.05"/>
</g>
<!-- termin&#45;modules -->
<g id="node9" class="node">
<title>termin&#45;modules</title>
<path fill="#f7f7f7" stroke="#444444" d="M417,-1128.6C417,-1128.6 340,-1128.6 340,-1128.6 334,-1128.6 328,-1122.6 328,-1116.6 328,-1116.6 328,-1104.6 328,-1104.6 328,-1098.6 334,-1092.6 340,-1092.6 340,-1092.6 417,-1092.6 417,-1092.6 423,-1092.6 429,-1098.6 429,-1104.6 429,-1104.6 429,-1116.6 429,-1116.6 429,-1122.6 423,-1128.6 417,-1128.6"/>
<text text-anchor="middle" x="378.5" y="-1107.8" font-family="DejaVu Sans" font-size="11.00">termin&#45;modules</text>
</g>
<!-- termin&#45;base&#45;&gt;termin&#45;modules -->
<g id="edge23" class="edge">
<title>termin&#45;base&#45;&gt;termin&#45;modules</title>
<path fill="none" stroke="#666666" stroke-width="1.1" d="M228.99,-958.62C236.18,-963.43 243.6,-968.89 250,-974.6 279.43,-1000.85 280.1,-1013.76 307,-1042.6 321.44,-1058.08 338.5,-1074.58 352.23,-1087.45"/>
<polygon fill="#666666" stroke="#666666" stroke-width="1.1" points="350.71,-1089.39 357.5,-1092.37 354.06,-1085.81 350.71,-1089.39"/>
</g>
<!-- termin&#45;qopt -->
<g id="node12" class="node">
<title>termin&#45;qopt</title>
<path fill="#f7f7f7" stroke="#444444" d="M406,-890.6C406,-890.6 351,-890.6 351,-890.6 345,-890.6 339,-884.6 339,-878.6 339,-878.6 339,-866.6 339,-866.6 339,-860.6 345,-854.6 351,-854.6 351,-854.6 406,-854.6 406,-854.6 412,-854.6 418,-860.6 418,-866.6 418,-866.6 418,-878.6 418,-878.6 418,-884.6 412,-890.6 406,-890.6"/>
<text text-anchor="middle" x="378.5" y="-869.8" font-family="DejaVu Sans" font-size="11.00">termin&#45;qopt</text>
</g>
<!-- termin&#45;base&#45;&gt;termin&#45;qopt -->
<g id="edge25" class="edge">
<title>termin&#45;base&#45;&gt;termin&#45;qopt</title>
<path fill="none" stroke="#666666" stroke-width="1.1" d="M238.23,-925.51C265.97,-914.96 303.08,-900.87 332.02,-889.88"/>
<polygon fill="#666666" stroke="#666666" stroke-width="1.1" points="333.13,-892.07 338.81,-887.3 331.39,-887.49 333.13,-892.07"/>
</g>
<!-- termin&#45;assets -->
<g id="node29" class="node">
<title>termin&#45;assets</title>
<path fill="#f7f7f7" stroke="#444444" d="M411.5,-1311.6C411.5,-1311.6 345.5,-1311.6 345.5,-1311.6 339.5,-1311.6 333.5,-1305.6 333.5,-1299.6 333.5,-1299.6 333.5,-1287.6 333.5,-1287.6 333.5,-1281.6 339.5,-1275.6 345.5,-1275.6 345.5,-1275.6 411.5,-1275.6 411.5,-1275.6 417.5,-1275.6 423.5,-1281.6 423.5,-1287.6 423.5,-1287.6 423.5,-1299.6 423.5,-1299.6 423.5,-1305.6 417.5,-1311.6 411.5,-1311.6"/>
<text text-anchor="middle" x="378.5" y="-1290.8" font-family="DejaVu Sans" font-size="11.00">termin&#45;assets</text>
</g>
<!-- termin&#45;base&#45;&gt;termin&#45;assets -->
<g id="edge17" class="edge">
<title>termin&#45;base&#45;&gt;termin&#45;assets</title>
<path fill="none" stroke="#666666" stroke-width="1.1" d="M234.19,-958.7C240.23,-963.17 245.87,-968.46 250,-974.6 322.12,-1081.77 227.86,-1157.5 307,-1259.6 312.27,-1266.39 319.24,-1271.91 326.75,-1276.36"/>
<polygon fill="#666666" stroke="#666666" stroke-width="1.1" points="325.84,-1278.65 333.16,-1279.85 328.19,-1274.35 325.84,-1278.65"/>
</g>
<!-- termin&#45;lighting -->
<g id="node34" class="node">
<title>termin&#45;lighting</title>
<path fill="#f7f7f7" stroke="#444444" d="M414,-1633.6C414,-1633.6 343,-1633.6 343,-1633.6 337,-1633.6 331,-1627.6 331,-1621.6 331,-1621.6 331,-1609.6 331,-1609.6 331,-1603.6 337,-1597.6 343,-1597.6 343,-1597.6 414,-1597.6 414,-1597.6 420,-1597.6 426,-1603.6 426,-1609.6 426,-1609.6 426,-1621.6 426,-1621.6 426,-1627.6 420,-1633.6 414,-1633.6"/>
<text text-anchor="middle" x="378.5" y="-1612.8" font-family="DejaVu Sans" font-size="11.00">termin&#45;lighting</text>
</g>
<!-- termin&#45;base&#45;&gt;termin&#45;lighting -->
<g id="edge20" class="edge">
<title>termin&#45;base&#45;&gt;termin&#45;lighting</title>
<path fill="none" stroke="#666666" stroke-width="1.1" d="M235.22,-958.76C241.02,-963.18 246.31,-968.44 250,-974.6 389.42,-1206.94 152.32,-1359.12 307,-1581.6 311.51,-1588.09 317.62,-1593.39 324.36,-1597.7"/>
<polygon fill="#666666" stroke="#666666" stroke-width="1.1" points="323.41,-1599.98 330.69,-1601.38 325.88,-1595.75 323.41,-1599.98"/>
</g>
<!-- termin&#45;audio -->
<g id="node41" class="node">
<title>termin&#45;audio</title>
<path fill="#f7f7f7" stroke="#444444" d="M408.5,-361.6C408.5,-361.6 348.5,-361.6 348.5,-361.6 342.5,-361.6 336.5,-355.6 336.5,-349.6 336.5,-349.6 336.5,-337.6 336.5,-337.6 336.5,-331.6 342.5,-325.6 348.5,-325.6 348.5,-325.6 408.5,-325.6 408.5,-325.6 414.5,-325.6 420.5,-331.6 420.5,-337.6 420.5,-337.6 420.5,-349.6 420.5,-349.6 420.5,-355.6 414.5,-361.6 408.5,-361.6"/>
<text text-anchor="middle" x="378.5" y="-340.8" font-family="DejaVu Sans" font-size="11.00">termin&#45;audio</text>
</g>
<!-- termin&#45;base&#45;&gt;termin&#45;audio -->
<g id="edge18" class="edge">
<title>termin&#45;base&#45;&gt;termin&#45;audio</title>
<path fill="none" stroke="#666666" stroke-width="1.1" d="M234.9,-922.58C240.8,-918.13 246.21,-912.82 250,-906.6 373.06,-704.67 170.68,-570.83 307,-377.6 312.74,-369.47 320.96,-363.21 329.78,-358.41"/>
<polygon fill="#666666" stroke="#666666" stroke-width="1.1" points="331.1,-360.49 336.28,-355.17 328.92,-356.1 331.1,-360.49"/>
</g>
<!-- termin&#45;mcp -->
<g id="node47" class="node">
<title>termin&#45;mcp</title>
<path fill="#f7f7f7" stroke="#444444" d="M405.5,-161.6C405.5,-161.6 351.5,-161.6 351.5,-161.6 345.5,-161.6 339.5,-155.6 339.5,-149.6 339.5,-149.6 339.5,-137.6 339.5,-137.6 339.5,-131.6 345.5,-125.6 351.5,-125.6 351.5,-125.6 405.5,-125.6 405.5,-125.6 411.5,-125.6 417.5,-131.6 417.5,-137.6 417.5,-137.6 417.5,-149.6 417.5,-149.6 417.5,-155.6 411.5,-161.6 405.5,-161.6"/>
<text text-anchor="middle" x="378.5" y="-140.8" font-family="DejaVu Sans" font-size="11.00">termin&#45;mcp</text>
</g>
<!-- termin&#45;base&#45;&gt;termin&#45;mcp -->
<g id="edge21" class="edge">
<title>termin&#45;base&#45;&gt;termin&#45;mcp</title>
<path fill="none" stroke="#666666" stroke-width="1.1" d="M235.22,-922.42C241.01,-918.01 246.3,-912.75 250,-906.6 318.66,-792.38 274.23,-438.78 307,-309.6 320.3,-257.18 347.74,-199.93 364.19,-168.23"/>
<polygon fill="#666666" stroke="#666666" stroke-width="1.1" points="366.45,-169.2 367.53,-161.86 362.11,-166.93 366.45,-169.2"/>
</g>
<!-- termin&#45;pga -->
<g id="node49" class="node">
<title>termin&#45;pga</title>
<path fill="#f7f7f7" stroke="#444444" d="M404,-429.6C404,-429.6 353,-429.6 353,-429.6 347,-429.6 341,-423.6 341,-417.6 341,-417.6 341,-405.6 341,-405.6 341,-399.6 347,-393.6 353,-393.6 353,-393.6 404,-393.6 404,-393.6 410,-393.6 416,-399.6 416,-405.6 416,-405.6 416,-417.6 416,-417.6 416,-423.6 410,-429.6 404,-429.6"/>
<text text-anchor="middle" x="378.5" y="-408.8" font-family="DejaVu Sans" font-size="11.00">termin&#45;pga</text>
</g>
<!-- termin&#45;base&#45;&gt;termin&#45;pga -->
<g id="edge24" class="edge">
<title>termin&#45;base&#45;&gt;termin&#45;pga</title>
<path fill="none" stroke="#666666" stroke-width="1.1" d="M234.81,-922.53C240.72,-918.08 246.15,-912.78 250,-906.6 357.14,-734.27 195.91,-623.41 307,-453.6 313.72,-443.33 323.89,-435.22 334.43,-428.98"/>
<polygon fill="#666666" stroke="#666666" stroke-width="1.1" points="335.74,-431.06 340.66,-425.51 333.35,-426.77 335.74,-431.06"/>
</g>
<!-- termin&#45;collision -->
<g id="node4" class="node">
<title>termin&#45;collision</title>
<path fill="#f7f7f7" stroke="#444444" d="M837,-898.6C837,-898.6 762,-898.6 762,-898.6 756,-898.6 750,-892.6 750,-886.6 750,-886.6 750,-874.6 750,-874.6 750,-868.6 756,-862.6 762,-862.6 762,-862.6 837,-862.6 837,-862.6 843,-862.6 849,-868.6 849,-874.6 849,-874.6 849,-886.6 849,-886.6 849,-892.6 843,-898.6 837,-898.6"/>
<text text-anchor="middle" x="799.5" y="-877.8" font-family="DejaVu Sans" font-size="11.00">termin&#45;collision</text>
</g>
<!-- termin&#45;physics -->
<g id="node11" class="node">
<title>termin&#45;physics</title>
<path fill="#f7f7f7" stroke="#444444" d="M1080,-906.6C1080,-906.6 1008,-906.6 1008,-906.6 1002,-906.6 996,-900.6 996,-894.6 996,-894.6 996,-882.6 996,-882.6 996,-876.6 1002,-870.6 1008,-870.6 1008,-870.6 1080,-870.6 1080,-870.6 1086,-870.6 1092,-876.6 1092,-882.6 1092,-882.6 1092,-894.6 1092,-894.6 1092,-900.6 1086,-906.6 1080,-906.6"/>
<text text-anchor="middle" x="1044" y="-885.8" font-family="DejaVu Sans" font-size="11.00">termin&#45;physics</text>
</g>
<!-- termin&#45;collision&#45;&gt;termin&#45;physics -->
<g id="edge28" class="edge">
<title>termin&#45;collision&#45;&gt;termin&#45;physics</title>
<path fill="none" stroke="#666666" stroke-width="1.1" d="M849.28,-882.21C889.68,-883.54 947.04,-885.43 988.85,-886.81"/>
<polygon fill="#666666" stroke="#666666" stroke-width="1.1" points="988.87,-889.26 995.95,-887.04 989.03,-884.37 988.87,-889.26"/>
</g>
<!-- termin&#45;components&#45;collision -->
<g id="node20" class="node">
<title>termin&#45;components&#45;collision</title>
<path fill="#f7f7f7" stroke="#444444" d="M1117,-506.6C1117,-506.6 971,-506.6 971,-506.6 965,-506.6 959,-500.6 959,-494.6 959,-494.6 959,-482.6 959,-482.6 959,-476.6 965,-470.6 971,-470.6 971,-470.6 1117,-470.6 1117,-470.6 1123,-470.6 1129,-476.6 1129,-482.6 1129,-482.6 1129,-494.6 1129,-494.6 1129,-500.6 1123,-506.6 1117,-506.6"/>
<text text-anchor="middle" x="1044" y="-485.8" font-family="DejaVu Sans" font-size="11.00">termin&#45;components&#45;collision</text>
</g>
<!-- termin&#45;collision&#45;&gt;termin&#45;components&#45;collision -->
<g id="edge26" class="edge">
<title>termin&#45;collision&#45;&gt;termin&#45;components&#45;collision</title>
<path fill="none" stroke="#666666" stroke-width="1.1" d="M814.21,-862.2C833.23,-835.96 867.69,-785.71 889,-738.6 930.32,-647.26 885.73,-596.01 954,-522.6 958.38,-517.88 963.49,-513.82 969,-510.31"/>
<polygon fill="#666666" stroke="#666666" stroke-width="1.1" points="970.33,-512.37 975.13,-506.72 967.85,-508.15 970.33,-512.37"/>
</g>
<!-- termin&#45;engine -->
<g id="node36" class="node">
<title>termin&#45;engine</title>
<path fill="#f7f7f7" stroke="#444444" d="M1316,-1042.6C1316,-1042.6 1249,-1042.6 1249,-1042.6 1243,-1042.6 1237,-1036.6 1237,-1030.6 1237,-1030.6 1237,-1018.6 1237,-1018.6 1237,-1012.6 1243,-1006.6 1249,-1006.6 1249,-1006.6 1316,-1006.6 1316,-1006.6 1322,-1006.6 1328,-1012.6 1328,-1018.6 1328,-1018.6 1328,-1030.6 1328,-1030.6 1328,-1036.6 1322,-1042.6 1316,-1042.6"/>
<text text-anchor="middle" x="1282.5" y="-1021.8" font-family="DejaVu Sans" font-size="11.00">termin&#45;engine</text>
</g>
<!-- termin&#45;collision&#45;&gt;termin&#45;engine -->
<g id="edge27" class="edge">
<title>termin&#45;collision&#45;&gt;termin&#45;engine</title>
<path fill="none" stroke="#666666" stroke-width="1.1" d="M849.17,-862.6C916.51,-840.77 1040.35,-811.87 1134,-854.6 1200.03,-884.73 1247.9,-960.64 1269.19,-1000.03"/>
<polygon fill="#666666" stroke="#666666" stroke-width="1.1" points="1267.17,-1001.45 1272.62,-1006.48 1271.5,-999.15 1267.17,-1001.45"/>
</g>
<!-- termin&#45;csg -->
<g id="node5" class="node">
<title>termin&#45;csg</title>
<path fill="#f7f7f7" stroke="#444444" d="M222,-1162.6C222,-1162.6 173,-1162.6 173,-1162.6 167,-1162.6 161,-1156.6 161,-1150.6 161,-1150.6 161,-1138.6 161,-1138.6 161,-1132.6 167,-1126.6 173,-1126.6 173,-1126.6 222,-1126.6 222,-1126.6 228,-1126.6 234,-1132.6 234,-1138.6 234,-1138.6 234,-1150.6 234,-1150.6 234,-1156.6 228,-1162.6 222,-1162.6"/>
<text text-anchor="middle" x="197.5" y="-1141.8" font-family="DejaVu Sans" font-size="11.00">termin&#45;csg</text>
</g>
<!-- termin&#45;components&#45;mesh -->
<g id="node22" class="node">
<title>termin&#45;components&#45;mesh</title>
<path fill="#f7f7f7" stroke="#444444" d="M865.5,-429.6C865.5,-429.6 733.5,-429.6 733.5,-429.6 727.5,-429.6 721.5,-423.6 721.5,-417.6 721.5,-417.6 721.5,-405.6 721.5,-405.6 721.5,-399.6 727.5,-393.6 733.5,-393.6 733.5,-393.6 865.5,-393.6 865.5,-393.6 871.5,-393.6 877.5,-399.6 877.5,-405.6 877.5,-405.6 877.5,-417.6 877.5,-417.6 877.5,-423.6 871.5,-429.6 865.5,-429.6"/>
<text text-anchor="middle" x="799.5" y="-408.8" font-family="DejaVu Sans" font-size="11.00">termin&#45;components&#45;mesh</text>
</g>
<!-- termin&#45;csg&#45;&gt;termin&#45;components&#45;mesh -->
<g id="edge49" class="edge">
<title>termin&#45;csg&#45;&gt;termin&#45;components&#45;mesh</title>
<path fill="none" stroke="#666666" stroke-width="1.1" d="M234.14,-1126.46C240.19,-1122 245.84,-1116.71 250,-1110.6 319.43,-1008.44 228.99,-934.36 307,-838.6 358.73,-775.09 592.6,-754.55 645,-691.6 716.79,-605.34 627.17,-529.24 702,-445.6 706.26,-440.83 711.23,-436.74 716.63,-433.21"/>
<polygon fill="#666666" stroke="#666666" stroke-width="1.1" points="717.89,-435.31 722.64,-429.61 715.37,-431.11 717.89,-435.31"/>
</g>
<!-- termin&#45;input -->
<g id="node6" class="node">
<title>termin&#45;input</title>
<path fill="#f7f7f7" stroke="#444444" d="M828.5,-994.6C828.5,-994.6 770.5,-994.6 770.5,-994.6 764.5,-994.6 758.5,-988.6 758.5,-982.6 758.5,-982.6 758.5,-970.6 758.5,-970.6 758.5,-964.6 764.5,-958.6 770.5,-958.6 770.5,-958.6 828.5,-958.6 828.5,-958.6 834.5,-958.6 840.5,-964.6 840.5,-970.6 840.5,-970.6 840.5,-982.6 840.5,-982.6 840.5,-988.6 834.5,-994.6 828.5,-994.6"/>
<text text-anchor="middle" x="799.5" y="-973.8" font-family="DejaVu Sans" font-size="11.00">termin&#45;input</text>
</g>
<!-- termin&#45;display -->
<g id="node32" class="node">
<title>termin&#45;display</title>
<path fill="#f7f7f7" stroke="#444444" d="M834,-1599.6C834,-1599.6 765,-1599.6 765,-1599.6 759,-1599.6 753,-1593.6 753,-1587.6 753,-1587.6 753,-1575.6 753,-1575.6 753,-1569.6 759,-1563.6 765,-1563.6 765,-1563.6 834,-1563.6 834,-1563.6 840,-1563.6 846,-1569.6 846,-1575.6 846,-1575.6 846,-1587.6 846,-1587.6 846,-1593.6 840,-1599.6 834,-1599.6"/>
<text text-anchor="middle" x="799.5" y="-1578.8" font-family="DejaVu Sans" font-size="11.00">termin&#45;display</text>
</g>
<!-- termin&#45;input&#45;&gt;termin&#45;display -->
<g id="edge67" class="edge">
<title>termin&#45;input&#45;&gt;termin&#45;display</title>
<path fill="none" stroke="#666666" stroke-width="1.1" d="M758.39,-980.09C728.61,-985.1 690.68,-997.25 673.5,-1026.6 648.74,-1068.88 653.62,-1422.81 673.5,-1467.6 691.39,-1507.92 731.37,-1540.03 761.53,-1559.77"/>
<polygon fill="#666666" stroke="#666666" stroke-width="1.1" points="760.21,-1561.83 767.42,-1563.55 762.85,-1557.7 760.21,-1561.83"/>
</g>
<!-- termin&#45;scene -->
<g id="node13" class="node">
<title>termin&#45;scene</title>
<path fill="#f7f7f7" stroke="#444444" d="M607.5,-1022.6C607.5,-1022.6 544.5,-1022.6 544.5,-1022.6 538.5,-1022.6 532.5,-1016.6 532.5,-1010.6 532.5,-1010.6 532.5,-998.6 532.5,-998.6 532.5,-992.6 538.5,-986.6 544.5,-986.6 544.5,-986.6 607.5,-986.6 607.5,-986.6 613.5,-986.6 619.5,-992.6 619.5,-998.6 619.5,-998.6 619.5,-1010.6 619.5,-1010.6 619.5,-1016.6 613.5,-1022.6 607.5,-1022.6"/>
<text text-anchor="middle" x="576" y="-1001.8" font-family="DejaVu Sans" font-size="11.00">termin&#45;scene</text>
</g>
<!-- termin&#45;inspect&#45;&gt;termin&#45;scene -->
<g id="edge69" class="edge">
<title>termin&#45;inspect&#45;&gt;termin&#45;scene</title>
<path fill="none" stroke="#666666" stroke-width="1.1" d="M425.83,-1007.65C455.73,-1007.04 494.6,-1006.24 525.16,-1005.62"/>
<polygon fill="#666666" stroke="#666666" stroke-width="1.1" points="525.39,-1008.06 532.34,-1005.47 525.29,-1003.16 525.39,-1008.06"/>
</g>
<!-- termin&#45;components&#45;ui -->
<g id="node26" class="node">
<title>termin&#45;components&#45;ui</title>
<path fill="#f7f7f7" stroke="#444444" d="M855,-565.6C855,-565.6 744,-565.6 744,-565.6 738,-565.6 732,-559.6 732,-553.6 732,-553.6 732,-541.6 732,-541.6 732,-535.6 738,-529.6 744,-529.6 744,-529.6 855,-529.6 855,-529.6 861,-529.6 867,-535.6 867,-541.6 867,-541.6 867,-553.6 867,-553.6 867,-559.6 861,-565.6 855,-565.6"/>
<text text-anchor="middle" x="799.5" y="-544.8" font-family="DejaVu Sans" font-size="11.00">termin&#45;components&#45;ui</text>
</g>
<!-- termin&#45;inspect&#45;&gt;termin&#45;components&#45;ui -->
<g id="edge68" class="edge">
<title>termin&#45;inspect&#45;&gt;termin&#45;components&#45;ui</title>
<path fill="none" stroke="#666666" stroke-width="1.1" d="M425.56,-992.16C493.74,-966.91 616.56,-917.63 645,-880.6 727.41,-773.31 613.8,-684.17 702,-581.6 708.34,-574.23 716.37,-568.45 725.09,-563.93"/>
<polygon fill="#666666" stroke="#666666" stroke-width="1.1" points="726.29,-566.08 731.55,-560.86 724.18,-561.66 726.29,-566.08"/>
</g>
<!-- termin&#45;graphics -->
<g id="node33" class="node">
<title>termin&#45;graphics</title>
<path fill="#f7f7f7" stroke="#444444" d="M417,-1565.6C417,-1565.6 340,-1565.6 340,-1565.6 334,-1565.6 328,-1559.6 328,-1553.6 328,-1553.6 328,-1541.6 328,-1541.6 328,-1535.6 334,-1529.6 340,-1529.6 340,-1529.6 417,-1529.6 417,-1529.6 423,-1529.6 429,-1535.6 429,-1541.6 429,-1541.6 429,-1553.6 429,-1553.6 429,-1559.6 423,-1565.6 417,-1565.6"/>
<text text-anchor="middle" x="378.5" y="-1544.8" font-family="DejaVu Sans" font-size="11.00">termin&#45;graphics</text>
</g>
<!-- termin&#45;mesh&#45;&gt;termin&#45;graphics -->
<g id="edge72" class="edge">
<title>termin&#45;mesh&#45;&gt;termin&#45;graphics</title>
<path fill="none" stroke="#666666" stroke-width="1.1" d="M336.37,-950.03C314.89,-957.25 290.76,-969.66 278.5,-990.6 240.1,-1056.19 262.09,-1258.39 278.5,-1332.6 294.8,-1406.31 339.07,-1484.75 362.86,-1523.31"/>
<polygon fill="#666666" stroke="#666666" stroke-width="1.1" points="361,-1524.95 366.78,-1529.59 365.16,-1522.36 361,-1524.95"/>
</g>
<!-- termin&#45;modules&#45;&gt;termin&#45;engine -->
<g id="edge73" class="edge">
<title>termin&#45;modules&#45;&gt;termin&#45;engine</title>
<path fill="none" stroke="#666666" stroke-width="1.1" d="M406.8,-1128.65C482.98,-1176.77 704.4,-1301.13 889,-1251.6 1040.36,-1210.98 1193.67,-1096.26 1254.36,-1047.25"/>
<polygon fill="#666666" stroke="#666666" stroke-width="1.1" points="1256.06,-1049.03 1259.94,-1042.72 1252.97,-1045.23 1256.06,-1049.03"/>
</g>
<!-- termin&#45;navmesh -->
<g id="node10" class="node">
<title>termin&#45;navmesh</title>
<path fill="#f7f7f7" stroke="#444444" d="M238,-1094.6C238,-1094.6 157,-1094.6 157,-1094.6 151,-1094.6 145,-1088.6 145,-1082.6 145,-1082.6 145,-1070.6 145,-1070.6 145,-1064.6 151,-1058.6 157,-1058.6 157,-1058.6 238,-1058.6 238,-1058.6 244,-1058.6 250,-1064.6 250,-1070.6 250,-1070.6 250,-1082.6 250,-1082.6 250,-1088.6 244,-1094.6 238,-1094.6"/>
<text text-anchor="middle" x="197.5" y="-1073.8" font-family="DejaVu Sans" font-size="11.00">termin&#45;navmesh</text>
</g>
<!-- termin&#45;bootstrap -->
<g id="node42" class="node">
<title>termin&#45;bootstrap</title>
<path fill="#f7f7f7" stroke="#444444" d="M1324.5,-842.6C1324.5,-842.6 1240.5,-842.6 1240.5,-842.6 1234.5,-842.6 1228.5,-836.6 1228.5,-830.6 1228.5,-830.6 1228.5,-818.6 1228.5,-818.6 1228.5,-812.6 1234.5,-806.6 1240.5,-806.6 1240.5,-806.6 1324.5,-806.6 1324.5,-806.6 1330.5,-806.6 1336.5,-812.6 1336.5,-818.6 1336.5,-818.6 1336.5,-830.6 1336.5,-830.6 1336.5,-836.6 1330.5,-842.6 1324.5,-842.6"/>
<text text-anchor="middle" x="1282.5" y="-821.8" font-family="DejaVu Sans" font-size="11.00">termin&#45;bootstrap</text>
</g>
<!-- termin&#45;navmesh&#45;&gt;termin&#45;bootstrap -->
<g id="edge75" class="edge">
<title>termin&#45;navmesh&#45;&gt;termin&#45;bootstrap</title>
<path fill="none" stroke="#666666" stroke-width="1.1" d="M235.2,-1094.78C241,-1099.19 246.29,-1104.45 250,-1110.6 316.67,-1221.11 211.36,-1601.93 307,-1688.6 326.01,-1705.83 1050.92,-1745.13 1134,-1666.6 1252.99,-1554.11 1139.74,-1085.25 1199,-932.6 1211.78,-899.69 1237.8,-868.35 1257.22,-847.99"/>
<polygon fill="#666666" stroke="#666666" stroke-width="1.1" points="1259.14,-849.54 1262.26,-842.81 1255.63,-846.12 1259.14,-849.54"/>
</g>
<!-- termin&#45;default&#45;assets -->
<g id="node44" class="node">
<title>termin&#45;default&#45;assets</title>
<path fill="#f7f7f7" stroke="#444444" d="M1551,-774.6C1551,-774.6 1443,-774.6 1443,-774.6 1437,-774.6 1431,-768.6 1431,-762.6 1431,-762.6 1431,-750.6 1431,-750.6 1431,-744.6 1437,-738.6 1443,-738.6 1443,-738.6 1551,-738.6 1551,-738.6 1557,-738.6 1563,-744.6 1563,-750.6 1563,-750.6 1563,-762.6 1563,-762.6 1563,-768.6 1557,-774.6 1551,-774.6"/>
<text text-anchor="middle" x="1497" y="-753.8" font-family="DejaVu Sans" font-size="11.00">termin&#45;default&#45;assets</text>
</g>
<!-- termin&#45;navmesh&#45;&gt;termin&#45;default&#45;assets -->
<g id="edge76" class="edge">
<title>termin&#45;navmesh&#45;&gt;termin&#45;default&#45;assets</title>
<path fill="none" stroke="#666666" stroke-width="1.1" d="M235.23,-1094.76C241.02,-1099.18 246.31,-1104.44 250,-1110.6 390.05,-1344.11 175.15,-1482.36 307,-1720.6 436.51,-1954.61 632.87,-1950.62 889,-1873.6 1014.01,-1836 1067.08,-1823.68 1134,-1711.6 1298.93,-1435.34 1042.71,-1271.83 1199,-990.6 1246.32,-905.44 1297.72,-919.19 1374,-858.6 1407.56,-831.94 1445.29,-800.1 1469.78,-779.17"/>
<polygon fill="#666666" stroke="#666666" stroke-width="1.1" points="1471.38,-781.02 1475.11,-774.61 1468.19,-777.3 1471.38,-781.02"/>
</g>
<!-- termin&#45;player -->
<g id="node50" class="node">
<title>termin&#45;player</title>
<path fill="#f7f7f7" stroke="#444444" d="M1529.5,-366.6C1529.5,-366.6 1464.5,-366.6 1464.5,-366.6 1458.5,-366.6 1452.5,-360.6 1452.5,-354.6 1452.5,-354.6 1452.5,-342.6 1452.5,-342.6 1452.5,-336.6 1458.5,-330.6 1464.5,-330.6 1464.5,-330.6 1529.5,-330.6 1529.5,-330.6 1535.5,-330.6 1541.5,-336.6 1541.5,-342.6 1541.5,-342.6 1541.5,-354.6 1541.5,-354.6 1541.5,-360.6 1535.5,-366.6 1529.5,-366.6"/>
<text text-anchor="middle" x="1497" y="-345.8" font-family="DejaVu Sans" font-size="11.00">termin&#45;player</text>
</g>
<!-- termin&#45;navmesh&#45;&gt;termin&#45;player -->
<g id="edge77" class="edge">
<title>termin&#45;navmesh&#45;&gt;termin&#45;player</title>
<path fill="none" stroke="#666666" stroke-width="1.1" d="M234.83,-1058.54C240.74,-1054.1 246.17,-1048.79 250,-1042.6 360.91,-863.26 208.79,-758.19 307,-571.6 346.45,-496.64 407.3,-518.76 450,-445.6 511.82,-339.67 416.24,-258.09 507,-175.6 603.48,-87.9 668.12,-142.6 798.5,-142.6 798.5,-142.6 798.5,-142.6 1045,-142.6 1192.41,-142.6 1246.75,-110.19 1374,-184.6 1429.95,-217.31 1468.16,-286.82 1485.47,-323.97"/>
<polygon fill="#666666" stroke="#666666" stroke-width="1.1" points="1483.32,-325.16 1488.46,-330.51 1487.78,-323.13 1483.32,-325.16"/>
</g>
<!-- termin&#45;components&#45;physics -->
<g id="node23" class="node">
<title>termin&#45;components&#45;physics</title>
<path fill="#f7f7f7" stroke="#444444" d="M1354,-603.6C1354,-603.6 1211,-603.6 1211,-603.6 1205,-603.6 1199,-597.6 1199,-591.6 1199,-591.6 1199,-579.6 1199,-579.6 1199,-573.6 1205,-567.6 1211,-567.6 1211,-567.6 1354,-567.6 1354,-567.6 1360,-567.6 1366,-573.6 1366,-579.6 1366,-579.6 1366,-591.6 1366,-591.6 1366,-597.6 1360,-603.6 1354,-603.6"/>
<text text-anchor="middle" x="1282.5" y="-582.8" font-family="DejaVu Sans" font-size="11.00">termin&#45;components&#45;physics</text>
</g>
<!-- termin&#45;physics&#45;&gt;termin&#45;components&#45;physics -->
<g id="edge79" class="edge">
<title>termin&#45;physics&#45;&gt;termin&#45;components&#45;physics</title>
<path fill="none" stroke="#666666" stroke-width="1.1" d="M1059.09,-870.55C1099.66,-818.57 1216.8,-668.49 1262.72,-609.66"/>
<polygon fill="#666666" stroke="#666666" stroke-width="1.1" points="1264.81,-610.96 1267.19,-603.93 1260.95,-607.94 1264.81,-610.96"/>
</g>
<!-- termin&#45;physics&#45;fem -->
<g id="node28" class="node">
<title>termin&#45;physics&#45;fem</title>
<path fill="#f7f7f7" stroke="#444444" d="M847.5,-497.6C847.5,-497.6 751.5,-497.6 751.5,-497.6 745.5,-497.6 739.5,-491.6 739.5,-485.6 739.5,-485.6 739.5,-473.6 739.5,-473.6 739.5,-467.6 745.5,-461.6 751.5,-461.6 751.5,-461.6 847.5,-461.6 847.5,-461.6 853.5,-461.6 859.5,-467.6 859.5,-473.6 859.5,-473.6 859.5,-485.6 859.5,-485.6 859.5,-491.6 853.5,-497.6 847.5,-497.6"/>
<text text-anchor="middle" x="799.5" y="-476.8" font-family="DejaVu Sans" font-size="11.00">termin&#45;physics&#45;fem</text>
</g>
<!-- termin&#45;qopt&#45;&gt;termin&#45;physics&#45;fem -->
<g id="edge81" class="edge">
<title>termin&#45;qopt&#45;&gt;termin&#45;physics&#45;fem</title>
<path fill="none" stroke="#666666" stroke-width="1.1" d="M418.02,-878.99C475.72,-886.18 584.31,-890.02 645,-830.6 747.28,-730.45 609.24,-622.62 702,-513.6 710.16,-504.01 721.2,-497.12 732.89,-492.18"/>
<polygon fill="#666666" stroke="#666666" stroke-width="1.1" points="733.81,-494.45 739.45,-489.63 732.03,-489.89 733.81,-494.45"/>
</g>
<!-- termin&#45;scene&#45;&gt;termin&#45;collision -->
<g id="edge90" class="edge">
<title>termin&#45;scene&#45;&gt;termin&#45;collision</title>
<path fill="none" stroke="#666666" stroke-width="1.1" d="M609.21,-986.57C649.15,-964.2 717.18,-926.12 759.88,-902.22"/>
<polygon fill="#666666" stroke="#666666" stroke-width="1.1" points="761.34,-904.21 766.25,-898.65 758.95,-899.93 761.34,-904.21"/>
</g>
<!-- termin&#45;scene&#45;&gt;termin&#45;input -->
<g id="edge96" class="edge">
<title>termin&#45;scene&#45;&gt;termin&#45;input</title>
<path fill="none" stroke="#666666" stroke-width="1.1" d="M619.71,-999.2C657.34,-994.44 712.09,-987.52 751.08,-982.59"/>
<polygon fill="#666666" stroke="#666666" stroke-width="1.1" points="751.53,-985 758.16,-981.7 750.91,-980.14 751.53,-985"/>
</g>
<!-- termin&#45;skeleton -->
<g id="node14" class="node">
<title>termin&#45;skeleton</title>
<path fill="#f7f7f7" stroke="#444444" d="M838,-1062.6C838,-1062.6 761,-1062.6 761,-1062.6 755,-1062.6 749,-1056.6 749,-1050.6 749,-1050.6 749,-1038.6 749,-1038.6 749,-1032.6 755,-1026.6 761,-1026.6 761,-1026.6 838,-1026.6 838,-1026.6 844,-1026.6 850,-1032.6 850,-1038.6 850,-1038.6 850,-1050.6 850,-1050.6 850,-1056.6 844,-1062.6 838,-1062.6"/>
<text text-anchor="middle" x="799.5" y="-1041.8" font-family="DejaVu Sans" font-size="11.00">termin&#45;skeleton</text>
</g>
<!-- termin&#45;scene&#45;&gt;termin&#45;skeleton -->
<g id="edge100" class="edge">
<title>termin&#45;scene&#45;&gt;termin&#45;skeleton</title>
<path fill="none" stroke="#666666" stroke-width="1.1" d="M619.71,-1012.31C654.5,-1018.59 703.92,-1027.52 741.99,-1034.39"/>
<polygon fill="#666666" stroke="#666666" stroke-width="1.1" points="741.64,-1036.82 748.96,-1035.65 742.51,-1032 741.64,-1036.82"/>
</g>
<!-- termin&#45;components&#45;kinematic -->
<g id="node21" class="node">
<title>termin&#45;components&#45;kinematic</title>
<path fill="#f7f7f7" stroke="#444444" d="M877,-633.6C877,-633.6 722,-633.6 722,-633.6 716,-633.6 710,-627.6 710,-621.6 710,-621.6 710,-609.6 710,-609.6 710,-603.6 716,-597.6 722,-597.6 722,-597.6 877,-597.6 877,-597.6 883,-597.6 889,-603.6 889,-609.6 889,-609.6 889,-621.6 889,-621.6 889,-627.6 883,-633.6 877,-633.6"/>
<text text-anchor="middle" x="799.5" y="-612.8" font-family="DejaVu Sans" font-size="11.00">termin&#45;components&#45;kinematic</text>
</g>
<!-- termin&#45;scene&#45;&gt;termin&#45;components&#45;kinematic -->
<g id="edge91" class="edge">
<title>termin&#45;scene&#45;&gt;termin&#45;components&#45;kinematic</title>
<path fill="none" stroke="#666666" stroke-width="1.1" d="M618.59,-986.45C628.62,-980.24 638.35,-972.34 645,-962.6 724.7,-845.8 610.25,-757.19 702,-649.6 705.98,-644.93 710.63,-640.91 715.72,-637.44"/>
<polygon fill="#666666" stroke="#666666" stroke-width="1.1" points="717.22,-639.39 721.86,-633.61 714.63,-635.23 717.22,-639.39"/>
</g>
<!-- termin&#45;scene&#45;&gt;termin&#45;components&#45;mesh -->
<g id="edge92" class="edge">
<title>termin&#45;scene&#45;&gt;termin&#45;components&#45;mesh</title>
<path fill="none" stroke="#666666" stroke-width="1.1" d="M585.65,-986.51C600.16,-955.39 629.38,-889.37 645,-830.6 689.43,-663.42 591.96,-579.06 702,-445.6 705.82,-440.97 710.31,-436.97 715.23,-433.51"/>
<polygon fill="#666666" stroke="#666666" stroke-width="1.1" points="716.61,-435.54 721.18,-429.7 713.97,-431.41 716.61,-435.54"/>
</g>
<!-- termin&#45;components&#45;tween -->
<g id="node25" class="node">
<title>termin&#45;components&#45;tween</title>
<path fill="#f7f7f7" stroke="#444444" d="M867,-293.6C867,-293.6 732,-293.6 732,-293.6 726,-293.6 720,-287.6 720,-281.6 720,-281.6 720,-269.6 720,-269.6 720,-263.6 726,-257.6 732,-257.6 732,-257.6 867,-257.6 867,-257.6 873,-257.6 879,-263.6 879,-269.6 879,-269.6 879,-281.6 879,-281.6 879,-287.6 873,-293.6 867,-293.6"/>
<text text-anchor="middle" x="799.5" y="-272.8" font-family="DejaVu Sans" font-size="11.00">termin&#45;components&#45;tween</text>
</g>
<!-- termin&#45;scene&#45;&gt;termin&#45;components&#45;tween -->
<g id="edge93" class="edge">
<title>termin&#45;scene&#45;&gt;termin&#45;components&#45;tween</title>
<path fill="none" stroke="#666666" stroke-width="1.1" d="M577.86,-986.28C582.85,-887.25 611.13,-416.39 702,-309.6 705.97,-304.93 710.62,-300.9 715.7,-297.43"/>
<polygon fill="#666666" stroke="#666666" stroke-width="1.1" points="717.2,-299.38 721.85,-293.6 714.61,-295.22 717.2,-299.38"/>
</g>
<!-- termin&#45;components&#45;voxels -->
<g id="node27" class="node">
<title>termin&#45;components&#45;voxels</title>
<path fill="#f7f7f7" stroke="#444444" d="M868,-361.6C868,-361.6 731,-361.6 731,-361.6 725,-361.6 719,-355.6 719,-349.6 719,-349.6 719,-337.6 719,-337.6 719,-331.6 725,-325.6 731,-325.6 731,-325.6 868,-325.6 868,-325.6 874,-325.6 880,-331.6 880,-337.6 880,-337.6 880,-349.6 880,-349.6 880,-355.6 874,-361.6 868,-361.6"/>
<text text-anchor="middle" x="799.5" y="-340.8" font-family="DejaVu Sans" font-size="11.00">termin&#45;components&#45;voxels</text>
</g>
<!-- termin&#45;scene&#45;&gt;termin&#45;components&#45;voxels -->
<g id="edge94" class="edge">
<title>termin&#45;scene&#45;&gt;termin&#45;components&#45;voxels</title>
<path fill="none" stroke="#666666" stroke-width="1.1" d="M581.34,-986.37C592.54,-939.05 623.09,-808.26 645,-698.6 673.39,-556.51 608.22,-488.06 702,-377.6 705.88,-373.02 710.42,-369.06 715.38,-365.64"/>
<polygon fill="#666666" stroke="#666666" stroke-width="1.1" points="716.76,-367.66 721.37,-361.85 714.14,-363.52 716.76,-367.66"/>
</g>
<!-- termin&#45;scene&#45;&gt;termin&#45;physics&#45;fem -->
<g id="edge97" class="edge">
<title>termin&#45;scene&#45;&gt;termin&#45;physics&#45;fem</title>
<path fill="none" stroke="#666666" stroke-width="1.1" d="M591.85,-986.35C607.72,-965.83 632.3,-930.88 645,-896.6 704.79,-735.22 592.47,-646.34 702,-513.6 710.06,-503.83 721.12,-496.86 732.87,-491.9"/>
<polygon fill="#666666" stroke="#666666" stroke-width="1.1" points="733.82,-494.16 739.46,-489.34 732.05,-489.59 733.82,-494.16"/>
</g>
<!-- termin&#45;render -->
<g id="node35" class="node">
<title>termin&#45;render</title>
<path fill="#f7f7f7" stroke="#444444" d="M609,-1633.6C609,-1633.6 543,-1633.6 543,-1633.6 537,-1633.6 531,-1627.6 531,-1621.6 531,-1621.6 531,-1609.6 531,-1609.6 531,-1603.6 537,-1597.6 543,-1597.6 543,-1597.6 609,-1597.6 609,-1597.6 615,-1597.6 621,-1603.6 621,-1609.6 621,-1609.6 621,-1621.6 621,-1621.6 621,-1627.6 615,-1633.6 609,-1633.6"/>
<text text-anchor="middle" x="576" y="-1612.8" font-family="DejaVu Sans" font-size="11.00">termin&#45;render</text>
</g>
<!-- termin&#45;scene&#45;&gt;termin&#45;render -->
<g id="edge99" class="edge">
<title>termin&#45;scene&#45;&gt;termin&#45;render</title>
<path fill="none" stroke="#666666" stroke-width="1.1" d="M570.71,-1022.74C553.13,-1084.05 496.8,-1289.4 478.5,-1463.6 474.14,-1505.15 457.85,-1521.28 478.5,-1557.6 488.6,-1575.36 506.53,-1588.25 524.28,-1597.3"/>
<polygon fill="#666666" stroke="#666666" stroke-width="1.1" points="523.44,-1599.62 530.8,-1600.47 525.57,-1595.21 523.44,-1599.62"/>
</g>
<!-- termin&#45;glb -->
<g id="node45" class="node">
<title>termin&#45;glb</title>
<path fill="#f7f7f7" stroke="#444444" d="M823,-1369.6C823,-1369.6 776,-1369.6 776,-1369.6 770,-1369.6 764,-1363.6 764,-1357.6 764,-1357.6 764,-1345.6 764,-1345.6 764,-1339.6 770,-1333.6 776,-1333.6 776,-1333.6 823,-1333.6 823,-1333.6 829,-1333.6 835,-1339.6 835,-1345.6 835,-1345.6 835,-1357.6 835,-1357.6 835,-1363.6 829,-1369.6 823,-1369.6"/>
<text text-anchor="middle" x="799.5" y="-1348.8" font-family="DejaVu Sans" font-size="11.00">termin&#45;glb</text>
</g>
<!-- termin&#45;scene&#45;&gt;termin&#45;glb -->
<g id="edge95" class="edge">
<title>termin&#45;scene&#45;&gt;termin&#45;glb</title>
<path fill="none" stroke="#666666" stroke-width="1.1" d="M583.95,-1022.68C600.67,-1064.96 645.89,-1172.67 702,-1251.6 722.66,-1280.66 751.63,-1309.49 772.43,-1328.68"/>
<polygon fill="#666666" stroke="#666666" stroke-width="1.1" points="770.97,-1330.67 777.79,-1333.58 774.28,-1327.05 770.97,-1330.67"/>
</g>
<!-- termin&#45;prefab -->
<g id="node51" class="node">
<title>termin&#45;prefab</title>
<path fill="#f7f7f7" stroke="#444444" d="M832.5,-1235.6C832.5,-1235.6 766.5,-1235.6 766.5,-1235.6 760.5,-1235.6 754.5,-1229.6 754.5,-1223.6 754.5,-1223.6 754.5,-1211.6 754.5,-1211.6 754.5,-1205.6 760.5,-1199.6 766.5,-1199.6 766.5,-1199.6 832.5,-1199.6 832.5,-1199.6 838.5,-1199.6 844.5,-1205.6 844.5,-1211.6 844.5,-1211.6 844.5,-1223.6 844.5,-1223.6 844.5,-1229.6 838.5,-1235.6 832.5,-1235.6"/>
<text text-anchor="middle" x="799.5" y="-1214.8" font-family="DejaVu Sans" font-size="11.00">termin&#45;prefab</text>
</g>
<!-- termin&#45;scene&#45;&gt;termin&#45;prefab -->
<g id="edge98" class="edge">
<title>termin&#45;scene&#45;&gt;termin&#45;prefab</title>
<path fill="none" stroke="#666666" stroke-width="1.1" d="M583.42,-1022.67C598.04,-1061.04 637.58,-1150.79 702,-1195.6 715.21,-1204.79 731.67,-1210.2 747.24,-1213.36"/>
<polygon fill="#666666" stroke="#666666" stroke-width="1.1" points="746.98,-1215.81 754.31,-1214.67 747.87,-1210.99 746.98,-1215.81"/>
</g>
<!-- termin&#45;skeleton&#45;&gt;termin&#45;animation -->
<g id="edge102" class="edge">
<title>termin&#45;skeleton&#45;&gt;termin&#45;animation</title>
<path fill="none" stroke="#666666" stroke-width="1.1" d="M850.16,-1035.59C888.41,-1028.65 941.46,-1019.02 982.25,-1011.62"/>
<polygon fill="#666666" stroke="#666666" stroke-width="1.1" points="982.75,-1014.02 989.2,-1010.36 981.87,-1009.2 982.75,-1014.02"/>
</g>
<!-- termin&#45;components&#45;skeleton -->
<g id="node24" class="node">
<title>termin&#45;components&#45;skeleton</title>
<path fill="#f7f7f7" stroke="#444444" d="M873.5,-701.6C873.5,-701.6 725.5,-701.6 725.5,-701.6 719.5,-701.6 713.5,-695.6 713.5,-689.6 713.5,-689.6 713.5,-677.6 713.5,-677.6 713.5,-671.6 719.5,-665.6 725.5,-665.6 725.5,-665.6 873.5,-665.6 873.5,-665.6 879.5,-665.6 885.5,-671.6 885.5,-677.6 885.5,-677.6 885.5,-689.6 885.5,-689.6 885.5,-695.6 879.5,-701.6 873.5,-701.6"/>
<text text-anchor="middle" x="799.5" y="-680.8" font-family="DejaVu Sans" font-size="11.00">termin&#45;components&#45;skeleton</text>
</g>
<!-- termin&#45;skeleton&#45;&gt;termin&#45;components&#45;skeleton -->
<g id="edge103" class="edge">
<title>termin&#45;skeleton&#45;&gt;termin&#45;components&#45;skeleton</title>
<path fill="none" stroke="#666666" stroke-width="1.1" d="M748.89,-1039.3C720.96,-1033.39 688.9,-1020.9 673.5,-994.6 642.06,-940.9 654.07,-913.71 673.5,-854.6 693.42,-793.99 743.95,-737.21 774.63,-706.76"/>
<polygon fill="#666666" stroke="#666666" stroke-width="1.1" points="776.46,-708.39 779.75,-701.74 773.03,-704.89 776.46,-708.39"/>
</g>
<!-- termin&#45;tween -->
<g id="node15" class="node">
<title>termin&#45;tween</title>
<path fill="#f7f7f7" stroke="#444444" d="M229.5,-890.6C229.5,-890.6 165.5,-890.6 165.5,-890.6 159.5,-890.6 153.5,-884.6 153.5,-878.6 153.5,-878.6 153.5,-866.6 153.5,-866.6 153.5,-860.6 159.5,-854.6 165.5,-854.6 165.5,-854.6 229.5,-854.6 229.5,-854.6 235.5,-854.6 241.5,-860.6 241.5,-866.6 241.5,-866.6 241.5,-878.6 241.5,-878.6 241.5,-884.6 235.5,-890.6 229.5,-890.6"/>
<text text-anchor="middle" x="197.5" y="-869.8" font-family="DejaVu Sans" font-size="11.00">termin&#45;tween</text>
</g>
<!-- termin&#45;tween&#45;&gt;termin&#45;components&#45;tween -->
<g id="edge104" class="edge">
<title>termin&#45;tween&#45;&gt;termin&#45;components&#45;tween</title>
<path fill="none" stroke="#666666" stroke-width="1.1" d="M199.14,-854.58C202.66,-766.7 222.69,-384.25 307,-309.6 365.08,-258.17 587.6,-262.55 712.38,-269.47"/>
<polygon fill="#666666" stroke="#666666" stroke-width="1.1" points="712.59,-271.94 719.72,-269.89 712.87,-267.05 712.59,-271.94"/>
</g>
<!-- termin&#45;voxels -->
<g id="node16" class="node">
<title>termin&#45;voxels</title>
<path fill="#f7f7f7" stroke="#444444" d="M230.5,-1026.6C230.5,-1026.6 164.5,-1026.6 164.5,-1026.6 158.5,-1026.6 152.5,-1020.6 152.5,-1014.6 152.5,-1014.6 152.5,-1002.6 152.5,-1002.6 152.5,-996.6 158.5,-990.6 164.5,-990.6 164.5,-990.6 230.5,-990.6 230.5,-990.6 236.5,-990.6 242.5,-996.6 242.5,-1002.6 242.5,-1002.6 242.5,-1014.6 242.5,-1014.6 242.5,-1020.6 236.5,-1026.6 230.5,-1026.6"/>
<text text-anchor="middle" x="197.5" y="-1005.8" font-family="DejaVu Sans" font-size="11.00">termin&#45;voxels</text>
</g>
<!-- termin&#45;voxels&#45;&gt;termin&#45;components&#45;voxels -->
<g id="edge105" class="edge">
<title>termin&#45;voxels&#45;&gt;termin&#45;components&#45;voxels</title>
<path fill="none" stroke="#666666" stroke-width="1.1" d="M234.7,-990.47C240.62,-986.03 246.09,-980.74 250,-974.6 343.76,-827.15 206.07,-728.24 307,-585.6 403.32,-449.47 598.25,-386.29 711.54,-359.99"/>
<polygon fill="#666666" stroke="#666666" stroke-width="1.1" points="712.27,-362.34 718.54,-358.39 711.17,-357.56 712.27,-362.34"/>
</g>
<!-- termin -->
<g id="node17" class="node">
<title>termin</title>
<path fill="#f7f7f7" stroke="#444444" d="M59,-890.6C59,-890.6 29,-890.6 29,-890.6 23,-890.6 17,-884.6 17,-878.6 17,-878.6 17,-866.6 17,-866.6 17,-860.6 23,-854.6 29,-854.6 29,-854.6 59,-854.6 59,-854.6 65,-854.6 71,-860.6 71,-866.6 71,-866.6 71,-878.6 71,-878.6 71,-884.6 65,-890.6 59,-890.6"/>
<text text-anchor="middle" x="44" y="-869.8" font-family="DejaVu Sans" font-size="11.00">termin</text>
</g>
<!-- termin&#45;&gt;termin&#45;app -->
<g id="edge2" class="edge">
<title>termin&#45;&gt;termin&#45;app</title>
<path fill="none" stroke="#666666" stroke-width="1.1" d="M46.2,-891.05C56.27,-1038.32 132.47,-2017.6 377.5,-2017.6 377.5,-2017.6 377.5,-2017.6 1283.5,-2017.6 1582.87,-2017.6 1650.61,-1502.36 1662.37,-1381.67"/>
<polygon fill="#666666" stroke="#666666" stroke-width="1.1" points="1664.81,-1381.82 1663.03,-1374.62 1659.93,-1381.36 1664.81,-1381.82"/>
</g>
<!-- termin&#45;&gt;termin&#45;navmesh -->
<g id="edge4" class="edge">
<title>termin&#45;&gt;termin&#45;navmesh</title>
<path fill="none" stroke="#666666" stroke-width="1.1" d="M51.02,-890.78C62.89,-924.31 92.09,-996.63 137,-1042.6 141.24,-1046.94 146.16,-1050.9 151.31,-1054.46"/>
<polygon fill="#666666" stroke="#666666" stroke-width="1.1" points="150.24,-1056.69 157.44,-1058.46 152.91,-1052.58 150.24,-1056.69"/>
</g>
<!-- termin&#45;&gt;termin&#45;tween -->
<g id="edge7" class="edge">
<title>termin&#45;&gt;termin&#45;tween</title>
<path fill="none" stroke="#666666" stroke-width="1.1" d="M71.04,-872.6C91.6,-872.6 120.91,-872.6 146.03,-872.6"/>
<polygon fill="#666666" stroke="#666666" stroke-width="1.1" points="146.33,-875.05 153.33,-872.6 146.33,-870.15 146.33,-875.05"/>
</g>
<!-- termin&#45;&gt;termin&#45;voxels -->
<g id="edge8" class="edge">
<title>termin&#45;&gt;termin&#45;voxels</title>
<path fill="none" stroke="#666666" stroke-width="1.1" d="M58.48,-890.79C75.22,-912.53 105.43,-949.17 137,-974.6 142.42,-978.96 148.47,-983.11 154.58,-986.91"/>
<polygon fill="#666666" stroke="#666666" stroke-width="1.1" points="153.43,-989.07 160.69,-990.59 155.95,-984.88 153.43,-989.07"/>
</g>
<!-- termin&#45;&gt;termin&#45;mcp -->
<g id="edge3" class="edge">
<title>termin&#45;&gt;termin&#45;mcp</title>
<path fill="none" stroke="#666666" stroke-width="1.1" d="M44.66,-854.28C43.24,-755.25 41.63,-284.83 137,-185.6 187.17,-133.39 277.48,-132.16 332.01,-137.11"/>
<polygon fill="#666666" stroke="#666666" stroke-width="1.1" points="331.93,-139.57 339.13,-137.82 332.41,-134.69 331.93,-139.57"/>
</g>
<!-- termin&#45;&gt;termin&#45;player -->
<g id="edge5" class="edge">
<title>termin&#45;&gt;termin&#45;player</title>
<path fill="none" stroke="#666666" stroke-width="1.1" d="M44.98,-854.27C45.19,-751.92 50.67,-251.22 137,-129.6 206.03,-32.35 258.24,-10.6 377.5,-10.6 377.5,-10.6 377.5,-10.6 1045,-10.6 1192.71,-10.6 1257.12,32.71 1374,-57.6 1460.91,-124.75 1486.52,-265.21 1493.54,-322.96"/>
<polygon fill="#666666" stroke="#666666" stroke-width="1.1" points="1491.14,-323.55 1494.38,-330.23 1496.01,-322.99 1491.14,-323.55"/>
</g>
<!-- termin&#45;shader&#45;runtime -->
<g id="node54" class="node">
<title>termin&#45;shader&#45;runtime</title>
<path fill="#f7f7f7" stroke="#444444" d="M633,-227.6C633,-227.6 519,-227.6 519,-227.6 513,-227.6 507,-221.6 507,-215.6 507,-215.6 507,-203.6 507,-203.6 507,-197.6 513,-191.6 519,-191.6 519,-191.6 633,-191.6 633,-191.6 639,-191.6 645,-197.6 645,-203.6 645,-203.6 645,-215.6 645,-215.6 645,-221.6 639,-227.6 633,-227.6"/>
<text text-anchor="middle" x="576" y="-206.8" font-family="DejaVu Sans" font-size="11.00">termin&#45;shader&#45;runtime</text>
</g>
<!-- termin&#45;&gt;termin&#45;shader&#45;runtime -->
<g id="edge6" class="edge">
<title>termin&#45;&gt;termin&#45;shader&#45;runtime</title>
<path fill="none" stroke="#666666" stroke-width="1.1" d="M46.76,-854.51C55.87,-771.51 105.31,-424.26 307,-261.6 361.15,-217.92 441.31,-207.24 499.85,-206.07"/>
<polygon fill="#666666" stroke="#666666" stroke-width="1.1" points="499.92,-208.52 506.88,-205.97 499.85,-203.62 499.92,-208.52"/>
</g>
<!-- termin&#45;components&#45;animation&#45;&gt;termin&#45;bootstrap -->
<g id="edge29" class="edge">
<title>termin&#45;components&#45;animation&#45;&gt;termin&#45;bootstrap</title>
<path fill="none" stroke="#666666" stroke-width="1.1" d="M1062.04,-574.77C1080.97,-595.51 1111.8,-630.92 1134,-664.6 1168.68,-717.21 1152.58,-747.98 1199,-790.6 1205.73,-796.78 1213.74,-801.91 1222.07,-806.16"/>
<polygon fill="#666666" stroke="#666666" stroke-width="1.1" points="1221.13,-808.42 1228.5,-809.23 1223.24,-804 1221.13,-808.42"/>
</g>
<!-- termin&#45;components&#45;collision&#45;&gt;termin&#45;components&#45;physics -->
<g id="edge31" class="edge">
<title>termin&#45;components&#45;collision&#45;&gt;termin&#45;components&#45;physics</title>
<path fill="none" stroke="#666666" stroke-width="1.1" d="M1093.17,-506.61C1106.44,-511.68 1120.81,-517.26 1134,-522.6 1167.46,-536.13 1204.85,-552.11 1233.61,-564.59"/>
<polygon fill="#666666" stroke="#666666" stroke-width="1.1" points="1232.96,-566.97 1240.35,-567.52 1234.91,-562.48 1232.96,-566.97"/>
</g>
<!-- termin&#45;components&#45;collision&#45;&gt;termin&#45;bootstrap -->
<g id="edge30" class="edge">
<title>termin&#45;components&#45;collision&#45;&gt;termin&#45;bootstrap</title>
<path fill="none" stroke="#666666" stroke-width="1.1" d="M1113.65,-506.66C1121.27,-510.91 1128.32,-516.14 1134,-522.6 1214.99,-614.59 1119.21,-697.56 1199,-790.6 1205.25,-797.88 1213.31,-803.63 1221.93,-808.17"/>
<polygon fill="#666666" stroke="#666666" stroke-width="1.1" points="1220.92,-810.4 1228.29,-811.26 1223.06,-805.99 1220.92,-810.4"/>
</g>
<!-- termin&#45;render&#45;passes -->
<g id="node52" class="node">
<title>termin&#45;render&#45;passes</title>
<path fill="#f7f7f7" stroke="#444444" d="M1336.5,-774.6C1336.5,-774.6 1228.5,-774.6 1228.5,-774.6 1222.5,-774.6 1216.5,-768.6 1216.5,-762.6 1216.5,-762.6 1216.5,-750.6 1216.5,-750.6 1216.5,-744.6 1222.5,-738.6 1228.5,-738.6 1228.5,-738.6 1336.5,-738.6 1336.5,-738.6 1342.5,-738.6 1348.5,-744.6 1348.5,-750.6 1348.5,-750.6 1348.5,-762.6 1348.5,-762.6 1348.5,-768.6 1342.5,-774.6 1336.5,-774.6"/>
<text text-anchor="middle" x="1282.5" y="-753.8" font-family="DejaVu Sans" font-size="11.00">termin&#45;render&#45;passes</text>
</g>
<!-- termin&#45;components&#45;collision&#45;&gt;termin&#45;render&#45;passes -->
<g id="edge32" class="edge">
<title>termin&#45;components&#45;collision&#45;&gt;termin&#45;render&#45;passes</title>
<path fill="none" stroke="#666666" stroke-width="1.1" d="M1112.84,-506.75C1120.69,-510.98 1128.01,-516.19 1134,-522.6 1201.3,-594.59 1128.04,-666.21 1199,-734.6 1202.29,-737.77 1205.99,-740.5 1209.94,-742.84"/>
<polygon fill="#666666" stroke="#666666" stroke-width="1.1" points="1209.02,-745.12 1216.35,-746.22 1211.3,-740.79 1209.02,-745.12"/>
</g>
<!-- termin&#45;components&#45;kinematic&#45;&gt;termin&#45;csharp -->
<g id="edge34" class="edge">
<title>termin&#45;components&#45;kinematic&#45;&gt;termin&#45;csharp</title>
<path fill="none" stroke="#666666" stroke-width="1.1" d="M862.15,-633.68C871.67,-638.01 880.99,-643.27 889,-649.6 929.14,-681.32 916.04,-710.3 954,-744.6 1021.59,-805.66 1077.28,-771.32 1134,-842.6 1200.94,-926.72 1115.72,-1007.61 1199,-1075.6 1235.32,-1105.25 1369.29,-1103.42 1444.29,-1099.84"/>
<polygon fill="#666666" stroke="#666666" stroke-width="1.1" points="1444.49,-1102.28 1451.36,-1099.49 1444.24,-1097.39 1444.49,-1102.28"/>
</g>
<!-- termin&#45;components&#45;kinematic&#45;&gt;termin&#45;bootstrap -->
<g id="edge33" class="edge">
<title>termin&#45;components&#45;kinematic&#45;&gt;termin&#45;bootstrap</title>
<path fill="none" stroke="#666666" stroke-width="1.1" d="M848.94,-633.6C862.01,-638.62 876.1,-644.19 889,-649.6 1028.6,-708.1 1060.12,-730.42 1199,-790.6 1209.03,-794.94 1219.79,-799.47 1230.13,-803.76"/>
<polygon fill="#666666" stroke="#666666" stroke-width="1.1" points="1229.44,-806.13 1236.85,-806.54 1231.31,-801.6 1229.44,-806.13"/>
</g>
<!-- termin&#45;components&#45;kinematic&#45;&gt;termin&#45;player -->
<g id="edge35" class="edge">
<title>termin&#45;components&#45;kinematic&#45;&gt;termin&#45;player</title>
<path fill="none" stroke="#666666" stroke-width="1.1" d="M864.69,-597.5C873.48,-593.22 881.9,-587.98 889,-581.6 936.15,-539.21 903.35,-492.74 954,-454.6 1031.55,-396.2 1325.57,-363.86 1445.06,-352.9"/>
<polygon fill="#666666" stroke="#666666" stroke-width="1.1" points="1445.58,-355.31 1452.33,-352.24 1445.14,-350.43 1445.58,-355.31"/>
</g>
<!-- termin&#45;components&#45;mesh&#45;&gt;termin&#45;navmesh -->
<g id="edge38" class="edge">
<title>termin&#45;components&#45;mesh&#45;&gt;termin&#45;navmesh</title>
<path fill="none" stroke="#666666" stroke-width="1.1" d="M723.54,-429.75C715.57,-433.98 708.14,-439.18 702,-445.6 641.89,-508.34 702.75,-567.68 645,-632.6 536.01,-755.13 410.9,-653.72 307,-780.6 231.5,-872.8 317.36,-944.29 250,-1042.6 247.13,-1046.79 243.55,-1050.6 239.63,-1054.01"/>
<polygon fill="#666666" stroke="#666666" stroke-width="1.1" points="238.04,-1052.15 234.1,-1058.44 241.1,-1055.98 238.04,-1052.15"/>
</g>
<!-- termin&#45;components&#45;mesh&#45;&gt;termin&#45;components&#45;collision -->
<g id="edge36" class="edge">
<title>termin&#45;components&#45;mesh&#45;&gt;termin&#45;components&#45;collision</title>
<path fill="none" stroke="#666666" stroke-width="1.1" d="M857.36,-429.65C893.86,-441.24 941.34,-456.32 979.14,-468.32"/>
<polygon fill="#666666" stroke="#666666" stroke-width="1.1" points="978.67,-470.74 986.08,-470.52 980.15,-466.07 978.67,-470.74"/>
</g>
<!-- termin&#45;components&#45;render -->
<g id="node31" class="node">
<title>termin&#45;components&#45;render</title>
<path fill="#f7f7f7" stroke="#444444" d="M1113,-1565.6C1113,-1565.6 975,-1565.6 975,-1565.6 969,-1565.6 963,-1559.6 963,-1553.6 963,-1553.6 963,-1541.6 963,-1541.6 963,-1535.6 969,-1529.6 975,-1529.6 975,-1529.6 1113,-1529.6 1113,-1529.6 1119,-1529.6 1125,-1535.6 1125,-1541.6 1125,-1541.6 1125,-1553.6 1125,-1553.6 1125,-1559.6 1119,-1565.6 1113,-1565.6"/>
<text text-anchor="middle" x="1044" y="-1544.8" font-family="DejaVu Sans" font-size="11.00">termin&#45;components&#45;render</text>
</g>
<!-- termin&#45;components&#45;mesh&#45;&gt;termin&#45;components&#45;render -->
<g id="edge37" class="edge">
<title>termin&#45;components&#45;mesh&#45;&gt;termin&#45;components&#45;render</title>
<path fill="none" stroke="#666666" stroke-width="1.1" d="M871,-429.7C877.92,-433.93 884.15,-439.15 889,-445.6 990.11,-579.99 925.85,-1033.79 954,-1199.6 974.87,-1322.53 1017.43,-1465.72 1035.07,-1522.53"/>
<polygon fill="#666666" stroke="#666666" stroke-width="1.1" points="1032.77,-1523.39 1037.19,-1529.34 1037.45,-1521.93 1032.77,-1523.39"/>
</g>
<!-- termin&#45;components&#45;physics&#45;&gt;termin&#45;default&#45;assets -->
<g id="edge39" class="edge">
<title>termin&#45;components&#45;physics&#45;&gt;termin&#45;default&#45;assets</title>
<path fill="none" stroke="#666666" stroke-width="1.1" d="M1306.24,-603.9C1345.38,-635.4 1425.38,-699.77 1467.92,-734"/>
<polygon fill="#666666" stroke="#666666" stroke-width="1.1" points="1466.43,-735.95 1473.42,-738.43 1469.5,-732.13 1466.43,-735.95"/>
</g>
<!-- termin&#45;components&#45;physics&#45;&gt;termin&#45;player -->
<g id="edge40" class="edge">
<title>termin&#45;components&#45;physics&#45;&gt;termin&#45;player</title>
<path fill="none" stroke="#666666" stroke-width="1.1" d="M1299.82,-567.39C1337.83,-525 1432.24,-419.71 1474.71,-372.34"/>
<polygon fill="#666666" stroke="#666666" stroke-width="1.1" points="1476.77,-373.71 1479.62,-366.86 1473.13,-370.44 1476.77,-373.71"/>
</g>
<!-- termin&#45;components&#45;skeleton&#45;&gt;termin&#45;components&#45;animation -->
<g id="edge44" class="edge">
<title>termin&#45;components&#45;skeleton&#45;&gt;termin&#45;components&#45;animation</title>
<path fill="none" stroke="#666666" stroke-width="1.1" d="M852.17,-665.51C864.42,-660.74 877.32,-655.31 889,-649.6 932.53,-628.3 979.86,-598.66 1010.4,-578.61"/>
<polygon fill="#666666" stroke="#666666" stroke-width="1.1" points="1011.78,-580.63 1016.28,-574.73 1009.09,-576.54 1011.78,-580.63"/>
</g>
<!-- termin&#45;components&#45;skeleton&#45;&gt;termin&#45;components&#45;render -->
<g id="edge45" class="edge">
<title>termin&#45;components&#45;skeleton&#45;&gt;termin&#45;components&#45;render</title>
<path fill="none" stroke="#666666" stroke-width="1.1" d="M813.58,-701.68C833.14,-729.61 869.74,-785.59 889,-838.6 944.67,-991.82 919.34,-1040.3 954,-1199.6 980.58,-1321.73 1020.09,-1465.93 1036,-1522.79"/>
<polygon fill="#666666" stroke="#666666" stroke-width="1.1" points="1033.66,-1523.51 1037.9,-1529.59 1038.37,-1522.19 1033.66,-1523.51"/>
</g>
<!-- termin&#45;components&#45;tween&#45;&gt;termin&#45;player -->
<g id="edge46" class="edge">
<title>termin&#45;components&#45;tween&#45;&gt;termin&#45;player</title>
<path fill="none" stroke="#666666" stroke-width="1.1" d="M879.27,-283.86C1023.14,-298.97 1324.66,-330.61 1444.91,-343.23"/>
<polygon fill="#666666" stroke="#666666" stroke-width="1.1" points="1445,-345.71 1452.22,-344 1445.51,-340.83 1445,-345.71"/>
</g>
<!-- termin&#45;components&#45;ui&#45;&gt;termin&#45;render&#45;passes -->
<g id="edge47" class="edge">
<title>termin&#45;components&#45;ui&#45;&gt;termin&#45;render&#45;passes</title>
<path fill="none" stroke="#666666" stroke-width="1.1" d="M859.2,-565.69C941.76,-591.69 1087.29,-639.79 1134,-669.6 1168.44,-691.58 1163.61,-714.19 1199,-734.6 1202.37,-736.54 1205.92,-738.32 1209.57,-739.94"/>
<polygon fill="#666666" stroke="#666666" stroke-width="1.1" points="1208.84,-742.29 1216.24,-742.7 1210.71,-737.76 1208.84,-742.29"/>
</g>
<!-- termin&#45;components&#45;voxels&#45;&gt;termin&#45;navmesh -->
<g id="edge48" class="edge">
<title>termin&#45;components&#45;voxels&#45;&gt;termin&#45;navmesh</title>
<path fill="none" stroke="#666666" stroke-width="1.1" d="M736.19,-361.61C724.47,-366.08 712.58,-371.41 702,-377.6 672.91,-394.62 670.8,-405.92 645,-427.6 608.09,-458.61 331.32,-657.98 307,-699.6 229.02,-833.01 334.17,-913 250,-1042.6 247.33,-1046.7 243.98,-1050.42 240.27,-1053.77"/>
<polygon fill="#666666" stroke="#666666" stroke-width="1.1" points="238.47,-1052.07 234.61,-1058.4 241.58,-1055.86 238.47,-1052.07"/>
</g>
<!-- termin&#45;assets&#45;&gt;termin&#45;skeleton -->
<g id="edge16" class="edge">
<title>termin&#45;assets&#45;&gt;termin&#45;skeleton</title>
<path fill="none" stroke="#666666" stroke-width="1.1" d="M419.02,-1275.42C429.22,-1270.49 440.11,-1265.01 450,-1259.6 568.75,-1194.56 703.7,-1107.29 765.02,-1066.87"/>
<polygon fill="#666666" stroke="#666666" stroke-width="1.1" points="766.58,-1068.77 771.07,-1062.87 763.88,-1064.68 766.58,-1068.77"/>
</g>
<!-- termin&#45;assets&#45;&gt;termin&#45;components&#45;voxels -->
<g id="edge13" class="edge">
<title>termin&#45;assets&#45;&gt;termin&#45;components&#45;voxels</title>
<path fill="none" stroke="#666666" stroke-width="1.1" d="M423.86,-1280.32C433.87,-1275.34 443.45,-1268.61 450,-1259.6 560.94,-1106.8 440.06,-1015.15 507,-838.6 546.07,-735.55 601.57,-733.88 645,-632.6 690.77,-525.87 624.9,-464.45 702,-377.6 706.07,-373.01 710.79,-369.05 715.92,-365.62"/>
<polygon fill="#666666" stroke="#666666" stroke-width="1.1" points="717.42,-367.57 722.12,-361.83 714.87,-363.39 717.42,-367.57"/>
</g>
<!-- termin&#45;components&#45;foliage -->
<g id="node43" class="node">
<title>termin&#45;components&#45;foliage</title>
<path fill="#f7f7f7" stroke="#444444" d="M868.5,-1467.6C868.5,-1467.6 730.5,-1467.6 730.5,-1467.6 724.5,-1467.6 718.5,-1461.6 718.5,-1455.6 718.5,-1455.6 718.5,-1443.6 718.5,-1443.6 718.5,-1437.6 724.5,-1431.6 730.5,-1431.6 730.5,-1431.6 868.5,-1431.6 868.5,-1431.6 874.5,-1431.6 880.5,-1437.6 880.5,-1443.6 880.5,-1443.6 880.5,-1455.6 880.5,-1455.6 880.5,-1461.6 874.5,-1467.6 868.5,-1467.6"/>
<text text-anchor="middle" x="799.5" y="-1446.8" font-family="DejaVu Sans" font-size="11.00">termin&#45;components&#45;foliage</text>
</g>
<!-- termin&#45;assets&#45;&gt;termin&#45;components&#45;foliage -->
<g id="edge12" class="edge">
<title>termin&#45;assets&#45;&gt;termin&#45;components&#45;foliage</title>
<path fill="none" stroke="#666666" stroke-width="1.1" d="M422.39,-1311.65C447.04,-1321.88 478.64,-1334.76 507,-1345.6 586.74,-1376.07 679.78,-1408.77 738.9,-1429.2"/>
<polygon fill="#666666" stroke="#666666" stroke-width="1.1" points="738.16,-1431.54 745.58,-1431.51 739.76,-1426.91 738.16,-1431.54"/>
</g>
<!-- termin&#45;assets&#45;&gt;termin&#45;glb -->
<g id="edge14" class="edge">
<title>termin&#45;assets&#45;&gt;termin&#45;glb</title>
<path fill="none" stroke="#666666" stroke-width="1.1" d="M423.55,-1299.69C504.82,-1310.95 677.31,-1334.82 756.8,-1345.82"/>
<polygon fill="#666666" stroke="#666666" stroke-width="1.1" points="756.47,-1348.25 763.74,-1346.78 757.14,-1343.4 756.47,-1348.25"/>
</g>
<!-- termin&#45;assets&#45;&gt;termin&#45;prefab -->
<g id="edge15" class="edge">
<title>termin&#45;assets&#45;&gt;termin&#45;prefab</title>
<path fill="none" stroke="#666666" stroke-width="1.1" d="M423.55,-1285.61C501.74,-1271.42 664.36,-1241.93 747.36,-1226.87"/>
<polygon fill="#666666" stroke="#666666" stroke-width="1.1" points="747.96,-1229.25 754.41,-1225.59 747.09,-1224.43 747.96,-1229.25"/>
</g>
<!-- termin&#45;nanobind&#45;sdk -->
<g id="node30" class="node">
<title>termin&#45;nanobind&#45;sdk</title>
<path fill="#f7f7f7" stroke="#444444" d="M430,-1243.6C430,-1243.6 327,-1243.6 327,-1243.6 321,-1243.6 315,-1237.6 315,-1231.6 315,-1231.6 315,-1219.6 315,-1219.6 315,-1213.6 321,-1207.6 327,-1207.6 327,-1207.6 430,-1207.6 430,-1207.6 436,-1207.6 442,-1213.6 442,-1219.6 442,-1219.6 442,-1231.6 442,-1231.6 442,-1237.6 436,-1243.6 430,-1243.6"/>
<text text-anchor="middle" x="378.5" y="-1222.8" font-family="DejaVu Sans" font-size="11.00">termin&#45;nanobind&#45;sdk</text>
</g>
<!-- termin&#45;nanobind&#45;sdk&#45;&gt;termin&#45;base -->
<g id="edge74" class="edge">
<title>termin&#45;nanobind&#45;sdk&#45;&gt;termin&#45;base</title>
<path fill="none" stroke="#666666" stroke-width="1.1" d="M315.8,-1207.39C312.59,-1205.09 309.62,-1202.51 307,-1199.6 237.99,-1122.92 309.75,-1058.69 250,-974.6 247.01,-970.39 243.33,-966.57 239.32,-963.13"/>
<polygon fill="#666666" stroke="#666666" stroke-width="1.1" points="240.69,-961.09 233.68,-958.68 237.65,-964.94 240.69,-961.09"/>
</g>
<!-- termin&#45;components&#45;render&#45;&gt;termin&#45;bootstrap -->
<g id="edge41" class="edge">
<title>termin&#45;components&#45;render&#45;&gt;termin&#45;bootstrap</title>
<path fill="none" stroke="#666666" stroke-width="1.1" d="M1049.71,-1529.5C1063.09,-1477.98 1102.44,-1326.05 1134,-1199.6 1163.58,-1081.1 1146.36,-1042.81 1199,-932.6 1214.31,-900.54 1240.14,-868.84 1258.83,-848.16"/>
<polygon fill="#666666" stroke="#666666" stroke-width="1.1" points="1260.74,-849.71 1263.65,-842.89 1257.12,-846.4 1260.74,-849.71"/>
</g>
<!-- termin&#45;components&#45;render&#45;&gt;termin&#45;render&#45;passes -->
<g id="edge42" class="edge">
<title>termin&#45;components&#45;render&#45;&gt;termin&#45;render&#45;passes</title>
<path fill="none" stroke="#666666" stroke-width="1.1" d="M1050.33,-1529.25C1065.19,-1477.69 1107.66,-1326.92 1134,-1199.6 1171.29,-1019.35 1084.88,-935.01 1199,-790.6 1202.58,-786.07 1206.86,-782.14 1211.57,-778.73"/>
<polygon fill="#666666" stroke="#666666" stroke-width="1.1" points="1213.24,-780.56 1217.75,-774.68 1210.55,-776.47 1213.24,-780.56"/>
</g>
<!-- termin&#45;runtime -->
<g id="node53" class="node">
<title>termin&#45;runtime</title>
<path fill="#f7f7f7" stroke="#444444" d="M1533.5,-1376.6C1533.5,-1376.6 1460.5,-1376.6 1460.5,-1376.6 1454.5,-1376.6 1448.5,-1370.6 1448.5,-1364.6 1448.5,-1364.6 1448.5,-1352.6 1448.5,-1352.6 1448.5,-1346.6 1454.5,-1340.6 1460.5,-1340.6 1460.5,-1340.6 1533.5,-1340.6 1533.5,-1340.6 1539.5,-1340.6 1545.5,-1346.6 1545.5,-1352.6 1545.5,-1352.6 1545.5,-1364.6 1545.5,-1364.6 1545.5,-1370.6 1539.5,-1376.6 1533.5,-1376.6"/>
<text text-anchor="middle" x="1497" y="-1355.8" font-family="DejaVu Sans" font-size="11.00">termin&#45;runtime</text>
</g>
<!-- termin&#45;components&#45;render&#45;&gt;termin&#45;runtime -->
<g id="edge43" class="edge">
<title>termin&#45;components&#45;render&#45;&gt;termin&#45;runtime</title>
<path fill="none" stroke="#666666" stroke-width="1.1" d="M1088.24,-1529.48C1172.34,-1494.23 1357.46,-1416.65 1446.39,-1379.39"/>
<polygon fill="#666666" stroke="#666666" stroke-width="1.1" points="1447.38,-1381.63 1452.89,-1376.66 1445.48,-1377.11 1447.38,-1381.63"/>
</g>
<!-- termin&#45;display&#45;&gt;termin&#45;components&#45;render -->
<g id="edge50" class="edge">
<title>termin&#45;display&#45;&gt;termin&#45;components&#45;render</title>
<path fill="none" stroke="#666666" stroke-width="1.1" d="M846.11,-1575.2C876.85,-1570.89 918.4,-1565.07 955.4,-1559.88"/>
<polygon fill="#666666" stroke="#666666" stroke-width="1.1" points="956.14,-1562.25 962.73,-1558.85 955.46,-1557.4 956.14,-1562.25"/>
</g>
<!-- termin&#45;display&#45;&gt;termin&#45;engine -->
<g id="edge51" class="edge">
<title>termin&#45;display&#45;&gt;termin&#45;engine</title>
<path fill="none" stroke="#666666" stroke-width="1.1" d="M846.19,-1597.45C916.06,-1618.53 1050.15,-1646.13 1134,-1581.6 1221.4,-1514.33 1267.67,-1149.69 1278.82,-1049.87"/>
<polygon fill="#666666" stroke="#666666" stroke-width="1.1" points="1281.29,-1049.85 1279.62,-1042.62 1276.42,-1049.31 1281.29,-1049.85"/>
</g>
<!-- termin&#45;graphics&#45;&gt;termin&#45;voxels -->
<g id="edge62" class="edge">
<title>termin&#45;graphics&#45;&gt;termin&#45;voxels</title>
<path fill="none" stroke="#666666" stroke-width="1.1" d="M370.02,-1529.52C355.94,-1494.92 325.3,-1416.74 307,-1348.6 271.13,-1214.99 326.47,-1157.88 250,-1042.6 247.19,-1038.36 243.65,-1034.53 239.76,-1031.09"/>
<polygon fill="#666666" stroke="#666666" stroke-width="1.1" points="241.24,-1029.14 234.25,-1026.66 238.16,-1032.96 241.24,-1029.14"/>
</g>
<!-- termin&#45;graphics&#45;&gt;termin&#45;render -->
<g id="edge60" class="edge">
<title>termin&#45;graphics&#45;&gt;termin&#45;render</title>
<path fill="none" stroke="#666666" stroke-width="1.1" d="M429.09,-1564.84C458.1,-1574.93 494.65,-1587.65 523.91,-1597.83"/>
<polygon fill="#666666" stroke="#666666" stroke-width="1.1" points="523.39,-1600.24 530.8,-1600.22 525,-1595.61 523.39,-1600.24"/>
</g>
<!-- termin&#45;gui -->
<g id="node38" class="node">
<title>termin&#45;gui</title>
<path fill="#f7f7f7" stroke="#444444" d="M599.5,-1772.6C599.5,-1772.6 552.5,-1772.6 552.5,-1772.6 546.5,-1772.6 540.5,-1766.6 540.5,-1760.6 540.5,-1760.6 540.5,-1748.6 540.5,-1748.6 540.5,-1742.6 546.5,-1736.6 552.5,-1736.6 552.5,-1736.6 599.5,-1736.6 599.5,-1736.6 605.5,-1736.6 611.5,-1742.6 611.5,-1748.6 611.5,-1748.6 611.5,-1760.6 611.5,-1760.6 611.5,-1766.6 605.5,-1772.6 599.5,-1772.6"/>
<text text-anchor="middle" x="576" y="-1751.8" font-family="DejaVu Sans" font-size="11.00">termin&#45;gui</text>
</g>
<!-- termin&#45;graphics&#45;&gt;termin&#45;gui -->
<g id="edge58" class="edge">
<title>termin&#45;graphics&#45;&gt;termin&#45;gui</title>
<path fill="none" stroke="#666666" stroke-width="1.1" d="M426.53,-1565.76C434.87,-1570.2 443.09,-1575.47 450,-1581.6 485.15,-1612.76 479.51,-1632.51 507,-1670.6 522.19,-1691.65 540.82,-1714.48 554.74,-1731.02"/>
<polygon fill="#666666" stroke="#666666" stroke-width="1.1" points="552.88,-1732.61 559.27,-1736.38 556.62,-1729.45 552.88,-1732.61"/>
</g>
<!-- termin&#45;graphics&#45;&gt;termin&#45;glb -->
<g id="edge57" class="edge">
<title>termin&#45;graphics&#45;&gt;termin&#45;glb</title>
<path fill="none" stroke="#666666" stroke-width="1.1" d="M429.02,-1554.15C485.99,-1559.05 580.03,-1558.75 645,-1515.6 687.61,-1487.29 667.07,-1452.97 702,-1415.6 717.91,-1398.58 739.19,-1383.85 757.72,-1372.83"/>
<polygon fill="#666666" stroke="#666666" stroke-width="1.1" points="759.07,-1374.87 763.89,-1369.23 756.61,-1370.64 759.07,-1374.87"/>
</g>
<!-- termin&#45;materials -->
<g id="node46" class="node">
<title>termin&#45;materials</title>
<path fill="#f7f7f7" stroke="#444444" d="M617,-1499.6C617,-1499.6 535,-1499.6 535,-1499.6 529,-1499.6 523,-1493.6 523,-1487.6 523,-1487.6 523,-1475.6 523,-1475.6 523,-1469.6 529,-1463.6 535,-1463.6 535,-1463.6 617,-1463.6 617,-1463.6 623,-1463.6 629,-1469.6 629,-1475.6 629,-1475.6 629,-1487.6 629,-1487.6 629,-1493.6 623,-1499.6 617,-1499.6"/>
<text text-anchor="middle" x="576" y="-1478.8" font-family="DejaVu Sans" font-size="11.00">termin&#45;materials</text>
</g>
<!-- termin&#45;graphics&#45;&gt;termin&#45;materials -->
<g id="edge59" class="edge">
<title>termin&#45;graphics&#45;&gt;termin&#45;materials</title>
<path fill="none" stroke="#666666" stroke-width="1.1" d="M429.09,-1530.86C455.47,-1521.95 488.1,-1510.94 515.8,-1501.58"/>
<polygon fill="#666666" stroke="#666666" stroke-width="1.1" points="516.88,-1503.8 522.73,-1499.24 515.32,-1499.16 516.88,-1503.8"/>
</g>
<!-- termin&#45;graphics&#45;&gt;termin&#45;shader&#45;runtime -->
<g id="edge61" class="edge">
<title>termin&#45;graphics&#45;&gt;termin&#45;shader&#45;runtime</title>
<path fill="none" stroke="#666666" stroke-width="1.1" d="M387.57,-1529.37C402.5,-1494.84 434.31,-1417.2 450,-1348.6 453.23,-1334.47 554.17,-402.12 572.24,-235.08"/>
<polygon fill="#666666" stroke="#666666" stroke-width="1.1" points="574.72,-234.93 573.04,-227.71 569.85,-234.4 574.72,-234.93"/>
</g>
<!-- termin&#45;lighting&#45;&gt;termin&#45;render -->
<g id="edge70" class="edge">
<title>termin&#45;lighting&#45;&gt;termin&#45;render</title>
<path fill="none" stroke="#666666" stroke-width="1.1" d="M426.33,-1615.6C455.71,-1615.6 493.62,-1615.6 523.8,-1615.6"/>
<polygon fill="#666666" stroke="#666666" stroke-width="1.1" points="523.9,-1618.05 530.9,-1615.6 523.9,-1613.15 523.9,-1618.05"/>
</g>
<!-- termin&#45;render&#45;&gt;termin&#45;navmesh -->
<g id="edge84" class="edge">
<title>termin&#45;render&#45;&gt;termin&#45;navmesh</title>
<path fill="none" stroke="#666666" stroke-width="1.1" d="M542.64,-1633.78C486.96,-1662.35 372.72,-1708.73 307,-1649.6 217.47,-1569.03 312.58,-1213.51 250,-1110.6 247.46,-1106.41 244.18,-1102.64 240.52,-1099.27"/>
<polygon fill="#666666" stroke="#666666" stroke-width="1.1" points="241.85,-1097.19 234.91,-1094.6 238.72,-1100.96 241.85,-1097.19"/>
</g>
<!-- termin&#45;render&#45;&gt;termin&#45;display -->
<g id="edge83" class="edge">
<title>termin&#45;render&#45;&gt;termin&#45;display</title>
<path fill="none" stroke="#666666" stroke-width="1.1" d="M621.03,-1608.84C656.9,-1603.33 707.65,-1595.54 745.7,-1589.7"/>
<polygon fill="#666666" stroke="#666666" stroke-width="1.1" points="746.11,-1592.12 752.65,-1588.63 745.36,-1587.28 746.11,-1592.12"/>
</g>
<!-- termin&#45;render&#45;&gt;termin&#45;components&#45;foliage -->
<g id="edge82" class="edge">
<title>termin&#45;render&#45;&gt;termin&#45;components&#45;foliage</title>
<path fill="none" stroke="#666666" stroke-width="1.1" d="M609.98,-1597.56C621.5,-1590.67 634.23,-1582.35 645,-1573.6 673.55,-1550.41 673.83,-1537.25 702,-1513.6 720.4,-1498.15 742.65,-1483.18 761.14,-1471.61"/>
<polygon fill="#666666" stroke="#666666" stroke-width="1.1" points="762.6,-1473.59 767.26,-1467.82 760.02,-1469.42 762.6,-1473.59"/>
</g>
<!-- termin&#45;engine&#45;&gt;termin&#45;csharp -->
<g id="edge53" class="edge">
<title>termin&#45;engine&#45;&gt;termin&#45;csharp</title>
<path fill="none" stroke="#666666" stroke-width="1.1" d="M1328.05,-1039.69C1361.93,-1051.17 1408.63,-1067 1444.19,-1079.04"/>
<polygon fill="#666666" stroke="#666666" stroke-width="1.1" points="1443.73,-1081.47 1451.15,-1081.4 1445.3,-1076.83 1443.73,-1081.47"/>
</g>
<!-- termin&#45;android -->
<g id="node40" class="node">
<title>termin&#45;android</title>
<path fill="#f7f7f7" stroke="#444444" d="M1533,-976.6C1533,-976.6 1461,-976.6 1461,-976.6 1455,-976.6 1449,-970.6 1449,-964.6 1449,-964.6 1449,-952.6 1449,-952.6 1449,-946.6 1455,-940.6 1461,-940.6 1461,-940.6 1533,-940.6 1533,-940.6 1539,-940.6 1545,-946.6 1545,-952.6 1545,-952.6 1545,-964.6 1545,-964.6 1545,-970.6 1539,-976.6 1533,-976.6"/>
<text text-anchor="middle" x="1497" y="-955.8" font-family="DejaVu Sans" font-size="11.00">termin&#45;android</text>
</g>
<!-- termin&#45;engine&#45;&gt;termin&#45;android -->
<g id="edge52" class="edge">
<title>termin&#45;engine&#45;&gt;termin&#45;android</title>
<path fill="none" stroke="#666666" stroke-width="1.1" d="M1328.05,-1010.76C1361.25,-1000.45 1406.75,-986.32 1442.02,-975.36"/>
<polygon fill="#666666" stroke="#666666" stroke-width="1.1" points="1442.97,-977.63 1448.93,-973.22 1441.52,-972.95 1442.97,-977.63"/>
</g>
<!-- termin&#45;openxr -->
<g id="node48" class="node">
<title>termin&#45;openxr</title>
<path fill="#f7f7f7" stroke="#444444" d="M1531.5,-1044.6C1531.5,-1044.6 1462.5,-1044.6 1462.5,-1044.6 1456.5,-1044.6 1450.5,-1038.6 1450.5,-1032.6 1450.5,-1032.6 1450.5,-1020.6 1450.5,-1020.6 1450.5,-1014.6 1456.5,-1008.6 1462.5,-1008.6 1462.5,-1008.6 1531.5,-1008.6 1531.5,-1008.6 1537.5,-1008.6 1543.5,-1014.6 1543.5,-1020.6 1543.5,-1020.6 1543.5,-1032.6 1543.5,-1032.6 1543.5,-1038.6 1537.5,-1044.6 1531.5,-1044.6"/>
<text text-anchor="middle" x="1497" y="-1023.8" font-family="DejaVu Sans" font-size="11.00">termin&#45;openxr</text>
</g>
<!-- termin&#45;engine&#45;&gt;termin&#45;openxr -->
<g id="edge54" class="edge">
<title>termin&#45;engine&#45;&gt;termin&#45;openxr</title>
<path fill="none" stroke="#666666" stroke-width="1.1" d="M1328.05,-1025.02C1361.57,-1025.33 1407.62,-1025.77 1443.03,-1026.1"/>
<polygon fill="#666666" stroke="#666666" stroke-width="1.1" points="1443.39,-1028.55 1450.41,-1026.17 1443.44,-1023.65 1443.39,-1028.55"/>
</g>
<!-- termin&#45;engine&#45;&gt;termin&#45;player -->
<g id="edge55" class="edge">
<title>termin&#45;engine&#45;&gt;termin&#45;player</title>
<path fill="none" stroke="#666666" stroke-width="1.1" d="M1295.49,-1006.45C1314.65,-976.73 1352.21,-915.28 1374,-858.6 1442.84,-679.5 1481.02,-449.62 1492.37,-373.97"/>
<polygon fill="#666666" stroke="#666666" stroke-width="1.1" points="1494.84,-374.01 1493.44,-366.73 1489.99,-373.29 1494.84,-374.01"/>
</g>
<!-- termin&#45;engine&#45;&gt;termin&#45;runtime -->
<g id="edge56" class="edge">
<title>termin&#45;engine&#45;&gt;termin&#45;runtime</title>
<path fill="none" stroke="#666666" stroke-width="1.1" d="M1295.23,-1043.03C1331.15,-1099.49 1439.67,-1270.06 1480.36,-1334.02"/>
<polygon fill="#666666" stroke="#666666" stroke-width="1.1" points="1478.48,-1335.63 1484.31,-1340.22 1482.62,-1333 1478.48,-1335.63"/>
</g>
<!-- tcplot -->
<g id="node37" class="node">
<title>tcplot</title>
<path fill="#f7f7f7" stroke="#444444" d="M814.5,-1772.6C814.5,-1772.6 784.5,-1772.6 784.5,-1772.6 778.5,-1772.6 772.5,-1766.6 772.5,-1760.6 772.5,-1760.6 772.5,-1748.6 772.5,-1748.6 772.5,-1742.6 778.5,-1736.6 784.5,-1736.6 784.5,-1736.6 814.5,-1736.6 814.5,-1736.6 820.5,-1736.6 826.5,-1742.6 826.5,-1748.6 826.5,-1748.6 826.5,-1760.6 826.5,-1760.6 826.5,-1766.6 820.5,-1772.6 814.5,-1772.6"/>
<text text-anchor="middle" x="799.5" y="-1751.8" font-family="DejaVu Sans" font-size="11.00">tcplot</text>
</g>
<!-- tcplot&#45;&gt;termin&#45;csharp -->
<g id="edge1" class="edge">
<title>tcplot&#45;&gt;termin&#45;csharp</title>
<path fill="none" stroke="#666666" stroke-width="1.1" d="M826.61,-1754.39C886.66,-1752.65 1036.85,-1741.05 1134,-1670.6 1341.31,-1520.26 1457.55,-1211.4 1487.92,-1121.6"/>
<polygon fill="#666666" stroke="#666666" stroke-width="1.1" points="1490.3,-1122.21 1490.2,-1114.79 1485.65,-1120.65 1490.3,-1122.21"/>
</g>
<!-- termin&#45;gui&#45;&gt;termin&#45;csg -->
<g id="edge65" class="edge">
<title>termin&#45;gui&#45;&gt;termin&#45;csg</title>
<path fill="none" stroke="#666666" stroke-width="1.1" d="M540.28,-1770.81C484.17,-1794.32 373.18,-1829.34 307,-1773.6 212.64,-1694.12 200.34,-1277.08 198.74,-1169.79"/>
<polygon fill="#666666" stroke="#666666" stroke-width="1.1" points="201.19,-1169.57 198.64,-1162.6 196.29,-1169.64 201.19,-1169.57"/>
</g>
<!-- termin&#45;gui&#45;&gt;termin&#45;components&#45;ui -->
<g id="edge64" class="edge">
<title>termin&#45;gui&#45;&gt;termin&#45;components&#45;ui</title>
<path fill="none" stroke="#666666" stroke-width="1.1" d="M597.46,-1736.52C613.59,-1720.87 634.98,-1696.7 645,-1670.6 688.41,-1557.47 629.43,-678.63 702,-581.6 708.14,-573.39 716.41,-567.16 725.54,-562.42"/>
<polygon fill="#666666" stroke="#666666" stroke-width="1.1" points="726.7,-564.58 731.99,-559.38 724.61,-560.15 726.7,-564.58"/>
</g>
<!-- termin&#45;gui&#45;&gt;tcplot -->
<g id="edge63" class="edge">
<title>termin&#45;gui&#45;&gt;tcplot</title>
<path fill="none" stroke="#666666" stroke-width="1.1" d="M611.61,-1754.6C653.62,-1754.6 723.96,-1754.6 765.32,-1754.6"/>
<polygon fill="#666666" stroke="#666666" stroke-width="1.1" points="765.44,-1757.05 772.44,-1754.6 765.44,-1752.15 765.44,-1757.05"/>
</g>
<!-- termin&#45;nodegraph -->
<g id="node39" class="node">
<title>termin&#45;nodegraph</title>
<path fill="#f7f7f7" stroke="#444444" d="M844,-1840.6C844,-1840.6 755,-1840.6 755,-1840.6 749,-1840.6 743,-1834.6 743,-1828.6 743,-1828.6 743,-1816.6 743,-1816.6 743,-1810.6 749,-1804.6 755,-1804.6 755,-1804.6 844,-1804.6 844,-1804.6 850,-1804.6 856,-1810.6 856,-1816.6 856,-1816.6 856,-1828.6 856,-1828.6 856,-1834.6 850,-1840.6 844,-1840.6"/>
<text text-anchor="middle" x="799.5" y="-1819.8" font-family="DejaVu Sans" font-size="11.00">termin&#45;nodegraph</text>
</g>
<!-- termin&#45;gui&#45;&gt;termin&#45;nodegraph -->
<g id="edge66" class="edge">
<title>termin&#45;gui&#45;&gt;termin&#45;nodegraph</title>
<path fill="none" stroke="#666666" stroke-width="1.1" d="M611.61,-1765.22C644.74,-1775.39 695.47,-1790.97 735.73,-1803.33"/>
<polygon fill="#666666" stroke="#666666" stroke-width="1.1" points="735.2,-1805.73 742.61,-1805.44 736.63,-1801.04 735.2,-1805.73"/>
</g>
<!-- termin&#45;nodegraph&#45;&gt;termin&#45;app -->
<g id="edge78" class="edge">
<title>termin&#45;nodegraph&#45;&gt;termin&#45;app</title>
<path fill="none" stroke="#666666" stroke-width="1.1" d="M856.26,-1813.09C924.2,-1800.16 1041.38,-1773.47 1134,-1729.6 1346.71,-1628.84 1565.79,-1443.9 1638.98,-1379.46"/>
<polygon fill="#666666" stroke="#666666" stroke-width="1.1" points="1640.78,-1381.15 1644.4,-1374.68 1637.53,-1377.47 1640.78,-1381.15"/>
</g>
<!-- termin&#45;mcp&#45;&gt;termin&#45;player -->
<g id="edge71" class="edge">
<title>termin&#45;mcp&#45;&gt;termin&#45;player</title>
<path fill="none" stroke="#666666" stroke-width="1.1" d="M417.59,-133.35C490.8,-114.58 656.51,-76.6 798.5,-76.6 798.5,-76.6 798.5,-76.6 1045,-76.6 1192.35,-76.6 1252.75,-33.86 1374,-117.6 1446.41,-167.61 1479.14,-274.52 1490.74,-323.34"/>
<polygon fill="#666666" stroke="#666666" stroke-width="1.1" points="1488.41,-324.11 1492.37,-330.38 1493.18,-323.01 1488.41,-324.11"/>
</g>
<!-- termin&#45;player&#45;&gt;termin&#45;app -->
<g id="edge80" class="edge">
<title>termin&#45;player&#45;&gt;termin&#45;app</title>
<path fill="none" stroke="#666666" stroke-width="1.1" d="M1501.27,-366.87C1510.93,-421.09 1540.16,-585.76 1563,-722.6 1602.5,-959.24 1647.33,-1246.11 1660.6,-1331.48"/>
<polygon fill="#666666" stroke="#666666" stroke-width="1.1" points="1658.19,-1331.89 1661.68,-1338.43 1663.03,-1331.13 1658.19,-1331.89"/>
</g>
<!-- termin&#45;render&#45;passes&#45;&gt;termin&#45;csharp -->
<g id="edge86" class="edge">
<title>termin&#45;render&#45;passes&#45;&gt;termin&#45;csharp</title>
<path fill="none" stroke="#666666" stroke-width="1.1" d="M1348.51,-771.76C1358.13,-776.44 1367.11,-782.58 1374,-790.6 1453.92,-883.63 1358.1,-961.97 1431,-1060.6 1434.94,-1065.93 1439.92,-1070.57 1445.36,-1074.59"/>
<polygon fill="#666666" stroke="#666666" stroke-width="1.1" points="1444.25,-1076.8 1451.42,-1078.7 1447.01,-1072.74 1444.25,-1076.8"/>
</g>
<!-- termin&#45;render&#45;passes&#45;&gt;termin&#45;android -->
<g id="edge85" class="edge">
<title>termin&#45;render&#45;passes&#45;&gt;termin&#45;android</title>
<path fill="none" stroke="#666666" stroke-width="1.1" d="M1346.39,-774.72C1356.15,-779.04 1365.72,-784.29 1374,-790.6 1425.96,-830.18 1465.49,-897.91 1484.15,-934.1"/>
<polygon fill="#666666" stroke="#666666" stroke-width="1.1" points="1482.04,-935.35 1487.39,-940.48 1486.41,-933.13 1482.04,-935.35"/>
</g>
<!-- termin&#45;render&#45;passes&#45;&gt;termin&#45;default&#45;assets -->
<g id="edge87" class="edge">
<title>termin&#45;render&#45;passes&#45;&gt;termin&#45;default&#45;assets</title>
<path fill="none" stroke="#666666" stroke-width="1.1" d="M1348.7,-756.6C1372.46,-756.6 1399.46,-756.6 1423.8,-756.6"/>
<polygon fill="#666666" stroke="#666666" stroke-width="1.1" points="1423.92,-759.05 1430.92,-756.6 1423.92,-754.15 1423.92,-759.05"/>
</g>
<!-- termin&#45;render&#45;passes&#45;&gt;termin&#45;openxr -->
<g id="edge88" class="edge">
<title>termin&#45;render&#45;passes&#45;&gt;termin&#45;openxr</title>
<path fill="none" stroke="#666666" stroke-width="1.1" d="M1348.52,-772.38C1358.02,-776.99 1366.96,-782.94 1374,-790.6 1437.12,-859.28 1372.2,-920.18 1431,-992.6 1434.81,-997.29 1439.44,-1001.41 1444.45,-1005.01"/>
<polygon fill="#666666" stroke="#666666" stroke-width="1.1" points="1443.3,-1007.18 1450.49,-1009 1446,-1003.09 1443.3,-1007.18"/>
</g>
<!-- termin&#45;render&#45;passes&#45;&gt;termin&#45;player -->
<g id="edge89" class="edge">
<title>termin&#45;render&#45;passes&#45;&gt;termin&#45;player</title>
<path fill="none" stroke="#666666" stroke-width="1.1" d="M1348.95,-749.31C1358.17,-745.95 1366.91,-741.22 1374,-734.6 1480.77,-634.82 1494.58,-442.49 1496,-373.77"/>
<polygon fill="#666666" stroke="#666666" stroke-width="1.1" points="1498.45,-373.8 1496.11,-366.76 1493.55,-373.72 1498.45,-373.8"/>
</g>
<!-- termin&#45;shader&#45;runtime&#45;&gt;termin&#45;player -->
<g id="edge101" class="edge">
<title>termin&#45;shader&#45;runtime&#45;&gt;termin&#45;player</title>
<path fill="none" stroke="#666666" stroke-width="1.1" d="M645.2,-197.62C786.96,-175.82 1121.3,-140.65 1374,-241.6 1417.54,-258.99 1456.03,-298.99 1477.63,-324.85"/>
<polygon fill="#666666" stroke="#666666" stroke-width="1.1" points="1475.9,-326.6 1482.24,-330.46 1479.69,-323.49 1475.9,-326.6"/>
</g>
</g>
</svg>
