<?xml version="1.0" encoding="UTF-8" standalone="no"?>
<!DOCTYPE svg PUBLIC "-//W3C//DTD SVG 1.1//EN"
 "http://www.w3.org/Graphics/SVG/1.1/DTD/svg11.dtd">
<!-- Generated by graphviz version 2.42.4 (0)
 -->
<!-- Title: termin_dependencies Pages: 1 -->
<svg width="1894pt" height="1532pt"
 viewBox="0.00 0.00 1893.80 1531.80" xmlns="http://www.w3.org/2000/svg" xmlns:xlink="http://www.w3.org/1999/xlink">
<g id="graph0" class="graph" transform="scale(1 1) rotate(0) translate(14.4 1517.4)">
<title>termin_dependencies</title>
<polygon fill="white" stroke="transparent" points="-14.4,14.4 -14.4,-1517.4 1879.4,-1517.4 1879.4,14.4 -14.4,14.4"/>
<g id="clust1" class="cluster">
<title>cluster_application</title>
<polygon fill="white" stroke="#999999" stroke-dasharray="5,2" points="1599,-597 1599,-670 1690,-670 1690,-597 1599,-597"/>
<text text-anchor="middle" x="1644.5" y="-656.4" font-family="DejaVu Sans" font-size="12.00">Application</text>
</g>
<g id="clust2" class="cluster">
<title>cluster_foundation</title>
<polygon fill="white" stroke="#999999" stroke-dasharray="5,2" points="137,-865 137,-1142 1027,-1142 1027,-865 137,-865"/>
<text text-anchor="middle" x="582" y="-1128.4" font-family="DejaVu Sans" font-size="12.00">Foundation</text>
</g>
<g id="clust3" class="cluster">
<title>cluster_namespace</title>
<polygon fill="white" stroke="#999999" stroke-dasharray="5,2" points="0,-769 0,-842 88,-842 88,-769 0,-769"/>
<text text-anchor="middle" x="44" y="-828.4" font-family="DejaVu Sans" font-size="12.00">Namespace</text>
</g>
<g id="clust4" class="cluster">
<title>cluster_native_interop</title>
<polygon fill="white" stroke="#999999" stroke-dasharray="5,2" points="1750,-498 1750,-571 1857,-571 1857,-498 1750,-498"/>
<text text-anchor="middle" x="1803.5" y="-557.4" font-family="DejaVu Sans" font-size="12.00">Native Interop</text>
</g>
<g id="clust5" class="cluster">
<title>cluster_other_components</title>
<polygon fill="white" stroke="#999999" stroke-dasharray="5,2" points="867,-1150 867,-1495 1539,-1495 1539,-1150 867,-1150"/>
<text text-anchor="middle" x="1203" y="-1481.4" font-family="DejaVu Sans" font-size="12.00">Other Components</text>
</g>
<g id="clust6" class="cluster">
<title>cluster_python_support</title>
<polygon fill="white" stroke="#999999" stroke-dasharray="5,2" points="307,-604 307,-745 450,-745 450,-604 307,-604"/>
<text text-anchor="middle" x="378.5" y="-731.4" font-family="DejaVu Sans" font-size="12.00">Python Support</text>
</g>
<g id="clust7" class="cluster">
<title>cluster_render_stack</title>
<polygon fill="white" stroke="#999999" stroke-dasharray="5,2" points="514.5,-279 514.5,-420 1298,-420 1298,-279 514.5,-279"/>
<text text-anchor="middle" x="906.25" y="-406.4" font-family="DejaVu Sans" font-size="12.00">Render Stack</text>
</g>
<g id="clust8" class="cluster">
<title>cluster_runtime</title>
<polygon fill="white" stroke="#999999" stroke-dasharray="5,2" points="1394,-261 1394,-334 1501,-334 1501,-261 1394,-261"/>
<text text-anchor="middle" x="1447.5" y="-320.4" font-family="DejaVu Sans" font-size="12.00">Runtime</text>
</g>
<g id="clust10" class="cluster">
<title>cluster_ui</title>
<polygon fill="white" stroke="#999999" stroke-dasharray="5,2" points="713.5,-8 713.5,-149 1029,-149 1029,-8 713.5,-8"/>
<text text-anchor="middle" x="871.25" y="-135.4" font-family="DejaVu Sans" font-size="12.00">UI</text>
</g>
<!-- termin&#45;app -->
<g id="node1" class="node">
<title>termin&#45;app</title>
<path fill="#f7f7f7" stroke="#444444" d="M1670,-641C1670,-641 1619,-641 1619,-641 1613,-641 1607,-635 1607,-629 1607,-629 1607,-617 1607,-617 1607,-611 1613,-605 1619,-605 1619,-605 1670,-605 1670,-605 1676,-605 1682,-611 1682,-617 1682,-617 1682,-629 1682,-629 1682,-635 1676,-641 1670,-641"/>
<text text-anchor="middle" x="1644.5" y="-620.2" font-family="DejaVu Sans" font-size="11.00">termin&#45;app</text>
</g>
<!-- termin&#45;csharp -->
<g id="node17" class="node">
<title>termin&#45;csharp</title>
<path fill="#f7f7f7" stroke="#444444" d="M1837,-542C1837,-542 1770,-542 1770,-542 1764,-542 1758,-536 1758,-530 1758,-530 1758,-518 1758,-518 1758,-512 1764,-506 1770,-506 1770,-506 1837,-506 1837,-506 1843,-506 1849,-512 1849,-518 1849,-518 1849,-530 1849,-530 1849,-536 1843,-542 1837,-542"/>
<text text-anchor="middle" x="1803.5" y="-521.2" font-family="DejaVu Sans" font-size="11.00">termin&#45;csharp</text>
</g>
<!-- termin&#45;app&#45;&gt;termin&#45;csharp -->
<g id="edge7" class="edge">
<title>termin&#45;app&#45;&gt;termin&#45;csharp</title>
<path fill="none" stroke="#666666" stroke-width="1.1" d="M1674.3,-604.84C1700.63,-588.24 1739.65,-563.63 1767.72,-545.93"/>
<polygon fill="#666666" stroke="#666666" stroke-width="1.1" points="1769.27,-547.85 1773.89,-542.04 1766.66,-543.7 1769.27,-547.85"/>
</g>
<!-- termin&#45;animation -->
<g id="node2" class="node">
<title>termin&#45;animation</title>
<path fill="#f7f7f7" stroke="#444444" d="M1007,-994C1007,-994 922,-994 922,-994 916,-994 910,-988 910,-982 910,-982 910,-970 910,-970 910,-964 916,-958 922,-958 922,-958 1007,-958 1007,-958 1013,-958 1019,-964 1019,-970 1019,-970 1019,-982 1019,-982 1019,-988 1013,-994 1007,-994"/>
<text text-anchor="middle" x="964.5" y="-973.2" font-family="DejaVu Sans" font-size="11.00">termin&#45;animation</text>
</g>
<!-- termin&#45;components&#45;animation -->
<g id="node18" class="node">
<title>termin&#45;components&#45;animation</title>
<path fill="#f7f7f7" stroke="#444444" d="M1287,-1227C1287,-1227 1131,-1227 1131,-1227 1125,-1227 1119,-1221 1119,-1215 1119,-1215 1119,-1203 1119,-1203 1119,-1197 1125,-1191 1131,-1191 1131,-1191 1287,-1191 1287,-1191 1293,-1191 1299,-1197 1299,-1203 1299,-1203 1299,-1215 1299,-1215 1299,-1221 1293,-1227 1287,-1227"/>
<text text-anchor="middle" x="1209" y="-1206.2" font-family="DejaVu Sans" font-size="11.00">termin&#45;components&#45;animation</text>
</g>
<!-- termin&#45;animation&#45;&gt;termin&#45;components&#45;animation -->
<g id="edge6" class="edge">
<title>termin&#45;animation&#45;&gt;termin&#45;components&#45;animation</title>
<path fill="none" stroke="#666666" stroke-width="1.1" d="M984.53,-994.28C1028.18,-1036.22 1135.45,-1139.3 1183.75,-1185.7"/>
<polygon fill="#666666" stroke="#666666" stroke-width="1.1" points="1182.31,-1187.72 1189.06,-1190.8 1185.71,-1184.19 1182.31,-1187.72"/>
</g>
<!-- termin&#45;base -->
<g id="node3" class="node">
<title>termin&#45;base</title>
<path fill="#f7f7f7" stroke="#444444" d="M226,-977C226,-977 169,-977 169,-977 163,-977 157,-971 157,-965 157,-965 157,-953 157,-953 157,-947 163,-941 169,-941 169,-941 226,-941 226,-941 232,-941 238,-947 238,-953 238,-953 238,-965 238,-965 238,-971 232,-977 226,-977"/>
<text text-anchor="middle" x="197.5" y="-956.2" font-family="DejaVu Sans" font-size="11.00">termin&#45;base</text>
</g>
<!-- termin&#45;inspect -->
<g id="node7" class="node">
<title>termin&#45;inspect</title>
<path fill="#f7f7f7" stroke="#444444" d="M413.5,-1061C413.5,-1061 343.5,-1061 343.5,-1061 337.5,-1061 331.5,-1055 331.5,-1049 331.5,-1049 331.5,-1037 331.5,-1037 331.5,-1031 337.5,-1025 343.5,-1025 343.5,-1025 413.5,-1025 413.5,-1025 419.5,-1025 425.5,-1031 425.5,-1037 425.5,-1037 425.5,-1049 425.5,-1049 425.5,-1055 419.5,-1061 413.5,-1061"/>
<text text-anchor="middle" x="378.5" y="-1040.2" font-family="DejaVu Sans" font-size="11.00">termin&#45;inspect</text>
</g>
<!-- termin&#45;base&#45;&gt;termin&#45;inspect -->
<g id="edge14" class="edge">
<title>termin&#45;base&#45;&gt;termin&#45;inspect</title>
<path fill="none" stroke="#666666" stroke-width="1.1" d="M236.9,-977.02C264.88,-990.15 302.89,-1007.99 332.33,-1021.8"/>
<polygon fill="#666666" stroke="#666666" stroke-width="1.1" points="331.48,-1024.11 338.86,-1024.86 333.56,-1019.67 331.48,-1024.11"/>
</g>
<!-- termin&#45;mesh -->
<g id="node8" class="node">
<title>termin&#45;mesh</title>
<path fill="#f7f7f7" stroke="#444444" d="M408.5,-993C408.5,-993 348.5,-993 348.5,-993 342.5,-993 336.5,-987 336.5,-981 336.5,-981 336.5,-969 336.5,-969 336.5,-963 342.5,-957 348.5,-957 348.5,-957 408.5,-957 408.5,-957 414.5,-957 420.5,-963 420.5,-969 420.5,-969 420.5,-981 420.5,-981 420.5,-987 414.5,-993 408.5,-993"/>
<text text-anchor="middle" x="378.5" y="-972.2" font-family="DejaVu Sans" font-size="11.00">termin&#45;mesh</text>
</g>
<!-- termin&#45;base&#45;&gt;termin&#45;mesh -->
<g id="edge16" class="edge">
<title>termin&#45;base&#45;&gt;termin&#45;mesh</title>
<path fill="none" stroke="#666666" stroke-width="1.1" d="M238.23,-962.55C265.1,-964.95 300.75,-968.14 329.25,-970.69"/>
<polygon fill="#666666" stroke="#666666" stroke-width="1.1" points="329.14,-973.14 336.33,-971.32 329.58,-968.26 329.14,-973.14"/>
</g>
<!-- termin&#45;modules -->
<g id="node9" class="node">
<title>termin&#45;modules</title>
<path fill="#f7f7f7" stroke="#444444" d="M417,-925C417,-925 340,-925 340,-925 334,-925 328,-919 328,-913 328,-913 328,-901 328,-901 328,-895 334,-889 340,-889 340,-889 417,-889 417,-889 423,-889 429,-895 429,-901 429,-901 429,-913 429,-913 429,-919 423,-925 417,-925"/>
<text text-anchor="middle" x="378.5" y="-904.2" font-family="DejaVu Sans" font-size="11.00">termin&#45;modules</text>
</g>
<!-- termin&#45;base&#45;&gt;termin&#45;modules -->
<g id="edge17" class="edge">
<title>termin&#45;base&#45;&gt;termin&#45;modules</title>
<path fill="none" stroke="#666666" stroke-width="1.1" d="M238.23,-947.46C262.63,-940.37 294.27,-931.18 321.22,-923.35"/>
<polygon fill="#666666" stroke="#666666" stroke-width="1.1" points="321.93,-925.69 327.97,-921.39 320.56,-920.99 321.93,-925.69"/>
</g>
<!-- termin&#45;assets -->
<g id="node26" class="node">
<title>termin&#45;assets</title>
<path fill="#f7f7f7" stroke="#444444" d="M411.5,-648C411.5,-648 345.5,-648 345.5,-648 339.5,-648 333.5,-642 333.5,-636 333.5,-636 333.5,-624 333.5,-624 333.5,-618 339.5,-612 345.5,-612 345.5,-612 411.5,-612 411.5,-612 417.5,-612 423.5,-618 423.5,-624 423.5,-624 423.5,-636 423.5,-636 423.5,-642 417.5,-648 411.5,-648"/>
<text text-anchor="middle" x="378.5" y="-627.2" font-family="DejaVu Sans" font-size="11.00">termin&#45;assets</text>
</g>
<!-- termin&#45;base&#45;&gt;termin&#45;assets -->
<g id="edge13" class="edge">
<title>termin&#45;base&#45;&gt;termin&#45;assets</title>
<path fill="none" stroke="#666666" stroke-width="1.1" d="M234.1,-940.84C240.15,-936.38 245.82,-931.1 250,-925 317.16,-827.08 233.43,-757.2 307,-664 312.33,-657.25 319.33,-651.76 326.85,-647.32"/>
<polygon fill="#666666" stroke="#666666" stroke-width="1.1" points="328.29,-649.33 333.27,-643.83 325.95,-645.02 328.29,-649.33"/>
</g>
<!-- termin&#45;lighting -->
<g id="node31" class="node">
<title>termin&#45;lighting</title>
<path fill="#f7f7f7" stroke="#444444" d="M608.5,-323C608.5,-323 537.5,-323 537.5,-323 531.5,-323 525.5,-317 525.5,-311 525.5,-311 525.5,-299 525.5,-299 525.5,-293 531.5,-287 537.5,-287 537.5,-287 608.5,-287 608.5,-287 614.5,-287 620.5,-293 620.5,-299 620.5,-299 620.5,-311 620.5,-311 620.5,-317 614.5,-323 608.5,-323"/>
<text text-anchor="middle" x="573" y="-302.2" font-family="DejaVu Sans" font-size="11.00">termin&#45;lighting</text>
</g>
<!-- termin&#45;base&#45;&gt;termin&#45;lighting -->
<g id="edge15" class="edge">
<title>termin&#45;base&#45;&gt;termin&#45;lighting</title>
<path fill="none" stroke="#666666" stroke-width="1.1" d="M234.31,-940.98C240.35,-936.51 245.95,-931.19 250,-925 331.25,-800.82 237.98,-727.37 307,-596 348.37,-517.26 397.98,-528.15 450,-456 483.83,-409.08 466.69,-380.48 507,-339 511.43,-334.44 516.61,-330.36 522.07,-326.76"/>
<polygon fill="#666666" stroke="#666666" stroke-width="1.1" points="523.43,-328.8 528.09,-323.03 520.85,-324.63 523.43,-328.8"/>
</g>
<!-- termin&#45;pga -->
<g id="node43" class="node">
<title>termin&#45;pga</title>
<path fill="#f7f7f7" stroke="#444444" d="M404,-789C404,-789 353,-789 353,-789 347,-789 341,-783 341,-777 341,-777 341,-765 341,-765 341,-759 347,-753 353,-753 353,-753 404,-753 404,-753 410,-753 416,-759 416,-765 416,-765 416,-777 416,-777 416,-783 410,-789 404,-789"/>
<text text-anchor="middle" x="378.5" y="-768.2" font-family="DejaVu Sans" font-size="11.00">termin&#45;pga</text>
</g>
<!-- termin&#45;base&#45;&gt;termin&#45;pga -->
<g id="edge18" class="edge">
<title>termin&#45;base&#45;&gt;termin&#45;pga</title>
<path fill="none" stroke="#666666" stroke-width="1.1" d="M231.69,-940.95C238.3,-936.35 244.8,-930.98 250,-925 288.73,-880.43 265.37,-846.87 307,-805 314.7,-797.25 324.52,-791.02 334.36,-786.11"/>
<polygon fill="#666666" stroke="#666666" stroke-width="1.1" points="335.52,-788.27 340.81,-783.07 333.44,-783.84 335.52,-788.27"/>
</g>
<!-- termin&#45;qopt -->
<g id="node44" class="node">
<title>termin&#45;qopt</title>
<path fill="#f7f7f7" stroke="#444444" d="M406,-857C406,-857 351,-857 351,-857 345,-857 339,-851 339,-845 339,-845 339,-833 339,-833 339,-827 345,-821 351,-821 351,-821 406,-821 406,-821 412,-821 418,-827 418,-833 418,-833 418,-845 418,-845 418,-851 412,-857 406,-857"/>
<text text-anchor="middle" x="378.5" y="-836.2" font-family="DejaVu Sans" font-size="11.00">termin&#45;qopt</text>
</g>
<!-- termin&#45;base&#45;&gt;termin&#45;qopt -->
<g id="edge19" class="edge">
<title>termin&#45;base&#45;&gt;termin&#45;qopt</title>
<path fill="none" stroke="#666666" stroke-width="1.1" d="M228.87,-940.84C236.06,-936.03 243.52,-930.61 250,-925 278.8,-900.07 274.99,-881.65 307,-861 314.64,-856.07 323.46,-852.18 332.22,-849.14"/>
<polygon fill="#666666" stroke="#666666" stroke-width="1.1" points="332.98,-851.47 338.88,-846.98 331.47,-846.81 332.98,-851.47"/>
</g>
<!-- termin&#45;collision -->
<g id="node4" class="node">
<title>termin&#45;collision</title>
<path fill="#f7f7f7" stroke="#444444" d="M794.5,-909C794.5,-909 719.5,-909 719.5,-909 713.5,-909 707.5,-903 707.5,-897 707.5,-897 707.5,-885 707.5,-885 707.5,-879 713.5,-873 719.5,-873 719.5,-873 794.5,-873 794.5,-873 800.5,-873 806.5,-879 806.5,-885 806.5,-885 806.5,-897 806.5,-897 806.5,-903 800.5,-909 794.5,-909"/>
<text text-anchor="middle" x="757" y="-888.2" font-family="DejaVu Sans" font-size="11.00">termin&#45;collision</text>
</g>
<!-- termin&#45;physics -->
<g id="node11" class="node">
<title>termin&#45;physics</title>
<path fill="#f7f7f7" stroke="#444444" d="M1000.5,-926C1000.5,-926 928.5,-926 928.5,-926 922.5,-926 916.5,-920 916.5,-914 916.5,-914 916.5,-902 916.5,-902 916.5,-896 922.5,-890 928.5,-890 928.5,-890 1000.5,-890 1000.5,-890 1006.5,-890 1012.5,-896 1012.5,-902 1012.5,-902 1012.5,-914 1012.5,-914 1012.5,-920 1006.5,-926 1000.5,-926"/>
<text text-anchor="middle" x="964.5" y="-905.2" font-family="DejaVu Sans" font-size="11.00">termin&#45;physics</text>
</g>
<!-- termin&#45;collision&#45;&gt;termin&#45;physics -->
<g id="edge23" class="edge">
<title>termin&#45;collision&#45;&gt;termin&#45;physics</title>
<path fill="none" stroke="#666666" stroke-width="1.1" d="M806.7,-895.03C837.49,-897.58 877.32,-900.87 909.14,-903.5"/>
<polygon fill="#666666" stroke="#666666" stroke-width="1.1" points="909.03,-905.95 916.21,-904.09 909.44,-901.07 909.03,-905.95"/>
</g>
<!-- termin&#45;components&#45;collision -->
<g id="node19" class="node">
<title>termin&#45;components&#45;collision</title>
<path fill="#f7f7f7" stroke="#444444" d="M1282,-1295C1282,-1295 1136,-1295 1136,-1295 1130,-1295 1124,-1289 1124,-1283 1124,-1283 1124,-1271 1124,-1271 1124,-1265 1130,-1259 1136,-1259 1136,-1259 1282,-1259 1282,-1259 1288,-1259 1294,-1265 1294,-1271 1294,-1271 1294,-1283 1294,-1283 1294,-1289 1288,-1295 1282,-1295"/>
<text text-anchor="middle" x="1209" y="-1274.2" font-family="DejaVu Sans" font-size="11.00">termin&#45;components&#45;collision</text>
</g>
<!-- termin&#45;collision&#45;&gt;termin&#45;components&#45;collision -->
<g id="edge21" class="edge">
<title>termin&#45;collision&#45;&gt;termin&#45;components&#45;collision</title>
<path fill="none" stroke="#666666" stroke-width="1.1" d="M790.05,-909.06C797.04,-913.76 804.09,-919.16 810,-925 842.35,-956.98 835.22,-977.45 867,-1010 938.07,-1082.79 983.62,-1068.54 1054,-1142 1090.93,-1180.55 1077.56,-1209.35 1119,-1243 1125,-1247.87 1131.77,-1252.09 1138.83,-1255.75"/>
<polygon fill="#666666" stroke="#666666" stroke-width="1.1" points="1138.02,-1258.08 1145.39,-1258.94 1140.17,-1253.67 1138.02,-1258.08"/>
</g>
<!-- termin&#45;android -->
<g id="node37" class="node">
<title>termin&#45;android</title>
<path fill="#f7f7f7" stroke="#444444" d="M1680.5,-255C1680.5,-255 1608.5,-255 1608.5,-255 1602.5,-255 1596.5,-249 1596.5,-243 1596.5,-243 1596.5,-231 1596.5,-231 1596.5,-225 1602.5,-219 1608.5,-219 1608.5,-219 1680.5,-219 1680.5,-219 1686.5,-219 1692.5,-225 1692.5,-231 1692.5,-231 1692.5,-243 1692.5,-243 1692.5,-249 1686.5,-255 1680.5,-255"/>
<text text-anchor="middle" x="1644.5" y="-234.2" font-family="DejaVu Sans" font-size="11.00">termin&#45;android</text>
</g>
<!-- termin&#45;collision&#45;&gt;termin&#45;android -->
<g id="edge20" class="edge">
<title>termin&#45;collision&#45;&gt;termin&#45;android</title>
<path fill="none" stroke="#666666" stroke-width="1.1" d="M759.93,-872.92C770.52,-775.4 822.61,-315 867,-271 936.12,-202.49 1203.4,-217.25 1299,-199 1328.03,-193.46 1334.61,-188.13 1364,-185 1441.34,-176.77 1463.29,-167.2 1539,-185 1564.1,-190.9 1590.06,-203.78 1609.83,-215.24"/>
<polygon fill="#666666" stroke="#666666" stroke-width="1.1" points="1608.75,-217.45 1616.02,-218.91 1611.24,-213.23 1608.75,-217.45"/>
</g>
<!-- termin&#45;openxr -->
<g id="node42" class="node">
<title>termin&#45;openxr</title>
<path fill="#f7f7f7" stroke="#444444" d="M1679,-187C1679,-187 1610,-187 1610,-187 1604,-187 1598,-181 1598,-175 1598,-175 1598,-163 1598,-163 1598,-157 1604,-151 1610,-151 1610,-151 1679,-151 1679,-151 1685,-151 1691,-157 1691,-163 1691,-163 1691,-175 1691,-175 1691,-181 1685,-187 1679,-187"/>
<text text-anchor="middle" x="1644.5" y="-166.2" font-family="DejaVu Sans" font-size="11.00">termin&#45;openxr</text>
</g>
<!-- termin&#45;collision&#45;&gt;termin&#45;openxr -->
<g id="edge22" class="edge">
<title>termin&#45;collision&#45;&gt;termin&#45;openxr</title>
<path fill="none" stroke="#666666" stroke-width="1.1" d="M759.59,-872.81C768.79,-769.23 816.63,-256.94 867,-210 921.74,-158.98 1464.18,-164.93 1539,-166 1555.91,-166.24 1574.36,-166.71 1590.98,-167.2"/>
<polygon fill="#666666" stroke="#666666" stroke-width="1.1" points="1590.91,-169.65 1597.98,-167.41 1591.06,-164.75 1590.91,-169.65"/>
</g>
<!-- termin&#45;csg -->
<g id="node5" class="node">
<title>termin&#45;csg</title>
<path fill="#f7f7f7" stroke="#444444" d="M222,-909C222,-909 173,-909 173,-909 167,-909 161,-903 161,-897 161,-897 161,-885 161,-885 161,-879 167,-873 173,-873 173,-873 222,-873 222,-873 228,-873 234,-879 234,-885 234,-885 234,-897 234,-897 234,-903 228,-909 222,-909"/>
<text text-anchor="middle" x="197.5" y="-888.2" font-family="DejaVu Sans" font-size="11.00">termin&#45;csg</text>
</g>
<!-- termin&#45;components&#45;mesh -->
<g id="node21" class="node">
<title>termin&#45;components&#45;mesh</title>
<path fill="#f7f7f7" stroke="#444444" d="M1030.5,-1330C1030.5,-1330 898.5,-1330 898.5,-1330 892.5,-1330 886.5,-1324 886.5,-1318 886.5,-1318 886.5,-1306 886.5,-1306 886.5,-1300 892.5,-1294 898.5,-1294 898.5,-1294 1030.5,-1294 1030.5,-1294 1036.5,-1294 1042.5,-1300 1042.5,-1306 1042.5,-1306 1042.5,-1318 1042.5,-1318 1042.5,-1324 1036.5,-1330 1030.5,-1330"/>
<text text-anchor="middle" x="964.5" y="-1309.2" font-family="DejaVu Sans" font-size="11.00">termin&#45;components&#45;mesh</text>
</g>
<!-- termin&#45;csg&#45;&gt;termin&#45;components&#45;mesh -->
<g id="edge36" class="edge">
<title>termin&#45;csg&#45;&gt;termin&#45;components&#45;mesh</title>
<path fill="none" stroke="#666666" stroke-width="1.1" d="M232.62,-909.1C239.01,-913.64 245.19,-918.97 250,-925 294.97,-981.42 255.62,-1026.35 307,-1077 467.38,-1235.13 741.38,-1287.53 879.16,-1304.37"/>
<polygon fill="#666666" stroke="#666666" stroke-width="1.1" points="879.18,-1306.84 886.42,-1305.24 879.76,-1301.97 879.18,-1306.84"/>
</g>
<!-- termin&#45;input -->
<g id="node6" class="node">
<title>termin&#45;input</title>
<path fill="#f7f7f7" stroke="#444444" d="M786,-1045C786,-1045 728,-1045 728,-1045 722,-1045 716,-1039 716,-1033 716,-1033 716,-1021 716,-1021 716,-1015 722,-1009 728,-1009 728,-1009 786,-1009 786,-1009 792,-1009 798,-1015 798,-1021 798,-1021 798,-1033 798,-1033 798,-1039 792,-1045 786,-1045"/>
<text text-anchor="middle" x="757" y="-1024.2" font-family="DejaVu Sans" font-size="11.00">termin&#45;input</text>
</g>
<!-- termin&#45;display -->
<g id="node29" class="node">
<title>termin&#45;display</title>
<path fill="#f7f7f7" stroke="#444444" d="M999,-391C999,-391 930,-391 930,-391 924,-391 918,-385 918,-379 918,-379 918,-367 918,-367 918,-361 924,-355 930,-355 930,-355 999,-355 999,-355 1005,-355 1011,-361 1011,-367 1011,-367 1011,-379 1011,-379 1011,-385 1005,-391 999,-391"/>
<text text-anchor="middle" x="964.5" y="-370.2" font-family="DejaVu Sans" font-size="11.00">termin&#45;display</text>
</g>
<!-- termin&#45;input&#45;&gt;termin&#45;display -->
<g id="edge50" class="edge">
<title>termin&#45;input&#45;&gt;termin&#45;display</title>
<path fill="none" stroke="#666666" stroke-width="1.1" d="M794.99,-1008.84C800.85,-1004.42 806.22,-999.16 810,-993 930.56,-796.79 771.68,-687.63 867,-478 882.12,-444.76 911.85,-414.96 934.34,-395.68"/>
<polygon fill="#666666" stroke="#666666" stroke-width="1.1" points="936.11,-397.39 939.88,-391.01 932.95,-393.64 936.11,-397.39"/>
</g>
<!-- termin&#45;scene -->
<g id="node12" class="node">
<title>termin&#45;scene</title>
<path fill="#f7f7f7" stroke="#444444" d="M604.5,-1061C604.5,-1061 541.5,-1061 541.5,-1061 535.5,-1061 529.5,-1055 529.5,-1049 529.5,-1049 529.5,-1037 529.5,-1037 529.5,-1031 535.5,-1025 541.5,-1025 541.5,-1025 604.5,-1025 604.5,-1025 610.5,-1025 616.5,-1031 616.5,-1037 616.5,-1037 616.5,-1049 616.5,-1049 616.5,-1055 610.5,-1061 604.5,-1061"/>
<text text-anchor="middle" x="573" y="-1040.2" font-family="DejaVu Sans" font-size="11.00">termin&#45;scene</text>
</g>
<!-- termin&#45;inspect&#45;&gt;termin&#45;scene -->
<g id="edge51" class="edge">
<title>termin&#45;inspect&#45;&gt;termin&#45;scene</title>
<path fill="none" stroke="#666666" stroke-width="1.1" d="M425.61,-1043C454.75,-1043 492.4,-1043 522.22,-1043"/>
<polygon fill="#666666" stroke="#666666" stroke-width="1.1" points="522.23,-1045.45 529.23,-1043 522.23,-1040.55 522.23,-1045.45"/>
</g>
<!-- termin&#45;graphics -->
<g id="node30" class="node">
<title>termin&#45;graphics</title>
<path fill="#f7f7f7" stroke="#444444" d="M611.5,-391C611.5,-391 534.5,-391 534.5,-391 528.5,-391 522.5,-385 522.5,-379 522.5,-379 522.5,-367 522.5,-367 522.5,-361 528.5,-355 534.5,-355 534.5,-355 611.5,-355 611.5,-355 617.5,-355 623.5,-361 623.5,-367 623.5,-367 623.5,-379 623.5,-379 623.5,-385 617.5,-391 611.5,-391"/>
<text text-anchor="middle" x="573" y="-370.2" font-family="DejaVu Sans" font-size="11.00">termin&#45;graphics</text>
</g>
<!-- termin&#45;mesh&#45;&gt;termin&#45;graphics -->
<g id="edge54" class="edge">
<title>termin&#45;mesh&#45;&gt;termin&#45;graphics</title>
<path fill="none" stroke="#666666" stroke-width="1.1" d="M420.82,-962.61C431.72,-957.51 442.52,-950.51 450,-941 484.6,-897.02 550.89,-502.44 567.93,-398.17"/>
<polygon fill="#666666" stroke="#666666" stroke-width="1.1" points="570.36,-398.48 569.07,-391.18 565.53,-397.69 570.36,-398.48"/>
</g>
<!-- termin&#45;default&#45;assets -->
<g id="node40" class="node">
<title>termin&#45;default&#45;assets</title>
<path fill="#f7f7f7" stroke="#444444" d="M627,-857C627,-857 519,-857 519,-857 513,-857 507,-851 507,-845 507,-845 507,-833 507,-833 507,-827 513,-821 519,-821 519,-821 627,-821 627,-821 633,-821 639,-827 639,-833 639,-833 639,-845 639,-845 639,-851 633,-857 627,-857"/>
<text text-anchor="middle" x="573" y="-836.2" font-family="DejaVu Sans" font-size="11.00">termin&#45;default&#45;assets</text>
</g>
<!-- termin&#45;mesh&#45;&gt;termin&#45;default&#45;assets -->
<g id="edge53" class="edge">
<title>termin&#45;mesh&#45;&gt;termin&#45;default&#45;assets</title>
<path fill="none" stroke="#666666" stroke-width="1.1" d="M420.76,-959.37C430.94,-954.4 441.38,-948.27 450,-941 481.68,-914.29 473,-889.67 506.88,-861.7"/>
<polygon fill="#666666" stroke="#666666" stroke-width="1.1" points="508.67,-863.41 512.69,-857.18 505.66,-859.54 508.67,-863.41"/>
</g>
<!-- termin&#45;modules&#45;&gt;termin&#45;app -->
<g id="edge55" class="edge">
<title>termin&#45;modules&#45;&gt;termin&#45;app</title>
<path fill="none" stroke="#666666" stroke-width="1.1" d="M429.18,-891.19C437.27,-886.54 444.72,-880.58 450,-873 526.75,-762.7 420.07,-373.47 507,-271 565.58,-201.95 614.2,-230.65 704,-219 750.72,-212.94 772.49,-190.5 810,-219 885.3,-276.22 799.45,-357.81 867,-424 880.59,-437.32 1437.91,-573.17 1599.82,-612.43"/>
<polygon fill="#666666" stroke="#666666" stroke-width="1.1" points="1599.4,-614.85 1606.78,-614.12 1600.55,-610.09 1599.4,-614.85"/>
</g>
<!-- termin&#45;navmesh -->
<g id="node10" class="node">
<title>termin&#45;navmesh</title>
<path fill="#f7f7f7" stroke="#444444" d="M238,-1045C238,-1045 157,-1045 157,-1045 151,-1045 145,-1039 145,-1033 145,-1033 145,-1021 145,-1021 145,-1015 151,-1009 157,-1009 157,-1009 238,-1009 238,-1009 244,-1009 250,-1015 250,-1021 250,-1021 250,-1033 250,-1033 250,-1039 244,-1045 238,-1045"/>
<text text-anchor="middle" x="197.5" y="-1024.2" font-family="DejaVu Sans" font-size="11.00">termin&#45;navmesh</text>
</g>
<!-- termin&#45;navmesh&#45;&gt;termin&#45;app -->
<g id="edge57" class="edge">
<title>termin&#45;navmesh&#45;&gt;termin&#45;app</title>
<path fill="none" stroke="#666666" stroke-width="1.1" d="M231.22,-1045.24C252.25,-1056.15 280.5,-1069.35 307,-1077 522.93,-1139.33 591.01,-1179.55 810,-1129 1171.85,-1045.46 1525.62,-733.51 1619.43,-645.97"/>
<polygon fill="#666666" stroke="#666666" stroke-width="1.1" points="1621.29,-647.59 1624.72,-641.01 1617.94,-644.01 1621.29,-647.59"/>
</g>
<!-- termin&#45;components&#45;physics -->
<g id="node22" class="node">
<title>termin&#45;components&#45;physics</title>
<path fill="#f7f7f7" stroke="#444444" d="M1519,-1194C1519,-1194 1376,-1194 1376,-1194 1370,-1194 1364,-1188 1364,-1182 1364,-1182 1364,-1170 1364,-1170 1364,-1164 1370,-1158 1376,-1158 1376,-1158 1519,-1158 1519,-1158 1525,-1158 1531,-1164 1531,-1170 1531,-1170 1531,-1182 1531,-1182 1531,-1188 1525,-1194 1519,-1194"/>
<text text-anchor="middle" x="1447.5" y="-1173.2" font-family="DejaVu Sans" font-size="11.00">termin&#45;components&#45;physics</text>
</g>
<!-- termin&#45;physics&#45;&gt;termin&#45;components&#45;physics -->
<g id="edge59" class="edge">
<title>termin&#45;physics&#45;&gt;termin&#45;components&#45;physics</title>
<path fill="none" stroke="#666666" stroke-width="1.1" d="M1012.53,-924.36C1026.11,-929.54 1040.82,-935.6 1054,-942 1192.95,-1009.5 1347.6,-1109.69 1413.68,-1153.8"/>
<polygon fill="#666666" stroke="#666666" stroke-width="1.1" points="1412.61,-1156.03 1419.8,-1157.89 1415.34,-1151.96 1412.61,-1156.03"/>
</g>
<!-- termin&#45;scene&#45;&gt;termin&#45;collision -->
<g id="edge65" class="edge">
<title>termin&#45;scene&#45;&gt;termin&#45;collision</title>
<path fill="none" stroke="#666666" stroke-width="1.1" d="M592.13,-1024.83C616.54,-1000.79 661.8,-957.62 704,-925 709.2,-920.98 714.87,-916.95 720.5,-913.13"/>
<polygon fill="#666666" stroke="#666666" stroke-width="1.1" points="722.09,-915.02 726.56,-909.09 719.37,-910.94 722.09,-915.02"/>
</g>
<!-- termin&#45;scene&#45;&gt;termin&#45;input -->
<g id="edge68" class="edge">
<title>termin&#45;scene&#45;&gt;termin&#45;input</title>
<path fill="none" stroke="#666666" stroke-width="1.1" d="M616.67,-1039.25C644.28,-1036.82 680.24,-1033.66 708.71,-1031.16"/>
<polygon fill="#666666" stroke="#666666" stroke-width="1.1" points="709.02,-1033.59 715.78,-1030.54 708.59,-1028.71 709.02,-1033.59"/>
</g>
<!-- termin&#45;skeleton -->
<g id="node13" class="node">
<title>termin&#45;skeleton</title>
<path fill="#f7f7f7" stroke="#444444" d="M795.5,-1113C795.5,-1113 718.5,-1113 718.5,-1113 712.5,-1113 706.5,-1107 706.5,-1101 706.5,-1101 706.5,-1089 706.5,-1089 706.5,-1083 712.5,-1077 718.5,-1077 718.5,-1077 795.5,-1077 795.5,-1077 801.5,-1077 807.5,-1083 807.5,-1089 807.5,-1089 807.5,-1101 807.5,-1101 807.5,-1107 801.5,-1113 795.5,-1113"/>
<text text-anchor="middle" x="757" y="-1092.2" font-family="DejaVu Sans" font-size="11.00">termin&#45;skeleton</text>
</g>
<!-- termin&#45;scene&#45;&gt;termin&#45;skeleton -->
<g id="edge70" class="edge">
<title>termin&#45;scene&#45;&gt;termin&#45;skeleton</title>
<path fill="none" stroke="#666666" stroke-width="1.1" d="M616.67,-1055.19C641.26,-1062.22 672.49,-1071.14 699.15,-1078.76"/>
<polygon fill="#666666" stroke="#666666" stroke-width="1.1" points="698.77,-1081.2 706.18,-1080.77 700.12,-1076.49 698.77,-1081.2"/>
</g>
<!-- termin&#45;components&#45;kinematic -->
<g id="node20" class="node">
<title>termin&#45;components&#45;kinematic</title>
<path fill="#f7f7f7" stroke="#444444" d="M1042,-1398C1042,-1398 887,-1398 887,-1398 881,-1398 875,-1392 875,-1386 875,-1386 875,-1374 875,-1374 875,-1368 881,-1362 887,-1362 887,-1362 1042,-1362 1042,-1362 1048,-1362 1054,-1368 1054,-1374 1054,-1374 1054,-1386 1054,-1386 1054,-1392 1048,-1398 1042,-1398"/>
<text text-anchor="middle" x="964.5" y="-1377.2" font-family="DejaVu Sans" font-size="11.00">termin&#45;components&#45;kinematic</text>
</g>
<!-- termin&#45;scene&#45;&gt;termin&#45;components&#45;kinematic -->
<g id="edge66" class="edge">
<title>termin&#45;scene&#45;&gt;termin&#45;components&#45;kinematic</title>
<path fill="none" stroke="#666666" stroke-width="1.1" d="M585.59,-1061.23C606.85,-1093.94 654.47,-1163.97 704,-1215 768.73,-1281.69 785.79,-1300.8 867,-1346 875.89,-1350.95 885.63,-1355.38 895.4,-1359.29"/>
<polygon fill="#666666" stroke="#666666" stroke-width="1.1" points="894.75,-1361.66 902.16,-1361.91 896.52,-1357.09 894.75,-1361.66"/>
</g>
<!-- termin&#45;scene&#45;&gt;termin&#45;components&#45;mesh -->
<g id="edge67" class="edge">
<title>termin&#45;scene&#45;&gt;termin&#45;components&#45;mesh</title>
<path fill="none" stroke="#666666" stroke-width="1.1" d="M603.66,-1061.03C614.94,-1068.19 627.78,-1076.68 639,-1085 745.64,-1164.08 751.82,-1211.96 867,-1278 875.7,-1282.99 885.26,-1287.43 894.87,-1291.33"/>
<polygon fill="#666666" stroke="#666666" stroke-width="1.1" points="894.12,-1293.66 901.53,-1293.93 895.9,-1289.1 894.12,-1293.66"/>
</g>
<!-- termin&#45;render -->
<g id="node32" class="node">
<title>termin&#45;render</title>
<path fill="#f7f7f7" stroke="#444444" d="M790,-391C790,-391 724,-391 724,-391 718,-391 712,-385 712,-379 712,-379 712,-367 712,-367 712,-361 718,-355 724,-355 724,-355 790,-355 790,-355 796,-355 802,-361 802,-367 802,-367 802,-379 802,-379 802,-385 796,-391 790,-391"/>
<text text-anchor="middle" x="757" y="-370.2" font-family="DejaVu Sans" font-size="11.00">termin&#45;render</text>
</g>
<!-- termin&#45;scene&#45;&gt;termin&#45;render -->
<g id="edge69" class="edge">
<title>termin&#45;scene&#45;&gt;termin&#45;render</title>
<path fill="none" stroke="#666666" stroke-width="1.1" d="M581.85,-1024.92C594.98,-994.16 621.68,-929.49 639,-873 693.83,-694.18 737.37,-472.65 751.3,-398.51"/>
<polygon fill="#666666" stroke="#666666" stroke-width="1.1" points="753.75,-398.73 752.63,-391.4 748.93,-397.83 753.75,-398.73"/>
</g>
<!-- termin&#45;skeleton&#45;&gt;termin&#45;animation -->
<g id="edge71" class="edge">
<title>termin&#45;skeleton&#45;&gt;termin&#45;animation</title>
<path fill="none" stroke="#666666" stroke-width="1.1" d="M786.3,-1076.99C794.05,-1071.92 802.41,-1066.33 810,-1061 835.96,-1042.75 839.59,-1034 867,-1018 880.15,-1010.32 894.97,-1003.19 908.98,-997.06"/>
<polygon fill="#666666" stroke="#666666" stroke-width="1.1" points="910.32,-999.16 915.78,-994.14 908.38,-994.65 910.32,-999.16"/>
</g>
<!-- termin&#45;components&#45;skeleton -->
<g id="node23" class="node">
<title>termin&#45;components&#45;skeleton</title>
<path fill="#f7f7f7" stroke="#444444" d="M1038.5,-1262C1038.5,-1262 890.5,-1262 890.5,-1262 884.5,-1262 878.5,-1256 878.5,-1250 878.5,-1250 878.5,-1238 878.5,-1238 878.5,-1232 884.5,-1226 890.5,-1226 890.5,-1226 1038.5,-1226 1038.5,-1226 1044.5,-1226 1050.5,-1232 1050.5,-1238 1050.5,-1238 1050.5,-1250 1050.5,-1250 1050.5,-1256 1044.5,-1262 1038.5,-1262"/>
<text text-anchor="middle" x="964.5" y="-1241.2" font-family="DejaVu Sans" font-size="11.00">termin&#45;components&#45;skeleton</text>
</g>
<!-- termin&#45;skeleton&#45;&gt;termin&#45;components&#45;skeleton -->
<g id="edge72" class="edge">
<title>termin&#45;skeleton&#45;&gt;termin&#45;components&#45;skeleton</title>
<path fill="none" stroke="#666666" stroke-width="1.1" d="M770.75,-1113.1C789.27,-1138.16 825.92,-1183.35 867,-1210 874.72,-1215.01 883.26,-1219.38 891.99,-1223.17"/>
<polygon fill="#666666" stroke="#666666" stroke-width="1.1" points="891.28,-1225.53 898.68,-1225.96 893.16,-1221 891.28,-1225.53"/>
</g>
<!-- termin&#45;tween -->
<g id="node14" class="node">
<title>termin&#45;tween</title>
<path fill="#f7f7f7" stroke="#444444" d="M229.5,-1113C229.5,-1113 165.5,-1113 165.5,-1113 159.5,-1113 153.5,-1107 153.5,-1101 153.5,-1101 153.5,-1089 153.5,-1089 153.5,-1083 159.5,-1077 165.5,-1077 165.5,-1077 229.5,-1077 229.5,-1077 235.5,-1077 241.5,-1083 241.5,-1089 241.5,-1089 241.5,-1101 241.5,-1101 241.5,-1107 235.5,-1113 229.5,-1113"/>
<text text-anchor="middle" x="197.5" y="-1092.2" font-family="DejaVu Sans" font-size="11.00">termin&#45;tween</text>
</g>
<!-- termin&#45;components&#45;tween -->
<g id="node24" class="node">
<title>termin&#45;components&#45;tween</title>
<path fill="#f7f7f7" stroke="#444444" d="M1032,-1466C1032,-1466 897,-1466 897,-1466 891,-1466 885,-1460 885,-1454 885,-1454 885,-1442 885,-1442 885,-1436 891,-1430 897,-1430 897,-1430 1032,-1430 1032,-1430 1038,-1430 1044,-1436 1044,-1442 1044,-1442 1044,-1454 1044,-1454 1044,-1460 1038,-1466 1032,-1466"/>
<text text-anchor="middle" x="964.5" y="-1445.2" font-family="DejaVu Sans" font-size="11.00">termin&#45;components&#45;tween</text>
</g>
<!-- termin&#45;tween&#45;&gt;termin&#45;components&#45;tween -->
<g id="edge73" class="edge">
<title>termin&#45;tween&#45;&gt;termin&#45;components&#45;tween</title>
<path fill="none" stroke="#666666" stroke-width="1.1" d="M208.4,-1113.2C225.34,-1143.01 262.42,-1202.75 307,-1241 458.49,-1370.98 510.27,-1402.92 704,-1451 760.69,-1465.07 826.52,-1464.12 877.69,-1459.75"/>
<polygon fill="#666666" stroke="#666666" stroke-width="1.1" points="878.06,-1462.18 884.81,-1459.12 877.62,-1457.3 878.06,-1462.18"/>
</g>
<!-- termin&#45;voxels -->
<g id="node15" class="node">
<title>termin&#45;voxels</title>
<path fill="#f7f7f7" stroke="#444444" d="M790,-977C790,-977 724,-977 724,-977 718,-977 712,-971 712,-965 712,-965 712,-953 712,-953 712,-947 718,-941 724,-941 724,-941 790,-941 790,-941 796,-941 802,-947 802,-953 802,-953 802,-965 802,-965 802,-971 796,-977 790,-977"/>
<text text-anchor="middle" x="757" y="-956.2" font-family="DejaVu Sans" font-size="11.00">termin&#45;voxels</text>
</g>
<!-- termin&#45;voxels&#45;&gt;termin&#45;physics -->
<g id="edge75" class="edge">
<title>termin&#45;voxels&#45;&gt;termin&#45;physics</title>
<path fill="none" stroke="#666666" stroke-width="1.1" d="M802.08,-948.06C833.46,-940.27 875.82,-929.76 909.27,-921.46"/>
<polygon fill="#666666" stroke="#666666" stroke-width="1.1" points="910.06,-923.79 916.27,-919.72 908.88,-919.03 910.06,-923.79"/>
</g>
<!-- termin&#45;components&#45;voxels -->
<g id="node25" class="node">
<title>termin&#45;components&#45;voxels</title>
<path fill="#f7f7f7" stroke="#444444" d="M1033,-1194C1033,-1194 896,-1194 896,-1194 890,-1194 884,-1188 884,-1182 884,-1182 884,-1170 884,-1170 884,-1164 890,-1158 896,-1158 896,-1158 1033,-1158 1033,-1158 1039,-1158 1045,-1164 1045,-1170 1045,-1170 1045,-1182 1045,-1182 1045,-1188 1039,-1194 1033,-1194"/>
<text text-anchor="middle" x="964.5" y="-1173.2" font-family="DejaVu Sans" font-size="11.00">termin&#45;components&#45;voxels</text>
</g>
<!-- termin&#45;voxels&#45;&gt;termin&#45;components&#45;voxels -->
<g id="edge74" class="edge">
<title>termin&#45;voxels&#45;&gt;termin&#45;components&#45;voxels</title>
<path fill="none" stroke="#666666" stroke-width="1.1" d="M792.5,-977.01C798.95,-981.56 805.18,-986.91 810,-993 856.1,-1051.19 812.32,-1099.79 867,-1150 870.27,-1153 873.85,-1155.67 877.65,-1158.03"/>
<polygon fill="#666666" stroke="#666666" stroke-width="1.1" points="876.48,-1160.18 883.78,-1161.49 878.89,-1155.92 876.48,-1160.18"/>
</g>
<!-- termin -->
<g id="node16" class="node">
<title>termin</title>
<path fill="#f7f7f7" stroke="#444444" d="M59,-813C59,-813 29,-813 29,-813 23,-813 17,-807 17,-801 17,-801 17,-789 17,-789 17,-783 23,-777 29,-777 29,-777 59,-777 59,-777 65,-777 71,-783 71,-789 71,-789 71,-801 71,-801 71,-807 65,-813 59,-813"/>
<text text-anchor="middle" x="44" y="-792.2" font-family="DejaVu Sans" font-size="11.00">termin</text>
</g>
<!-- termin&#45;&gt;termin&#45;app -->
<g id="edge2" class="edge">
<title>termin&#45;&gt;termin&#45;app</title>
<path fill="none" stroke="#666666" stroke-width="1.1" d="M49.52,-776.94C59.39,-741.06 86.15,-660.25 137,-614 197.08,-559.36 227.29,-562.55 307,-547 394.25,-529.97 418.11,-545.44 507,-545 565.67,-544.71 580.38,-542.73 639,-545 735.92,-548.76 1418.94,-604.56 1599.7,-619.4"/>
<polygon fill="#666666" stroke="#666666" stroke-width="1.1" points="1599.75,-621.86 1606.92,-619.99 1600.15,-616.98 1599.75,-621.86"/>
</g>
<!-- termin&#45;&gt;termin&#45;navmesh -->
<g id="edge3" class="edge">
<title>termin&#45;&gt;termin&#45;navmesh</title>
<path fill="none" stroke="#666666" stroke-width="1.1" d="M49.43,-813.23C59.37,-850.85 86.6,-938.16 137,-993 141.05,-997.41 145.81,-1001.4 150.84,-1004.96"/>
<polygon fill="#666666" stroke="#666666" stroke-width="1.1" points="149.65,-1007.11 156.84,-1008.95 152.36,-1003.03 149.65,-1007.11"/>
</g>
<!-- termin&#45;&gt;termin&#45;tween -->
<g id="edge4" class="edge">
<title>termin&#45;&gt;termin&#45;tween</title>
<path fill="none" stroke="#666666" stroke-width="1.1" d="M46.89,-813.28C52.53,-859.7 73.06,-983.89 137,-1061 140.63,-1065.38 144.98,-1069.31 149.66,-1072.8"/>
<polygon fill="#666666" stroke="#666666" stroke-width="1.1" points="148.57,-1075.03 155.72,-1077 151.36,-1071 148.57,-1075.03"/>
</g>
<!-- termin&#45;&gt;termin&#45;voxels -->
<g id="edge5" class="edge">
<title>termin&#45;&gt;termin&#45;voxels</title>
<path fill="none" stroke="#666666" stroke-width="1.1" d="M60.74,-776.78C98.24,-734.93 197.92,-632.73 307,-596 447.18,-548.8 529.9,-519.13 639,-619 741.55,-712.88 625.44,-810.29 704,-925 706.89,-929.22 710.5,-933.05 714.45,-936.48"/>
<polygon fill="#666666" stroke="#666666" stroke-width="1.1" points="713.02,-938.47 720.03,-940.91 716.07,-934.63 713.02,-938.47"/>
</g>
<!-- termin&#45;components&#45;animation&#45;&gt;termin&#45;app -->
<g id="edge24" class="edge">
<title>termin&#45;components&#45;animation&#45;&gt;termin&#45;app</title>
<path fill="none" stroke="#666666" stroke-width="1.1" d="M1260.12,-1227.04C1331,-1249.01 1460.62,-1275.66 1539,-1210 1626.77,-1136.48 1640.88,-751.71 1643.1,-648.5"/>
<polygon fill="#666666" stroke="#666666" stroke-width="1.1" points="1645.55,-648.33 1643.24,-641.29 1640.65,-648.24 1645.55,-648.33"/>
</g>
<!-- termin&#45;components&#45;collision&#45;&gt;termin&#45;components&#45;physics -->
<g id="edge25" class="edge">
<title>termin&#45;components&#45;collision&#45;&gt;termin&#45;components&#45;physics</title>
<path fill="none" stroke="#666666" stroke-width="1.1" d="M1259.18,-1258.83C1272.19,-1253.86 1286.18,-1248.35 1299,-1243 1333.99,-1228.39 1373.03,-1210.59 1402.15,-1197.01"/>
<polygon fill="#666666" stroke="#666666" stroke-width="1.1" points="1403.28,-1199.18 1408.58,-1194 1401.2,-1194.74 1403.28,-1199.18"/>
</g>
<!-- termin&#45;components&#45;kinematic&#45;&gt;termin&#45;app -->
<g id="edge26" class="edge">
<title>termin&#45;components&#45;kinematic&#45;&gt;termin&#45;app</title>
<path fill="none" stroke="#666666" stroke-width="1.1" d="M1054.23,-1388.9C1181.34,-1396.27 1413.69,-1388.78 1539,-1255 1623.55,-1164.74 1640.06,-754.28 1642.94,-648.12"/>
<polygon fill="#666666" stroke="#666666" stroke-width="1.1" points="1645.39,-648.07 1643.13,-641.01 1640.5,-647.95 1645.39,-648.07"/>
</g>
<!-- termin&#45;components&#45;mesh&#45;&gt;termin&#45;components&#45;collision -->
<g id="edge27" class="edge">
<title>termin&#45;components&#45;mesh&#45;&gt;termin&#45;components&#45;collision</title>
<path fill="none" stroke="#666666" stroke-width="1.1" d="M1042.56,-1300.88C1066.17,-1297.47 1092.36,-1293.69 1116.81,-1290.16"/>
<polygon fill="#666666" stroke="#666666" stroke-width="1.1" points="1117.42,-1292.55 1124,-1289.12 1116.72,-1287.7 1117.42,-1292.55"/>
</g>
<!-- termin&#45;components&#45;render -->
<g id="node28" class="node">
<title>termin&#45;components&#45;render</title>
<path fill="#f7f7f7" stroke="#444444" d="M1278,-391C1278,-391 1140,-391 1140,-391 1134,-391 1128,-385 1128,-379 1128,-379 1128,-367 1128,-367 1128,-361 1134,-355 1140,-355 1140,-355 1278,-355 1278,-355 1284,-355 1290,-361 1290,-367 1290,-367 1290,-379 1290,-379 1290,-385 1284,-391 1278,-391"/>
<text text-anchor="middle" x="1209" y="-370.2" font-family="DejaVu Sans" font-size="11.00">termin&#45;components&#45;render</text>
</g>
<!-- termin&#45;components&#45;mesh&#45;&gt;termin&#45;components&#45;render -->
<g id="edge28" class="edge">
<title>termin&#45;components&#45;mesh&#45;&gt;termin&#45;components&#45;render</title>
<path fill="none" stroke="#666666" stroke-width="1.1" d="M1035.06,-1293.75C1042.23,-1289.54 1048.79,-1284.37 1054,-1278 1168.98,-1137.62 1201.26,-530.92 1206.99,-398.56"/>
<polygon fill="#666666" stroke="#666666" stroke-width="1.1" points="1209.45,-398.32 1207.3,-391.23 1204.55,-398.12 1209.45,-398.32"/>
</g>
<!-- termin&#45;components&#45;physics&#45;&gt;termin&#45;app -->
<g id="edge29" class="edge">
<title>termin&#45;components&#45;physics&#45;&gt;termin&#45;app</title>
<path fill="none" stroke="#666666" stroke-width="1.1" d="M1468.59,-1157.71C1489.34,-1137.69 1521.15,-1103.66 1539,-1068 1612.85,-920.45 1635.67,-719.02 1641.64,-648.58"/>
<polygon fill="#666666" stroke="#666666" stroke-width="1.1" points="1644.1,-648.58 1642.23,-641.41 1639.22,-648.18 1644.1,-648.58"/>
</g>
<!-- termin&#45;components&#45;skeleton&#45;&gt;termin&#45;components&#45;animation -->
<g id="edge32" class="edge">
<title>termin&#45;components&#45;skeleton&#45;&gt;termin&#45;components&#45;animation</title>
<path fill="none" stroke="#666666" stroke-width="1.1" d="M1050.66,-1231.71C1070.43,-1228.86 1091.62,-1225.8 1111.83,-1222.88"/>
<polygon fill="#666666" stroke="#666666" stroke-width="1.1" points="1112.36,-1225.28 1118.94,-1221.85 1111.66,-1220.43 1112.36,-1225.28"/>
</g>
<!-- termin&#45;components&#45;skeleton&#45;&gt;termin&#45;components&#45;render -->
<g id="edge33" class="edge">
<title>termin&#45;components&#45;skeleton&#45;&gt;termin&#45;components&#45;render</title>
<path fill="none" stroke="#666666" stroke-width="1.1" d="M1034.55,-1225.93C1041.9,-1221.69 1048.64,-1216.46 1054,-1210 1161,-1081.13 1199.27,-523.97 1206.62,-398.26"/>
<polygon fill="#666666" stroke="#666666" stroke-width="1.1" points="1209.06,-398.4 1207.02,-391.27 1204.17,-398.12 1209.06,-398.4"/>
</g>
<!-- termin&#45;components&#45;tween&#45;&gt;termin&#45;app -->
<g id="edge34" class="edge">
<title>termin&#45;components&#45;tween&#45;&gt;termin&#45;app</title>
<path fill="none" stroke="#666666" stroke-width="1.1" d="M1044.08,-1458.82C1170.51,-1471.28 1417.2,-1474.12 1539,-1330 1628.64,-1223.93 1641.42,-762.76 1643.21,-648.62"/>
<polygon fill="#666666" stroke="#666666" stroke-width="1.1" points="1645.67,-648.35 1643.32,-641.31 1640.77,-648.28 1645.67,-648.35"/>
</g>
<!-- termin&#45;components&#45;voxels&#45;&gt;termin&#45;navmesh -->
<g id="edge35" class="edge">
<title>termin&#45;components&#45;voxels&#45;&gt;termin&#45;navmesh</title>
<path fill="none" stroke="#666666" stroke-width="1.1" d="M883.98,-1190.35C730.18,-1216.31 399.04,-1262.9 307,-1201 251.25,-1163.51 292.61,-1112.94 250,-1061 246.51,-1056.75 242.35,-1052.83 237.93,-1049.29"/>
<polygon fill="#666666" stroke="#666666" stroke-width="1.1" points="239.29,-1047.25 232.22,-1045.01 236.35,-1051.17 239.29,-1047.25"/>
</g>
<!-- termin&#45;assets&#45;&gt;termin&#45;skeleton -->
<g id="edge11" class="edge">
<title>termin&#45;assets&#45;&gt;termin&#45;skeleton</title>
<path fill="none" stroke="#666666" stroke-width="1.1" d="M423.74,-646.99C495.91,-674.88 631.74,-728.18 639,-737 732.36,-850.38 621.7,-939.36 704,-1061 706.87,-1065.24 710.46,-1069.07 714.4,-1072.51"/>
<polygon fill="#666666" stroke="#666666" stroke-width="1.1" points="712.97,-1074.5 719.97,-1076.95 716.03,-1070.67 712.97,-1074.5"/>
</g>
<!-- termin&#45;assets&#45;&gt;termin&#45;voxels -->
<g id="edge12" class="edge">
<title>termin&#45;assets&#45;&gt;termin&#45;voxels</title>
<path fill="none" stroke="#666666" stroke-width="1.1" d="M423.85,-625.16C481.14,-621.53 580.44,-624.49 639,-679 721.78,-756.05 637.83,-833.29 704,-925 707.04,-929.21 710.77,-933.04 714.83,-936.48"/>
<polygon fill="#666666" stroke="#666666" stroke-width="1.1" points="713.51,-938.56 720.53,-940.93 716.52,-934.69 713.51,-938.56"/>
</g>
<!-- termin&#45;assets&#45;&gt;termin&#45;render -->
<g id="edge10" class="edge">
<title>termin&#45;assets&#45;&gt;termin&#45;render</title>
<path fill="none" stroke="#666666" stroke-width="1.1" d="M405.97,-611.93C473.21,-566.03 650.41,-445.08 723.63,-395.1"/>
<polygon fill="#666666" stroke="#666666" stroke-width="1.1" points="725.15,-397.02 729.55,-391.05 722.39,-392.97 725.15,-397.02"/>
</g>
<!-- termin&#45;audio -->
<g id="node38" class="node">
<title>termin&#45;audio</title>
<path fill="#f7f7f7" stroke="#444444" d="M603,-789C603,-789 543,-789 543,-789 537,-789 531,-783 531,-777 531,-777 531,-765 531,-765 531,-759 537,-753 543,-753 543,-753 603,-753 603,-753 609,-753 615,-759 615,-765 615,-765 615,-777 615,-777 615,-783 609,-789 603,-789"/>
<text text-anchor="middle" x="573" y="-768.2" font-family="DejaVu Sans" font-size="11.00">termin&#45;audio</text>
</g>
<!-- termin&#45;assets&#45;&gt;termin&#45;audio -->
<g id="edge8" class="edge">
<title>termin&#45;assets&#45;&gt;termin&#45;audio</title>
<path fill="none" stroke="#666666" stroke-width="1.1" d="M423.6,-647.89C432.73,-652.5 442,-657.91 450,-664 480.59,-687.26 477.92,-703.89 507,-729 515.26,-736.13 524.82,-742.96 534.02,-748.97"/>
<polygon fill="#666666" stroke="#666666" stroke-width="1.1" points="532.79,-751.09 540,-752.79 535.43,-746.96 532.79,-751.09"/>
</g>
<!-- termin&#45;assets&#45;&gt;termin&#45;default&#45;assets -->
<g id="edge9" class="edge">
<title>termin&#45;assets&#45;&gt;termin&#45;default&#45;assets</title>
<path fill="none" stroke="#666666" stroke-width="1.1" d="M423.84,-645.24C433.38,-650.09 442.75,-656.27 450,-664 496.21,-713.33 461.6,-754.93 507,-805 511.06,-809.48 515.84,-813.46 520.95,-816.98"/>
<polygon fill="#666666" stroke="#666666" stroke-width="1.1" points="519.85,-819.19 527.06,-820.9 522.49,-815.06 519.85,-819.19"/>
</g>
<!-- termin&#45;nanobind&#45;sdk -->
<g id="node27" class="node">
<title>termin&#45;nanobind&#45;sdk</title>
<path fill="#f7f7f7" stroke="#444444" d="M430,-716C430,-716 327,-716 327,-716 321,-716 315,-710 315,-704 315,-704 315,-692 315,-692 315,-686 321,-680 327,-680 327,-680 430,-680 430,-680 436,-680 442,-686 442,-692 442,-692 442,-704 442,-704 442,-710 436,-716 430,-716"/>
<text text-anchor="middle" x="378.5" y="-695.2" font-family="DejaVu Sans" font-size="11.00">termin&#45;nanobind&#45;sdk</text>
</g>
<!-- termin&#45;nanobind&#45;sdk&#45;&gt;termin&#45;base -->
<g id="edge56" class="edge">
<title>termin&#45;nanobind&#45;sdk&#45;&gt;termin&#45;base</title>
<path fill="none" stroke="#666666" stroke-width="1.1" d="M332.6,-716.04C323.08,-721.58 313.86,-728.52 307,-737 252.1,-804.89 302.2,-855.01 250,-925 246.87,-929.19 243.07,-933.02 238.95,-936.47"/>
<polygon fill="#666666" stroke="#666666" stroke-width="1.1" points="237.22,-934.72 233.19,-940.95 240.22,-938.59 237.22,-934.72"/>
</g>
<!-- termin&#45;render&#45;passes -->
<g id="node45" class="node">
<title>termin&#45;render&#45;passes</title>
<path fill="#f7f7f7" stroke="#444444" d="M1501.5,-237C1501.5,-237 1393.5,-237 1393.5,-237 1387.5,-237 1381.5,-231 1381.5,-225 1381.5,-225 1381.5,-213 1381.5,-213 1381.5,-207 1387.5,-201 1393.5,-201 1393.5,-201 1501.5,-201 1501.5,-201 1507.5,-201 1513.5,-207 1513.5,-213 1513.5,-213 1513.5,-225 1513.5,-225 1513.5,-231 1507.5,-237 1501.5,-237"/>
<text text-anchor="middle" x="1447.5" y="-216.2" font-family="DejaVu Sans" font-size="11.00">termin&#45;render&#45;passes</text>
</g>
<!-- termin&#45;components&#45;render&#45;&gt;termin&#45;render&#45;passes -->
<g id="edge30" class="edge">
<title>termin&#45;components&#45;render&#45;&gt;termin&#45;render&#45;passes</title>
<path fill="none" stroke="#666666" stroke-width="1.1" d="M1229.65,-354.81C1257.76,-329.49 1311.84,-283.31 1364,-253 1372.19,-248.24 1381.18,-243.81 1390.11,-239.83"/>
<polygon fill="#666666" stroke="#666666" stroke-width="1.1" points="1391.15,-242.05 1396.59,-237.02 1389.2,-237.56 1391.15,-242.05"/>
</g>
<!-- termin&#45;runtime -->
<g id="node46" class="node">
<title>termin&#45;runtime</title>
<path fill="#f7f7f7" stroke="#444444" d="M1681,-341C1681,-341 1608,-341 1608,-341 1602,-341 1596,-335 1596,-329 1596,-329 1596,-317 1596,-317 1596,-311 1602,-305 1608,-305 1608,-305 1681,-305 1681,-305 1687,-305 1693,-311 1693,-317 1693,-317 1693,-329 1693,-329 1693,-335 1687,-341 1681,-341"/>
<text text-anchor="middle" x="1644.5" y="-320.2" font-family="DejaVu Sans" font-size="11.00">termin&#45;runtime</text>
</g>
<!-- termin&#45;components&#45;render&#45;&gt;termin&#45;runtime -->
<g id="edge31" class="edge">
<title>termin&#45;components&#45;render&#45;&gt;termin&#45;runtime</title>
<path fill="none" stroke="#666666" stroke-width="1.1" d="M1290.21,-365.29C1356.88,-358.69 1454.22,-348.59 1539,-338 1555.17,-335.98 1572.7,-333.56 1588.71,-331.25"/>
<polygon fill="#666666" stroke="#666666" stroke-width="1.1" points="1589.37,-333.63 1595.95,-330.2 1588.67,-328.78 1589.37,-333.63"/>
</g>
<!-- termin&#45;display&#45;&gt;termin&#45;components&#45;render -->
<g id="edge37" class="edge">
<title>termin&#45;display&#45;&gt;termin&#45;components&#45;render</title>
<path fill="none" stroke="#666666" stroke-width="1.1" d="M1011.11,-373C1041.85,-373 1083.4,-373 1120.4,-373"/>
<polygon fill="#666666" stroke="#666666" stroke-width="1.1" points="1120.73,-375.45 1127.73,-373 1120.73,-370.55 1120.73,-375.45"/>
</g>
<!-- termin&#45;engine -->
<g id="node33" class="node">
<title>termin&#45;engine</title>
<path fill="#f7f7f7" stroke="#444444" d="M1481,-305C1481,-305 1414,-305 1414,-305 1408,-305 1402,-299 1402,-293 1402,-293 1402,-281 1402,-281 1402,-275 1408,-269 1414,-269 1414,-269 1481,-269 1481,-269 1487,-269 1493,-275 1493,-281 1493,-281 1493,-293 1493,-293 1493,-299 1487,-305 1481,-305"/>
<text text-anchor="middle" x="1447.5" y="-284.2" font-family="DejaVu Sans" font-size="11.00">termin&#45;engine</text>
</g>
<!-- termin&#45;display&#45;&gt;termin&#45;engine -->
<g id="edge38" class="edge">
<title>termin&#45;display&#45;&gt;termin&#45;engine</title>
<path fill="none" stroke="#666666" stroke-width="1.1" d="M1011.02,-362.16C1041.49,-355.09 1082.53,-345.93 1119,-339 1215.94,-320.59 1329.87,-303.52 1394.6,-294.25"/>
<polygon fill="#666666" stroke="#666666" stroke-width="1.1" points="1395.27,-296.63 1401.86,-293.21 1394.58,-291.78 1395.27,-296.63"/>
</g>
<!-- termin&#45;graphics&#45;&gt;termin&#45;voxels -->
<g id="edge46" class="edge">
<title>termin&#45;graphics&#45;&gt;termin&#45;voxels</title>
<path fill="none" stroke="#666666" stroke-width="1.1" d="M582.08,-391.17C595.69,-422.42 623.23,-488.63 639,-547 683.47,-711.56 610.44,-782.51 704,-925 706.77,-929.22 710.26,-933.02 714.12,-936.44"/>
<polygon fill="#666666" stroke="#666666" stroke-width="1.1" points="712.59,-938.35 719.57,-940.84 715.67,-934.54 712.59,-938.35"/>
</g>
<!-- termin&#45;graphics&#45;&gt;termin&#45;render -->
<g id="edge45" class="edge">
<title>termin&#45;graphics&#45;&gt;termin&#45;render</title>
<path fill="none" stroke="#666666" stroke-width="1.1" d="M623.73,-373C648.94,-373 679.5,-373 704.9,-373"/>
<polygon fill="#666666" stroke="#666666" stroke-width="1.1" points="704.91,-375.45 711.91,-373 704.91,-370.55 704.91,-375.45"/>
</g>
<!-- termin&#45;gui -->
<g id="node35" class="node">
<title>termin&#45;gui</title>
<path fill="#f7f7f7" stroke="#444444" d="M780.5,-120C780.5,-120 733.5,-120 733.5,-120 727.5,-120 721.5,-114 721.5,-108 721.5,-108 721.5,-96 721.5,-96 721.5,-90 727.5,-84 733.5,-84 733.5,-84 780.5,-84 780.5,-84 786.5,-84 792.5,-90 792.5,-96 792.5,-96 792.5,-108 792.5,-108 792.5,-114 786.5,-120 780.5,-120"/>
<text text-anchor="middle" x="757" y="-99.2" font-family="DejaVu Sans" font-size="11.00">termin&#45;gui</text>
</g>
<!-- termin&#45;graphics&#45;&gt;termin&#45;gui -->
<g id="edge43" class="edge">
<title>termin&#45;graphics&#45;&gt;termin&#45;gui</title>
<path fill="none" stroke="#666666" stroke-width="1.1" d="M617.89,-354.94C625.53,-350.5 632.95,-345.19 639,-339 655.22,-322.4 718.85,-184.07 744.85,-126.74"/>
<polygon fill="#666666" stroke="#666666" stroke-width="1.1" points="747.17,-127.55 747.83,-120.16 742.71,-125.53 747.17,-127.55"/>
</g>
<!-- termin&#45;materials -->
<g id="node41" class="node">
<title>termin&#45;materials</title>
<path fill="#f7f7f7" stroke="#444444" d="M798,-271C798,-271 716,-271 716,-271 710,-271 704,-265 704,-259 704,-259 704,-247 704,-247 704,-241 710,-235 716,-235 716,-235 798,-235 798,-235 804,-235 810,-241 810,-247 810,-247 810,-259 810,-259 810,-265 804,-271 798,-271"/>
<text text-anchor="middle" x="757" y="-250.2" font-family="DejaVu Sans" font-size="11.00">termin&#45;materials</text>
</g>
<!-- termin&#45;graphics&#45;&gt;termin&#45;materials -->
<g id="edge44" class="edge">
<title>termin&#45;graphics&#45;&gt;termin&#45;materials</title>
<path fill="none" stroke="#666666" stroke-width="1.1" d="M613.27,-354.85C622.04,-350.15 631.08,-344.78 639,-339 671.76,-315.12 670.29,-297.52 704,-275 704.13,-274.91 704.26,-274.83 704.38,-274.75"/>
<polygon fill="#666666" stroke="#666666" stroke-width="1.1" points="705.67,-276.83 710.37,-271.09 703.12,-272.65 705.67,-276.83"/>
</g>
<!-- termin&#45;lighting&#45;&gt;termin&#45;render -->
<g id="edge52" class="edge">
<title>termin&#45;lighting&#45;&gt;termin&#45;render</title>
<path fill="none" stroke="#666666" stroke-width="1.1" d="M620.87,-322.51C646.7,-332.16 678.78,-344.15 705.21,-354.02"/>
<polygon fill="#666666" stroke="#666666" stroke-width="1.1" points="704.38,-356.33 711.79,-356.48 706.09,-351.74 704.38,-356.33"/>
</g>
<!-- termin&#45;render&#45;&gt;termin&#45;display -->
<g id="edge61" class="edge">
<title>termin&#45;render&#45;&gt;termin&#45;display</title>
<path fill="none" stroke="#666666" stroke-width="1.1" d="M802.08,-373C833.9,-373 877.01,-373 910.68,-373"/>
<polygon fill="#666666" stroke="#666666" stroke-width="1.1" points="910.71,-375.45 917.71,-373 910.71,-370.55 910.71,-375.45"/>
</g>
<!-- termin&#45;components&#45;foliage -->
<g id="node39" class="node">
<title>termin&#45;components&#45;foliage</title>
<path fill="#f7f7f7" stroke="#444444" d="M1033.5,-530C1033.5,-530 895.5,-530 895.5,-530 889.5,-530 883.5,-524 883.5,-518 883.5,-518 883.5,-506 883.5,-506 883.5,-500 889.5,-494 895.5,-494 895.5,-494 1033.5,-494 1033.5,-494 1039.5,-494 1045.5,-500 1045.5,-506 1045.5,-506 1045.5,-518 1045.5,-518 1045.5,-524 1039.5,-530 1033.5,-530"/>
<text text-anchor="middle" x="964.5" y="-509.2" font-family="DejaVu Sans" font-size="11.00">termin&#45;components&#45;foliage</text>
</g>
<!-- termin&#45;render&#45;&gt;termin&#45;components&#45;foliage -->
<g id="edge60" class="edge">
<title>termin&#45;render&#45;&gt;termin&#45;components&#45;foliage</title>
<path fill="none" stroke="#666666" stroke-width="1.1" d="M774.71,-391C794.98,-412.05 830.93,-446.94 867,-470 879.44,-477.95 893.63,-485.07 907.24,-491.08"/>
<polygon fill="#666666" stroke="#666666" stroke-width="1.1" points="906.46,-493.41 913.86,-493.94 908.41,-488.92 906.46,-493.41"/>
</g>
<!-- termin&#45;engine&#45;&gt;termin&#45;app -->
<g id="edge40" class="edge">
<title>termin&#45;engine&#45;&gt;termin&#45;app</title>
<path fill="none" stroke="#666666" stroke-width="1.1" d="M1458.98,-305.06C1491.72,-361.47 1592.06,-534.37 1629.35,-598.62"/>
<polygon fill="#666666" stroke="#666666" stroke-width="1.1" points="1627.33,-600.02 1632.96,-604.85 1631.57,-597.56 1627.33,-600.02"/>
</g>
<!-- termin&#45;engine&#45;&gt;termin&#45;android -->
<g id="edge39" class="edge">
<title>termin&#45;engine&#45;&gt;termin&#45;android</title>
<path fill="none" stroke="#666666" stroke-width="1.1" d="M1493.24,-275.53C1521.76,-268.22 1558.9,-258.69 1589.12,-250.94"/>
<polygon fill="#666666" stroke="#666666" stroke-width="1.1" points="1590.08,-253.23 1596.25,-249.12 1588.86,-248.48 1590.08,-253.23"/>
</g>
<!-- termin&#45;engine&#45;&gt;termin&#45;openxr -->
<g id="edge41" class="edge">
<title>termin&#45;engine&#45;&gt;termin&#45;openxr</title>
<path fill="none" stroke="#666666" stroke-width="1.1" d="M1493.24,-273.79C1508.32,-268.42 1524.89,-261.45 1539,-253 1567.91,-235.68 1569.6,-223.94 1596,-203 1600.8,-199.19 1605.97,-195.29 1611.08,-191.55"/>
<polygon fill="#666666" stroke="#666666" stroke-width="1.1" points="1612.79,-193.34 1617.02,-187.25 1609.92,-189.37 1612.79,-193.34"/>
</g>
<!-- termin&#45;engine&#45;&gt;termin&#45;runtime -->
<g id="edge42" class="edge">
<title>termin&#45;engine&#45;&gt;termin&#45;runtime</title>
<path fill="none" stroke="#666666" stroke-width="1.1" d="M1493.24,-295.26C1521.66,-300.51 1558.63,-307.33 1588.79,-312.9"/>
<polygon fill="#666666" stroke="#666666" stroke-width="1.1" points="1588.58,-315.35 1595.91,-314.21 1589.47,-310.53 1588.58,-315.35"/>
</g>
<!-- tcplot -->
<g id="node34" class="node">
<title>tcplot</title>
<path fill="#f7f7f7" stroke="#444444" d="M979.5,-52C979.5,-52 949.5,-52 949.5,-52 943.5,-52 937.5,-46 937.5,-40 937.5,-40 937.5,-28 937.5,-28 937.5,-22 943.5,-16 949.5,-16 949.5,-16 979.5,-16 979.5,-16 985.5,-16 991.5,-22 991.5,-28 991.5,-28 991.5,-40 991.5,-40 991.5,-46 985.5,-52 979.5,-52"/>
<text text-anchor="middle" x="964.5" y="-31.2" font-family="DejaVu Sans" font-size="11.00">tcplot</text>
</g>
<!-- tcplot&#45;&gt;termin&#45;csharp -->
<g id="edge1" class="edge">
<title>tcplot&#45;&gt;termin&#45;csharp</title>
<path fill="none" stroke="#666666" stroke-width="1.1" d="M991.68,-34.96C1053.86,-38.66 1211.76,-56.64 1299,-144 1364.45,-209.54 1301.05,-274.06 1364,-342 1418.97,-401.33 1647.34,-476.64 1750.96,-508.58"/>
<polygon fill="#666666" stroke="#666666" stroke-width="1.1" points="1750.49,-510.99 1757.9,-510.71 1751.93,-506.31 1750.49,-510.99"/>
</g>
<!-- termin&#45;gui&#45;&gt;termin&#45;csg -->
<g id="edge48" class="edge">
<title>termin&#45;gui&#45;&gt;termin&#45;csg</title>
<path fill="none" stroke="#666666" stroke-width="1.1" d="M721.23,-107.2C670.18,-116.22 573.79,-138.65 507,-187 387.48,-273.53 370.44,-318.78 307,-452 236.82,-599.38 209.07,-796.95 201.12,-865.96"/>
<polygon fill="#666666" stroke="#666666" stroke-width="1.1" points="198.68,-865.75 200.33,-872.98 203.54,-866.3 198.68,-865.75"/>
</g>
<!-- termin&#45;gui&#45;&gt;tcplot -->
<g id="edge47" class="edge">
<title>termin&#45;gui&#45;&gt;tcplot</title>
<path fill="none" stroke="#666666" stroke-width="1.1" d="M792.86,-90.46C831.35,-77.73 892.83,-57.38 930.54,-44.91"/>
<polygon fill="#666666" stroke="#666666" stroke-width="1.1" points="931.42,-47.2 937.29,-42.67 929.88,-42.55 931.42,-47.2"/>
</g>
<!-- termin&#45;nodegraph -->
<g id="node36" class="node">
<title>termin&#45;nodegraph</title>
<path fill="#f7f7f7" stroke="#444444" d="M1009,-120C1009,-120 920,-120 920,-120 914,-120 908,-114 908,-108 908,-108 908,-96 908,-96 908,-90 914,-84 920,-84 920,-84 1009,-84 1009,-84 1015,-84 1021,-90 1021,-96 1021,-96 1021,-108 1021,-108 1021,-114 1015,-120 1009,-120"/>
<text text-anchor="middle" x="964.5" y="-99.2" font-family="DejaVu Sans" font-size="11.00">termin&#45;nodegraph</text>
</g>
<!-- termin&#45;gui&#45;&gt;termin&#45;nodegraph -->
<g id="edge49" class="edge">
<title>termin&#45;gui&#45;&gt;termin&#45;nodegraph</title>
<path fill="none" stroke="#666666" stroke-width="1.1" d="M792.86,-102C822.26,-102 865.08,-102 900.47,-102"/>
<polygon fill="#666666" stroke="#666666" stroke-width="1.1" points="900.9,-104.45 907.9,-102 900.9,-99.55 900.9,-104.45"/>
</g>
<!-- termin&#45;nodegraph&#45;&gt;termin&#45;app -->
<g id="edge58" class="edge">
<title>termin&#45;nodegraph&#45;&gt;termin&#45;app</title>
<path fill="none" stroke="#666666" stroke-width="1.1" d="M1021.28,-116.33C1094.75,-137.95 1223.45,-185.74 1299,-271 1355.13,-334.35 1306.9,-387.52 1364,-450 1421.95,-513.4 1467.03,-485.12 1539,-532 1569.53,-551.89 1600.52,-580.1 1620.73,-599.82"/>
<polygon fill="#666666" stroke="#666666" stroke-width="1.1" points="1619.18,-601.73 1625.88,-604.89 1622.61,-598.23 1619.18,-601.73"/>
</g>
<!-- termin&#45;render&#45;passes&#45;&gt;termin&#45;app -->
<g id="edge63" class="edge">
<title>termin&#45;render&#45;passes&#45;&gt;termin&#45;app</title>
<path fill="none" stroke="#666666" stroke-width="1.1" d="M1513.51,-234.78C1523.02,-239.39 1531.96,-245.34 1539,-253 1586.71,-304.9 1626.84,-523.09 1639.41,-597.79"/>
<polygon fill="#666666" stroke="#666666" stroke-width="1.1" points="1637.04,-598.46 1640.61,-604.96 1641.87,-597.66 1637.04,-598.46"/>
</g>
<!-- termin&#45;render&#45;passes&#45;&gt;termin&#45;android -->
<g id="edge62" class="edge">
<title>termin&#45;render&#45;passes&#45;&gt;termin&#45;android</title>
<path fill="none" stroke="#666666" stroke-width="1.1" d="M1513.7,-225.02C1538.19,-227.28 1565.73,-229.82 1589.13,-231.98"/>
<polygon fill="#666666" stroke="#666666" stroke-width="1.1" points="1589.05,-234.43 1596.25,-232.64 1589.5,-229.56 1589.05,-234.43"/>
</g>
<!-- termin&#45;render&#45;passes&#45;&gt;termin&#45;openxr -->
<g id="edge64" class="edge">
<title>termin&#45;render&#45;passes&#45;&gt;termin&#45;openxr</title>
<path fill="none" stroke="#666666" stroke-width="1.1" d="M1513.7,-202.28C1538.8,-195.85 1567.1,-188.59 1590.87,-182.5"/>
<polygon fill="#666666" stroke="#666666" stroke-width="1.1" points="1591.59,-184.84 1597.76,-180.73 1590.37,-180.09 1591.59,-184.84"/>
</g>
</g>
</svg>
