<?xml version="1.0" encoding="UTF-8" standalone="no"?>
<!DOCTYPE svg PUBLIC "-//W3C//DTD SVG 1.1//EN"
 "http://www.w3.org/Graphics/SVG/1.1/DTD/svg11.dtd">
<!-- Generated by graphviz version 2.43.0 (0)
 -->
<!-- Title: termin_dependencies Pages: 1 -->
<svg width="1880pt" height="1194pt"
 viewBox="0.00 0.00 1879.80 1194.46" xmlns="http://www.w3.org/2000/svg" xmlns:xlink="http://www.w3.org/1999/xlink">
<g id="graph0" class="graph" transform="scale(1 1) rotate(0) translate(14.4 1180.06)">
<title>termin_dependencies</title>
<polygon fill="white" stroke="transparent" points="-14.4,14.4 -14.4,-1180.06 1865.4,-1180.06 1865.4,14.4 -14.4,14.4"/>
<g id="clust1" class="cluster">
<title>cluster_application</title>
<polygon fill="white" stroke="#999999" stroke-dasharray="5,2" points="1574,-486.57 1574,-627.57 1687,-627.57 1687,-486.57 1574,-486.57"/>
<text text-anchor="middle" x="1630.5" y="-613.97" font-family="DejaVu Sans" font-size="12.00">Application</text>
</g>
<g id="clust2" class="cluster">
<title>cluster_foundation</title>
<polygon fill="white" stroke="#999999" stroke-dasharray="5,2" points="197,-472.57 197,-749.57 1013,-749.57 1013,-472.57 197,-472.57"/>
<text text-anchor="middle" x="605" y="-735.97" font-family="DejaVu Sans" font-size="12.00">Foundation</text>
</g>
<g id="clust3" class="cluster">
<title>cluster_namespace</title>
<polygon fill="white" stroke="#999999" stroke-dasharray="5,2" points="201.5,-156.57 201.5,-229.57 289.5,-229.57 289.5,-156.57 201.5,-156.57"/>
<text text-anchor="middle" x="245.5" y="-215.97" font-family="DejaVu Sans" font-size="12.00">Namespace</text>
</g>
<g id="clust4" class="cluster">
<title>cluster_native_interop</title>
<polygon fill="white" stroke="#999999" stroke-dasharray="5,2" points="1736,-817.57 1736,-890.57 1843,-890.57 1843,-817.57 1736,-817.57"/>
<text text-anchor="middle" x="1789.5" y="-876.97" font-family="DejaVu Sans" font-size="12.00">Native Interop</text>
</g>
<g id="clust5" class="cluster">
<title>cluster_other_components</title>
<polygon fill="white" stroke="#999999" stroke-dasharray="5,2" points="853,-255.57 853,-464.57 1525,-464.57 1525,-255.57 853,-255.57"/>
<text text-anchor="middle" x="1189" y="-450.97" font-family="DejaVu Sans" font-size="12.00">Other Components</text>
</g>
<g id="clust6" class="cluster">
<title>cluster_python_support</title>
<polygon fill="white" stroke="#999999" stroke-dasharray="5,2" points="8,-169.57 8,-310.57 151,-310.57 151,-169.57 8,-169.57"/>
<text text-anchor="middle" x="79.5" y="-296.97" font-family="DejaVu Sans" font-size="12.00">Python Support</text>
</g>
<g id="clust7" class="cluster">
<title>cluster_render_stack</title>
<polygon fill="white" stroke="#999999" stroke-dasharray="5,2" points="516,-777.57 516,-918.57 1284,-918.57 1284,-777.57 516,-777.57"/>
<text text-anchor="middle" x="900" y="-904.97" font-family="DejaVu Sans" font-size="12.00">Render Stack</text>
</g>
<g id="clust8" class="cluster">
<title>cluster_runtime</title>
<polygon fill="white" stroke="#999999" stroke-dasharray="5,2" points="1380,-983.57 1380,-1056.57 1487,-1056.57 1487,-983.57 1380,-983.57"/>
<text text-anchor="middle" x="1433.5" y="-1042.97" font-family="DejaVu Sans" font-size="12.00">Runtime</text>
</g>
<g id="clust10" class="cluster">
<title>cluster_ui</title>
<polygon fill="white" stroke="#999999" stroke-dasharray="5,2" points="699.5,-986.57 699.5,-1127.57 1015,-1127.57 1015,-986.57 699.5,-986.57"/>
<text text-anchor="middle" x="857.25" y="-1113.97" font-family="DejaVu Sans" font-size="12.00">UI</text>
</g>
<!-- diffusion&#45;editor -->
<g id="node1" class="node">
<title>diffusion&#45;editor</title>
<path fill="#f7f7f7" stroke="#444444" d="M1667,-598.57C1667,-598.57 1594,-598.57 1594,-598.57 1588,-598.57 1582,-592.57 1582,-586.57 1582,-586.57 1582,-574.57 1582,-574.57 1582,-568.57 1588,-562.57 1594,-562.57 1594,-562.57 1667,-562.57 1667,-562.57 1673,-562.57 1679,-568.57 1679,-574.57 1679,-574.57 1679,-586.57 1679,-586.57 1679,-592.57 1673,-598.57 1667,-598.57"/>
<text text-anchor="middle" x="1630.5" y="-577.77" font-family="DejaVu Sans" font-size="11.00">diffusion&#45;editor</text>
</g>
<!-- termin&#45;app -->
<g id="node2" class="node">
<title>termin&#45;app</title>
<path fill="#f7f7f7" stroke="#444444" d="M1656,-530.57C1656,-530.57 1605,-530.57 1605,-530.57 1599,-530.57 1593,-524.57 1593,-518.57 1593,-518.57 1593,-506.57 1593,-506.57 1593,-500.57 1599,-494.57 1605,-494.57 1605,-494.57 1656,-494.57 1656,-494.57 1662,-494.57 1668,-500.57 1668,-506.57 1668,-506.57 1668,-518.57 1668,-518.57 1668,-524.57 1662,-530.57 1656,-530.57"/>
<text text-anchor="middle" x="1630.5" y="-509.77" font-family="DejaVu Sans" font-size="11.00">termin&#45;app</text>
</g>
<!-- termin&#45;csharp -->
<g id="node16" class="node">
<title>termin&#45;csharp</title>
<path fill="#f7f7f7" stroke="#444444" d="M1823,-861.57C1823,-861.57 1756,-861.57 1756,-861.57 1750,-861.57 1744,-855.57 1744,-849.57 1744,-849.57 1744,-837.57 1744,-837.57 1744,-831.57 1750,-825.57 1756,-825.57 1756,-825.57 1823,-825.57 1823,-825.57 1829,-825.57 1835,-831.57 1835,-837.57 1835,-837.57 1835,-849.57 1835,-849.57 1835,-855.57 1829,-861.57 1823,-861.57"/>
<text text-anchor="middle" x="1789.5" y="-840.77" font-family="DejaVu Sans" font-size="11.00">termin&#45;csharp</text>
</g>
<!-- termin&#45;app&#45;&gt;termin&#45;csharp -->
<g id="edge5" class="edge">
<title>termin&#45;app&#45;&gt;termin&#45;csharp</title>
<path fill="none" stroke="#666666" stroke-width="1.1" d="M1668.13,-529.98C1675.12,-534.6 1681.84,-540.13 1687,-546.57 1754.66,-631.06 1778.43,-763.27 1785.69,-818.26"/>
<polygon fill="#666666" stroke="#666666" stroke-width="1.1" points="1783.29,-818.85 1786.61,-825.49 1788.16,-818.24 1783.29,-818.85"/>
</g>
<!-- termin&#45;animation -->
<g id="node3" class="node">
<title>termin&#45;animation</title>
<path fill="#f7f7f7" stroke="#444444" d="M993,-569.57C993,-569.57 908,-569.57 908,-569.57 902,-569.57 896,-563.57 896,-557.57 896,-557.57 896,-545.57 896,-545.57 896,-539.57 902,-533.57 908,-533.57 908,-533.57 993,-533.57 993,-533.57 999,-533.57 1005,-539.57 1005,-545.57 1005,-545.57 1005,-557.57 1005,-557.57 1005,-563.57 999,-569.57 993,-569.57"/>
<text text-anchor="middle" x="950.5" y="-548.77" font-family="DejaVu Sans" font-size="11.00">termin&#45;animation</text>
</g>
<!-- termin&#45;components&#45;animation -->
<g id="node17" class="node">
<title>termin&#45;components&#45;animation</title>
<path fill="#f7f7f7" stroke="#444444" d="M1273,-435.57C1273,-435.57 1117,-435.57 1117,-435.57 1111,-435.57 1105,-429.57 1105,-423.57 1105,-423.57 1105,-411.57 1105,-411.57 1105,-405.57 1111,-399.57 1117,-399.57 1117,-399.57 1273,-399.57 1273,-399.57 1279,-399.57 1285,-405.57 1285,-411.57 1285,-411.57 1285,-423.57 1285,-423.57 1285,-429.57 1279,-435.57 1273,-435.57"/>
<text text-anchor="middle" x="1195" y="-414.77" font-family="DejaVu Sans" font-size="11.00">termin&#45;components&#45;animation</text>
</g>
<!-- termin&#45;animation&#45;&gt;termin&#45;components&#45;animation -->
<g id="edge4" class="edge">
<title>termin&#45;animation&#45;&gt;termin&#45;components&#45;animation</title>
<path fill="none" stroke="#666666" stroke-width="1.1" d="M991.55,-533.55C1006.87,-526.4 1024.4,-517.9 1040,-509.57 1081.97,-487.14 1128.71,-458.7 1159.57,-439.43"/>
<polygon fill="#666666" stroke="#666666" stroke-width="1.1" points="1160.89,-441.49 1165.52,-435.7 1158.29,-437.34 1160.89,-441.49"/>
</g>
<!-- termin&#45;base -->
<g id="node4" class="node">
<title>termin&#45;base</title>
<path fill="#f7f7f7" stroke="#444444" d="M274,-652.57C274,-652.57 217,-652.57 217,-652.57 211,-652.57 205,-646.57 205,-640.57 205,-640.57 205,-628.57 205,-628.57 205,-622.57 211,-616.57 217,-616.57 217,-616.57 274,-616.57 274,-616.57 280,-616.57 286,-622.57 286,-628.57 286,-628.57 286,-640.57 286,-640.57 286,-646.57 280,-652.57 274,-652.57"/>
<text text-anchor="middle" x="245.5" y="-631.77" font-family="DejaVu Sans" font-size="11.00">termin&#45;base</text>
</g>
<!-- termin&#45;inspect -->
<g id="node8" class="node">
<title>termin&#45;inspect</title>
<path fill="#f7f7f7" stroke="#444444" d="M441.5,-652.57C441.5,-652.57 371.5,-652.57 371.5,-652.57 365.5,-652.57 359.5,-646.57 359.5,-640.57 359.5,-640.57 359.5,-628.57 359.5,-628.57 359.5,-622.57 365.5,-616.57 371.5,-616.57 371.5,-616.57 441.5,-616.57 441.5,-616.57 447.5,-616.57 453.5,-622.57 453.5,-628.57 453.5,-628.57 453.5,-640.57 453.5,-640.57 453.5,-646.57 447.5,-652.57 441.5,-652.57"/>
<text text-anchor="middle" x="406.5" y="-631.77" font-family="DejaVu Sans" font-size="11.00">termin&#45;inspect</text>
</g>
<!-- termin&#45;base&#45;&gt;termin&#45;inspect -->
<g id="edge7" class="edge">
<title>termin&#45;base&#45;&gt;termin&#45;inspect</title>
<path fill="none" stroke="#666666" stroke-width="1.1" d="M286.21,-634.57C306.13,-634.57 330.53,-634.57 352.07,-634.57"/>
<polygon fill="#666666" stroke="#666666" stroke-width="1.1" points="352.25,-637.02 359.25,-634.57 352.25,-632.12 352.25,-637.02"/>
</g>
<!-- termin&#45;mesh -->
<g id="node9" class="node">
<title>termin&#45;mesh</title>
<path fill="#f7f7f7" stroke="#444444" d="M436.5,-720.57C436.5,-720.57 376.5,-720.57 376.5,-720.57 370.5,-720.57 364.5,-714.57 364.5,-708.57 364.5,-708.57 364.5,-696.57 364.5,-696.57 364.5,-690.57 370.5,-684.57 376.5,-684.57 376.5,-684.57 436.5,-684.57 436.5,-684.57 442.5,-684.57 448.5,-690.57 448.5,-696.57 448.5,-696.57 448.5,-708.57 448.5,-708.57 448.5,-714.57 442.5,-720.57 436.5,-720.57"/>
<text text-anchor="middle" x="406.5" y="-699.77" font-family="DejaVu Sans" font-size="11.00">termin&#45;mesh</text>
</g>
<!-- termin&#45;base&#45;&gt;termin&#45;mesh -->
<g id="edge9" class="edge">
<title>termin&#45;base&#45;&gt;termin&#45;mesh</title>
<path fill="none" stroke="#666666" stroke-width="1.1" d="M286.21,-651.55C307.9,-660.82 334.9,-672.37 357.73,-682.14"/>
<polygon fill="#666666" stroke="#666666" stroke-width="1.1" points="356.96,-684.47 364.36,-684.97 358.88,-679.97 356.96,-684.47"/>
</g>
<!-- termin&#45;modules -->
<g id="node10" class="node">
<title>termin&#45;modules</title>
<path fill="#f7f7f7" stroke="#444444" d="M445,-584.57C445,-584.57 368,-584.57 368,-584.57 362,-584.57 356,-578.57 356,-572.57 356,-572.57 356,-560.57 356,-560.57 356,-554.57 362,-548.57 368,-548.57 368,-548.57 445,-548.57 445,-548.57 451,-548.57 457,-554.57 457,-560.57 457,-560.57 457,-572.57 457,-572.57 457,-578.57 451,-584.57 445,-584.57"/>
<text text-anchor="middle" x="406.5" y="-563.77" font-family="DejaVu Sans" font-size="11.00">termin&#45;modules</text>
</g>
<!-- termin&#45;base&#45;&gt;termin&#45;modules -->
<g id="edge10" class="edge">
<title>termin&#45;base&#45;&gt;termin&#45;modules</title>
<path fill="none" stroke="#666666" stroke-width="1.1" d="M286.21,-617.58C307.56,-608.45 334.07,-597.12 356.67,-587.45"/>
<polygon fill="#666666" stroke="#666666" stroke-width="1.1" points="357.76,-589.65 363.24,-584.64 355.84,-585.14 357.76,-589.65"/>
</g>
<!-- termin&#45;navmesh -->
<g id="node11" class="node">
<title>termin&#45;navmesh</title>
<path fill="#f7f7f7" stroke="#444444" d="M447,-516.57C447,-516.57 366,-516.57 366,-516.57 360,-516.57 354,-510.57 354,-504.57 354,-504.57 354,-492.57 354,-492.57 354,-486.57 360,-480.57 366,-480.57 366,-480.57 447,-480.57 447,-480.57 453,-480.57 459,-486.57 459,-492.57 459,-492.57 459,-504.57 459,-504.57 459,-510.57 453,-516.57 447,-516.57"/>
<text text-anchor="middle" x="406.5" y="-495.77" font-family="DejaVu Sans" font-size="11.00">termin&#45;navmesh</text>
</g>
<!-- termin&#45;base&#45;&gt;termin&#45;navmesh -->
<g id="edge11" class="edge">
<title>termin&#45;base&#45;&gt;termin&#45;navmesh</title>
<path fill="none" stroke="#666666" stroke-width="1.1" d="M263.88,-616.23C284.44,-594.98 320.16,-559.45 354,-532.57 359.11,-528.51 364.71,-524.45 370.27,-520.63"/>
<polygon fill="#666666" stroke="#666666" stroke-width="1.1" points="371.84,-522.53 376.27,-516.58 369.1,-518.47 371.84,-522.53"/>
</g>
<!-- termin&#45;lighting -->
<g id="node28" class="node">
<title>termin&#45;lighting</title>
<path fill="#f7f7f7" stroke="#444444" d="M610,-821.57C610,-821.57 539,-821.57 539,-821.57 533,-821.57 527,-815.57 527,-809.57 527,-809.57 527,-797.57 527,-797.57 527,-791.57 533,-785.57 539,-785.57 539,-785.57 610,-785.57 610,-785.57 616,-785.57 622,-791.57 622,-797.57 622,-797.57 622,-809.57 622,-809.57 622,-815.57 616,-821.57 610,-821.57"/>
<text text-anchor="middle" x="574.5" y="-800.77" font-family="DejaVu Sans" font-size="11.00">termin&#45;lighting</text>
</g>
<!-- termin&#45;base&#45;&gt;termin&#45;lighting -->
<g id="edge8" class="edge">
<title>termin&#45;base&#45;&gt;termin&#45;lighting</title>
<path fill="none" stroke="#666666" stroke-width="1.1" d="M270.66,-652.68C276.94,-657.66 283.6,-663.17 289.5,-668.57 320.25,-696.67 318.58,-714.65 354,-736.57 405.57,-768.47 473.4,-786.12 519.93,-795.19"/>
<polygon fill="#666666" stroke="#666666" stroke-width="1.1" points="519.59,-797.62 526.92,-796.52 520.5,-792.8 519.59,-797.62"/>
</g>
<!-- termin&#45;openxr -->
<g id="node36" class="node">
<title>termin&#45;openxr</title>
<path fill="#f7f7f7" stroke="#444444" d="M441,-854.57C441,-854.57 372,-854.57 372,-854.57 366,-854.57 360,-848.57 360,-842.57 360,-842.57 360,-830.57 360,-830.57 360,-824.57 366,-818.57 372,-818.57 372,-818.57 441,-818.57 441,-818.57 447,-818.57 453,-824.57 453,-830.57 453,-830.57 453,-842.57 453,-842.57 453,-848.57 447,-854.57 441,-854.57"/>
<text text-anchor="middle" x="406.5" y="-833.77" font-family="DejaVu Sans" font-size="11.00">termin&#45;openxr</text>
</g>
<!-- termin&#45;base&#45;&gt;termin&#45;openxr -->
<g id="edge12" class="edge">
<title>termin&#45;base&#45;&gt;termin&#45;openxr</title>
<path fill="none" stroke="#666666" stroke-width="1.1" d="M273.12,-652.7C278.96,-657.43 284.79,-662.83 289.5,-668.57 329.42,-717.19 314.45,-745.64 354,-794.57 359.55,-801.44 366.39,-807.95 373.25,-813.71"/>
<polygon fill="#666666" stroke="#666666" stroke-width="1.1" points="372.01,-815.86 378.99,-818.37 375.09,-812.06 372.01,-815.86"/>
</g>
<!-- termin&#45;collision -->
<g id="node5" class="node">
<title>termin&#45;collision</title>
<path fill="#f7f7f7" stroke="#444444" d="M780.5,-635.57C780.5,-635.57 705.5,-635.57 705.5,-635.57 699.5,-635.57 693.5,-629.57 693.5,-623.57 693.5,-623.57 693.5,-611.57 693.5,-611.57 693.5,-605.57 699.5,-599.57 705.5,-599.57 705.5,-599.57 780.5,-599.57 780.5,-599.57 786.5,-599.57 792.5,-605.57 792.5,-611.57 792.5,-611.57 792.5,-623.57 792.5,-623.57 792.5,-629.57 786.5,-635.57 780.5,-635.57"/>
<text text-anchor="middle" x="743" y="-614.77" font-family="DejaVu Sans" font-size="11.00">termin&#45;collision</text>
</g>
<!-- termin&#45;physics -->
<g id="node12" class="node">
<title>termin&#45;physics</title>
<path fill="#f7f7f7" stroke="#444444" d="M986.5,-637.57C986.5,-637.57 914.5,-637.57 914.5,-637.57 908.5,-637.57 902.5,-631.57 902.5,-625.57 902.5,-625.57 902.5,-613.57 902.5,-613.57 902.5,-607.57 908.5,-601.57 914.5,-601.57 914.5,-601.57 986.5,-601.57 986.5,-601.57 992.5,-601.57 998.5,-607.57 998.5,-613.57 998.5,-613.57 998.5,-625.57 998.5,-625.57 998.5,-631.57 992.5,-637.57 986.5,-637.57"/>
<text text-anchor="middle" x="950.5" y="-616.77" font-family="DejaVu Sans" font-size="11.00">termin&#45;physics</text>
</g>
<!-- termin&#45;collision&#45;&gt;termin&#45;physics -->
<g id="edge15" class="edge">
<title>termin&#45;collision&#45;&gt;termin&#45;physics</title>
<path fill="none" stroke="#666666" stroke-width="1.1" d="M792.7,-618.04C823.49,-618.34 863.32,-618.73 895.14,-619.04"/>
<polygon fill="#666666" stroke="#666666" stroke-width="1.1" points="895.19,-621.49 902.21,-619.11 895.24,-616.59 895.19,-621.49"/>
</g>
<!-- termin&#45;components&#45;collision -->
<g id="node18" class="node">
<title>termin&#45;components&#45;collision</title>
<path fill="#f7f7f7" stroke="#444444" d="M1268,-367.57C1268,-367.57 1122,-367.57 1122,-367.57 1116,-367.57 1110,-361.57 1110,-355.57 1110,-355.57 1110,-343.57 1110,-343.57 1110,-337.57 1116,-331.57 1122,-331.57 1122,-331.57 1268,-331.57 1268,-331.57 1274,-331.57 1280,-337.57 1280,-343.57 1280,-343.57 1280,-355.57 1280,-355.57 1280,-361.57 1274,-367.57 1268,-367.57"/>
<text text-anchor="middle" x="1195" y="-346.77" font-family="DejaVu Sans" font-size="11.00">termin&#45;components&#45;collision</text>
</g>
<!-- termin&#45;collision&#45;&gt;termin&#45;components&#45;collision -->
<g id="edge14" class="edge">
<title>termin&#45;collision&#45;&gt;termin&#45;components&#45;collision</title>
<path fill="none" stroke="#666666" stroke-width="1.1" d="M774.73,-599.51C781.99,-594.7 789.51,-589.25 796,-583.57 825.17,-558.05 820.99,-539.42 853,-517.57 925.8,-467.88 965.97,-499.4 1040,-451.57 1075.12,-428.88 1070.18,-406.7 1105,-383.57 1112.47,-378.61 1120.76,-374.22 1129.19,-370.39"/>
<polygon fill="#666666" stroke="#666666" stroke-width="1.1" points="1130.22,-372.62 1135.66,-367.57 1128.26,-368.13 1130.22,-372.62"/>
</g>
<!-- termin&#45;android -->
<g id="node34" class="node">
<title>termin&#45;android</title>
<path fill="#f7f7f7" stroke="#444444" d="M1666.5,-894.57C1666.5,-894.57 1594.5,-894.57 1594.5,-894.57 1588.5,-894.57 1582.5,-888.57 1582.5,-882.57 1582.5,-882.57 1582.5,-870.57 1582.5,-870.57 1582.5,-864.57 1588.5,-858.57 1594.5,-858.57 1594.5,-858.57 1666.5,-858.57 1666.5,-858.57 1672.5,-858.57 1678.5,-864.57 1678.5,-870.57 1678.5,-870.57 1678.5,-882.57 1678.5,-882.57 1678.5,-888.57 1672.5,-894.57 1666.5,-894.57"/>
<text text-anchor="middle" x="1630.5" y="-873.77" font-family="DejaVu Sans" font-size="11.00">termin&#45;android</text>
</g>
<!-- termin&#45;collision&#45;&gt;termin&#45;android -->
<g id="edge13" class="edge">
<title>termin&#45;collision&#45;&gt;termin&#45;android</title>
<path fill="none" stroke="#666666" stroke-width="1.1" d="M792.65,-634.29C811.43,-640.57 833.14,-647.63 853,-653.57 1043.46,-710.54 1094.04,-714.29 1285,-769.57 1388.24,-799.45 1507.87,-837.35 1575.52,-859.09"/>
<polygon fill="#666666" stroke="#666666" stroke-width="1.1" points="1574.89,-861.46 1582.31,-861.27 1576.4,-856.8 1574.89,-861.46"/>
</g>
<!-- termin&#45;csg -->
<g id="node6" class="node">
<title>termin&#45;csg</title>
<path fill="#f7f7f7" stroke="#444444" d="M270,-720.57C270,-720.57 221,-720.57 221,-720.57 215,-720.57 209,-714.57 209,-708.57 209,-708.57 209,-696.57 209,-696.57 209,-690.57 215,-684.57 221,-684.57 221,-684.57 270,-684.57 270,-684.57 276,-684.57 282,-690.57 282,-696.57 282,-696.57 282,-708.57 282,-708.57 282,-714.57 276,-720.57 270,-720.57"/>
<text text-anchor="middle" x="245.5" y="-699.77" font-family="DejaVu Sans" font-size="11.00">termin&#45;csg</text>
</g>
<!-- termin&#45;csg&#45;&gt;termin&#45;app -->
<g id="edge25" class="edge">
<title>termin&#45;csg&#45;&gt;termin&#45;app</title>
<path fill="none" stroke="#666666" stroke-width="1.1" d="M251.72,-720.84C263.24,-757.23 294.62,-838.07 354,-870.57 394.94,-892.97 418.7,-894.1 459,-870.57 503.51,-844.58 473.96,-799.38 516,-769.57 619.12,-696.44 672.37,-745.93 796,-719.57 1100.18,-654.71 1462.05,-558.11 1585.63,-524.56"/>
<polygon fill="#666666" stroke="#666666" stroke-width="1.1" points="1586.62,-526.83 1592.73,-522.63 1585.34,-522.1 1586.62,-526.83"/>
</g>
<!-- termin&#45;input -->
<g id="node7" class="node">
<title>termin&#45;input</title>
<path fill="#f7f7f7" stroke="#444444" d="M772,-703.57C772,-703.57 714,-703.57 714,-703.57 708,-703.57 702,-697.57 702,-691.57 702,-691.57 702,-679.57 702,-679.57 702,-673.57 708,-667.57 714,-667.57 714,-667.57 772,-667.57 772,-667.57 778,-667.57 784,-673.57 784,-679.57 784,-679.57 784,-691.57 784,-691.57 784,-697.57 778,-703.57 772,-703.57"/>
<text text-anchor="middle" x="743" y="-682.77" font-family="DejaVu Sans" font-size="11.00">termin&#45;input</text>
</g>
<!-- termin&#45;display -->
<g id="node26" class="node">
<title>termin&#45;display</title>
<path fill="#f7f7f7" stroke="#444444" d="M985,-837.57C985,-837.57 916,-837.57 916,-837.57 910,-837.57 904,-831.57 904,-825.57 904,-825.57 904,-813.57 904,-813.57 904,-807.57 910,-801.57 916,-801.57 916,-801.57 985,-801.57 985,-801.57 991,-801.57 997,-807.57 997,-813.57 997,-813.57 997,-825.57 997,-825.57 997,-831.57 991,-837.57 985,-837.57"/>
<text text-anchor="middle" x="950.5" y="-816.77" font-family="DejaVu Sans" font-size="11.00">termin&#45;display</text>
</g>
<!-- termin&#45;input&#45;&gt;termin&#45;display -->
<g id="edge39" class="edge">
<title>termin&#45;input&#45;&gt;termin&#45;display</title>
<path fill="none" stroke="#666666" stroke-width="1.1" d="M771.26,-703.71C793.27,-718.33 825.07,-739.37 853,-757.57 873.54,-770.95 896.63,-785.79 915.08,-797.6"/>
<polygon fill="#666666" stroke="#666666" stroke-width="1.1" points="913.93,-799.78 921.15,-801.48 916.57,-795.65 913.93,-799.78"/>
</g>
<!-- termin&#45;scene -->
<g id="node13" class="node">
<title>termin&#45;scene</title>
<path fill="#f7f7f7" stroke="#444444" d="M606,-635.57C606,-635.57 543,-635.57 543,-635.57 537,-635.57 531,-629.57 531,-623.57 531,-623.57 531,-611.57 531,-611.57 531,-605.57 537,-599.57 543,-599.57 543,-599.57 606,-599.57 606,-599.57 612,-599.57 618,-605.57 618,-611.57 618,-611.57 618,-623.57 618,-623.57 618,-629.57 612,-635.57 606,-635.57"/>
<text text-anchor="middle" x="574.5" y="-614.77" font-family="DejaVu Sans" font-size="11.00">termin&#45;scene</text>
</g>
<!-- termin&#45;inspect&#45;&gt;termin&#45;scene -->
<g id="edge40" class="edge">
<title>termin&#45;inspect&#45;&gt;termin&#45;scene</title>
<path fill="none" stroke="#666666" stroke-width="1.1" d="M453.74,-629.83C475.55,-627.6 501.61,-624.93 523.85,-622.65"/>
<polygon fill="#666666" stroke="#666666" stroke-width="1.1" points="524.21,-625.08 530.92,-621.93 523.71,-620.2 524.21,-625.08"/>
</g>
<!-- termin&#45;components&#45;mesh -->
<g id="node20" class="node">
<title>termin&#45;components&#45;mesh</title>
<path fill="#f7f7f7" stroke="#444444" d="M1016.5,-367.57C1016.5,-367.57 884.5,-367.57 884.5,-367.57 878.5,-367.57 872.5,-361.57 872.5,-355.57 872.5,-355.57 872.5,-343.57 872.5,-343.57 872.5,-337.57 878.5,-331.57 884.5,-331.57 884.5,-331.57 1016.5,-331.57 1016.5,-331.57 1022.5,-331.57 1028.5,-337.57 1028.5,-343.57 1028.5,-343.57 1028.5,-355.57 1028.5,-355.57 1028.5,-361.57 1022.5,-367.57 1016.5,-367.57"/>
<text text-anchor="middle" x="950.5" y="-346.77" font-family="DejaVu Sans" font-size="11.00">termin&#45;components&#45;mesh</text>
</g>
<!-- termin&#45;mesh&#45;&gt;termin&#45;components&#45;mesh -->
<g id="edge42" class="edge">
<title>termin&#45;mesh&#45;&gt;termin&#45;components&#45;mesh</title>
<path fill="none" stroke="#666666" stroke-width="1.1" d="M439.24,-684.47C446.15,-679.77 453.15,-674.38 459,-668.57 491.28,-636.52 485.89,-617.66 516,-583.57 583.78,-506.82 600.74,-482.75 690,-432.57 744.85,-401.73 812.77,-380.53 865.36,-367.28"/>
<polygon fill="#666666" stroke="#666666" stroke-width="1.1" points="866.15,-369.61 872.35,-365.54 864.96,-364.85 866.15,-369.61"/>
</g>
<!-- termin&#45;graphics -->
<g id="node27" class="node">
<title>termin&#45;graphics</title>
<path fill="#f7f7f7" stroke="#444444" d="M613,-889.57C613,-889.57 536,-889.57 536,-889.57 530,-889.57 524,-883.57 524,-877.57 524,-877.57 524,-865.57 524,-865.57 524,-859.57 530,-853.57 536,-853.57 536,-853.57 613,-853.57 613,-853.57 619,-853.57 625,-859.57 625,-865.57 625,-865.57 625,-877.57 625,-877.57 625,-883.57 619,-889.57 613,-889.57"/>
<text text-anchor="middle" x="574.5" y="-868.77" font-family="DejaVu Sans" font-size="11.00">termin&#45;graphics</text>
</g>
<!-- termin&#45;mesh&#45;&gt;termin&#45;graphics -->
<g id="edge43" class="edge">
<title>termin&#45;mesh&#45;&gt;termin&#45;graphics</title>
<path fill="none" stroke="#666666" stroke-width="1.1" d="M419.09,-720.9C437.25,-748.62 474.64,-801.73 516,-837.57 520.96,-841.86 526.53,-845.92 532.2,-849.63"/>
<polygon fill="#666666" stroke="#666666" stroke-width="1.1" points="531.15,-851.86 538.38,-853.52 533.76,-847.72 531.15,-851.86"/>
</g>
<!-- termin&#45;modules&#45;&gt;termin&#45;app -->
<g id="edge44" class="edge">
<title>termin&#45;modules&#45;&gt;termin&#45;app</title>
<path fill="none" stroke="#666666" stroke-width="1.1" d="M437.93,-548.48C445.12,-543.67 452.56,-538.22 459,-532.57 488.11,-506.98 490.39,-495.66 516,-466.57 615.39,-353.63 591.56,-214.57 742,-214.57 742,-214.57 742,-214.57 1196,-214.57 1342.96,-214.57 1407.8,-158.92 1525,-247.57 1603.17,-306.69 1622.94,-433.09 1627.88,-487.17"/>
<polygon fill="#666666" stroke="#666666" stroke-width="1.1" points="1625.45,-487.53 1628.48,-494.3 1630.33,-487.12 1625.45,-487.53"/>
</g>
<!-- termin&#45;navmesh&#45;&gt;termin&#45;app -->
<g id="edge46" class="edge">
<title>termin&#45;navmesh&#45;&gt;termin&#45;app</title>
<path fill="none" stroke="#666666" stroke-width="1.1" d="M407.92,-480.5C410.21,-426.86 424.73,-267.43 516,-189.57 593.66,-123.31 639.92,-148.57 742,-148.57 742,-148.57 742,-148.57 1196,-148.57 1343.35,-148.57 1411.44,-95.66 1525,-189.57 1617.53,-266.08 1628.97,-425.36 1629.78,-487.23"/>
<polygon fill="#666666" stroke="#666666" stroke-width="1.1" points="1627.33,-487.3 1629.83,-494.28 1632.23,-487.26 1627.33,-487.3"/>
</g>
<!-- termin&#45;components&#45;physics -->
<g id="node21" class="node">
<title>termin&#45;components&#45;physics</title>
<path fill="#f7f7f7" stroke="#444444" d="M1505,-435.57C1505,-435.57 1362,-435.57 1362,-435.57 1356,-435.57 1350,-429.57 1350,-423.57 1350,-423.57 1350,-411.57 1350,-411.57 1350,-405.57 1356,-399.57 1362,-399.57 1362,-399.57 1505,-399.57 1505,-399.57 1511,-399.57 1517,-405.57 1517,-411.57 1517,-411.57 1517,-423.57 1517,-423.57 1517,-429.57 1511,-435.57 1505,-435.57"/>
<text text-anchor="middle" x="1433.5" y="-414.77" font-family="DejaVu Sans" font-size="11.00">termin&#45;components&#45;physics</text>
</g>
<!-- termin&#45;physics&#45;&gt;termin&#45;components&#45;physics -->
<g id="edge48" class="edge">
<title>termin&#45;physics&#45;&gt;termin&#45;components&#45;physics</title>
<path fill="none" stroke="#666666" stroke-width="1.1" d="M998.94,-601.72C1012.26,-596.61 1026.73,-590.95 1040,-585.57 1165.5,-534.62 1311.82,-470.81 1385.29,-438.45"/>
<polygon fill="#666666" stroke="#666666" stroke-width="1.1" points="1386.33,-440.68 1391.75,-435.61 1384.35,-436.19 1386.33,-440.68"/>
</g>
<!-- termin&#45;scene&#45;&gt;termin&#45;collision -->
<g id="edge52" class="edge">
<title>termin&#45;scene&#45;&gt;termin&#45;collision</title>
<path fill="none" stroke="#666666" stroke-width="1.1" d="M618.38,-617.57C639.07,-617.57 664.15,-617.57 686.3,-617.57"/>
<polygon fill="#666666" stroke="#666666" stroke-width="1.1" points="686.38,-620.02 693.38,-617.57 686.38,-615.12 686.38,-620.02"/>
</g>
<!-- termin&#45;scene&#45;&gt;termin&#45;input -->
<g id="edge55" class="edge">
<title>termin&#45;scene&#45;&gt;termin&#45;input</title>
<path fill="none" stroke="#666666" stroke-width="1.1" d="M618.38,-635.08C641.89,-644.68 671.08,-656.6 695.19,-666.45"/>
<polygon fill="#666666" stroke="#666666" stroke-width="1.1" points="694.44,-668.79 701.84,-669.17 696.29,-664.25 694.44,-668.79"/>
</g>
<!-- termin&#45;skeleton -->
<g id="node14" class="node">
<title>termin&#45;skeleton</title>
<path fill="#f7f7f7" stroke="#444444" d="M781.5,-567.57C781.5,-567.57 704.5,-567.57 704.5,-567.57 698.5,-567.57 692.5,-561.57 692.5,-555.57 692.5,-555.57 692.5,-543.57 692.5,-543.57 692.5,-537.57 698.5,-531.57 704.5,-531.57 704.5,-531.57 781.5,-531.57 781.5,-531.57 787.5,-531.57 793.5,-537.57 793.5,-543.57 793.5,-543.57 793.5,-555.57 793.5,-555.57 793.5,-561.57 787.5,-567.57 781.5,-567.57"/>
<text text-anchor="middle" x="743" y="-546.77" font-family="DejaVu Sans" font-size="11.00">termin&#45;skeleton</text>
</g>
<!-- termin&#45;scene&#45;&gt;termin&#45;skeleton -->
<g id="edge57" class="edge">
<title>termin&#45;scene&#45;&gt;termin&#45;skeleton</title>
<path fill="none" stroke="#666666" stroke-width="1.1" d="M618.38,-600.06C640.57,-590.99 667.8,-579.87 691.05,-570.37"/>
<polygon fill="#666666" stroke="#666666" stroke-width="1.1" points="692.26,-572.53 697.82,-567.61 690.41,-567.99 692.26,-572.53"/>
</g>
<!-- termin&#45;components&#45;kinematic -->
<g id="node19" class="node">
<title>termin&#45;components&#45;kinematic</title>
<path fill="#f7f7f7" stroke="#444444" d="M1028,-299.57C1028,-299.57 873,-299.57 873,-299.57 867,-299.57 861,-293.57 861,-287.57 861,-287.57 861,-275.57 861,-275.57 861,-269.57 867,-263.57 873,-263.57 873,-263.57 1028,-263.57 1028,-263.57 1034,-263.57 1040,-269.57 1040,-275.57 1040,-275.57 1040,-287.57 1040,-287.57 1040,-293.57 1034,-299.57 1028,-299.57"/>
<text text-anchor="middle" x="950.5" y="-278.77" font-family="DejaVu Sans" font-size="11.00">termin&#45;components&#45;kinematic</text>
</g>
<!-- termin&#45;scene&#45;&gt;termin&#45;components&#45;kinematic -->
<g id="edge53" class="edge">
<title>termin&#45;scene&#45;&gt;termin&#45;components&#45;kinematic</title>
<path fill="none" stroke="#666666" stroke-width="1.1" d="M584.15,-599.37C601.1,-564.94 641.31,-489.03 690,-436.57 751.38,-370.44 773.34,-357.92 853,-315.57 862.33,-310.61 872.53,-306.12 882.7,-302.15"/>
<polygon fill="#666666" stroke="#666666" stroke-width="1.1" points="883.69,-304.39 889.36,-299.61 881.95,-299.81 883.69,-304.39"/>
</g>
<!-- termin&#45;scene&#45;&gt;termin&#45;components&#45;mesh -->
<g id="edge54" class="edge">
<title>termin&#45;scene&#45;&gt;termin&#45;components&#45;mesh</title>
<path fill="none" stroke="#666666" stroke-width="1.1" d="M594.38,-599.56C616.62,-578.63 654.99,-543.4 690,-515.57 735.17,-479.65 751.88,-477.77 796,-440.57 823.39,-417.47 822.69,-402.66 853,-383.57 860.98,-378.54 869.81,-374.13 878.78,-370.31"/>
<polygon fill="#666666" stroke="#666666" stroke-width="1.1" points="879.78,-372.55 885.33,-367.63 877.92,-368.01 879.78,-372.55"/>
</g>
<!-- termin&#45;render -->
<g id="node29" class="node">
<title>termin&#45;render</title>
<path fill="#f7f7f7" stroke="#444444" d="M776,-837.57C776,-837.57 710,-837.57 710,-837.57 704,-837.57 698,-831.57 698,-825.57 698,-825.57 698,-813.57 698,-813.57 698,-807.57 704,-801.57 710,-801.57 710,-801.57 776,-801.57 776,-801.57 782,-801.57 788,-807.57 788,-813.57 788,-813.57 788,-825.57 788,-825.57 788,-831.57 782,-837.57 776,-837.57"/>
<text text-anchor="middle" x="743" y="-816.77" font-family="DejaVu Sans" font-size="11.00">termin&#45;render</text>
</g>
<!-- termin&#45;scene&#45;&gt;termin&#45;render -->
<g id="edge56" class="edge">
<title>termin&#45;scene&#45;&gt;termin&#45;render</title>
<path fill="none" stroke="#666666" stroke-width="1.1" d="M590.25,-635.75C611.99,-662.51 653.95,-714.04 690,-757.57 700.55,-770.31 712.39,-784.44 722.11,-795.99"/>
<polygon fill="#666666" stroke="#666666" stroke-width="1.1" points="720.31,-797.66 726.7,-801.44 724.06,-794.51 720.31,-797.66"/>
</g>
<!-- termin&#45;skeleton&#45;&gt;termin&#45;animation -->
<g id="edge58" class="edge">
<title>termin&#45;skeleton&#45;&gt;termin&#45;animation</title>
<path fill="none" stroke="#666666" stroke-width="1.1" d="M793.75,-550.05C822.34,-550.33 858.47,-550.68 888.73,-550.98"/>
<polygon fill="#666666" stroke="#666666" stroke-width="1.1" points="888.87,-553.43 895.89,-551.05 888.92,-548.53 888.87,-553.43"/>
</g>
<!-- termin&#45;components&#45;skeleton -->
<g id="node22" class="node">
<title>termin&#45;components&#45;skeleton</title>
<path fill="#f7f7f7" stroke="#444444" d="M1024.5,-435.57C1024.5,-435.57 876.5,-435.57 876.5,-435.57 870.5,-435.57 864.5,-429.57 864.5,-423.57 864.5,-423.57 864.5,-411.57 864.5,-411.57 864.5,-405.57 870.5,-399.57 876.5,-399.57 876.5,-399.57 1024.5,-399.57 1024.5,-399.57 1030.5,-399.57 1036.5,-405.57 1036.5,-411.57 1036.5,-411.57 1036.5,-423.57 1036.5,-423.57 1036.5,-429.57 1030.5,-435.57 1024.5,-435.57"/>
<text text-anchor="middle" x="950.5" y="-414.77" font-family="DejaVu Sans" font-size="11.00">termin&#45;components&#45;skeleton</text>
</g>
<!-- termin&#45;skeleton&#45;&gt;termin&#45;components&#45;skeleton -->
<g id="edge59" class="edge">
<title>termin&#45;skeleton&#45;&gt;termin&#45;components&#45;skeleton</title>
<path fill="none" stroke="#666666" stroke-width="1.1" d="M766.31,-531.27C792.81,-509.7 835.59,-475.43 853,-464.57 868.08,-455.16 885.32,-446.24 901.01,-438.75"/>
<polygon fill="#666666" stroke="#666666" stroke-width="1.1" points="902.35,-440.83 907.63,-435.63 900.26,-436.39 902.35,-440.83"/>
</g>
<!-- termin -->
<g id="node15" class="node">
<title>termin</title>
<path fill="#f7f7f7" stroke="#444444" d="M260.5,-200.57C260.5,-200.57 230.5,-200.57 230.5,-200.57 224.5,-200.57 218.5,-194.57 218.5,-188.57 218.5,-188.57 218.5,-176.57 218.5,-176.57 218.5,-170.57 224.5,-164.57 230.5,-164.57 230.5,-164.57 260.5,-164.57 260.5,-164.57 266.5,-164.57 272.5,-170.57 272.5,-176.57 272.5,-176.57 272.5,-188.57 272.5,-188.57 272.5,-194.57 266.5,-200.57 260.5,-200.57"/>
<text text-anchor="middle" x="245.5" y="-179.77" font-family="DejaVu Sans" font-size="11.00">termin</text>
</g>
<!-- termin&#45;&gt;termin&#45;app -->
<g id="edge2" class="edge">
<title>termin&#45;&gt;termin&#45;app</title>
<path fill="none" stroke="#666666" stroke-width="1.1" d="M272.79,-168.66C327.28,-141.19 457.14,-82.57 573.5,-82.57 573.5,-82.57 573.5,-82.57 1196,-82.57 1343.47,-82.57 1413.99,-28.5 1525,-125.57 1580.7,-174.27 1615.97,-409.07 1626.32,-487.21"/>
<polygon fill="#666666" stroke="#666666" stroke-width="1.1" points="1623.9,-487.65 1627.24,-494.28 1628.76,-487.02 1623.9,-487.65"/>
</g>
<!-- termin&#45;&gt;termin&#45;navmesh -->
<g id="edge3" class="edge">
<title>termin&#45;&gt;termin&#45;navmesh</title>
<path fill="none" stroke="#666666" stroke-width="1.1" d="M255.74,-200.92C282.91,-254.94 362.62,-413.35 393.29,-474.29"/>
<polygon fill="#666666" stroke="#666666" stroke-width="1.1" points="391.1,-475.4 396.44,-480.55 395.48,-473.2 391.1,-475.4"/>
</g>
<!-- termin&#45;components&#45;animation&#45;&gt;termin&#45;app -->
<g id="edge16" class="edge">
<title>termin&#45;components&#45;animation&#45;&gt;termin&#45;app</title>
<path fill="none" stroke="#666666" stroke-width="1.1" d="M1238.66,-399.51C1303.83,-374.85 1430.54,-338.52 1525,-383.57 1570.42,-405.23 1602.49,-457.34 1618.3,-488.29"/>
<polygon fill="#666666" stroke="#666666" stroke-width="1.1" points="1616.1,-489.39 1621.42,-494.56 1620.49,-487.2 1616.1,-489.39"/>
</g>
<!-- termin&#45;components&#45;collision&#45;&gt;termin&#45;components&#45;physics -->
<g id="edge17" class="edge">
<title>termin&#45;components&#45;collision&#45;&gt;termin&#45;components&#45;physics</title>
<path fill="none" stroke="#666666" stroke-width="1.1" d="M1258.76,-367.61C1290.82,-376.83 1329.93,-388.08 1362.92,-397.56"/>
<polygon fill="#666666" stroke="#666666" stroke-width="1.1" points="1362.46,-399.98 1369.86,-399.56 1363.81,-395.27 1362.46,-399.98"/>
</g>
<!-- termin&#45;components&#45;kinematic&#45;&gt;termin&#45;app -->
<g id="edge18" class="edge">
<title>termin&#45;components&#45;kinematic&#45;&gt;termin&#45;app</title>
<path fill="none" stroke="#666666" stroke-width="1.1" d="M1040.02,-270.3C1159.97,-259.69 1376.19,-257.52 1525,-353.57 1575.09,-385.9 1606.49,-451.66 1620.66,-487.65"/>
<polygon fill="#666666" stroke="#666666" stroke-width="1.1" points="1618.47,-488.78 1623.26,-494.44 1623.04,-487.02 1618.47,-488.78"/>
</g>
<!-- termin&#45;components&#45;mesh&#45;&gt;termin&#45;components&#45;collision -->
<g id="edge19" class="edge">
<title>termin&#45;components&#45;mesh&#45;&gt;termin&#45;components&#45;collision</title>
<path fill="none" stroke="#666666" stroke-width="1.1" d="M1028.56,-349.57C1052.17,-349.57 1078.36,-349.57 1102.81,-349.57"/>
<polygon fill="#666666" stroke="#666666" stroke-width="1.1" points="1103,-352.02 1110,-349.57 1103,-347.12 1103,-352.02"/>
</g>
<!-- termin&#45;components&#45;render -->
<g id="node25" class="node">
<title>termin&#45;components&#45;render</title>
<path fill="#f7f7f7" stroke="#444444" d="M1264,-834.57C1264,-834.57 1126,-834.57 1126,-834.57 1120,-834.57 1114,-828.57 1114,-822.57 1114,-822.57 1114,-810.57 1114,-810.57 1114,-804.57 1120,-798.57 1126,-798.57 1126,-798.57 1264,-798.57 1264,-798.57 1270,-798.57 1276,-804.57 1276,-810.57 1276,-810.57 1276,-822.57 1276,-822.57 1276,-828.57 1270,-834.57 1264,-834.57"/>
<text text-anchor="middle" x="1195" y="-813.77" font-family="DejaVu Sans" font-size="11.00">termin&#45;components&#45;render</text>
</g>
<!-- termin&#45;components&#45;mesh&#45;&gt;termin&#45;components&#45;render -->
<g id="edge20" class="edge">
<title>termin&#45;components&#45;mesh&#45;&gt;termin&#45;components&#45;render</title>
<path fill="none" stroke="#666666" stroke-width="1.1" d="M1018.26,-367.78C1026.27,-372.01 1033.79,-377.2 1040,-383.57 1157.14,-503.68 1185.74,-718.62 1192.23,-791.56"/>
<polygon fill="#666666" stroke="#666666" stroke-width="1.1" points="1189.79,-791.79 1192.82,-798.56 1194.67,-791.38 1189.79,-791.79"/>
</g>
<!-- termin&#45;components&#45;physics&#45;&gt;termin&#45;app -->
<g id="edge21" class="edge">
<title>termin&#45;components&#45;physics&#45;&gt;termin&#45;app</title>
<path fill="none" stroke="#666666" stroke-width="1.1" d="M1471.64,-435.66C1504.27,-451.56 1551.78,-474.7 1586.14,-491.44"/>
<polygon fill="#666666" stroke="#666666" stroke-width="1.1" points="1585.47,-493.84 1592.83,-494.7 1587.61,-489.43 1585.47,-493.84"/>
</g>
<!-- termin&#45;components&#45;skeleton&#45;&gt;termin&#45;components&#45;animation -->
<g id="edge24" class="edge">
<title>termin&#45;components&#45;skeleton&#45;&gt;termin&#45;components&#45;animation</title>
<path fill="none" stroke="#666666" stroke-width="1.1" d="M1036.66,-417.57C1056.43,-417.57 1077.62,-417.57 1097.83,-417.57"/>
<polygon fill="#666666" stroke="#666666" stroke-width="1.1" points="1097.94,-420.02 1104.94,-417.57 1097.94,-415.12 1097.94,-420.02"/>
</g>
<!-- termin&#45;assets -->
<g id="node23" class="node">
<title>termin&#45;assets</title>
<path fill="#f7f7f7" stroke="#444444" d="M112.5,-213.57C112.5,-213.57 46.5,-213.57 46.5,-213.57 40.5,-213.57 34.5,-207.57 34.5,-201.57 34.5,-201.57 34.5,-189.57 34.5,-189.57 34.5,-183.57 40.5,-177.57 46.5,-177.57 46.5,-177.57 112.5,-177.57 112.5,-177.57 118.5,-177.57 124.5,-183.57 124.5,-189.57 124.5,-189.57 124.5,-201.57 124.5,-201.57 124.5,-207.57 118.5,-213.57 112.5,-213.57"/>
<text text-anchor="middle" x="79.5" y="-192.77" font-family="DejaVu Sans" font-size="11.00">termin&#45;assets</text>
</g>
<!-- termin&#45;assets&#45;&gt;termin&#45;app -->
<g id="edge6" class="edge">
<title>termin&#45;assets&#45;&gt;termin&#45;app</title>
<path fill="none" stroke="#666666" stroke-width="1.1" d="M98,-177.42C143.85,-131.91 273.13,-16.57 405.5,-16.57 405.5,-16.57 405.5,-16.57 1196,-16.57 1343.41,-16.57 1415.72,40.37 1525,-58.57 1589.81,-117.25 1619.69,-400.62 1627.41,-487.31"/>
<polygon fill="#666666" stroke="#666666" stroke-width="1.1" points="1624.98,-487.62 1628.03,-494.38 1629.86,-487.19 1624.98,-487.62"/>
</g>
<!-- termin&#45;nanobind&#45;sdk -->
<g id="node24" class="node">
<title>termin&#45;nanobind&#45;sdk</title>
<path fill="#f7f7f7" stroke="#444444" d="M131,-281.57C131,-281.57 28,-281.57 28,-281.57 22,-281.57 16,-275.57 16,-269.57 16,-269.57 16,-257.57 16,-257.57 16,-251.57 22,-245.57 28,-245.57 28,-245.57 131,-245.57 131,-245.57 137,-245.57 143,-251.57 143,-257.57 143,-257.57 143,-269.57 143,-269.57 143,-275.57 137,-281.57 131,-281.57"/>
<text text-anchor="middle" x="79.5" y="-260.77" font-family="DejaVu Sans" font-size="11.00">termin&#45;nanobind&#45;sdk</text>
</g>
<!-- termin&#45;nanobind&#45;sdk&#45;&gt;termin&#45;base -->
<g id="edge45" class="edge">
<title>termin&#45;nanobind&#45;sdk&#45;&gt;termin&#45;base</title>
<path fill="none" stroke="#666666" stroke-width="1.1" d="M88.52,-281.71C115.44,-342.61 202.61,-539.81 233.51,-609.72"/>
<polygon fill="#666666" stroke="#666666" stroke-width="1.1" points="231.42,-611.04 236.49,-616.46 235.9,-609.06 231.42,-611.04"/>
</g>
<!-- termin&#45;render&#45;passes -->
<g id="node37" class="node">
<title>termin&#45;render&#45;passes</title>
<path fill="#f7f7f7" stroke="#444444" d="M1487.5,-761.57C1487.5,-761.57 1379.5,-761.57 1379.5,-761.57 1373.5,-761.57 1367.5,-755.57 1367.5,-749.57 1367.5,-749.57 1367.5,-737.57 1367.5,-737.57 1367.5,-731.57 1373.5,-725.57 1379.5,-725.57 1379.5,-725.57 1487.5,-725.57 1487.5,-725.57 1493.5,-725.57 1499.5,-731.57 1499.5,-737.57 1499.5,-737.57 1499.5,-749.57 1499.5,-749.57 1499.5,-755.57 1493.5,-761.57 1487.5,-761.57"/>
<text text-anchor="middle" x="1433.5" y="-740.77" font-family="DejaVu Sans" font-size="11.00">termin&#45;render&#45;passes</text>
</g>
<!-- termin&#45;components&#45;render&#45;&gt;termin&#45;render&#45;passes -->
<g id="edge22" class="edge">
<title>termin&#45;components&#45;render&#45;&gt;termin&#45;render&#45;passes</title>
<path fill="none" stroke="#666666" stroke-width="1.1" d="M1254.46,-798.52C1288.57,-787.99 1331.69,-774.68 1366.95,-763.8"/>
<polygon fill="#666666" stroke="#666666" stroke-width="1.1" points="1367.93,-766.06 1373.89,-761.66 1366.48,-761.38 1367.93,-766.06"/>
</g>
<!-- termin&#45;runtime -->
<g id="node38" class="node">
<title>termin&#45;runtime</title>
<path fill="#f7f7f7" stroke="#444444" d="M1667,-1062.57C1667,-1062.57 1594,-1062.57 1594,-1062.57 1588,-1062.57 1582,-1056.57 1582,-1050.57 1582,-1050.57 1582,-1038.57 1582,-1038.57 1582,-1032.57 1588,-1026.57 1594,-1026.57 1594,-1026.57 1667,-1026.57 1667,-1026.57 1673,-1026.57 1679,-1032.57 1679,-1038.57 1679,-1038.57 1679,-1050.57 1679,-1050.57 1679,-1056.57 1673,-1062.57 1667,-1062.57"/>
<text text-anchor="middle" x="1630.5" y="-1041.77" font-family="DejaVu Sans" font-size="11.00">termin&#45;runtime</text>
</g>
<!-- termin&#45;components&#45;render&#45;&gt;termin&#45;runtime -->
<g id="edge23" class="edge">
<title>termin&#45;components&#45;render&#45;&gt;termin&#45;runtime</title>
<path fill="none" stroke="#666666" stroke-width="1.1" d="M1200.89,-834.8C1214.77,-882.49 1259.42,-1010.62 1350,-1060.57 1420.04,-1099.19 1515.53,-1081.54 1574.8,-1064.01"/>
<polygon fill="#666666" stroke="#666666" stroke-width="1.1" points="1575.86,-1066.25 1581.85,-1061.88 1574.44,-1061.56 1575.86,-1066.25"/>
</g>
<!-- termin&#45;display&#45;&gt;diffusion&#45;editor -->
<g id="edge26" class="edge">
<title>termin&#45;display&#45;&gt;diffusion&#45;editor</title>
<path fill="none" stroke="#666666" stroke-width="1.1" d="M997.08,-807.85C1095.43,-781.95 1334.1,-715.71 1525,-635.57 1548.03,-625.9 1572.8,-612.98 1592.45,-602.09"/>
<polygon fill="#666666" stroke="#666666" stroke-width="1.1" points="1593.72,-604.19 1598.64,-598.63 1591.33,-599.91 1593.72,-604.19"/>
</g>
<!-- termin&#45;display&#45;&gt;termin&#45;components&#45;render -->
<g id="edge27" class="edge">
<title>termin&#45;display&#45;&gt;termin&#45;components&#45;render</title>
<path fill="none" stroke="#666666" stroke-width="1.1" d="M997.11,-819C1027.85,-818.62 1069.4,-818.11 1106.4,-817.65"/>
<polygon fill="#666666" stroke="#666666" stroke-width="1.1" points="1106.76,-820.1 1113.73,-817.56 1106.7,-815.2 1106.76,-820.1"/>
</g>
<!-- termin&#45;engine -->
<g id="node30" class="node">
<title>termin&#45;engine</title>
<path fill="#f7f7f7" stroke="#444444" d="M1467,-1027.57C1467,-1027.57 1400,-1027.57 1400,-1027.57 1394,-1027.57 1388,-1021.57 1388,-1015.57 1388,-1015.57 1388,-1003.57 1388,-1003.57 1388,-997.57 1394,-991.57 1400,-991.57 1400,-991.57 1467,-991.57 1467,-991.57 1473,-991.57 1479,-997.57 1479,-1003.57 1479,-1003.57 1479,-1015.57 1479,-1015.57 1479,-1021.57 1473,-1027.57 1467,-1027.57"/>
<text text-anchor="middle" x="1433.5" y="-1006.77" font-family="DejaVu Sans" font-size="11.00">termin&#45;engine</text>
</g>
<!-- termin&#45;display&#45;&gt;termin&#45;engine -->
<g id="edge28" class="edge">
<title>termin&#45;display&#45;&gt;termin&#45;engine</title>
<path fill="none" stroke="#666666" stroke-width="1.1" d="M997.18,-837.61C1087.18,-873.16 1286.85,-952.04 1381.21,-989.31"/>
<polygon fill="#666666" stroke="#666666" stroke-width="1.1" points="1380.41,-991.62 1387.82,-991.92 1382.21,-987.07 1380.41,-991.62"/>
</g>
<!-- termin&#45;graphics&#45;&gt;termin&#45;render -->
<g id="edge34" class="edge">
<title>termin&#45;graphics&#45;&gt;termin&#45;render</title>
<path fill="none" stroke="#666666" stroke-width="1.1" d="M625,-856.11C645.85,-849.6 670.09,-842.02 691.09,-835.47"/>
<polygon fill="#666666" stroke="#666666" stroke-width="1.1" points="691.83,-837.8 697.78,-833.38 690.37,-833.12 691.83,-837.8"/>
</g>
<!-- termin&#45;gui -->
<g id="node32" class="node">
<title>termin&#45;gui</title>
<path fill="#f7f7f7" stroke="#444444" d="M766.5,-1030.57C766.5,-1030.57 719.5,-1030.57 719.5,-1030.57 713.5,-1030.57 707.5,-1024.57 707.5,-1018.57 707.5,-1018.57 707.5,-1006.57 707.5,-1006.57 707.5,-1000.57 713.5,-994.57 719.5,-994.57 719.5,-994.57 766.5,-994.57 766.5,-994.57 772.5,-994.57 778.5,-1000.57 778.5,-1006.57 778.5,-1006.57 778.5,-1018.57 778.5,-1018.57 778.5,-1024.57 772.5,-1030.57 766.5,-1030.57"/>
<text text-anchor="middle" x="743" y="-1009.77" font-family="DejaVu Sans" font-size="11.00">termin&#45;gui</text>
</g>
<!-- termin&#45;graphics&#45;&gt;termin&#45;gui -->
<g id="edge32" class="edge">
<title>termin&#45;graphics&#45;&gt;termin&#45;gui</title>
<path fill="none" stroke="#666666" stroke-width="1.1" d="M592.88,-889.62C614.61,-911.75 653.4,-949.85 690,-978.57 695.17,-982.63 700.83,-986.68 706.45,-990.5"/>
<polygon fill="#666666" stroke="#666666" stroke-width="1.1" points="705.32,-992.69 712.5,-994.54 708.04,-988.62 705.32,-992.69"/>
</g>
<!-- termin&#45;materials -->
<g id="node35" class="node">
<title>termin&#45;materials</title>
<path fill="#f7f7f7" stroke="#444444" d="M784,-962.57C784,-962.57 702,-962.57 702,-962.57 696,-962.57 690,-956.57 690,-950.57 690,-950.57 690,-938.57 690,-938.57 690,-932.57 696,-926.57 702,-926.57 702,-926.57 784,-926.57 784,-926.57 790,-926.57 796,-932.57 796,-938.57 796,-938.57 796,-950.57 796,-950.57 796,-956.57 790,-962.57 784,-962.57"/>
<text text-anchor="middle" x="743" y="-941.77" font-family="DejaVu Sans" font-size="11.00">termin&#45;materials</text>
</g>
<!-- termin&#45;graphics&#45;&gt;termin&#45;materials -->
<g id="edge33" class="edge">
<title>termin&#45;graphics&#45;&gt;termin&#45;materials</title>
<path fill="none" stroke="#666666" stroke-width="1.1" d="M615.43,-889.57C637.39,-899.42 665.15,-911.78 690,-922.57 690.83,-922.93 691.68,-923.29 692.53,-923.66"/>
<polygon fill="#666666" stroke="#666666" stroke-width="1.1" points="691.73,-925.98 699.12,-926.5 693.66,-921.48 691.73,-925.98"/>
</g>
<!-- termin&#45;lighting&#45;&gt;termin&#45;render -->
<g id="edge41" class="edge">
<title>termin&#45;lighting&#45;&gt;termin&#45;render</title>
<path fill="none" stroke="#666666" stroke-width="1.1" d="M622.32,-808.07C643.58,-810.11 668.79,-812.53 690.57,-814.62"/>
<polygon fill="#666666" stroke="#666666" stroke-width="1.1" points="690.61,-817.09 697.82,-815.32 691.08,-812.21 690.61,-817.09"/>
</g>
<!-- termin&#45;render&#45;&gt;termin&#45;display -->
<g id="edge49" class="edge">
<title>termin&#45;render&#45;&gt;termin&#45;display</title>
<path fill="none" stroke="#666666" stroke-width="1.1" d="M788.08,-819.57C819.9,-819.57 863.01,-819.57 896.68,-819.57"/>
<polygon fill="#666666" stroke="#666666" stroke-width="1.1" points="896.71,-822.02 903.71,-819.57 896.71,-817.12 896.71,-822.02"/>
</g>
<!-- termin&#45;engine&#45;&gt;termin&#45;app -->
<g id="edge30" class="edge">
<title>termin&#45;engine&#45;&gt;termin&#45;app</title>
<path fill="none" stroke="#666666" stroke-width="1.1" d="M1446.58,-991.12C1466.21,-960.26 1504.85,-895.61 1525,-835.57 1566.45,-712.06 1501.03,-654.49 1574,-546.57 1577.46,-541.45 1581.97,-536.97 1586.92,-533.09"/>
<polygon fill="#666666" stroke="#666666" stroke-width="1.1" points="1588.64,-534.87 1592.9,-528.81 1585.79,-530.89 1588.64,-534.87"/>
</g>
<!-- termin&#45;engine&#45;&gt;termin&#45;android -->
<g id="edge29" class="edge">
<title>termin&#45;engine&#45;&gt;termin&#45;android</title>
<path fill="none" stroke="#666666" stroke-width="1.1" d="M1479.09,-991.88C1494.16,-985.13 1510.76,-976.81 1525,-967.57 1555.57,-947.74 1586.55,-919.52 1606.75,-899.78"/>
<polygon fill="#666666" stroke="#666666" stroke-width="1.1" points="1608.63,-901.36 1611.9,-894.7 1605.19,-897.87 1608.63,-901.36"/>
</g>
<!-- termin&#45;engine&#45;&gt;termin&#45;runtime -->
<g id="edge31" class="edge">
<title>termin&#45;engine&#45;&gt;termin&#45;runtime</title>
<path fill="none" stroke="#666666" stroke-width="1.1" d="M1479.24,-1017.6C1507.66,-1022.7 1544.63,-1029.33 1574.79,-1034.75"/>
<polygon fill="#666666" stroke="#666666" stroke-width="1.1" points="1574.58,-1037.2 1581.91,-1036.02 1575.45,-1032.38 1574.58,-1037.2"/>
</g>
<!-- tcplot -->
<g id="node31" class="node">
<title>tcplot</title>
<path fill="#f7f7f7" stroke="#444444" d="M965.5,-1098.57C965.5,-1098.57 935.5,-1098.57 935.5,-1098.57 929.5,-1098.57 923.5,-1092.57 923.5,-1086.57 923.5,-1086.57 923.5,-1074.57 923.5,-1074.57 923.5,-1068.57 929.5,-1062.57 935.5,-1062.57 935.5,-1062.57 965.5,-1062.57 965.5,-1062.57 971.5,-1062.57 977.5,-1068.57 977.5,-1074.57 977.5,-1074.57 977.5,-1086.57 977.5,-1086.57 977.5,-1092.57 971.5,-1098.57 965.5,-1098.57"/>
<text text-anchor="middle" x="950.5" y="-1077.77" font-family="DejaVu Sans" font-size="11.00">tcplot</text>
</g>
<!-- tcplot&#45;&gt;termin&#45;csharp -->
<g id="edge1" class="edge">
<title>tcplot&#45;&gt;termin&#45;csharp</title>
<path fill="none" stroke="#666666" stroke-width="1.1" d="M977.64,-1090.37C1080.29,-1127.03 1461.15,-1245.63 1687,-1078.57 1756.5,-1027.16 1778.98,-918.2 1785.77,-868.83"/>
<polygon fill="#666666" stroke="#666666" stroke-width="1.1" points="1788.23,-868.97 1786.7,-861.71 1783.37,-868.34 1788.23,-868.97"/>
</g>
<!-- termin&#45;gui&#45;&gt;diffusion&#45;editor -->
<g id="edge35" class="edge">
<title>termin&#45;gui&#45;&gt;diffusion&#45;editor</title>
<path fill="none" stroke="#666666" stroke-width="1.1" d="M778.93,-999.97C800.11,-992.76 827.83,-984.08 853,-978.57 1042.12,-937.14 1102.23,-986.44 1285,-922.57 1402.65,-881.45 1439.37,-868.11 1525,-777.57 1574.21,-725.53 1606.87,-645.83 1621.2,-605.62"/>
<polygon fill="#666666" stroke="#666666" stroke-width="1.1" points="1623.66,-606 1623.66,-598.59 1619.03,-604.39 1623.66,-606"/>
</g>
<!-- termin&#45;gui&#45;&gt;termin&#45;csg -->
<g id="edge37" class="edge">
<title>termin&#45;gui&#45;&gt;termin&#45;csg</title>
<path fill="none" stroke="#666666" stroke-width="1.1" d="M707.47,-1014.65C634.13,-1017.21 460.83,-1013.2 354,-928.57 288.38,-876.58 260.64,-774.81 250.93,-727.66"/>
<polygon fill="#666666" stroke="#666666" stroke-width="1.1" points="253.29,-726.96 249.53,-720.57 248.49,-727.92 253.29,-726.96"/>
</g>
<!-- termin&#45;gui&#45;&gt;tcplot -->
<g id="edge36" class="edge">
<title>termin&#45;gui&#45;&gt;tcplot</title>
<path fill="none" stroke="#666666" stroke-width="1.1" d="M778.86,-1024.1C817.35,-1036.84 878.83,-1057.18 916.54,-1069.66"/>
<polygon fill="#666666" stroke="#666666" stroke-width="1.1" points="915.88,-1072.02 923.29,-1071.89 917.42,-1067.37 915.88,-1072.02"/>
</g>
<!-- termin&#45;nodegraph -->
<g id="node33" class="node">
<title>termin&#45;nodegraph</title>
<path fill="#f7f7f7" stroke="#444444" d="M995,-1030.57C995,-1030.57 906,-1030.57 906,-1030.57 900,-1030.57 894,-1024.57 894,-1018.57 894,-1018.57 894,-1006.57 894,-1006.57 894,-1000.57 900,-994.57 906,-994.57 906,-994.57 995,-994.57 995,-994.57 1001,-994.57 1007,-1000.57 1007,-1006.57 1007,-1006.57 1007,-1018.57 1007,-1018.57 1007,-1024.57 1001,-1030.57 995,-1030.57"/>
<text text-anchor="middle" x="950.5" y="-1009.77" font-family="DejaVu Sans" font-size="11.00">termin&#45;nodegraph</text>
</g>
<!-- termin&#45;gui&#45;&gt;termin&#45;nodegraph -->
<g id="edge38" class="edge">
<title>termin&#45;gui&#45;&gt;termin&#45;nodegraph</title>
<path fill="none" stroke="#666666" stroke-width="1.1" d="M778.86,-1012.57C808.26,-1012.57 851.08,-1012.57 886.47,-1012.57"/>
<polygon fill="#666666" stroke="#666666" stroke-width="1.1" points="886.9,-1015.02 893.9,-1012.57 886.9,-1010.12 886.9,-1015.02"/>
</g>
<!-- termin&#45;nodegraph&#45;&gt;termin&#45;app -->
<g id="edge47" class="edge">
<title>termin&#45;nodegraph&#45;&gt;termin&#45;app</title>
<path fill="none" stroke="#666666" stroke-width="1.1" d="M1007.17,-1008.74C1125.76,-997.27 1402.43,-952.15 1525,-777.57 1585.3,-691.67 1513.44,-632.28 1574,-546.57 1577.51,-541.59 1582.01,-537.2 1586.92,-533.38"/>
<polygon fill="#666666" stroke="#666666" stroke-width="1.1" points="1588.57,-535.21 1592.83,-529.14 1585.72,-531.23 1588.57,-535.21"/>
</g>
<!-- termin&#45;render&#45;passes&#45;&gt;termin&#45;app -->
<g id="edge51" class="edge">
<title>termin&#45;render&#45;passes&#45;&gt;termin&#45;app</title>
<path fill="none" stroke="#666666" stroke-width="1.1" d="M1451.69,-725.33C1470.82,-704.54 1502.06,-669.07 1525,-635.57 1550.51,-598.31 1542.82,-579.23 1574,-546.57 1578.09,-542.28 1582.84,-538.32 1587.8,-534.74"/>
<polygon fill="#666666" stroke="#666666" stroke-width="1.1" points="1589.3,-536.68 1593.7,-530.7 1586.54,-532.63 1589.3,-536.68"/>
</g>
<!-- termin&#45;render&#45;passes&#45;&gt;termin&#45;android -->
<g id="edge50" class="edge">
<title>termin&#45;render&#45;passes&#45;&gt;termin&#45;android</title>
<path fill="none" stroke="#666666" stroke-width="1.1" d="M1461.21,-761.78C1496.55,-785.89 1558.83,-828.37 1596.91,-854.34"/>
<polygon fill="#666666" stroke="#666666" stroke-width="1.1" points="1595.64,-856.44 1602.81,-858.36 1598.4,-852.39 1595.64,-856.44"/>
</g>
</g>
</svg>
