<?xml version="1.0" encoding="UTF-8" standalone="no"?>
<!DOCTYPE svg PUBLIC "-//W3C//DTD SVG 1.1//EN"
 "http://www.w3.org/Graphics/SVG/1.1/DTD/svg11.dtd">
<!-- Generated by graphviz version 2.43.0 (0)
 -->
<!-- Title: termin_dependencies Pages: 1 -->
<svg width="1384pt" height="474pt"
 viewBox="0.00 0.00 1383.80 474.12" xmlns="http://www.w3.org/2000/svg" xmlns:xlink="http://www.w3.org/1999/xlink">
<g id="graph0" class="graph" transform="scale(1 1) rotate(0) translate(14.4 459.72)">
<title>termin_dependencies</title>
<polygon fill="white" stroke="transparent" points="-14.4,14.4 -14.4,-459.72 1369.4,-459.72 1369.4,14.4 -14.4,14.4"/>
<g id="clust1" class="cluster">
<title>cluster_foundation</title>
<path fill="white" stroke="#d9d9d9" d="M20,-126.32C20,-126.32 589,-126.32 589,-126.32 595,-126.32 601,-132.32 601,-138.32 601,-138.32 601,-325.32 601,-325.32 601,-331.32 595,-337.32 589,-337.32 589,-337.32 20,-337.32 20,-337.32 14,-337.32 8,-331.32 8,-325.32 8,-325.32 8,-138.32 8,-138.32 8,-132.32 14,-126.32 20,-126.32"/>
<text text-anchor="middle" x="304.5" y="-322.12" font-family="Times,serif" font-size="14.00">Foundation</text>
</g>
<g id="clust2" class="cluster">
<title>cluster_render</title>
<path fill="white" stroke="#d9d9d9" d="M332,-43.32C332,-43.32 1060,-43.32 1060,-43.32 1066,-43.32 1072,-49.32 1072,-55.32 1072,-55.32 1072,-106.32 1072,-106.32 1072,-112.32 1066,-118.32 1060,-118.32 1060,-118.32 332,-118.32 332,-118.32 326,-118.32 320,-112.32 320,-106.32 320,-106.32 320,-55.32 320,-55.32 320,-49.32 326,-43.32 332,-43.32"/>
<text text-anchor="middle" x="696" y="-103.12" font-family="Times,serif" font-size="14.00">Render Stack</text>
</g>
<g id="clust3" class="cluster">
<title>cluster_components</title>
<path fill="white" stroke="#d9d9d9" d="M662,-226.32C662,-226.32 833,-226.32 833,-226.32 839,-226.32 845,-232.32 845,-238.32 845,-238.32 845,-425.32 845,-425.32 845,-431.32 839,-437.32 833,-437.32 833,-437.32 662,-437.32 662,-437.32 656,-437.32 650,-431.32 650,-425.32 650,-425.32 650,-238.32 650,-238.32 650,-232.32 656,-226.32 662,-226.32"/>
<text text-anchor="middle" x="747.5" y="-422.12" font-family="Times,serif" font-size="14.00">Other Components</text>
</g>
<g id="clust4" class="cluster">
<title>cluster_runtime</title>
<path fill="white" stroke="#d9d9d9" d="M1133,-159.32C1133,-159.32 1335,-159.32 1335,-159.32 1341,-159.32 1347,-165.32 1347,-171.32 1347,-171.32 1347,-222.32 1347,-222.32 1347,-228.32 1341,-234.32 1335,-234.32 1335,-234.32 1133,-234.32 1133,-234.32 1127,-234.32 1121,-228.32 1121,-222.32 1121,-222.32 1121,-171.32 1121,-171.32 1121,-165.32 1127,-159.32 1133,-159.32"/>
<text text-anchor="middle" x="1234" y="-219.12" font-family="Times,serif" font-size="14.00">Runtime</text>
</g>
<!-- termin&#45;base -->
<g id="node1" class="node">
<title>termin&#45;base</title>
<path fill="#f7f7f7" stroke="#444444" d="M85,-238.32C85,-238.32 28,-238.32 28,-238.32 22,-238.32 16,-232.32 16,-226.32 16,-226.32 16,-214.32 16,-214.32 16,-208.32 22,-202.32 28,-202.32 28,-202.32 85,-202.32 85,-202.32 91,-202.32 97,-208.32 97,-214.32 97,-214.32 97,-226.32 97,-226.32 97,-232.32 91,-238.32 85,-238.32"/>
<text text-anchor="middle" x="56.5" y="-217.52" font-family="DejaVu Sans" font-size="11.00">termin&#45;base</text>
</g>
<!-- termin&#45;mesh -->
<g id="node2" class="node">
<title>termin&#45;mesh</title>
<path fill="#f7f7f7" stroke="#444444" d="M242.5,-306.32C242.5,-306.32 182.5,-306.32 182.5,-306.32 176.5,-306.32 170.5,-300.32 170.5,-294.32 170.5,-294.32 170.5,-282.32 170.5,-282.32 170.5,-276.32 176.5,-270.32 182.5,-270.32 182.5,-270.32 242.5,-270.32 242.5,-270.32 248.5,-270.32 254.5,-276.32 254.5,-282.32 254.5,-282.32 254.5,-294.32 254.5,-294.32 254.5,-300.32 248.5,-306.32 242.5,-306.32"/>
<text text-anchor="middle" x="212.5" y="-285.52" font-family="DejaVu Sans" font-size="11.00">termin&#45;mesh</text>
</g>
<!-- termin&#45;base&#45;&gt;termin&#45;mesh -->
<g id="edge1" class="edge">
<title>termin&#45;base&#45;&gt;termin&#45;mesh</title>
<path fill="none" stroke="#666666" stroke-width="1.1" d="M97.16,-237.83C117.59,-246.86 142.65,-257.92 164.1,-267.39"/>
<polygon fill="#666666" stroke="#666666" stroke-width="1.1" points="163.24,-269.69 170.63,-270.28 165.22,-265.21 163.24,-269.69"/>
</g>
<!-- termin&#45;inspect -->
<g id="node3" class="node">
<title>termin&#45;inspect</title>
<path fill="#f7f7f7" stroke="#444444" d="M247.5,-238.32C247.5,-238.32 177.5,-238.32 177.5,-238.32 171.5,-238.32 165.5,-232.32 165.5,-226.32 165.5,-226.32 165.5,-214.32 165.5,-214.32 165.5,-208.32 171.5,-202.32 177.5,-202.32 177.5,-202.32 247.5,-202.32 247.5,-202.32 253.5,-202.32 259.5,-208.32 259.5,-214.32 259.5,-214.32 259.5,-226.32 259.5,-226.32 259.5,-232.32 253.5,-238.32 247.5,-238.32"/>
<text text-anchor="middle" x="212.5" y="-217.52" font-family="DejaVu Sans" font-size="11.00">termin&#45;inspect</text>
</g>
<!-- termin&#45;base&#45;&gt;termin&#45;inspect -->
<g id="edge2" class="edge">
<title>termin&#45;base&#45;&gt;termin&#45;inspect</title>
<path fill="none" stroke="#666666" stroke-width="1.1" d="M97.16,-220.32C115.73,-220.32 138.13,-220.32 158.16,-220.32"/>
<polygon fill="#666666" stroke="#666666" stroke-width="1.1" points="158.42,-222.77 165.42,-220.32 158.42,-217.87 158.42,-222.77"/>
</g>
<!-- termin&#45;modules -->
<g id="node6" class="node">
<title>termin&#45;modules</title>
<path fill="#f7f7f7" stroke="#444444" d="M251,-170.32C251,-170.32 174,-170.32 174,-170.32 168,-170.32 162,-164.32 162,-158.32 162,-158.32 162,-146.32 162,-146.32 162,-140.32 168,-134.32 174,-134.32 174,-134.32 251,-134.32 251,-134.32 257,-134.32 263,-140.32 263,-146.32 263,-146.32 263,-158.32 263,-158.32 263,-164.32 257,-170.32 251,-170.32"/>
<text text-anchor="middle" x="212.5" y="-149.52" font-family="DejaVu Sans" font-size="11.00">termin&#45;modules</text>
</g>
<!-- termin&#45;base&#45;&gt;termin&#45;modules -->
<g id="edge5" class="edge">
<title>termin&#45;base&#45;&gt;termin&#45;modules</title>
<path fill="none" stroke="#666666" stroke-width="1.1" d="M97.16,-202.81C117.59,-193.79 142.65,-182.72 164.1,-173.25"/>
<polygon fill="#666666" stroke="#666666" stroke-width="1.1" points="165.22,-175.44 170.63,-170.37 163.24,-170.95 165.22,-175.44"/>
</g>
<!-- termin&#45;graphics -->
<g id="node8" class="node">
<title>termin&#45;graphics</title>
<path fill="#f7f7f7" stroke="#444444" d="M417,-87.32C417,-87.32 340,-87.32 340,-87.32 334,-87.32 328,-81.32 328,-75.32 328,-75.32 328,-63.32 328,-63.32 328,-57.32 334,-51.32 340,-51.32 340,-51.32 417,-51.32 417,-51.32 423,-51.32 429,-57.32 429,-63.32 429,-63.32 429,-75.32 429,-75.32 429,-81.32 423,-87.32 417,-87.32"/>
<text text-anchor="middle" x="378.5" y="-66.52" font-family="DejaVu Sans" font-size="11.00">termin&#45;graphics</text>
</g>
<!-- termin&#45;mesh&#45;&gt;termin&#45;graphics -->
<g id="edge7" class="edge">
<title>termin&#45;mesh&#45;&gt;termin&#45;graphics</title>
<path fill="none" stroke="#666666" stroke-width="1.1" d="M245.6,-270.28C251.94,-265.67 258.13,-260.31 263,-254.32 304.36,-203.48 281.34,-171.24 320,-118.32 327.11,-108.59 336.53,-99.53 345.68,-91.91"/>
<polygon fill="#666666" stroke="#666666" stroke-width="1.1" points="347.41,-93.66 351.32,-87.36 344.34,-89.85 347.41,-93.66"/>
</g>
<!-- termin&#45;components&#45;collision -->
<g id="node12" class="node">
<title>termin&#45;components&#45;collision</title>
<path fill="#f7f7f7" stroke="#444444" d="M820.5,-338.32C820.5,-338.32 674.5,-338.32 674.5,-338.32 668.5,-338.32 662.5,-332.32 662.5,-326.32 662.5,-326.32 662.5,-314.32 662.5,-314.32 662.5,-308.32 668.5,-302.32 674.5,-302.32 674.5,-302.32 820.5,-302.32 820.5,-302.32 826.5,-302.32 832.5,-308.32 832.5,-314.32 832.5,-314.32 832.5,-326.32 832.5,-326.32 832.5,-332.32 826.5,-338.32 820.5,-338.32"/>
<text text-anchor="middle" x="747.5" y="-317.52" font-family="DejaVu Sans" font-size="11.00">termin&#45;components&#45;collision</text>
</g>
<!-- termin&#45;mesh&#45;&gt;termin&#45;components&#45;collision -->
<g id="edge13" class="edge">
<title>termin&#45;mesh&#45;&gt;termin&#45;components&#45;collision</title>
<path fill="none" stroke="#666666" stroke-width="1.1" d="M254.88,-290.81C340.29,-295.93 537.87,-307.8 654.89,-314.82"/>
<polygon fill="#666666" stroke="#666666" stroke-width="1.1" points="655,-317.28 662.13,-315.26 655.29,-312.39 655,-317.28"/>
</g>
<!-- termin&#45;components&#45;mesh -->
<g id="node13" class="node">
<title>termin&#45;components&#45;mesh</title>
<path fill="#f7f7f7" stroke="#444444" d="M813.5,-406.32C813.5,-406.32 681.5,-406.32 681.5,-406.32 675.5,-406.32 669.5,-400.32 669.5,-394.32 669.5,-394.32 669.5,-382.32 669.5,-382.32 669.5,-376.32 675.5,-370.32 681.5,-370.32 681.5,-370.32 813.5,-370.32 813.5,-370.32 819.5,-370.32 825.5,-376.32 825.5,-382.32 825.5,-382.32 825.5,-394.32 825.5,-394.32 825.5,-400.32 819.5,-406.32 813.5,-406.32"/>
<text text-anchor="middle" x="747.5" y="-385.52" font-family="DejaVu Sans" font-size="11.00">termin&#45;components&#45;mesh</text>
</g>
<!-- termin&#45;mesh&#45;&gt;termin&#45;components&#45;mesh -->
<g id="edge15" class="edge">
<title>termin&#45;mesh&#45;&gt;termin&#45;components&#45;mesh</title>
<path fill="none" stroke="#666666" stroke-width="1.1" d="M254.55,-303.08C274.16,-309.7 298.09,-317.16 320,-322.32 437.22,-349.93 575.38,-368.89 661.97,-379.17"/>
<polygon fill="#666666" stroke="#666666" stroke-width="1.1" points="661.91,-381.63 669.15,-380.02 662.48,-376.77 661.91,-381.63"/>
</g>
<!-- termin&#45;scene -->
<g id="node4" class="node">
<title>termin&#45;scene</title>
<path fill="#f7f7f7" stroke="#444444" d="M410,-238.32C410,-238.32 347,-238.32 347,-238.32 341,-238.32 335,-232.32 335,-226.32 335,-226.32 335,-214.32 335,-214.32 335,-208.32 341,-202.32 347,-202.32 347,-202.32 410,-202.32 410,-202.32 416,-202.32 422,-208.32 422,-214.32 422,-214.32 422,-226.32 422,-226.32 422,-232.32 416,-238.32 410,-238.32"/>
<text text-anchor="middle" x="378.5" y="-217.52" font-family="DejaVu Sans" font-size="11.00">termin&#45;scene</text>
</g>
<!-- termin&#45;inspect&#45;&gt;termin&#45;scene -->
<g id="edge3" class="edge">
<title>termin&#45;inspect&#45;&gt;termin&#45;scene</title>
<path fill="none" stroke="#666666" stroke-width="1.1" d="M259.62,-220.32C280.81,-220.32 305.99,-220.32 327.63,-220.32"/>
<polygon fill="#666666" stroke="#666666" stroke-width="1.1" points="327.82,-222.77 334.82,-220.32 327.82,-217.87 327.82,-222.77"/>
</g>
<!-- termin&#45;input -->
<g id="node5" class="node">
<title>termin&#45;input</title>
<path fill="#f7f7f7" stroke="#444444" d="M572.5,-170.32C572.5,-170.32 514.5,-170.32 514.5,-170.32 508.5,-170.32 502.5,-164.32 502.5,-158.32 502.5,-158.32 502.5,-146.32 502.5,-146.32 502.5,-140.32 508.5,-134.32 514.5,-134.32 514.5,-134.32 572.5,-134.32 572.5,-134.32 578.5,-134.32 584.5,-140.32 584.5,-146.32 584.5,-146.32 584.5,-158.32 584.5,-158.32 584.5,-164.32 578.5,-170.32 572.5,-170.32"/>
<text text-anchor="middle" x="543.5" y="-149.52" font-family="DejaVu Sans" font-size="11.00">termin&#45;input</text>
</g>
<!-- termin&#45;scene&#45;&gt;termin&#45;input -->
<g id="edge4" class="edge">
<title>termin&#45;scene&#45;&gt;termin&#45;input</title>
<path fill="none" stroke="#666666" stroke-width="1.1" d="M422.33,-202.46C444.9,-193.04 472.64,-181.47 495.77,-171.82"/>
<polygon fill="#666666" stroke="#666666" stroke-width="1.1" points="496.96,-173.97 502.48,-169.02 495.08,-169.45 496.96,-173.97"/>
</g>
<!-- termin&#45;collision -->
<g id="node7" class="node">
<title>termin&#45;collision</title>
<path fill="#f7f7f7" stroke="#444444" d="M581,-238.32C581,-238.32 506,-238.32 506,-238.32 500,-238.32 494,-232.32 494,-226.32 494,-226.32 494,-214.32 494,-214.32 494,-208.32 500,-202.32 506,-202.32 506,-202.32 581,-202.32 581,-202.32 587,-202.32 593,-208.32 593,-214.32 593,-214.32 593,-226.32 593,-226.32 593,-232.32 587,-238.32 581,-238.32"/>
<text text-anchor="middle" x="543.5" y="-217.52" font-family="DejaVu Sans" font-size="11.00">termin&#45;collision</text>
</g>
<!-- termin&#45;scene&#45;&gt;termin&#45;collision -->
<g id="edge6" class="edge">
<title>termin&#45;scene&#45;&gt;termin&#45;collision</title>
<path fill="none" stroke="#666666" stroke-width="1.1" d="M422.33,-220.32C442.07,-220.32 465.76,-220.32 486.87,-220.32"/>
<polygon fill="#666666" stroke="#666666" stroke-width="1.1" points="486.92,-222.77 493.92,-220.32 486.92,-217.87 486.92,-222.77"/>
</g>
<!-- termin&#45;render -->
<g id="node9" class="node">
<title>termin&#45;render</title>
<path fill="#f7f7f7" stroke="#444444" d="M576.5,-87.32C576.5,-87.32 510.5,-87.32 510.5,-87.32 504.5,-87.32 498.5,-81.32 498.5,-75.32 498.5,-75.32 498.5,-63.32 498.5,-63.32 498.5,-57.32 504.5,-51.32 510.5,-51.32 510.5,-51.32 576.5,-51.32 576.5,-51.32 582.5,-51.32 588.5,-57.32 588.5,-63.32 588.5,-63.32 588.5,-75.32 588.5,-75.32 588.5,-81.32 582.5,-87.32 576.5,-87.32"/>
<text text-anchor="middle" x="543.5" y="-66.52" font-family="DejaVu Sans" font-size="11.00">termin&#45;render</text>
</g>
<!-- termin&#45;scene&#45;&gt;termin&#45;render -->
<g id="edge8" class="edge">
<title>termin&#45;scene&#45;&gt;termin&#45;render</title>
<path fill="none" stroke="#666666" stroke-width="1.1" d="M399.16,-202.11C428.86,-174.6 485.13,-122.47 517.63,-92.36"/>
<polygon fill="#666666" stroke="#666666" stroke-width="1.1" points="519.55,-93.92 523.02,-87.37 516.22,-90.33 519.55,-93.92"/>
</g>
<!-- termin&#45;scene&#45;&gt;termin&#45;components&#45;mesh -->
<g id="edge16" class="edge">
<title>termin&#45;scene&#45;&gt;termin&#45;components&#45;mesh</title>
<path fill="none" stroke="#666666" stroke-width="1.1" d="M411.78,-238.52C434.56,-251.18 465.91,-268.25 494,-282.32 562.28,-316.52 579.24,-325.6 650,-354.32 661.35,-358.93 673.59,-363.52 685.41,-367.77"/>
<polygon fill="#666666" stroke="#666666" stroke-width="1.1" points="684.9,-370.19 692.32,-370.23 686.55,-365.58 684.9,-370.19"/>
</g>
<!-- termin&#45;components&#45;kinematic -->
<g id="node14" class="node">
<title>termin&#45;components&#45;kinematic</title>
<path fill="#f7f7f7" stroke="#444444" d="M825,-270.32C825,-270.32 670,-270.32 670,-270.32 664,-270.32 658,-264.32 658,-258.32 658,-258.32 658,-246.32 658,-246.32 658,-240.32 664,-234.32 670,-234.32 670,-234.32 825,-234.32 825,-234.32 831,-234.32 837,-240.32 837,-246.32 837,-246.32 837,-258.32 837,-258.32 837,-264.32 831,-270.32 825,-270.32"/>
<text text-anchor="middle" x="747.5" y="-249.52" font-family="DejaVu Sans" font-size="11.00">termin&#45;components&#45;kinematic</text>
</g>
<!-- termin&#45;scene&#45;&gt;termin&#45;components&#45;kinematic -->
<g id="edge17" class="edge">
<title>termin&#45;scene&#45;&gt;termin&#45;components&#45;kinematic</title>
<path fill="none" stroke="#666666" stroke-width="1.1" d="M422.07,-236.15C443.34,-243.24 469.68,-250.79 494,-254.32 545.37,-261.79 603.25,-261.92 650.62,-259.9"/>
<polygon fill="#666666" stroke="#666666" stroke-width="1.1" points="650.95,-262.34 657.83,-259.58 650.72,-257.45 650.95,-262.34"/>
</g>
<!-- termin&#45;display -->
<g id="node10" class="node">
<title>termin&#45;display</title>
<path fill="#f7f7f7" stroke="#444444" d="M782,-87.32C782,-87.32 713,-87.32 713,-87.32 707,-87.32 701,-81.32 701,-75.32 701,-75.32 701,-63.32 701,-63.32 701,-57.32 707,-51.32 713,-51.32 713,-51.32 782,-51.32 782,-51.32 788,-51.32 794,-57.32 794,-63.32 794,-63.32 794,-75.32 794,-75.32 794,-81.32 788,-87.32 782,-87.32"/>
<text text-anchor="middle" x="747.5" y="-66.52" font-family="DejaVu Sans" font-size="11.00">termin&#45;display</text>
</g>
<!-- termin&#45;input&#45;&gt;termin&#45;display -->
<g id="edge10" class="edge">
<title>termin&#45;input&#45;&gt;termin&#45;display</title>
<path fill="none" stroke="#666666" stroke-width="1.1" d="M584.89,-135.73C616.84,-122.6 661.63,-104.19 695.96,-90.09"/>
<polygon fill="#666666" stroke="#666666" stroke-width="1.1" points="697.13,-92.26 702.68,-87.33 695.27,-87.72 697.13,-92.26"/>
</g>
<!-- termin -->
<g id="node16" class="node">
<title>termin</title>
<path fill="#f7f7f7" stroke="#444444" d="M1327,-203.32C1327,-203.32 1297,-203.32 1297,-203.32 1291,-203.32 1285,-197.32 1285,-191.32 1285,-191.32 1285,-179.32 1285,-179.32 1285,-173.32 1291,-167.32 1297,-167.32 1297,-167.32 1327,-167.32 1327,-167.32 1333,-167.32 1339,-173.32 1339,-179.32 1339,-179.32 1339,-191.32 1339,-191.32 1339,-197.32 1333,-203.32 1327,-203.32"/>
<text text-anchor="middle" x="1312" y="-182.52" font-family="DejaVu Sans" font-size="11.00">termin</text>
</g>
<!-- termin&#45;modules&#45;&gt;termin -->
<g id="edge20" class="edge">
<title>termin&#45;modules&#45;&gt;termin</title>
<path fill="none" stroke="#666666" stroke-width="1.1" d="M224.27,-134.1C241.06,-107.51 276.13,-58.71 320,-35.32 408.22,11.71 442.53,-2.32 542.5,-2.32 542.5,-2.32 542.5,-2.32 984,-2.32 1113.3,-2.32 1238.94,-112.63 1288.66,-161.96"/>
<polygon fill="#666666" stroke="#666666" stroke-width="1.1" points="1287.11,-163.88 1293.79,-167.11 1290.58,-160.42 1287.11,-163.88"/>
</g>
<!-- termin&#45;collision&#45;&gt;termin&#45;components&#45;collision -->
<g id="edge14" class="edge">
<title>termin&#45;collision&#45;&gt;termin&#45;components&#45;collision</title>
<path fill="none" stroke="#666666" stroke-width="1.1" d="M570.03,-238.53C590.85,-252.82 621.39,-272.54 650,-286.32 660.14,-291.21 671.17,-295.75 682.03,-299.83"/>
<polygon fill="#666666" stroke="#666666" stroke-width="1.1" points="681.34,-302.19 688.76,-302.31 683.04,-297.59 681.34,-302.19"/>
</g>
<!-- termin&#45;engine -->
<g id="node15" class="node">
<title>termin&#45;engine</title>
<path fill="#f7f7f7" stroke="#444444" d="M1208,-203.32C1208,-203.32 1141,-203.32 1141,-203.32 1135,-203.32 1129,-197.32 1129,-191.32 1129,-191.32 1129,-179.32 1129,-179.32 1129,-173.32 1135,-167.32 1141,-167.32 1141,-167.32 1208,-167.32 1208,-167.32 1214,-167.32 1220,-173.32 1220,-179.32 1220,-179.32 1220,-191.32 1220,-191.32 1220,-197.32 1214,-203.32 1208,-203.32"/>
<text text-anchor="middle" x="1174.5" y="-182.52" font-family="DejaVu Sans" font-size="11.00">termin&#45;engine</text>
</g>
<!-- termin&#45;collision&#45;&gt;termin&#45;engine -->
<g id="edge18" class="edge">
<title>termin&#45;collision&#45;&gt;termin&#45;engine</title>
<path fill="none" stroke="#666666" stroke-width="1.1" d="M593.07,-217.62C709.22,-211.16 1002.21,-194.85 1121.63,-188.21"/>
<polygon fill="#666666" stroke="#666666" stroke-width="1.1" points="1122.04,-190.64 1128.9,-187.8 1121.77,-185.75 1122.04,-190.64"/>
</g>
<!-- termin&#45;graphics&#45;&gt;termin&#45;render -->
<g id="edge9" class="edge">
<title>termin&#45;graphics&#45;&gt;termin&#45;render</title>
<path fill="none" stroke="#666666" stroke-width="1.1" d="M429.29,-69.32C448.89,-69.32 471.38,-69.32 491.13,-69.32"/>
<polygon fill="#666666" stroke="#666666" stroke-width="1.1" points="491.27,-71.77 498.27,-69.32 491.27,-66.87 491.27,-71.77"/>
</g>
<!-- termin&#45;render&#45;&gt;termin&#45;display -->
<g id="edge11" class="edge">
<title>termin&#45;render&#45;&gt;termin&#45;display</title>
<path fill="none" stroke="#666666" stroke-width="1.1" d="M588.83,-69.32C619.71,-69.32 661.04,-69.32 693.64,-69.32"/>
<polygon fill="#666666" stroke="#666666" stroke-width="1.1" points="693.87,-71.77 700.87,-69.32 693.87,-66.87 693.87,-71.77"/>
</g>
<!-- termin&#45;components&#45;render -->
<g id="node11" class="node">
<title>termin&#45;components&#45;render</title>
<path fill="#f7f7f7" stroke="#444444" d="M1052,-87.32C1052,-87.32 914,-87.32 914,-87.32 908,-87.32 902,-81.32 902,-75.32 902,-75.32 902,-63.32 902,-63.32 902,-57.32 908,-51.32 914,-51.32 914,-51.32 1052,-51.32 1052,-51.32 1058,-51.32 1064,-57.32 1064,-63.32 1064,-63.32 1064,-75.32 1064,-75.32 1064,-81.32 1058,-87.32 1052,-87.32"/>
<text text-anchor="middle" x="983" y="-66.52" font-family="DejaVu Sans" font-size="11.00">termin&#45;components&#45;render</text>
</g>
<!-- termin&#45;display&#45;&gt;termin&#45;components&#45;render -->
<g id="edge12" class="edge">
<title>termin&#45;display&#45;&gt;termin&#45;components&#45;render</title>
<path fill="none" stroke="#666666" stroke-width="1.1" d="M794.08,-69.32C822.57,-69.32 860.22,-69.32 894.33,-69.32"/>
<polygon fill="#666666" stroke="#666666" stroke-width="1.1" points="894.55,-71.77 901.55,-69.32 894.55,-66.87 894.55,-71.77"/>
</g>
<!-- termin&#45;components&#45;render&#45;&gt;termin&#45;engine -->
<g id="edge19" class="edge">
<title>termin&#45;components&#45;render&#45;&gt;termin&#45;engine</title>
<path fill="none" stroke="#666666" stroke-width="1.1" d="M1013.61,-87.45C1047.16,-107.99 1101.85,-141.46 1137.75,-163.44"/>
<polygon fill="#666666" stroke="#666666" stroke-width="1.1" points="1136.54,-165.57 1143.79,-167.13 1139.1,-161.39 1136.54,-165.57"/>
</g>
<!-- termin&#45;components&#45;collision&#45;&gt;termin -->
<g id="edge21" class="edge">
<title>termin&#45;components&#45;collision&#45;&gt;termin</title>
<path fill="none" stroke="#666666" stroke-width="1.1" d="M832.57,-320.01C929.4,-316.97 1091.64,-303.54 1220,-251.32 1244.69,-241.28 1268.93,-223.17 1286.18,-208.46"/>
<polygon fill="#666666" stroke="#666666" stroke-width="1.1" points="1288.08,-210.06 1291.75,-203.61 1284.86,-206.36 1288.08,-210.06"/>
</g>
<!-- termin&#45;components&#45;kinematic&#45;&gt;termin -->
<g id="edge22" class="edge">
<title>termin&#45;components&#45;kinematic&#45;&gt;termin</title>
<path fill="none" stroke="#666666" stroke-width="1.1" d="M837.34,-253.66C932.93,-253.35 1088.89,-247.78 1220,-219.32 1239.93,-215 1261.34,-207.17 1278.39,-200.11"/>
<polygon fill="#666666" stroke="#666666" stroke-width="1.1" points="1279.43,-202.33 1284.93,-197.36 1277.53,-197.82 1279.43,-202.33"/>
</g>
<!-- termin&#45;engine&#45;&gt;termin -->
<g id="edge23" class="edge">
<title>termin&#45;engine&#45;&gt;termin</title>
<path fill="none" stroke="#666666" stroke-width="1.1" d="M1220.24,-185.32C1238.99,-185.32 1260.41,-185.32 1277.73,-185.32"/>
<polygon fill="#666666" stroke="#666666" stroke-width="1.1" points="1277.89,-187.77 1284.89,-185.32 1277.89,-182.87 1277.89,-187.77"/>
</g>
</g>
</svg>
