<?xml version="1.0" encoding="UTF-8" standalone="no"?>
<!DOCTYPE svg PUBLIC "-//W3C//DTD SVG 1.1//EN"
 "http://www.w3.org/Graphics/SVG/1.1/DTD/svg11.dtd">
<!-- Generated by graphviz version 2.43.0 (0)
 -->
<!-- Title: termin_dependencies Pages: 1 -->
<svg width="1431pt" height="1035pt"
 viewBox="0.00 0.00 1430.80 1034.70" xmlns="http://www.w3.org/2000/svg" xmlns:xlink="http://www.w3.org/1999/xlink">
<g id="graph0" class="graph" transform="scale(1 1) rotate(0) translate(14.4 1020.3)">
<title>termin_dependencies</title>
<polygon fill="white" stroke="transparent" points="-14.4,14.4 -14.4,-1020.3 1416.4,-1020.3 1416.4,14.4 -14.4,14.4"/>
<g id="clust1" class="cluster">
<title>cluster_foundation</title>
<path fill="white" stroke="#d9d9d9" d="M20,-431.9C20,-431.9 800,-431.9 800,-431.9 806,-431.9 812,-437.9 812,-443.9 812,-443.9 812,-698.9 812,-698.9 812,-704.9 806,-710.9 800,-710.9 800,-710.9 20,-710.9 20,-710.9 14,-710.9 8,-704.9 8,-698.9 8,-698.9 8,-443.9 8,-443.9 8,-437.9 14,-431.9 20,-431.9"/>
<text text-anchor="middle" x="410" y="-695.7" font-family="Times,serif" font-size="14.00">Foundation</text>
</g>
<g id="clust2" class="cluster">
<title>cluster_render</title>
<path fill="white" stroke="#d9d9d9" d="M332,-265.9C332,-265.9 1071,-265.9 1071,-265.9 1077,-265.9 1083,-271.9 1083,-277.9 1083,-277.9 1083,-328.9 1083,-328.9 1083,-334.9 1077,-340.9 1071,-340.9 1071,-340.9 332,-340.9 332,-340.9 326,-340.9 320,-334.9 320,-328.9 320,-328.9 320,-277.9 320,-277.9 320,-271.9 326,-265.9 332,-265.9"/>
<text text-anchor="middle" x="701.5" y="-325.7" font-family="Times,serif" font-size="14.00">Render Stack</text>
</g>
<g id="clust3" class="cluster">
<title>cluster_components</title>
<path fill="white" stroke="#d9d9d9" d="M664,-718.9C664,-718.9 1080,-718.9 1080,-718.9 1086,-718.9 1092,-724.9 1092,-730.9 1092,-730.9 1092,-985.9 1092,-985.9 1092,-991.9 1086,-997.9 1080,-997.9 1080,-997.9 664,-997.9 664,-997.9 658,-997.9 652,-991.9 652,-985.9 652,-985.9 652,-730.9 652,-730.9 652,-724.9 658,-718.9 664,-718.9"/>
<text text-anchor="middle" x="872" y="-982.7" font-family="Times,serif" font-size="14.00">Other Components</text>
</g>
<g id="clust4" class="cluster">
<title>cluster_runtime</title>
<path fill="white" stroke="#d9d9d9" d="M708,-348.9C708,-348.9 791,-348.9 791,-348.9 797,-348.9 803,-354.9 803,-360.9 803,-360.9 803,-411.9 803,-411.9 803,-417.9 797,-423.9 791,-423.9 791,-423.9 708,-423.9 708,-423.9 702,-423.9 696,-417.9 696,-411.9 696,-411.9 696,-360.9 696,-360.9 696,-354.9 702,-348.9 708,-348.9"/>
<text text-anchor="middle" x="749.5" y="-408.7" font-family="Times,serif" font-size="14.00">Runtime</text>
</g>
<g id="clust5" class="cluster">
<title>cluster_ui</title>
<path fill="white" stroke="#d9d9d9" d="M718,-65.9C718,-65.9 1046.5,-65.9 1046.5,-65.9 1052.5,-65.9 1058.5,-71.9 1058.5,-77.9 1058.5,-77.9 1058.5,-128.9 1058.5,-128.9 1058.5,-134.9 1052.5,-140.9 1046.5,-140.9 1046.5,-140.9 718,-140.9 718,-140.9 712,-140.9 706,-134.9 706,-128.9 706,-128.9 706,-77.9 706,-77.9 706,-71.9 712,-65.9 718,-65.9"/>
<text text-anchor="middle" x="882.25" y="-125.7" font-family="Times,serif" font-size="14.00">UI</text>
</g>
<g id="clust6" class="cluster">
<title>cluster_application</title>
<path fill="white" stroke="#d9d9d9" d="M1153,-370.9C1153,-370.9 1242,-370.9 1242,-370.9 1248,-370.9 1254,-376.9 1254,-382.9 1254,-382.9 1254,-501.9 1254,-501.9 1254,-507.9 1248,-513.9 1242,-513.9 1242,-513.9 1153,-513.9 1153,-513.9 1147,-513.9 1141,-507.9 1141,-501.9 1141,-501.9 1141,-382.9 1141,-382.9 1141,-376.9 1147,-370.9 1153,-370.9"/>
<text text-anchor="middle" x="1197.5" y="-498.7" font-family="Times,serif" font-size="14.00">Application</text>
</g>
<!-- termin&#45;base -->
<g id="node1" class="node">
<title>termin&#45;base</title>
<path fill="#f7f7f7" stroke="#444444" d="M85,-551.9C85,-551.9 28,-551.9 28,-551.9 22,-551.9 16,-545.9 16,-539.9 16,-539.9 16,-527.9 16,-527.9 16,-521.9 22,-515.9 28,-515.9 28,-515.9 85,-515.9 85,-515.9 91,-515.9 97,-521.9 97,-527.9 97,-527.9 97,-539.9 97,-539.9 97,-545.9 91,-551.9 85,-551.9"/>
<text text-anchor="middle" x="56.5" y="-531.1" font-family="DejaVu Sans" font-size="11.00">termin&#45;base</text>
</g>
<!-- termin&#45;mesh -->
<g id="node2" class="node">
<title>termin&#45;mesh</title>
<path fill="#f7f7f7" stroke="#444444" d="M242.5,-662.9C242.5,-662.9 182.5,-662.9 182.5,-662.9 176.5,-662.9 170.5,-656.9 170.5,-650.9 170.5,-650.9 170.5,-638.9 170.5,-638.9 170.5,-632.9 176.5,-626.9 182.5,-626.9 182.5,-626.9 242.5,-626.9 242.5,-626.9 248.5,-626.9 254.5,-632.9 254.5,-638.9 254.5,-638.9 254.5,-650.9 254.5,-650.9 254.5,-656.9 248.5,-662.9 242.5,-662.9"/>
<text text-anchor="middle" x="212.5" y="-642.1" font-family="DejaVu Sans" font-size="11.00">termin&#45;mesh</text>
</g>
<!-- termin&#45;base&#45;&gt;termin&#45;mesh -->
<g id="edge1" class="edge">
<title>termin&#45;base&#45;&gt;termin&#45;mesh</title>
<path fill="none" stroke="#666666" stroke-width="1.1" d="M82.59,-551.99C109.32,-571.26 151.69,-601.79 180.49,-622.56"/>
<polygon fill="#666666" stroke="#666666" stroke-width="1.1" points="179.31,-624.73 186.43,-626.83 182.18,-620.75 179.31,-624.73"/>
</g>
<!-- termin&#45;inspect -->
<g id="node3" class="node">
<title>termin&#45;inspect</title>
<path fill="#f7f7f7" stroke="#444444" d="M247.5,-577.9C247.5,-577.9 177.5,-577.9 177.5,-577.9 171.5,-577.9 165.5,-571.9 165.5,-565.9 165.5,-565.9 165.5,-553.9 165.5,-553.9 165.5,-547.9 171.5,-541.9 177.5,-541.9 177.5,-541.9 247.5,-541.9 247.5,-541.9 253.5,-541.9 259.5,-547.9 259.5,-553.9 259.5,-553.9 259.5,-565.9 259.5,-565.9 259.5,-571.9 253.5,-577.9 247.5,-577.9"/>
<text text-anchor="middle" x="212.5" y="-557.1" font-family="DejaVu Sans" font-size="11.00">termin&#45;inspect</text>
</g>
<!-- termin&#45;base&#45;&gt;termin&#45;inspect -->
<g id="edge2" class="edge">
<title>termin&#45;base&#45;&gt;termin&#45;inspect</title>
<path fill="none" stroke="#666666" stroke-width="1.1" d="M97.16,-540.6C115.81,-543.75 138.33,-547.55 158.42,-550.94"/>
<polygon fill="#666666" stroke="#666666" stroke-width="1.1" points="158.11,-553.38 165.42,-552.12 158.93,-548.54 158.11,-553.38"/>
</g>
<!-- termin&#45;modules -->
<g id="node6" class="node">
<title>termin&#45;modules</title>
<path fill="#f7f7f7" stroke="#444444" d="M251,-475.9C251,-475.9 174,-475.9 174,-475.9 168,-475.9 162,-469.9 162,-463.9 162,-463.9 162,-451.9 162,-451.9 162,-445.9 168,-439.9 174,-439.9 174,-439.9 251,-439.9 251,-439.9 257,-439.9 263,-445.9 263,-451.9 263,-451.9 263,-463.9 263,-463.9 263,-469.9 257,-475.9 251,-475.9"/>
<text text-anchor="middle" x="212.5" y="-455.1" font-family="DejaVu Sans" font-size="11.00">termin&#45;modules</text>
</g>
<!-- termin&#45;base&#45;&gt;termin&#45;modules -->
<g id="edge3" class="edge">
<title>termin&#45;base&#45;&gt;termin&#45;modules</title>
<path fill="none" stroke="#666666" stroke-width="1.1" d="M94,-515.89C116.35,-504.86 145.08,-490.68 168.53,-479.11"/>
<polygon fill="#666666" stroke="#666666" stroke-width="1.1" points="169.81,-481.21 175,-475.92 167.64,-476.82 169.81,-481.21"/>
</g>
<!-- termin&#45;physics -->
<g id="node8" class="node">
<title>termin&#45;physics</title>
<path fill="#f7f7f7" stroke="#444444" d="M785.5,-573.9C785.5,-573.9 713.5,-573.9 713.5,-573.9 707.5,-573.9 701.5,-567.9 701.5,-561.9 701.5,-561.9 701.5,-549.9 701.5,-549.9 701.5,-543.9 707.5,-537.9 713.5,-537.9 713.5,-537.9 785.5,-537.9 785.5,-537.9 791.5,-537.9 797.5,-543.9 797.5,-549.9 797.5,-549.9 797.5,-561.9 797.5,-561.9 797.5,-567.9 791.5,-573.9 785.5,-573.9"/>
<text text-anchor="middle" x="749.5" y="-553.1" font-family="DejaVu Sans" font-size="11.00">termin&#45;physics</text>
</g>
<!-- termin&#45;base&#45;&gt;termin&#45;physics -->
<g id="edge4" class="edge">
<title>termin&#45;base&#45;&gt;termin&#45;physics</title>
<path fill="none" stroke="#666666" stroke-width="1.1" d="M97.24,-526.08C189.57,-508.04 416.6,-464.59 494,-457.9 538.72,-454.04 551.91,-445.32 595,-457.9 645.08,-472.53 694.37,-509.01 723.08,-533.1"/>
<polygon fill="#666666" stroke="#666666" stroke-width="1.1" points="721.63,-535.08 728.55,-537.74 724.8,-531.34 721.63,-535.08"/>
</g>
<!-- termin&#45;graphics -->
<g id="node11" class="node">
<title>termin&#45;graphics</title>
<path fill="#f7f7f7" stroke="#444444" d="M417,-309.9C417,-309.9 340,-309.9 340,-309.9 334,-309.9 328,-303.9 328,-297.9 328,-297.9 328,-285.9 328,-285.9 328,-279.9 334,-273.9 340,-273.9 340,-273.9 417,-273.9 417,-273.9 423,-273.9 429,-279.9 429,-285.9 429,-285.9 429,-297.9 429,-297.9 429,-303.9 423,-309.9 417,-309.9"/>
<text text-anchor="middle" x="378.5" y="-289.1" font-family="DejaVu Sans" font-size="11.00">termin&#45;graphics</text>
</g>
<!-- termin&#45;mesh&#45;&gt;termin&#45;graphics -->
<g id="edge5" class="edge">
<title>termin&#45;mesh&#45;&gt;termin&#45;graphics</title>
<path fill="none" stroke="#666666" stroke-width="1.1" d="M235.04,-626.8C244.69,-617.75 255.56,-606.13 263,-593.9 304.45,-525.84 291.39,-498.28 320,-423.9 334.58,-386 353.81,-343.03 365.92,-316.7"/>
<polygon fill="#666666" stroke="#666666" stroke-width="1.1" points="368.28,-317.44 368.99,-310.06 363.83,-315.39 368.28,-317.44"/>
</g>
<!-- termin&#45;components&#45;collision -->
<g id="node15" class="node">
<title>termin&#45;components&#45;collision</title>
<path fill="#f7f7f7" stroke="#444444" d="M822.5,-762.9C822.5,-762.9 676.5,-762.9 676.5,-762.9 670.5,-762.9 664.5,-756.9 664.5,-750.9 664.5,-750.9 664.5,-738.9 664.5,-738.9 664.5,-732.9 670.5,-726.9 676.5,-726.9 676.5,-726.9 822.5,-726.9 822.5,-726.9 828.5,-726.9 834.5,-732.9 834.5,-738.9 834.5,-738.9 834.5,-750.9 834.5,-750.9 834.5,-756.9 828.5,-762.9 822.5,-762.9"/>
<text text-anchor="middle" x="749.5" y="-742.1" font-family="DejaVu Sans" font-size="11.00">termin&#45;components&#45;collision</text>
</g>
<!-- termin&#45;mesh&#45;&gt;termin&#45;components&#45;collision -->
<g id="edge6" class="edge">
<title>termin&#45;mesh&#45;&gt;termin&#45;components&#45;collision</title>
<path fill="none" stroke="#666666" stroke-width="1.1" d="M254.59,-652.58C340.24,-668.59 539.62,-705.86 657.2,-727.84"/>
<polygon fill="#666666" stroke="#666666" stroke-width="1.1" points="656.8,-730.26 664.13,-729.13 657.7,-725.44 656.8,-730.26"/>
</g>
<!-- termin&#45;components&#45;mesh -->
<g id="node19" class="node">
<title>termin&#45;components&#45;mesh</title>
<path fill="#f7f7f7" stroke="#444444" d="M815.5,-966.9C815.5,-966.9 683.5,-966.9 683.5,-966.9 677.5,-966.9 671.5,-960.9 671.5,-954.9 671.5,-954.9 671.5,-942.9 671.5,-942.9 671.5,-936.9 677.5,-930.9 683.5,-930.9 683.5,-930.9 815.5,-930.9 815.5,-930.9 821.5,-930.9 827.5,-936.9 827.5,-942.9 827.5,-942.9 827.5,-954.9 827.5,-954.9 827.5,-960.9 821.5,-966.9 815.5,-966.9"/>
<text text-anchor="middle" x="749.5" y="-946.1" font-family="DejaVu Sans" font-size="11.00">termin&#45;components&#45;mesh</text>
</g>
<!-- termin&#45;mesh&#45;&gt;termin&#45;components&#45;mesh -->
<g id="edge7" class="edge">
<title>termin&#45;mesh&#45;&gt;termin&#45;components&#45;mesh</title>
<path fill="none" stroke="#666666" stroke-width="1.1" d="M232.75,-663.07C276.22,-703.26 386.54,-800.73 494,-858.9 559.52,-894.37 581.75,-890.08 652,-914.9 664.36,-919.27 677.62,-923.95 690.23,-928.39"/>
<polygon fill="#666666" stroke="#666666" stroke-width="1.1" points="689.74,-930.82 697.16,-930.84 691.37,-926.2 689.74,-930.82"/>
</g>
<!-- termin&#45;scene -->
<g id="node4" class="node">
<title>termin&#45;scene</title>
<path fill="#f7f7f7" stroke="#444444" d="M410,-611.9C410,-611.9 347,-611.9 347,-611.9 341,-611.9 335,-605.9 335,-599.9 335,-599.9 335,-587.9 335,-587.9 335,-581.9 341,-575.9 347,-575.9 347,-575.9 410,-575.9 410,-575.9 416,-575.9 422,-581.9 422,-587.9 422,-587.9 422,-599.9 422,-599.9 422,-605.9 416,-611.9 410,-611.9"/>
<text text-anchor="middle" x="378.5" y="-591.1" font-family="DejaVu Sans" font-size="11.00">termin&#45;scene</text>
</g>
<!-- termin&#45;inspect&#45;&gt;termin&#45;scene -->
<g id="edge8" class="edge">
<title>termin&#45;inspect&#45;&gt;termin&#45;scene</title>
<path fill="none" stroke="#666666" stroke-width="1.1" d="M259.62,-569.47C280.91,-573.88 306.21,-579.12 327.91,-583.62"/>
<polygon fill="#666666" stroke="#666666" stroke-width="1.1" points="327.46,-586.03 334.82,-585.06 328.46,-581.24 327.46,-586.03"/>
</g>
<!-- termin&#45;animation -->
<g id="node10" class="node">
<title>termin&#45;animation</title>
<path fill="#f7f7f7" stroke="#444444" d="M792,-679.9C792,-679.9 707,-679.9 707,-679.9 701,-679.9 695,-673.9 695,-667.9 695,-667.9 695,-655.9 695,-655.9 695,-649.9 701,-643.9 707,-643.9 707,-643.9 792,-643.9 792,-643.9 798,-643.9 804,-649.9 804,-655.9 804,-655.9 804,-667.9 804,-667.9 804,-673.9 798,-679.9 792,-679.9"/>
<text text-anchor="middle" x="749.5" y="-659.1" font-family="DejaVu Sans" font-size="11.00">termin&#45;animation</text>
</g>
<!-- termin&#45;inspect&#45;&gt;termin&#45;animation -->
<g id="edge19" class="edge">
<title>termin&#45;inspect&#45;&gt;termin&#45;animation</title>
<path fill="none" stroke="#666666" stroke-width="1.1" d="M259.67,-551.5C332.69,-540.05 478.49,-524.72 595,-559.9 621.6,-567.94 682.78,-612.03 719.36,-639.55"/>
<polygon fill="#666666" stroke="#666666" stroke-width="1.1" points="717.95,-641.55 725.01,-643.82 720.9,-637.64 717.95,-641.55"/>
</g>
<!-- termin&#45;input -->
<g id="node5" class="node">
<title>termin&#45;input</title>
<path fill="#f7f7f7" stroke="#444444" d="M573.5,-509.9C573.5,-509.9 515.5,-509.9 515.5,-509.9 509.5,-509.9 503.5,-503.9 503.5,-497.9 503.5,-497.9 503.5,-485.9 503.5,-485.9 503.5,-479.9 509.5,-473.9 515.5,-473.9 515.5,-473.9 573.5,-473.9 573.5,-473.9 579.5,-473.9 585.5,-479.9 585.5,-485.9 585.5,-485.9 585.5,-497.9 585.5,-497.9 585.5,-503.9 579.5,-509.9 573.5,-509.9"/>
<text text-anchor="middle" x="544.5" y="-489.1" font-family="DejaVu Sans" font-size="11.00">termin&#45;input</text>
</g>
<!-- termin&#45;scene&#45;&gt;termin&#45;input -->
<g id="edge9" class="edge">
<title>termin&#45;scene&#45;&gt;termin&#45;input</title>
<path fill="none" stroke="#666666" stroke-width="1.1" d="M408.44,-575.9C436.26,-558.6 478.35,-532.43 508.13,-513.9"/>
<polygon fill="#666666" stroke="#666666" stroke-width="1.1" points="509.65,-515.85 514.3,-510.07 507.06,-511.68 509.65,-515.85"/>
</g>
<!-- termin&#45;collision -->
<g id="node7" class="node">
<title>termin&#45;collision</title>
<path fill="#f7f7f7" stroke="#444444" d="M582,-611.9C582,-611.9 507,-611.9 507,-611.9 501,-611.9 495,-605.9 495,-599.9 495,-599.9 495,-587.9 495,-587.9 495,-581.9 501,-575.9 507,-575.9 507,-575.9 582,-575.9 582,-575.9 588,-575.9 594,-581.9 594,-587.9 594,-587.9 594,-599.9 594,-599.9 594,-605.9 588,-611.9 582,-611.9"/>
<text text-anchor="middle" x="544.5" y="-591.1" font-family="DejaVu Sans" font-size="11.00">termin&#45;collision</text>
</g>
<!-- termin&#45;scene&#45;&gt;termin&#45;collision -->
<g id="edge10" class="edge">
<title>termin&#45;scene&#45;&gt;termin&#45;collision</title>
<path fill="none" stroke="#666666" stroke-width="1.1" d="M422.16,-593.9C442.2,-593.9 466.34,-593.9 487.8,-593.9"/>
<polygon fill="#666666" stroke="#666666" stroke-width="1.1" points="487.97,-596.35 494.97,-593.9 487.97,-591.45 487.97,-596.35"/>
</g>
<!-- termin&#45;skeleton -->
<g id="node9" class="node">
<title>termin&#45;skeleton</title>
<path fill="#f7f7f7" stroke="#444444" d="M583,-679.9C583,-679.9 506,-679.9 506,-679.9 500,-679.9 494,-673.9 494,-667.9 494,-667.9 494,-655.9 494,-655.9 494,-649.9 500,-643.9 506,-643.9 506,-643.9 583,-643.9 583,-643.9 589,-643.9 595,-649.9 595,-655.9 595,-655.9 595,-667.9 595,-667.9 595,-673.9 589,-679.9 583,-679.9"/>
<text text-anchor="middle" x="544.5" y="-659.1" font-family="DejaVu Sans" font-size="11.00">termin&#45;skeleton</text>
</g>
<!-- termin&#45;scene&#45;&gt;termin&#45;skeleton -->
<g id="edge18" class="edge">
<title>termin&#45;scene&#45;&gt;termin&#45;skeleton</title>
<path fill="none" stroke="#666666" stroke-width="1.1" d="M422.16,-611.59C443.93,-620.62 470.54,-631.65 493.29,-641.09"/>
<polygon fill="#666666" stroke="#666666" stroke-width="1.1" points="492.51,-643.41 499.91,-643.83 494.38,-638.89 492.51,-643.41"/>
</g>
<!-- termin&#45;render -->
<g id="node12" class="node">
<title>termin&#45;render</title>
<path fill="#f7f7f7" stroke="#444444" d="M577.5,-309.9C577.5,-309.9 511.5,-309.9 511.5,-309.9 505.5,-309.9 499.5,-303.9 499.5,-297.9 499.5,-297.9 499.5,-285.9 499.5,-285.9 499.5,-279.9 505.5,-273.9 511.5,-273.9 511.5,-273.9 577.5,-273.9 577.5,-273.9 583.5,-273.9 589.5,-279.9 589.5,-285.9 589.5,-285.9 589.5,-297.9 589.5,-297.9 589.5,-303.9 583.5,-309.9 577.5,-309.9"/>
<text text-anchor="middle" x="544.5" y="-289.1" font-family="DejaVu Sans" font-size="11.00">termin&#45;render</text>
</g>
<!-- termin&#45;scene&#45;&gt;termin&#45;render -->
<g id="edge11" class="edge">
<title>termin&#45;scene&#45;&gt;termin&#45;render</title>
<path fill="none" stroke="#666666" stroke-width="1.1" d="M389.51,-575.47C417.77,-523.43 498.17,-375.39 530.14,-316.5"/>
<polygon fill="#666666" stroke="#666666" stroke-width="1.1" points="532.43,-317.42 533.62,-310.1 528.13,-315.08 532.43,-317.42"/>
</g>
<!-- termin&#45;scene&#45;&gt;termin&#45;components&#45;mesh -->
<g id="edge12" class="edge">
<title>termin&#45;scene&#45;&gt;termin&#45;components&#45;mesh</title>
<path fill="none" stroke="#666666" stroke-width="1.1" d="M387.53,-612.16C403.99,-648.28 444.22,-730.39 494,-787.9 552.96,-856.02 573.28,-871.09 652,-914.9 660.89,-919.85 670.63,-924.29 680.4,-928.19"/>
<polygon fill="#666666" stroke="#666666" stroke-width="1.1" points="679.75,-930.57 687.16,-930.81 681.52,-926 679.75,-930.57"/>
</g>
<!-- termin&#45;components&#45;kinematic -->
<g id="node20" class="node">
<title>termin&#45;components&#45;kinematic</title>
<path fill="#f7f7f7" stroke="#444444" d="M827,-898.9C827,-898.9 672,-898.9 672,-898.9 666,-898.9 660,-892.9 660,-886.9 660,-886.9 660,-874.9 660,-874.9 660,-868.9 666,-862.9 672,-862.9 672,-862.9 827,-862.9 827,-862.9 833,-862.9 839,-868.9 839,-874.9 839,-874.9 839,-886.9 839,-886.9 839,-892.9 833,-898.9 827,-898.9"/>
<text text-anchor="middle" x="749.5" y="-878.1" font-family="DejaVu Sans" font-size="11.00">termin&#45;components&#45;kinematic</text>
</g>
<!-- termin&#45;scene&#45;&gt;termin&#45;components&#45;kinematic -->
<g id="edge13" class="edge">
<title>termin&#45;scene&#45;&gt;termin&#45;components&#45;kinematic</title>
<path fill="none" stroke="#666666" stroke-width="1.1" d="M394.43,-612.21C432.65,-657.99 539.01,-778.63 652,-846.9 660.26,-851.89 669.36,-856.3 678.57,-860.14"/>
<polygon fill="#666666" stroke="#666666" stroke-width="1.1" points="677.87,-862.5 685.28,-862.83 679.7,-857.95 677.87,-862.5"/>
</g>
<!-- termin&#45;display -->
<g id="node13" class="node">
<title>termin&#45;display</title>
<path fill="#f7f7f7" stroke="#444444" d="M784,-309.9C784,-309.9 715,-309.9 715,-309.9 709,-309.9 703,-303.9 703,-297.9 703,-297.9 703,-285.9 703,-285.9 703,-279.9 709,-273.9 715,-273.9 715,-273.9 784,-273.9 784,-273.9 790,-273.9 796,-279.9 796,-285.9 796,-285.9 796,-297.9 796,-297.9 796,-303.9 790,-309.9 784,-309.9"/>
<text text-anchor="middle" x="749.5" y="-289.1" font-family="DejaVu Sans" font-size="11.00">termin&#45;display</text>
</g>
<!-- termin&#45;input&#45;&gt;termin&#45;display -->
<g id="edge14" class="edge">
<title>termin&#45;input&#45;&gt;termin&#45;display</title>
<path fill="none" stroke="#666666" stroke-width="1.1" d="M554.65,-473.46C570.72,-442.63 606.63,-380.15 652,-340.9 665.06,-329.61 681.17,-320.11 696.46,-312.57"/>
<polygon fill="#666666" stroke="#666666" stroke-width="1.1" points="697.7,-314.7 702.96,-309.46 695.59,-310.28 697.7,-314.7"/>
</g>
<!-- termin -->
<g id="node24" class="node">
<title>termin</title>
<path fill="#f7f7f7" stroke="#444444" d="M1212.5,-482.9C1212.5,-482.9 1182.5,-482.9 1182.5,-482.9 1176.5,-482.9 1170.5,-476.9 1170.5,-470.9 1170.5,-470.9 1170.5,-458.9 1170.5,-458.9 1170.5,-452.9 1176.5,-446.9 1182.5,-446.9 1182.5,-446.9 1212.5,-446.9 1212.5,-446.9 1218.5,-446.9 1224.5,-452.9 1224.5,-458.9 1224.5,-458.9 1224.5,-470.9 1224.5,-470.9 1224.5,-476.9 1218.5,-482.9 1212.5,-482.9"/>
<text text-anchor="middle" x="1197.5" y="-462.1" font-family="DejaVu Sans" font-size="11.00">termin</text>
</g>
<!-- termin&#45;modules&#45;&gt;termin -->
<g id="edge37" class="edge">
<title>termin&#45;modules&#45;&gt;termin</title>
<path fill="none" stroke="#666666" stroke-width="1.1" d="M217.62,-439.85C237.5,-357.9 331.31,-24.9 543.5,-24.9 543.5,-24.9 543.5,-24.9 750.5,-24.9 902.98,-24.9 982.34,48.05 1092,-57.9 1212.24,-174.09 1049.95,-290.67 1141,-430.9 1146.6,-439.52 1155.22,-446.31 1164.01,-451.47"/>
<polygon fill="#666666" stroke="#666666" stroke-width="1.1" points="1163.08,-453.76 1170.4,-454.95 1165.43,-449.46 1163.08,-453.76"/>
</g>
<!-- termin&#45;collision&#45;&gt;termin&#45;physics -->
<g id="edge17" class="edge">
<title>termin&#45;collision&#45;&gt;termin&#45;physics</title>
<path fill="none" stroke="#666666" stroke-width="1.1" d="M594.12,-584.8C624.33,-579.15 663.21,-571.87 694.39,-566.03"/>
<polygon fill="#666666" stroke="#666666" stroke-width="1.1" points="694.89,-568.43 701.32,-564.74 693.99,-563.62 694.89,-568.43"/>
</g>
<!-- termin&#45;collision&#45;&gt;termin&#45;components&#45;collision -->
<g id="edge16" class="edge">
<title>termin&#45;collision&#45;&gt;termin&#45;components&#45;collision</title>
<path fill="none" stroke="#666666" stroke-width="1.1" d="M576.11,-612.03C582.75,-616.72 589.44,-622.11 595,-627.9 628.02,-662.36 613.64,-690.51 652,-718.9 654.15,-720.49 656.39,-721.99 658.7,-723.39"/>
<polygon fill="#666666" stroke="#666666" stroke-width="1.1" points="657.67,-725.62 664.97,-726.89 660.06,-721.34 657.67,-725.62"/>
</g>
<!-- termin&#45;engine -->
<g id="node21" class="node">
<title>termin&#45;engine</title>
<path fill="#f7f7f7" stroke="#444444" d="M783,-392.9C783,-392.9 716,-392.9 716,-392.9 710,-392.9 704,-386.9 704,-380.9 704,-380.9 704,-368.9 704,-368.9 704,-362.9 710,-356.9 716,-356.9 716,-356.9 783,-356.9 783,-356.9 789,-356.9 795,-362.9 795,-368.9 795,-368.9 795,-380.9 795,-380.9 795,-386.9 789,-392.9 783,-392.9"/>
<text text-anchor="middle" x="749.5" y="-372.1" font-family="DejaVu Sans" font-size="11.00">termin&#45;engine</text>
</g>
<!-- termin&#45;collision&#45;&gt;termin&#45;engine -->
<g id="edge15" class="edge">
<title>termin&#45;collision&#45;&gt;termin&#45;engine</title>
<path fill="none" stroke="#666666" stroke-width="1.1" d="M559.56,-575.85C569.81,-562.38 583.82,-543.37 595,-525.9 623,-482.17 614.56,-459.89 652,-423.9 664.8,-411.6 681.3,-401.7 697.03,-394.11"/>
<polygon fill="#666666" stroke="#666666" stroke-width="1.1" points="698.39,-396.18 703.7,-391 696.32,-391.74 698.39,-396.18"/>
</g>
<!-- termin&#45;components&#45;physics -->
<g id="node18" class="node">
<title>termin&#45;components&#45;physics</title>
<path fill="#f7f7f7" stroke="#444444" d="M1065.5,-762.9C1065.5,-762.9 922.5,-762.9 922.5,-762.9 916.5,-762.9 910.5,-756.9 910.5,-750.9 910.5,-750.9 910.5,-738.9 910.5,-738.9 910.5,-732.9 916.5,-726.9 922.5,-726.9 922.5,-726.9 1065.5,-726.9 1065.5,-726.9 1071.5,-726.9 1077.5,-732.9 1077.5,-738.9 1077.5,-738.9 1077.5,-750.9 1077.5,-750.9 1077.5,-756.9 1071.5,-762.9 1065.5,-762.9"/>
<text text-anchor="middle" x="994" y="-742.1" font-family="DejaVu Sans" font-size="11.00">termin&#45;components&#45;physics</text>
</g>
<!-- termin&#45;physics&#45;&gt;termin&#45;components&#45;physics -->
<g id="edge25" class="edge">
<title>termin&#45;physics&#45;&gt;termin&#45;components&#45;physics</title>
<path fill="none" stroke="#666666" stroke-width="1.1" d="M773.75,-574.03C818.29,-608.74 915.53,-684.53 964.14,-722.41"/>
<polygon fill="#666666" stroke="#666666" stroke-width="1.1" points="962.79,-724.47 969.82,-726.84 965.8,-720.6 962.79,-724.47"/>
</g>
<!-- termin&#45;physics&#45;&gt;termin -->
<g id="edge36" class="edge">
<title>termin&#45;physics&#45;&gt;termin</title>
<path fill="none" stroke="#666666" stroke-width="1.1" d="M797.81,-546.25C888.48,-527.75 1084.69,-487.72 1163.12,-471.72"/>
<polygon fill="#666666" stroke="#666666" stroke-width="1.1" points="1163.96,-474.04 1170.33,-470.24 1162.98,-469.24 1163.96,-474.04"/>
</g>
<!-- termin&#45;skeleton&#45;&gt;termin&#45;animation -->
<g id="edge20" class="edge">
<title>termin&#45;skeleton&#45;&gt;termin&#45;animation</title>
<path fill="none" stroke="#666666" stroke-width="1.1" d="M595.16,-661.9C622.97,-661.9 657.88,-661.9 687.36,-661.9"/>
<polygon fill="#666666" stroke="#666666" stroke-width="1.1" points="687.73,-664.35 694.73,-661.9 687.73,-659.45 687.73,-664.35"/>
</g>
<!-- termin&#45;components&#45;skeleton -->
<g id="node16" class="node">
<title>termin&#45;components&#45;skeleton</title>
<path fill="#f7f7f7" stroke="#444444" d="M823.5,-830.9C823.5,-830.9 675.5,-830.9 675.5,-830.9 669.5,-830.9 663.5,-824.9 663.5,-818.9 663.5,-818.9 663.5,-806.9 663.5,-806.9 663.5,-800.9 669.5,-794.9 675.5,-794.9 675.5,-794.9 823.5,-794.9 823.5,-794.9 829.5,-794.9 835.5,-800.9 835.5,-806.9 835.5,-806.9 835.5,-818.9 835.5,-818.9 835.5,-824.9 829.5,-830.9 823.5,-830.9"/>
<text text-anchor="middle" x="749.5" y="-810.1" font-family="DejaVu Sans" font-size="11.00">termin&#45;components&#45;skeleton</text>
</g>
<!-- termin&#45;skeleton&#45;&gt;termin&#45;components&#45;skeleton -->
<g id="edge27" class="edge">
<title>termin&#45;skeleton&#45;&gt;termin&#45;components&#45;skeleton</title>
<path fill="none" stroke="#666666" stroke-width="1.1" d="M557.49,-679.92C575.28,-705.36 611.02,-751.73 652,-778.9 659.55,-783.91 667.92,-788.27 676.49,-792.05"/>
<polygon fill="#666666" stroke="#666666" stroke-width="1.1" points="675.66,-794.36 683.07,-794.82 677.57,-789.84 675.66,-794.36"/>
</g>
<!-- termin&#45;components&#45;animation -->
<g id="node17" class="node">
<title>termin&#45;components&#45;animation</title>
<path fill="#f7f7f7" stroke="#444444" d="M1072,-830.9C1072,-830.9 916,-830.9 916,-830.9 910,-830.9 904,-824.9 904,-818.9 904,-818.9 904,-806.9 904,-806.9 904,-800.9 910,-794.9 916,-794.9 916,-794.9 1072,-794.9 1072,-794.9 1078,-794.9 1084,-800.9 1084,-806.9 1084,-806.9 1084,-818.9 1084,-818.9 1084,-824.9 1078,-830.9 1072,-830.9"/>
<text text-anchor="middle" x="994" y="-810.1" font-family="DejaVu Sans" font-size="11.00">termin&#45;components&#45;animation</text>
</g>
<!-- termin&#45;animation&#45;&gt;termin&#45;components&#45;animation -->
<g id="edge28" class="edge">
<title>termin&#45;animation&#45;&gt;termin&#45;components&#45;animation</title>
<path fill="none" stroke="#666666" stroke-width="1.1" d="M789.09,-680.03C805.21,-688.4 823.7,-699.11 839,-710.9 872.11,-736.43 869.18,-755.77 904,-778.9 911.47,-783.86 919.76,-788.25 928.19,-792.08"/>
<polygon fill="#666666" stroke="#666666" stroke-width="1.1" points="927.26,-794.34 934.66,-794.9 929.22,-789.85 927.26,-794.34"/>
</g>
<!-- termin&#45;graphics&#45;&gt;termin&#45;render -->
<g id="edge21" class="edge">
<title>termin&#45;graphics&#45;&gt;termin&#45;render</title>
<path fill="none" stroke="#666666" stroke-width="1.1" d="M429.15,-291.9C449.05,-291.9 471.98,-291.9 492.05,-291.9"/>
<polygon fill="#666666" stroke="#666666" stroke-width="1.1" points="492.31,-294.35 499.31,-291.9 492.31,-289.45 492.31,-294.35"/>
</g>
<!-- termin&#45;gui -->
<g id="node22" class="node">
<title>termin&#45;gui</title>
<path fill="#f7f7f7" stroke="#444444" d="M773,-109.9C773,-109.9 726,-109.9 726,-109.9 720,-109.9 714,-103.9 714,-97.9 714,-97.9 714,-85.9 714,-85.9 714,-79.9 720,-73.9 726,-73.9 726,-73.9 773,-73.9 773,-73.9 779,-73.9 785,-79.9 785,-85.9 785,-85.9 785,-97.9 785,-97.9 785,-103.9 779,-109.9 773,-109.9"/>
<text text-anchor="middle" x="749.5" y="-89.1" font-family="DejaVu Sans" font-size="11.00">termin&#45;gui</text>
</g>
<!-- termin&#45;graphics&#45;&gt;termin&#45;gui -->
<g id="edge22" class="edge">
<title>termin&#45;graphics&#45;&gt;termin&#45;gui</title>
<path fill="none" stroke="#666666" stroke-width="1.1" d="M412.9,-273.8C481.01,-236.89 635.67,-153.06 708.79,-113.43"/>
<polygon fill="#666666" stroke="#666666" stroke-width="1.1" points="710.19,-115.45 715.18,-109.96 707.86,-111.15 710.19,-115.45"/>
</g>
<!-- termin&#45;render&#45;&gt;termin&#45;display -->
<g id="edge23" class="edge">
<title>termin&#45;render&#45;&gt;termin&#45;display</title>
<path fill="none" stroke="#666666" stroke-width="1.1" d="M589.55,-291.9C620.66,-291.9 662.51,-291.9 695.46,-291.9"/>
<polygon fill="#666666" stroke="#666666" stroke-width="1.1" points="695.78,-294.35 702.78,-291.9 695.78,-289.45 695.78,-294.35"/>
</g>
<!-- termin&#45;components&#45;render -->
<g id="node14" class="node">
<title>termin&#45;components&#45;render</title>
<path fill="#f7f7f7" stroke="#444444" d="M1063,-309.9C1063,-309.9 925,-309.9 925,-309.9 919,-309.9 913,-303.9 913,-297.9 913,-297.9 913,-285.9 913,-285.9 913,-279.9 919,-273.9 925,-273.9 925,-273.9 1063,-273.9 1063,-273.9 1069,-273.9 1075,-279.9 1075,-285.9 1075,-285.9 1075,-297.9 1075,-297.9 1075,-303.9 1069,-309.9 1063,-309.9"/>
<text text-anchor="middle" x="994" y="-289.1" font-family="DejaVu Sans" font-size="11.00">termin&#45;components&#45;render</text>
</g>
<!-- termin&#45;display&#45;&gt;termin&#45;components&#45;render -->
<g id="edge24" class="edge">
<title>termin&#45;display&#45;&gt;termin&#45;components&#45;render</title>
<path fill="none" stroke="#666666" stroke-width="1.1" d="M796.11,-291.9C826.85,-291.9 868.4,-291.9 905.4,-291.9"/>
<polygon fill="#666666" stroke="#666666" stroke-width="1.1" points="905.73,-294.35 912.73,-291.9 905.73,-289.45 905.73,-294.35"/>
</g>
<!-- termin&#45;components&#45;render&#45;&gt;termin -->
<g id="edge34" class="edge">
<title>termin&#45;components&#45;render&#45;&gt;termin</title>
<path fill="none" stroke="#666666" stroke-width="1.1" d="M1021.06,-310.03C1041.39,-324.76 1069.83,-346.68 1092,-368.9 1116.81,-393.77 1114.73,-407.59 1141,-430.9 1148,-437.12 1156.29,-442.87 1164.29,-447.81"/>
<polygon fill="#666666" stroke="#666666" stroke-width="1.1" points="1163.07,-449.94 1170.33,-451.43 1165.58,-445.73 1163.07,-449.94"/>
</g>
<!-- termin&#45;components&#45;collision&#45;&gt;termin&#45;components&#45;physics -->
<g id="edge26" class="edge">
<title>termin&#45;components&#45;collision&#45;&gt;termin&#45;components&#45;physics</title>
<path fill="none" stroke="#666666" stroke-width="1.1" d="M834.63,-744.9C856.73,-744.9 880.64,-744.9 903.03,-744.9"/>
<polygon fill="#666666" stroke="#666666" stroke-width="1.1" points="903.24,-747.35 910.24,-744.9 903.24,-742.45 903.24,-747.35"/>
</g>
<!-- termin&#45;components&#45;collision&#45;&gt;termin -->
<g id="edge32" class="edge">
<title>termin&#45;components&#45;collision&#45;&gt;termin</title>
<path fill="none" stroke="#666666" stroke-width="1.1" d="M808.51,-762.95C819.07,-767.4 829.68,-772.7 839,-778.9 873.8,-802.07 865.56,-830.47 904,-846.9 980.83,-879.75 1025.58,-897.6 1092,-846.9 1150.11,-802.55 1183.78,-568.32 1193.52,-490.25"/>
<polygon fill="#666666" stroke="#666666" stroke-width="1.1" points="1195.97,-490.44 1194.39,-483.19 1191.1,-489.84 1195.97,-490.44"/>
</g>
<!-- termin&#45;components&#45;skeleton&#45;&gt;termin&#45;components&#45;animation -->
<g id="edge29" class="edge">
<title>termin&#45;components&#45;skeleton&#45;&gt;termin&#45;components&#45;animation</title>
<path fill="none" stroke="#666666" stroke-width="1.1" d="M835.66,-812.9C855.43,-812.9 876.62,-812.9 896.83,-812.9"/>
<polygon fill="#666666" stroke="#666666" stroke-width="1.1" points="896.94,-815.35 903.94,-812.9 896.94,-810.45 896.94,-815.35"/>
</g>
<!-- termin&#45;components&#45;skeleton&#45;&gt;termin -->
<g id="edge30" class="edge">
<title>termin&#45;components&#45;skeleton&#45;&gt;termin</title>
<path fill="none" stroke="#666666" stroke-width="1.1" d="M802.2,-830.92C814.45,-835.7 827.34,-841.14 839,-846.9 869.41,-861.94 871.36,-877.67 904,-886.9 984.4,-909.66 1026.2,-938.4 1092,-886.9 1155.9,-836.9 1186.18,-573.21 1194.24,-490.05"/>
<polygon fill="#666666" stroke="#666666" stroke-width="1.1" points="1196.68,-490.23 1194.9,-483.02 1191.8,-489.76 1196.68,-490.23"/>
</g>
<!-- termin&#45;components&#45;animation&#45;&gt;termin -->
<g id="edge31" class="edge">
<title>termin&#45;components&#45;animation&#45;&gt;termin</title>
<path fill="none" stroke="#666666" stroke-width="1.1" d="M1069.7,-794.89C1077.93,-790.64 1085.62,-785.39 1092,-778.9 1173.36,-696.25 1191.39,-548.7 1195.37,-490"/>
<polygon fill="#666666" stroke="#666666" stroke-width="1.1" points="1197.82,-490.11 1195.81,-482.97 1192.93,-489.8 1197.82,-490.11"/>
</g>
<!-- termin&#45;components&#45;physics&#45;&gt;termin -->
<g id="edge35" class="edge">
<title>termin&#45;components&#45;physics&#45;&gt;termin</title>
<path fill="none" stroke="#666666" stroke-width="1.1" d="M1008.22,-726.53C1043.46,-677.56 1139.65,-543.91 1179.18,-488.97"/>
<polygon fill="#666666" stroke="#666666" stroke-width="1.1" points="1181.39,-490.09 1183.49,-482.98 1177.41,-487.23 1181.39,-490.09"/>
</g>
<!-- termin&#45;components&#45;kinematic&#45;&gt;termin -->
<g id="edge33" class="edge">
<title>termin&#45;components&#45;kinematic&#45;&gt;termin</title>
<path fill="none" stroke="#666666" stroke-width="1.1" d="M798.8,-898.92C828.64,-909.07 867.99,-920.73 904,-925.9 986.71,-937.78 1026.71,-978.05 1092,-925.9 1161.47,-870.42 1188.21,-578.59 1194.78,-490.26"/>
<polygon fill="#666666" stroke="#666666" stroke-width="1.1" points="1197.24,-490.22 1195.3,-483.06 1192.35,-489.87 1197.24,-490.22"/>
</g>
<!-- termin&#45;engine&#45;&gt;termin -->
<g id="edge38" class="edge">
<title>termin&#45;engine&#45;&gt;termin</title>
<path fill="none" stroke="#666666" stroke-width="1.1" d="M795.31,-383.95C884.86,-402.02 1084.14,-442.23 1163.23,-458.19"/>
<polygon fill="#666666" stroke="#666666" stroke-width="1.1" points="1163.15,-460.67 1170.5,-459.66 1164.12,-455.87 1163.15,-460.67"/>
</g>
<!-- termin&#45;nodegraph -->
<g id="node23" class="node">
<title>termin&#45;nodegraph</title>
<path fill="#f7f7f7" stroke="#444444" d="M1038.5,-109.9C1038.5,-109.9 949.5,-109.9 949.5,-109.9 943.5,-109.9 937.5,-103.9 937.5,-97.9 937.5,-97.9 937.5,-85.9 937.5,-85.9 937.5,-79.9 943.5,-73.9 949.5,-73.9 949.5,-73.9 1038.5,-73.9 1038.5,-73.9 1044.5,-73.9 1050.5,-79.9 1050.5,-85.9 1050.5,-85.9 1050.5,-97.9 1050.5,-97.9 1050.5,-103.9 1044.5,-109.9 1038.5,-109.9"/>
<text text-anchor="middle" x="994" y="-89.1" font-family="DejaVu Sans" font-size="11.00">termin&#45;nodegraph</text>
</g>
<!-- termin&#45;gui&#45;&gt;termin&#45;nodegraph -->
<g id="edge42" class="edge">
<title>termin&#45;gui&#45;&gt;termin&#45;nodegraph</title>
<path fill="none" stroke="#666666" stroke-width="1.1" d="M785.24,-91.9C822.91,-91.9 883.82,-91.9 929.97,-91.9"/>
<polygon fill="#666666" stroke="#666666" stroke-width="1.1" points="930.24,-94.35 937.24,-91.9 930.24,-89.45 930.24,-94.35"/>
</g>
<!-- termin&#45;gui&#45;&gt;termin -->
<g id="edge39" class="edge">
<title>termin&#45;gui&#45;&gt;termin</title>
<path fill="none" stroke="#666666" stroke-width="1.1" d="M775.34,-109.93C804.92,-130.84 856.35,-165.43 904,-188.9 983.85,-228.23 1031.49,-192.63 1092,-257.9 1146.33,-316.51 1092.73,-367.22 1141,-430.9 1146.98,-438.8 1155.38,-445.27 1163.83,-450.37"/>
<polygon fill="#666666" stroke="#666666" stroke-width="1.1" points="1162.96,-452.7 1170.26,-454.01 1165.37,-448.43 1162.96,-452.7"/>
</g>
<!-- diffusion&#45;editor -->
<g id="node25" class="node">
<title>diffusion&#45;editor</title>
<path fill="#f7f7f7" stroke="#444444" d="M1234,-414.9C1234,-414.9 1161,-414.9 1161,-414.9 1155,-414.9 1149,-408.9 1149,-402.9 1149,-402.9 1149,-390.9 1149,-390.9 1149,-384.9 1155,-378.9 1161,-378.9 1161,-378.9 1234,-378.9 1234,-378.9 1240,-378.9 1246,-384.9 1246,-390.9 1246,-390.9 1246,-402.9 1246,-402.9 1246,-408.9 1240,-414.9 1234,-414.9"/>
<text text-anchor="middle" x="1197.5" y="-394.1" font-family="DejaVu Sans" font-size="11.00">diffusion&#45;editor</text>
</g>
<!-- termin&#45;gui&#45;&gt;diffusion&#45;editor -->
<g id="edge43" class="edge">
<title>termin&#45;gui&#45;&gt;diffusion&#45;editor</title>
<path fill="none" stroke="#666666" stroke-width="1.1" d="M785.23,-99.37C862.21,-116.46 1044.17,-160.05 1092,-199.9 1147.67,-246.29 1177.8,-330.16 1189.97,-371.9"/>
<polygon fill="#666666" stroke="#666666" stroke-width="1.1" points="1187.64,-372.64 1191.91,-378.71 1192.35,-371.3 1187.64,-372.64"/>
</g>
<!-- termin&#45;nodegraph&#45;&gt;termin -->
<g id="edge40" class="edge">
<title>termin&#45;nodegraph&#45;&gt;termin</title>
<path fill="none" stroke="#666666" stroke-width="1.1" d="M1017.15,-110.17C1039.57,-129.93 1073.49,-163.51 1092,-199.9 1139.57,-293.46 1080.44,-345.19 1141,-430.9 1146.82,-439.15 1155.34,-445.78 1163.96,-450.92"/>
<polygon fill="#666666" stroke="#666666" stroke-width="1.1" points="1162.91,-453.14 1170.22,-454.4 1165.29,-448.85 1162.91,-453.14"/>
</g>
<!-- termin&#45;csharp -->
<g id="node26" class="node">
<title>termin&#45;csharp</title>
<path fill="#f7f7f7" stroke="#444444" d="M1390,-482.9C1390,-482.9 1323,-482.9 1323,-482.9 1317,-482.9 1311,-476.9 1311,-470.9 1311,-470.9 1311,-458.9 1311,-458.9 1311,-452.9 1317,-446.9 1323,-446.9 1323,-446.9 1390,-446.9 1390,-446.9 1396,-446.9 1402,-452.9 1402,-458.9 1402,-458.9 1402,-470.9 1402,-470.9 1402,-476.9 1396,-482.9 1390,-482.9"/>
<text text-anchor="middle" x="1356.5" y="-462.1" font-family="DejaVu Sans" font-size="11.00">termin&#45;csharp</text>
</g>
<!-- termin&#45;&gt;termin&#45;csharp -->
<g id="edge41" class="edge">
<title>termin&#45;&gt;termin&#45;csharp</title>
<path fill="none" stroke="#666666" stroke-width="1.1" d="M1224.78,-464.9C1246.24,-464.9 1277.24,-464.9 1303.66,-464.9"/>
<polygon fill="#666666" stroke="#666666" stroke-width="1.1" points="1303.98,-467.35 1310.98,-464.9 1303.98,-462.45 1303.98,-467.35"/>
</g>
</g>
</svg>
