<?xml version="1.0" encoding="UTF-8" standalone="no"?>
<!DOCTYPE svg PUBLIC "-//W3C//DTD SVG 1.1//EN"
 "http://www.w3.org/Graphics/SVG/1.1/DTD/svg11.dtd">
<!-- Generated by graphviz version 2.43.0 (0)
 -->
<!-- Title: termin_dependencies Pages: 1 -->
<svg width="1863pt" height="1448pt"
 viewBox="0.00 0.00 1862.80 1447.78" xmlns="http://www.w3.org/2000/svg" xmlns:xlink="http://www.w3.org/1999/xlink">
<g id="graph0" class="graph" transform="scale(1 1) rotate(0) translate(14.4 1433.38)">
<title>termin_dependencies</title>
<polygon fill="white" stroke="transparent" points="-14.4,14.4 -14.4,-1433.38 1848.4,-1433.38 1848.4,14.4 -14.4,14.4"/>
<g id="clust1" class="cluster">
<title>cluster_application</title>
<polygon fill="white" stroke="#999999" stroke-dasharray="5,2" points="1568,-338.82 1568,-411.82 1659,-411.82 1659,-338.82 1568,-338.82"/>
<text text-anchor="middle" x="1613.5" y="-398.22" font-family="DejaVu Sans" font-size="12.00">Application</text>
</g>
<g id="clust2" class="cluster">
<title>cluster_foundation</title>
<polygon fill="white" stroke="#999999" stroke-dasharray="5,2" points="137,-861.82 137,-1138.82 996,-1138.82 996,-861.82 137,-861.82"/>
<text text-anchor="middle" x="566.5" y="-1125.22" font-family="DejaVu Sans" font-size="12.00">Foundation</text>
</g>
<g id="clust3" class="cluster">
<title>cluster_namespace</title>
<polygon fill="white" stroke="#999999" stroke-dasharray="5,2" points="0,-1096.82 0,-1169.82 88,-1169.82 88,-1096.82 0,-1096.82"/>
<text text-anchor="middle" x="44" y="-1156.22" font-family="DejaVu Sans" font-size="12.00">Namespace</text>
</g>
<g id="clust4" class="cluster">
<title>cluster_native_interop</title>
<polygon fill="white" stroke="#999999" stroke-dasharray="5,2" points="1719,-790.82 1719,-863.82 1826,-863.82 1826,-790.82 1719,-790.82"/>
<text text-anchor="middle" x="1772.5" y="-850.22" font-family="DejaVu Sans" font-size="12.00">Native Interop</text>
</g>
<g id="clust5" class="cluster">
<title>cluster_other_components</title>
<polygon fill="white" stroke="#999999" stroke-dasharray="5,2" points="836,-508.82 836,-853.82 1508,-853.82 1508,-508.82 836,-508.82"/>
<text text-anchor="middle" x="1172" y="-840.22" font-family="DejaVu Sans" font-size="12.00">Other Components</text>
</g>
<g id="clust6" class="cluster">
<title>cluster_python_support</title>
<polygon fill="white" stroke="#999999" stroke-dasharray="5,2" points="307,-315.82 307,-456.82 450,-456.82 450,-315.82 307,-315.82"/>
<text text-anchor="middle" x="378.5" y="-443.22" font-family="DejaVu Sans" font-size="12.00">Python Support</text>
</g>
<g id="clust7" class="cluster">
<title>cluster_render_stack</title>
<polygon fill="white" stroke="#999999" stroke-dasharray="5,2" points="499,-359.82 499,-500.82 1267,-500.82 1267,-359.82 499,-359.82"/>
<text text-anchor="middle" x="883" y="-487.22" font-family="DejaVu Sans" font-size="12.00">Render Stack</text>
</g>
<g id="clust8" class="cluster">
<title>cluster_runtime</title>
<polygon fill="white" stroke="#999999" stroke-dasharray="5,2" points="1363,-185.82 1363,-258.82 1470,-258.82 1470,-185.82 1363,-185.82"/>
<text text-anchor="middle" x="1416.5" y="-245.22" font-family="DejaVu Sans" font-size="12.00">Runtime</text>
</g>
<g id="clust10" class="cluster">
<title>cluster_ui</title>
<polygon fill="white" stroke="#999999" stroke-dasharray="5,2" points="682.5,-1195.82 682.5,-1336.82 998,-1336.82 998,-1195.82 682.5,-1195.82"/>
<text text-anchor="middle" x="840.25" y="-1323.22" font-family="DejaVu Sans" font-size="12.00">UI</text>
</g>
<!-- termin&#45;app -->
<g id="node1" class="node">
<title>termin&#45;app</title>
<path fill="#f7f7f7" stroke="#444444" d="M1639,-382.82C1639,-382.82 1588,-382.82 1588,-382.82 1582,-382.82 1576,-376.82 1576,-370.82 1576,-370.82 1576,-358.82 1576,-358.82 1576,-352.82 1582,-346.82 1588,-346.82 1588,-346.82 1639,-346.82 1639,-346.82 1645,-346.82 1651,-352.82 1651,-358.82 1651,-358.82 1651,-370.82 1651,-370.82 1651,-376.82 1645,-382.82 1639,-382.82"/>
<text text-anchor="middle" x="1613.5" y="-362.02" font-family="DejaVu Sans" font-size="11.00">termin&#45;app</text>
</g>
<!-- termin&#45;csharp -->
<g id="node17" class="node">
<title>termin&#45;csharp</title>
<path fill="#f7f7f7" stroke="#444444" d="M1806,-834.82C1806,-834.82 1739,-834.82 1739,-834.82 1733,-834.82 1727,-828.82 1727,-822.82 1727,-822.82 1727,-810.82 1727,-810.82 1727,-804.82 1733,-798.82 1739,-798.82 1739,-798.82 1806,-798.82 1806,-798.82 1812,-798.82 1818,-804.82 1818,-810.82 1818,-810.82 1818,-822.82 1818,-822.82 1818,-828.82 1812,-834.82 1806,-834.82"/>
<text text-anchor="middle" x="1772.5" y="-814.02" font-family="DejaVu Sans" font-size="11.00">termin&#45;csharp</text>
</g>
<!-- termin&#45;app&#45;&gt;termin&#45;csharp -->
<g id="edge7" class="edge">
<title>termin&#45;app&#45;&gt;termin&#45;csharp</title>
<path fill="none" stroke="#666666" stroke-width="1.1" d="M1634.45,-383.18C1644,-392.95 1654.88,-405.64 1662,-418.82 1731.98,-548.47 1760.18,-726.55 1768.57,-791.67"/>
<polygon fill="#666666" stroke="#666666" stroke-width="1.1" points="1766.15,-792.05 1769.46,-798.69 1771.01,-791.44 1766.15,-792.05"/>
</g>
<!-- termin&#45;animation -->
<g id="node2" class="node">
<title>termin&#45;animation</title>
<path fill="#f7f7f7" stroke="#444444" d="M976,-964.82C976,-964.82 891,-964.82 891,-964.82 885,-964.82 879,-958.82 879,-952.82 879,-952.82 879,-940.82 879,-940.82 879,-934.82 885,-928.82 891,-928.82 891,-928.82 976,-928.82 976,-928.82 982,-928.82 988,-934.82 988,-940.82 988,-940.82 988,-952.82 988,-952.82 988,-958.82 982,-964.82 976,-964.82"/>
<text text-anchor="middle" x="933.5" y="-944.02" font-family="DejaVu Sans" font-size="11.00">termin&#45;animation</text>
</g>
<!-- termin&#45;components&#45;animation -->
<g id="node18" class="node">
<title>termin&#45;components&#45;animation</title>
<path fill="#f7f7f7" stroke="#444444" d="M1256,-824.82C1256,-824.82 1100,-824.82 1100,-824.82 1094,-824.82 1088,-818.82 1088,-812.82 1088,-812.82 1088,-800.82 1088,-800.82 1088,-794.82 1094,-788.82 1100,-788.82 1100,-788.82 1256,-788.82 1256,-788.82 1262,-788.82 1268,-794.82 1268,-800.82 1268,-800.82 1268,-812.82 1268,-812.82 1268,-818.82 1262,-824.82 1256,-824.82"/>
<text text-anchor="middle" x="1178" y="-804.02" font-family="DejaVu Sans" font-size="11.00">termin&#45;components&#45;animation</text>
</g>
<!-- termin&#45;animation&#45;&gt;termin&#45;components&#45;animation -->
<g id="edge6" class="edge">
<title>termin&#45;animation&#45;&gt;termin&#45;components&#45;animation</title>
<path fill="none" stroke="#666666" stroke-width="1.1" d="M972.69,-928.62C988.56,-920.63 1006.99,-910.81 1023,-900.82 1053.47,-881.81 1057.51,-871.79 1088,-852.82 1101.96,-844.14 1117.74,-835.59 1132.1,-828.27"/>
<polygon fill="#666666" stroke="#666666" stroke-width="1.1" points="1133.44,-830.34 1138.59,-825 1131.23,-825.96 1133.44,-830.34"/>
</g>
<!-- termin&#45;base -->
<g id="node3" class="node">
<title>termin&#45;base</title>
<path fill="#f7f7f7" stroke="#444444" d="M226,-1041.82C226,-1041.82 169,-1041.82 169,-1041.82 163,-1041.82 157,-1035.82 157,-1029.82 157,-1029.82 157,-1017.82 157,-1017.82 157,-1011.82 163,-1005.82 169,-1005.82 169,-1005.82 226,-1005.82 226,-1005.82 232,-1005.82 238,-1011.82 238,-1017.82 238,-1017.82 238,-1029.82 238,-1029.82 238,-1035.82 232,-1041.82 226,-1041.82"/>
<text text-anchor="middle" x="197.5" y="-1021.02" font-family="DejaVu Sans" font-size="11.00">termin&#45;base</text>
</g>
<!-- termin&#45;inspect -->
<g id="node7" class="node">
<title>termin&#45;inspect</title>
<path fill="#f7f7f7" stroke="#444444" d="M413.5,-1041.82C413.5,-1041.82 343.5,-1041.82 343.5,-1041.82 337.5,-1041.82 331.5,-1035.82 331.5,-1029.82 331.5,-1029.82 331.5,-1017.82 331.5,-1017.82 331.5,-1011.82 337.5,-1005.82 343.5,-1005.82 343.5,-1005.82 413.5,-1005.82 413.5,-1005.82 419.5,-1005.82 425.5,-1011.82 425.5,-1017.82 425.5,-1017.82 425.5,-1029.82 425.5,-1029.82 425.5,-1035.82 419.5,-1041.82 413.5,-1041.82"/>
<text text-anchor="middle" x="378.5" y="-1021.02" font-family="DejaVu Sans" font-size="11.00">termin&#45;inspect</text>
</g>
<!-- termin&#45;base&#45;&gt;termin&#45;inspect -->
<g id="edge11" class="edge">
<title>termin&#45;base&#45;&gt;termin&#45;inspect</title>
<path fill="none" stroke="#666666" stroke-width="1.1" d="M238.23,-1023.82C263.47,-1023.82 296.46,-1023.82 324,-1023.82"/>
<polygon fill="#666666" stroke="#666666" stroke-width="1.1" points="324.24,-1026.27 331.24,-1023.82 324.24,-1021.37 324.24,-1026.27"/>
</g>
<!-- termin&#45;mesh -->
<g id="node8" class="node">
<title>termin&#45;mesh</title>
<path fill="#f7f7f7" stroke="#444444" d="M408.5,-973.82C408.5,-973.82 348.5,-973.82 348.5,-973.82 342.5,-973.82 336.5,-967.82 336.5,-961.82 336.5,-961.82 336.5,-949.82 336.5,-949.82 336.5,-943.82 342.5,-937.82 348.5,-937.82 348.5,-937.82 408.5,-937.82 408.5,-937.82 414.5,-937.82 420.5,-943.82 420.5,-949.82 420.5,-949.82 420.5,-961.82 420.5,-961.82 420.5,-967.82 414.5,-973.82 408.5,-973.82"/>
<text text-anchor="middle" x="378.5" y="-953.02" font-family="DejaVu Sans" font-size="11.00">termin&#45;mesh</text>
</g>
<!-- termin&#45;base&#45;&gt;termin&#45;mesh -->
<g id="edge13" class="edge">
<title>termin&#45;base&#45;&gt;termin&#45;mesh</title>
<path fill="none" stroke="#666666" stroke-width="1.1" d="M238.23,-1008.73C265.21,-998.48 301.05,-984.86 329.61,-974.01"/>
<polygon fill="#666666" stroke="#666666" stroke-width="1.1" points="330.66,-976.24 336.33,-971.46 328.92,-971.66 330.66,-976.24"/>
</g>
<!-- termin&#45;modules -->
<g id="node9" class="node">
<title>termin&#45;modules</title>
<path fill="#f7f7f7" stroke="#444444" d="M417,-905.82C417,-905.82 340,-905.82 340,-905.82 334,-905.82 328,-899.82 328,-893.82 328,-893.82 328,-881.82 328,-881.82 328,-875.82 334,-869.82 340,-869.82 340,-869.82 417,-869.82 417,-869.82 423,-869.82 429,-875.82 429,-881.82 429,-881.82 429,-893.82 429,-893.82 429,-899.82 423,-905.82 417,-905.82"/>
<text text-anchor="middle" x="378.5" y="-885.02" font-family="DejaVu Sans" font-size="11.00">termin&#45;modules</text>
</g>
<!-- termin&#45;base&#45;&gt;termin&#45;modules -->
<g id="edge14" class="edge">
<title>termin&#45;base&#45;&gt;termin&#45;modules</title>
<path fill="none" stroke="#666666" stroke-width="1.1" d="M228.99,-1005.8C236.18,-1000.99 243.6,-995.53 250,-989.82 279.43,-963.57 275.88,-946.04 307,-921.82 312.91,-917.22 319.55,-913.02 326.32,-909.27"/>
<polygon fill="#666666" stroke="#666666" stroke-width="1.1" points="327.53,-911.4 332.56,-905.95 325.23,-907.08 327.53,-911.4"/>
</g>
<!-- termin&#45;assets -->
<g id="node26" class="node">
<title>termin&#45;assets</title>
<path fill="#f7f7f7" stroke="#444444" d="M411.5,-359.82C411.5,-359.82 345.5,-359.82 345.5,-359.82 339.5,-359.82 333.5,-353.82 333.5,-347.82 333.5,-347.82 333.5,-335.82 333.5,-335.82 333.5,-329.82 339.5,-323.82 345.5,-323.82 345.5,-323.82 411.5,-323.82 411.5,-323.82 417.5,-323.82 423.5,-329.82 423.5,-335.82 423.5,-335.82 423.5,-347.82 423.5,-347.82 423.5,-353.82 417.5,-359.82 411.5,-359.82"/>
<text text-anchor="middle" x="378.5" y="-339.02" font-family="DejaVu Sans" font-size="11.00">termin&#45;assets</text>
</g>
<!-- termin&#45;base&#45;&gt;termin&#45;assets -->
<g id="edge10" class="edge">
<title>termin&#45;base&#45;&gt;termin&#45;assets</title>
<path fill="none" stroke="#666666" stroke-width="1.1" d="M235.23,-1005.66C241.02,-1001.24 246.31,-995.98 250,-989.82 390.89,-754.74 150.67,-600.92 307,-375.82 312.03,-368.58 319.03,-362.83 326.69,-358.28"/>
<polygon fill="#666666" stroke="#666666" stroke-width="1.1" points="328.25,-360.21 333.24,-354.72 325.92,-355.9 328.25,-360.21"/>
</g>
<!-- termin&#45;lighting -->
<g id="node31" class="node">
<title>termin&#45;lighting</title>
<path fill="#f7f7f7" stroke="#444444" d="M593,-403.82C593,-403.82 522,-403.82 522,-403.82 516,-403.82 510,-397.82 510,-391.82 510,-391.82 510,-379.82 510,-379.82 510,-373.82 516,-367.82 522,-367.82 522,-367.82 593,-367.82 593,-367.82 599,-367.82 605,-373.82 605,-379.82 605,-379.82 605,-391.82 605,-391.82 605,-397.82 599,-403.82 593,-403.82"/>
<text text-anchor="middle" x="557.5" y="-383.02" font-family="DejaVu Sans" font-size="11.00">termin&#45;lighting</text>
</g>
<!-- termin&#45;base&#45;&gt;termin&#45;lighting -->
<g id="edge12" class="edge">
<title>termin&#45;base&#45;&gt;termin&#45;lighting</title>
<path fill="none" stroke="#666666" stroke-width="1.1" d="M232.17,-1005.77C238.68,-1001.19 245.01,-995.84 250,-989.82 291.82,-939.36 281.07,-914.01 307,-853.82 390.44,-660.1 358.87,-577.46 499,-419.82 502.88,-415.46 507.45,-411.5 512.3,-407.95"/>
<polygon fill="#666666" stroke="#666666" stroke-width="1.1" points="513.7,-409.96 518.09,-403.98 510.93,-405.92 513.7,-409.96"/>
</g>
<!-- termin&#45;pga -->
<g id="node41" class="node">
<title>termin&#45;pga</title>
<path fill="#f7f7f7" stroke="#444444" d="M404,-1182.82C404,-1182.82 353,-1182.82 353,-1182.82 347,-1182.82 341,-1176.82 341,-1170.82 341,-1170.82 341,-1158.82 341,-1158.82 341,-1152.82 347,-1146.82 353,-1146.82 353,-1146.82 404,-1146.82 404,-1146.82 410,-1146.82 416,-1152.82 416,-1158.82 416,-1158.82 416,-1170.82 416,-1170.82 416,-1176.82 410,-1182.82 404,-1182.82"/>
<text text-anchor="middle" x="378.5" y="-1162.02" font-family="DejaVu Sans" font-size="11.00">termin&#45;pga</text>
</g>
<!-- termin&#45;base&#45;&gt;termin&#45;pga -->
<g id="edge15" class="edge">
<title>termin&#45;base&#45;&gt;termin&#45;pga</title>
<path fill="none" stroke="#666666" stroke-width="1.1" d="M230.24,-1041.92C237.15,-1046.62 244.15,-1052.01 250,-1057.82 282.28,-1089.87 270.55,-1115.61 307,-1142.82 314.94,-1148.75 324.5,-1153.1 333.99,-1156.29"/>
<polygon fill="#666666" stroke="#666666" stroke-width="1.1" points="333.45,-1158.69 340.87,-1158.41 334.9,-1154 333.45,-1158.69"/>
</g>
<!-- termin&#45;qopt -->
<g id="node42" class="node">
<title>termin&#45;qopt</title>
<path fill="#f7f7f7" stroke="#444444" d="M406,-1250.82C406,-1250.82 351,-1250.82 351,-1250.82 345,-1250.82 339,-1244.82 339,-1238.82 339,-1238.82 339,-1226.82 339,-1226.82 339,-1220.82 345,-1214.82 351,-1214.82 351,-1214.82 406,-1214.82 406,-1214.82 412,-1214.82 418,-1220.82 418,-1226.82 418,-1226.82 418,-1238.82 418,-1238.82 418,-1244.82 412,-1250.82 406,-1250.82"/>
<text text-anchor="middle" x="378.5" y="-1230.02" font-family="DejaVu Sans" font-size="11.00">termin&#45;qopt</text>
</g>
<!-- termin&#45;base&#45;&gt;termin&#45;qopt -->
<g id="edge16" class="edge">
<title>termin&#45;base&#45;&gt;termin&#45;qopt</title>
<path fill="none" stroke="#666666" stroke-width="1.1" d="M232.23,-1041.82C238.73,-1046.4 245.05,-1051.77 250,-1057.82 292.8,-1110.13 260.79,-1149.49 307,-1198.82 314.02,-1206.31 323.04,-1212.35 332.26,-1217.13"/>
<polygon fill="#666666" stroke="#666666" stroke-width="1.1" points="331.29,-1219.38 338.66,-1220.24 333.44,-1214.97 331.29,-1219.38"/>
</g>
<!-- termin&#45;collision -->
<g id="node4" class="node">
<title>termin&#45;collision</title>
<path fill="#f7f7f7" stroke="#444444" d="M763.5,-1109.82C763.5,-1109.82 688.5,-1109.82 688.5,-1109.82 682.5,-1109.82 676.5,-1103.82 676.5,-1097.82 676.5,-1097.82 676.5,-1085.82 676.5,-1085.82 676.5,-1079.82 682.5,-1073.82 688.5,-1073.82 688.5,-1073.82 763.5,-1073.82 763.5,-1073.82 769.5,-1073.82 775.5,-1079.82 775.5,-1085.82 775.5,-1085.82 775.5,-1097.82 775.5,-1097.82 775.5,-1103.82 769.5,-1109.82 763.5,-1109.82"/>
<text text-anchor="middle" x="726" y="-1089.02" font-family="DejaVu Sans" font-size="11.00">termin&#45;collision</text>
</g>
<!-- termin&#45;physics -->
<g id="node11" class="node">
<title>termin&#45;physics</title>
<path fill="#f7f7f7" stroke="#444444" d="M969.5,-1039.82C969.5,-1039.82 897.5,-1039.82 897.5,-1039.82 891.5,-1039.82 885.5,-1033.82 885.5,-1027.82 885.5,-1027.82 885.5,-1015.82 885.5,-1015.82 885.5,-1009.82 891.5,-1003.82 897.5,-1003.82 897.5,-1003.82 969.5,-1003.82 969.5,-1003.82 975.5,-1003.82 981.5,-1009.82 981.5,-1015.82 981.5,-1015.82 981.5,-1027.82 981.5,-1027.82 981.5,-1033.82 975.5,-1039.82 969.5,-1039.82"/>
<text text-anchor="middle" x="933.5" y="-1019.02" font-family="DejaVu Sans" font-size="11.00">termin&#45;physics</text>
</g>
<!-- termin&#45;collision&#45;&gt;termin&#45;physics -->
<g id="edge20" class="edge">
<title>termin&#45;collision&#45;&gt;termin&#45;physics</title>
<path fill="none" stroke="#666666" stroke-width="1.1" d="M775.7,-1075.23C806.62,-1064.7 846.66,-1051.06 878.54,-1040.2"/>
<polygon fill="#666666" stroke="#666666" stroke-width="1.1" points="879.37,-1042.5 885.21,-1037.93 877.79,-1037.87 879.37,-1042.5"/>
</g>
<!-- termin&#45;components&#45;collision -->
<g id="node19" class="node">
<title>termin&#45;components&#45;collision</title>
<path fill="#f7f7f7" stroke="#444444" d="M1251,-756.82C1251,-756.82 1105,-756.82 1105,-756.82 1099,-756.82 1093,-750.82 1093,-744.82 1093,-744.82 1093,-732.82 1093,-732.82 1093,-726.82 1099,-720.82 1105,-720.82 1105,-720.82 1251,-720.82 1251,-720.82 1257,-720.82 1263,-726.82 1263,-732.82 1263,-732.82 1263,-744.82 1263,-744.82 1263,-750.82 1257,-756.82 1251,-756.82"/>
<text text-anchor="middle" x="1178" y="-736.02" font-family="DejaVu Sans" font-size="11.00">termin&#45;components&#45;collision</text>
</g>
<!-- termin&#45;collision&#45;&gt;termin&#45;components&#45;collision -->
<g id="edge18" class="edge">
<title>termin&#45;collision&#45;&gt;termin&#45;components&#45;collision</title>
<path fill="none" stroke="#666666" stroke-width="1.1" d="M761.38,-1073.71C767.84,-1069.17 774.1,-1063.84 779,-1057.82 822.71,-1004.11 786.86,-961.61 836,-912.82 899.19,-850.07 948.89,-890.2 1023,-840.82 1057.79,-817.64 1053.18,-795.96 1088,-772.82 1095.47,-767.86 1103.76,-763.48 1112.19,-759.65"/>
<polygon fill="#666666" stroke="#666666" stroke-width="1.1" points="1113.22,-761.87 1118.66,-756.83 1111.26,-757.38 1113.22,-761.87"/>
</g>
<!-- termin&#45;android -->
<g id="node37" class="node">
<title>termin&#45;android</title>
<path fill="#f7f7f7" stroke="#444444" d="M1649.5,-538.82C1649.5,-538.82 1577.5,-538.82 1577.5,-538.82 1571.5,-538.82 1565.5,-532.82 1565.5,-526.82 1565.5,-526.82 1565.5,-514.82 1565.5,-514.82 1565.5,-508.82 1571.5,-502.82 1577.5,-502.82 1577.5,-502.82 1649.5,-502.82 1649.5,-502.82 1655.5,-502.82 1661.5,-508.82 1661.5,-514.82 1661.5,-514.82 1661.5,-526.82 1661.5,-526.82 1661.5,-532.82 1655.5,-538.82 1649.5,-538.82"/>
<text text-anchor="middle" x="1613.5" y="-518.02" font-family="DejaVu Sans" font-size="11.00">termin&#45;android</text>
</g>
<!-- termin&#45;collision&#45;&gt;termin&#45;android -->
<g id="edge17" class="edge">
<title>termin&#45;collision&#45;&gt;termin&#45;android</title>
<path fill="none" stroke="#666666" stroke-width="1.1" d="M775.52,-1103.77C794.29,-1107.82 816.02,-1111.82 836,-1113.82 984.59,-1128.67 1393.61,-1209.82 1508,-1113.82 1596.67,-1039.41 1610.13,-649.97 1612.15,-546.23"/>
<polygon fill="#666666" stroke="#666666" stroke-width="1.1" points="1614.6,-546.03 1612.28,-538.99 1609.7,-545.94 1614.6,-546.03"/>
</g>
<!-- termin&#45;openxr -->
<g id="node40" class="node">
<title>termin&#45;openxr</title>
<path fill="#f7f7f7" stroke="#444444" d="M1648,-470.82C1648,-470.82 1579,-470.82 1579,-470.82 1573,-470.82 1567,-464.82 1567,-458.82 1567,-458.82 1567,-446.82 1567,-446.82 1567,-440.82 1573,-434.82 1579,-434.82 1579,-434.82 1648,-434.82 1648,-434.82 1654,-434.82 1660,-440.82 1660,-446.82 1660,-446.82 1660,-458.82 1660,-458.82 1660,-464.82 1654,-470.82 1648,-470.82"/>
<text text-anchor="middle" x="1613.5" y="-450.02" font-family="DejaVu Sans" font-size="11.00">termin&#45;openxr</text>
</g>
<!-- termin&#45;collision&#45;&gt;termin&#45;openxr -->
<g id="edge19" class="edge">
<title>termin&#45;collision&#45;&gt;termin&#45;openxr</title>
<path fill="none" stroke="#666666" stroke-width="1.1" d="M775.72,-1094.74C916.17,-1100.17 1323.54,-1094.38 1508,-861.82 1612.76,-729.74 1476.86,-630.52 1565,-486.82 1567.44,-482.85 1570.53,-479.21 1573.96,-475.91"/>
<polygon fill="#666666" stroke="#666666" stroke-width="1.1" points="1575.92,-477.45 1579.59,-471 1572.7,-473.75 1575.92,-477.45"/>
</g>
<!-- termin&#45;csg -->
<g id="node5" class="node">
<title>termin&#45;csg</title>
<path fill="#f7f7f7" stroke="#444444" d="M222,-1109.82C222,-1109.82 173,-1109.82 173,-1109.82 167,-1109.82 161,-1103.82 161,-1097.82 161,-1097.82 161,-1085.82 161,-1085.82 161,-1079.82 167,-1073.82 173,-1073.82 173,-1073.82 222,-1073.82 222,-1073.82 228,-1073.82 234,-1079.82 234,-1085.82 234,-1085.82 234,-1097.82 234,-1097.82 234,-1103.82 228,-1109.82 222,-1109.82"/>
<text text-anchor="middle" x="197.5" y="-1089.02" font-family="DejaVu Sans" font-size="11.00">termin&#45;csg</text>
</g>
<!-- termin&#45;components&#45;mesh -->
<g id="node21" class="node">
<title>termin&#45;components&#45;mesh</title>
<path fill="#f7f7f7" stroke="#444444" d="M999.5,-756.82C999.5,-756.82 867.5,-756.82 867.5,-756.82 861.5,-756.82 855.5,-750.82 855.5,-744.82 855.5,-744.82 855.5,-732.82 855.5,-732.82 855.5,-726.82 861.5,-720.82 867.5,-720.82 867.5,-720.82 999.5,-720.82 999.5,-720.82 1005.5,-720.82 1011.5,-726.82 1011.5,-732.82 1011.5,-732.82 1011.5,-744.82 1011.5,-744.82 1011.5,-750.82 1005.5,-756.82 999.5,-756.82"/>
<text text-anchor="middle" x="933.5" y="-736.02" font-family="DejaVu Sans" font-size="11.00">termin&#45;components&#45;mesh</text>
</g>
<!-- termin&#45;csg&#45;&gt;termin&#45;components&#45;mesh -->
<g id="edge33" class="edge">
<title>termin&#45;csg&#45;&gt;termin&#45;components&#45;mesh</title>
<path fill="none" stroke="#666666" stroke-width="1.1" d="M203.33,-1109.96C214.39,-1147.4 245.47,-1232.57 307,-1266.82 362.53,-1297.73 398.04,-1303.42 450,-1266.82 502.87,-1229.58 470.7,-1187.96 499,-1129.82 530.73,-1064.63 619.2,-902.43 673,-853.82 680.5,-847.04 826.69,-776.76 836,-772.82 847.08,-768.14 859.05,-763.55 870.66,-759.34"/>
<polygon fill="#666666" stroke="#666666" stroke-width="1.1" points="871.69,-761.58 877.45,-756.91 870.03,-756.96 871.69,-761.58"/>
</g>
<!-- termin&#45;input -->
<g id="node6" class="node">
<title>termin&#45;input</title>
<path fill="#f7f7f7" stroke="#444444" d="M755,-905.82C755,-905.82 697,-905.82 697,-905.82 691,-905.82 685,-899.82 685,-893.82 685,-893.82 685,-881.82 685,-881.82 685,-875.82 691,-869.82 697,-869.82 697,-869.82 755,-869.82 755,-869.82 761,-869.82 767,-875.82 767,-881.82 767,-881.82 767,-893.82 767,-893.82 767,-899.82 761,-905.82 755,-905.82"/>
<text text-anchor="middle" x="726" y="-885.02" font-family="DejaVu Sans" font-size="11.00">termin&#45;input</text>
</g>
<!-- termin&#45;display -->
<g id="node29" class="node">
<title>termin&#45;display</title>
<path fill="#f7f7f7" stroke="#444444" d="M968,-471.82C968,-471.82 899,-471.82 899,-471.82 893,-471.82 887,-465.82 887,-459.82 887,-459.82 887,-447.82 887,-447.82 887,-441.82 893,-435.82 899,-435.82 899,-435.82 968,-435.82 968,-435.82 974,-435.82 980,-441.82 980,-447.82 980,-447.82 980,-459.82 980,-459.82 980,-465.82 974,-471.82 968,-471.82"/>
<text text-anchor="middle" x="933.5" y="-451.02" font-family="DejaVu Sans" font-size="11.00">termin&#45;display</text>
</g>
<!-- termin&#45;input&#45;&gt;termin&#45;display -->
<g id="edge47" class="edge">
<title>termin&#45;input&#45;&gt;termin&#45;display</title>
<path fill="none" stroke="#666666" stroke-width="1.1" d="M727.1,-869.67C728.35,-809.77 740,-615.72 836,-500.82 847.5,-487.06 863.99,-477 880.1,-469.81"/>
<polygon fill="#666666" stroke="#666666" stroke-width="1.1" points="881.48,-471.88 886.96,-466.9 879.56,-467.37 881.48,-471.88"/>
</g>
<!-- termin&#45;scene -->
<g id="node12" class="node">
<title>termin&#45;scene</title>
<path fill="#f7f7f7" stroke="#444444" d="M589,-905.82C589,-905.82 526,-905.82 526,-905.82 520,-905.82 514,-899.82 514,-893.82 514,-893.82 514,-881.82 514,-881.82 514,-875.82 520,-869.82 526,-869.82 526,-869.82 589,-869.82 589,-869.82 595,-869.82 601,-875.82 601,-881.82 601,-881.82 601,-893.82 601,-893.82 601,-899.82 595,-905.82 589,-905.82"/>
<text text-anchor="middle" x="557.5" y="-885.02" font-family="DejaVu Sans" font-size="11.00">termin&#45;scene</text>
</g>
<!-- termin&#45;inspect&#45;&gt;termin&#45;scene -->
<g id="edge48" class="edge">
<title>termin&#45;inspect&#45;&gt;termin&#45;scene</title>
<path fill="none" stroke="#666666" stroke-width="1.1" d="M422.46,-1005.76C431.85,-1001.1 441.52,-995.71 450,-989.82 483.16,-966.81 515.86,-933.46 536.1,-911.23"/>
<polygon fill="#666666" stroke="#666666" stroke-width="1.1" points="538.1,-912.67 540.97,-905.83 534.46,-909.39 538.1,-912.67"/>
</g>
<!-- termin&#45;graphics -->
<g id="node30" class="node">
<title>termin&#45;graphics</title>
<path fill="#f7f7f7" stroke="#444444" d="M596,-471.82C596,-471.82 519,-471.82 519,-471.82 513,-471.82 507,-465.82 507,-459.82 507,-459.82 507,-447.82 507,-447.82 507,-441.82 513,-435.82 519,-435.82 519,-435.82 596,-435.82 596,-435.82 602,-435.82 608,-441.82 608,-447.82 608,-447.82 608,-459.82 608,-459.82 608,-465.82 602,-471.82 596,-471.82"/>
<text text-anchor="middle" x="557.5" y="-451.02" font-family="DejaVu Sans" font-size="11.00">termin&#45;graphics</text>
</g>
<!-- termin&#45;mesh&#45;&gt;termin&#45;graphics -->
<g id="edge50" class="edge">
<title>termin&#45;mesh&#45;&gt;termin&#45;graphics</title>
<path fill="none" stroke="#666666" stroke-width="1.1" d="M420.74,-943.37C431.65,-938.27 442.47,-931.28 450,-921.82 506.12,-851.36 543.41,-566.12 553.65,-479.13"/>
<polygon fill="#666666" stroke="#666666" stroke-width="1.1" points="556.1,-479.28 554.47,-472.04 551.23,-478.71 556.1,-479.28"/>
</g>
<!-- termin&#45;modules&#45;&gt;termin&#45;app -->
<g id="edge51" class="edge">
<title>termin&#45;modules&#45;&gt;termin&#45;app</title>
<path fill="none" stroke="#666666" stroke-width="1.1" d="M382.05,-869.68C393.91,-786.83 445.42,-444.46 499,-351.82 567.19,-233.91 588.79,-144.82 725,-144.82 725,-144.82 725,-144.82 1179,-144.82 1325.96,-144.82 1385.12,-97.21 1508,-177.82 1566.2,-216 1595.16,-298.32 1606.52,-339.82"/>
<polygon fill="#666666" stroke="#666666" stroke-width="1.1" points="1604.16,-340.46 1608.32,-346.59 1608.89,-339.2 1604.16,-340.46"/>
</g>
<!-- termin&#45;navmesh -->
<g id="node10" class="node">
<title>termin&#45;navmesh</title>
<path fill="#f7f7f7" stroke="#444444" d="M238,-905.82C238,-905.82 157,-905.82 157,-905.82 151,-905.82 145,-899.82 145,-893.82 145,-893.82 145,-881.82 145,-881.82 145,-875.82 151,-869.82 157,-869.82 157,-869.82 238,-869.82 238,-869.82 244,-869.82 250,-875.82 250,-881.82 250,-881.82 250,-893.82 250,-893.82 250,-899.82 244,-905.82 238,-905.82"/>
<text text-anchor="middle" x="197.5" y="-885.02" font-family="DejaVu Sans" font-size="11.00">termin&#45;navmesh</text>
</g>
<!-- termin&#45;navmesh&#45;&gt;termin&#45;app -->
<g id="edge53" class="edge">
<title>termin&#45;navmesh&#45;&gt;termin&#45;app</title>
<path fill="none" stroke="#666666" stroke-width="1.1" d="M198.73,-869.8C200.29,-796.32 212.45,-513.52 307,-307.82 378.72,-151.8 384.78,-12.82 556.5,-12.82 556.5,-12.82 556.5,-12.82 1179,-12.82 1326.58,-12.82 1394.11,36.04 1508,-57.82 1595.91,-130.28 1610.14,-279.99 1612.24,-339.56"/>
<polygon fill="#666666" stroke="#666666" stroke-width="1.1" points="1609.79,-339.78 1612.45,-346.7 1614.69,-339.63 1609.79,-339.78"/>
</g>
<!-- termin&#45;components&#45;physics -->
<g id="node22" class="node">
<title>termin&#45;components&#45;physics</title>
<path fill="#f7f7f7" stroke="#444444" d="M1488,-756.82C1488,-756.82 1345,-756.82 1345,-756.82 1339,-756.82 1333,-750.82 1333,-744.82 1333,-744.82 1333,-732.82 1333,-732.82 1333,-726.82 1339,-720.82 1345,-720.82 1345,-720.82 1488,-720.82 1488,-720.82 1494,-720.82 1500,-726.82 1500,-732.82 1500,-732.82 1500,-744.82 1500,-744.82 1500,-750.82 1494,-756.82 1488,-756.82"/>
<text text-anchor="middle" x="1416.5" y="-736.02" font-family="DejaVu Sans" font-size="11.00">termin&#45;components&#45;physics</text>
</g>
<!-- termin&#45;physics&#45;&gt;termin&#45;components&#45;physics -->
<g id="edge55" class="edge">
<title>termin&#45;physics&#45;&gt;termin&#45;components&#45;physics</title>
<path fill="none" stroke="#666666" stroke-width="1.1" d="M979.94,-1003.77C994.18,-997.34 1009.66,-989.5 1023,-980.82 1055.21,-959.86 1055.78,-944.75 1088,-923.82 1161.88,-875.84 1191.49,-884.48 1268,-840.82 1310.79,-816.4 1357.04,-783.2 1386.12,-761.4"/>
<polygon fill="#666666" stroke="#666666" stroke-width="1.1" points="1387.94,-763.1 1392.06,-756.93 1384.99,-759.18 1387.94,-763.1"/>
</g>
<!-- termin&#45;scene&#45;&gt;termin&#45;collision -->
<g id="edge61" class="edge">
<title>termin&#45;scene&#45;&gt;termin&#45;collision</title>
<path fill="none" stroke="#666666" stroke-width="1.1" d="M567.54,-905.9C584.69,-938.95 624.61,-1010.09 673,-1057.82 677.25,-1062.01 682.09,-1065.98 687.07,-1069.63"/>
<polygon fill="#666666" stroke="#666666" stroke-width="1.1" points="685.82,-1071.74 692.96,-1073.75 688.63,-1067.73 685.82,-1071.74"/>
</g>
<!-- termin&#45;scene&#45;&gt;termin&#45;input -->
<g id="edge64" class="edge">
<title>termin&#45;scene&#45;&gt;termin&#45;input</title>
<path fill="none" stroke="#666666" stroke-width="1.1" d="M601.38,-887.82C624.69,-887.82 653.58,-887.82 677.57,-887.82"/>
<polygon fill="#666666" stroke="#666666" stroke-width="1.1" points="677.84,-890.27 684.84,-887.82 677.84,-885.37 677.84,-890.27"/>
</g>
<!-- termin&#45;skeleton -->
<g id="node13" class="node">
<title>termin&#45;skeleton</title>
<path fill="#f7f7f7" stroke="#444444" d="M764.5,-973.82C764.5,-973.82 687.5,-973.82 687.5,-973.82 681.5,-973.82 675.5,-967.82 675.5,-961.82 675.5,-961.82 675.5,-949.82 675.5,-949.82 675.5,-943.82 681.5,-937.82 687.5,-937.82 687.5,-937.82 764.5,-937.82 764.5,-937.82 770.5,-937.82 776.5,-943.82 776.5,-949.82 776.5,-949.82 776.5,-961.82 776.5,-961.82 776.5,-967.82 770.5,-973.82 764.5,-973.82"/>
<text text-anchor="middle" x="726" y="-953.02" font-family="DejaVu Sans" font-size="11.00">termin&#45;skeleton</text>
</g>
<!-- termin&#45;scene&#45;&gt;termin&#45;skeleton -->
<g id="edge66" class="edge">
<title>termin&#45;scene&#45;&gt;termin&#45;skeleton</title>
<path fill="none" stroke="#666666" stroke-width="1.1" d="M601.38,-905.33C623.57,-914.39 650.8,-925.52 674.05,-935.01"/>
<polygon fill="#666666" stroke="#666666" stroke-width="1.1" points="673.41,-937.4 680.82,-937.78 675.26,-932.86 673.41,-937.4"/>
</g>
<!-- termin&#45;components&#45;kinematic -->
<g id="node20" class="node">
<title>termin&#45;components&#45;kinematic</title>
<path fill="#f7f7f7" stroke="#444444" d="M1011,-688.82C1011,-688.82 856,-688.82 856,-688.82 850,-688.82 844,-682.82 844,-676.82 844,-676.82 844,-664.82 844,-664.82 844,-658.82 850,-652.82 856,-652.82 856,-652.82 1011,-652.82 1011,-652.82 1017,-652.82 1023,-658.82 1023,-664.82 1023,-664.82 1023,-676.82 1023,-676.82 1023,-682.82 1017,-688.82 1011,-688.82"/>
<text text-anchor="middle" x="933.5" y="-668.02" font-family="DejaVu Sans" font-size="11.00">termin&#45;components&#45;kinematic</text>
</g>
<!-- termin&#45;scene&#45;&gt;termin&#45;components&#45;kinematic -->
<g id="edge62" class="edge">
<title>termin&#45;scene&#45;&gt;termin&#45;components&#45;kinematic</title>
<path fill="none" stroke="#666666" stroke-width="1.1" d="M569.11,-869.69C586.94,-840.78 625.65,-784.3 673,-752.82 722.23,-720.09 785.34,-699.76 836.99,-687.54"/>
<polygon fill="#666666" stroke="#666666" stroke-width="1.1" points="837.61,-689.91 843.87,-685.94 836.5,-685.13 837.61,-689.91"/>
</g>
<!-- termin&#45;scene&#45;&gt;termin&#45;components&#45;mesh -->
<g id="edge63" class="edge">
<title>termin&#45;scene&#45;&gt;termin&#45;components&#45;mesh</title>
<path fill="none" stroke="#666666" stroke-width="1.1" d="M575.72,-869.61C596.68,-848.56 634.13,-814.43 673,-795.82 728.24,-769.37 796,-755.02 848.42,-747.34"/>
<polygon fill="#666666" stroke="#666666" stroke-width="1.1" points="848.8,-749.76 855.38,-746.35 848.11,-744.91 848.8,-749.76"/>
</g>
<!-- termin&#45;render -->
<g id="node32" class="node">
<title>termin&#45;render</title>
<path fill="#f7f7f7" stroke="#444444" d="M759,-471.82C759,-471.82 693,-471.82 693,-471.82 687,-471.82 681,-465.82 681,-459.82 681,-459.82 681,-447.82 681,-447.82 681,-441.82 687,-435.82 693,-435.82 693,-435.82 759,-435.82 759,-435.82 765,-435.82 771,-441.82 771,-447.82 771,-447.82 771,-459.82 771,-459.82 771,-465.82 765,-471.82 759,-471.82"/>
<text text-anchor="middle" x="726" y="-451.02" font-family="DejaVu Sans" font-size="11.00">termin&#45;render</text>
</g>
<!-- termin&#45;scene&#45;&gt;termin&#45;render -->
<g id="edge65" class="edge">
<title>termin&#45;scene&#45;&gt;termin&#45;render</title>
<path fill="none" stroke="#666666" stroke-width="1.1" d="M565.44,-869.72C591.73,-801.21 685.19,-557.58 715.46,-478.68"/>
<polygon fill="#666666" stroke="#666666" stroke-width="1.1" points="717.81,-479.41 718.03,-471.99 713.23,-477.65 717.81,-479.41"/>
</g>
<!-- termin&#45;skeleton&#45;&gt;termin&#45;animation -->
<g id="edge67" class="edge">
<title>termin&#45;skeleton&#45;&gt;termin&#45;animation</title>
<path fill="none" stroke="#666666" stroke-width="1.1" d="M776.75,-953.64C805.34,-952.39 841.47,-950.81 871.73,-949.48"/>
<polygon fill="#666666" stroke="#666666" stroke-width="1.1" points="872.01,-951.92 878.89,-949.17 871.79,-947.03 872.01,-951.92"/>
</g>
<!-- termin&#45;components&#45;skeleton -->
<g id="node23" class="node">
<title>termin&#45;components&#45;skeleton</title>
<path fill="#f7f7f7" stroke="#444444" d="M1007.5,-824.82C1007.5,-824.82 859.5,-824.82 859.5,-824.82 853.5,-824.82 847.5,-818.82 847.5,-812.82 847.5,-812.82 847.5,-800.82 847.5,-800.82 847.5,-794.82 853.5,-788.82 859.5,-788.82 859.5,-788.82 1007.5,-788.82 1007.5,-788.82 1013.5,-788.82 1019.5,-794.82 1019.5,-800.82 1019.5,-800.82 1019.5,-812.82 1019.5,-812.82 1019.5,-818.82 1013.5,-824.82 1007.5,-824.82"/>
<text text-anchor="middle" x="933.5" y="-804.02" font-family="DejaVu Sans" font-size="11.00">termin&#45;components&#45;skeleton</text>
</g>
<!-- termin&#45;skeleton&#45;&gt;termin&#45;components&#45;skeleton -->
<g id="edge68" class="edge">
<title>termin&#45;skeleton&#45;&gt;termin&#45;components&#45;skeleton</title>
<path fill="none" stroke="#666666" stroke-width="1.1" d="M758.06,-937.65C765.24,-932.88 772.63,-927.48 779,-921.82 808.49,-895.64 804.92,-878.1 836,-853.82 848.86,-843.77 864.22,-835.1 878.86,-828.03"/>
<polygon fill="#666666" stroke="#666666" stroke-width="1.1" points="880.23,-830.1 885.52,-824.9 878.14,-825.66 880.23,-830.1"/>
</g>
<!-- termin&#45;tween -->
<g id="node14" class="node">
<title>termin&#45;tween</title>
<path fill="#f7f7f7" stroke="#444444" d="M229.5,-973.82C229.5,-973.82 165.5,-973.82 165.5,-973.82 159.5,-973.82 153.5,-967.82 153.5,-961.82 153.5,-961.82 153.5,-949.82 153.5,-949.82 153.5,-943.82 159.5,-937.82 165.5,-937.82 165.5,-937.82 229.5,-937.82 229.5,-937.82 235.5,-937.82 241.5,-943.82 241.5,-949.82 241.5,-949.82 241.5,-961.82 241.5,-961.82 241.5,-967.82 235.5,-973.82 229.5,-973.82"/>
<text text-anchor="middle" x="197.5" y="-953.02" font-family="DejaVu Sans" font-size="11.00">termin&#45;tween</text>
</g>
<!-- termin&#45;components&#45;tween -->
<g id="node24" class="node">
<title>termin&#45;components&#45;tween</title>
<path fill="#f7f7f7" stroke="#444444" d="M1001,-552.82C1001,-552.82 866,-552.82 866,-552.82 860,-552.82 854,-546.82 854,-540.82 854,-540.82 854,-528.82 854,-528.82 854,-522.82 860,-516.82 866,-516.82 866,-516.82 1001,-516.82 1001,-516.82 1007,-516.82 1013,-522.82 1013,-528.82 1013,-528.82 1013,-540.82 1013,-540.82 1013,-546.82 1007,-552.82 1001,-552.82"/>
<text text-anchor="middle" x="933.5" y="-532.02" font-family="DejaVu Sans" font-size="11.00">termin&#45;components&#45;tween</text>
</g>
<!-- termin&#45;tween&#45;&gt;termin&#45;components&#45;tween -->
<g id="edge69" class="edge">
<title>termin&#45;tween&#45;&gt;termin&#45;components&#45;tween</title>
<path fill="none" stroke="#666666" stroke-width="1.1" d="M228.99,-937.8C236.18,-932.99 243.6,-927.53 250,-921.82 279.43,-895.57 276.43,-878.73 307,-853.82 514.04,-685.13 591.77,-676.85 836,-568.82 846.8,-564.04 858.49,-559.46 869.89,-555.28"/>
<polygon fill="#666666" stroke="#666666" stroke-width="1.1" points="870.8,-557.56 876.56,-552.87 869.14,-552.95 870.8,-557.56"/>
</g>
<!-- termin&#45;voxels -->
<g id="node15" class="node">
<title>termin&#45;voxels</title>
<path fill="#f7f7f7" stroke="#444444" d="M759,-1041.82C759,-1041.82 693,-1041.82 693,-1041.82 687,-1041.82 681,-1035.82 681,-1029.82 681,-1029.82 681,-1017.82 681,-1017.82 681,-1011.82 687,-1005.82 693,-1005.82 693,-1005.82 759,-1005.82 759,-1005.82 765,-1005.82 771,-1011.82 771,-1017.82 771,-1017.82 771,-1029.82 771,-1029.82 771,-1035.82 765,-1041.82 759,-1041.82"/>
<text text-anchor="middle" x="726" y="-1021.02" font-family="DejaVu Sans" font-size="11.00">termin&#45;voxels</text>
</g>
<!-- termin&#45;voxels&#45;&gt;termin&#45;physics -->
<g id="edge71" class="edge">
<title>termin&#45;voxels&#45;&gt;termin&#45;physics</title>
<path fill="none" stroke="#666666" stroke-width="1.1" d="M771.08,-1023.39C802.33,-1023.09 844.47,-1022.68 877.85,-1022.35"/>
<polygon fill="#666666" stroke="#666666" stroke-width="1.1" points="878.29,-1024.8 885.27,-1022.28 878.24,-1019.9 878.29,-1024.8"/>
</g>
<!-- termin&#45;components&#45;voxels -->
<g id="node25" class="node">
<title>termin&#45;components&#45;voxels</title>
<path fill="#f7f7f7" stroke="#444444" d="M1002,-620.82C1002,-620.82 865,-620.82 865,-620.82 859,-620.82 853,-614.82 853,-608.82 853,-608.82 853,-596.82 853,-596.82 853,-590.82 859,-584.82 865,-584.82 865,-584.82 1002,-584.82 1002,-584.82 1008,-584.82 1014,-590.82 1014,-596.82 1014,-596.82 1014,-608.82 1014,-608.82 1014,-614.82 1008,-620.82 1002,-620.82"/>
<text text-anchor="middle" x="933.5" y="-600.02" font-family="DejaVu Sans" font-size="11.00">termin&#45;components&#45;voxels</text>
</g>
<!-- termin&#45;voxels&#45;&gt;termin&#45;components&#45;voxels -->
<g id="edge70" class="edge">
<title>termin&#45;voxels&#45;&gt;termin&#45;components&#45;voxels</title>
<path fill="none" stroke="#666666" stroke-width="1.1" d="M763.48,-1005.7C769.46,-1001.25 775.01,-995.97 779,-989.82 865.55,-856.53 734.1,-758.77 836,-636.82 839.85,-632.22 844.36,-628.23 849.29,-624.79"/>
<polygon fill="#666666" stroke="#666666" stroke-width="1.1" points="850.68,-626.82 855.27,-620.99 848.05,-622.68 850.68,-626.82"/>
</g>
<!-- termin -->
<g id="node16" class="node">
<title>termin</title>
<path fill="#f7f7f7" stroke="#444444" d="M59,-1140.82C59,-1140.82 29,-1140.82 29,-1140.82 23,-1140.82 17,-1134.82 17,-1128.82 17,-1128.82 17,-1116.82 17,-1116.82 17,-1110.82 23,-1104.82 29,-1104.82 29,-1104.82 59,-1104.82 59,-1104.82 65,-1104.82 71,-1110.82 71,-1116.82 71,-1116.82 71,-1128.82 71,-1128.82 71,-1134.82 65,-1140.82 59,-1140.82"/>
<text text-anchor="middle" x="44" y="-1120.02" font-family="DejaVu Sans" font-size="11.00">termin</text>
</g>
<!-- termin&#45;&gt;termin&#45;app -->
<g id="edge2" class="edge">
<title>termin&#45;&gt;termin&#45;app</title>
<path fill="none" stroke="#666666" stroke-width="1.1" d="M50.81,-1141.04C62.22,-1174.15 90.6,-1244.6 137,-1285.82 198.22,-1340.2 226.76,-1340.52 307,-1356.82 618.9,-1420.18 726.63,-1460.83 1023,-1344.82 1288.8,-1240.78 1375.14,-1176.45 1508,-923.82 1613.13,-723.91 1473.53,-625.34 1565,-418.82 1569.94,-407.66 1578.03,-397.16 1586.15,-388.43"/>
<polygon fill="#666666" stroke="#666666" stroke-width="1.1" points="1588.07,-389.97 1591.17,-383.23 1584.54,-386.56 1588.07,-389.97"/>
</g>
<!-- termin&#45;&gt;termin&#45;navmesh -->
<g id="edge3" class="edge">
<title>termin&#45;&gt;termin&#45;navmesh</title>
<path fill="none" stroke="#666666" stroke-width="1.1" d="M49.28,-1104.61C59.01,-1066.57 86,-977.63 137,-921.82 141.04,-917.4 145.79,-913.41 150.81,-909.84"/>
<polygon fill="#666666" stroke="#666666" stroke-width="1.1" points="152.34,-911.77 156.81,-905.85 149.63,-907.69 152.34,-911.77"/>
</g>
<!-- termin&#45;&gt;termin&#45;tween -->
<g id="edge4" class="edge">
<title>termin&#45;&gt;termin&#45;tween</title>
<path fill="none" stroke="#666666" stroke-width="1.1" d="M54.18,-1104.57C68.73,-1077.01 99.35,-1024.37 137,-989.82 141.76,-985.45 147.19,-981.4 152.77,-977.74"/>
<polygon fill="#666666" stroke="#666666" stroke-width="1.1" points="154.25,-979.71 158.88,-973.91 151.64,-975.55 154.25,-979.71"/>
</g>
<!-- termin&#45;&gt;termin&#45;voxels -->
<g id="edge5" class="edge">
<title>termin&#45;&gt;termin&#45;voxels</title>
<path fill="none" stroke="#666666" stroke-width="1.1" d="M59.95,-1140.91C112.79,-1202.59 295.91,-1396.89 450,-1324.82 590.05,-1259.32 557.48,-1160.58 673,-1057.82 677.58,-1053.75 682.68,-1049.81 687.85,-1046.15"/>
<polygon fill="#666666" stroke="#666666" stroke-width="1.1" points="689.54,-1047.96 693.93,-1041.98 686.77,-1043.92 689.54,-1047.96"/>
</g>
<!-- termin&#45;components&#45;animation&#45;&gt;termin&#45;app -->
<g id="edge21" class="edge">
<title>termin&#45;components&#45;animation&#45;&gt;termin&#45;app</title>
<path fill="none" stroke="#666666" stroke-width="1.1" d="M1248.33,-788.72C1255.74,-784.49 1262.55,-779.26 1268,-772.82 1362.83,-660.67 1234.14,-557.44 1333,-448.82 1364.78,-413.91 1498.39,-385.31 1568.75,-372.34"/>
<polygon fill="#666666" stroke="#666666" stroke-width="1.1" points="1569.32,-374.72 1575.77,-371.06 1568.44,-369.9 1569.32,-374.72"/>
</g>
<!-- termin&#45;components&#45;collision&#45;&gt;termin&#45;components&#45;physics -->
<g id="edge22" class="edge">
<title>termin&#45;components&#45;collision&#45;&gt;termin&#45;components&#45;physics</title>
<path fill="none" stroke="#666666" stroke-width="1.1" d="M1263.05,-738.82C1283.36,-738.82 1305.14,-738.82 1325.7,-738.82"/>
<polygon fill="#666666" stroke="#666666" stroke-width="1.1" points="1325.92,-741.27 1332.92,-738.82 1325.92,-736.37 1325.92,-741.27"/>
</g>
<!-- termin&#45;components&#45;kinematic&#45;&gt;termin&#45;app -->
<g id="edge23" class="edge">
<title>termin&#45;components&#45;kinematic&#45;&gt;termin&#45;app</title>
<path fill="none" stroke="#666666" stroke-width="1.1" d="M1023.12,-660.81C1097.49,-647.97 1201.9,-618.97 1268,-553.82 1327.69,-494.99 1265.33,-426.25 1333,-376.82 1402.35,-326.17 1509.23,-339.76 1568.72,-353.01"/>
<polygon fill="#666666" stroke="#666666" stroke-width="1.1" points="1568.36,-355.45 1575.73,-354.62 1569.46,-350.67 1568.36,-355.45"/>
</g>
<!-- termin&#45;components&#45;mesh&#45;&gt;termin&#45;components&#45;collision -->
<g id="edge24" class="edge">
<title>termin&#45;components&#45;mesh&#45;&gt;termin&#45;components&#45;collision</title>
<path fill="none" stroke="#666666" stroke-width="1.1" d="M1011.56,-738.82C1035.17,-738.82 1061.36,-738.82 1085.81,-738.82"/>
<polygon fill="#666666" stroke="#666666" stroke-width="1.1" points="1086,-741.27 1093,-738.82 1086,-736.37 1086,-741.27"/>
</g>
<!-- termin&#45;components&#45;render -->
<g id="node28" class="node">
<title>termin&#45;components&#45;render</title>
<path fill="#f7f7f7" stroke="#444444" d="M1247,-471.82C1247,-471.82 1109,-471.82 1109,-471.82 1103,-471.82 1097,-465.82 1097,-459.82 1097,-459.82 1097,-447.82 1097,-447.82 1097,-441.82 1103,-435.82 1109,-435.82 1109,-435.82 1247,-435.82 1247,-435.82 1253,-435.82 1259,-441.82 1259,-447.82 1259,-447.82 1259,-459.82 1259,-459.82 1259,-465.82 1253,-471.82 1247,-471.82"/>
<text text-anchor="middle" x="1178" y="-451.02" font-family="DejaVu Sans" font-size="11.00">termin&#45;components&#45;render</text>
</g>
<!-- termin&#45;components&#45;mesh&#45;&gt;termin&#45;components&#45;render -->
<g id="edge25" class="edge">
<title>termin&#45;components&#45;mesh&#45;&gt;termin&#45;components&#45;render</title>
<path fill="none" stroke="#666666" stroke-width="1.1" d="M1001.46,-720.8C1009.44,-716.54 1016.9,-711.29 1023,-704.82 1088.3,-635.6 1026.94,-573.8 1088,-500.82 1096.69,-490.43 1108.27,-482.03 1120.2,-475.36"/>
<polygon fill="#666666" stroke="#666666" stroke-width="1.1" points="1121.43,-477.48 1126.46,-472.03 1119.13,-473.16 1121.43,-477.48"/>
</g>
<!-- termin&#45;components&#45;physics&#45;&gt;termin&#45;app -->
<g id="edge26" class="edge">
<title>termin&#45;components&#45;physics&#45;&gt;termin&#45;app</title>
<path fill="none" stroke="#666666" stroke-width="1.1" d="M1423.79,-720.54C1441.61,-670.07 1495.62,-525.48 1565,-418.82 1571.88,-408.25 1580.73,-397.61 1588.92,-388.6"/>
<polygon fill="#666666" stroke="#666666" stroke-width="1.1" points="1590.94,-390.02 1593.91,-383.22 1587.35,-386.69 1590.94,-390.02"/>
</g>
<!-- termin&#45;components&#45;skeleton&#45;&gt;termin&#45;components&#45;animation -->
<g id="edge29" class="edge">
<title>termin&#45;components&#45;skeleton&#45;&gt;termin&#45;components&#45;animation</title>
<path fill="none" stroke="#666666" stroke-width="1.1" d="M1019.66,-806.82C1039.43,-806.82 1060.62,-806.82 1080.83,-806.82"/>
<polygon fill="#666666" stroke="#666666" stroke-width="1.1" points="1080.94,-809.27 1087.94,-806.82 1080.94,-804.37 1080.94,-809.27"/>
</g>
<!-- termin&#45;components&#45;skeleton&#45;&gt;termin&#45;components&#45;render -->
<g id="edge30" class="edge">
<title>termin&#45;components&#45;skeleton&#45;&gt;termin&#45;components&#45;render</title>
<path fill="none" stroke="#666666" stroke-width="1.1" d="M1002.79,-788.72C1010.36,-784.48 1017.36,-779.26 1023,-772.82 1104.89,-679.32 1011.82,-599.03 1088,-500.82 1096.04,-490.45 1107.02,-482.12 1118.53,-475.53"/>
<polygon fill="#666666" stroke="#666666" stroke-width="1.1" points="1119.97,-477.53 1124.96,-472.04 1117.64,-473.22 1119.97,-477.53"/>
</g>
<!-- termin&#45;components&#45;tween&#45;&gt;termin&#45;app -->
<g id="edge31" class="edge">
<title>termin&#45;components&#45;tween&#45;&gt;termin&#45;app</title>
<path fill="none" stroke="#666666" stroke-width="1.1" d="M1013.13,-549.84C1086.67,-559.22 1195.73,-560.56 1268,-504.82 1335.35,-452.87 1263.39,-373.69 1333,-324.82 1405.62,-273.83 1515.3,-314.95 1573.31,-343.42"/>
<polygon fill="#666666" stroke="#666666" stroke-width="1.1" points="1572.42,-345.71 1579.78,-346.64 1574.61,-341.33 1572.42,-345.71"/>
</g>
<!-- termin&#45;components&#45;voxels&#45;&gt;termin&#45;navmesh -->
<g id="edge32" class="edge">
<title>termin&#45;components&#45;voxels&#45;&gt;termin&#45;navmesh</title>
<path fill="none" stroke="#666666" stroke-width="1.1" d="M882.28,-584.72C768.26,-547.08 485.92,-473.73 307,-597.82 217.83,-659.66 201.82,-804.3 199.04,-862.7"/>
<polygon fill="#666666" stroke="#666666" stroke-width="1.1" points="196.59,-862.61 198.75,-869.71 201.49,-862.81 196.59,-862.61"/>
</g>
<!-- termin&#45;assets&#45;&gt;termin&#45;app -->
<g id="edge8" class="edge">
<title>termin&#45;assets&#45;&gt;termin&#45;app</title>
<path fill="none" stroke="#666666" stroke-width="1.1" d="M383.58,-323.61C394.25,-280.5 427.29,-171.91 499,-119.82 581.59,-59.82 622.92,-78.82 725,-78.82 725,-78.82 725,-78.82 1179,-78.82 1326.35,-78.82 1390.32,-31.14 1508,-119.82 1580.33,-174.33 1603.15,-288.85 1609.88,-339.64"/>
<polygon fill="#666666" stroke="#666666" stroke-width="1.1" points="1607.46,-340.02 1610.76,-346.66 1612.32,-339.41 1607.46,-340.02"/>
</g>
<!-- termin&#45;components&#45;foliage -->
<g id="node38" class="node">
<title>termin&#45;components&#45;foliage</title>
<path fill="#f7f7f7" stroke="#444444" d="M1002.5,-317.82C1002.5,-317.82 864.5,-317.82 864.5,-317.82 858.5,-317.82 852.5,-311.82 852.5,-305.82 852.5,-305.82 852.5,-293.82 852.5,-293.82 852.5,-287.82 858.5,-281.82 864.5,-281.82 864.5,-281.82 1002.5,-281.82 1002.5,-281.82 1008.5,-281.82 1014.5,-287.82 1014.5,-293.82 1014.5,-293.82 1014.5,-305.82 1014.5,-305.82 1014.5,-311.82 1008.5,-317.82 1002.5,-317.82"/>
<text text-anchor="middle" x="933.5" y="-297.02" font-family="DejaVu Sans" font-size="11.00">termin&#45;components&#45;foliage</text>
</g>
<!-- termin&#45;assets&#45;&gt;termin&#45;components&#45;foliage -->
<g id="edge9" class="edge">
<title>termin&#45;assets&#45;&gt;termin&#45;components&#45;foliage</title>
<path fill="none" stroke="#666666" stroke-width="1.1" d="M423.54,-333.52C480.77,-323.2 583.92,-306.16 673,-299.82 730.3,-295.74 794.89,-295.73 845.3,-296.74"/>
<polygon fill="#666666" stroke="#666666" stroke-width="1.1" points="845.27,-299.19 852.32,-296.89 845.37,-294.29 845.27,-299.19"/>
</g>
<!-- termin&#45;nanobind&#45;sdk -->
<g id="node27" class="node">
<title>termin&#45;nanobind&#45;sdk</title>
<path fill="#f7f7f7" stroke="#444444" d="M430,-427.82C430,-427.82 327,-427.82 327,-427.82 321,-427.82 315,-421.82 315,-415.82 315,-415.82 315,-403.82 315,-403.82 315,-397.82 321,-391.82 327,-391.82 327,-391.82 430,-391.82 430,-391.82 436,-391.82 442,-397.82 442,-403.82 442,-403.82 442,-415.82 442,-415.82 442,-421.82 436,-427.82 430,-427.82"/>
<text text-anchor="middle" x="378.5" y="-407.02" font-family="DejaVu Sans" font-size="11.00">termin&#45;nanobind&#45;sdk</text>
</g>
<!-- termin&#45;nanobind&#45;sdk&#45;&gt;termin&#45;base -->
<g id="edge52" class="edge">
<title>termin&#45;nanobind&#45;sdk&#45;&gt;termin&#45;base</title>
<path fill="none" stroke="#666666" stroke-width="1.1" d="M373.52,-427.86C362.77,-476.57 332.28,-614.81 307,-729.82 281.61,-845.36 316.95,-892.29 250,-989.82 247.12,-994.01 243.55,-997.82 239.62,-1001.23"/>
<polygon fill="#666666" stroke="#666666" stroke-width="1.1" points="238.03,-999.37 234.1,-1005.65 241.09,-1003.2 238.03,-999.37"/>
</g>
<!-- termin&#45;render&#45;passes -->
<g id="node43" class="node">
<title>termin&#45;render&#45;passes</title>
<path fill="#f7f7f7" stroke="#444444" d="M1470.5,-500.82C1470.5,-500.82 1362.5,-500.82 1362.5,-500.82 1356.5,-500.82 1350.5,-494.82 1350.5,-488.82 1350.5,-488.82 1350.5,-476.82 1350.5,-476.82 1350.5,-470.82 1356.5,-464.82 1362.5,-464.82 1362.5,-464.82 1470.5,-464.82 1470.5,-464.82 1476.5,-464.82 1482.5,-470.82 1482.5,-476.82 1482.5,-476.82 1482.5,-488.82 1482.5,-488.82 1482.5,-494.82 1476.5,-500.82 1470.5,-500.82"/>
<text text-anchor="middle" x="1416.5" y="-480.02" font-family="DejaVu Sans" font-size="11.00">termin&#45;render&#45;passes</text>
</g>
<!-- termin&#45;components&#45;render&#45;&gt;termin&#45;render&#45;passes -->
<g id="edge27" class="edge">
<title>termin&#45;components&#45;render&#45;&gt;termin&#45;render&#45;passes</title>
<path fill="none" stroke="#666666" stroke-width="1.1" d="M1259.07,-463.64C1286.38,-466.99 1316.73,-470.71 1343.38,-473.98"/>
<polygon fill="#666666" stroke="#666666" stroke-width="1.1" points="1343.18,-476.42 1350.43,-474.84 1343.78,-471.56 1343.18,-476.42"/>
</g>
<!-- termin&#45;runtime -->
<g id="node44" class="node">
<title>termin&#45;runtime</title>
<path fill="#f7f7f7" stroke="#444444" d="M1650,-97.82C1650,-97.82 1577,-97.82 1577,-97.82 1571,-97.82 1565,-91.82 1565,-85.82 1565,-85.82 1565,-73.82 1565,-73.82 1565,-67.82 1571,-61.82 1577,-61.82 1577,-61.82 1650,-61.82 1650,-61.82 1656,-61.82 1662,-67.82 1662,-73.82 1662,-73.82 1662,-85.82 1662,-85.82 1662,-91.82 1656,-97.82 1650,-97.82"/>
<text text-anchor="middle" x="1613.5" y="-77.02" font-family="DejaVu Sans" font-size="11.00">termin&#45;runtime</text>
</g>
<!-- termin&#45;components&#45;render&#45;&gt;termin&#45;runtime -->
<g id="edge28" class="edge">
<title>termin&#45;components&#45;render&#45;&gt;termin&#45;runtime</title>
<path fill="none" stroke="#666666" stroke-width="1.1" d="M1184.11,-435.75C1198.82,-386.93 1245.88,-251.13 1333,-177.82 1398.41,-122.78 1496.73,-97.9 1557.64,-87.22"/>
<polygon fill="#666666" stroke="#666666" stroke-width="1.1" points="1558.39,-89.57 1564.87,-85.98 1557.56,-84.74 1558.39,-89.57"/>
</g>
<!-- termin&#45;display&#45;&gt;termin&#45;components&#45;render -->
<g id="edge34" class="edge">
<title>termin&#45;display&#45;&gt;termin&#45;components&#45;render</title>
<path fill="none" stroke="#666666" stroke-width="1.1" d="M980.11,-453.82C1010.85,-453.82 1052.4,-453.82 1089.4,-453.82"/>
<polygon fill="#666666" stroke="#666666" stroke-width="1.1" points="1089.73,-456.27 1096.73,-453.82 1089.73,-451.37 1089.73,-456.27"/>
</g>
<!-- termin&#45;engine -->
<g id="node33" class="node">
<title>termin&#45;engine</title>
<path fill="#f7f7f7" stroke="#444444" d="M1450,-229.82C1450,-229.82 1383,-229.82 1383,-229.82 1377,-229.82 1371,-223.82 1371,-217.82 1371,-217.82 1371,-205.82 1371,-205.82 1371,-199.82 1377,-193.82 1383,-193.82 1383,-193.82 1450,-193.82 1450,-193.82 1456,-193.82 1462,-199.82 1462,-205.82 1462,-205.82 1462,-217.82 1462,-217.82 1462,-223.82 1456,-229.82 1450,-229.82"/>
<text text-anchor="middle" x="1416.5" y="-209.02" font-family="DejaVu Sans" font-size="11.00">termin&#45;engine</text>
</g>
<!-- termin&#45;display&#45;&gt;termin&#45;engine -->
<g id="edge35" class="edge">
<title>termin&#45;display&#45;&gt;termin&#45;engine</title>
<path fill="none" stroke="#666666" stroke-width="1.1" d="M970.65,-435.63C1057.92,-391.73 1279.75,-280.12 1373.09,-233.16"/>
<polygon fill="#666666" stroke="#666666" stroke-width="1.1" points="1374.43,-235.23 1379.58,-229.89 1372.23,-230.85 1374.43,-235.23"/>
</g>
<!-- termin&#45;graphics&#45;&gt;termin&#45;voxels -->
<g id="edge43" class="edge">
<title>termin&#45;graphics&#45;&gt;termin&#45;voxels</title>
<path fill="none" stroke="#666666" stroke-width="1.1" d="M560.5,-471.89C569.98,-555.16 612.53,-901.63 673,-989.82 675.89,-994.04 679.5,-997.86 683.46,-1001.29"/>
<polygon fill="#666666" stroke="#666666" stroke-width="1.1" points="682.03,-1003.29 689.03,-1005.72 685.08,-999.45 682.03,-1003.29"/>
</g>
<!-- termin&#45;graphics&#45;&gt;termin&#45;render -->
<g id="edge42" class="edge">
<title>termin&#45;graphics&#45;&gt;termin&#45;render</title>
<path fill="none" stroke="#666666" stroke-width="1.1" d="M608,-453.82C628.67,-453.82 652.67,-453.82 673.54,-453.82"/>
<polygon fill="#666666" stroke="#666666" stroke-width="1.1" points="673.78,-456.27 680.78,-453.82 673.78,-451.37 673.78,-456.27"/>
</g>
<!-- termin&#45;gui -->
<g id="node35" class="node">
<title>termin&#45;gui</title>
<path fill="#f7f7f7" stroke="#444444" d="M749.5,-1273.82C749.5,-1273.82 702.5,-1273.82 702.5,-1273.82 696.5,-1273.82 690.5,-1267.82 690.5,-1261.82 690.5,-1261.82 690.5,-1249.82 690.5,-1249.82 690.5,-1243.82 696.5,-1237.82 702.5,-1237.82 702.5,-1237.82 749.5,-1237.82 749.5,-1237.82 755.5,-1237.82 761.5,-1243.82 761.5,-1249.82 761.5,-1249.82 761.5,-1261.82 761.5,-1261.82 761.5,-1267.82 755.5,-1273.82 749.5,-1273.82"/>
<text text-anchor="middle" x="726" y="-1253.02" font-family="DejaVu Sans" font-size="11.00">termin&#45;gui</text>
</g>
<!-- termin&#45;graphics&#45;&gt;termin&#45;gui -->
<g id="edge40" class="edge">
<title>termin&#45;graphics&#45;&gt;termin&#45;gui</title>
<path fill="none" stroke="#666666" stroke-width="1.1" d="M560.81,-472.12C573.06,-568.11 631.33,-1014.2 673,-1146.82 682.51,-1177.09 698.95,-1209.67 710.8,-1231.24"/>
<polygon fill="#666666" stroke="#666666" stroke-width="1.1" points="708.78,-1232.64 714.32,-1237.57 713.06,-1230.26 708.78,-1232.64"/>
</g>
<!-- termin&#45;materials -->
<g id="node39" class="node">
<title>termin&#45;materials</title>
<path fill="#f7f7f7" stroke="#444444" d="M767,-351.82C767,-351.82 685,-351.82 685,-351.82 679,-351.82 673,-345.82 673,-339.82 673,-339.82 673,-327.82 673,-327.82 673,-321.82 679,-315.82 685,-315.82 685,-315.82 767,-315.82 767,-315.82 773,-315.82 779,-321.82 779,-327.82 779,-327.82 779,-339.82 779,-339.82 779,-345.82 773,-351.82 767,-351.82"/>
<text text-anchor="middle" x="726" y="-331.02" font-family="DejaVu Sans" font-size="11.00">termin&#45;materials</text>
</g>
<!-- termin&#45;graphics&#45;&gt;termin&#45;materials -->
<g id="edge41" class="edge">
<title>termin&#45;graphics&#45;&gt;termin&#45;materials</title>
<path fill="none" stroke="#666666" stroke-width="1.1" d="M586.62,-435.77C593.77,-430.84 601.32,-425.33 608,-419.82 639.27,-394.02 639.29,-378.34 673,-355.82 673.13,-355.74 673.26,-355.65 673.38,-355.57"/>
<polygon fill="#666666" stroke="#666666" stroke-width="1.1" points="674.67,-357.65 679.37,-351.91 672.12,-353.47 674.67,-357.65"/>
</g>
<!-- termin&#45;lighting&#45;&gt;termin&#45;render -->
<g id="edge49" class="edge">
<title>termin&#45;lighting&#45;&gt;termin&#45;render</title>
<path fill="none" stroke="#666666" stroke-width="1.1" d="M602.68,-403.86C624.69,-412.85 651.41,-423.77 674.26,-433.1"/>
<polygon fill="#666666" stroke="#666666" stroke-width="1.1" points="673.49,-435.43 680.9,-435.81 675.35,-430.89 673.49,-435.43"/>
</g>
<!-- termin&#45;render&#45;&gt;termin&#45;display -->
<g id="edge57" class="edge">
<title>termin&#45;render&#45;&gt;termin&#45;display</title>
<path fill="none" stroke="#666666" stroke-width="1.1" d="M771.08,-453.82C802.9,-453.82 846.01,-453.82 879.68,-453.82"/>
<polygon fill="#666666" stroke="#666666" stroke-width="1.1" points="879.71,-456.27 886.71,-453.82 879.71,-451.37 879.71,-456.27"/>
</g>
<!-- termin&#45;render&#45;&gt;termin&#45;components&#45;foliage -->
<g id="edge56" class="edge">
<title>termin&#45;render&#45;&gt;termin&#45;components&#45;foliage</title>
<path fill="none" stroke="#666666" stroke-width="1.1" d="M743.53,-435.73C763.9,-414.08 800.22,-377.54 836,-351.82 851.82,-340.45 870.43,-329.85 887.06,-321.23"/>
<polygon fill="#666666" stroke="#666666" stroke-width="1.1" points="888.45,-323.27 893.57,-317.91 886.22,-318.91 888.45,-323.27"/>
</g>
<!-- termin&#45;engine&#45;&gt;termin&#45;app -->
<g id="edge37" class="edge">
<title>termin&#45;engine&#45;&gt;termin&#45;app</title>
<path fill="none" stroke="#666666" stroke-width="1.1" d="M1458.75,-229.84C1474.79,-237.7 1492.9,-247.68 1508,-258.82 1540.97,-283.15 1573.19,-318.01 1592.94,-341.02"/>
<polygon fill="#666666" stroke="#666666" stroke-width="1.1" points="1591.28,-342.85 1597.68,-346.6 1595.01,-339.68 1591.28,-342.85"/>
</g>
<!-- termin&#45;engine&#45;&gt;termin&#45;android -->
<g id="edge36" class="edge">
<title>termin&#45;engine&#45;&gt;termin&#45;android</title>
<path fill="none" stroke="#666666" stroke-width="1.1" d="M1423.88,-229.94C1440.96,-276.62 1491.51,-403.19 1565,-486.82 1568.58,-490.89 1572.73,-494.74 1577.06,-498.29"/>
<polygon fill="#666666" stroke="#666666" stroke-width="1.1" points="1575.59,-500.25 1582.62,-502.62 1578.6,-496.38 1575.59,-500.25"/>
</g>
<!-- termin&#45;engine&#45;&gt;termin&#45;openxr -->
<g id="edge38" class="edge">
<title>termin&#45;engine&#45;&gt;termin&#45;openxr</title>
<path fill="none" stroke="#666666" stroke-width="1.1" d="M1427.52,-230.09C1449.09,-268.36 1503.04,-358.45 1565,-419.82 1568.73,-423.51 1572.91,-427.07 1577.21,-430.4"/>
<polygon fill="#666666" stroke="#666666" stroke-width="1.1" points="1576.04,-432.58 1583.12,-434.78 1578.96,-428.64 1576.04,-432.58"/>
</g>
<!-- termin&#45;engine&#45;&gt;termin&#45;runtime -->
<g id="edge39" class="edge">
<title>termin&#45;engine&#45;&gt;termin&#45;runtime</title>
<path fill="none" stroke="#666666" stroke-width="1.1" d="M1444.21,-193.74C1479.55,-169.82 1541.83,-127.66 1579.91,-101.88"/>
<polygon fill="#666666" stroke="#666666" stroke-width="1.1" points="1581.38,-103.84 1585.81,-97.89 1578.64,-99.79 1581.38,-103.84"/>
</g>
<!-- tcplot -->
<g id="node34" class="node">
<title>tcplot</title>
<path fill="#f7f7f7" stroke="#444444" d="M948.5,-1307.82C948.5,-1307.82 918.5,-1307.82 918.5,-1307.82 912.5,-1307.82 906.5,-1301.82 906.5,-1295.82 906.5,-1295.82 906.5,-1283.82 906.5,-1283.82 906.5,-1277.82 912.5,-1271.82 918.5,-1271.82 918.5,-1271.82 948.5,-1271.82 948.5,-1271.82 954.5,-1271.82 960.5,-1277.82 960.5,-1283.82 960.5,-1283.82 960.5,-1295.82 960.5,-1295.82 960.5,-1301.82 954.5,-1307.82 948.5,-1307.82"/>
<text text-anchor="middle" x="933.5" y="-1287.02" font-family="DejaVu Sans" font-size="11.00">tcplot</text>
</g>
<!-- tcplot&#45;&gt;termin&#45;csharp -->
<g id="edge1" class="edge">
<title>tcplot&#45;&gt;termin&#45;csharp</title>
<path fill="none" stroke="#666666" stroke-width="1.1" d="M960.66,-1291.29C1046.51,-1294.87 1324.69,-1296.34 1508,-1179.82 1644.33,-1093.16 1732.74,-908.59 1761.37,-841.69"/>
<polygon fill="#666666" stroke="#666666" stroke-width="1.1" points="1763.79,-842.26 1764.26,-834.86 1759.28,-840.35 1763.79,-842.26"/>
</g>
<!-- termin&#45;gui&#45;&gt;termin&#45;csg -->
<g id="edge45" class="edge">
<title>termin&#45;gui&#45;&gt;termin&#45;csg</title>
<path fill="none" stroke="#666666" stroke-width="1.1" d="M694.59,-1273.94C621.51,-1314.89 432.75,-1404.98 307,-1324.82 233.63,-1278.05 209.08,-1167.35 201.55,-1117.24"/>
<polygon fill="#666666" stroke="#666666" stroke-width="1.1" points="203.93,-1116.61 200.52,-1110.02 199.08,-1117.3 203.93,-1116.61"/>
</g>
<!-- termin&#45;gui&#45;&gt;tcplot -->
<g id="edge44" class="edge">
<title>termin&#45;gui&#45;&gt;tcplot</title>
<path fill="none" stroke="#666666" stroke-width="1.1" d="M761.86,-1261.59C800.19,-1267.93 861.32,-1278.04 899.07,-1284.29"/>
<polygon fill="#666666" stroke="#666666" stroke-width="1.1" points="898.99,-1286.76 906.29,-1285.48 899.79,-1281.92 898.99,-1286.76"/>
</g>
<!-- termin&#45;nodegraph -->
<g id="node36" class="node">
<title>termin&#45;nodegraph</title>
<path fill="#f7f7f7" stroke="#444444" d="M978,-1239.82C978,-1239.82 889,-1239.82 889,-1239.82 883,-1239.82 877,-1233.82 877,-1227.82 877,-1227.82 877,-1215.82 877,-1215.82 877,-1209.82 883,-1203.82 889,-1203.82 889,-1203.82 978,-1203.82 978,-1203.82 984,-1203.82 990,-1209.82 990,-1215.82 990,-1215.82 990,-1227.82 990,-1227.82 990,-1233.82 984,-1239.82 978,-1239.82"/>
<text text-anchor="middle" x="933.5" y="-1219.02" font-family="DejaVu Sans" font-size="11.00">termin&#45;nodegraph</text>
</g>
<!-- termin&#45;gui&#45;&gt;termin&#45;nodegraph -->
<g id="edge46" class="edge">
<title>termin&#45;gui&#45;&gt;termin&#45;nodegraph</title>
<path fill="none" stroke="#666666" stroke-width="1.1" d="M761.86,-1250.05C791.38,-1245.17 834.44,-1238.04 869.92,-1232.17"/>
<polygon fill="#666666" stroke="#666666" stroke-width="1.1" points="870.4,-1234.58 876.9,-1231.02 869.6,-1229.74 870.4,-1234.58"/>
</g>
<!-- termin&#45;nodegraph&#45;&gt;termin&#45;app -->
<g id="edge54" class="edge">
<title>termin&#45;nodegraph&#45;&gt;termin&#45;app</title>
<path fill="none" stroke="#666666" stroke-width="1.1" d="M961.77,-1203.81C980.93,-1190.04 1006.05,-1169.6 1023,-1146.82 1066.12,-1088.85 1034.47,-1046.34 1088,-997.82 1233.38,-866.06 1382.68,-1012.79 1508,-861.82 1634.79,-709.07 1483.2,-599.7 1565,-418.82 1570.03,-407.7 1578.14,-397.21 1586.24,-388.47"/>
<polygon fill="#666666" stroke="#666666" stroke-width="1.1" points="1588.16,-390.01 1591.26,-383.27 1584.64,-386.61 1588.16,-390.01"/>
</g>
<!-- termin&#45;render&#45;passes&#45;&gt;termin&#45;app -->
<g id="edge59" class="edge">
<title>termin&#45;render&#45;passes&#45;&gt;termin&#45;app</title>
<path fill="none" stroke="#666666" stroke-width="1.1" d="M1461.19,-464.61C1476.34,-457.76 1493.22,-449.51 1508,-440.82 1535.22,-424.81 1564.1,-403.43 1584.59,-387.42"/>
<polygon fill="#666666" stroke="#666666" stroke-width="1.1" points="1586.15,-389.31 1590.13,-383.06 1583.12,-385.46 1586.15,-389.31"/>
</g>
<!-- termin&#45;render&#45;passes&#45;&gt;termin&#45;android -->
<g id="edge58" class="edge">
<title>termin&#45;render&#45;passes&#45;&gt;termin&#45;android</title>
<path fill="none" stroke="#666666" stroke-width="1.1" d="M1482.7,-495.53C1507.19,-500.3 1534.73,-505.67 1558.13,-510.22"/>
<polygon fill="#666666" stroke="#666666" stroke-width="1.1" points="1557.91,-512.68 1565.25,-511.61 1558.85,-507.87 1557.91,-512.68"/>
</g>
<!-- termin&#45;render&#45;passes&#45;&gt;termin&#45;openxr -->
<g id="edge60" class="edge">
<title>termin&#45;render&#45;passes&#45;&gt;termin&#45;openxr</title>
<path fill="none" stroke="#666666" stroke-width="1.1" d="M1482.7,-472.79C1507.69,-468.95 1535.86,-464.61 1559.56,-460.96"/>
<polygon fill="#666666" stroke="#666666" stroke-width="1.1" points="1560.22,-463.34 1566.76,-459.86 1559.47,-458.5 1560.22,-463.34"/>
</g>
</g>
</svg>
