<?xml version="1.0" encoding="UTF-8" standalone="no"?>
<!DOCTYPE svg PUBLIC "-//W3C//DTD SVG 1.1//EN"
 "http://www.w3.org/Graphics/SVG/1.1/DTD/svg11.dtd">
<!-- Generated by graphviz version 2.43.0 (0)
 -->
<!-- Title: termin_dependencies Pages: 1 -->
<svg width="1431pt" height="878pt"
 viewBox="0.00 0.00 1430.80 878.07" xmlns="http://www.w3.org/2000/svg" xmlns:xlink="http://www.w3.org/1999/xlink">
<g id="graph0" class="graph" transform="scale(1 1) rotate(0) translate(14.4 863.67)">
<title>termin_dependencies</title>
<polygon fill="white" stroke="transparent" points="-14.4,14.4 -14.4,-863.67 1416.4,-863.67 1416.4,14.4 -14.4,14.4"/>
<g id="clust1" class="cluster">
<title>cluster_application</title>
<polygon fill="white" stroke="#999999" stroke-dasharray="5,2" points="1141,-239.27 1141,-380.27 1254,-380.27 1254,-239.27 1141,-239.27"/>
<text text-anchor="middle" x="1197.5" y="-366.67" font-family="DejaVu Sans" font-size="12.00">Application</text>
</g>
<g id="clust2" class="cluster">
<title>cluster_foundation</title>
<polygon fill="white" stroke="#999999" stroke-dasharray="5,2" points="8,-347.27 8,-556.27 812,-556.27 812,-347.27 8,-347.27"/>
<text text-anchor="middle" x="410" y="-542.67" font-family="DejaVu Sans" font-size="12.00">Foundation</text>
</g>
<g id="clust3" class="cluster">
<title>cluster_other_components</title>
<polygon fill="white" stroke="#999999" stroke-dasharray="5,2" points="652,-564.27 652,-841.27 1092,-841.27 1092,-564.27 652,-564.27"/>
<text text-anchor="middle" x="872" y="-827.67" font-family="DejaVu Sans" font-size="12.00">Other Components</text>
</g>
<g id="clust4" class="cluster">
<title>cluster_render_stack</title>
<polygon fill="white" stroke="#999999" stroke-dasharray="5,2" points="320,-266.27 320,-339.27 1083,-339.27 1083,-266.27 320,-266.27"/>
<text text-anchor="middle" x="701.5" y="-325.67" font-family="DejaVu Sans" font-size="12.00">Render Stack</text>
</g>
<g id="clust5" class="cluster">
<title>cluster_runtime</title>
<polygon fill="white" stroke="#999999" stroke-dasharray="5,2" points="940.5,-347.27 940.5,-420.27 1047.5,-420.27 1047.5,-347.27 940.5,-347.27"/>
<text text-anchor="middle" x="994" y="-406.67" font-family="DejaVu Sans" font-size="12.00">Runtime</text>
</g>
<g id="clust6" class="cluster">
<title>cluster_ui</title>
<polygon fill="white" stroke="#999999" stroke-dasharray="5,2" points="706,-64.27 706,-205.27 1058.5,-205.27 1058.5,-64.27 706,-64.27"/>
<text text-anchor="middle" x="882.25" y="-191.67" font-family="DejaVu Sans" font-size="12.00">UI</text>
</g>
<!-- diffusion&#45;editor -->
<g id="node1" class="node">
<title>diffusion&#45;editor</title>
<path fill="#f7f7f7" stroke="#444444" d="M1234,-283.27C1234,-283.27 1161,-283.27 1161,-283.27 1155,-283.27 1149,-277.27 1149,-271.27 1149,-271.27 1149,-259.27 1149,-259.27 1149,-253.27 1155,-247.27 1161,-247.27 1161,-247.27 1234,-247.27 1234,-247.27 1240,-247.27 1246,-253.27 1246,-259.27 1246,-259.27 1246,-271.27 1246,-271.27 1246,-277.27 1240,-283.27 1234,-283.27"/>
<text text-anchor="middle" x="1197.5" y="-262.47" font-family="DejaVu Sans" font-size="11.00">diffusion&#45;editor</text>
</g>
<!-- termin -->
<g id="node2" class="node">
<title>termin</title>
<path fill="#f7f7f7" stroke="#444444" d="M1212.5,-351.27C1212.5,-351.27 1182.5,-351.27 1182.5,-351.27 1176.5,-351.27 1170.5,-345.27 1170.5,-339.27 1170.5,-339.27 1170.5,-327.27 1170.5,-327.27 1170.5,-321.27 1176.5,-315.27 1182.5,-315.27 1182.5,-315.27 1212.5,-315.27 1212.5,-315.27 1218.5,-315.27 1224.5,-321.27 1224.5,-327.27 1224.5,-327.27 1224.5,-339.27 1224.5,-339.27 1224.5,-345.27 1218.5,-351.27 1212.5,-351.27"/>
<text text-anchor="middle" x="1197.5" y="-330.47" font-family="DejaVu Sans" font-size="11.00">termin</text>
</g>
<!-- termin&#45;csharp -->
<g id="node27" class="node">
<title>termin&#45;csharp</title>
<path fill="#f7f7f7" stroke="#444444" d="M1390,-351.27C1390,-351.27 1323,-351.27 1323,-351.27 1317,-351.27 1311,-345.27 1311,-339.27 1311,-339.27 1311,-327.27 1311,-327.27 1311,-321.27 1317,-315.27 1323,-315.27 1323,-315.27 1390,-315.27 1390,-315.27 1396,-315.27 1402,-321.27 1402,-327.27 1402,-327.27 1402,-339.27 1402,-339.27 1402,-345.27 1396,-351.27 1390,-351.27"/>
<text text-anchor="middle" x="1356.5" y="-330.47" font-family="DejaVu Sans" font-size="11.00">termin&#45;csharp</text>
</g>
<!-- termin&#45;&gt;termin&#45;csharp -->
<g id="edge1" class="edge">
<title>termin&#45;&gt;termin&#45;csharp</title>
<path fill="none" stroke="#666666" stroke-width="1.1" d="M1224.78,-333.27C1246.24,-333.27 1277.24,-333.27 1303.66,-333.27"/>
<polygon fill="#666666" stroke="#666666" stroke-width="1.1" points="1303.98,-335.72 1310.98,-333.27 1303.98,-330.82 1303.98,-335.72"/>
</g>
<!-- termin&#45;animation -->
<g id="node3" class="node">
<title>termin&#45;animation</title>
<path fill="#f7f7f7" stroke="#444444" d="M792,-527.27C792,-527.27 707,-527.27 707,-527.27 701,-527.27 695,-521.27 695,-515.27 695,-515.27 695,-503.27 695,-503.27 695,-497.27 701,-491.27 707,-491.27 707,-491.27 792,-491.27 792,-491.27 798,-491.27 804,-497.27 804,-503.27 804,-503.27 804,-515.27 804,-515.27 804,-521.27 798,-527.27 792,-527.27"/>
<text text-anchor="middle" x="749.5" y="-506.47" font-family="DejaVu Sans" font-size="11.00">termin&#45;animation</text>
</g>
<!-- termin&#45;components&#45;animation -->
<g id="node13" class="node">
<title>termin&#45;components&#45;animation</title>
<path fill="#f7f7f7" stroke="#444444" d="M1072,-676.27C1072,-676.27 916,-676.27 916,-676.27 910,-676.27 904,-670.27 904,-664.27 904,-664.27 904,-652.27 904,-652.27 904,-646.27 910,-640.27 916,-640.27 916,-640.27 1072,-640.27 1072,-640.27 1078,-640.27 1084,-646.27 1084,-652.27 1084,-652.27 1084,-664.27 1084,-664.27 1084,-670.27 1078,-676.27 1072,-676.27"/>
<text text-anchor="middle" x="994" y="-655.47" font-family="DejaVu Sans" font-size="11.00">termin&#45;components&#45;animation</text>
</g>
<!-- termin&#45;animation&#45;&gt;termin&#45;components&#45;animation -->
<g id="edge2" class="edge">
<title>termin&#45;animation&#45;&gt;termin&#45;components&#45;animation</title>
<path fill="none" stroke="#666666" stroke-width="1.1" d="M790.9,-527.3C806.6,-535.16 824.3,-545.14 839,-556.27 872.33,-581.51 869.18,-601.13 904,-624.27 911.47,-629.23 919.76,-633.61 928.19,-637.44"/>
<polygon fill="#666666" stroke="#666666" stroke-width="1.1" points="927.26,-639.71 934.66,-640.26 929.22,-635.22 927.26,-639.71"/>
</g>
<!-- termin&#45;base -->
<g id="node4" class="node">
<title>termin&#45;base</title>
<path fill="#f7f7f7" stroke="#444444" d="M85,-459.27C85,-459.27 28,-459.27 28,-459.27 22,-459.27 16,-453.27 16,-447.27 16,-447.27 16,-435.27 16,-435.27 16,-429.27 22,-423.27 28,-423.27 28,-423.27 85,-423.27 85,-423.27 91,-423.27 97,-429.27 97,-435.27 97,-435.27 97,-447.27 97,-447.27 97,-453.27 91,-459.27 85,-459.27"/>
<text text-anchor="middle" x="56.5" y="-438.47" font-family="DejaVu Sans" font-size="11.00">termin&#45;base</text>
</g>
<!-- termin&#45;inspect -->
<g id="node7" class="node">
<title>termin&#45;inspect</title>
<path fill="#f7f7f7" stroke="#444444" d="M247.5,-459.27C247.5,-459.27 177.5,-459.27 177.5,-459.27 171.5,-459.27 165.5,-453.27 165.5,-447.27 165.5,-447.27 165.5,-435.27 165.5,-435.27 165.5,-429.27 171.5,-423.27 177.5,-423.27 177.5,-423.27 247.5,-423.27 247.5,-423.27 253.5,-423.27 259.5,-429.27 259.5,-435.27 259.5,-435.27 259.5,-447.27 259.5,-447.27 259.5,-453.27 253.5,-459.27 247.5,-459.27"/>
<text text-anchor="middle" x="212.5" y="-438.47" font-family="DejaVu Sans" font-size="11.00">termin&#45;inspect</text>
</g>
<!-- termin&#45;base&#45;&gt;termin&#45;inspect -->
<g id="edge3" class="edge">
<title>termin&#45;base&#45;&gt;termin&#45;inspect</title>
<path fill="none" stroke="#666666" stroke-width="1.1" d="M97.16,-441.27C115.73,-441.27 138.13,-441.27 158.16,-441.27"/>
<polygon fill="#666666" stroke="#666666" stroke-width="1.1" points="158.42,-443.72 165.42,-441.27 158.42,-438.82 158.42,-443.72"/>
</g>
<!-- termin&#45;mesh -->
<g id="node8" class="node">
<title>termin&#45;mesh</title>
<path fill="#f7f7f7" stroke="#444444" d="M242.5,-527.27C242.5,-527.27 182.5,-527.27 182.5,-527.27 176.5,-527.27 170.5,-521.27 170.5,-515.27 170.5,-515.27 170.5,-503.27 170.5,-503.27 170.5,-497.27 176.5,-491.27 182.5,-491.27 182.5,-491.27 242.5,-491.27 242.5,-491.27 248.5,-491.27 254.5,-497.27 254.5,-503.27 254.5,-503.27 254.5,-515.27 254.5,-515.27 254.5,-521.27 248.5,-527.27 242.5,-527.27"/>
<text text-anchor="middle" x="212.5" y="-506.47" font-family="DejaVu Sans" font-size="11.00">termin&#45;mesh</text>
</g>
<!-- termin&#45;base&#45;&gt;termin&#45;mesh -->
<g id="edge4" class="edge">
<title>termin&#45;base&#45;&gt;termin&#45;mesh</title>
<path fill="none" stroke="#666666" stroke-width="1.1" d="M97.16,-458.78C117.59,-467.8 142.65,-478.87 164.1,-488.34"/>
<polygon fill="#666666" stroke="#666666" stroke-width="1.1" points="163.24,-490.64 170.63,-491.22 165.22,-486.15 163.24,-490.64"/>
</g>
<!-- termin&#45;modules -->
<g id="node9" class="node">
<title>termin&#45;modules</title>
<path fill="#f7f7f7" stroke="#444444" d="M251,-391.27C251,-391.27 174,-391.27 174,-391.27 168,-391.27 162,-385.27 162,-379.27 162,-379.27 162,-367.27 162,-367.27 162,-361.27 168,-355.27 174,-355.27 174,-355.27 251,-355.27 251,-355.27 257,-355.27 263,-361.27 263,-367.27 263,-367.27 263,-379.27 263,-379.27 263,-385.27 257,-391.27 251,-391.27"/>
<text text-anchor="middle" x="212.5" y="-370.47" font-family="DejaVu Sans" font-size="11.00">termin&#45;modules</text>
</g>
<!-- termin&#45;base&#45;&gt;termin&#45;modules -->
<g id="edge5" class="edge">
<title>termin&#45;base&#45;&gt;termin&#45;modules</title>
<path fill="none" stroke="#666666" stroke-width="1.1" d="M97.16,-423.76C117.59,-414.73 142.65,-403.67 164.1,-394.2"/>
<polygon fill="#666666" stroke="#666666" stroke-width="1.1" points="165.22,-396.38 170.63,-391.31 163.24,-391.9 165.22,-396.38"/>
</g>
<!-- termin&#45;collision -->
<g id="node5" class="node">
<title>termin&#45;collision</title>
<path fill="#f7f7f7" stroke="#444444" d="M582,-459.27C582,-459.27 507,-459.27 507,-459.27 501,-459.27 495,-453.27 495,-447.27 495,-447.27 495,-435.27 495,-435.27 495,-429.27 501,-423.27 507,-423.27 507,-423.27 582,-423.27 582,-423.27 588,-423.27 594,-429.27 594,-435.27 594,-435.27 594,-447.27 594,-447.27 594,-453.27 588,-459.27 582,-459.27"/>
<text text-anchor="middle" x="544.5" y="-438.47" font-family="DejaVu Sans" font-size="11.00">termin&#45;collision</text>
</g>
<!-- termin&#45;physics -->
<g id="node10" class="node">
<title>termin&#45;physics</title>
<path fill="#f7f7f7" stroke="#444444" d="M785.5,-459.27C785.5,-459.27 713.5,-459.27 713.5,-459.27 707.5,-459.27 701.5,-453.27 701.5,-447.27 701.5,-447.27 701.5,-435.27 701.5,-435.27 701.5,-429.27 707.5,-423.27 713.5,-423.27 713.5,-423.27 785.5,-423.27 785.5,-423.27 791.5,-423.27 797.5,-429.27 797.5,-435.27 797.5,-435.27 797.5,-447.27 797.5,-447.27 797.5,-453.27 791.5,-459.27 785.5,-459.27"/>
<text text-anchor="middle" x="749.5" y="-438.47" font-family="DejaVu Sans" font-size="11.00">termin&#45;physics</text>
</g>
<!-- termin&#45;collision&#45;&gt;termin&#45;physics -->
<g id="edge8" class="edge">
<title>termin&#45;collision&#45;&gt;termin&#45;physics</title>
<path fill="none" stroke="#666666" stroke-width="1.1" d="M594.12,-441.27C624.2,-441.27 662.88,-441.27 693.99,-441.27"/>
<polygon fill="#666666" stroke="#666666" stroke-width="1.1" points="694.32,-443.72 701.32,-441.27 694.32,-438.82 694.32,-443.72"/>
</g>
<!-- termin&#45;components&#45;collision -->
<g id="node14" class="node">
<title>termin&#45;components&#45;collision</title>
<path fill="#f7f7f7" stroke="#444444" d="M822.5,-608.27C822.5,-608.27 676.5,-608.27 676.5,-608.27 670.5,-608.27 664.5,-602.27 664.5,-596.27 664.5,-596.27 664.5,-584.27 664.5,-584.27 664.5,-578.27 670.5,-572.27 676.5,-572.27 676.5,-572.27 822.5,-572.27 822.5,-572.27 828.5,-572.27 834.5,-578.27 834.5,-584.27 834.5,-584.27 834.5,-596.27 834.5,-596.27 834.5,-602.27 828.5,-608.27 822.5,-608.27"/>
<text text-anchor="middle" x="749.5" y="-587.47" font-family="DejaVu Sans" font-size="11.00">termin&#45;components&#45;collision</text>
</g>
<!-- termin&#45;collision&#45;&gt;termin&#45;components&#45;collision -->
<g id="edge6" class="edge">
<title>termin&#45;collision&#45;&gt;termin&#45;components&#45;collision</title>
<path fill="none" stroke="#666666" stroke-width="1.1" d="M576.07,-459.43C582.71,-464.13 589.42,-469.5 595,-475.27 627.68,-509.01 614.11,-536.51 652,-564.27 654.16,-565.85 656.4,-567.33 658.72,-568.72"/>
<polygon fill="#666666" stroke="#666666" stroke-width="1.1" points="657.7,-570.96 665.01,-572.21 660.07,-566.67 657.7,-570.96"/>
</g>
<!-- termin&#45;engine -->
<g id="node23" class="node">
<title>termin&#45;engine</title>
<path fill="#f7f7f7" stroke="#444444" d="M1027.5,-391.27C1027.5,-391.27 960.5,-391.27 960.5,-391.27 954.5,-391.27 948.5,-385.27 948.5,-379.27 948.5,-379.27 948.5,-367.27 948.5,-367.27 948.5,-361.27 954.5,-355.27 960.5,-355.27 960.5,-355.27 1027.5,-355.27 1027.5,-355.27 1033.5,-355.27 1039.5,-361.27 1039.5,-367.27 1039.5,-367.27 1039.5,-379.27 1039.5,-379.27 1039.5,-385.27 1033.5,-391.27 1027.5,-391.27"/>
<text text-anchor="middle" x="994" y="-370.47" font-family="DejaVu Sans" font-size="11.00">termin&#45;engine</text>
</g>
<!-- termin&#45;collision&#45;&gt;termin&#45;engine -->
<g id="edge7" class="edge">
<title>termin&#45;collision&#45;&gt;termin&#45;engine</title>
<path fill="none" stroke="#666666" stroke-width="1.1" d="M594.24,-423.34C612.18,-417.37 632.8,-411.24 652,-407.27 753.18,-386.31 874.02,-378.14 941.27,-375.05"/>
<polygon fill="#666666" stroke="#666666" stroke-width="1.1" points="941.53,-377.5 948.41,-374.74 941.31,-372.6 941.53,-377.5"/>
</g>
<!-- termin&#45;input -->
<g id="node6" class="node">
<title>termin&#45;input</title>
<path fill="#f7f7f7" stroke="#444444" d="M573.5,-391.27C573.5,-391.27 515.5,-391.27 515.5,-391.27 509.5,-391.27 503.5,-385.27 503.5,-379.27 503.5,-379.27 503.5,-367.27 503.5,-367.27 503.5,-361.27 509.5,-355.27 515.5,-355.27 515.5,-355.27 573.5,-355.27 573.5,-355.27 579.5,-355.27 585.5,-361.27 585.5,-367.27 585.5,-367.27 585.5,-379.27 585.5,-379.27 585.5,-385.27 579.5,-391.27 573.5,-391.27"/>
<text text-anchor="middle" x="544.5" y="-370.47" font-family="DejaVu Sans" font-size="11.00">termin&#45;input</text>
</g>
<!-- termin&#45;display -->
<g id="node20" class="node">
<title>termin&#45;display</title>
<path fill="#f7f7f7" stroke="#444444" d="M784,-310.27C784,-310.27 715,-310.27 715,-310.27 709,-310.27 703,-304.27 703,-298.27 703,-298.27 703,-286.27 703,-286.27 703,-280.27 709,-274.27 715,-274.27 715,-274.27 784,-274.27 784,-274.27 790,-274.27 796,-280.27 796,-286.27 796,-286.27 796,-298.27 796,-298.27 796,-304.27 790,-310.27 784,-310.27"/>
<text text-anchor="middle" x="749.5" y="-289.47" font-family="DejaVu Sans" font-size="11.00">termin&#45;display</text>
</g>
<!-- termin&#45;input&#45;&gt;termin&#45;display -->
<g id="edge23" class="edge">
<title>termin&#45;input&#45;&gt;termin&#45;display</title>
<path fill="none" stroke="#666666" stroke-width="1.1" d="M585.61,-357.26C617.35,-344.6 661.91,-326.82 696.41,-313.05"/>
<polygon fill="#666666" stroke="#666666" stroke-width="1.1" points="697.58,-315.22 703.17,-310.35 695.76,-310.67 697.58,-315.22"/>
</g>
<!-- termin&#45;scene -->
<g id="node11" class="node">
<title>termin&#45;scene</title>
<path fill="#f7f7f7" stroke="#444444" d="M410,-459.27C410,-459.27 347,-459.27 347,-459.27 341,-459.27 335,-453.27 335,-447.27 335,-447.27 335,-435.27 335,-435.27 335,-429.27 341,-423.27 347,-423.27 347,-423.27 410,-423.27 410,-423.27 416,-423.27 422,-429.27 422,-435.27 422,-435.27 422,-447.27 422,-447.27 422,-453.27 416,-459.27 410,-459.27"/>
<text text-anchor="middle" x="378.5" y="-438.47" font-family="DejaVu Sans" font-size="11.00">termin&#45;scene</text>
</g>
<!-- termin&#45;inspect&#45;&gt;termin&#45;scene -->
<g id="edge24" class="edge">
<title>termin&#45;inspect&#45;&gt;termin&#45;scene</title>
<path fill="none" stroke="#666666" stroke-width="1.1" d="M259.62,-441.27C280.81,-441.27 305.99,-441.27 327.63,-441.27"/>
<polygon fill="#666666" stroke="#666666" stroke-width="1.1" points="327.82,-443.72 334.82,-441.27 327.82,-438.82 327.82,-443.72"/>
</g>
<!-- termin&#45;mesh&#45;&gt;termin&#45;components&#45;collision -->
<g id="edge25" class="edge">
<title>termin&#45;mesh&#45;&gt;termin&#45;components&#45;collision</title>
<path fill="none" stroke="#666666" stroke-width="1.1" d="M254.59,-515.49C340.24,-528.46 539.62,-558.64 657.2,-576.44"/>
<polygon fill="#666666" stroke="#666666" stroke-width="1.1" points="656.84,-578.87 664.13,-577.49 657.57,-574.02 656.84,-578.87"/>
</g>
<!-- termin&#45;components&#45;mesh -->
<g id="node16" class="node">
<title>termin&#45;components&#45;mesh</title>
<path fill="#f7f7f7" stroke="#444444" d="M815.5,-812.27C815.5,-812.27 683.5,-812.27 683.5,-812.27 677.5,-812.27 671.5,-806.27 671.5,-800.27 671.5,-800.27 671.5,-788.27 671.5,-788.27 671.5,-782.27 677.5,-776.27 683.5,-776.27 683.5,-776.27 815.5,-776.27 815.5,-776.27 821.5,-776.27 827.5,-782.27 827.5,-788.27 827.5,-788.27 827.5,-800.27 827.5,-800.27 827.5,-806.27 821.5,-812.27 815.5,-812.27"/>
<text text-anchor="middle" x="749.5" y="-791.47" font-family="DejaVu Sans" font-size="11.00">termin&#45;components&#45;mesh</text>
</g>
<!-- termin&#45;mesh&#45;&gt;termin&#45;components&#45;mesh -->
<g id="edge26" class="edge">
<title>termin&#45;mesh&#45;&gt;termin&#45;components&#45;mesh</title>
<path fill="none" stroke="#666666" stroke-width="1.1" d="M235.07,-527.49C280.43,-565.06 390.09,-652.07 494,-705.27 552.12,-735.02 622.46,-758.77 674.45,-774.23"/>
<polygon fill="#666666" stroke="#666666" stroke-width="1.1" points="673.93,-776.63 681.34,-776.26 675.32,-771.93 673.93,-776.63"/>
</g>
<!-- termin&#45;graphics -->
<g id="node21" class="node">
<title>termin&#45;graphics</title>
<path fill="#f7f7f7" stroke="#444444" d="M417,-310.27C417,-310.27 340,-310.27 340,-310.27 334,-310.27 328,-304.27 328,-298.27 328,-298.27 328,-286.27 328,-286.27 328,-280.27 334,-274.27 340,-274.27 340,-274.27 417,-274.27 417,-274.27 423,-274.27 429,-280.27 429,-286.27 429,-286.27 429,-298.27 429,-298.27 429,-304.27 423,-310.27 417,-310.27"/>
<text text-anchor="middle" x="378.5" y="-289.47" font-family="DejaVu Sans" font-size="11.00">termin&#45;graphics</text>
</g>
<!-- termin&#45;mesh&#45;&gt;termin&#45;graphics -->
<g id="edge27" class="edge">
<title>termin&#45;mesh&#45;&gt;termin&#45;graphics</title>
<path fill="none" stroke="#666666" stroke-width="1.1" d="M245.6,-491.22C251.94,-486.62 258.13,-481.25 263,-475.27 304.36,-424.43 280.8,-391.79 320,-339.27 326.64,-330.37 335.32,-322.14 343.92,-315.13"/>
<polygon fill="#666666" stroke="#666666" stroke-width="1.1" points="345.84,-316.74 349.83,-310.49 342.81,-312.89 345.84,-316.74"/>
</g>
<!-- termin&#45;modules&#45;&gt;termin -->
<g id="edge28" class="edge">
<title>termin&#45;modules&#45;&gt;termin</title>
<path fill="none" stroke="#666666" stroke-width="1.1" d="M220.15,-354.94C247.61,-282.93 359.35,-23.27 543.5,-23.27 543.5,-23.27 543.5,-23.27 750.5,-23.27 902.98,-23.27 978.79,45.88 1092,-56.27 1173.8,-130.07 1077.88,-208.97 1141,-299.27 1146.83,-307.61 1155.44,-314.3 1164.14,-319.46"/>
<polygon fill="#666666" stroke="#666666" stroke-width="1.1" points="1163.14,-321.7 1170.46,-322.94 1165.51,-317.41 1163.14,-321.7"/>
</g>
<!-- termin&#45;components&#45;physics -->
<g id="node17" class="node">
<title>termin&#45;components&#45;physics</title>
<path fill="#f7f7f7" stroke="#444444" d="M1065.5,-608.27C1065.5,-608.27 922.5,-608.27 922.5,-608.27 916.5,-608.27 910.5,-602.27 910.5,-596.27 910.5,-596.27 910.5,-584.27 910.5,-584.27 910.5,-578.27 916.5,-572.27 922.5,-572.27 922.5,-572.27 1065.5,-572.27 1065.5,-572.27 1071.5,-572.27 1077.5,-578.27 1077.5,-584.27 1077.5,-584.27 1077.5,-596.27 1077.5,-596.27 1077.5,-602.27 1071.5,-608.27 1065.5,-608.27"/>
<text text-anchor="middle" x="994" y="-587.47" font-family="DejaVu Sans" font-size="11.00">termin&#45;components&#45;physics</text>
</g>
<!-- termin&#45;physics&#45;&gt;termin&#45;components&#45;physics -->
<g id="edge30" class="edge">
<title>termin&#45;physics&#45;&gt;termin&#45;components&#45;physics</title>
<path fill="none" stroke="#666666" stroke-width="1.1" d="M797.51,-456.59C811.24,-461.79 826.03,-468.11 839,-475.27 887.21,-501.86 937.25,-541.95 966.73,-567.09"/>
<polygon fill="#666666" stroke="#666666" stroke-width="1.1" points="965.44,-569.21 972.35,-571.91 968.63,-565.49 965.44,-569.21"/>
</g>
<!-- termin&#45;scene&#45;&gt;termin&#45;collision -->
<g id="edge32" class="edge">
<title>termin&#45;scene&#45;&gt;termin&#45;collision</title>
<path fill="none" stroke="#666666" stroke-width="1.1" d="M422.16,-441.27C442.2,-441.27 466.34,-441.27 487.8,-441.27"/>
<polygon fill="#666666" stroke="#666666" stroke-width="1.1" points="487.97,-443.72 494.97,-441.27 487.97,-438.82 487.97,-443.72"/>
</g>
<!-- termin&#45;scene&#45;&gt;termin&#45;input -->
<g id="edge35" class="edge">
<title>termin&#45;scene&#45;&gt;termin&#45;input</title>
<path fill="none" stroke="#666666" stroke-width="1.1" d="M422.16,-423.58C445.06,-414.08 473.33,-402.36 496.82,-392.62"/>
<polygon fill="#666666" stroke="#666666" stroke-width="1.1" points="497.78,-394.88 503.31,-389.93 495.9,-390.35 497.78,-394.88"/>
</g>
<!-- termin&#45;skeleton -->
<g id="node12" class="node">
<title>termin&#45;skeleton</title>
<path fill="#f7f7f7" stroke="#444444" d="M583,-527.27C583,-527.27 506,-527.27 506,-527.27 500,-527.27 494,-521.27 494,-515.27 494,-515.27 494,-503.27 494,-503.27 494,-497.27 500,-491.27 506,-491.27 506,-491.27 583,-491.27 583,-491.27 589,-491.27 595,-497.27 595,-503.27 595,-503.27 595,-515.27 595,-515.27 595,-521.27 589,-527.27 583,-527.27"/>
<text text-anchor="middle" x="544.5" y="-506.47" font-family="DejaVu Sans" font-size="11.00">termin&#45;skeleton</text>
</g>
<!-- termin&#45;scene&#45;&gt;termin&#45;skeleton -->
<g id="edge37" class="edge">
<title>termin&#45;scene&#45;&gt;termin&#45;skeleton</title>
<path fill="none" stroke="#666666" stroke-width="1.1" d="M422.16,-458.96C443.93,-467.98 470.54,-479.02 493.29,-488.45"/>
<polygon fill="#666666" stroke="#666666" stroke-width="1.1" points="492.51,-490.78 499.91,-491.19 494.38,-486.25 492.51,-490.78"/>
</g>
<!-- termin&#45;components&#45;kinematic -->
<g id="node15" class="node">
<title>termin&#45;components&#45;kinematic</title>
<path fill="#f7f7f7" stroke="#444444" d="M827,-744.27C827,-744.27 672,-744.27 672,-744.27 666,-744.27 660,-738.27 660,-732.27 660,-732.27 660,-720.27 660,-720.27 660,-714.27 666,-708.27 672,-708.27 672,-708.27 827,-708.27 827,-708.27 833,-708.27 839,-714.27 839,-720.27 839,-720.27 839,-732.27 839,-732.27 839,-738.27 833,-744.27 827,-744.27"/>
<text text-anchor="middle" x="749.5" y="-723.47" font-family="DejaVu Sans" font-size="11.00">termin&#45;components&#45;kinematic</text>
</g>
<!-- termin&#45;scene&#45;&gt;termin&#45;components&#45;kinematic -->
<g id="edge33" class="edge">
<title>termin&#45;scene&#45;&gt;termin&#45;components&#45;kinematic</title>
<path fill="none" stroke="#666666" stroke-width="1.1" d="M394.46,-459.42C432.76,-504.82 539.29,-624.47 652,-692.27 660.33,-697.28 669.51,-701.7 678.79,-705.56"/>
<polygon fill="#666666" stroke="#666666" stroke-width="1.1" points="678.15,-707.94 685.56,-708.26 679.97,-703.39 678.15,-707.94"/>
</g>
<!-- termin&#45;scene&#45;&gt;termin&#45;components&#45;mesh -->
<g id="edge34" class="edge">
<title>termin&#45;scene&#45;&gt;termin&#45;components&#45;mesh</title>
<path fill="none" stroke="#666666" stroke-width="1.1" d="M387.53,-459.44C403.99,-495.4 444.23,-577.12 494,-634.27 552.99,-702 573.44,-716.74 652,-760.27 660.96,-765.23 670.79,-769.69 680.63,-773.61"/>
<polygon fill="#666666" stroke="#666666" stroke-width="1.1" points="680.02,-776 687.43,-776.24 681.79,-771.43 680.02,-776"/>
</g>
<!-- termin&#45;render -->
<g id="node22" class="node">
<title>termin&#45;render</title>
<path fill="#f7f7f7" stroke="#444444" d="M577.5,-310.27C577.5,-310.27 511.5,-310.27 511.5,-310.27 505.5,-310.27 499.5,-304.27 499.5,-298.27 499.5,-298.27 499.5,-286.27 499.5,-286.27 499.5,-280.27 505.5,-274.27 511.5,-274.27 511.5,-274.27 577.5,-274.27 577.5,-274.27 583.5,-274.27 589.5,-280.27 589.5,-286.27 589.5,-286.27 589.5,-298.27 589.5,-298.27 589.5,-304.27 583.5,-310.27 577.5,-310.27"/>
<text text-anchor="middle" x="544.5" y="-289.47" font-family="DejaVu Sans" font-size="11.00">termin&#45;render</text>
</g>
<!-- termin&#45;scene&#45;&gt;termin&#45;render -->
<g id="edge36" class="edge">
<title>termin&#45;scene&#45;&gt;termin&#45;render</title>
<path fill="none" stroke="#666666" stroke-width="1.1" d="M399.61,-423C429.45,-395.89 485.41,-345.04 518.06,-315.38"/>
<polygon fill="#666666" stroke="#666666" stroke-width="1.1" points="519.95,-316.97 523.48,-310.45 516.65,-313.35 519.95,-316.97"/>
</g>
<!-- termin&#45;skeleton&#45;&gt;termin&#45;animation -->
<g id="edge38" class="edge">
<title>termin&#45;skeleton&#45;&gt;termin&#45;animation</title>
<path fill="none" stroke="#666666" stroke-width="1.1" d="M595.16,-509.27C622.97,-509.27 657.88,-509.27 687.36,-509.27"/>
<polygon fill="#666666" stroke="#666666" stroke-width="1.1" points="687.73,-511.72 694.73,-509.27 687.73,-506.82 687.73,-511.72"/>
</g>
<!-- termin&#45;components&#45;skeleton -->
<g id="node18" class="node">
<title>termin&#45;components&#45;skeleton</title>
<path fill="#f7f7f7" stroke="#444444" d="M823.5,-676.27C823.5,-676.27 675.5,-676.27 675.5,-676.27 669.5,-676.27 663.5,-670.27 663.5,-664.27 663.5,-664.27 663.5,-652.27 663.5,-652.27 663.5,-646.27 669.5,-640.27 675.5,-640.27 675.5,-640.27 823.5,-640.27 823.5,-640.27 829.5,-640.27 835.5,-646.27 835.5,-652.27 835.5,-652.27 835.5,-664.27 835.5,-664.27 835.5,-670.27 829.5,-676.27 823.5,-676.27"/>
<text text-anchor="middle" x="749.5" y="-655.47" font-family="DejaVu Sans" font-size="11.00">termin&#45;components&#45;skeleton</text>
</g>
<!-- termin&#45;skeleton&#45;&gt;termin&#45;components&#45;skeleton -->
<g id="edge39" class="edge">
<title>termin&#45;skeleton&#45;&gt;termin&#45;components&#45;skeleton</title>
<path fill="none" stroke="#666666" stroke-width="1.1" d="M557.86,-527.38C575.84,-552.46 611.52,-597.67 652,-624.27 659.63,-629.28 668.09,-633.65 676.73,-637.44"/>
<polygon fill="#666666" stroke="#666666" stroke-width="1.1" points="675.96,-639.77 683.37,-640.22 677.86,-635.25 675.96,-639.77"/>
</g>
<!-- termin&#45;components&#45;animation&#45;&gt;termin -->
<g id="edge9" class="edge">
<title>termin&#45;components&#45;animation&#45;&gt;termin</title>
<path fill="none" stroke="#666666" stroke-width="1.1" d="M1069.56,-640.11C1077.8,-635.88 1085.54,-630.68 1092,-624.27 1168.03,-548.82 1189.02,-414.19 1194.59,-358.48"/>
<polygon fill="#666666" stroke="#666666" stroke-width="1.1" points="1197.03,-358.66 1195.25,-351.46 1192.15,-358.2 1197.03,-358.66"/>
</g>
<!-- termin&#45;components&#45;collision&#45;&gt;termin&#45;components&#45;physics -->
<g id="edge10" class="edge">
<title>termin&#45;components&#45;collision&#45;&gt;termin&#45;components&#45;physics</title>
<path fill="none" stroke="#666666" stroke-width="1.1" d="M834.63,-590.27C856.73,-590.27 880.64,-590.27 903.03,-590.27"/>
<polygon fill="#666666" stroke="#666666" stroke-width="1.1" points="903.24,-592.72 910.24,-590.27 903.24,-587.82 903.24,-592.72"/>
</g>
<!-- termin&#45;components&#45;kinematic&#45;&gt;termin -->
<g id="edge11" class="edge">
<title>termin&#45;components&#45;kinematic&#45;&gt;termin</title>
<path fill="none" stroke="#666666" stroke-width="1.1" d="M839.3,-742.65C915.02,-751.28 1022.35,-750.15 1092,-692.27 1144.61,-648.55 1181.42,-433.48 1192.79,-358.84"/>
<polygon fill="#666666" stroke="#666666" stroke-width="1.1" points="1195.25,-358.95 1193.87,-351.66 1190.41,-358.22 1195.25,-358.95"/>
</g>
<!-- termin&#45;components&#45;physics&#45;&gt;termin -->
<g id="edge12" class="edge">
<title>termin&#45;components&#45;physics&#45;&gt;termin</title>
<path fill="none" stroke="#666666" stroke-width="1.1" d="M1009.17,-572.2C1044.79,-526.76 1138.09,-407.77 1177.98,-356.89"/>
<polygon fill="#666666" stroke="#666666" stroke-width="1.1" points="1179.96,-358.34 1182.35,-351.32 1176.1,-355.32 1179.96,-358.34"/>
</g>
<!-- termin&#45;components&#45;skeleton&#45;&gt;termin&#45;components&#45;animation -->
<g id="edge14" class="edge">
<title>termin&#45;components&#45;skeleton&#45;&gt;termin&#45;components&#45;animation</title>
<path fill="none" stroke="#666666" stroke-width="1.1" d="M835.66,-658.27C855.43,-658.27 876.62,-658.27 896.83,-658.27"/>
<polygon fill="#666666" stroke="#666666" stroke-width="1.1" points="896.94,-660.72 903.94,-658.27 896.94,-655.82 896.94,-660.72"/>
</g>
<!-- termin&#45;components&#45;render -->
<g id="node19" class="node">
<title>termin&#45;components&#45;render</title>
<path fill="#f7f7f7" stroke="#444444" d="M1063,-310.27C1063,-310.27 925,-310.27 925,-310.27 919,-310.27 913,-304.27 913,-298.27 913,-298.27 913,-286.27 913,-286.27 913,-280.27 919,-274.27 925,-274.27 925,-274.27 1063,-274.27 1063,-274.27 1069,-274.27 1075,-280.27 1075,-286.27 1075,-286.27 1075,-298.27 1075,-298.27 1075,-304.27 1069,-310.27 1063,-310.27"/>
<text text-anchor="middle" x="994" y="-289.47" font-family="DejaVu Sans" font-size="11.00">termin&#45;components&#45;render</text>
</g>
<!-- termin&#45;components&#45;render&#45;&gt;termin -->
<g id="edge13" class="edge">
<title>termin&#45;components&#45;render&#45;&gt;termin</title>
<path fill="none" stroke="#666666" stroke-width="1.1" d="M1075.22,-308.59C1105.85,-314.82 1139.13,-321.59 1163.07,-326.46"/>
<polygon fill="#666666" stroke="#666666" stroke-width="1.1" points="1162.83,-328.92 1170.18,-327.91 1163.81,-324.12 1162.83,-328.92"/>
</g>
<!-- termin&#45;display&#45;&gt;termin&#45;components&#45;render -->
<g id="edge15" class="edge">
<title>termin&#45;display&#45;&gt;termin&#45;components&#45;render</title>
<path fill="none" stroke="#666666" stroke-width="1.1" d="M796.11,-292.27C826.85,-292.27 868.4,-292.27 905.4,-292.27"/>
<polygon fill="#666666" stroke="#666666" stroke-width="1.1" points="905.73,-294.72 912.73,-292.27 905.73,-289.82 905.73,-294.72"/>
</g>
<!-- termin&#45;display&#45;&gt;termin&#45;engine -->
<g id="edge16" class="edge">
<title>termin&#45;display&#45;&gt;termin&#45;engine</title>
<path fill="none" stroke="#666666" stroke-width="1.1" d="M796.26,-309.48C826.65,-320.7 867.52,-335.41 904,-347.27 916.14,-351.21 929.3,-355.21 941.69,-358.85"/>
<polygon fill="#666666" stroke="#666666" stroke-width="1.1" points="941.07,-361.22 948.48,-360.83 942.44,-356.51 941.07,-361.22"/>
</g>
<!-- termin&#45;graphics&#45;&gt;termin&#45;render -->
<g id="edge19" class="edge">
<title>termin&#45;graphics&#45;&gt;termin&#45;render</title>
<path fill="none" stroke="#666666" stroke-width="1.1" d="M429.15,-292.27C449.05,-292.27 471.98,-292.27 492.05,-292.27"/>
<polygon fill="#666666" stroke="#666666" stroke-width="1.1" points="492.31,-294.72 499.31,-292.27 492.31,-289.82 492.31,-294.72"/>
</g>
<!-- termin&#45;gui -->
<g id="node25" class="node">
<title>termin&#45;gui</title>
<path fill="#f7f7f7" stroke="#444444" d="M773,-176.27C773,-176.27 726,-176.27 726,-176.27 720,-176.27 714,-170.27 714,-164.27 714,-164.27 714,-152.27 714,-152.27 714,-146.27 720,-140.27 726,-140.27 726,-140.27 773,-140.27 773,-140.27 779,-140.27 785,-146.27 785,-152.27 785,-152.27 785,-164.27 785,-164.27 785,-170.27 779,-176.27 773,-176.27"/>
<text text-anchor="middle" x="749.5" y="-155.47" font-family="DejaVu Sans" font-size="11.00">termin&#45;gui</text>
</g>
<!-- termin&#45;graphics&#45;&gt;termin&#45;gui -->
<g id="edge18" class="edge">
<title>termin&#45;graphics&#45;&gt;termin&#45;gui</title>
<path fill="none" stroke="#666666" stroke-width="1.1" d="M429.26,-274.2C502.68,-247.54 638.67,-198.15 707.01,-173.33"/>
<polygon fill="#666666" stroke="#666666" stroke-width="1.1" points="708.07,-175.56 713.81,-170.86 706.4,-170.95 708.07,-175.56"/>
</g>
<!-- termin&#45;render&#45;&gt;termin&#45;display -->
<g id="edge31" class="edge">
<title>termin&#45;render&#45;&gt;termin&#45;display</title>
<path fill="none" stroke="#666666" stroke-width="1.1" d="M589.55,-292.27C620.66,-292.27 662.51,-292.27 695.46,-292.27"/>
<polygon fill="#666666" stroke="#666666" stroke-width="1.1" points="695.78,-294.72 702.78,-292.27 695.78,-289.82 695.78,-294.72"/>
</g>
<!-- termin&#45;engine&#45;&gt;termin -->
<g id="edge17" class="edge">
<title>termin&#45;engine&#45;&gt;termin</title>
<path fill="none" stroke="#666666" stroke-width="1.1" d="M1039.72,-364.39C1077.17,-356.96 1129.77,-346.51 1163.5,-339.82"/>
<polygon fill="#666666" stroke="#666666" stroke-width="1.1" points="1164.01,-342.22 1170.4,-338.45 1163.05,-337.41 1164.01,-342.22"/>
</g>
<!-- tcplot -->
<g id="node24" class="node">
<title>tcplot</title>
<path fill="#f7f7f7" stroke="#444444" d="M1009,-108.27C1009,-108.27 979,-108.27 979,-108.27 973,-108.27 967,-102.27 967,-96.27 967,-96.27 967,-84.27 967,-84.27 967,-78.27 973,-72.27 979,-72.27 979,-72.27 1009,-72.27 1009,-72.27 1015,-72.27 1021,-78.27 1021,-84.27 1021,-84.27 1021,-96.27 1021,-96.27 1021,-102.27 1015,-108.27 1009,-108.27"/>
<text text-anchor="middle" x="994" y="-87.47" font-family="DejaVu Sans" font-size="11.00">tcplot</text>
</g>
<!-- termin&#45;gui&#45;&gt;diffusion&#45;editor -->
<g id="edge20" class="edge">
<title>termin&#45;gui&#45;&gt;diffusion&#45;editor</title>
<path fill="none" stroke="#666666" stroke-width="1.1" d="M785.13,-166.57C862.22,-185.07 1048.54,-229.77 1141.64,-252.11"/>
<polygon fill="#666666" stroke="#666666" stroke-width="1.1" points="1141.35,-254.56 1148.73,-253.81 1142.49,-249.79 1141.35,-254.56"/>
</g>
<!-- termin&#45;gui&#45;&gt;tcplot -->
<g id="edge21" class="edge">
<title>termin&#45;gui&#45;&gt;tcplot</title>
<path fill="none" stroke="#666666" stroke-width="1.1" d="M785.24,-148.52C831.96,-135.43 914.42,-112.3 960.14,-99.48"/>
<polygon fill="#666666" stroke="#666666" stroke-width="1.1" points="960.81,-101.84 966.88,-97.59 959.48,-97.12 960.81,-101.84"/>
</g>
<!-- termin&#45;nodegraph -->
<g id="node26" class="node">
<title>termin&#45;nodegraph</title>
<path fill="#f7f7f7" stroke="#444444" d="M1038.5,-176.27C1038.5,-176.27 949.5,-176.27 949.5,-176.27 943.5,-176.27 937.5,-170.27 937.5,-164.27 937.5,-164.27 937.5,-152.27 937.5,-152.27 937.5,-146.27 943.5,-140.27 949.5,-140.27 949.5,-140.27 1038.5,-140.27 1038.5,-140.27 1044.5,-140.27 1050.5,-146.27 1050.5,-152.27 1050.5,-152.27 1050.5,-164.27 1050.5,-164.27 1050.5,-170.27 1044.5,-176.27 1038.5,-176.27"/>
<text text-anchor="middle" x="994" y="-155.47" font-family="DejaVu Sans" font-size="11.00">termin&#45;nodegraph</text>
</g>
<!-- termin&#45;gui&#45;&gt;termin&#45;nodegraph -->
<g id="edge22" class="edge">
<title>termin&#45;gui&#45;&gt;termin&#45;nodegraph</title>
<path fill="none" stroke="#666666" stroke-width="1.1" d="M785.24,-158.27C822.91,-158.27 883.82,-158.27 929.97,-158.27"/>
<polygon fill="#666666" stroke="#666666" stroke-width="1.1" points="930.24,-160.72 937.24,-158.27 930.24,-155.82 930.24,-160.72"/>
</g>
<!-- termin&#45;nodegraph&#45;&gt;termin -->
<g id="edge29" class="edge">
<title>termin&#45;nodegraph&#45;&gt;termin</title>
<path fill="none" stroke="#666666" stroke-width="1.1" d="M1011.41,-176.49C1037.31,-204.7 1090.01,-259.79 1141,-299.27 1148.12,-304.78 1156.19,-310.15 1163.92,-314.94"/>
<polygon fill="#666666" stroke="#666666" stroke-width="1.1" points="1163.05,-317.28 1170.31,-318.82 1165.59,-313.09 1163.05,-317.28"/>
</g>
</g>
</svg>
