<?xml version="1.0" encoding="UTF-8" standalone="no"?>
<!DOCTYPE svg PUBLIC "-//W3C//DTD SVG 1.1//EN"
 "http://www.w3.org/Graphics/SVG/1.1/DTD/svg11.dtd">
<!-- Generated by graphviz version 2.42.4 (0)
 -->
<!-- Title: termin_dependencies Pages: 1 -->
<svg width="1748pt" height="2396pt"
 viewBox="0.00 0.00 1747.80 2395.81" xmlns="http://www.w3.org/2000/svg" xmlns:xlink="http://www.w3.org/1999/xlink">
<g id="graph0" class="graph" transform="scale(1 1) rotate(0) translate(14.4 2381.41)">
<title>termin_dependencies</title>
<polygon fill="white" stroke="transparent" points="-14.4,14.4 -14.4,-2381.41 1733.4,-2381.41 1733.4,14.4 -14.4,14.4"/>
<g id="clust1" class="cluster">
<title>cluster_application</title>
<polygon fill="white" stroke="#999999" stroke-dasharray="5,2" points="1620,-1245.01 1620,-1318.01 1711,-1318.01 1711,-1245.01 1620,-1245.01"/>
<text text-anchor="middle" x="1665.5" y="-1304.41" font-family="DejaVu Sans" font-size="12.00">Application</text>
</g>
<g id="clust2" class="cluster">
<title>cluster_foundation</title>
<polygon fill="white" stroke="#999999" stroke-dasharray="5,2" points="137,-1403.01 137,-1748.01 1106.5,-1748.01 1106.5,-1403.01 137,-1403.01"/>
<text text-anchor="middle" x="621.75" y="-1734.41" font-family="DejaVu Sans" font-size="12.00">Foundation</text>
</g>
<g id="clust3" class="cluster">
<title>cluster_namespace</title>
<polygon fill="white" stroke="#999999" stroke-dasharray="5,2" points="0,-1675.01 0,-1748.01 88,-1748.01 88,-1675.01 0,-1675.01"/>
<text text-anchor="middle" x="44" y="-1734.41" font-family="DejaVu Sans" font-size="12.00">Namespace</text>
</g>
<g id="clust4" class="cluster">
<title>cluster_native_interop</title>
<polygon fill="white" stroke="#999999" stroke-dasharray="5,2" points="1443.5,-485.01 1443.5,-558.01 1550.5,-558.01 1550.5,-485.01 1443.5,-485.01"/>
<text text-anchor="middle" x="1497" y="-544.41" font-family="DejaVu Sans" font-size="12.00">Native Interop</text>
</g>
<g id="clust5" class="cluster">
<title>cluster_other_components</title>
<polygon fill="white" stroke="#999999" stroke-dasharray="5,2" points="702,-802.01 702,-1283.01 1374,-1283.01 1374,-802.01 702,-802.01"/>
<text text-anchor="middle" x="1038" y="-1269.41" font-family="DejaVu Sans" font-size="12.00">Other Components</text>
</g>
<g id="clust6" class="cluster">
<title>cluster_python_support</title>
<polygon fill="white" stroke="#999999" stroke-dasharray="5,2" points="307,-1756.01 307,-1897.01 450,-1897.01 450,-1756.01 307,-1756.01"/>
<text text-anchor="middle" x="378.5" y="-1883.41" font-family="DejaVu Sans" font-size="12.00">Python Support</text>
</g>
<g id="clust7" class="cluster">
<title>cluster_render_stack</title>
<polygon fill="white" stroke="#999999" stroke-dasharray="5,2" points="320,-448.01 320,-589.01 1133,-589.01 1133,-448.01 320,-448.01"/>
<text text-anchor="middle" x="726.5" y="-575.41" font-family="DejaVu Sans" font-size="12.00">Render Stack</text>
</g>
<g id="clust8" class="cluster">
<title>cluster_runtime</title>
<polygon fill="white" stroke="#999999" stroke-dasharray="5,2" points="990.5,-721.01 990.5,-794.01 1097.5,-794.01 1097.5,-721.01 990.5,-721.01"/>
<text text-anchor="middle" x="1044" y="-780.41" font-family="DejaVu Sans" font-size="12.00">Runtime</text>
</g>
<g id="clust10" class="cluster">
<title>cluster_ui</title>
<polygon fill="white" stroke="#999999" stroke-dasharray="5,2" points="532.5,-84.01 532.5,-225.01 864,-225.01 864,-84.01 532.5,-84.01"/>
<text text-anchor="middle" x="698.25" y="-211.41" font-family="DejaVu Sans" font-size="12.00">UI</text>
</g>
<!-- termin&#45;app -->
<g id="node1" class="node">
<title>termin&#45;app</title>
<path fill="#f7f7f7" stroke="#444444" d="M1691,-1289.01C1691,-1289.01 1640,-1289.01 1640,-1289.01 1634,-1289.01 1628,-1283.01 1628,-1277.01 1628,-1277.01 1628,-1265.01 1628,-1265.01 1628,-1259.01 1634,-1253.01 1640,-1253.01 1640,-1253.01 1691,-1253.01 1691,-1253.01 1697,-1253.01 1703,-1259.01 1703,-1265.01 1703,-1265.01 1703,-1277.01 1703,-1277.01 1703,-1283.01 1697,-1289.01 1691,-1289.01"/>
<text text-anchor="middle" x="1665.5" y="-1268.21" font-family="DejaVu Sans" font-size="11.00">termin&#45;app</text>
</g>
<!-- termin&#45;animation -->
<g id="node2" class="node">
<title>termin&#45;animation</title>
<path fill="#f7f7f7" stroke="#444444" d="M1086.5,-1564.01C1086.5,-1564.01 1001.5,-1564.01 1001.5,-1564.01 995.5,-1564.01 989.5,-1558.01 989.5,-1552.01 989.5,-1552.01 989.5,-1540.01 989.5,-1540.01 989.5,-1534.01 995.5,-1528.01 1001.5,-1528.01 1001.5,-1528.01 1086.5,-1528.01 1086.5,-1528.01 1092.5,-1528.01 1098.5,-1534.01 1098.5,-1540.01 1098.5,-1540.01 1098.5,-1552.01 1098.5,-1552.01 1098.5,-1558.01 1092.5,-1564.01 1086.5,-1564.01"/>
<text text-anchor="middle" x="1044" y="-1543.21" font-family="DejaVu Sans" font-size="11.00">termin&#45;animation</text>
</g>
<!-- termin&#45;animation&#45;&gt;termin&#45;app -->
<g id="edge9" class="edge">
<title>termin&#45;animation&#45;&gt;termin&#45;app</title>
<path fill="none" stroke="#666666" stroke-width="1.1" d="M1098.75,-1541.82C1198.19,-1531.83 1414.27,-1499.48 1563,-1400.01 1603.3,-1373.06 1634.87,-1324.96 1651.51,-1295.72"/>
<polygon fill="#666666" stroke="#666666" stroke-width="1.1" points="1653.75,-1296.74 1655.02,-1289.43 1649.47,-1294.34 1653.75,-1296.74"/>
</g>
<!-- termin&#45;csharp -->
<g id="node18" class="node">
<title>termin&#45;csharp</title>
<path fill="#f7f7f7" stroke="#444444" d="M1530.5,-529.01C1530.5,-529.01 1463.5,-529.01 1463.5,-529.01 1457.5,-529.01 1451.5,-523.01 1451.5,-517.01 1451.5,-517.01 1451.5,-505.01 1451.5,-505.01 1451.5,-499.01 1457.5,-493.01 1463.5,-493.01 1463.5,-493.01 1530.5,-493.01 1530.5,-493.01 1536.5,-493.01 1542.5,-499.01 1542.5,-505.01 1542.5,-505.01 1542.5,-517.01 1542.5,-517.01 1542.5,-523.01 1536.5,-529.01 1530.5,-529.01"/>
<text text-anchor="middle" x="1497" y="-508.21" font-family="DejaVu Sans" font-size="11.00">termin&#45;csharp</text>
</g>
<!-- termin&#45;animation&#45;&gt;termin&#45;csharp -->
<g id="edge11" class="edge">
<title>termin&#45;animation&#45;&gt;termin&#45;csharp</title>
<path fill="none" stroke="#666666" stroke-width="1.1" d="M1085.78,-1527.93C1158.44,-1493.27 1308.78,-1409.94 1374,-1288.01 1526.04,-1003.79 1282.69,-851.2 1431,-565.01 1437.44,-552.59 1448.1,-541.93 1458.95,-533.44"/>
<polygon fill="#666666" stroke="#666666" stroke-width="1.1" points="1460.48,-535.36 1464.61,-529.2 1457.54,-531.43 1460.48,-535.36"/>
</g>
<!-- termin&#45;components&#45;animation -->
<g id="node19" class="node">
<title>termin&#45;components&#45;animation</title>
<path fill="#f7f7f7" stroke="#444444" d="M1122,-1186.01C1122,-1186.01 966,-1186.01 966,-1186.01 960,-1186.01 954,-1180.01 954,-1174.01 954,-1174.01 954,-1162.01 954,-1162.01 954,-1156.01 960,-1150.01 966,-1150.01 966,-1150.01 1122,-1150.01 1122,-1150.01 1128,-1150.01 1134,-1156.01 1134,-1162.01 1134,-1162.01 1134,-1174.01 1134,-1174.01 1134,-1180.01 1128,-1186.01 1122,-1186.01"/>
<text text-anchor="middle" x="1044" y="-1165.21" font-family="DejaVu Sans" font-size="11.00">termin&#45;components&#45;animation</text>
</g>
<!-- termin&#45;animation&#45;&gt;termin&#45;components&#45;animation -->
<g id="edge10" class="edge">
<title>termin&#45;animation&#45;&gt;termin&#45;components&#45;animation</title>
<path fill="none" stroke="#666666" stroke-width="1.1" d="M998.94,-1527.9C971.13,-1514.08 937.76,-1492.09 921.5,-1461.01 896.46,-1413.17 892.97,-1263.86 921.5,-1218.01 929.17,-1205.7 940.51,-1196.41 953.24,-1189.42"/>
<polygon fill="#666666" stroke="#666666" stroke-width="1.1" points="954.48,-1191.53 959.6,-1186.16 952.25,-1187.17 954.48,-1191.53"/>
</g>
<!-- termin&#45;base -->
<g id="node3" class="node">
<title>termin&#45;base</title>
<path fill="#f7f7f7" stroke="#444444" d="M226,-1651.01C226,-1651.01 169,-1651.01 169,-1651.01 163,-1651.01 157,-1645.01 157,-1639.01 157,-1639.01 157,-1627.01 157,-1627.01 157,-1621.01 163,-1615.01 169,-1615.01 169,-1615.01 226,-1615.01 226,-1615.01 232,-1615.01 238,-1621.01 238,-1627.01 238,-1627.01 238,-1639.01 238,-1639.01 238,-1645.01 232,-1651.01 226,-1651.01"/>
<text text-anchor="middle" x="197.5" y="-1630.21" font-family="DejaVu Sans" font-size="11.00">termin&#45;base</text>
</g>
<!-- termin&#45;inspect -->
<g id="node7" class="node">
<title>termin&#45;inspect</title>
<path fill="#f7f7f7" stroke="#444444" d="M413.5,-1583.01C413.5,-1583.01 343.5,-1583.01 343.5,-1583.01 337.5,-1583.01 331.5,-1577.01 331.5,-1571.01 331.5,-1571.01 331.5,-1559.01 331.5,-1559.01 331.5,-1553.01 337.5,-1547.01 343.5,-1547.01 343.5,-1547.01 413.5,-1547.01 413.5,-1547.01 419.5,-1547.01 425.5,-1553.01 425.5,-1559.01 425.5,-1559.01 425.5,-1571.01 425.5,-1571.01 425.5,-1577.01 419.5,-1583.01 413.5,-1583.01"/>
<text text-anchor="middle" x="378.5" y="-1562.21" font-family="DejaVu Sans" font-size="11.00">termin&#45;inspect</text>
</g>
<!-- termin&#45;base&#45;&gt;termin&#45;inspect -->
<g id="edge21" class="edge">
<title>termin&#45;base&#45;&gt;termin&#45;inspect</title>
<path fill="none" stroke="#666666" stroke-width="1.1" d="M238.23,-1617.92C263.58,-1608.29 296.74,-1595.69 324.35,-1585.21"/>
<polygon fill="#666666" stroke="#666666" stroke-width="1.1" points="325.57,-1587.36 331.24,-1582.59 323.83,-1582.78 325.57,-1587.36"/>
</g>
<!-- termin&#45;mesh -->
<g id="node8" class="node">
<title>termin&#45;mesh</title>
<path fill="#f7f7f7" stroke="#444444" d="M408.5,-1651.01C408.5,-1651.01 348.5,-1651.01 348.5,-1651.01 342.5,-1651.01 336.5,-1645.01 336.5,-1639.01 336.5,-1639.01 336.5,-1627.01 336.5,-1627.01 336.5,-1621.01 342.5,-1615.01 348.5,-1615.01 348.5,-1615.01 408.5,-1615.01 408.5,-1615.01 414.5,-1615.01 420.5,-1621.01 420.5,-1627.01 420.5,-1627.01 420.5,-1639.01 420.5,-1639.01 420.5,-1645.01 414.5,-1651.01 408.5,-1651.01"/>
<text text-anchor="middle" x="378.5" y="-1630.21" font-family="DejaVu Sans" font-size="11.00">termin&#45;mesh</text>
</g>
<!-- termin&#45;base&#45;&gt;termin&#45;mesh -->
<g id="edge23" class="edge">
<title>termin&#45;base&#45;&gt;termin&#45;mesh</title>
<path fill="none" stroke="#666666" stroke-width="1.1" d="M238.23,-1633.01C265.1,-1633.01 300.75,-1633.01 329.25,-1633.01"/>
<polygon fill="#666666" stroke="#666666" stroke-width="1.1" points="329.33,-1635.46 336.33,-1633.01 329.33,-1630.56 329.33,-1635.46"/>
</g>
<!-- termin&#45;modules -->
<g id="node9" class="node">
<title>termin&#45;modules</title>
<path fill="#f7f7f7" stroke="#444444" d="M417,-1447.01C417,-1447.01 340,-1447.01 340,-1447.01 334,-1447.01 328,-1441.01 328,-1435.01 328,-1435.01 328,-1423.01 328,-1423.01 328,-1417.01 334,-1411.01 340,-1411.01 340,-1411.01 417,-1411.01 417,-1411.01 423,-1411.01 429,-1417.01 429,-1423.01 429,-1423.01 429,-1435.01 429,-1435.01 429,-1441.01 423,-1447.01 417,-1447.01"/>
<text text-anchor="middle" x="378.5" y="-1426.21" font-family="DejaVu Sans" font-size="11.00">termin&#45;modules</text>
</g>
<!-- termin&#45;base&#45;&gt;termin&#45;modules -->
<g id="edge24" class="edge">
<title>termin&#45;base&#45;&gt;termin&#45;modules</title>
<path fill="none" stroke="#666666" stroke-width="1.1" d="M232.17,-1614.96C238.68,-1610.39 245.01,-1605.04 250,-1599.01 291.82,-1548.56 261.89,-1510.56 307,-1463.01 311.4,-1458.38 316.55,-1454.3 322.05,-1450.73"/>
<polygon fill="#666666" stroke="#666666" stroke-width="1.1" points="323.4,-1452.78 328.12,-1447.06 320.86,-1448.59 323.4,-1452.78"/>
</g>
<!-- termin&#45;qopt -->
<g id="node12" class="node">
<title>termin&#45;qopt</title>
<path fill="#f7f7f7" stroke="#444444" d="M406,-1515.01C406,-1515.01 351,-1515.01 351,-1515.01 345,-1515.01 339,-1509.01 339,-1503.01 339,-1503.01 339,-1491.01 339,-1491.01 339,-1485.01 345,-1479.01 351,-1479.01 351,-1479.01 406,-1479.01 406,-1479.01 412,-1479.01 418,-1485.01 418,-1491.01 418,-1491.01 418,-1503.01 418,-1503.01 418,-1509.01 412,-1515.01 406,-1515.01"/>
<text text-anchor="middle" x="378.5" y="-1494.21" font-family="DejaVu Sans" font-size="11.00">termin&#45;qopt</text>
</g>
<!-- termin&#45;base&#45;&gt;termin&#45;qopt -->
<g id="edge27" class="edge">
<title>termin&#45;base&#45;&gt;termin&#45;qopt</title>
<path fill="none" stroke="#666666" stroke-width="1.1" d="M228.99,-1614.99C236.18,-1610.18 243.6,-1604.72 250,-1599.01 279.43,-1572.77 275.88,-1555.23 307,-1531.01 314.68,-1525.04 323.58,-1519.74 332.42,-1515.22"/>
<polygon fill="#666666" stroke="#666666" stroke-width="1.1" points="333.63,-1517.35 338.82,-1512.06 331.46,-1512.96 333.63,-1517.35"/>
</g>
<!-- termin&#45;assets -->
<g id="node29" class="node">
<title>termin&#45;assets</title>
<path fill="#f7f7f7" stroke="#444444" d="M411.5,-1868.01C411.5,-1868.01 345.5,-1868.01 345.5,-1868.01 339.5,-1868.01 333.5,-1862.01 333.5,-1856.01 333.5,-1856.01 333.5,-1844.01 333.5,-1844.01 333.5,-1838.01 339.5,-1832.01 345.5,-1832.01 345.5,-1832.01 411.5,-1832.01 411.5,-1832.01 417.5,-1832.01 423.5,-1838.01 423.5,-1844.01 423.5,-1844.01 423.5,-1856.01 423.5,-1856.01 423.5,-1862.01 417.5,-1868.01 411.5,-1868.01"/>
<text text-anchor="middle" x="378.5" y="-1847.21" font-family="DejaVu Sans" font-size="11.00">termin&#45;assets</text>
</g>
<!-- termin&#45;base&#45;&gt;termin&#45;assets -->
<g id="edge19" class="edge">
<title>termin&#45;base&#45;&gt;termin&#45;assets</title>
<path fill="none" stroke="#666666" stroke-width="1.1" d="M232.59,-1651.14C238.99,-1655.68 245.17,-1661 250,-1667.01 294.38,-1722.31 259.01,-1763.82 307,-1816.01 312.68,-1822.19 319.71,-1827.36 327.12,-1831.66"/>
<polygon fill="#666666" stroke="#666666" stroke-width="1.1" points="326.09,-1833.89 333.42,-1835.06 328.43,-1829.58 326.09,-1833.89"/>
</g>
<!-- termin&#45;lighting -->
<g id="node34" class="node">
<title>termin&#45;lighting</title>
<path fill="#f7f7f7" stroke="#444444" d="M414,-560.01C414,-560.01 343,-560.01 343,-560.01 337,-560.01 331,-554.01 331,-548.01 331,-548.01 331,-536.01 331,-536.01 331,-530.01 337,-524.01 343,-524.01 343,-524.01 414,-524.01 414,-524.01 420,-524.01 426,-530.01 426,-536.01 426,-536.01 426,-548.01 426,-548.01 426,-554.01 420,-560.01 414,-560.01"/>
<text text-anchor="middle" x="378.5" y="-539.21" font-family="DejaVu Sans" font-size="11.00">termin&#45;lighting</text>
</g>
<!-- termin&#45;base&#45;&gt;termin&#45;lighting -->
<g id="edge22" class="edge">
<title>termin&#45;base&#45;&gt;termin&#45;lighting</title>
<path fill="none" stroke="#666666" stroke-width="1.1" d="M235.39,-1614.94C241.17,-1610.52 246.41,-1605.23 250,-1599.01 353.33,-1420.35 250.13,-870.41 307,-672.01 318.35,-632.43 343.15,-591.41 360.1,-566.3"/>
<polygon fill="#666666" stroke="#666666" stroke-width="1.1" points="362.29,-567.43 364.22,-560.27 358.25,-564.66 362.29,-567.43"/>
</g>
<!-- termin&#45;audio -->
<g id="node41" class="node">
<title>termin&#45;audio</title>
<path fill="#f7f7f7" stroke="#444444" d="M408.5,-222.01C408.5,-222.01 348.5,-222.01 348.5,-222.01 342.5,-222.01 336.5,-216.01 336.5,-210.01 336.5,-210.01 336.5,-198.01 336.5,-198.01 336.5,-192.01 342.5,-186.01 348.5,-186.01 348.5,-186.01 408.5,-186.01 408.5,-186.01 414.5,-186.01 420.5,-192.01 420.5,-198.01 420.5,-198.01 420.5,-210.01 420.5,-210.01 420.5,-216.01 414.5,-222.01 408.5,-222.01"/>
<text text-anchor="middle" x="378.5" y="-201.21" font-family="DejaVu Sans" font-size="11.00">termin&#45;audio</text>
</g>
<!-- termin&#45;base&#45;&gt;termin&#45;audio -->
<g id="edge20" class="edge">
<title>termin&#45;base&#45;&gt;termin&#45;audio</title>
<path fill="none" stroke="#666666" stroke-width="1.1" d="M235.49,-1615C241.26,-1610.57 246.47,-1605.26 250,-1599.01 324.49,-1467.26 223.85,-364.48 307,-238.01 312.58,-229.53 320.91,-223.1 329.91,-218.25"/>
<polygon fill="#666666" stroke="#666666" stroke-width="1.1" points="331.03,-220.43 336.23,-215.14 328.87,-216.03 331.03,-220.43"/>
</g>
<!-- termin&#45;pga -->
<g id="node49" class="node">
<title>termin&#45;pga</title>
<path fill="#f7f7f7" stroke="#444444" d="M404,-358.01C404,-358.01 353,-358.01 353,-358.01 347,-358.01 341,-352.01 341,-346.01 341,-346.01 341,-334.01 341,-334.01 341,-328.01 347,-322.01 353,-322.01 353,-322.01 404,-322.01 404,-322.01 410,-322.01 416,-328.01 416,-334.01 416,-334.01 416,-346.01 416,-346.01 416,-352.01 410,-358.01 404,-358.01"/>
<text text-anchor="middle" x="378.5" y="-337.21" font-family="DejaVu Sans" font-size="11.00">termin&#45;pga</text>
</g>
<!-- termin&#45;base&#45;&gt;termin&#45;pga -->
<g id="edge25" class="edge">
<title>termin&#45;base&#45;&gt;termin&#45;pga</title>
<path fill="none" stroke="#666666" stroke-width="1.1" d="M235.46,-1614.99C241.23,-1610.56 246.45,-1605.25 250,-1599.01 383.83,-1363.66 167.77,-614.21 307,-382.01 313.43,-371.29 323.74,-362.98 334.51,-356.69"/>
<polygon fill="#666666" stroke="#666666" stroke-width="1.1" points="335.91,-358.72 340.88,-353.22 333.56,-354.42 335.91,-358.72"/>
</g>
<!-- termin&#45;project -->
<g id="node52" class="node">
<title>termin&#45;project</title>
<path fill="#f7f7f7" stroke="#444444" d="M413,-290.01C413,-290.01 344,-290.01 344,-290.01 338,-290.01 332,-284.01 332,-278.01 332,-278.01 332,-266.01 332,-266.01 332,-260.01 338,-254.01 344,-254.01 344,-254.01 413,-254.01 413,-254.01 419,-254.01 425,-260.01 425,-266.01 425,-266.01 425,-278.01 425,-278.01 425,-284.01 419,-290.01 413,-290.01"/>
<text text-anchor="middle" x="378.5" y="-269.21" font-family="DejaVu Sans" font-size="11.00">termin&#45;project</text>
</g>
<!-- termin&#45;base&#45;&gt;termin&#45;project -->
<g id="edge26" class="edge">
<title>termin&#45;base&#45;&gt;termin&#45;project</title>
<path fill="none" stroke="#666666" stroke-width="1.1" d="M235.48,-1614.99C241.25,-1610.56 246.46,-1605.26 250,-1599.01 391.83,-1348.8 148.72,-546.16 307,-306.01 311.67,-298.92 318.27,-293.27 325.57,-288.77"/>
<polygon fill="#666666" stroke="#666666" stroke-width="1.1" points="326.92,-290.82 331.83,-285.26 324.53,-286.54 326.92,-290.82"/>
</g>
<!-- termin&#45;collision -->
<g id="node4" class="node">
<title>termin&#45;collision</title>
<path fill="#f7f7f7" stroke="#444444" d="M837,-1463.01C837,-1463.01 762,-1463.01 762,-1463.01 756,-1463.01 750,-1457.01 750,-1451.01 750,-1451.01 750,-1439.01 750,-1439.01 750,-1433.01 756,-1427.01 762,-1427.01 762,-1427.01 837,-1427.01 837,-1427.01 843,-1427.01 849,-1433.01 849,-1439.01 849,-1439.01 849,-1451.01 849,-1451.01 849,-1457.01 843,-1463.01 837,-1463.01"/>
<text text-anchor="middle" x="799.5" y="-1442.21" font-family="DejaVu Sans" font-size="11.00">termin&#45;collision</text>
</g>
<!-- termin&#45;physics -->
<g id="node11" class="node">
<title>termin&#45;physics</title>
<path fill="#f7f7f7" stroke="#444444" d="M1080,-1461.01C1080,-1461.01 1008,-1461.01 1008,-1461.01 1002,-1461.01 996,-1455.01 996,-1449.01 996,-1449.01 996,-1437.01 996,-1437.01 996,-1431.01 1002,-1425.01 1008,-1425.01 1008,-1425.01 1080,-1425.01 1080,-1425.01 1086,-1425.01 1092,-1431.01 1092,-1437.01 1092,-1437.01 1092,-1449.01 1092,-1449.01 1092,-1455.01 1086,-1461.01 1080,-1461.01"/>
<text text-anchor="middle" x="1044" y="-1440.21" font-family="DejaVu Sans" font-size="11.00">termin&#45;physics</text>
</g>
<!-- termin&#45;collision&#45;&gt;termin&#45;physics -->
<g id="edge30" class="edge">
<title>termin&#45;collision&#45;&gt;termin&#45;physics</title>
<path fill="none" stroke="#666666" stroke-width="1.1" d="M849.28,-1444.61C889.68,-1444.28 947.04,-1443.81 988.85,-1443.46"/>
<polygon fill="#666666" stroke="#666666" stroke-width="1.1" points="988.97,-1445.91 995.95,-1443.4 988.93,-1441.01 988.97,-1445.91"/>
</g>
<!-- termin&#45;components&#45;collision -->
<g id="node20" class="node">
<title>termin&#45;components&#45;collision</title>
<path fill="#f7f7f7" stroke="#444444" d="M1117,-1254.01C1117,-1254.01 971,-1254.01 971,-1254.01 965,-1254.01 959,-1248.01 959,-1242.01 959,-1242.01 959,-1230.01 959,-1230.01 959,-1224.01 965,-1218.01 971,-1218.01 971,-1218.01 1117,-1218.01 1117,-1218.01 1123,-1218.01 1129,-1224.01 1129,-1230.01 1129,-1230.01 1129,-1242.01 1129,-1242.01 1129,-1248.01 1123,-1254.01 1117,-1254.01"/>
<text text-anchor="middle" x="1044" y="-1233.21" font-family="DejaVu Sans" font-size="11.00">termin&#45;components&#45;collision</text>
</g>
<!-- termin&#45;collision&#45;&gt;termin&#45;components&#45;collision -->
<g id="edge28" class="edge">
<title>termin&#45;collision&#45;&gt;termin&#45;components&#45;collision</title>
<path fill="none" stroke="#666666" stroke-width="1.1" d="M849.46,-1430.99C862.94,-1425.89 877.11,-1419.29 889,-1411.01 949.76,-1368.73 1002.32,-1297.53 1027.37,-1260.32"/>
<polygon fill="#666666" stroke="#666666" stroke-width="1.1" points="1029.59,-1261.4 1031.44,-1254.22 1025.52,-1258.68 1029.59,-1261.4"/>
</g>
<!-- termin&#45;engine -->
<g id="node36" class="node">
<title>termin&#45;engine</title>
<path fill="#f7f7f7" stroke="#444444" d="M1077.5,-765.01C1077.5,-765.01 1010.5,-765.01 1010.5,-765.01 1004.5,-765.01 998.5,-759.01 998.5,-753.01 998.5,-753.01 998.5,-741.01 998.5,-741.01 998.5,-735.01 1004.5,-729.01 1010.5,-729.01 1010.5,-729.01 1077.5,-729.01 1077.5,-729.01 1083.5,-729.01 1089.5,-735.01 1089.5,-741.01 1089.5,-741.01 1089.5,-753.01 1089.5,-753.01 1089.5,-759.01 1083.5,-765.01 1077.5,-765.01"/>
<text text-anchor="middle" x="1044" y="-744.21" font-family="DejaVu Sans" font-size="11.00">termin&#45;engine</text>
</g>
<!-- termin&#45;collision&#45;&gt;termin&#45;engine -->
<g id="edge29" class="edge">
<title>termin&#45;collision&#45;&gt;termin&#45;engine</title>
<path fill="none" stroke="#666666" stroke-width="1.1" d="M849.26,-1436.62C864.22,-1431.63 879.28,-1423.68 889,-1411.01 1056.86,-1192.25 799.46,-1022.38 954,-794.01 963.09,-780.59 977.28,-770.72 991.68,-763.59"/>
<polygon fill="#666666" stroke="#666666" stroke-width="1.1" points="992.99,-765.69 998.3,-760.51 990.92,-761.25 992.99,-765.69"/>
</g>
<!-- termin&#45;csg -->
<g id="node5" class="node">
<title>termin&#45;csg</title>
<path fill="#f7f7f7" stroke="#444444" d="M222,-1447.01C222,-1447.01 173,-1447.01 173,-1447.01 167,-1447.01 161,-1441.01 161,-1435.01 161,-1435.01 161,-1423.01 161,-1423.01 161,-1417.01 167,-1411.01 173,-1411.01 173,-1411.01 222,-1411.01 222,-1411.01 228,-1411.01 234,-1417.01 234,-1423.01 234,-1423.01 234,-1435.01 234,-1435.01 234,-1441.01 228,-1447.01 222,-1447.01"/>
<text text-anchor="middle" x="197.5" y="-1426.21" font-family="DejaVu Sans" font-size="11.00">termin&#45;csg</text>
</g>
<!-- termin&#45;components&#45;mesh -->
<g id="node22" class="node">
<title>termin&#45;components&#45;mesh</title>
<path fill="#f7f7f7" stroke="#444444" d="M865.5,-1050.01C865.5,-1050.01 733.5,-1050.01 733.5,-1050.01 727.5,-1050.01 721.5,-1044.01 721.5,-1038.01 721.5,-1038.01 721.5,-1026.01 721.5,-1026.01 721.5,-1020.01 727.5,-1014.01 733.5,-1014.01 733.5,-1014.01 865.5,-1014.01 865.5,-1014.01 871.5,-1014.01 877.5,-1020.01 877.5,-1026.01 877.5,-1026.01 877.5,-1038.01 877.5,-1038.01 877.5,-1044.01 871.5,-1050.01 865.5,-1050.01"/>
<text text-anchor="middle" x="799.5" y="-1029.21" font-family="DejaVu Sans" font-size="11.00">termin&#45;components&#45;mesh</text>
</g>
<!-- termin&#45;csg&#45;&gt;termin&#45;components&#45;mesh -->
<g id="edge51" class="edge">
<title>termin&#45;csg&#45;&gt;termin&#45;components&#45;mesh</title>
<path fill="none" stroke="#666666" stroke-width="1.1" d="M200.11,-1410.77C205.46,-1361.54 227.15,-1224.98 307,-1155.01 421.8,-1054.44 606.77,-1033.69 714.05,-1030.77"/>
<polygon fill="#666666" stroke="#666666" stroke-width="1.1" points="714.38,-1033.21 721.32,-1030.59 714.27,-1028.31 714.38,-1033.21"/>
</g>
<!-- termin&#45;input -->
<g id="node6" class="node">
<title>termin&#45;input</title>
<path fill="#f7f7f7" stroke="#444444" d="M828.5,-1531.01C828.5,-1531.01 770.5,-1531.01 770.5,-1531.01 764.5,-1531.01 758.5,-1525.01 758.5,-1519.01 758.5,-1519.01 758.5,-1507.01 758.5,-1507.01 758.5,-1501.01 764.5,-1495.01 770.5,-1495.01 770.5,-1495.01 828.5,-1495.01 828.5,-1495.01 834.5,-1495.01 840.5,-1501.01 840.5,-1507.01 840.5,-1507.01 840.5,-1519.01 840.5,-1519.01 840.5,-1525.01 834.5,-1531.01 828.5,-1531.01"/>
<text text-anchor="middle" x="799.5" y="-1510.21" font-family="DejaVu Sans" font-size="11.00">termin&#45;input</text>
</g>
<!-- termin&#45;display -->
<g id="node32" class="node">
<title>termin&#45;display</title>
<path fill="#f7f7f7" stroke="#444444" d="M834,-560.01C834,-560.01 765,-560.01 765,-560.01 759,-560.01 753,-554.01 753,-548.01 753,-548.01 753,-536.01 753,-536.01 753,-530.01 759,-524.01 765,-524.01 765,-524.01 834,-524.01 834,-524.01 840,-524.01 846,-530.01 846,-536.01 846,-536.01 846,-548.01 846,-548.01 846,-554.01 840,-560.01 834,-560.01"/>
<text text-anchor="middle" x="799.5" y="-539.21" font-family="DejaVu Sans" font-size="11.00">termin&#45;display</text>
</g>
<!-- termin&#45;input&#45;&gt;termin&#45;display -->
<g id="edge71" class="edge">
<title>termin&#45;input&#45;&gt;termin&#45;display</title>
<path fill="none" stroke="#666666" stroke-width="1.1" d="M758.39,-1509.52C728.61,-1504.51 690.68,-1492.36 673.5,-1463.01 636.84,-1400.4 657.68,-880.83 673.5,-810.01 694.96,-713.93 754.82,-611.64 783.62,-566.19"/>
<polygon fill="#666666" stroke="#666666" stroke-width="1.1" points="785.77,-567.37 787.47,-560.16 781.64,-564.74 785.77,-567.37"/>
</g>
<!-- termin&#45;scene -->
<g id="node13" class="node">
<title>termin&#45;scene</title>
<path fill="#f7f7f7" stroke="#444444" d="M607.5,-1463.01C607.5,-1463.01 544.5,-1463.01 544.5,-1463.01 538.5,-1463.01 532.5,-1457.01 532.5,-1451.01 532.5,-1451.01 532.5,-1439.01 532.5,-1439.01 532.5,-1433.01 538.5,-1427.01 544.5,-1427.01 544.5,-1427.01 607.5,-1427.01 607.5,-1427.01 613.5,-1427.01 619.5,-1433.01 619.5,-1439.01 619.5,-1439.01 619.5,-1451.01 619.5,-1451.01 619.5,-1457.01 613.5,-1463.01 607.5,-1463.01"/>
<text text-anchor="middle" x="576" y="-1442.21" font-family="DejaVu Sans" font-size="11.00">termin&#45;scene</text>
</g>
<!-- termin&#45;inspect&#45;&gt;termin&#45;scene -->
<g id="edge73" class="edge">
<title>termin&#45;inspect&#45;&gt;termin&#45;scene</title>
<path fill="none" stroke="#666666" stroke-width="1.1" d="M419.58,-1547C429.67,-1542.11 440.36,-1536.61 450,-1531.01 483.74,-1511.42 520.29,-1485.71 545.09,-1467.52"/>
<polygon fill="#666666" stroke="#666666" stroke-width="1.1" points="546.64,-1469.42 550.83,-1463.3 543.74,-1465.48 546.64,-1469.42"/>
</g>
<!-- termin&#45;components&#45;ui -->
<g id="node26" class="node">
<title>termin&#45;components&#45;ui</title>
<path fill="#f7f7f7" stroke="#444444" d="M855,-846.01C855,-846.01 744,-846.01 744,-846.01 738,-846.01 732,-840.01 732,-834.01 732,-834.01 732,-822.01 732,-822.01 732,-816.01 738,-810.01 744,-810.01 744,-810.01 855,-810.01 855,-810.01 861,-810.01 867,-816.01 867,-822.01 867,-822.01 867,-834.01 867,-834.01 867,-840.01 861,-846.01 855,-846.01"/>
<text text-anchor="middle" x="799.5" y="-825.21" font-family="DejaVu Sans" font-size="11.00">termin&#45;components&#45;ui</text>
</g>
<!-- termin&#45;inspect&#45;&gt;termin&#45;components&#45;ui -->
<g id="edge72" class="edge">
<title>termin&#45;inspect&#45;&gt;termin&#45;components&#45;ui</title>
<path fill="none" stroke="#666666" stroke-width="1.1" d="M425.73,-1549.4C434.73,-1544.65 443.4,-1538.6 450,-1531.01 504.5,-1468.33 478.99,-1431.22 507,-1353.01 586.18,-1131.97 532.74,-1024.75 702,-862.01 708.73,-855.54 716.77,-850.29 725.3,-846.04"/>
<polygon fill="#666666" stroke="#666666" stroke-width="1.1" points="726.58,-848.14 731.9,-842.97 724.52,-843.7 726.58,-848.14"/>
</g>
<!-- termin&#45;graphics -->
<g id="node33" class="node">
<title>termin&#45;graphics</title>
<path fill="#f7f7f7" stroke="#444444" d="M417,-492.01C417,-492.01 340,-492.01 340,-492.01 334,-492.01 328,-486.01 328,-480.01 328,-480.01 328,-468.01 328,-468.01 328,-462.01 334,-456.01 340,-456.01 340,-456.01 417,-456.01 417,-456.01 423,-456.01 429,-462.01 429,-468.01 429,-468.01 429,-480.01 429,-480.01 429,-486.01 423,-492.01 417,-492.01"/>
<text text-anchor="middle" x="378.5" y="-471.21" font-family="DejaVu Sans" font-size="11.00">termin&#45;graphics</text>
</g>
<!-- termin&#45;mesh&#45;&gt;termin&#45;graphics -->
<g id="edge76" class="edge">
<title>termin&#45;mesh&#45;&gt;termin&#45;graphics</title>
<path fill="none" stroke="#666666" stroke-width="1.1" d="M336.37,-1623.58C314.89,-1616.37 290.76,-1603.95 278.5,-1583.01 248.78,-1532.24 248.78,-574.79 278.5,-524.01 287.89,-507.97 304.26,-496.93 321.06,-489.4"/>
<polygon fill="#666666" stroke="#666666" stroke-width="1.1" points="322.26,-491.55 327.76,-486.58 320.36,-487.04 322.26,-491.55"/>
</g>
<!-- termin&#45;modules&#45;&gt;termin&#45;engine -->
<g id="edge77" class="edge">
<title>termin&#45;modules&#45;&gt;termin&#45;engine</title>
<path fill="none" stroke="#666666" stroke-width="1.1" d="M379.41,-1410.79C379.94,-1340.35 390.13,-1081.72 507,-919.01 620.25,-761.34 880.46,-744.8 991.39,-745.3"/>
<polygon fill="#666666" stroke="#666666" stroke-width="1.1" points="991.45,-747.75 998.47,-745.36 991.49,-742.85 991.45,-747.75"/>
</g>
<!-- termin&#45;navmesh -->
<g id="node10" class="node">
<title>termin&#45;navmesh</title>
<path fill="#f7f7f7" stroke="#444444" d="M238,-1719.01C238,-1719.01 157,-1719.01 157,-1719.01 151,-1719.01 145,-1713.01 145,-1707.01 145,-1707.01 145,-1695.01 145,-1695.01 145,-1689.01 151,-1683.01 157,-1683.01 157,-1683.01 238,-1683.01 238,-1683.01 244,-1683.01 250,-1689.01 250,-1695.01 250,-1695.01 250,-1707.01 250,-1707.01 250,-1713.01 244,-1719.01 238,-1719.01"/>
<text text-anchor="middle" x="197.5" y="-1698.21" font-family="DejaVu Sans" font-size="11.00">termin&#45;navmesh</text>
</g>
<!-- termin&#45;bootstrap -->
<g id="node42" class="node">
<title>termin&#45;bootstrap</title>
<path fill="#f7f7f7" stroke="#444444" d="M1324.5,-462.01C1324.5,-462.01 1240.5,-462.01 1240.5,-462.01 1234.5,-462.01 1228.5,-456.01 1228.5,-450.01 1228.5,-450.01 1228.5,-438.01 1228.5,-438.01 1228.5,-432.01 1234.5,-426.01 1240.5,-426.01 1240.5,-426.01 1324.5,-426.01 1324.5,-426.01 1330.5,-426.01 1336.5,-432.01 1336.5,-438.01 1336.5,-438.01 1336.5,-450.01 1336.5,-450.01 1336.5,-456.01 1330.5,-462.01 1324.5,-462.01"/>
<text text-anchor="middle" x="1282.5" y="-441.21" font-family="DejaVu Sans" font-size="11.00">termin&#45;bootstrap</text>
</g>
<!-- termin&#45;navmesh&#45;&gt;termin&#45;bootstrap -->
<g id="edge79" class="edge">
<title>termin&#45;navmesh&#45;&gt;termin&#45;bootstrap</title>
<path fill="none" stroke="#666666" stroke-width="1.1" d="M235.46,-1682.99C241.23,-1678.56 246.45,-1673.26 250,-1667.01 317.44,-1548.36 221.03,-546.02 307,-440.01 421.15,-299.26 1026.67,-396.88 1221.25,-432.49"/>
<polygon fill="#666666" stroke="#666666" stroke-width="1.1" points="1220.94,-434.92 1228.27,-433.78 1221.83,-430.1 1220.94,-434.92"/>
</g>
<!-- termin&#45;default&#45;assets -->
<g id="node44" class="node">
<title>termin&#45;default&#45;assets</title>
<path fill="#f7f7f7" stroke="#444444" d="M1551,-1254.01C1551,-1254.01 1443,-1254.01 1443,-1254.01 1437,-1254.01 1431,-1248.01 1431,-1242.01 1431,-1242.01 1431,-1230.01 1431,-1230.01 1431,-1224.01 1437,-1218.01 1443,-1218.01 1443,-1218.01 1551,-1218.01 1551,-1218.01 1557,-1218.01 1563,-1224.01 1563,-1230.01 1563,-1230.01 1563,-1242.01 1563,-1242.01 1563,-1248.01 1557,-1254.01 1551,-1254.01"/>
<text text-anchor="middle" x="1497" y="-1233.21" font-family="DejaVu Sans" font-size="11.00">termin&#45;default&#45;assets</text>
</g>
<!-- termin&#45;navmesh&#45;&gt;termin&#45;default&#45;assets -->
<g id="edge80" class="edge">
<title>termin&#45;navmesh&#45;&gt;termin&#45;default&#45;assets</title>
<path fill="none" stroke="#666666" stroke-width="1.1" d="M200.74,-1719.3C214.15,-1819.85 293.08,-2301.01 575,-2301.01 575,-2301.01 575,-2301.01 1045,-2301.01 1192.35,-2301.01 1270.09,-2364.49 1374,-2260.01 1446.94,-2186.68 1487.61,-1411.27 1494.83,-1261.11"/>
<polygon fill="#666666" stroke="#666666" stroke-width="1.1" points="1497.28,-1261.16 1495.17,-1254.05 1492.39,-1260.93 1497.28,-1261.16"/>
</g>
<!-- termin&#45;player -->
<g id="node50" class="node">
<title>termin&#45;player</title>
<path fill="#f7f7f7" stroke="#444444" d="M1529.5,-1152.01C1529.5,-1152.01 1464.5,-1152.01 1464.5,-1152.01 1458.5,-1152.01 1452.5,-1146.01 1452.5,-1140.01 1452.5,-1140.01 1452.5,-1128.01 1452.5,-1128.01 1452.5,-1122.01 1458.5,-1116.01 1464.5,-1116.01 1464.5,-1116.01 1529.5,-1116.01 1529.5,-1116.01 1535.5,-1116.01 1541.5,-1122.01 1541.5,-1128.01 1541.5,-1128.01 1541.5,-1140.01 1541.5,-1140.01 1541.5,-1146.01 1535.5,-1152.01 1529.5,-1152.01"/>
<text text-anchor="middle" x="1497" y="-1131.21" font-family="DejaVu Sans" font-size="11.00">termin&#45;player</text>
</g>
<!-- termin&#45;navmesh&#45;&gt;termin&#45;player -->
<g id="edge81" class="edge">
<title>termin&#45;navmesh&#45;&gt;termin&#45;player</title>
<path fill="none" stroke="#666666" stroke-width="1.1" d="M204.05,-1719.02C216.7,-1757.48 250.95,-1848.74 307,-1905.01 481.98,-2080.71 550.54,-2169.01 798.5,-2169.01 798.5,-2169.01 798.5,-2169.01 1045,-2169.01 1349.51,-2169.01 1275.99,-1856.33 1374,-1568.01 1426.98,-1412.15 1358.11,-1349.63 1431,-1202.01 1439.48,-1184.85 1453.83,-1169.14 1466.89,-1157.16"/>
<polygon fill="#666666" stroke="#666666" stroke-width="1.1" points="1468.79,-1158.74 1472.39,-1152.26 1465.53,-1155.09 1468.79,-1158.74"/>
</g>
<!-- termin&#45;components&#45;physics -->
<g id="node23" class="node">
<title>termin&#45;components&#45;physics</title>
<path fill="#f7f7f7" stroke="#444444" d="M1354,-1254.01C1354,-1254.01 1211,-1254.01 1211,-1254.01 1205,-1254.01 1199,-1248.01 1199,-1242.01 1199,-1242.01 1199,-1230.01 1199,-1230.01 1199,-1224.01 1205,-1218.01 1211,-1218.01 1211,-1218.01 1354,-1218.01 1354,-1218.01 1360,-1218.01 1366,-1224.01 1366,-1230.01 1366,-1230.01 1366,-1242.01 1366,-1242.01 1366,-1248.01 1360,-1254.01 1354,-1254.01"/>
<text text-anchor="middle" x="1282.5" y="-1233.21" font-family="DejaVu Sans" font-size="11.00">termin&#45;components&#45;physics</text>
</g>
<!-- termin&#45;physics&#45;&gt;termin&#45;components&#45;physics -->
<g id="edge83" class="edge">
<title>termin&#45;physics&#45;&gt;termin&#45;components&#45;physics</title>
<path fill="none" stroke="#666666" stroke-width="1.1" d="M1059.78,-1424.75C1085.72,-1393.42 1142.11,-1328.55 1199,-1284.01 1211.33,-1274.36 1225.81,-1265.29 1239.16,-1257.69"/>
<polygon fill="#666666" stroke="#666666" stroke-width="1.1" points="1240.7,-1259.64 1245.61,-1254.08 1238.31,-1255.36 1240.7,-1259.64"/>
</g>
<!-- termin&#45;physics&#45;fem -->
<g id="node28" class="node">
<title>termin&#45;physics&#45;fem</title>
<path fill="#f7f7f7" stroke="#444444" d="M847.5,-1186.01C847.5,-1186.01 751.5,-1186.01 751.5,-1186.01 745.5,-1186.01 739.5,-1180.01 739.5,-1174.01 739.5,-1174.01 739.5,-1162.01 739.5,-1162.01 739.5,-1156.01 745.5,-1150.01 751.5,-1150.01 751.5,-1150.01 847.5,-1150.01 847.5,-1150.01 853.5,-1150.01 859.5,-1156.01 859.5,-1162.01 859.5,-1162.01 859.5,-1174.01 859.5,-1174.01 859.5,-1180.01 853.5,-1186.01 847.5,-1186.01"/>
<text text-anchor="middle" x="799.5" y="-1165.21" font-family="DejaVu Sans" font-size="11.00">termin&#45;physics&#45;fem</text>
</g>
<!-- termin&#45;qopt&#45;&gt;termin&#45;physics&#45;fem -->
<g id="edge87" class="edge">
<title>termin&#45;qopt&#45;&gt;termin&#45;physics&#45;fem</title>
<path fill="none" stroke="#666666" stroke-width="1.1" d="M418.1,-1481.2C428.84,-1476.07 440.22,-1469.9 450,-1463.01 474.86,-1445.51 624.46,-1293.43 645,-1271.01 671.87,-1241.69 669.39,-1224.79 702,-1202.01 711.29,-1195.53 721.93,-1190.17 732.69,-1185.77"/>
<polygon fill="#666666" stroke="#666666" stroke-width="1.1" points="733.76,-1187.98 739.39,-1183.15 731.98,-1183.42 733.76,-1187.98"/>
</g>
<!-- termin&#45;scene&#45;&gt;termin&#45;collision -->
<g id="edge96" class="edge">
<title>termin&#45;scene&#45;&gt;termin&#45;collision</title>
<path fill="none" stroke="#666666" stroke-width="1.1" d="M619.71,-1445.01C654.59,-1445.01 704.18,-1445.01 742.29,-1445.01"/>
<polygon fill="#666666" stroke="#666666" stroke-width="1.1" points="742.75,-1447.46 749.75,-1445.01 742.75,-1442.56 742.75,-1447.46"/>
</g>
<!-- termin&#45;scene&#45;&gt;termin&#45;input -->
<g id="edge102" class="edge">
<title>termin&#45;scene&#45;&gt;termin&#45;input</title>
<path fill="none" stroke="#666666" stroke-width="1.1" d="M619.71,-1458.13C657.34,-1469.68 712.09,-1486.49 751.08,-1498.46"/>
<polygon fill="#666666" stroke="#666666" stroke-width="1.1" points="750.75,-1500.92 758.16,-1500.63 752.19,-1496.23 750.75,-1500.92"/>
</g>
<!-- termin&#45;skeleton -->
<g id="node14" class="node">
<title>termin&#45;skeleton</title>
<path fill="#f7f7f7" stroke="#444444" d="M838,-1599.01C838,-1599.01 761,-1599.01 761,-1599.01 755,-1599.01 749,-1593.01 749,-1587.01 749,-1587.01 749,-1575.01 749,-1575.01 749,-1569.01 755,-1563.01 761,-1563.01 761,-1563.01 838,-1563.01 838,-1563.01 844,-1563.01 850,-1569.01 850,-1575.01 850,-1575.01 850,-1587.01 850,-1587.01 850,-1593.01 844,-1599.01 838,-1599.01"/>
<text text-anchor="middle" x="799.5" y="-1578.21" font-family="DejaVu Sans" font-size="11.00">termin&#45;skeleton</text>
</g>
<!-- termin&#45;scene&#45;&gt;termin&#45;skeleton -->
<g id="edge107" class="edge">
<title>termin&#45;scene&#45;&gt;termin&#45;skeleton</title>
<path fill="none" stroke="#666666" stroke-width="1.1" d="M594.97,-1463.14C618.01,-1485.49 659.99,-1523.43 702,-1547.01 714.51,-1554.04 728.74,-1560.02 742.35,-1564.91"/>
<polygon fill="#666666" stroke="#666666" stroke-width="1.1" points="741.55,-1567.22 748.97,-1567.22 743.17,-1562.6 741.55,-1567.22"/>
</g>
<!-- termin&#45;components&#45;kinematic -->
<g id="node21" class="node">
<title>termin&#45;components&#45;kinematic</title>
<path fill="#f7f7f7" stroke="#444444" d="M877,-1254.01C877,-1254.01 722,-1254.01 722,-1254.01 716,-1254.01 710,-1248.01 710,-1242.01 710,-1242.01 710,-1230.01 710,-1230.01 710,-1224.01 716,-1218.01 722,-1218.01 722,-1218.01 877,-1218.01 877,-1218.01 883,-1218.01 889,-1224.01 889,-1230.01 889,-1230.01 889,-1242.01 889,-1242.01 889,-1248.01 883,-1254.01 877,-1254.01"/>
<text text-anchor="middle" x="799.5" y="-1233.21" font-family="DejaVu Sans" font-size="11.00">termin&#45;components&#45;kinematic</text>
</g>
<!-- termin&#45;scene&#45;&gt;termin&#45;components&#45;kinematic -->
<g id="edge97" class="edge">
<title>termin&#45;scene&#45;&gt;termin&#45;components&#45;kinematic</title>
<path fill="none" stroke="#666666" stroke-width="1.1" d="M614.98,-1427.01C625.7,-1420.58 636.69,-1412.52 645,-1403.01 685.98,-1356.12 657.2,-1318.28 702,-1275.01 709.34,-1267.93 718.14,-1262.07 727.39,-1257.24"/>
<polygon fill="#666666" stroke="#666666" stroke-width="1.1" points="728.66,-1259.35 733.86,-1254.06 726.5,-1254.95 728.66,-1259.35"/>
</g>
<!-- termin&#45;scene&#45;&gt;termin&#45;components&#45;mesh -->
<g id="edge98" class="edge">
<title>termin&#45;scene&#45;&gt;termin&#45;components&#45;mesh</title>
<path fill="none" stroke="#666666" stroke-width="1.1" d="M618.67,-1426.93C628.7,-1420.72 638.41,-1412.8 645,-1403.01 729.83,-1277 604.16,-1182.22 702,-1066.01 705.86,-1061.42 710.39,-1057.45 715.33,-1054.02"/>
<polygon fill="#666666" stroke="#666666" stroke-width="1.1" points="716.71,-1056.04 721.32,-1050.23 714.09,-1051.91 716.71,-1056.04"/>
</g>
<!-- termin&#45;components&#45;tween -->
<g id="node25" class="node">
<title>termin&#45;components&#45;tween</title>
<path fill="#f7f7f7" stroke="#444444" d="M867,-1118.01C867,-1118.01 732,-1118.01 732,-1118.01 726,-1118.01 720,-1112.01 720,-1106.01 720,-1106.01 720,-1094.01 720,-1094.01 720,-1088.01 726,-1082.01 732,-1082.01 732,-1082.01 867,-1082.01 867,-1082.01 873,-1082.01 879,-1088.01 879,-1094.01 879,-1094.01 879,-1106.01 879,-1106.01 879,-1112.01 873,-1118.01 867,-1118.01"/>
<text text-anchor="middle" x="799.5" y="-1097.21" font-family="DejaVu Sans" font-size="11.00">termin&#45;components&#45;tween</text>
</g>
<!-- termin&#45;scene&#45;&gt;termin&#45;components&#45;tween -->
<g id="edge99" class="edge">
<title>termin&#45;scene&#45;&gt;termin&#45;components&#45;tween</title>
<path fill="none" stroke="#666666" stroke-width="1.1" d="M618.05,-1426.96C628.21,-1420.72 638.13,-1412.77 645,-1403.01 715.33,-1303.07 621.38,-1225.86 702,-1134.01 706.04,-1129.41 710.75,-1125.43 715.87,-1121.99"/>
<polygon fill="#666666" stroke="#666666" stroke-width="1.1" points="717.36,-1123.94 722.05,-1118.19 714.8,-1119.77 717.36,-1123.94"/>
</g>
<!-- termin&#45;components&#45;voxels -->
<g id="node27" class="node">
<title>termin&#45;components&#45;voxels</title>
<path fill="#f7f7f7" stroke="#444444" d="M868,-914.01C868,-914.01 731,-914.01 731,-914.01 725,-914.01 719,-908.01 719,-902.01 719,-902.01 719,-890.01 719,-890.01 719,-884.01 725,-878.01 731,-878.01 731,-878.01 868,-878.01 868,-878.01 874,-878.01 880,-884.01 880,-890.01 880,-890.01 880,-902.01 880,-902.01 880,-908.01 874,-914.01 868,-914.01"/>
<text text-anchor="middle" x="799.5" y="-893.21" font-family="DejaVu Sans" font-size="11.00">termin&#45;components&#45;voxels</text>
</g>
<!-- termin&#45;scene&#45;&gt;termin&#45;components&#45;voxels -->
<g id="edge100" class="edge">
<title>termin&#45;scene&#45;&gt;termin&#45;components&#45;voxels</title>
<path fill="none" stroke="#666666" stroke-width="1.1" d="M619.34,-1426.91C629.24,-1420.73 638.72,-1412.84 645,-1403.01 759.03,-1224.6 569.52,-1095.19 702,-930.01 705.59,-925.53 709.82,-921.64 714.46,-918.26"/>
<polygon fill="#666666" stroke="#666666" stroke-width="1.1" points="716.05,-920.15 720.55,-914.25 713.36,-916.06 716.05,-920.15"/>
</g>
<!-- termin&#45;scene&#45;&gt;termin&#45;physics&#45;fem -->
<g id="edge104" class="edge">
<title>termin&#45;scene&#45;&gt;termin&#45;physics&#45;fem</title>
<path fill="none" stroke="#666666" stroke-width="1.1" d="M617.26,-1426.86C627.54,-1420.58 637.72,-1412.65 645,-1403.01 700.97,-1328.92 638.42,-1269.69 702,-1202.01 710.39,-1193.09 721.26,-1186.5 732.67,-1181.64"/>
<polygon fill="#666666" stroke="#666666" stroke-width="1.1" points="733.82,-1183.82 739.43,-1178.98 732.02,-1179.27 733.82,-1183.82"/>
</g>
<!-- termin&#45;render -->
<g id="node35" class="node">
<title>termin&#45;render</title>
<path fill="#f7f7f7" stroke="#444444" d="M609,-560.01C609,-560.01 543,-560.01 543,-560.01 537,-560.01 531,-554.01 531,-548.01 531,-548.01 531,-536.01 531,-536.01 531,-530.01 537,-524.01 543,-524.01 543,-524.01 609,-524.01 609,-524.01 615,-524.01 621,-530.01 621,-536.01 621,-536.01 621,-548.01 621,-548.01 621,-554.01 615,-560.01 609,-560.01"/>
<text text-anchor="middle" x="576" y="-539.21" font-family="DejaVu Sans" font-size="11.00">termin&#45;render</text>
</g>
<!-- termin&#45;scene&#45;&gt;termin&#45;render -->
<g id="edge106" class="edge">
<title>termin&#45;scene&#45;&gt;termin&#45;render</title>
<path fill="none" stroke="#666666" stroke-width="1.1" d="M576,-1426.87C576,-1140.34 576,-853.81 576,-567.29"/>
<polygon fill="#666666" stroke="#666666" stroke-width="1.1" points="578.45,-567.09 576,-560.09 573.55,-567.09 578.45,-567.09"/>
</g>
<!-- termin&#45;glb -->
<g id="node45" class="node">
<title>termin&#45;glb</title>
<path fill="#f7f7f7" stroke="#444444" d="M823,-1395.01C823,-1395.01 776,-1395.01 776,-1395.01 770,-1395.01 764,-1389.01 764,-1383.01 764,-1383.01 764,-1371.01 764,-1371.01 764,-1365.01 770,-1359.01 776,-1359.01 776,-1359.01 823,-1359.01 823,-1359.01 829,-1359.01 835,-1365.01 835,-1371.01 835,-1371.01 835,-1383.01 835,-1383.01 835,-1389.01 829,-1395.01 823,-1395.01"/>
<text text-anchor="middle" x="799.5" y="-1374.21" font-family="DejaVu Sans" font-size="11.00">termin&#45;glb</text>
</g>
<!-- termin&#45;scene&#45;&gt;termin&#45;glb -->
<g id="edge101" class="edge">
<title>termin&#45;scene&#45;&gt;termin&#45;glb</title>
<path fill="none" stroke="#666666" stroke-width="1.1" d="M619.64,-1427.78C643.59,-1418.48 674.18,-1407.27 702,-1399.01 719.73,-1393.76 739.61,-1389.03 756.69,-1385.32"/>
<polygon fill="#666666" stroke="#666666" stroke-width="1.1" points="757.5,-1387.65 763.83,-1383.79 756.47,-1382.86 757.5,-1387.65"/>
</g>
<!-- termin&#45;mcp -->
<g id="node47" class="node">
<title>termin&#45;mcp</title>
<path fill="#f7f7f7" stroke="#444444" d="M826.5,-1958.01C826.5,-1958.01 772.5,-1958.01 772.5,-1958.01 766.5,-1958.01 760.5,-1952.01 760.5,-1946.01 760.5,-1946.01 760.5,-1934.01 760.5,-1934.01 760.5,-1928.01 766.5,-1922.01 772.5,-1922.01 772.5,-1922.01 826.5,-1922.01 826.5,-1922.01 832.5,-1922.01 838.5,-1928.01 838.5,-1934.01 838.5,-1934.01 838.5,-1946.01 838.5,-1946.01 838.5,-1952.01 832.5,-1958.01 826.5,-1958.01"/>
<text text-anchor="middle" x="799.5" y="-1937.21" font-family="DejaVu Sans" font-size="11.00">termin&#45;mcp</text>
</g>
<!-- termin&#45;scene&#45;&gt;termin&#45;mcp -->
<g id="edge103" class="edge">
<title>termin&#45;scene&#45;&gt;termin&#45;mcp</title>
<path fill="none" stroke="#666666" stroke-width="1.1" d="M578.89,-1463.4C585.86,-1524.21 614.47,-1722.68 702,-1857.01 717.92,-1881.45 743.07,-1902.75 763.71,-1917.65"/>
<polygon fill="#666666" stroke="#666666" stroke-width="1.1" points="762.54,-1919.83 769.67,-1921.87 765.37,-1915.83 762.54,-1919.83"/>
</g>
<!-- termin&#45;prefab -->
<g id="node51" class="node">
<title>termin&#45;prefab</title>
<path fill="#f7f7f7" stroke="#444444" d="M832.5,-1841.01C832.5,-1841.01 766.5,-1841.01 766.5,-1841.01 760.5,-1841.01 754.5,-1835.01 754.5,-1829.01 754.5,-1829.01 754.5,-1817.01 754.5,-1817.01 754.5,-1811.01 760.5,-1805.01 766.5,-1805.01 766.5,-1805.01 832.5,-1805.01 832.5,-1805.01 838.5,-1805.01 844.5,-1811.01 844.5,-1817.01 844.5,-1817.01 844.5,-1829.01 844.5,-1829.01 844.5,-1835.01 838.5,-1841.01 832.5,-1841.01"/>
<text text-anchor="middle" x="799.5" y="-1820.21" font-family="DejaVu Sans" font-size="11.00">termin&#45;prefab</text>
</g>
<!-- termin&#45;scene&#45;&gt;termin&#45;prefab -->
<g id="edge105" class="edge">
<title>termin&#45;scene&#45;&gt;termin&#45;prefab</title>
<path fill="none" stroke="#666666" stroke-width="1.1" d="M580.5,-1463.36C591.02,-1514.51 626.37,-1661.14 702,-1756.01 716.62,-1774.36 737.58,-1789.74 756.23,-1801.12"/>
<polygon fill="#666666" stroke="#666666" stroke-width="1.1" points="755.19,-1803.35 762.46,-1804.82 757.69,-1799.14 755.19,-1803.35"/>
</g>
<!-- termin&#45;skeleton&#45;&gt;termin&#45;animation -->
<g id="edge110" class="edge">
<title>termin&#45;skeleton&#45;&gt;termin&#45;animation</title>
<path fill="none" stroke="#666666" stroke-width="1.1" d="M850.16,-1573.85C888.41,-1568.33 941.46,-1560.67 982.25,-1554.78"/>
<polygon fill="#666666" stroke="#666666" stroke-width="1.1" points="982.62,-1557.21 989.2,-1553.78 981.92,-1552.36 982.62,-1557.21"/>
</g>
<!-- termin&#45;components&#45;skeleton -->
<g id="node24" class="node">
<title>termin&#45;components&#45;skeleton</title>
<path fill="#f7f7f7" stroke="#444444" d="M873.5,-982.01C873.5,-982.01 725.5,-982.01 725.5,-982.01 719.5,-982.01 713.5,-976.01 713.5,-970.01 713.5,-970.01 713.5,-958.01 713.5,-958.01 713.5,-952.01 719.5,-946.01 725.5,-946.01 725.5,-946.01 873.5,-946.01 873.5,-946.01 879.5,-946.01 885.5,-952.01 885.5,-958.01 885.5,-958.01 885.5,-970.01 885.5,-970.01 885.5,-976.01 879.5,-982.01 873.5,-982.01"/>
<text text-anchor="middle" x="799.5" y="-961.21" font-family="DejaVu Sans" font-size="11.00">termin&#45;components&#45;skeleton</text>
</g>
<!-- termin&#45;skeleton&#45;&gt;termin&#45;components&#45;skeleton -->
<g id="edge111" class="edge">
<title>termin&#45;skeleton&#45;&gt;termin&#45;components&#45;skeleton</title>
<path fill="none" stroke="#666666" stroke-width="1.1" d="M748.89,-1575.72C720.96,-1569.8 688.9,-1557.32 673.5,-1531.01 644.48,-1481.44 644.48,-1063.59 673.5,-1014.01 681.28,-1000.72 693.33,-990.95 706.94,-983.78"/>
<polygon fill="#666666" stroke="#666666" stroke-width="1.1" points="708.09,-985.94 713.3,-980.66 705.94,-981.54 708.09,-985.94"/>
</g>
<!-- termin&#45;tween -->
<g id="node15" class="node">
<title>termin&#45;tween</title>
<path fill="#f7f7f7" stroke="#444444" d="M229.5,-1583.01C229.5,-1583.01 165.5,-1583.01 165.5,-1583.01 159.5,-1583.01 153.5,-1577.01 153.5,-1571.01 153.5,-1571.01 153.5,-1559.01 153.5,-1559.01 153.5,-1553.01 159.5,-1547.01 165.5,-1547.01 165.5,-1547.01 229.5,-1547.01 229.5,-1547.01 235.5,-1547.01 241.5,-1553.01 241.5,-1559.01 241.5,-1559.01 241.5,-1571.01 241.5,-1571.01 241.5,-1577.01 235.5,-1583.01 229.5,-1583.01"/>
<text text-anchor="middle" x="197.5" y="-1562.21" font-family="DejaVu Sans" font-size="11.00">termin&#45;tween</text>
</g>
<!-- termin&#45;tween&#45;&gt;termin&#45;components&#45;tween -->
<g id="edge112" class="edge">
<title>termin&#45;tween&#45;&gt;termin&#45;components&#45;tween</title>
<path fill="none" stroke="#666666" stroke-width="1.1" d="M232.17,-1546.96C238.68,-1542.39 245.01,-1537.04 250,-1531.01 291.82,-1480.56 265.19,-1445.48 307,-1395.01 441.24,-1232.98 513.58,-1227.68 702,-1134.01 711.88,-1129.1 722.64,-1124.57 733.29,-1120.53"/>
<polygon fill="#666666" stroke="#666666" stroke-width="1.1" points="734.18,-1122.81 739.89,-1118.08 732.47,-1118.22 734.18,-1122.81"/>
</g>
<!-- termin&#45;voxels -->
<g id="node16" class="node">
<title>termin&#45;voxels</title>
<path fill="#f7f7f7" stroke="#444444" d="M230.5,-1515.01C230.5,-1515.01 164.5,-1515.01 164.5,-1515.01 158.5,-1515.01 152.5,-1509.01 152.5,-1503.01 152.5,-1503.01 152.5,-1491.01 152.5,-1491.01 152.5,-1485.01 158.5,-1479.01 164.5,-1479.01 164.5,-1479.01 230.5,-1479.01 230.5,-1479.01 236.5,-1479.01 242.5,-1485.01 242.5,-1491.01 242.5,-1491.01 242.5,-1503.01 242.5,-1503.01 242.5,-1509.01 236.5,-1515.01 230.5,-1515.01"/>
<text text-anchor="middle" x="197.5" y="-1494.21" font-family="DejaVu Sans" font-size="11.00">termin&#45;voxels</text>
</g>
<!-- termin&#45;voxels&#45;&gt;termin&#45;components&#45;voxels -->
<g id="edge113" class="edge">
<title>termin&#45;voxels&#45;&gt;termin&#45;components&#45;voxels</title>
<path fill="none" stroke="#666666" stroke-width="1.1" d="M234.87,-1478.99C240.78,-1474.54 246.19,-1469.23 250,-1463.01 309.12,-1366.53 227.44,-1037.48 307,-957.01 412.15,-850.67 601.3,-860.67 711.77,-878.01"/>
<polygon fill="#666666" stroke="#666666" stroke-width="1.1" points="711.63,-880.47 718.93,-879.17 712.41,-875.64 711.63,-880.47"/>
</g>
<!-- termin -->
<g id="node17" class="node">
<title>termin</title>
<path fill="#f7f7f7" stroke="#444444" d="M59,-1719.01C59,-1719.01 29,-1719.01 29,-1719.01 23,-1719.01 17,-1713.01 17,-1707.01 17,-1707.01 17,-1695.01 17,-1695.01 17,-1689.01 23,-1683.01 29,-1683.01 29,-1683.01 59,-1683.01 59,-1683.01 65,-1683.01 71,-1689.01 71,-1695.01 71,-1695.01 71,-1707.01 71,-1707.01 71,-1713.01 65,-1719.01 59,-1719.01"/>
<text text-anchor="middle" x="44" y="-1698.21" font-family="DejaVu Sans" font-size="11.00">termin</text>
</g>
<!-- termin&#45;&gt;termin&#45;app -->
<g id="edge2" class="edge">
<title>termin&#45;&gt;termin&#45;app</title>
<path fill="none" stroke="#666666" stroke-width="1.1" d="M45.36,-1719.17C48.53,-1825.91 79.29,-2367.01 377.5,-2367.01 377.5,-2367.01 377.5,-2367.01 1283.5,-2367.01 1517.99,-2367.01 1641.08,-1460.63 1661.46,-1296.38"/>
<polygon fill="#666666" stroke="#666666" stroke-width="1.1" points="1663.93,-1296.37 1662.35,-1289.12 1659.06,-1295.77 1663.93,-1296.37"/>
</g>
<!-- termin&#45;&gt;termin&#45;navmesh -->
<g id="edge4" class="edge">
<title>termin&#45;&gt;termin&#45;navmesh</title>
<path fill="none" stroke="#666666" stroke-width="1.1" d="M71.04,-1701.01C89.37,-1701.01 114.64,-1701.01 137.7,-1701.01"/>
<polygon fill="#666666" stroke="#666666" stroke-width="1.1" points="137.78,-1703.46 144.78,-1701.01 137.78,-1698.56 137.78,-1703.46"/>
</g>
<!-- termin&#45;&gt;termin&#45;tween -->
<g id="edge7" class="edge">
<title>termin&#45;&gt;termin&#45;tween</title>
<path fill="none" stroke="#666666" stroke-width="1.1" d="M58.48,-1682.82C75.22,-1661.08 105.43,-1624.44 137,-1599.01 142.42,-1594.65 148.47,-1590.5 154.58,-1586.7"/>
<polygon fill="#666666" stroke="#666666" stroke-width="1.1" points="155.95,-1588.74 160.69,-1583.03 153.43,-1584.54 155.95,-1588.74"/>
</g>
<!-- termin&#45;&gt;termin&#45;voxels -->
<g id="edge8" class="edge">
<title>termin&#45;&gt;termin&#45;voxels</title>
<path fill="none" stroke="#666666" stroke-width="1.1" d="M51.02,-1682.83C62.89,-1649.3 92.09,-1576.98 137,-1531.01 141.24,-1526.67 146.16,-1522.71 151.31,-1519.15"/>
<polygon fill="#666666" stroke="#666666" stroke-width="1.1" points="152.91,-1521.03 157.44,-1515.15 150.24,-1516.92 152.91,-1521.03"/>
</g>
<!-- termin&#45;&gt;termin&#45;mcp -->
<g id="edge3" class="edge">
<title>termin&#45;&gt;termin&#45;mcp</title>
<path fill="none" stroke="#666666" stroke-width="1.1" d="M62.58,-1719.04C119.84,-1776.08 308.75,-1951.33 507,-1993.01 567.02,-2005.64 584.51,-2003.16 645,-1993.01 682.74,-1986.68 723.61,-1972.17 753.69,-1959.92"/>
<polygon fill="#666666" stroke="#666666" stroke-width="1.1" points="754.78,-1962.12 760.32,-1957.19 752.91,-1957.59 754.78,-1962.12"/>
</g>
<!-- termin&#45;&gt;termin&#45;player -->
<g id="edge5" class="edge">
<title>termin&#45;&gt;termin&#45;player</title>
<path fill="none" stroke="#666666" stroke-width="1.1" d="M47.17,-1719.09C59.44,-1812.37 128.77,-2235.01 377.5,-2235.01 377.5,-2235.01 377.5,-2235.01 1045,-2235.01 1237.26,-2235.01 1348.75,-1935.11 1374,-1868.01 1478.65,-1589.98 1308.75,-1472.78 1431,-1202.01 1438.88,-1184.56 1453.18,-1168.83 1466.36,-1156.91"/>
<polygon fill="#666666" stroke="#666666" stroke-width="1.1" points="1468.27,-1158.49 1471.92,-1152.04 1465.04,-1154.81 1468.27,-1158.49"/>
</g>
<!-- termin&#45;shader&#45;runtime -->
<g id="node56" class="node">
<title>termin&#45;shader&#45;runtime</title>
<path fill="#f7f7f7" stroke="#444444" d="M633,-269.01C633,-269.01 519,-269.01 519,-269.01 513,-269.01 507,-263.01 507,-257.01 507,-257.01 507,-245.01 507,-245.01 507,-239.01 513,-233.01 519,-233.01 519,-233.01 633,-233.01 633,-233.01 639,-233.01 645,-239.01 645,-245.01 645,-245.01 645,-257.01 645,-257.01 645,-263.01 639,-269.01 633,-269.01"/>
<text text-anchor="middle" x="576" y="-248.21" font-family="DejaVu Sans" font-size="11.00">termin&#45;shader&#45;runtime</text>
</g>
<!-- termin&#45;&gt;termin&#45;shader&#45;runtime -->
<g id="edge6" class="edge">
<title>termin&#45;&gt;termin&#45;shader&#45;runtime</title>
<path fill="none" stroke="#666666" stroke-width="1.1" d="M45.06,-1682.94C46.02,-1524.79 61.44,-377.12 307,-170.01 355.58,-129.04 391.49,-145.19 450,-170.01 483.56,-184.26 476.07,-209.72 507,-229.01 507.14,-229.1 507.28,-229.19 507.42,-229.27"/>
<polygon fill="#666666" stroke="#666666" stroke-width="1.1" points="506.59,-231.62 513.89,-232.92 508.99,-227.35 506.59,-231.62"/>
</g>
<!-- termin&#45;components&#45;animation&#45;&gt;termin&#45;bootstrap -->
<g id="edge31" class="edge">
<title>termin&#45;components&#45;animation&#45;&gt;termin&#45;bootstrap</title>
<path fill="none" stroke="#666666" stroke-width="1.1" d="M1050.48,-1149.62C1069.9,-1084.61 1137.58,-859.8 1199,-676.01 1224.35,-600.16 1256.71,-511.27 1272.29,-468.91"/>
<polygon fill="#666666" stroke="#666666" stroke-width="1.1" points="1274.62,-469.69 1274.74,-462.28 1270.02,-468 1274.62,-469.69"/>
</g>
<!-- termin&#45;components&#45;collision&#45;&gt;termin&#45;components&#45;physics -->
<g id="edge33" class="edge">
<title>termin&#45;components&#45;collision&#45;&gt;termin&#45;components&#45;physics</title>
<path fill="none" stroke="#666666" stroke-width="1.1" d="M1129.05,-1236.01C1149.36,-1236.01 1171.14,-1236.01 1191.7,-1236.01"/>
<polygon fill="#666666" stroke="#666666" stroke-width="1.1" points="1191.92,-1238.46 1198.92,-1236.01 1191.92,-1233.56 1191.92,-1238.46"/>
</g>
<!-- termin&#45;components&#45;collision&#45;&gt;termin&#45;bootstrap -->
<g id="edge32" class="edge">
<title>termin&#45;components&#45;collision&#45;&gt;termin&#45;bootstrap</title>
<path fill="none" stroke="#666666" stroke-width="1.1" d="M1115.66,-1217.79C1122.66,-1213.58 1129,-1208.4 1134,-1202.01 1206.62,-1109.29 1171.89,-790.63 1199,-676.01 1217.37,-598.38 1252.79,-510.65 1270.65,-468.8"/>
<polygon fill="#666666" stroke="#666666" stroke-width="1.1" points="1272.95,-469.64 1273.46,-462.24 1268.45,-467.71 1272.95,-469.64"/>
</g>
<!-- termin&#45;render&#45;passes -->
<g id="node54" class="node">
<title>termin&#45;render&#45;passes</title>
<path fill="#f7f7f7" stroke="#444444" d="M1336.5,-728.01C1336.5,-728.01 1228.5,-728.01 1228.5,-728.01 1222.5,-728.01 1216.5,-722.01 1216.5,-716.01 1216.5,-716.01 1216.5,-704.01 1216.5,-704.01 1216.5,-698.01 1222.5,-692.01 1228.5,-692.01 1228.5,-692.01 1336.5,-692.01 1336.5,-692.01 1342.5,-692.01 1348.5,-698.01 1348.5,-704.01 1348.5,-704.01 1348.5,-716.01 1348.5,-716.01 1348.5,-722.01 1342.5,-728.01 1336.5,-728.01"/>
<text text-anchor="middle" x="1282.5" y="-707.21" font-family="DejaVu Sans" font-size="11.00">termin&#45;render&#45;passes</text>
</g>
<!-- termin&#45;components&#45;collision&#45;&gt;termin&#45;render&#45;passes -->
<g id="edge34" class="edge">
<title>termin&#45;components&#45;collision&#45;&gt;termin&#45;render&#45;passes</title>
<path fill="none" stroke="#666666" stroke-width="1.1" d="M1115.01,-1217.87C1122.22,-1213.65 1128.79,-1208.44 1134,-1202.01 1249.74,-1059.46 1116.3,-957.96 1199,-794.01 1211.26,-769.7 1233.11,-747.95 1251.23,-732.67"/>
<polygon fill="#666666" stroke="#666666" stroke-width="1.1" points="1252.88,-734.48 1256.73,-728.14 1249.77,-730.7 1252.88,-734.48"/>
</g>
<!-- termin&#45;components&#45;kinematic&#45;&gt;termin&#45;csharp -->
<g id="edge36" class="edge">
<title>termin&#45;components&#45;kinematic&#45;&gt;termin&#45;csharp</title>
<path fill="none" stroke="#666666" stroke-width="1.1" d="M870.83,-1217.78C877.77,-1213.57 884.06,-1208.39 889,-1202.01 1044.33,-1001.49 785.25,-824.39 954,-635.01 1008.65,-573.68 1075.21,-650.4 1134,-593.01 1216.46,-512.52 1107.87,-412.55 1199,-342.01 1260.51,-294.41 1304.75,-306.6 1374,-342.01 1433.45,-372.42 1470.58,-446.79 1486.68,-485.95"/>
<polygon fill="#666666" stroke="#666666" stroke-width="1.1" points="1484.56,-487.25 1489.44,-492.84 1489.11,-485.43 1484.56,-487.25"/>
</g>
<!-- termin&#45;components&#45;kinematic&#45;&gt;termin&#45;bootstrap -->
<g id="edge35" class="edge">
<title>termin&#45;components&#45;kinematic&#45;&gt;termin&#45;bootstrap</title>
<path fill="none" stroke="#666666" stroke-width="1.1" d="M870.29,-1217.95C877.42,-1213.71 883.9,-1208.48 889,-1202.01 1024.82,-1029.9 820.19,-886.69 954,-713.01 1006.79,-644.5 1069.47,-696.61 1134,-639.01 1178.67,-599.15 1162.21,-568.25 1199,-521.01 1214.68,-500.88 1235.77,-481.3 1252.7,-466.92"/>
<polygon fill="#666666" stroke="#666666" stroke-width="1.1" points="1254.48,-468.62 1258.26,-462.25 1251.33,-464.87 1254.48,-468.62"/>
</g>
<!-- termin&#45;components&#45;kinematic&#45;&gt;termin&#45;player -->
<g id="edge37" class="edge">
<title>termin&#45;components&#45;kinematic&#45;&gt;termin&#45;player</title>
<path fill="none" stroke="#666666" stroke-width="1.1" d="M858.51,-1217.97C869.07,-1213.52 879.68,-1208.22 889,-1202.01 923.8,-1178.85 915.56,-1150.45 954,-1134.01 1121.72,-1062.32 1346.21,-1099.2 1445.33,-1121.34"/>
<polygon fill="#666666" stroke="#666666" stroke-width="1.1" points="1444.88,-1123.75 1452.25,-1122.9 1445.96,-1118.97 1444.88,-1123.75"/>
</g>
<!-- termin&#45;components&#45;mesh&#45;&gt;termin&#45;navmesh -->
<g id="edge40" class="edge">
<title>termin&#45;components&#45;mesh&#45;&gt;termin&#45;navmesh</title>
<path fill="none" stroke="#666666" stroke-width="1.1" d="M736.82,-1050.05C724.93,-1054.55 712.81,-1059.87 702,-1066.01 503.34,-1178.87 424.75,-1199.22 307,-1395.01 243.34,-1500.86 319.43,-1564.86 250,-1667.01 247.14,-1671.22 243.58,-1675.03 239.66,-1678.45"/>
<polygon fill="#666666" stroke="#666666" stroke-width="1.1" points="238.07,-1676.59 234.14,-1682.88 241.14,-1680.41 238.07,-1676.59"/>
</g>
<!-- termin&#45;components&#45;mesh&#45;&gt;termin&#45;components&#45;collision -->
<g id="edge38" class="edge">
<title>termin&#45;components&#45;mesh&#45;&gt;termin&#45;components&#45;collision</title>
<path fill="none" stroke="#666666" stroke-width="1.1" d="M865.3,-1050.17C873.9,-1054.43 882.11,-1059.65 889,-1066.01 938.21,-1111.48 904.75,-1156.6 954,-1202.01 959.2,-1206.81 965.14,-1210.95 971.44,-1214.52"/>
<polygon fill="#666666" stroke="#666666" stroke-width="1.1" points="970.5,-1216.8 977.84,-1217.91 972.8,-1212.47 970.5,-1216.8"/>
</g>
<!-- termin&#45;components&#45;render -->
<g id="node31" class="node">
<title>termin&#45;components&#45;render</title>
<path fill="#f7f7f7" stroke="#444444" d="M1113,-560.01C1113,-560.01 975,-560.01 975,-560.01 969,-560.01 963,-554.01 963,-548.01 963,-548.01 963,-536.01 963,-536.01 963,-530.01 969,-524.01 975,-524.01 975,-524.01 1113,-524.01 1113,-524.01 1119,-524.01 1125,-530.01 1125,-536.01 1125,-536.01 1125,-548.01 1125,-548.01 1125,-554.01 1119,-560.01 1113,-560.01"/>
<text text-anchor="middle" x="1044" y="-539.21" font-family="DejaVu Sans" font-size="11.00">termin&#45;components&#45;render</text>
</g>
<!-- termin&#45;components&#45;mesh&#45;&gt;termin&#45;components&#45;render -->
<g id="edge39" class="edge">
<title>termin&#45;components&#45;mesh&#45;&gt;termin&#45;components&#45;render</title>
<path fill="none" stroke="#666666" stroke-width="1.1" d="M870.13,-1013.82C877.29,-1009.6 883.82,-1004.41 889,-998.01 1004.85,-854.99 846.87,-738.68 954,-589.01 961.55,-578.47 972.21,-570.08 983.54,-563.49"/>
<polygon fill="#666666" stroke="#666666" stroke-width="1.1" points="984.92,-565.53 989.88,-560.02 982.57,-561.23 984.92,-565.53"/>
</g>
<!-- termin&#45;components&#45;physics&#45;&gt;termin&#45;default&#45;assets -->
<g id="edge41" class="edge">
<title>termin&#45;components&#45;physics&#45;&gt;termin&#45;default&#45;assets</title>
<path fill="none" stroke="#666666" stroke-width="1.1" d="M1366.27,-1236.01C1385.2,-1236.01 1405.17,-1236.01 1423.63,-1236.01"/>
<polygon fill="#666666" stroke="#666666" stroke-width="1.1" points="1423.89,-1238.46 1430.89,-1236.01 1423.89,-1233.56 1423.89,-1238.46"/>
</g>
<!-- termin&#45;components&#45;physics&#45;&gt;termin&#45;player -->
<g id="edge42" class="edge">
<title>termin&#45;components&#45;physics&#45;&gt;termin&#45;player</title>
<path fill="none" stroke="#666666" stroke-width="1.1" d="M1321,-1218.01C1357.49,-1200.5 1412.95,-1173.88 1451.62,-1155.32"/>
<polygon fill="#666666" stroke="#666666" stroke-width="1.1" points="1452.91,-1157.42 1458.16,-1152.18 1450.79,-1153 1452.91,-1157.42"/>
</g>
<!-- termin&#45;components&#45;skeleton&#45;&gt;termin&#45;components&#45;animation -->
<g id="edge46" class="edge">
<title>termin&#45;components&#45;skeleton&#45;&gt;termin&#45;components&#45;animation</title>
<path fill="none" stroke="#666666" stroke-width="1.1" d="M859.11,-982.05C869.51,-986.48 879.9,-991.78 889,-998.01 948.78,-1038.98 1001.39,-1107.6 1026.81,-1143.87"/>
<polygon fill="#666666" stroke="#666666" stroke-width="1.1" points="1024.94,-1145.47 1030.95,-1149.82 1028.97,-1142.68 1024.94,-1145.47"/>
</g>
<!-- termin&#45;components&#45;skeleton&#45;&gt;termin&#45;components&#45;render -->
<g id="edge47" class="edge">
<title>termin&#45;components&#45;skeleton&#45;&gt;termin&#45;components&#45;render</title>
<path fill="none" stroke="#666666" stroke-width="1.1" d="M869.51,-945.92C876.87,-941.68 883.62,-936.46 889,-930.01 987.94,-811.63 862.28,-713.07 954,-589.01 961.71,-578.58 972.44,-570.25 983.78,-563.67"/>
<polygon fill="#666666" stroke="#666666" stroke-width="1.1" points="985.17,-565.71 990.13,-560.2 982.81,-561.41 985.17,-565.71"/>
</g>
<!-- termin&#45;components&#45;tween&#45;&gt;termin&#45;player -->
<g id="edge48" class="edge">
<title>termin&#45;components&#45;tween&#45;&gt;termin&#45;player</title>
<path fill="none" stroke="#666666" stroke-width="1.1" d="M879.12,-1083.9C990.7,-1063.9 1200.72,-1036.92 1374,-1076.01 1405.08,-1083.03 1437.53,-1098.93 1461.15,-1112.32"/>
<polygon fill="#666666" stroke="#666666" stroke-width="1.1" points="1459.97,-1114.46 1467.26,-1115.83 1462.42,-1110.22 1459.97,-1114.46"/>
</g>
<!-- termin&#45;components&#45;ui&#45;&gt;termin&#45;render&#45;passes -->
<g id="edge49" class="edge">
<title>termin&#45;components&#45;ui&#45;&gt;termin&#45;render&#45;passes</title>
<path fill="none" stroke="#666666" stroke-width="1.1" d="M867.18,-831.99C935.83,-833.99 1045.04,-831.27 1134,-802.01 1179.77,-786.96 1225.82,-754.91 1253.99,-732.91"/>
<polygon fill="#666666" stroke="#666666" stroke-width="1.1" points="1255.76,-734.64 1259.73,-728.37 1252.72,-730.79 1255.76,-734.64"/>
</g>
<!-- termin&#45;components&#45;voxels&#45;&gt;termin&#45;navmesh -->
<g id="edge50" class="edge">
<title>termin&#45;components&#45;voxels&#45;&gt;termin&#45;navmesh</title>
<path fill="none" stroke="#666666" stroke-width="1.1" d="M739.58,-914.08C632.19,-950.46 406.55,-1043.61 307,-1210.01 201.92,-1385.67 357.98,-1493.13 250,-1667.01 247.42,-1671.17 244.12,-1674.93 240.44,-1678.3"/>
<polygon fill="#666666" stroke="#666666" stroke-width="1.1" points="238.64,-1676.6 234.81,-1682.95 241.77,-1680.38 238.64,-1676.6"/>
</g>
<!-- termin&#45;assets&#45;&gt;termin&#45;skeleton -->
<g id="edge18" class="edge">
<title>termin&#45;assets&#45;&gt;termin&#45;skeleton</title>
<path fill="none" stroke="#666666" stroke-width="1.1" d="M423.98,-1866.51C479.82,-1884.22 576.58,-1904.74 645,-1864.01 669.96,-1849.16 755.59,-1671.85 786.91,-1605.7"/>
<polygon fill="#666666" stroke="#666666" stroke-width="1.1" points="789.16,-1606.66 789.94,-1599.28 784.73,-1604.57 789.16,-1606.66"/>
</g>
<!-- termin&#45;assets&#45;&gt;termin&#45;components&#45;voxels -->
<g id="edge13" class="edge">
<title>termin&#45;assets&#45;&gt;termin&#45;components&#45;voxels</title>
<path fill="none" stroke="#666666" stroke-width="1.1" d="M423.85,-1836.74C433.86,-1831.75 443.45,-1825.03 450,-1816.01 560,-1664.72 458.02,-1579.54 507,-1399.01 536.56,-1290.08 620.01,-1007.59 702,-930.01 707.13,-925.16 712.99,-921 719.24,-917.42"/>
<polygon fill="#666666" stroke="#666666" stroke-width="1.1" points="720.57,-919.49 725.6,-914.04 718.26,-915.16 720.57,-919.49"/>
</g>
<!-- termin&#45;components&#45;foliage -->
<g id="node43" class="node">
<title>termin&#45;components&#45;foliage</title>
<path fill="#f7f7f7" stroke="#444444" d="M868.5,-1327.01C868.5,-1327.01 730.5,-1327.01 730.5,-1327.01 724.5,-1327.01 718.5,-1321.01 718.5,-1315.01 718.5,-1315.01 718.5,-1303.01 718.5,-1303.01 718.5,-1297.01 724.5,-1291.01 730.5,-1291.01 730.5,-1291.01 868.5,-1291.01 868.5,-1291.01 874.5,-1291.01 880.5,-1297.01 880.5,-1303.01 880.5,-1303.01 880.5,-1315.01 880.5,-1315.01 880.5,-1321.01 874.5,-1327.01 868.5,-1327.01"/>
<text text-anchor="middle" x="799.5" y="-1306.21" font-family="DejaVu Sans" font-size="11.00">termin&#45;components&#45;foliage</text>
</g>
<!-- termin&#45;assets&#45;&gt;termin&#45;components&#45;foliage -->
<g id="edge12" class="edge">
<title>termin&#45;assets&#45;&gt;termin&#45;components&#45;foliage</title>
<path fill="none" stroke="#666666" stroke-width="1.1" d="M417.51,-1831.91C442.61,-1820.3 476.39,-1805.35 507,-1794.01 567.12,-1771.75 603.36,-1800.76 645,-1752.01 764.2,-1612.46 585.85,-1485.12 702,-1343.01 705.8,-1338.37 710.27,-1334.36 715.18,-1330.89"/>
<polygon fill="#666666" stroke="#666666" stroke-width="1.1" points="716.56,-1332.92 721.13,-1327.07 713.91,-1328.79 716.56,-1332.92"/>
</g>
<!-- termin&#45;assets&#45;&gt;termin&#45;glb -->
<g id="edge14" class="edge">
<title>termin&#45;assets&#45;&gt;termin&#45;glb</title>
<path fill="none" stroke="#666666" stroke-width="1.1" d="M423.64,-1855.46C483.04,-1860.07 587.83,-1858.21 645,-1798.01 768.36,-1668.13 580.65,-1530.78 702,-1399.01 715.79,-1384.04 737.48,-1378.22 756.8,-1376.28"/>
<polygon fill="#666666" stroke="#666666" stroke-width="1.1" points="757.01,-1378.72 763.8,-1375.73 756.63,-1373.83 757.01,-1378.72"/>
</g>
<!-- termin&#45;assets&#45;&gt;termin&#45;mcp -->
<g id="edge15" class="edge">
<title>termin&#45;assets&#45;&gt;termin&#45;mcp</title>
<path fill="none" stroke="#666666" stroke-width="1.1" d="M393.11,-1868.22C414.11,-1894.62 457.25,-1942.39 507,-1961.01 589.65,-1991.95 694.55,-1971.16 753.31,-1954.64"/>
<polygon fill="#666666" stroke="#666666" stroke-width="1.1" points="754.19,-1956.94 760.25,-1952.66 752.84,-1952.23 754.19,-1956.94"/>
</g>
<!-- termin&#45;assets&#45;&gt;termin&#45;prefab -->
<g id="edge16" class="edge">
<title>termin&#45;assets&#45;&gt;termin&#45;prefab</title>
<path fill="none" stroke="#666666" stroke-width="1.1" d="M400.24,-1868.28C424.08,-1887.94 465.31,-1918.02 507,-1930.01 565.94,-1946.98 586.49,-1948.4 645,-1930.01 697.3,-1913.59 747.35,-1872.32 775.39,-1846.1"/>
<polygon fill="#666666" stroke="#666666" stroke-width="1.1" points="777.3,-1847.67 780.7,-1841.07 773.93,-1844.11 777.3,-1847.67"/>
</g>
<!-- termin&#45;assets&#45;&gt;termin&#45;shader&#45;runtime -->
<g id="edge17" class="edge">
<title>termin&#45;assets&#45;&gt;termin&#45;shader&#45;runtime</title>
<path fill="none" stroke="#666666" stroke-width="1.1" d="M423.73,-1837.52C434,-1832.5 443.74,-1825.56 450,-1816.01 537.11,-1683.25 467.67,-541.86 507,-388.01 517.78,-345.86 542.62,-301.54 559.1,-275.1"/>
<polygon fill="#666666" stroke="#666666" stroke-width="1.1" points="561.23,-276.32 562.9,-269.09 557.09,-273.7 561.23,-276.32"/>
</g>
<!-- termin&#45;nanobind&#45;sdk -->
<g id="node30" class="node">
<title>termin&#45;nanobind&#45;sdk</title>
<path fill="#f7f7f7" stroke="#444444" d="M430,-1800.01C430,-1800.01 327,-1800.01 327,-1800.01 321,-1800.01 315,-1794.01 315,-1788.01 315,-1788.01 315,-1776.01 315,-1776.01 315,-1770.01 321,-1764.01 327,-1764.01 327,-1764.01 430,-1764.01 430,-1764.01 436,-1764.01 442,-1770.01 442,-1776.01 442,-1776.01 442,-1788.01 442,-1788.01 442,-1794.01 436,-1800.01 430,-1800.01"/>
<text text-anchor="middle" x="378.5" y="-1779.21" font-family="DejaVu Sans" font-size="11.00">termin&#45;nanobind&#45;sdk</text>
</g>
<!-- termin&#45;nanobind&#45;sdk&#45;&gt;termin&#45;base -->
<g id="edge78" class="edge">
<title>termin&#45;nanobind&#45;sdk&#45;&gt;termin&#45;base</title>
<path fill="none" stroke="#666666" stroke-width="1.1" d="M318.9,-1763.93C314.68,-1761.59 310.66,-1758.96 307,-1756.01 270.39,-1726.58 282.98,-1700.46 250,-1667.01 245.84,-1662.79 241.07,-1658.81 236.15,-1655.15"/>
<polygon fill="#666666" stroke="#666666" stroke-width="1.1" points="237.45,-1653.08 230.33,-1651.02 234.62,-1657.07 237.45,-1653.08"/>
</g>
<!-- termin&#45;components&#45;render&#45;&gt;termin&#45;bootstrap -->
<g id="edge43" class="edge">
<title>termin&#45;components&#45;render&#45;&gt;termin&#45;bootstrap</title>
<path fill="none" stroke="#666666" stroke-width="1.1" d="M1088.65,-523.93C1128.94,-507.23 1188.75,-482.45 1231.07,-464.91"/>
<polygon fill="#666666" stroke="#666666" stroke-width="1.1" points="1232.17,-467.11 1237.7,-462.16 1230.3,-462.58 1232.17,-467.11"/>
</g>
<!-- termin&#45;components&#45;render&#45;&gt;termin&#45;render&#45;passes -->
<g id="edge44" class="edge">
<title>termin&#45;components&#45;render&#45;&gt;termin&#45;render&#45;passes</title>
<path fill="none" stroke="#666666" stroke-width="1.1" d="M1070.76,-560.31C1114.5,-591.39 1203.13,-654.35 1250.31,-687.86"/>
<polygon fill="#666666" stroke="#666666" stroke-width="1.1" points="1249,-689.94 1256.13,-691.99 1251.84,-685.94 1249,-689.94"/>
</g>
<!-- termin&#45;runtime -->
<g id="node55" class="node">
<title>termin&#45;runtime</title>
<path fill="#f7f7f7" stroke="#444444" d="M1319,-394.01C1319,-394.01 1246,-394.01 1246,-394.01 1240,-394.01 1234,-388.01 1234,-382.01 1234,-382.01 1234,-370.01 1234,-370.01 1234,-364.01 1240,-358.01 1246,-358.01 1246,-358.01 1319,-358.01 1319,-358.01 1325,-358.01 1331,-364.01 1331,-370.01 1331,-370.01 1331,-382.01 1331,-382.01 1331,-388.01 1325,-394.01 1319,-394.01"/>
<text text-anchor="middle" x="1282.5" y="-373.21" font-family="DejaVu Sans" font-size="11.00">termin&#45;runtime</text>
</g>
<!-- termin&#45;components&#45;render&#45;&gt;termin&#45;runtime -->
<g id="edge45" class="edge">
<title>termin&#45;components&#45;render&#45;&gt;termin&#45;runtime</title>
<path fill="none" stroke="#666666" stroke-width="1.1" d="M1062.47,-523.7C1089.57,-496.09 1144.36,-443.5 1199,-410.01 1207.8,-404.62 1217.61,-399.73 1227.3,-395.45"/>
<polygon fill="#666666" stroke="#666666" stroke-width="1.1" points="1228.52,-397.6 1233.98,-392.59 1226.58,-393.09 1228.52,-397.6"/>
</g>
<!-- termin&#45;display&#45;&gt;termin&#45;components&#45;render -->
<g id="edge52" class="edge">
<title>termin&#45;display&#45;&gt;termin&#45;components&#45;render</title>
<path fill="none" stroke="#666666" stroke-width="1.1" d="M846.11,-542.01C876.85,-542.01 918.4,-542.01 955.4,-542.01"/>
<polygon fill="#666666" stroke="#666666" stroke-width="1.1" points="955.73,-544.46 962.73,-542.01 955.73,-539.56 955.73,-544.46"/>
</g>
<!-- termin&#45;display&#45;&gt;termin&#45;engine -->
<g id="edge53" class="edge">
<title>termin&#45;display&#45;&gt;termin&#45;engine</title>
<path fill="none" stroke="#666666" stroke-width="1.1" d="M822.02,-560.21C866.33,-597.67 967.66,-683.32 1016.16,-724.33"/>
<polygon fill="#666666" stroke="#666666" stroke-width="1.1" points="1014.6,-726.22 1021.53,-728.86 1017.76,-722.47 1014.6,-726.22"/>
</g>
<!-- termin&#45;graphics&#45;&gt;termin&#45;voxels -->
<g id="edge65" class="edge">
<title>termin&#45;graphics&#45;&gt;termin&#45;voxels</title>
<path fill="none" stroke="#666666" stroke-width="1.1" d="M327.96,-489.47C319.75,-494.17 312.22,-500.23 307,-508.01 188.63,-684.61 356.27,-1278.88 250,-1463.01 247.65,-1467.09 244.58,-1470.78 241.12,-1474.08"/>
<polygon fill="#666666" stroke="#666666" stroke-width="1.1" points="239.14,-1472.54 235.4,-1478.95 242.31,-1476.28 239.14,-1472.54"/>
</g>
<!-- termin&#45;graphics&#45;&gt;termin&#45;render -->
<g id="edge63" class="edge">
<title>termin&#45;graphics&#45;&gt;termin&#45;render</title>
<path fill="none" stroke="#666666" stroke-width="1.1" d="M429.09,-491.26C458.1,-501.35 494.65,-514.07 523.91,-524.25"/>
<polygon fill="#666666" stroke="#666666" stroke-width="1.1" points="523.39,-526.66 530.8,-526.64 525,-522.03 523.39,-526.66"/>
</g>
<!-- termin&#45;gui -->
<g id="node38" class="node">
<title>termin&#45;gui</title>
<path fill="#f7f7f7" stroke="#444444" d="M599.5,-136.01C599.5,-136.01 552.5,-136.01 552.5,-136.01 546.5,-136.01 540.5,-130.01 540.5,-124.01 540.5,-124.01 540.5,-112.01 540.5,-112.01 540.5,-106.01 546.5,-100.01 552.5,-100.01 552.5,-100.01 599.5,-100.01 599.5,-100.01 605.5,-100.01 611.5,-106.01 611.5,-112.01 611.5,-112.01 611.5,-124.01 611.5,-124.01 611.5,-130.01 605.5,-136.01 599.5,-136.01"/>
<text text-anchor="middle" x="576" y="-115.21" font-family="DejaVu Sans" font-size="11.00">termin&#45;gui</text>
</g>
<!-- termin&#45;graphics&#45;&gt;termin&#45;gui -->
<g id="edge61" class="edge">
<title>termin&#45;graphics&#45;&gt;termin&#45;gui</title>
<path fill="none" stroke="#666666" stroke-width="1.1" d="M394.59,-455.81C410.07,-436.46 434.07,-404.52 450,-374.01 484.36,-308.21 473.05,-283.03 507,-217.01 521,-189.79 541.31,-161.23 556.08,-141.82"/>
<polygon fill="#666666" stroke="#666666" stroke-width="1.1" points="558.15,-143.15 560.48,-136.11 554.27,-140.16 558.15,-143.15"/>
</g>
<!-- termin&#45;graphics&#45;&gt;termin&#45;glb -->
<g id="edge60" class="edge">
<title>termin&#45;graphics&#45;&gt;termin&#45;glb</title>
<path fill="none" stroke="#666666" stroke-width="1.1" d="M429.09,-491.34C436.89,-495.8 444.26,-501.3 450,-508.01 701.88,-802.68 434.22,-1062.73 702,-1343.01 716.43,-1358.11 737.95,-1366.52 757.02,-1371.19"/>
<polygon fill="#666666" stroke="#666666" stroke-width="1.1" points="756.54,-1373.59 763.91,-1372.74 757.62,-1368.81 756.54,-1373.59"/>
</g>
<!-- termin&#45;materials -->
<g id="node46" class="node">
<title>termin&#45;materials</title>
<path fill="#f7f7f7" stroke="#444444" d="M617,-440.01C617,-440.01 535,-440.01 535,-440.01 529,-440.01 523,-434.01 523,-428.01 523,-428.01 523,-416.01 523,-416.01 523,-410.01 529,-404.01 535,-404.01 535,-404.01 617,-404.01 617,-404.01 623,-404.01 629,-410.01 629,-416.01 629,-416.01 629,-428.01 629,-428.01 629,-434.01 623,-440.01 617,-440.01"/>
<text text-anchor="middle" x="576" y="-419.21" font-family="DejaVu Sans" font-size="11.00">termin&#45;materials</text>
</g>
<!-- termin&#45;graphics&#45;&gt;termin&#45;materials -->
<g id="edge62" class="edge">
<title>termin&#45;graphics&#45;&gt;termin&#45;materials</title>
<path fill="none" stroke="#666666" stroke-width="1.1" d="M429.09,-460.83C455.47,-453.81 488.1,-445.13 515.8,-437.76"/>
<polygon fill="#666666" stroke="#666666" stroke-width="1.1" points="516.6,-440.08 522.73,-435.92 515.34,-435.35 516.6,-440.08"/>
</g>
<!-- termin&#45;graphics&#45;&gt;termin&#45;shader&#45;runtime -->
<g id="edge64" class="edge">
<title>termin&#45;graphics&#45;&gt;termin&#45;shader&#45;runtime</title>
<path fill="none" stroke="#666666" stroke-width="1.1" d="M395.5,-455.77C430.74,-415.56 515.05,-319.39 554.28,-274.65"/>
<polygon fill="#666666" stroke="#666666" stroke-width="1.1" points="556.28,-276.08 559.05,-269.2 552.6,-272.85 556.28,-276.08"/>
</g>
<!-- termin&#45;lighting&#45;&gt;termin&#45;render -->
<g id="edge74" class="edge">
<title>termin&#45;lighting&#45;&gt;termin&#45;render</title>
<path fill="none" stroke="#666666" stroke-width="1.1" d="M426.33,-542.01C455.71,-542.01 493.62,-542.01 523.8,-542.01"/>
<polygon fill="#666666" stroke="#666666" stroke-width="1.1" points="523.9,-544.46 530.9,-542.01 523.9,-539.56 523.9,-544.46"/>
</g>
<!-- termin&#45;render&#45;&gt;termin&#45;navmesh -->
<g id="edge90" class="edge">
<title>termin&#45;render&#45;&gt;termin&#45;navmesh</title>
<path fill="none" stroke="#666666" stroke-width="1.1" d="M558.45,-560.09C509.48,-614.84 365.09,-785.62 307,-957.01 256.19,-1106.93 330.52,-1530.74 250,-1667.01 247.6,-1671.07 244.51,-1674.74 241.03,-1678.03"/>
<polygon fill="#666666" stroke="#666666" stroke-width="1.1" points="239.05,-1676.49 235.29,-1682.89 242.22,-1680.23 239.05,-1676.49"/>
</g>
<!-- termin&#45;render&#45;&gt;termin&#45;display -->
<g id="edge89" class="edge">
<title>termin&#45;render&#45;&gt;termin&#45;display</title>
<path fill="none" stroke="#666666" stroke-width="1.1" d="M621.03,-542.01C656.75,-542.01 707.23,-542.01 745.23,-542.01"/>
<polygon fill="#666666" stroke="#666666" stroke-width="1.1" points="745.65,-544.46 752.65,-542.01 745.65,-539.56 745.65,-544.46"/>
</g>
<!-- termin&#45;render&#45;&gt;termin&#45;components&#45;foliage -->
<g id="edge88" class="edge">
<title>termin&#45;render&#45;&gt;termin&#45;components&#45;foliage</title>
<path fill="none" stroke="#666666" stroke-width="1.1" d="M579.45,-560.06C594.62,-671.24 675.92,-1259.38 702,-1287.01 705.1,-1290.3 708.57,-1293.13 712.32,-1295.59"/>
<polygon fill="#666666" stroke="#666666" stroke-width="1.1" points="711.12,-1297.73 718.41,-1299.13 713.59,-1293.49 711.12,-1297.73"/>
</g>
<!-- termin&#45;engine&#45;&gt;termin&#45;csharp -->
<g id="edge55" class="edge">
<title>termin&#45;engine&#45;&gt;termin&#45;csharp</title>
<path fill="none" stroke="#666666" stroke-width="1.1" d="M1089.56,-731.78C1104.76,-725.15 1121.15,-716.28 1134,-705.01 1174.13,-669.82 1156.54,-636.37 1199,-604.01 1272.65,-547.88 1380.81,-525.23 1444.26,-516.38"/>
<polygon fill="#666666" stroke="#666666" stroke-width="1.1" points="1444.78,-518.78 1451.39,-515.42 1444.13,-513.93 1444.78,-518.78"/>
</g>
<!-- termin&#45;android -->
<g id="node40" class="node">
<title>termin&#45;android</title>
<path fill="#f7f7f7" stroke="#444444" d="M1533,-617.01C1533,-617.01 1461,-617.01 1461,-617.01 1455,-617.01 1449,-611.01 1449,-605.01 1449,-605.01 1449,-593.01 1449,-593.01 1449,-587.01 1455,-581.01 1461,-581.01 1461,-581.01 1533,-581.01 1533,-581.01 1539,-581.01 1545,-587.01 1545,-593.01 1545,-593.01 1545,-605.01 1545,-605.01 1545,-611.01 1539,-617.01 1533,-617.01"/>
<text text-anchor="middle" x="1497" y="-596.21" font-family="DejaVu Sans" font-size="11.00">termin&#45;android</text>
</g>
<!-- termin&#45;engine&#45;&gt;termin&#45;android -->
<g id="edge54" class="edge">
<title>termin&#45;engine&#45;&gt;termin&#45;android</title>
<path fill="none" stroke="#666666" stroke-width="1.1" d="M1087.43,-728.83C1102.44,-721.92 1119.24,-713.63 1134,-705.01 1164.56,-687.17 1166.51,-673.04 1199,-659.01 1279.29,-624.35 1380.54,-609.4 1441.68,-603.19"/>
<polygon fill="#666666" stroke="#666666" stroke-width="1.1" points="1442.21,-605.6 1448.93,-602.47 1441.73,-600.72 1442.21,-605.6"/>
</g>
<!-- termin&#45;openxr -->
<g id="node48" class="node">
<title>termin&#45;openxr</title>
<path fill="#f7f7f7" stroke="#444444" d="M1531.5,-714.01C1531.5,-714.01 1462.5,-714.01 1462.5,-714.01 1456.5,-714.01 1450.5,-708.01 1450.5,-702.01 1450.5,-702.01 1450.5,-690.01 1450.5,-690.01 1450.5,-684.01 1456.5,-678.01 1462.5,-678.01 1462.5,-678.01 1531.5,-678.01 1531.5,-678.01 1537.5,-678.01 1543.5,-684.01 1543.5,-690.01 1543.5,-690.01 1543.5,-702.01 1543.5,-702.01 1543.5,-708.01 1537.5,-714.01 1531.5,-714.01"/>
<text text-anchor="middle" x="1497" y="-693.21" font-family="DejaVu Sans" font-size="11.00">termin&#45;openxr</text>
</g>
<!-- termin&#45;engine&#45;&gt;termin&#45;openxr -->
<g id="edge56" class="edge">
<title>termin&#45;engine&#45;&gt;termin&#45;openxr</title>
<path fill="none" stroke="#666666" stroke-width="1.1" d="M1083.01,-729C1126.6,-708.41 1192.87,-677.36 1199,-676.01 1283.04,-657.58 1383.38,-671.58 1443.28,-683.62"/>
<polygon fill="#666666" stroke="#666666" stroke-width="1.1" points="1443.03,-686.07 1450.38,-685.08 1444.01,-681.27 1443.03,-686.07"/>
</g>
<!-- termin&#45;engine&#45;&gt;termin&#45;player -->
<g id="edge57" class="edge">
<title>termin&#45;engine&#45;&gt;termin&#45;player</title>
<path fill="none" stroke="#666666" stroke-width="1.1" d="M1089.61,-748.43C1169.21,-751.82 1331.36,-762.96 1374,-798.01 1472.12,-878.69 1491.33,-1045.15 1495.09,-1108.65"/>
<polygon fill="#666666" stroke="#666666" stroke-width="1.1" points="1492.65,-1109.01 1495.47,-1115.87 1497.54,-1108.75 1492.65,-1109.01"/>
</g>
<!-- termin&#45;engine&#45;&gt;termin&#45;runtime -->
<g id="edge58" class="edge">
<title>termin&#45;engine&#45;&gt;termin&#45;runtime</title>
<path fill="none" stroke="#666666" stroke-width="1.1" d="M1064.05,-728.87C1084.18,-708.7 1115.5,-674.3 1134,-639.01 1183.13,-545.31 1128.59,-488.98 1199,-410.01 1206.6,-401.49 1216.66,-395.06 1227.14,-390.22"/>
<polygon fill="#666666" stroke="#666666" stroke-width="1.1" points="1228.23,-392.42 1233.7,-387.41 1226.3,-387.91 1228.23,-392.42"/>
</g>
<!-- tcplot -->
<g id="node37" class="node">
<title>tcplot</title>
<path fill="#f7f7f7" stroke="#444444" d="M814.5,-196.01C814.5,-196.01 784.5,-196.01 784.5,-196.01 778.5,-196.01 772.5,-190.01 772.5,-184.01 772.5,-184.01 772.5,-172.01 772.5,-172.01 772.5,-166.01 778.5,-160.01 784.5,-160.01 784.5,-160.01 814.5,-160.01 814.5,-160.01 820.5,-160.01 826.5,-166.01 826.5,-172.01 826.5,-172.01 826.5,-184.01 826.5,-184.01 826.5,-190.01 820.5,-196.01 814.5,-196.01"/>
<text text-anchor="middle" x="799.5" y="-175.21" font-family="DejaVu Sans" font-size="11.00">tcplot</text>
</g>
<!-- tcplot&#45;&gt;termin&#45;csharp -->
<g id="edge1" class="edge">
<title>tcplot&#45;&gt;termin&#45;csharp</title>
<path fill="none" stroke="#666666" stroke-width="1.1" d="M826.51,-171.13C913.66,-149.7 1199.72,-92.82 1374,-218.01 1464.34,-282.91 1488.06,-427.65 1494.06,-485.96"/>
<polygon fill="#666666" stroke="#666666" stroke-width="1.1" points="1491.62,-486.22 1494.74,-492.95 1496.5,-485.75 1491.62,-486.22"/>
</g>
<!-- termin&#45;gui&#45;&gt;termin&#45;csg -->
<g id="edge68" class="edge">
<title>termin&#45;gui&#45;&gt;termin&#45;csg</title>
<path fill="none" stroke="#666666" stroke-width="1.1" d="M540.47,-113C482.57,-106.76 366.43,-103.95 307,-170.01 221.34,-265.24 201.67,-1234.4 198.88,-1403.82"/>
<polygon fill="#666666" stroke="#666666" stroke-width="1.1" points="196.43,-1403.8 198.77,-1410.84 201.33,-1403.88 196.43,-1403.8"/>
</g>
<!-- termin&#45;gui&#45;&gt;termin&#45;components&#45;ui -->
<g id="edge67" class="edge">
<title>termin&#45;gui&#45;&gt;termin&#45;components&#45;ui</title>
<path fill="none" stroke="#666666" stroke-width="1.1" d="M593.36,-136.24C609.26,-155.06 632.77,-185.98 645,-217.01 707.61,-375.9 656.07,-432.53 702,-597.01 723.81,-675.13 765.1,-762.11 785.88,-803.52"/>
<polygon fill="#666666" stroke="#666666" stroke-width="1.1" points="783.81,-804.86 789.16,-810 788.19,-802.65 783.81,-804.86"/>
</g>
<!-- termin&#45;gui&#45;&gt;tcplot -->
<g id="edge66" class="edge">
<title>termin&#45;gui&#45;&gt;tcplot</title>
<path fill="none" stroke="#666666" stroke-width="1.1" d="M611.61,-127.39C653.71,-138.79 724.25,-157.9 765.57,-169.1"/>
<polygon fill="#666666" stroke="#666666" stroke-width="1.1" points="765.04,-171.49 772.44,-170.96 766.32,-166.76 765.04,-171.49"/>
</g>
<!-- termin&#45;nodegraph -->
<g id="node39" class="node">
<title>termin&#45;nodegraph</title>
<path fill="#f7f7f7" stroke="#444444" d="M844,-128.01C844,-128.01 755,-128.01 755,-128.01 749,-128.01 743,-122.01 743,-116.01 743,-116.01 743,-104.01 743,-104.01 743,-98.01 749,-92.01 755,-92.01 755,-92.01 844,-92.01 844,-92.01 850,-92.01 856,-98.01 856,-104.01 856,-104.01 856,-116.01 856,-116.01 856,-122.01 850,-128.01 844,-128.01"/>
<text text-anchor="middle" x="799.5" y="-107.21" font-family="DejaVu Sans" font-size="11.00">termin&#45;nodegraph</text>
</g>
<!-- termin&#45;gui&#45;&gt;termin&#45;nodegraph -->
<g id="edge69" class="edge">
<title>termin&#45;gui&#45;&gt;termin&#45;nodegraph</title>
<path fill="none" stroke="#666666" stroke-width="1.1" d="M611.61,-116.76C644.6,-115.57 695.06,-113.75 735.23,-112.3"/>
<polygon fill="#666666" stroke="#666666" stroke-width="1.1" points="735.7,-114.73 742.61,-112.03 735.52,-109.84 735.7,-114.73"/>
</g>
<!-- termin&#45;project&#45;build -->
<g id="node53" class="node">
<title>termin&#45;project&#45;build</title>
<path fill="#f7f7f7" stroke="#444444" d="M849,-60.01C849,-60.01 750,-60.01 750,-60.01 744,-60.01 738,-54.01 738,-48.01 738,-48.01 738,-36.01 738,-36.01 738,-30.01 744,-24.01 750,-24.01 750,-24.01 849,-24.01 849,-24.01 855,-24.01 861,-30.01 861,-36.01 861,-36.01 861,-48.01 861,-48.01 861,-54.01 855,-60.01 849,-60.01"/>
<text text-anchor="middle" x="799.5" y="-39.21" font-family="DejaVu Sans" font-size="11.00">termin&#45;project&#45;build</text>
</g>
<!-- termin&#45;gui&#45;&gt;termin&#45;project&#45;build -->
<g id="edge70" class="edge">
<title>termin&#45;gui&#45;&gt;termin&#45;project&#45;build</title>
<path fill="none" stroke="#666666" stroke-width="1.1" d="M611.61,-106.14C645.73,-94.43 698.52,-76.32 739.31,-62.32"/>
<polygon fill="#666666" stroke="#666666" stroke-width="1.1" points="740.18,-64.62 746.01,-60.03 738.59,-59.98 740.18,-64.62"/>
</g>
<!-- termin&#45;nodegraph&#45;&gt;termin&#45;app -->
<g id="edge82" class="edge">
<title>termin&#45;nodegraph&#45;&gt;termin&#45;app</title>
<path fill="none" stroke="#666666" stroke-width="1.1" d="M856.21,-96.62C965.08,-73.74 1209.72,-38.89 1374,-141.01 1519.51,-231.48 1509.14,-314.36 1563,-477.01 1659.11,-767.27 1664.99,-1145.09 1664.74,-1245.57"/>
<polygon fill="#666666" stroke="#666666" stroke-width="1.1" points="1662.29,-1245.84 1664.71,-1252.85 1667.19,-1245.86 1662.29,-1245.84"/>
</g>
<!-- termin&#45;glb&#45;&gt;termin&#45;app -->
<g id="edge59" class="edge">
<title>termin&#45;glb&#45;&gt;termin&#45;app</title>
<path fill="none" stroke="#666666" stroke-width="1.1" d="M835.17,-1372.76C971.22,-1356.07 1468.55,-1295.06 1620.26,-1276.44"/>
<polygon fill="#666666" stroke="#666666" stroke-width="1.1" points="1621,-1278.82 1627.64,-1275.54 1620.4,-1273.96 1621,-1278.82"/>
</g>
<!-- termin&#45;mcp&#45;&gt;termin&#45;player -->
<g id="edge75" class="edge">
<title>termin&#45;mcp&#45;&gt;termin&#45;player</title>
<path fill="none" stroke="#666666" stroke-width="1.1" d="M838.6,-1925.38C904.55,-1898.67 1041.78,-1836.82 1134,-1752.01 1273.65,-1623.6 1293.3,-1570.71 1374,-1399.01 1412.77,-1316.53 1385.53,-1281.01 1431,-1202.01 1440.69,-1185.17 1455.42,-1169.29 1468.41,-1157.12"/>
<polygon fill="#666666" stroke="#666666" stroke-width="1.1" points="1470.34,-1158.68 1473.85,-1152.14 1467.03,-1155.06 1470.34,-1158.68"/>
</g>
<!-- termin&#45;player&#45;&gt;termin&#45;app -->
<g id="edge84" class="edge">
<title>termin&#45;player&#45;&gt;termin&#45;app</title>
<path fill="none" stroke="#666666" stroke-width="1.1" d="M1520.11,-1152.21C1550.3,-1177.05 1604.39,-1221.55 1637.11,-1248.48"/>
<polygon fill="#666666" stroke="#666666" stroke-width="1.1" points="1635.6,-1250.41 1642.56,-1252.97 1638.72,-1246.63 1635.6,-1250.41"/>
</g>
<!-- termin&#45;project&#45;&gt;termin&#45;project&#45;build -->
<g id="edge85" class="edge">
<title>termin&#45;project&#45;&gt;termin&#45;project&#45;build</title>
<path fill="none" stroke="#666666" stroke-width="1.1" d="M425.2,-256.45C434.34,-251.67 443.2,-245.61 450,-238.01 500.89,-181.13 447.38,-123.67 507,-76.01 569.85,-25.78 666.08,-24.58 730.59,-31.04"/>
<polygon fill="#666666" stroke="#666666" stroke-width="1.1" points="730.69,-33.51 737.91,-31.82 731.21,-28.64 730.69,-33.51"/>
</g>
<!-- termin&#45;project&#45;build&#45;&gt;termin&#45;app -->
<g id="edge86" class="edge">
<title>termin&#45;project&#45;build&#45;&gt;termin&#45;app</title>
<path fill="none" stroke="#666666" stroke-width="1.1" d="M861.09,-28.33C1013.35,2.05 1410.66,55.43 1563,-174.01 1624.25,-266.27 1657.75,-1089.38 1663.58,-1245.51"/>
<polygon fill="#666666" stroke="#666666" stroke-width="1.1" points="1661.14,-1245.94 1663.85,-1252.84 1666.04,-1245.76 1661.14,-1245.94"/>
</g>
<!-- termin&#45;render&#45;passes&#45;&gt;termin&#45;csharp -->
<g id="edge92" class="edge">
<title>termin&#45;render&#45;passes&#45;&gt;termin&#45;csharp</title>
<path fill="none" stroke="#666666" stroke-width="1.1" d="M1301.2,-691.66C1328.42,-663.64 1382.52,-608.84 1431,-565.01 1442.78,-554.36 1456.23,-543.06 1467.82,-533.56"/>
<polygon fill="#666666" stroke="#666666" stroke-width="1.1" points="1469.47,-535.38 1473.35,-529.06 1466.37,-531.58 1469.47,-535.38"/>
</g>
<!-- termin&#45;render&#45;passes&#45;&gt;termin&#45;android -->
<g id="edge91" class="edge">
<title>termin&#45;render&#45;passes&#45;&gt;termin&#45;android</title>
<path fill="none" stroke="#666666" stroke-width="1.1" d="M1318.11,-691.93C1355.47,-672.42 1414.94,-641.36 1454.7,-620.59"/>
<polygon fill="#666666" stroke="#666666" stroke-width="1.1" points="1456.33,-622.5 1461.4,-617.09 1454.06,-618.16 1456.33,-622.5"/>
</g>
<!-- termin&#45;render&#45;passes&#45;&gt;termin&#45;default&#45;assets -->
<g id="edge93" class="edge">
<title>termin&#45;render&#45;passes&#45;&gt;termin&#45;default&#45;assets</title>
<path fill="none" stroke="#666666" stroke-width="1.1" d="M1311.59,-728.2C1332.35,-743.24 1359.46,-766.54 1374,-794.01 1452.68,-942.61 1356.8,-1017.13 1431,-1168.01 1439.45,-1185.2 1453.8,-1200.91 1466.86,-1212.88"/>
<polygon fill="#666666" stroke="#666666" stroke-width="1.1" points="1465.51,-1214.96 1472.36,-1217.78 1468.77,-1211.3 1465.51,-1214.96"/>
</g>
<!-- termin&#45;render&#45;passes&#45;&gt;termin&#45;openxr -->
<g id="edge94" class="edge">
<title>termin&#45;render&#45;passes&#45;&gt;termin&#45;openxr</title>
<path fill="none" stroke="#666666" stroke-width="1.1" d="M1348.7,-705.72C1379.07,-703.72 1414.72,-701.37 1443.35,-699.48"/>
<polygon fill="#666666" stroke="#666666" stroke-width="1.1" points="1443.64,-701.92 1450.46,-699.01 1443.32,-697.03 1443.64,-701.92"/>
</g>
<!-- termin&#45;render&#45;passes&#45;&gt;termin&#45;player -->
<g id="edge95" class="edge">
<title>termin&#45;render&#45;passes&#45;&gt;termin&#45;player</title>
<path fill="none" stroke="#666666" stroke-width="1.1" d="M1341.42,-728.23C1353.48,-734.23 1365.18,-742.01 1374,-752.01 1469.11,-859.86 1490.16,-1042.34 1494.75,-1108.82"/>
<polygon fill="#666666" stroke="#666666" stroke-width="1.1" points="1492.31,-1109.16 1495.21,-1115.98 1497.2,-1108.84 1492.31,-1109.16"/>
</g>
<!-- termin&#45;shader&#45;runtime&#45;&gt;termin&#45;player -->
<g id="edge108" class="edge">
<title>termin&#45;shader&#45;runtime&#45;&gt;termin&#45;player</title>
<path fill="none" stroke="#666666" stroke-width="1.1" d="M645.17,-248.64C818.77,-244.11 1271.08,-242.35 1374,-342.01 1436.61,-402.64 1417.74,-643.88 1431,-730.01 1453.06,-873.39 1481.29,-1045.08 1491.8,-1108.7"/>
<polygon fill="#666666" stroke="#666666" stroke-width="1.1" points="1489.44,-1109.4 1493,-1115.91 1494.27,-1108.6 1489.44,-1109.4"/>
</g>
<!-- termin&#45;shader&#45;runtime&#45;&gt;termin&#45;project&#45;build -->
<g id="edge109" class="edge">
<title>termin&#45;shader&#45;runtime&#45;&gt;termin&#45;project&#45;build</title>
<path fill="none" stroke="#666666" stroke-width="1.1" d="M640.45,-232.88C642.05,-231.67 643.57,-230.39 645,-229.01 697.42,-178.84 650.23,-126.87 702,-76.01 710.19,-67.97 720.38,-61.83 731.06,-57.13"/>
<polygon fill="#666666" stroke="#666666" stroke-width="1.1" points="732.2,-59.31 737.75,-54.39 730.35,-54.77 732.2,-59.31"/>
</g>
</g>
</svg>
